<svg width="152" height="110" viewBox="0 0 152 110" fill="none" xmlns="http://www.w3.org/2000/svg">
<g filter="url(#filter0_bd_830_62296)">
<path d="M7.95312 10.2372C7.95312 8.97576 8.97576 7.95312 10.2372 7.95312H141.468C142.729 7.95312 143.752 8.97576 143.752 10.2372V99.3091C143.752 100.571 142.729 101.593 141.468 101.593H10.2372C8.97575 101.593 7.95312 100.571 7.95312 99.3091V10.2372Z" fill="white" fill-opacity="0.2" shape-rendering="crispEdges"/>
</g>
<g filter="url(#filter1_bd_830_62296)">
<path fill-rule="evenodd" clip-rule="evenodd" d="M10.2382 7H141.469C143.257 7 144.707 8.44981 144.707 10.2382V99.3101C144.707 101.098 143.257 102.548 141.469 102.548H10.2382C8.44978 102.548 7 101.098 7 99.3101V10.2382C7 8.4498 8.4498 7 10.2382 7ZM10.2382 7.9541C8.97674 7.9541 7.9541 8.97673 7.9541 10.2382V99.3101C7.9541 100.572 8.97672 101.594 10.2382 101.594H141.469C142.73 101.594 143.753 100.572 143.753 99.3101V10.2382C143.753 8.97674 142.73 7.9541 141.469 7.9541H10.2382Z" fill="url(#paint0_linear_830_62296)"/>
</g>
<g style="mix-blend-mode:color-dodge" opacity="0.8">
<rect x="21.7734" y="23.1436" width="45.3076" height="44.9618" rx="0.873946" fill="url(#paint1_linear_830_62296)"/>
<rect x="21.2617" y="77.8076" width="114.204" height="12.1966" rx="0.954102" fill="url(#paint2_linear_830_62296)"/>
</g>
<path d="M85.0337 53.3096H76.1143C75.5873 53.3096 75.1602 53.7367 75.1602 54.2637V67.1765C75.1602 67.7035 75.5873 68.1306 76.1143 68.1306H85.0337C85.5606 68.1306 85.9878 67.7035 85.9878 67.1765V54.2637C85.9878 53.7367 85.5606 53.3096 85.0337 53.3096Z" fill="url(#paint3_linear_830_62296)"/>
<path d="M101.268 44.4365H92.3486C91.8217 44.4365 91.3945 44.8637 91.3945 45.3906V67.1792C91.3945 67.7061 91.8217 68.1333 92.3486 68.1333H101.268C101.795 68.1333 102.222 67.7061 102.222 67.1792V45.3906C102.222 44.8637 101.795 44.4365 101.268 44.4365Z" fill="url(#paint4_linear_830_62296)"/>
<path d="M117.499 35.8701H108.579C108.052 35.8701 107.625 36.2973 107.625 36.8242V67.1721C107.625 67.699 108.052 68.1262 108.579 68.1262H117.499C118.025 68.1262 118.453 67.699 118.453 67.1721V36.8242C118.453 36.2973 118.025 35.8701 117.499 35.8701Z" fill="url(#paint5_linear_830_62296)"/>
<path d="M133.735 26.0469H124.815C124.288 26.0469 123.861 26.474 123.861 27.001V67.1762C123.861 67.7032 124.288 68.1303 124.815 68.1303H133.735C134.262 68.1303 134.689 67.7032 134.689 67.1762V27.001C134.689 26.474 134.262 26.0469 133.735 26.0469Z" fill="url(#paint6_linear_830_62296)"/>
<defs>
<filter id="filter0_bd_830_62296" x="-19.1607" y="-19.1607" width="190.026" height="147.867" filterUnits="userSpaceOnUse" color-interpolation-filters="sRGB">
<feFlood flood-opacity="0" result="BackgroundImageFix"/>
<feGaussianBlur in="BackgroundImageFix" stdDeviation="13.5569"/>
<feComposite in2="SourceAlpha" operator="in" result="effect1_backgroundBlur_830_62296"/>
<feColorMatrix in="SourceAlpha" type="matrix" values="0 0 0 0 0 0 0 0 0 0 0 0 0 0 0 0 0 0 127 0" result="hardAlpha"/>
<feOffset/>
<feGaussianBlur stdDeviation="3.42626"/>
<feComposite in2="hardAlpha" operator="out"/>
<feColorMatrix type="matrix" values="0 0 0 0 0.725488 0 0 0 0 1 0 0 0 0 1 0 0 0 0.95 0"/>
<feBlend mode="normal" in2="effect1_backgroundBlur_830_62296" result="effect2_dropShadow_830_62296"/>
<feBlend mode="normal" in="SourceGraphic" in2="effect2_dropShadow_830_62296" result="shape"/>
</filter>
<filter id="filter1_bd_830_62296" x="-20.1138" y="-20.1138" width="191.935" height="149.775" filterUnits="userSpaceOnUse" color-interpolation-filters="sRGB">
<feFlood flood-opacity="0" result="BackgroundImageFix"/>
<feGaussianBlur in="BackgroundImageFix" stdDeviation="13.5569"/>
<feComposite in2="SourceAlpha" operator="in" result="effect1_backgroundBlur_830_62296"/>
<feColorMatrix in="SourceAlpha" type="matrix" values="0 0 0 0 0 0 0 0 0 0 0 0 0 0 0 0 0 0 127 0" result="hardAlpha"/>
<feOffset/>
<feGaussianBlur stdDeviation="3.42626"/>
<feComposite in2="hardAlpha" operator="out"/>
<feColorMatrix type="matrix" values="0 0 0 0 0.725488 0 0 0 0 1 0 0 0 0 1 0 0 0 0.95 0"/>
<feBlend mode="normal" in2="effect1_backgroundBlur_830_62296" result="effect2_dropShadow_830_62296"/>
<feBlend mode="normal" in="SourceGraphic" in2="effect2_dropShadow_830_62296" result="shape"/>
</filter>
<linearGradient id="paint0_linear_830_62296" x1="160.727" y1="125.256" x2="-19.8433" y2="16.7088" gradientUnits="userSpaceOnUse">
<stop stop-color="#00F9FF"/>
<stop offset="0.135" stop-color="white"/>
<stop offset="0.33" stop-color="#61FBFF"/>
<stop offset="0.51" stop-color="#73FCFF"/>
<stop offset="1" stop-color="white"/>
</linearGradient>
<linearGradient id="paint1_linear_830_62296" x1="6.41849" y1="-54.2699" x2="13.6765" y2="72.6061" gradientUnits="userSpaceOnUse">
<stop stop-color="white"/>
<stop offset="1" stop-color="#95F2FF"/>
</linearGradient>
<linearGradient id="paint2_linear_830_62296" x1="-17.4426" y1="56.808" x2="-17.23" y2="91.3364" gradientUnits="userSpaceOnUse">
<stop stop-color="white"/>
<stop offset="1" stop-color="#95F2FF"/>
</linearGradient>
<linearGradient id="paint3_linear_830_62296" x1="71.4906" y1="27.7912" x2="74.781" y2="69.4915" gradientUnits="userSpaceOnUse">
<stop stop-color="white"/>
<stop offset="1" stop-color="#95F2FF"/>
</linearGradient>
<linearGradient id="paint4_linear_830_62296" x1="87.725" y1="3.6364" x2="96.0562" y2="69.6731" gradientUnits="userSpaceOnUse">
<stop stop-color="white"/>
<stop offset="1" stop-color="#95F2FF"/>
</linearGradient>
<linearGradient id="paint5_linear_830_62296" x1="103.955" y1="-19.6671" x2="119.189" y2="69.037" gradientUnits="userSpaceOnUse">
<stop stop-color="white"/>
<stop offset="1" stop-color="#95F2FF"/>
</linearGradient>
<linearGradient id="paint6_linear_830_62296" x1="120.192" y1="-46.4108" x2="145.61" y2="67.0368" gradientUnits="userSpaceOnUse">
<stop stop-color="white"/>
<stop offset="1" stop-color="#95F2FF"/>
</linearGradient>
</defs>
</svg>
