<svg width="419" height="225" viewBox="0 0 419 225" fill="none" xmlns="http://www.w3.org/2000/svg">
<g filter="url(#filter0_d_4912_26611)">
<path d="M389.11 25.0924C389.902 28.1721 392.642 30.4526 395.942 30.4526C399.841 30.4526 403.025 27.2559 403.025 23.2991C403.025 19.3422 399.86 16.1455 395.942 16.1455C392.758 16.1455 390.114 18.2702 389.207 21.1745L342.213 21.1745L298.789 65.0313L-42 65.0313L-42 68.9297L300.391 68.9297L343.815 25.0729L389.11 25.0924Z" fill="#0059DE"/>
</g>
<path d="M59.2853 153.154L-164 153.154L-164 156.851L59.1895 156.851C59.9757 159.753 62.699 161.916 65.9592 161.916C69.8522 161.916 72.9974 158.884 72.9974 155.132C72.9974 151.398 69.8522 148.347 65.9592 148.347C62.814 148.347 60.1675 150.381 59.2853 153.154Z" fill="#003E9B"/>
<path d="M154.617 127.773L169.963 143.086L327.823 143.086C328.61 146.11 331.334 148.35 334.614 148.35C338.509 148.35 341.655 145.211 341.655 141.325C341.655 137.459 338.509 134.3 334.614 134.3C331.449 134.3 328.821 136.387 327.919 139.239L171.536 139.239L156.19 123.926L-164 123.926L-164 127.754L154.617 127.754L154.617 127.773Z" fill="#003E9B"/>
<path d="M195.305 13.9481C199.2 13.9481 202.347 10.8315 202.347 6.97376C202.347 3.11603 199.2 -0.000574141 195.305 -0.000573971C191.409 -0.000573801 188.263 3.11603 188.263 6.97376C188.263 8.247 188.627 9.42519 189.241 10.4514L162.531 36.9044L-19.6445 36.9044L-19.6445 40.7051L164.104 40.7051L191.985 13.0929C192.983 13.625 194.096 13.9481 195.305 13.9481Z" fill="#003E9B"/>
<path d="M154.617 99.7286L169.963 115.041L327.823 115.041C328.61 118.065 331.334 120.305 334.614 120.305C338.509 120.305 341.655 117.166 341.655 113.28C341.655 109.414 338.509 106.255 334.614 106.255C331.449 106.255 328.821 108.342 327.919 111.194L171.536 111.194L156.19 95.8813L-164 95.8813L-164 99.7094L154.617 99.7094L154.617 99.7286Z" fill="#003E9B"/>
<path fill-rule="evenodd" clip-rule="evenodd" d="M277.293 218.196C277.293 216.108 275.6 214.414 273.511 214.414C271.423 214.414 269.729 216.108 269.729 218.196C269.729 220.285 271.423 221.979 273.511 221.979C275.6 221.979 277.293 220.285 277.293 218.196ZM280.293 218.196C280.293 214.451 277.257 211.414 273.511 211.414C272.743 211.414 272.004 211.542 271.315 211.778L239.033 179.014L-146.645 179.014V182.559L237.601 182.56L268.347 213.799C267.338 214.983 266.729 216.519 266.729 218.196C266.729 221.942 269.766 224.979 273.511 224.979C277.257 224.979 280.293 221.942 280.293 218.196Z" fill="#003E9B"/>
<path fill-rule="evenodd" clip-rule="evenodd" d="M152.476 209.468C152.476 211.929 150.481 213.923 148.021 213.923C145.561 213.923 143.566 211.929 143.566 209.468C143.566 207.008 145.561 205.014 148.021 205.014C150.481 205.014 152.476 207.008 152.476 209.468ZM155.476 209.468C155.476 213.585 152.138 216.923 148.021 216.923C144.775 216.923 142.014 214.849 140.99 211.953L-153.645 211.953L-153.645 208.335L140.652 208.335C141.198 204.756 144.289 202.014 148.021 202.014C152.138 202.014 155.476 205.351 155.476 209.468Z" fill="#003E9B"/>
<defs>
<filter id="filter0_d_4912_26611" x="-57" y="1.14648" width="475.025" height="82.7832" filterUnits="userSpaceOnUse" color-interpolation-filters="sRGB">
<feFlood flood-opacity="0" result="BackgroundImageFix"/>
<feColorMatrix in="SourceAlpha" type="matrix" values="0 0 0 0 0 0 0 0 0 0 0 0 0 0 0 0 0 0 127 0" result="hardAlpha"/>
<feOffset/>
<feGaussianBlur stdDeviation="7.5"/>
<feComposite in2="hardAlpha" operator="out"/>
<feColorMatrix type="matrix" values="0 0 0 0 0 0 0 0 0 0.677675 0 0 0 0 0.720931 0 0 0 0.5 0"/>
<feBlend mode="normal" in2="BackgroundImageFix" result="effect1_dropShadow_4912_26611"/>
<feBlend mode="normal" in="SourceGraphic" in2="effect1_dropShadow_4912_26611" result="shape"/>
</filter>
</defs>
</svg>
