<svg width="431" height="273" viewBox="0 0 431 273" fill="none" xmlns="http://www.w3.org/2000/svg">
<path d="M302.438 9.2269C302.438 10.1772 302.201 11.0596 301.827 11.8741L310.499 20.5456L516.813 20.5456L516.812 23.9395L309.09 23.9394L299.604 14.4535C298.637 15.0814 297.466 15.4547 296.227 15.4547C292.8 15.4547 290 12.6717 290 9.2269C290 5.78212 292.783 2.99916 296.227 2.99916C299.655 2.99916 302.438 5.78212 302.438 9.2269Z" fill="#01489C"/>
<path d="M438.184 4.53028L671.497 4.53029L671.497 7.92417L438.184 7.92416C437.438 10.5375 435.062 12.4551 432.228 12.4551C428.8 12.4551 426 9.67201 426 6.22722C426 2.78244 428.783 -0.000515103 432.228 -0.000514952C435.079 -0.000514828 437.438 1.917 438.184 4.53028Z" fill="#01489C"/>
<path d="M130.184 192.575L223.634 192.575L257.013 159.196L315.846 159.196L352.042 123.001L579.007 123.001L579.007 126.395L353.45 126.395L317.254 162.59L258.422 162.59L225.043 195.969L130.184 195.969C129.437 198.582 127.061 200.5 124.228 200.5C120.8 200.5 118 197.717 118 194.272C118 190.844 120.783 188.044 124.228 188.044C127.078 188.061 129.437 189.979 130.184 192.575Z" fill="#01489C"/>
<path d="M225.223 73.1961C225.223 69.7683 228.006 66.9682 231.451 66.9682C234.302 66.9682 236.66 68.8858 237.407 71.4991L552.172 71.4991L552.172 74.893L237.407 74.893C236.66 77.5063 234.285 79.4238 231.451 79.4238C228.023 79.4238 225.223 76.6409 225.223 73.1961Z" fill="#01489C"/>
<path d="M205.572 52.2722L108.406 149.439C108.592 150.016 108.711 150.627 108.711 151.255C108.711 154.699 105.928 157.482 102.483 157.482C99.0555 157.482 96.2556 154.699 96.2556 151.255C96.2556 147.827 99.0386 145.027 102.483 145.027C104.028 145.027 105.419 145.604 106.505 146.537L204.164 48.8783L552.172 48.8783L552.172 52.2722L205.572 52.2722Z" fill="#01489C"/>
<path d="M225.223 73.1961C225.223 69.7683 228.006 66.9682 231.451 66.9682C234.302 66.9682 236.66 68.8858 237.407 71.4991L552.172 71.4991L552.172 74.893L237.407 74.893C236.66 77.5063 234.285 79.4238 231.451 79.4238C228.023 79.4238 225.223 76.6409 225.223 73.1961Z" fill="#01489C"/>
<path d="M552.172 52.2722L205.572 52.2722L108.406 149.439C108.592 150.016 108.711 150.627 108.711 151.255C108.711 154.699 105.928 157.482 102.483 157.482C99.0555 157.482 96.2556 154.699 96.2556 151.255C96.2556 147.827 99.0386 145.027 102.483 145.027C104.028 145.027 105.419 145.604 106.505 146.537L204.164 48.8783L552.172 48.8783L552.172 52.2722Z" fill="#01489C"/>
<path fill-rule="evenodd" clip-rule="evenodd" d="M601.231 99.3939L601.231 96L246.435 96L187.237 155.199C186.226 154.601 185.047 154.258 183.787 154.258C180.039 154.258 177 157.297 177 161.046C177 164.795 180.039 167.834 183.787 167.834C187.536 167.834 190.575 164.795 190.575 161.046C190.575 159.784 190.231 158.602 189.631 157.59L247.844 99.3939L601.231 99.3939ZM179 161.046C179 163.69 181.143 165.834 183.787 165.834C186.432 165.834 188.575 163.69 188.575 161.046C188.575 158.402 186.432 156.258 183.787 156.258C181.143 156.258 179 158.402 179 161.046Z" fill="#01489C"/>
<g filter="url(#filter0_d_4148_21485)">
<path fill-rule="evenodd" clip-rule="evenodd" d="M529.173 145.002L375.753 145.002L297.116 223.621L28.3618 223.621C27.6088 220.693 24.9508 218.529 21.7874 218.529C18.0387 218.529 14.9997 221.568 14.9997 225.317C14.9997 229.065 18.0387 232.104 21.7874 232.104C24.9497 232.104 27.6069 229.942 28.3609 227.015L298.525 227.015L377.144 148.396L529.173 148.396V145.002ZM16.9997 225.317C16.9997 227.961 19.1432 230.104 21.7874 230.104C24.4316 230.104 26.5752 227.961 26.5752 225.317C26.5752 222.672 24.4316 220.529 21.7874 220.529C19.1432 220.529 16.9997 222.672 16.9997 225.317Z" fill="#0082F0"/>
</g>
<path fill-rule="evenodd" clip-rule="evenodd" d="M523.657 168L393.994 168L298.388 263.589L70.3608 263.589C69.6065 260.662 66.9495 258.5 63.7874 258.5C60.0387 258.5 56.9997 261.539 56.9997 265.288C56.9997 269.037 60.0387 272.076 63.7874 272.076C66.951 272.076 69.6092 269.911 70.3619 266.983L299.797 266.983L395.386 171.394L523.657 171.394V168Z" fill="#01489C"/>
<defs>
<filter id="filter0_d_4148_21485" x="-0.000488281" y="130.002" width="544.173" height="117.102" filterUnits="userSpaceOnUse" color-interpolation-filters="sRGB">
<feFlood flood-opacity="0" result="BackgroundImageFix"/>
<feColorMatrix in="SourceAlpha" type="matrix" values="0 0 0 0 0 0 0 0 0 0 0 0 0 0 0 0 0 0 127 0" result="hardAlpha"/>
<feOffset/>
<feGaussianBlur stdDeviation="7.5"/>
<feComposite in2="hardAlpha" operator="out"/>
<feColorMatrix type="matrix" values="0 0 0 0 0 0 0 0 0 0.94 0 0 0 0 1 0 0 0 0.5 0"/>
<feBlend mode="normal" in2="BackgroundImageFix" result="effect1_dropShadow_4148_21485"/>
<feBlend mode="normal" in="SourceGraphic" in2="effect1_dropShadow_4148_21485" result="shape"/>
</filter>
</defs>
</svg>
