<svg width="431" height="273" viewBox="0 0 431 273" fill="none" xmlns="http://www.w3.org/2000/svg">
<g style="mix-blend-mode:overlay">
<path d="M302.438 9.22788C302.438 10.1782 302.201 11.0606 301.827 11.8751L310.499 20.5465L516.813 20.5466L516.812 23.9404L309.09 23.9404L299.604 14.4545C298.637 15.0824 297.466 15.4557 296.227 15.4557C292.8 15.4557 290 12.6727 290 9.22788C290 5.78309 292.783 3.00014 296.227 3.00014C299.655 3.00014 302.438 5.78309 302.438 9.22788Z" fill="#0F5EBA"/>
<path d="M438.185 4.53126L671.497 4.53127L671.497 7.92515L438.185 7.92514C437.438 10.5384 435.062 12.456 432.229 12.456C428.801 12.456 426.001 9.67299 426.001 6.2282C426.001 2.78341 428.784 0.000461459 432.229 0.00046161C435.079 0.000461735 437.438 1.91797 438.185 4.53126Z" fill="#0F5EBA"/>
<path d="M130.184 192.576L223.635 192.576L257.014 159.197L315.846 159.197L352.042 123.002L579.008 123.002L579.008 126.396L353.451 126.396L317.255 162.591L258.422 162.591L225.043 195.97L130.184 195.97C129.438 198.583 127.062 200.501 124.228 200.501C120.8 200.501 118 197.718 118 194.273C118 190.845 120.783 188.045 124.228 188.045C127.079 188.062 129.438 189.98 130.184 192.576Z" fill="#0F5EBA"/>
<path d="M225.224 73.1971C225.224 69.7692 228.006 66.9692 231.451 66.9692C234.302 66.9692 236.661 68.8868 237.408 71.5001L552.173 71.5001L552.173 74.894L237.408 74.894C236.661 77.5073 234.285 79.4248 231.451 79.4248C228.023 79.4248 225.224 76.6418 225.224 73.1971Z" fill="#0F5EBA"/>
<path d="M205.573 52.2731L108.406 149.44C108.593 150.017 108.712 150.628 108.712 151.256C108.712 154.7 105.929 157.483 102.484 157.483C99.056 157.483 96.2561 154.7 96.2561 151.256C96.2561 147.828 99.0391 145.028 102.484 145.028C104.028 145.028 105.42 145.605 106.506 146.538L204.164 48.8792L552.173 48.8793L552.173 52.2731L205.573 52.2731Z" fill="#0F5EBA"/>
<path d="M225.224 73.1971C225.224 69.7692 228.006 66.9692 231.451 66.9692C234.302 66.9692 236.661 68.8868 237.408 71.5001L552.173 71.5001L552.173 74.894L237.408 74.894C236.661 77.5073 234.285 79.4248 231.451 79.4248C228.023 79.4248 225.224 76.6418 225.224 73.1971Z" fill="#0F5EBA"/>
<path d="M552.173 52.2731L205.573 52.2731L108.406 149.44C108.593 150.017 108.712 150.628 108.712 151.256C108.712 154.7 105.929 157.483 102.484 157.483C99.056 157.483 96.2561 154.7 96.2561 151.256C96.2561 147.828 99.0391 145.028 102.484 145.028C104.028 145.028 105.42 145.605 106.506 146.538L204.164 48.8792L552.173 48.8793L552.173 52.2731Z" fill="#0F5EBA"/>
<path fill-rule="evenodd" clip-rule="evenodd" d="M601.232 99.3939V96L246.436 96L187.238 155.199C186.227 154.601 185.048 154.258 183.788 154.258C180.04 154.258 177.001 157.297 177.001 161.046C177.001 164.795 180.04 167.834 183.788 167.834C187.537 167.834 190.576 164.795 190.576 161.046C190.576 159.784 190.232 158.602 189.632 157.59L247.845 99.3939L601.232 99.3939ZM179.001 161.046C179.001 163.69 181.144 165.834 183.788 165.834C186.433 165.834 188.576 163.69 188.576 161.046C188.576 158.402 186.433 156.258 183.788 156.258C181.144 156.258 179.001 158.402 179.001 161.046Z" fill="#0F5EBA"/>
<g style="mix-blend-mode:overlay" filter="url(#filter0_d_1266_41284)">
<path fill-rule="evenodd" clip-rule="evenodd" d="M529.174 145.001L375.754 145.001L297.117 223.62L28.3627 223.62C27.6098 220.692 24.9518 218.528 21.7884 218.528C18.0396 218.528 15.0007 221.567 15.0007 225.316C15.0007 229.064 18.0396 232.103 21.7884 232.103C24.9507 232.103 27.6078 229.941 28.3619 227.014L298.526 227.014L377.145 148.395L529.174 148.395V145.001ZM17.0007 225.316C17.0007 227.96 19.1442 230.103 21.7884 230.103C24.4326 230.103 26.5762 227.96 26.5762 225.316C26.5762 222.671 24.4326 220.528 21.7884 220.528C19.1442 220.528 17.0007 222.671 17.0007 225.316Z" fill="white"/>
</g>
<path fill-rule="evenodd" clip-rule="evenodd" d="M523.658 168.001L393.995 168.001L298.389 263.59L70.3618 263.59C69.6075 260.663 66.9505 258.501 63.7884 258.501C60.0396 258.501 57.0006 261.54 57.0006 265.289C57.0006 269.038 60.0396 272.076 63.7884 272.076C66.952 272.076 69.6101 269.912 70.3629 266.983L299.798 266.983L395.387 171.395L523.658 171.395V168.001Z" fill="#0F5EBA"/>
</g>
<defs>
<filter id="filter0_d_1266_41284" x="0.000976562" y="130.001" width="544.173" height="117.103" filterUnits="userSpaceOnUse" color-interpolation-filters="sRGB">
<feFlood flood-opacity="0" result="BackgroundImageFix"/>
<feColorMatrix in="SourceAlpha" type="matrix" values="0 0 0 0 0 0 0 0 0 0 0 0 0 0 0 0 0 0 127 0" result="hardAlpha"/>
<feOffset/>
<feGaussianBlur stdDeviation="7.5"/>
<feComposite in2="hardAlpha" operator="out"/>
<feColorMatrix type="matrix" values="0 0 0 0 0 0 0 0 0 0.94 0 0 0 0 1 0 0 0 0.5 0"/>
<feBlend mode="normal" in2="BackgroundImageFix" result="effect1_dropShadow_1266_41284"/>
<feBlend mode="normal" in="SourceGraphic" in2="effect1_dropShadow_1266_41284" result="shape"/>
</filter>
</defs>
</svg>
