<svg width="419" height="225" viewBox="0 0 419 225" fill="none" xmlns="http://www.w3.org/2000/svg">
<g style="mix-blend-mode:overlay">
<path d="M59.2853 153.155L-164 153.155L-164 156.852L59.1895 156.852C59.9757 159.754 62.699 161.917 65.9592 161.917C69.8522 161.917 72.9974 158.885 72.9974 155.133C72.9974 151.399 69.8522 148.348 65.9592 148.348C62.814 148.348 60.1675 150.382 59.2853 153.155Z" fill="#0084AD"/>
<path d="M154.617 127.774L169.963 143.087L327.823 143.087C328.61 146.111 331.334 148.351 334.614 148.351C338.509 148.351 341.655 145.212 341.655 141.326C341.655 137.46 338.509 134.301 334.614 134.301C331.449 134.301 328.821 136.388 327.919 139.24L171.536 139.24L156.19 123.927L-164 123.927L-164 127.755L154.617 127.755L154.617 127.774Z" fill="#0084AD"/>
<path d="M195.305 13.9491C199.2 13.9491 202.347 10.8325 202.347 6.97473C202.347 3.11701 199.2 0.000402421 195.305 0.000402592C191.409 0.000402762 188.263 3.11701 188.263 6.97473C188.263 8.24797 188.627 9.42617 189.241 10.4524L162.531 36.9053L-19.6445 36.9053L-19.6445 40.7061L164.104 40.706L191.985 13.0939C192.983 13.626 194.096 13.9491 195.305 13.9491Z" fill="#0084AD"/>
<path d="M154.617 99.7295L169.963 115.042L327.823 115.042C328.61 118.066 331.334 120.306 334.614 120.306C338.509 120.306 341.655 117.167 341.655 113.281C341.655 109.415 338.509 106.256 334.614 106.256C331.449 106.256 328.821 108.343 327.919 111.195L171.536 111.195L156.19 95.8823L-164 95.8823L-164 99.7104L154.617 99.7104L154.617 99.7295Z" fill="#0084AD"/>
<path fill-rule="evenodd" clip-rule="evenodd" d="M277.293 218.197C277.293 216.109 275.6 214.415 273.511 214.415C271.423 214.415 269.729 216.109 269.729 218.197C269.729 220.286 271.423 221.979 273.511 221.979C275.6 221.979 277.293 220.286 277.293 218.197ZM280.293 218.197C280.293 214.452 277.257 211.415 273.511 211.415C272.743 211.415 272.004 211.543 271.315 211.779L239.033 179.015L-146.645 179.015V182.56L237.601 182.56L268.347 213.8C267.338 214.984 266.729 216.52 266.729 218.197C266.729 221.943 269.766 224.979 273.511 224.979C277.257 224.979 280.293 221.943 280.293 218.197Z" fill="#0084AD"/>
<path fill-rule="evenodd" clip-rule="evenodd" d="M152.476 209.469C152.476 211.93 150.481 213.924 148.021 213.924C145.561 213.924 143.566 211.93 143.566 209.469C143.566 207.009 145.561 205.015 148.021 205.015C150.481 205.015 152.476 207.009 152.476 209.469ZM155.476 209.469C155.476 213.586 152.138 216.924 148.021 216.924C144.775 216.924 142.014 214.85 140.99 211.954L-153.645 211.954L-153.645 208.336L140.652 208.336C141.198 204.757 144.289 202.015 148.021 202.015C152.138 202.015 155.476 205.352 155.476 209.469Z" fill="#0084AD"/>
<g style="mix-blend-mode:overlay" filter="url(#filter0_d_1266_41302)">
<path d="M389.11 25.0924C389.902 28.1721 392.642 30.4526 395.942 30.4526C399.841 30.4526 403.025 27.2559 403.025 23.2991C403.025 19.3422 399.86 16.1455 395.942 16.1455C392.758 16.1455 390.114 18.2702 389.207 21.1745L342.213 21.1745L298.789 65.0313L-42 65.0313L-42 68.9297L300.391 68.9297L343.815 25.0729L389.11 25.0924Z" fill="#2068D4"/>
</g>
</g>
<defs>
<filter id="filter0_d_1266_41302" x="-57" y="1.14551" width="475.025" height="82.7842" filterUnits="userSpaceOnUse" color-interpolation-filters="sRGB">
<feFlood flood-opacity="0" result="BackgroundImageFix"/>
<feColorMatrix in="SourceAlpha" type="matrix" values="0 0 0 0 0 0 0 0 0 0 0 0 0 0 0 0 0 0 127 0" result="hardAlpha"/>
<feOffset/>
<feGaussianBlur stdDeviation="7.5"/>
<feComposite in2="hardAlpha" operator="out"/>
<feColorMatrix type="matrix" values="0 0 0 0 0 0 0 0 0 0.677675 0 0 0 0 0.720931 0 0 0 0.5 0"/>
<feBlend mode="normal" in2="BackgroundImageFix" result="effect1_dropShadow_1266_41302"/>
<feBlend mode="normal" in="SourceGraphic" in2="effect1_dropShadow_1266_41302" result="shape"/>
</filter>
</defs>
</svg>
