<svg width="210" height="58" viewBox="0 0 210 58" fill="none" xmlns="http://www.w3.org/2000/svg">
<mask id="path-1-outside-1_1270_21078" maskUnits="userSpaceOnUse" x="0" y="-1" width="210" height="60" fill="black">
<rect fill="white" y="-1" width="210" height="60"/>
<path d="M22.0599 11.4606L51.3344 9.79495L51.7886 14.1356L22.5142 15.9527L22.0599 11.4606ZM27.5615 5.40379H33.2145C33.4501 7.32177 33.9884 9.08833 34.8297 10.7035C35.6709 12.3186 36.6972 13.715 37.9085 14.8927C39.1199 16.0368 40.4154 16.9285 41.795 17.5678C43.2082 18.2071 44.6046 18.5268 45.9842 18.5268C46.6909 18.5268 47.1619 18.2913 47.3975 17.8202C47.633 17.3155 47.8181 16.4069 47.9527 15.0946C48.5247 15.5321 49.2313 15.9527 50.0726 16.3565C50.9138 16.7266 51.6877 17.0126 52.3943 17.2145C52.1588 19.0315 51.7718 20.428 51.2334 21.4038C50.7287 22.346 50.0221 22.9853 49.1136 23.3218C48.2387 23.6583 47.1283 23.8265 45.7823 23.8265C44.0326 23.8265 42.3165 23.5405 40.6341 22.9685C38.9516 22.3964 37.387 21.5889 35.9401 20.5457C34.4932 19.469 33.1809 18.1903 32.0032 16.7098C30.8254 15.1956 29.8496 13.4963 29.0757 11.612C28.3354 9.72765 27.8307 7.65825 27.5615 5.40379ZM36.4448 8.17981L39.1704 5.25237C40.1125 5.42061 41.122 5.67298 42.1987 6.00946C43.3092 6.3123 44.3691 6.64879 45.3786 7.01893C46.388 7.35542 47.2292 7.70873 47.9022 8.07886L45.0252 11.3091C44.4196 10.9727 43.612 10.6193 42.6025 10.2492C41.6267 9.84543 40.6004 9.45847 39.5237 9.08833C38.4469 8.71819 37.4206 8.41535 36.4448 8.17981ZM19.3849 5L24.836 7.11987C23.5573 8.73502 22.0431 10.3165 20.2934 11.8644C18.5436 13.4122 16.7266 14.8591 14.8423 16.205C12.9579 17.5174 11.1073 18.6446 9.29022 19.5868C8.98738 19.183 8.56677 18.7119 8.02839 18.1735C7.52366 17.6351 7.0021 17.0967 6.46372 16.5584C5.92534 15.9863 5.43743 15.5489 5 15.2461C6.85068 14.4385 8.66772 13.5131 10.4511 12.47C12.2345 11.3933 13.9001 10.2324 15.448 8.98738C16.9958 7.70873 18.3081 6.3796 19.3849 5ZM14.7413 13.1262L18.5268 9.29022L20.5457 9.84543V22.4637H14.7413V13.1262ZM18.5773 32.9117V35.0315H40.4827V32.9117H18.5773ZM18.5773 38.4637V40.6845H40.4827V38.4637H18.5773ZM18.5773 27.3092V29.4795H40.4827V27.3092H18.5773ZM12.7224 23.7256H46.6404V44.2681H12.7224V23.7256ZM32.1041 46.9432L37.1514 44.0662C38.9685 44.7056 40.8023 45.3954 42.653 46.1356C44.5373 46.8423 46.3207 47.5657 48.0032 48.306C49.7192 49.0126 51.1661 49.6519 52.3439 50.224L45.2776 52.9495C44.3354 52.4111 43.1577 51.7886 41.7445 51.082C40.3312 50.3754 38.8002 49.6519 37.1514 48.9117C35.5363 48.205 33.8538 47.5489 32.1041 46.9432ZM20.9495 43.8644L26.4511 46.388C25.1052 47.2629 23.5237 48.1209 21.7066 48.9621C19.8896 49.8034 18.0221 50.5605 16.1041 51.2334C14.1861 51.9401 12.3691 52.5289 10.653 53C10.2829 52.5962 9.8286 52.1083 9.29022 51.5363C8.78549 50.9979 8.24711 50.4427 7.67508 49.8707C7.10305 49.3323 6.59832 48.8948 6.16088 48.5584C7.94427 48.2219 9.74448 47.8181 11.5615 47.347C13.4122 46.8759 15.1451 46.3375 16.7603 45.7319C18.409 45.1262 19.8055 44.5037 20.9495 43.8644Z"/>
<path d="M87.6246 23.3722H93.3786V25.8959C93.3786 27.7129 93.2608 29.7487 93.0252 32.0032C92.8233 34.224 92.3859 36.5626 91.7129 39.0189C91.04 41.4416 90.0137 43.8475 88.6341 46.2366C87.2545 48.6257 85.4038 50.8801 83.082 53C82.7455 52.5626 82.3081 52.0747 81.7697 51.5363C81.265 51.0315 80.7098 50.5268 80.1041 50.0221C79.5321 49.551 78.9937 49.164 78.489 48.8612C80.6088 47.0442 82.2745 45.1262 83.4858 43.1073C84.7308 41.0547 85.6393 39.0021 86.2114 36.9495C86.7834 34.8633 87.1535 32.8612 87.3218 30.9432C87.5237 29.0252 87.6246 27.2923 87.6246 25.7445V23.3722ZM92.9748 29.4795C93.5131 32.1041 94.2534 34.6109 95.1956 37C96.1378 39.3554 97.3323 41.4585 98.7792 43.3091C100.226 45.1262 101.976 46.5563 104.028 47.5994C103.557 48.0032 103.069 48.4911 102.565 49.0631C102.06 49.6688 101.572 50.2913 101.101 50.9306C100.63 51.5699 100.243 52.1756 99.9401 52.7476C97.7192 51.3344 95.8349 49.5174 94.2871 47.2965C92.7729 45.0757 91.5279 42.5352 90.5521 39.6751C89.5762 36.7813 88.7687 33.6688 88.1293 30.3375L92.9748 29.4795ZM56.6845 9.49211H80.3565V14.4385H56.6845V9.49211ZM55.9779 31.4984H80.9622V36.4448H55.9779V31.4984ZM57.9464 16.9621H79.2461V21.858H57.9464V16.9621ZM58.2492 24.2303H78.9432V29.1262H58.2492V24.2303ZM65.7697 5.7571H71.4227V20.1924H65.7697V5.7571ZM59.2082 37.4038L64.1546 38.5647C63.6498 40.4154 63.0273 42.3333 62.2871 44.3186C61.5468 46.2702 60.8233 47.9359 60.1167 49.3155C59.5783 48.979 58.8212 48.6088 57.8454 48.205C56.9033 47.8013 56.1125 47.4984 55.4732 47.2965C56.2135 45.9842 56.9201 44.4364 57.5931 42.653C58.266 40.836 58.8044 39.0862 59.2082 37.4038ZM72.8864 39.0694L77.3786 37.3028C77.816 38.1441 78.2366 39.0358 78.6404 39.9779C79.0778 40.8864 79.4816 41.795 79.8517 42.7035C80.2219 43.612 80.4911 44.4196 80.6593 45.1262L75.9148 47.1451C75.7466 46.4385 75.4942 45.6309 75.1577 44.7224C74.8212 43.7802 74.4511 42.8212 74.0473 41.8454C73.6772 40.836 73.2902 39.9106 72.8864 39.0694ZM84.8991 14.5394H99.1325V20.041H84.8991V14.5394ZM83.9401 5.50473L89.8454 6.3123C89.4416 9.37434 88.9033 12.3691 88.2303 15.2965C87.591 18.1903 86.817 20.8991 85.9085 23.4227C85 25.9127 83.9569 28.1167 82.7792 30.0347C82.4427 29.6982 81.9716 29.2944 81.3659 28.8233C80.7603 28.3523 80.1377 27.898 79.4984 27.4606C78.8591 26.9895 78.3039 26.6193 77.8328 26.3502C78.9769 24.735 79.9359 22.817 80.7098 20.5962C81.5174 18.3754 82.1735 15.9863 82.6782 13.429C83.2166 10.8381 83.6372 8.19664 83.9401 5.50473ZM97.5678 14.5394H98.4259L99.3849 14.3375L103.524 15.448C103.221 17.1304 102.851 18.8465 102.413 20.5962C102.009 22.346 101.572 24.0284 101.101 25.6435C100.664 27.2587 100.226 28.6719 99.7886 29.8833L94.8927 28.4196C95.2292 27.3091 95.5657 26.0137 95.9022 24.5331C96.2387 23.0526 96.5415 21.5384 96.8107 19.9905C97.1136 18.409 97.3659 16.8948 97.5678 15.448V14.5394ZM65.8202 33.5174H71.5237V52.7981H65.8202V33.5174Z"/>
<path d="M107.814 36.2934H152.836V41.2902H107.814V36.2934ZM107.965 13.6814H152.685V18.4259H107.965V13.6814ZM110.035 22.8675H150.716V27.4606H110.035V22.8675ZM112.508 29.7319H148.394V34.0726H112.508V29.7319ZM127.145 25.0883H133.151V52.8486H127.145V25.0883ZM122.855 5.35331H128.508V16.0536H122.855V5.35331ZM132.192 5.35331H137.946V15.7003H132.192V5.35331ZM143.852 5.80757L150.161 7.32177C149.353 8.70137 148.546 10.0473 147.738 11.3596C146.931 12.6383 146.19 13.7319 145.517 14.6404L140.621 13.1262C141.025 12.4532 141.429 11.6961 141.833 10.8549C142.237 9.98002 142.607 9.10515 142.943 8.23028C143.313 7.32177 143.616 6.5142 143.852 5.80757ZM137.644 18.0221L144.054 19.6372C143.313 20.5121 142.59 21.3028 141.883 22.0095C141.21 22.6824 140.571 23.2881 139.965 23.8265L134.817 22.3123C135.322 21.673 135.827 20.9495 136.331 20.142C136.87 19.3344 137.307 18.6278 137.644 18.0221ZM111.65 7.42271L116.849 5.65615C117.589 6.69927 118.329 7.91062 119.069 9.29022C119.81 10.6362 120.348 11.7971 120.685 12.7729L115.183 14.7918C114.914 13.7823 114.426 12.5878 113.719 11.2082C113.046 9.8286 112.356 8.56677 111.65 7.42271ZM117.505 19.183L123.208 17.9211C123.646 18.5605 124.083 19.2839 124.521 20.0915C124.992 20.8991 125.345 21.6225 125.58 22.2618L119.625 23.6751C119.456 23.0694 119.154 22.346 118.716 21.5047C118.312 20.6299 117.909 19.8559 117.505 19.183ZM121.644 42.9558L125.934 44.9243C124.823 45.8665 123.427 46.775 121.744 47.6498C120.096 48.5247 118.363 49.2986 116.546 49.9716C114.729 50.6782 112.945 51.2334 111.196 51.6372C110.825 50.9979 110.287 50.2408 109.58 49.3659C108.874 48.4911 108.218 47.8013 107.612 47.2965C109.294 47.0273 111.027 46.674 112.811 46.2366C114.594 45.7992 116.26 45.2944 117.808 44.7224C119.355 44.1504 120.634 43.5615 121.644 42.9558ZM135.322 45.4795L139.36 42.6025C140.739 43.1409 142.253 43.7466 143.902 44.4196C145.585 45.0925 147.2 45.7823 148.748 46.489C150.329 47.1619 151.658 47.7844 152.735 48.3565L148.445 51.6372C147.469 51.0988 146.224 50.4595 144.71 49.7192C143.196 48.979 141.597 48.2387 139.915 47.4984C138.266 46.7581 136.735 46.0852 135.322 45.4795Z"/>
<path d="M158.186 7.72555H174.691V12.8233H158.186V7.72555ZM178.375 33.7192H198.868V38.7161H178.375V33.7192ZM157.479 23.1703H176.256V28.4196H157.479V23.1703ZM165.707 25.3407H171.41V46.2871C171.41 47.6667 171.259 48.7771 170.956 49.6183C170.687 50.4595 170.115 51.1157 169.24 51.5868C168.365 52.0242 167.339 52.3102 166.161 52.4448C164.983 52.5794 163.62 52.6467 162.073 52.6467C161.972 51.8055 161.753 50.8297 161.416 49.7192C161.08 48.6425 160.71 47.7003 160.306 46.8927C161.282 46.9264 162.207 46.9432 163.082 46.9432C163.957 46.9432 164.563 46.9432 164.899 46.9432C165.202 46.9096 165.404 46.8591 165.505 46.7918C165.639 46.6909 165.707 46.489 165.707 46.1861V25.3407ZM196.95 33.7192H203.057C203.057 33.7192 203.04 34.0053 203.006 34.5773C202.973 35.1157 202.922 35.5868 202.855 35.9905C202.619 38.918 202.333 41.3407 201.997 43.2587C201.694 45.143 201.358 46.6572 200.987 47.8013C200.617 48.9117 200.18 49.7361 199.675 50.2744C199.137 50.8465 198.565 51.2503 197.959 51.4858C197.387 51.755 196.731 51.9569 195.991 52.0915C195.385 52.1588 194.577 52.1924 193.568 52.1924C192.558 52.2261 191.465 52.2261 190.287 52.1924C190.253 51.3176 190.085 50.3586 189.782 49.3155C189.513 48.2723 189.143 47.3638 188.672 46.5899C189.58 46.6909 190.422 46.7582 191.196 46.7918C192.003 46.8254 192.609 46.8423 193.013 46.8423C193.416 46.8423 193.736 46.8086 193.972 46.7413C194.207 46.6404 194.443 46.489 194.678 46.2871C194.981 45.9842 195.267 45.4122 195.536 44.571C195.805 43.6961 196.058 42.4343 196.293 40.7855C196.529 39.1367 196.748 37.0337 196.95 34.4763V33.7192ZM186.249 29.1767H192.256C192.02 31.7676 191.667 34.2408 191.196 36.5962C190.758 38.918 190.018 41.0883 188.975 43.1073C187.932 45.1262 186.468 46.96 184.584 48.6088C182.733 50.2576 180.31 51.6709 177.315 52.8486C176.979 52.142 176.474 51.3176 175.801 50.3754C175.128 49.4669 174.472 48.7266 173.833 48.1546C176.457 47.2124 178.544 46.0852 180.091 44.7729C181.673 43.4269 182.868 41.9464 183.675 40.3312C184.516 38.7161 185.105 36.9664 185.442 35.082C185.812 33.1977 186.081 31.2292 186.249 29.1767ZM159.347 18.224L163.132 14.3375C164.512 14.8423 165.976 15.4479 167.524 16.1546C169.105 16.8612 170.603 17.5846 172.016 18.3249C173.463 19.0652 174.674 19.7886 175.65 20.4953L171.562 24.836C170.687 24.1293 169.559 23.3891 168.18 22.6151C166.8 21.8076 165.32 21.0168 163.738 20.2429C162.19 19.469 160.727 18.796 159.347 18.224ZM174.792 23.1703H175.549L176.356 22.918L180.041 24.0789C179.637 26.367 179.116 28.7224 178.476 31.1451C177.871 33.5678 177.231 35.6372 176.558 37.3533L172.47 35.4353C172.941 33.9548 173.379 32.1546 173.782 30.0347C174.22 27.9148 174.556 25.9127 174.792 24.0284V23.1703ZM194.981 13.0252L201.29 13.9842C200.18 17.0799 198.615 19.7382 196.596 21.959C194.611 24.1462 192.256 25.9632 189.53 27.4101C186.804 28.857 183.776 30.0515 180.445 30.9937C180.243 30.5563 179.906 30.0179 179.435 29.3785C178.998 28.7392 178.527 28.1167 178.022 27.511C177.551 26.8717 177.114 26.367 176.71 25.9968C179.805 25.3575 182.581 24.4826 185.038 23.3722C187.528 22.2618 189.614 20.8654 191.297 19.183C193.013 17.4669 194.241 15.4143 194.981 13.0252ZM184.937 5.35331L190.539 6.96845C189.732 8.75184 188.756 10.5016 187.612 12.2177C186.468 13.9338 185.257 15.5489 183.978 17.0631C182.733 18.5436 181.454 19.8223 180.142 20.8991C179.772 20.5626 179.284 20.1924 178.678 19.7886C178.073 19.3512 177.467 18.9306 176.861 18.5268C176.256 18.123 175.717 17.7865 175.246 17.5174C177.231 16.1041 179.082 14.3207 180.798 12.1672C182.514 9.98002 183.894 7.70873 184.937 5.35331ZM185.593 14.3375C186.771 16.2219 188.302 17.938 190.186 19.4858C192.104 21.0336 194.308 22.3628 196.798 23.4732C199.322 24.5499 202.047 25.3743 204.975 25.9464C204.571 26.3165 204.117 26.8212 203.612 27.4606C203.141 28.0662 202.687 28.6887 202.249 29.3281C201.812 29.9674 201.442 30.5394 201.139 31.0442C198.043 30.2702 195.2 29.1767 192.609 27.7634C190.052 26.3502 187.747 24.6509 185.694 22.6656C183.675 20.6803 181.976 18.4259 180.596 15.9022L185.593 14.3375ZM165.151 24.9874L169.038 26.4511C168.399 28.6719 167.591 30.9432 166.615 33.265C165.673 35.5868 164.596 37.7403 163.385 39.7256C162.174 41.7108 160.844 43.3764 159.397 44.7224C159.128 43.8475 158.708 42.8549 158.136 41.7445C157.597 40.6341 157.093 39.6751 156.621 38.8675C157.833 37.7907 158.977 36.4953 160.054 34.9811C161.164 33.4669 162.157 31.8517 163.032 30.1356C163.906 28.3859 164.613 26.6698 165.151 24.9874ZM184.785 10.5521H203.662V15.5489H182.363L184.785 10.5521ZM173.278 7.72555H174.539L175.498 7.52366L179.334 9.8959C178.594 11.1073 177.686 12.3523 176.609 13.6309C175.532 14.9096 174.371 16.1209 173.126 17.265C171.915 18.3754 170.703 19.3512 169.492 20.1924C168.954 19.6877 168.298 19.1661 167.524 18.6278C166.783 18.0894 166.11 17.6351 165.505 17.265C166.582 16.5247 167.608 15.6667 168.584 14.6909C169.593 13.6814 170.502 12.6551 171.309 11.612C172.15 10.5689 172.807 9.62671 173.278 8.78549V7.72555Z"/>
</mask>
<path d="M22.0599 11.4606L51.3344 9.79495L51.7886 14.1356L22.5142 15.9527L22.0599 11.4606ZM27.5615 5.40379H33.2145C33.4501 7.32177 33.9884 9.08833 34.8297 10.7035C35.6709 12.3186 36.6972 13.715 37.9085 14.8927C39.1199 16.0368 40.4154 16.9285 41.795 17.5678C43.2082 18.2071 44.6046 18.5268 45.9842 18.5268C46.6909 18.5268 47.1619 18.2913 47.3975 17.8202C47.633 17.3155 47.8181 16.4069 47.9527 15.0946C48.5247 15.5321 49.2313 15.9527 50.0726 16.3565C50.9138 16.7266 51.6877 17.0126 52.3943 17.2145C52.1588 19.0315 51.7718 20.428 51.2334 21.4038C50.7287 22.346 50.0221 22.9853 49.1136 23.3218C48.2387 23.6583 47.1283 23.8265 45.7823 23.8265C44.0326 23.8265 42.3165 23.5405 40.6341 22.9685C38.9516 22.3964 37.387 21.5889 35.9401 20.5457C34.4932 19.469 33.1809 18.1903 32.0032 16.7098C30.8254 15.1956 29.8496 13.4963 29.0757 11.612C28.3354 9.72765 27.8307 7.65825 27.5615 5.40379ZM36.4448 8.17981L39.1704 5.25237C40.1125 5.42061 41.122 5.67298 42.1987 6.00946C43.3092 6.3123 44.3691 6.64879 45.3786 7.01893C46.388 7.35542 47.2292 7.70873 47.9022 8.07886L45.0252 11.3091C44.4196 10.9727 43.612 10.6193 42.6025 10.2492C41.6267 9.84543 40.6004 9.45847 39.5237 9.08833C38.4469 8.71819 37.4206 8.41535 36.4448 8.17981ZM19.3849 5L24.836 7.11987C23.5573 8.73502 22.0431 10.3165 20.2934 11.8644C18.5436 13.4122 16.7266 14.8591 14.8423 16.205C12.9579 17.5174 11.1073 18.6446 9.29022 19.5868C8.98738 19.183 8.56677 18.7119 8.02839 18.1735C7.52366 17.6351 7.0021 17.0967 6.46372 16.5584C5.92534 15.9863 5.43743 15.5489 5 15.2461C6.85068 14.4385 8.66772 13.5131 10.4511 12.47C12.2345 11.3933 13.9001 10.2324 15.448 8.98738C16.9958 7.70873 18.3081 6.3796 19.3849 5ZM14.7413 13.1262L18.5268 9.29022L20.5457 9.84543V22.4637H14.7413V13.1262ZM18.5773 32.9117V35.0315H40.4827V32.9117H18.5773ZM18.5773 38.4637V40.6845H40.4827V38.4637H18.5773ZM18.5773 27.3092V29.4795H40.4827V27.3092H18.5773ZM12.7224 23.7256H46.6404V44.2681H12.7224V23.7256ZM32.1041 46.9432L37.1514 44.0662C38.9685 44.7056 40.8023 45.3954 42.653 46.1356C44.5373 46.8423 46.3207 47.5657 48.0032 48.306C49.7192 49.0126 51.1661 49.6519 52.3439 50.224L45.2776 52.9495C44.3354 52.4111 43.1577 51.7886 41.7445 51.082C40.3312 50.3754 38.8002 49.6519 37.1514 48.9117C35.5363 48.205 33.8538 47.5489 32.1041 46.9432ZM20.9495 43.8644L26.4511 46.388C25.1052 47.2629 23.5237 48.1209 21.7066 48.9621C19.8896 49.8034 18.0221 50.5605 16.1041 51.2334C14.1861 51.9401 12.3691 52.5289 10.653 53C10.2829 52.5962 9.8286 52.1083 9.29022 51.5363C8.78549 50.9979 8.24711 50.4427 7.67508 49.8707C7.10305 49.3323 6.59832 48.8948 6.16088 48.5584C7.94427 48.2219 9.74448 47.8181 11.5615 47.347C13.4122 46.8759 15.1451 46.3375 16.7603 45.7319C18.409 45.1262 19.8055 44.5037 20.9495 43.8644Z" fill="#003396"/>
<path d="M87.6246 23.3722H93.3786V25.8959C93.3786 27.7129 93.2608 29.7487 93.0252 32.0032C92.8233 34.224 92.3859 36.5626 91.7129 39.0189C91.04 41.4416 90.0137 43.8475 88.6341 46.2366C87.2545 48.6257 85.4038 50.8801 83.082 53C82.7455 52.5626 82.3081 52.0747 81.7697 51.5363C81.265 51.0315 80.7098 50.5268 80.1041 50.0221C79.5321 49.551 78.9937 49.164 78.489 48.8612C80.6088 47.0442 82.2745 45.1262 83.4858 43.1073C84.7308 41.0547 85.6393 39.0021 86.2114 36.9495C86.7834 34.8633 87.1535 32.8612 87.3218 30.9432C87.5237 29.0252 87.6246 27.2923 87.6246 25.7445V23.3722ZM92.9748 29.4795C93.5131 32.1041 94.2534 34.6109 95.1956 37C96.1378 39.3554 97.3323 41.4585 98.7792 43.3091C100.226 45.1262 101.976 46.5563 104.028 47.5994C103.557 48.0032 103.069 48.4911 102.565 49.0631C102.06 49.6688 101.572 50.2913 101.101 50.9306C100.63 51.5699 100.243 52.1756 99.9401 52.7476C97.7192 51.3344 95.8349 49.5174 94.2871 47.2965C92.7729 45.0757 91.5279 42.5352 90.5521 39.6751C89.5762 36.7813 88.7687 33.6688 88.1293 30.3375L92.9748 29.4795ZM56.6845 9.49211H80.3565V14.4385H56.6845V9.49211ZM55.9779 31.4984H80.9622V36.4448H55.9779V31.4984ZM57.9464 16.9621H79.2461V21.858H57.9464V16.9621ZM58.2492 24.2303H78.9432V29.1262H58.2492V24.2303ZM65.7697 5.7571H71.4227V20.1924H65.7697V5.7571ZM59.2082 37.4038L64.1546 38.5647C63.6498 40.4154 63.0273 42.3333 62.2871 44.3186C61.5468 46.2702 60.8233 47.9359 60.1167 49.3155C59.5783 48.979 58.8212 48.6088 57.8454 48.205C56.9033 47.8013 56.1125 47.4984 55.4732 47.2965C56.2135 45.9842 56.9201 44.4364 57.5931 42.653C58.266 40.836 58.8044 39.0862 59.2082 37.4038ZM72.8864 39.0694L77.3786 37.3028C77.816 38.1441 78.2366 39.0358 78.6404 39.9779C79.0778 40.8864 79.4816 41.795 79.8517 42.7035C80.2219 43.612 80.4911 44.4196 80.6593 45.1262L75.9148 47.1451C75.7466 46.4385 75.4942 45.6309 75.1577 44.7224C74.8212 43.7802 74.4511 42.8212 74.0473 41.8454C73.6772 40.836 73.2902 39.9106 72.8864 39.0694ZM84.8991 14.5394H99.1325V20.041H84.8991V14.5394ZM83.9401 5.50473L89.8454 6.3123C89.4416 9.37434 88.9033 12.3691 88.2303 15.2965C87.591 18.1903 86.817 20.8991 85.9085 23.4227C85 25.9127 83.9569 28.1167 82.7792 30.0347C82.4427 29.6982 81.9716 29.2944 81.3659 28.8233C80.7603 28.3523 80.1377 27.898 79.4984 27.4606C78.8591 26.9895 78.3039 26.6193 77.8328 26.3502C78.9769 24.735 79.9359 22.817 80.7098 20.5962C81.5174 18.3754 82.1735 15.9863 82.6782 13.429C83.2166 10.8381 83.6372 8.19664 83.9401 5.50473ZM97.5678 14.5394H98.4259L99.3849 14.3375L103.524 15.448C103.221 17.1304 102.851 18.8465 102.413 20.5962C102.009 22.346 101.572 24.0284 101.101 25.6435C100.664 27.2587 100.226 28.6719 99.7886 29.8833L94.8927 28.4196C95.2292 27.3091 95.5657 26.0137 95.9022 24.5331C96.2387 23.0526 96.5415 21.5384 96.8107 19.9905C97.1136 18.409 97.3659 16.8948 97.5678 15.448V14.5394ZM65.8202 33.5174H71.5237V52.7981H65.8202V33.5174Z" fill="#003396"/>
<path d="M107.814 36.2934H152.836V41.2902H107.814V36.2934ZM107.965 13.6814H152.685V18.4259H107.965V13.6814ZM110.035 22.8675H150.716V27.4606H110.035V22.8675ZM112.508 29.7319H148.394V34.0726H112.508V29.7319ZM127.145 25.0883H133.151V52.8486H127.145V25.0883ZM122.855 5.35331H128.508V16.0536H122.855V5.35331ZM132.192 5.35331H137.946V15.7003H132.192V5.35331ZM143.852 5.80757L150.161 7.32177C149.353 8.70137 148.546 10.0473 147.738 11.3596C146.931 12.6383 146.19 13.7319 145.517 14.6404L140.621 13.1262C141.025 12.4532 141.429 11.6961 141.833 10.8549C142.237 9.98002 142.607 9.10515 142.943 8.23028C143.313 7.32177 143.616 6.5142 143.852 5.80757ZM137.644 18.0221L144.054 19.6372C143.313 20.5121 142.59 21.3028 141.883 22.0095C141.21 22.6824 140.571 23.2881 139.965 23.8265L134.817 22.3123C135.322 21.673 135.827 20.9495 136.331 20.142C136.87 19.3344 137.307 18.6278 137.644 18.0221ZM111.65 7.42271L116.849 5.65615C117.589 6.69927 118.329 7.91062 119.069 9.29022C119.81 10.6362 120.348 11.7971 120.685 12.7729L115.183 14.7918C114.914 13.7823 114.426 12.5878 113.719 11.2082C113.046 9.8286 112.356 8.56677 111.65 7.42271ZM117.505 19.183L123.208 17.9211C123.646 18.5605 124.083 19.2839 124.521 20.0915C124.992 20.8991 125.345 21.6225 125.58 22.2618L119.625 23.6751C119.456 23.0694 119.154 22.346 118.716 21.5047C118.312 20.6299 117.909 19.8559 117.505 19.183ZM121.644 42.9558L125.934 44.9243C124.823 45.8665 123.427 46.775 121.744 47.6498C120.096 48.5247 118.363 49.2986 116.546 49.9716C114.729 50.6782 112.945 51.2334 111.196 51.6372C110.825 50.9979 110.287 50.2408 109.58 49.3659C108.874 48.4911 108.218 47.8013 107.612 47.2965C109.294 47.0273 111.027 46.674 112.811 46.2366C114.594 45.7992 116.26 45.2944 117.808 44.7224C119.355 44.1504 120.634 43.5615 121.644 42.9558ZM135.322 45.4795L139.36 42.6025C140.739 43.1409 142.253 43.7466 143.902 44.4196C145.585 45.0925 147.2 45.7823 148.748 46.489C150.329 47.1619 151.658 47.7844 152.735 48.3565L148.445 51.6372C147.469 51.0988 146.224 50.4595 144.71 49.7192C143.196 48.979 141.597 48.2387 139.915 47.4984C138.266 46.7581 136.735 46.0852 135.322 45.4795Z" fill="#003396"/>
<path d="M158.186 7.72555H174.691V12.8233H158.186V7.72555ZM178.375 33.7192H198.868V38.7161H178.375V33.7192ZM157.479 23.1703H176.256V28.4196H157.479V23.1703ZM165.707 25.3407H171.41V46.2871C171.41 47.6667 171.259 48.7771 170.956 49.6183C170.687 50.4595 170.115 51.1157 169.24 51.5868C168.365 52.0242 167.339 52.3102 166.161 52.4448C164.983 52.5794 163.62 52.6467 162.073 52.6467C161.972 51.8055 161.753 50.8297 161.416 49.7192C161.08 48.6425 160.71 47.7003 160.306 46.8927C161.282 46.9264 162.207 46.9432 163.082 46.9432C163.957 46.9432 164.563 46.9432 164.899 46.9432C165.202 46.9096 165.404 46.8591 165.505 46.7918C165.639 46.6909 165.707 46.489 165.707 46.1861V25.3407ZM196.95 33.7192H203.057C203.057 33.7192 203.04 34.0053 203.006 34.5773C202.973 35.1157 202.922 35.5868 202.855 35.9905C202.619 38.918 202.333 41.3407 201.997 43.2587C201.694 45.143 201.358 46.6572 200.987 47.8013C200.617 48.9117 200.18 49.7361 199.675 50.2744C199.137 50.8465 198.565 51.2503 197.959 51.4858C197.387 51.755 196.731 51.9569 195.991 52.0915C195.385 52.1588 194.577 52.1924 193.568 52.1924C192.558 52.2261 191.465 52.2261 190.287 52.1924C190.253 51.3176 190.085 50.3586 189.782 49.3155C189.513 48.2723 189.143 47.3638 188.672 46.5899C189.58 46.6909 190.422 46.7582 191.196 46.7918C192.003 46.8254 192.609 46.8423 193.013 46.8423C193.416 46.8423 193.736 46.8086 193.972 46.7413C194.207 46.6404 194.443 46.489 194.678 46.2871C194.981 45.9842 195.267 45.4122 195.536 44.571C195.805 43.6961 196.058 42.4343 196.293 40.7855C196.529 39.1367 196.748 37.0337 196.95 34.4763V33.7192ZM186.249 29.1767H192.256C192.02 31.7676 191.667 34.2408 191.196 36.5962C190.758 38.918 190.018 41.0883 188.975 43.1073C187.932 45.1262 186.468 46.96 184.584 48.6088C182.733 50.2576 180.31 51.6709 177.315 52.8486C176.979 52.142 176.474 51.3176 175.801 50.3754C175.128 49.4669 174.472 48.7266 173.833 48.1546C176.457 47.2124 178.544 46.0852 180.091 44.7729C181.673 43.4269 182.868 41.9464 183.675 40.3312C184.516 38.7161 185.105 36.9664 185.442 35.082C185.812 33.1977 186.081 31.2292 186.249 29.1767ZM159.347 18.224L163.132 14.3375C164.512 14.8423 165.976 15.4479 167.524 16.1546C169.105 16.8612 170.603 17.5846 172.016 18.3249C173.463 19.0652 174.674 19.7886 175.65 20.4953L171.562 24.836C170.687 24.1293 169.559 23.3891 168.18 22.6151C166.8 21.8076 165.32 21.0168 163.738 20.2429C162.19 19.469 160.727 18.796 159.347 18.224ZM174.792 23.1703H175.549L176.356 22.918L180.041 24.0789C179.637 26.367 179.116 28.7224 178.476 31.1451C177.871 33.5678 177.231 35.6372 176.558 37.3533L172.47 35.4353C172.941 33.9548 173.379 32.1546 173.782 30.0347C174.22 27.9148 174.556 25.9127 174.792 24.0284V23.1703ZM194.981 13.0252L201.29 13.9842C200.18 17.0799 198.615 19.7382 196.596 21.959C194.611 24.1462 192.256 25.9632 189.53 27.4101C186.804 28.857 183.776 30.0515 180.445 30.9937C180.243 30.5563 179.906 30.0179 179.435 29.3785C178.998 28.7392 178.527 28.1167 178.022 27.511C177.551 26.8717 177.114 26.367 176.71 25.9968C179.805 25.3575 182.581 24.4826 185.038 23.3722C187.528 22.2618 189.614 20.8654 191.297 19.183C193.013 17.4669 194.241 15.4143 194.981 13.0252ZM184.937 5.35331L190.539 6.96845C189.732 8.75184 188.756 10.5016 187.612 12.2177C186.468 13.9338 185.257 15.5489 183.978 17.0631C182.733 18.5436 181.454 19.8223 180.142 20.8991C179.772 20.5626 179.284 20.1924 178.678 19.7886C178.073 19.3512 177.467 18.9306 176.861 18.5268C176.256 18.123 175.717 17.7865 175.246 17.5174C177.231 16.1041 179.082 14.3207 180.798 12.1672C182.514 9.98002 183.894 7.70873 184.937 5.35331ZM185.593 14.3375C186.771 16.2219 188.302 17.938 190.186 19.4858C192.104 21.0336 194.308 22.3628 196.798 23.4732C199.322 24.5499 202.047 25.3743 204.975 25.9464C204.571 26.3165 204.117 26.8212 203.612 27.4606C203.141 28.0662 202.687 28.6887 202.249 29.3281C201.812 29.9674 201.442 30.5394 201.139 31.0442C198.043 30.2702 195.2 29.1767 192.609 27.7634C190.052 26.3502 187.747 24.6509 185.694 22.6656C183.675 20.6803 181.976 18.4259 180.596 15.9022L185.593 14.3375ZM165.151 24.9874L169.038 26.4511C168.399 28.6719 167.591 30.9432 166.615 33.265C165.673 35.5868 164.596 37.7403 163.385 39.7256C162.174 41.7108 160.844 43.3764 159.397 44.7224C159.128 43.8475 158.708 42.8549 158.136 41.7445C157.597 40.6341 157.093 39.6751 156.621 38.8675C157.833 37.7907 158.977 36.4953 160.054 34.9811C161.164 33.4669 162.157 31.8517 163.032 30.1356C163.906 28.3859 164.613 26.6698 165.151 24.9874ZM184.785 10.5521H203.662V15.5489H182.363L184.785 10.5521ZM173.278 7.72555H174.539L175.498 7.52366L179.334 9.8959C178.594 11.1073 177.686 12.3523 176.609 13.6309C175.532 14.9096 174.371 16.1209 173.126 17.265C171.915 18.3754 170.703 19.3512 169.492 20.1924C168.954 19.6877 168.298 19.1661 167.524 18.6278C166.783 18.0894 166.11 17.6351 165.505 17.265C166.582 16.5247 167.608 15.6667 168.584 14.6909C169.593 13.6814 170.502 12.6551 171.309 11.612C172.15 10.5689 172.807 9.62671 173.278 8.78549V7.72555Z" fill="#003396"/>
<path d="M22.0599 11.4606L51.3344 9.79495L51.7886 14.1356L22.5142 15.9527L22.0599 11.4606ZM27.5615 5.40379H33.2145C33.4501 7.32177 33.9884 9.08833 34.8297 10.7035C35.6709 12.3186 36.6972 13.715 37.9085 14.8927C39.1199 16.0368 40.4154 16.9285 41.795 17.5678C43.2082 18.2071 44.6046 18.5268 45.9842 18.5268C46.6909 18.5268 47.1619 18.2913 47.3975 17.8202C47.633 17.3155 47.8181 16.4069 47.9527 15.0946C48.5247 15.5321 49.2313 15.9527 50.0726 16.3565C50.9138 16.7266 51.6877 17.0126 52.3943 17.2145C52.1588 19.0315 51.7718 20.428 51.2334 21.4038C50.7287 22.346 50.0221 22.9853 49.1136 23.3218C48.2387 23.6583 47.1283 23.8265 45.7823 23.8265C44.0326 23.8265 42.3165 23.5405 40.6341 22.9685C38.9516 22.3964 37.387 21.5889 35.9401 20.5457C34.4932 19.469 33.1809 18.1903 32.0032 16.7098C30.8254 15.1956 29.8496 13.4963 29.0757 11.612C28.3354 9.72765 27.8307 7.65825 27.5615 5.40379ZM36.4448 8.17981L39.1704 5.25237C40.1125 5.42061 41.122 5.67298 42.1987 6.00946C43.3092 6.3123 44.3691 6.64879 45.3786 7.01893C46.388 7.35542 47.2292 7.70873 47.9022 8.07886L45.0252 11.3091C44.4196 10.9727 43.612 10.6193 42.6025 10.2492C41.6267 9.84543 40.6004 9.45847 39.5237 9.08833C38.4469 8.71819 37.4206 8.41535 36.4448 8.17981ZM19.3849 5L24.836 7.11987C23.5573 8.73502 22.0431 10.3165 20.2934 11.8644C18.5436 13.4122 16.7266 14.8591 14.8423 16.205C12.9579 17.5174 11.1073 18.6446 9.29022 19.5868C8.98738 19.183 8.56677 18.7119 8.02839 18.1735C7.52366 17.6351 7.0021 17.0967 6.46372 16.5584C5.92534 15.9863 5.43743 15.5489 5 15.2461C6.85068 14.4385 8.66772 13.5131 10.4511 12.47C12.2345 11.3933 13.9001 10.2324 15.448 8.98738C16.9958 7.70873 18.3081 6.3796 19.3849 5ZM14.7413 13.1262L18.5268 9.29022L20.5457 9.84543V22.4637H14.7413V13.1262ZM18.5773 32.9117V35.0315H40.4827V32.9117H18.5773ZM18.5773 38.4637V40.6845H40.4827V38.4637H18.5773ZM18.5773 27.3092V29.4795H40.4827V27.3092H18.5773ZM12.7224 23.7256H46.6404V44.2681H12.7224V23.7256ZM32.1041 46.9432L37.1514 44.0662C38.9685 44.7056 40.8023 45.3954 42.653 46.1356C44.5373 46.8423 46.3207 47.5657 48.0032 48.306C49.7192 49.0126 51.1661 49.6519 52.3439 50.224L45.2776 52.9495C44.3354 52.4111 43.1577 51.7886 41.7445 51.082C40.3312 50.3754 38.8002 49.6519 37.1514 48.9117C35.5363 48.205 33.8538 47.5489 32.1041 46.9432ZM20.9495 43.8644L26.4511 46.388C25.1052 47.2629 23.5237 48.1209 21.7066 48.9621C19.8896 49.8034 18.0221 50.5605 16.1041 51.2334C14.1861 51.9401 12.3691 52.5289 10.653 53C10.2829 52.5962 9.8286 52.1083 9.29022 51.5363C8.78549 50.9979 8.24711 50.4427 7.67508 49.8707C7.10305 49.3323 6.59832 48.8948 6.16088 48.5584C7.94427 48.2219 9.74448 47.8181 11.5615 47.347C13.4122 46.8759 15.1451 46.3375 16.7603 45.7319C18.409 45.1262 19.8055 44.5037 20.9495 43.8644Z" stroke="white" stroke-width="10" stroke-linejoin="round" mask="url(#path-1-outside-1_1270_21078)"/>
<path d="M87.6246 23.3722H93.3786V25.8959C93.3786 27.7129 93.2608 29.7487 93.0252 32.0032C92.8233 34.224 92.3859 36.5626 91.7129 39.0189C91.04 41.4416 90.0137 43.8475 88.6341 46.2366C87.2545 48.6257 85.4038 50.8801 83.082 53C82.7455 52.5626 82.3081 52.0747 81.7697 51.5363C81.265 51.0315 80.7098 50.5268 80.1041 50.0221C79.5321 49.551 78.9937 49.164 78.489 48.8612C80.6088 47.0442 82.2745 45.1262 83.4858 43.1073C84.7308 41.0547 85.6393 39.0021 86.2114 36.9495C86.7834 34.8633 87.1535 32.8612 87.3218 30.9432C87.5237 29.0252 87.6246 27.2923 87.6246 25.7445V23.3722ZM92.9748 29.4795C93.5131 32.1041 94.2534 34.6109 95.1956 37C96.1378 39.3554 97.3323 41.4585 98.7792 43.3091C100.226 45.1262 101.976 46.5563 104.028 47.5994C103.557 48.0032 103.069 48.4911 102.565 49.0631C102.06 49.6688 101.572 50.2913 101.101 50.9306C100.63 51.5699 100.243 52.1756 99.9401 52.7476C97.7192 51.3344 95.8349 49.5174 94.2871 47.2965C92.7729 45.0757 91.5279 42.5352 90.5521 39.6751C89.5762 36.7813 88.7687 33.6688 88.1293 30.3375L92.9748 29.4795ZM56.6845 9.49211H80.3565V14.4385H56.6845V9.49211ZM55.9779 31.4984H80.9622V36.4448H55.9779V31.4984ZM57.9464 16.9621H79.2461V21.858H57.9464V16.9621ZM58.2492 24.2303H78.9432V29.1262H58.2492V24.2303ZM65.7697 5.7571H71.4227V20.1924H65.7697V5.7571ZM59.2082 37.4038L64.1546 38.5647C63.6498 40.4154 63.0273 42.3333 62.2871 44.3186C61.5468 46.2702 60.8233 47.9359 60.1167 49.3155C59.5783 48.979 58.8212 48.6088 57.8454 48.205C56.9033 47.8013 56.1125 47.4984 55.4732 47.2965C56.2135 45.9842 56.9201 44.4364 57.5931 42.653C58.266 40.836 58.8044 39.0862 59.2082 37.4038ZM72.8864 39.0694L77.3786 37.3028C77.816 38.1441 78.2366 39.0358 78.6404 39.9779C79.0778 40.8864 79.4816 41.795 79.8517 42.7035C80.2219 43.612 80.4911 44.4196 80.6593 45.1262L75.9148 47.1451C75.7466 46.4385 75.4942 45.6309 75.1577 44.7224C74.8212 43.7802 74.4511 42.8212 74.0473 41.8454C73.6772 40.836 73.2902 39.9106 72.8864 39.0694ZM84.8991 14.5394H99.1325V20.041H84.8991V14.5394ZM83.9401 5.50473L89.8454 6.3123C89.4416 9.37434 88.9033 12.3691 88.2303 15.2965C87.591 18.1903 86.817 20.8991 85.9085 23.4227C85 25.9127 83.9569 28.1167 82.7792 30.0347C82.4427 29.6982 81.9716 29.2944 81.3659 28.8233C80.7603 28.3523 80.1377 27.898 79.4984 27.4606C78.8591 26.9895 78.3039 26.6193 77.8328 26.3502C78.9769 24.735 79.9359 22.817 80.7098 20.5962C81.5174 18.3754 82.1735 15.9863 82.6782 13.429C83.2166 10.8381 83.6372 8.19664 83.9401 5.50473ZM97.5678 14.5394H98.4259L99.3849 14.3375L103.524 15.448C103.221 17.1304 102.851 18.8465 102.413 20.5962C102.009 22.346 101.572 24.0284 101.101 25.6435C100.664 27.2587 100.226 28.6719 99.7886 29.8833L94.8927 28.4196C95.2292 27.3091 95.5657 26.0137 95.9022 24.5331C96.2387 23.0526 96.5415 21.5384 96.8107 19.9905C97.1136 18.409 97.3659 16.8948 97.5678 15.448V14.5394ZM65.8202 33.5174H71.5237V52.7981H65.8202V33.5174Z" stroke="white" stroke-width="10" stroke-linejoin="round" mask="url(#path-1-outside-1_1270_21078)"/>
<path d="M107.814 36.2934H152.836V41.2902H107.814V36.2934ZM107.965 13.6814H152.685V18.4259H107.965V13.6814ZM110.035 22.8675H150.716V27.4606H110.035V22.8675ZM112.508 29.7319H148.394V34.0726H112.508V29.7319ZM127.145 25.0883H133.151V52.8486H127.145V25.0883ZM122.855 5.35331H128.508V16.0536H122.855V5.35331ZM132.192 5.35331H137.946V15.7003H132.192V5.35331ZM143.852 5.80757L150.161 7.32177C149.353 8.70137 148.546 10.0473 147.738 11.3596C146.931 12.6383 146.19 13.7319 145.517 14.6404L140.621 13.1262C141.025 12.4532 141.429 11.6961 141.833 10.8549C142.237 9.98002 142.607 9.10515 142.943 8.23028C143.313 7.32177 143.616 6.5142 143.852 5.80757ZM137.644 18.0221L144.054 19.6372C143.313 20.5121 142.59 21.3028 141.883 22.0095C141.21 22.6824 140.571 23.2881 139.965 23.8265L134.817 22.3123C135.322 21.673 135.827 20.9495 136.331 20.142C136.87 19.3344 137.307 18.6278 137.644 18.0221ZM111.65 7.42271L116.849 5.65615C117.589 6.69927 118.329 7.91062 119.069 9.29022C119.81 10.6362 120.348 11.7971 120.685 12.7729L115.183 14.7918C114.914 13.7823 114.426 12.5878 113.719 11.2082C113.046 9.8286 112.356 8.56677 111.65 7.42271ZM117.505 19.183L123.208 17.9211C123.646 18.5605 124.083 19.2839 124.521 20.0915C124.992 20.8991 125.345 21.6225 125.58 22.2618L119.625 23.6751C119.456 23.0694 119.154 22.346 118.716 21.5047C118.312 20.6299 117.909 19.8559 117.505 19.183ZM121.644 42.9558L125.934 44.9243C124.823 45.8665 123.427 46.775 121.744 47.6498C120.096 48.5247 118.363 49.2986 116.546 49.9716C114.729 50.6782 112.945 51.2334 111.196 51.6372C110.825 50.9979 110.287 50.2408 109.58 49.3659C108.874 48.4911 108.218 47.8013 107.612 47.2965C109.294 47.0273 111.027 46.674 112.811 46.2366C114.594 45.7992 116.26 45.2944 117.808 44.7224C119.355 44.1504 120.634 43.5615 121.644 42.9558ZM135.322 45.4795L139.36 42.6025C140.739 43.1409 142.253 43.7466 143.902 44.4196C145.585 45.0925 147.2 45.7823 148.748 46.489C150.329 47.1619 151.658 47.7844 152.735 48.3565L148.445 51.6372C147.469 51.0988 146.224 50.4595 144.71 49.7192C143.196 48.979 141.597 48.2387 139.915 47.4984C138.266 46.7581 136.735 46.0852 135.322 45.4795Z" stroke="white" stroke-width="10" stroke-linejoin="round" mask="url(#path-1-outside-1_1270_21078)"/>
<path d="M158.186 7.72555H174.691V12.8233H158.186V7.72555ZM178.375 33.7192H198.868V38.7161H178.375V33.7192ZM157.479 23.1703H176.256V28.4196H157.479V23.1703ZM165.707 25.3407H171.41V46.2871C171.41 47.6667 171.259 48.7771 170.956 49.6183C170.687 50.4595 170.115 51.1157 169.24 51.5868C168.365 52.0242 167.339 52.3102 166.161 52.4448C164.983 52.5794 163.62 52.6467 162.073 52.6467C161.972 51.8055 161.753 50.8297 161.416 49.7192C161.08 48.6425 160.71 47.7003 160.306 46.8927C161.282 46.9264 162.207 46.9432 163.082 46.9432C163.957 46.9432 164.563 46.9432 164.899 46.9432C165.202 46.9096 165.404 46.8591 165.505 46.7918C165.639 46.6909 165.707 46.489 165.707 46.1861V25.3407ZM196.95 33.7192H203.057C203.057 33.7192 203.04 34.0053 203.006 34.5773C202.973 35.1157 202.922 35.5868 202.855 35.9905C202.619 38.918 202.333 41.3407 201.997 43.2587C201.694 45.143 201.358 46.6572 200.987 47.8013C200.617 48.9117 200.18 49.7361 199.675 50.2744C199.137 50.8465 198.565 51.2503 197.959 51.4858C197.387 51.755 196.731 51.9569 195.991 52.0915C195.385 52.1588 194.577 52.1924 193.568 52.1924C192.558 52.2261 191.465 52.2261 190.287 52.1924C190.253 51.3176 190.085 50.3586 189.782 49.3155C189.513 48.2723 189.143 47.3638 188.672 46.5899C189.58 46.6909 190.422 46.7582 191.196 46.7918C192.003 46.8254 192.609 46.8423 193.013 46.8423C193.416 46.8423 193.736 46.8086 193.972 46.7413C194.207 46.6404 194.443 46.489 194.678 46.2871C194.981 45.9842 195.267 45.4122 195.536 44.571C195.805 43.6961 196.058 42.4343 196.293 40.7855C196.529 39.1367 196.748 37.0337 196.95 34.4763V33.7192ZM186.249 29.1767H192.256C192.02 31.7676 191.667 34.2408 191.196 36.5962C190.758 38.918 190.018 41.0883 188.975 43.1073C187.932 45.1262 186.468 46.96 184.584 48.6088C182.733 50.2576 180.31 51.6709 177.315 52.8486C176.979 52.142 176.474 51.3176 175.801 50.3754C175.128 49.4669 174.472 48.7266 173.833 48.1546C176.457 47.2124 178.544 46.0852 180.091 44.7729C181.673 43.4269 182.868 41.9464 183.675 40.3312C184.516 38.7161 185.105 36.9664 185.442 35.082C185.812 33.1977 186.081 31.2292 186.249 29.1767ZM159.347 18.224L163.132 14.3375C164.512 14.8423 165.976 15.4479 167.524 16.1546C169.105 16.8612 170.603 17.5846 172.016 18.3249C173.463 19.0652 174.674 19.7886 175.65 20.4953L171.562 24.836C170.687 24.1293 169.559 23.3891 168.18 22.6151C166.8 21.8076 165.32 21.0168 163.738 20.2429C162.19 19.469 160.727 18.796 159.347 18.224ZM174.792 23.1703H175.549L176.356 22.918L180.041 24.0789C179.637 26.367 179.116 28.7224 178.476 31.1451C177.871 33.5678 177.231 35.6372 176.558 37.3533L172.47 35.4353C172.941 33.9548 173.379 32.1546 173.782 30.0347C174.22 27.9148 174.556 25.9127 174.792 24.0284V23.1703ZM194.981 13.0252L201.29 13.9842C200.18 17.0799 198.615 19.7382 196.596 21.959C194.611 24.1462 192.256 25.9632 189.53 27.4101C186.804 28.857 183.776 30.0515 180.445 30.9937C180.243 30.5563 179.906 30.0179 179.435 29.3785C178.998 28.7392 178.527 28.1167 178.022 27.511C177.551 26.8717 177.114 26.367 176.71 25.9968C179.805 25.3575 182.581 24.4826 185.038 23.3722C187.528 22.2618 189.614 20.8654 191.297 19.183C193.013 17.4669 194.241 15.4143 194.981 13.0252ZM184.937 5.35331L190.539 6.96845C189.732 8.75184 188.756 10.5016 187.612 12.2177C186.468 13.9338 185.257 15.5489 183.978 17.0631C182.733 18.5436 181.454 19.8223 180.142 20.8991C179.772 20.5626 179.284 20.1924 178.678 19.7886C178.073 19.3512 177.467 18.9306 176.861 18.5268C176.256 18.123 175.717 17.7865 175.246 17.5174C177.231 16.1041 179.082 14.3207 180.798 12.1672C182.514 9.98002 183.894 7.70873 184.937 5.35331ZM185.593 14.3375C186.771 16.2219 188.302 17.938 190.186 19.4858C192.104 21.0336 194.308 22.3628 196.798 23.4732C199.322 24.5499 202.047 25.3743 204.975 25.9464C204.571 26.3165 204.117 26.8212 203.612 27.4606C203.141 28.0662 202.687 28.6887 202.249 29.3281C201.812 29.9674 201.442 30.5394 201.139 31.0442C198.043 30.2702 195.2 29.1767 192.609 27.7634C190.052 26.3502 187.747 24.6509 185.694 22.6656C183.675 20.6803 181.976 18.4259 180.596 15.9022L185.593 14.3375ZM165.151 24.9874L169.038 26.4511C168.399 28.6719 167.591 30.9432 166.615 33.265C165.673 35.5868 164.596 37.7403 163.385 39.7256C162.174 41.7108 160.844 43.3764 159.397 44.7224C159.128 43.8475 158.708 42.8549 158.136 41.7445C157.597 40.6341 157.093 39.6751 156.621 38.8675C157.833 37.7907 158.977 36.4953 160.054 34.9811C161.164 33.4669 162.157 31.8517 163.032 30.1356C163.906 28.3859 164.613 26.6698 165.151 24.9874ZM184.785 10.5521H203.662V15.5489H182.363L184.785 10.5521ZM173.278 7.72555H174.539L175.498 7.52366L179.334 9.8959C178.594 11.1073 177.686 12.3523 176.609 13.6309C175.532 14.9096 174.371 16.1209 173.126 17.265C171.915 18.3754 170.703 19.3512 169.492 20.1924C168.954 19.6877 168.298 19.1661 167.524 18.6278C166.783 18.0894 166.11 17.6351 165.505 17.265C166.582 16.5247 167.608 15.6667 168.584 14.6909C169.593 13.6814 170.502 12.6551 171.309 11.612C172.15 10.5689 172.807 9.62671 173.278 8.78549V7.72555Z" stroke="white" stroke-width="10" stroke-linejoin="round" mask="url(#path-1-outside-1_1270_21078)"/>
</svg>
