<svg width="328" height="64" viewBox="0 0 328 64" fill="none" xmlns="http://www.w3.org/2000/svg">
<rect x="1" y="1" width="326" height="62" fill="#003397"/>
<rect x="1" y="1" width="326" height="62" stroke="#00FFFF" stroke-width="2"/>
<path fill-rule="evenodd" clip-rule="evenodd" d="M8.30803 8H32V8.97486H9.27505V17.859L11.5831 20.1858L8.79154 23L6 20.1858L8.30803 17.859V8Z" fill="#00FFFF"/>
<path d="M0 32L32 64H0L0 32Z" fill="#00FFFF"/>
<path d="M112.58 27.62H129.06V30.04H112.58V27.62ZM111.68 39.62H129.92V42.04H111.68V39.62ZM115.08 31.2L117.48 30.6C118.24 33.14 118.98 36.3 119.32 38.46L116.74 39.14C116.5 37 115.74 33.68 115.08 31.2ZM124.12 30.66L126.82 31.18C125.96 34.52 124.74 38.22 123.72 40.6L121.34 40.04C122.4 37.6 123.54 33.66 124.12 30.66ZM118.92 24.38L121.3 23.78C121.72 24.8 122.16 26.12 122.4 27L119.88 27.72C119.72 26.82 119.28 25.42 118.92 24.38ZM134.24 28.86H140.3V31H134.24V28.86ZM134.18 25.02H141.88V34.96H134.18V32.82H139.48V27.16H134.18V25.02ZM133.42 42.38L133.16 40.22L134.1 39.42L139.8 37.78C139.98 38.44 140.3 39.32 140.52 39.84C134.9 41.62 134 41.96 133.42 42.38ZM137.6 36.48L139.66 35.46C140.66 37.1 141.9 39.3 142.44 40.7L140.2 41.9C139.74 40.48 138.58 38.2 137.6 36.48ZM133.42 42.38C133.28 41.68 132.86 40.5 132.48 39.92C132.92 39.7 133.42 39.3 133.42 38.52V25.02H135.86V40.52C135.86 40.52 133.42 41.44 133.42 42.38ZM147.82 25.16H150.18V36.72C150.18 37.82 150.02 38.46 149.34 38.84C148.68 39.22 147.76 39.26 146.46 39.26C146.4 38.6 146.12 37.6 145.82 36.98C146.52 37.02 147.28 37.02 147.5 37C147.74 37 147.82 36.94 147.82 36.68V25.16ZM143.02 25.16H148.98V27.36H145.42V42.8H143.02V25.16ZM157.54 32.92H167.24V34.82H157.54V32.92ZM157.24 36.34H167.56V38.3H157.24V36.34ZM163.24 33.52H165.34V42.44H163.24V33.52ZM159.34 33.6H161.38V37.44C161.38 38.72 160.84 41.36 158.74 42.8C158.42 42.38 157.7 41.74 157.2 41.42C158.9 40.38 159.34 38.44 159.34 37.42V33.6ZM155.16 27.52H160.2V29.08H155.16V27.52ZM164.44 27.52H169.5V29.08H164.44V27.52ZM168.56 24.78H170.92V40.02C170.92 41.22 170.7 41.9 169.98 42.3C169.24 42.7 168.2 42.76 166.66 42.74C166.6 42.1 166.28 40.98 165.96 40.36C166.84 40.4 167.84 40.4 168.14 40.4C168.46 40.4 168.56 40.28 168.56 39.98V24.78ZM155.38 24.78H161.72V31.9H155.38V30.18H159.46V26.5H155.38V24.78ZM169.78 24.78V26.5H165.3V30.22H169.78V31.94H163.02V24.78H169.78ZM153.96 24.78H156.32V42.8H153.96V24.78ZM175.28 25.42H177.5V30.88C177.5 34.12 177.18 39.08 175.36 42.2C174.98 41.78 174.02 41.06 173.52 40.82C175.14 37.96 175.28 33.82 175.28 30.88V25.42ZM182.18 24.16L184 25.9C181.68 26.58 178.58 27.02 175.94 27.24C175.84 26.72 175.54 25.9 175.28 25.42C177.76 25.16 180.52 24.7 182.18 24.16ZM185.66 27.7H192.58V29.92H185.66V27.7ZM185.7 24.06L188.1 24.38C187.56 28.52 186.56 32.44 184.82 34.96C184.48 34.5 183.56 33.58 183.04 33.2C184.56 31.1 185.34 27.64 185.7 24.06ZM186.82 29.64C187.68 34.34 189.48 38.62 192.76 40.66C192.18 41.12 191.38 42.12 190.98 42.78C187.52 40.26 185.86 35.54 184.86 29.98L186.82 29.64ZM189.7 27.98L191.74 29.04C191.04 35.3 189.08 40.42 184.7 42.8C184.32 42.18 183.56 41.28 182.94 40.76C187.3 38.76 189.04 34.12 189.7 27.98ZM176.2 28.06H183.5V33.38H176.2V31.46H181.36V29.96H176.2V28.06ZM177.7 38.86H182.98V40.76H177.7V38.86ZM176.74 34.76H183.54V41.56H181.42V36.68H178.78V41.96H176.74V34.76Z" fill="white"/>
<path d="M219.474 30.4124L215.448 26.3859C215.009 25.9475 214.298 25.9475 213.86 26.3859C213.421 26.8243 213.421 27.5351 213.86 27.9736L216.764 30.8772H206.658C206.038 30.8772 205.535 31.3799 205.535 32C205.535 32.6202 206.038 33.1229 206.658 33.1229H216.764L213.86 36.0265C213.421 36.4649 213.421 37.1758 213.86 37.6142C214.298 38.0526 215.009 38.0526 215.448 37.6142L219.474 33.5877C219.895 33.1666 220.132 32.5955 220.132 32C220.132 31.4046 219.895 30.8335 219.474 30.4124Z" fill="white"/>
<path d="M328 32L296 -2.79753e-06L328 0L328 32Z" fill="#00FFFF"/>
<path fill-rule="evenodd" clip-rule="evenodd" d="M319.692 56L296 56L296 55.0251L318.725 55.0251L318.725 46.141L316.417 43.8142L319.208 41L322 43.8142L319.692 46.141L319.692 56Z" fill="#00FFFF"/>
</svg>
