<svg width="328" height="64" viewBox="0 0 328 64" fill="none" xmlns="http://www.w3.org/2000/svg">
<rect x="1" y="1" width="326" height="62" fill="#003397"/>
<rect x="1" y="1" width="326" height="62" stroke="#00FFFF" stroke-width="2"/>
<path fill-rule="evenodd" clip-rule="evenodd" d="M8.30803 8H32V8.97486H9.27505V17.859L11.5831 20.1858L8.79154 23L6 20.1858L8.30803 17.859V8Z" fill="#00FFFF"/>
<path d="M0 32L32 64H0L0 32Z" fill="#00FFFF"/>
<path d="M112.58 27.62H129.06V30.04H112.58V27.62ZM111.68 39.62H129.92V42.04H111.68V39.62ZM115.08 31.2L117.48 30.6C118.24 33.14 118.98 36.3 119.32 38.46L116.74 39.14C116.5 37 115.74 33.68 115.08 31.2ZM124.12 30.66L126.82 31.18C125.96 34.52 124.74 38.22 123.72 40.6L121.34 40.04C122.4 37.6 123.54 33.66 124.12 30.66ZM118.92 24.38L121.3 23.78C121.72 24.8 122.16 26.12 122.4 27L119.88 27.72C119.72 26.82 119.28 25.42 118.92 24.38ZM134.24 28.86H140.3V31H134.24V28.86ZM134.18 25.02H141.88V34.96H134.18V32.82H139.48V27.16H134.18V25.02ZM133.42 42.38L133.16 40.22L134.1 39.42L139.8 37.78C139.98 38.44 140.3 39.32 140.52 39.84C134.9 41.62 134 41.96 133.42 42.38ZM137.6 36.48L139.66 35.46C140.66 37.1 141.9 39.3 142.44 40.7L140.2 41.9C139.74 40.48 138.58 38.2 137.6 36.48ZM133.42 42.38C133.28 41.68 132.86 40.5 132.48 39.92C132.92 39.7 133.42 39.3 133.42 38.52V25.02H135.86V40.52C135.86 40.52 133.42 41.44 133.42 42.38ZM147.82 25.16H150.18V36.72C150.18 37.82 150.02 38.46 149.34 38.84C148.68 39.22 147.76 39.26 146.46 39.26C146.4 38.6 146.12 37.6 145.82 36.98C146.52 37.02 147.28 37.02 147.5 37C147.74 37 147.82 36.94 147.82 36.68V25.16ZM143.02 25.16H148.98V27.36H145.42V42.8H143.02V25.16ZM153.3 26.98H171.5V29.16H153.3V26.98ZM155.66 33.8H160.86V35.56H155.66V33.8ZM155.66 36.86H160.86V38.64H155.66V36.86ZM164.04 30.74H166.26V38.94H164.04V30.74ZM160.02 30.54H162.34V40.44C162.34 41.46 162.14 42.02 161.46 42.36C160.8 42.72 159.88 42.74 158.64 42.74C158.52 42.14 158.18 41.26 157.88 40.7C158.62 40.74 159.44 40.74 159.68 40.72C159.94 40.72 160.02 40.64 160.02 40.4V30.54ZM168.06 30.2H170.42V40.18C170.42 41.34 170.2 41.96 169.4 42.32C168.64 42.68 167.56 42.76 166.08 42.74C165.96 42.1 165.58 41.08 165.24 40.46C166.26 40.52 167.3 40.52 167.64 40.5C167.96 40.5 168.06 40.42 168.06 40.14V30.2ZM156.06 24.8L158.34 24C159.06 24.78 159.86 25.84 160.2 26.6L157.78 27.46C157.5 26.74 156.76 25.6 156.06 24.8ZM166.32 23.96L168.94 24.74C168.12 26.02 167.24 27.3 166.54 28.18L164.38 27.44C165.06 26.5 165.88 25.04 166.32 23.96ZM154.56 30.54H156.72V35.18C156.72 37.52 156.46 40.78 154.98 42.8C154.62 42.42 153.68 41.72 153.18 41.46C154.44 39.66 154.56 37.1 154.56 35.14V30.54ZM155.96 30.54H161.16V32.42H155.96V30.54ZM178.28 28.46L180.38 29.32C179 31.78 176.78 34.44 174.78 36.1C174.6 35.56 174 34.2 173.64 33.62C175.32 32.36 177.16 30.4 178.28 28.46ZM177.74 24.04L180.02 24.94C178.78 26.8 176.88 28.76 175.1 30C174.84 29.46 174.26 28.46 173.9 27.98C175.36 27.02 176.98 25.38 177.74 24.04ZM176.3 32.98L178.64 30.62L178.76 30.7V42.8H176.3V32.98ZM181.06 33.56H191.34V35.86H181.06V33.56ZM179.76 39.94H192.48V42.22H179.76V39.94ZM180.38 27.74H191.96V30.02H180.38V27.74ZM185.06 29.06H187.56V40.9H185.06V29.06ZM184.12 24.68L186.32 23.92C186.92 24.9 187.62 26.18 187.88 27.06L185.54 27.9C185.32 27.06 184.7 25.7 184.12 24.68Z" fill="white"/>
<path d="M219.474 30.4122L215.448 26.3858C215.009 25.9473 214.298 25.9473 213.86 26.3858C213.421 26.8242 213.421 27.535 213.86 27.9734L216.764 30.8771H206.658C206.038 30.8771 205.535 31.3798 205.535 31.9999C205.535 32.62 206.038 33.1228 206.658 33.1228H216.764L213.86 36.0264C213.421 36.4648 213.421 37.1757 213.86 37.6141C214.298 38.0525 215.009 38.0525 215.448 37.6141L219.474 33.5876C219.895 33.1665 220.132 32.5954 220.132 31.9999C220.132 31.4044 219.895 30.8334 219.474 30.4122Z" fill="white"/>
<path d="M328 32L296 -2.79753e-06L328 0L328 32Z" fill="#00FFFF"/>
<path fill-rule="evenodd" clip-rule="evenodd" d="M319.692 56L296 56L296 55.0251L318.725 55.0251L318.725 46.141L316.417 43.8142L319.208 41L322 43.8142L319.692 46.141L319.692 56Z" fill="#00FFFF"/>
</svg>
