<svg width="328" height="65" viewBox="0 0 328 65" fill="none" xmlns="http://www.w3.org/2000/svg">
<rect x="1" y="1.79688" width="326" height="62" fill="#003397"/>
<rect x="1" y="1.79688" width="326" height="62" stroke="#00FFFF" stroke-width="2"/>
<path fill-rule="evenodd" clip-rule="evenodd" d="M8.30803 8.79688H32V9.77174H9.27505V18.6559L11.5831 20.9827L8.79154 23.7969L6 20.9827L8.30803 18.6559V8.79688Z" fill="#00FFFF"/>
<path d="M0 32.7969L32 64.7969H0L0 32.7969Z" fill="#00FFFF"/>
<path d="M112.58 28.4169H129.06V30.8369H112.58V28.4169ZM111.68 40.4169H129.92V42.8369H111.68V40.4169ZM115.08 31.9969L117.48 31.3969C118.24 33.9369 118.98 37.0969 119.32 39.2569L116.74 39.9369C116.5 37.7969 115.74 34.4769 115.08 31.9969ZM124.12 31.4569L126.82 31.9769C125.96 35.3169 124.74 39.0169 123.72 41.3969L121.34 40.8369C122.4 38.3969 123.54 34.4569 124.12 31.4569ZM118.92 25.1769L121.3 24.5769C121.72 25.5969 122.16 26.9169 122.4 27.7969L119.88 28.5169C119.72 27.6169 119.28 26.2169 118.92 25.1769ZM134.24 29.6569H140.3V31.7969H134.24V29.6569ZM134.18 25.8169H141.88V35.7569H134.18V33.6169H139.48V27.9569H134.18V25.8169ZM133.42 43.1769L133.16 41.0169L134.1 40.2169L139.8 38.5769C139.98 39.2369 140.3 40.1169 140.52 40.6369C134.9 42.4169 134 42.7569 133.42 43.1769ZM137.6 37.2769L139.66 36.2569C140.66 37.8969 141.9 40.0969 142.44 41.4969L140.2 42.6969C139.74 41.2769 138.58 38.9969 137.6 37.2769ZM133.42 43.1769C133.28 42.4769 132.86 41.2969 132.48 40.7169C132.92 40.4969 133.42 40.0969 133.42 39.3169V25.8169H135.86V41.3169C135.86 41.3169 133.42 42.2369 133.42 43.1769ZM147.82 25.9569H150.18V37.5169C150.18 38.6169 150.02 39.2569 149.34 39.6369C148.68 40.0169 147.76 40.0569 146.46 40.0569C146.4 39.3969 146.12 38.3969 145.82 37.7769C146.52 37.8169 147.28 37.8169 147.5 37.7969C147.74 37.7969 147.82 37.7369 147.82 37.4769V25.9569ZM143.02 25.9569H148.98V28.1569H145.42V43.5969H143.02V25.9569ZM153.42 26.2769H171.38V28.6969H153.42V26.2769ZM160.68 28.4569H163.26V43.5569H160.68V28.4569ZM162.04 33.2969L163.68 31.3969C165.86 32.4769 169 34.2169 170.54 35.4569L168.76 37.6569C167.34 36.3969 164.3 34.5169 162.04 33.2969ZM187.76 26.0569L189.5 24.8969C190.4 25.7169 191.52 26.8569 192.04 27.6569L190.18 28.9369C189.72 28.1369 188.64 26.9169 187.76 26.0569ZM174.1 29.0769H192.32V31.0369H174.1V29.0769ZM175.02 26.1769H183.74V27.9969H175.02V26.1769ZM174.66 31.9169H184.1V33.5969H174.66V31.9169ZM174.38 40.0969H184.08V41.8369H174.38V40.0969ZM178.26 24.8169H180.54V30.8969H178.26V24.8169ZM176.7 37.3969V38.1569H182.06V37.3969H176.7ZM176.7 35.5369V36.2769H182.06V35.5369H176.7ZM175.02 34.3569H183.82V39.3169H175.02V34.3569ZM178.5 35.0969H180.24V38.8969H180.42V43.6169H178.32V38.8969H178.5V35.0969ZM178.3 30.8969H180.46V34.7969H178.3V30.8969ZM184.68 24.8369H187.1C186.88 33.3969 188.12 41.2569 190 41.2569C190.44 41.2569 190.62 40.2969 190.74 37.9769C191.24 38.4969 192.04 39.0169 192.64 39.2369C192.3 42.7169 191.56 43.5969 189.8 43.5969C185.62 43.5969 184.7 34.3969 184.68 24.8369ZM189.58 31.8969L191.7 32.5569C190.16 37.4369 187.58 41.1769 183.88 43.6369C183.54 43.0569 182.84 42.2969 182.26 41.8169C185.74 39.8169 188.24 36.3369 189.58 31.8969Z" fill="white"/>
<path d="M219.474 31.2092L215.448 27.1828C215.009 26.7443 214.298 26.7443 213.86 27.1828C213.421 27.6212 213.421 28.332 213.86 28.7704L216.764 31.6741H206.658C206.038 31.6741 205.535 32.1768 205.535 32.7969C205.535 33.417 206.038 33.9197 206.658 33.9197H216.764L213.86 36.8234C213.421 37.2618 213.421 37.9726 213.86 38.4111C214.298 38.8495 215.009 38.8495 215.448 38.4111L219.474 34.3846C219.895 33.9635 220.132 33.3924 220.132 32.7969C220.132 32.2014 219.895 31.6304 219.474 31.2092Z" fill="white"/>
<path d="M328 32.7969L296 0.796872L328 0.796875L328 32.7969Z" fill="#00FFFF"/>
<path fill-rule="evenodd" clip-rule="evenodd" d="M319.692 56.7969L296 56.7969L296 55.822L318.725 55.822L318.725 46.9378L316.417 44.6111L319.208 41.7969L322 44.6111L319.692 46.9378L319.692 56.7969Z" fill="#00FFFF"/>
</svg>
