<svg width="1240" height="508" viewBox="0 0 1240 508" fill="none" xmlns="http://www.w3.org/2000/svg">
<g filter="url(#filter0_d_1230_14387)">
<path d="M20 59.9147L60 20H1179.5L1220 59.9147V448.085L1180 488L60 488L20 448.085V59.9147Z" fill="url(#paint0_linear_1230_14387)"/>
<path d="M1179.09 21L1219 60.3332V447.671L1179.59 487L60.4136 487L21 447.671V60.3296L60.4136 21H1179.09Z" stroke="url(#paint1_linear_1230_14387)" stroke-width="2"/>
</g>
<path d="M119 140.056H161.816V145.432H119V140.056ZM131.192 157.336H152.696V162.136H131.192V157.336ZM150.824 149.224H156.44V173.08C156.44 175.912 155.912 177.496 153.944 178.408C152.024 179.272 149.288 179.32 145.4 179.32C145.16 177.736 144.392 175.288 143.624 173.8C146.12 173.944 148.952 173.896 149.768 173.896C150.536 173.896 150.824 173.656 150.824 172.984V149.224ZM133.88 134.2L139.832 135.544C136.52 146.152 130.808 156.952 121.736 163.336C120.872 162.04 119.048 159.976 117.896 158.872C126.2 153.4 131.528 143.272 133.88 134.2ZM131.048 165.256H152.696V170.056H131.048V165.256ZM130.856 149.224H152.12V154.312H130.856V149.224ZM127.688 149.224H133.496V162.088C133.496 167.848 132.536 175.336 127.352 179.704C126.584 178.504 124.328 176.056 123.176 175.24C127.352 171.64 127.688 166.504 127.688 161.992V149.224ZM181.352 157.384H197.576V172.504H181.352V167.8H192.2V162.088H181.352V157.384ZM178.904 157.384H184.232V175.24H178.904V157.384ZM171.032 143.032H183.08V146.968H171.032V143.032ZM193.304 143.032H205.448V146.968H193.304V143.032ZM203.048 136.072H208.856V172.408C208.856 175.672 208.184 177.304 206.216 178.264C204.2 179.224 201.176 179.32 196.76 179.32C196.568 177.688 195.608 174.952 194.792 173.464C197.576 173.608 200.888 173.56 201.8 173.56C202.712 173.56 203.048 173.224 203.048 172.36V136.072ZM171.512 136.072H186.68V154.072H171.512V149.656H181.304V140.488H171.512V136.072ZM206.168 136.072V140.44H195.416V149.752H206.168V154.12H189.944V136.072H206.168ZM168.2 136.072H173.912V179.32H168.2V136.072ZM221.768 145.864V148.168H228.584V145.864H221.768ZM221.768 139.96V142.216H228.584V139.96H221.768ZM216.68 136.12H233.912V152.056H216.68V136.12ZM214.424 154.792H236.072V159.016H214.424V154.792ZM235.88 136.264H258.008V140.296H235.88V136.264ZM223.4 156.136H228.2V175.432L223.4 172.648V156.136ZM225.896 162.904H235.208V167.032H225.896V162.904ZM245.144 137.224L250.376 138.376C249.224 141.064 247.976 143.944 246.968 145.816L242.888 144.76C243.752 142.6 244.664 139.48 245.144 137.224ZM242.504 152.68V154.936H251.24V152.68H242.504ZM242.504 158.584V160.888H251.24V158.584H242.504ZM242.504 146.728V148.984H251.24V146.728H242.504ZM237.368 142.84H256.568V164.824H237.368V142.84ZM241.256 165.16L246.008 166.6C243.944 169.336 240.536 172.072 237.56 173.704C236.744 172.792 234.92 171.112 233.864 170.344C236.744 169.096 239.624 167.128 241.256 165.16ZM216.632 160.888H221.24C221 168.232 220.28 175.288 216.632 179.608C215.96 178.408 214.424 176.584 213.272 175.72C216.008 172.36 216.488 166.696 216.632 160.888ZM220.472 164.92C223.16 172.984 229.16 173.8 238.952 173.848C242.168 173.848 255.416 173.848 259.352 173.656C258.584 174.76 257.768 176.968 257.48 178.408H238.952C227.048 178.408 220.472 176.776 217.064 165.928L220.472 164.92ZM248.072 166.888L252.008 164.824C254.6 166.504 257.576 169.096 259.064 170.92L254.936 173.368C253.448 171.448 250.472 168.664 248.072 166.888ZM280.499 151.672V155.704H288.563V151.672H280.499ZM275.555 147.208H293.843V160.168H275.555V147.208ZM273.491 139.72H295.523V144.76H273.491V139.72ZM296.051 146.488H317.555V151.624H296.051V146.488ZM305.507 154.072H310.451V172.36C310.451 173.176 310.499 173.704 310.643 173.896C310.835 174.04 311.075 174.136 311.363 174.136C311.651 174.136 312.227 174.136 312.611 174.136C312.899 174.136 313.235 174.088 313.427 173.944C313.667 173.848 313.811 173.416 313.907 172.552C314.003 171.736 314.051 169.672 314.051 167.224C315.107 168.184 317.075 169.144 318.515 169.624C318.419 171.928 318.179 174.472 317.843 175.576C317.459 176.728 316.883 177.448 316.019 177.832C315.251 178.312 314.051 178.408 313.139 178.408C312.275 178.408 310.883 178.408 310.115 178.408C308.963 178.408 307.571 178.072 306.755 177.304C305.891 176.488 305.507 175.48 305.507 172.12V154.072ZM302.243 134.344H307.667C307.523 150.184 307.187 168.712 296.099 179.464C295.235 178.216 293.555 176.728 292.067 175.864C302.579 166.216 302.147 149.032 302.243 134.344ZM282.467 158.824H287.555V173.8C287.555 176.056 287.219 177.4 285.731 178.216C284.243 178.936 282.371 179.032 279.779 179.032C279.587 177.592 278.867 175.576 278.195 174.28C279.683 174.328 281.267 174.328 281.795 174.28C282.323 174.28 282.467 174.136 282.467 173.656V158.824ZM276.707 161.512L281.363 162.52C280.307 167.272 278.531 172.264 276.515 175.432C275.651 174.664 273.683 173.272 272.627 172.696C274.547 169.912 275.891 165.64 276.707 161.512ZM288.275 162.76L292.259 160.936C293.795 163.624 295.283 167.128 295.811 169.48L291.587 171.496C291.155 169.096 289.763 165.448 288.275 162.76ZM307.907 138.088L311.651 135.928C313.571 138.088 315.827 141.208 316.739 143.272L312.803 145.72C311.939 143.656 309.827 140.44 307.907 138.088ZM280.787 135.304L286.067 134.152C287.075 136.168 288.131 138.856 288.563 140.584L282.995 141.88C282.659 140.152 281.699 137.368 280.787 135.304ZM320.531 158.632C324.947 157.72 331.571 156.136 337.715 154.504L338.387 159.832C332.819 161.368 326.723 162.952 322.019 164.152L320.531 158.632ZM321.107 143.368H337.907V148.744H321.107V143.368ZM327.107 134.248H332.723V172.888C332.723 175.624 332.195 177.064 330.611 177.928C328.979 178.792 326.675 178.936 323.267 178.936C323.075 177.496 322.355 175.144 321.683 173.704C323.555 173.8 325.571 173.752 326.195 173.752C326.867 173.752 327.107 173.512 327.107 172.84V134.248ZM338.435 147.016L364.691 144.472L365.267 149.848L339.011 152.536L338.435 147.016ZM351.539 137.56L355.955 134.728C358.067 136.792 360.995 139.768 362.435 141.688L357.779 144.904C356.483 142.936 353.651 139.768 351.539 137.56ZM343.859 134.488H349.763C350.099 155.272 352.979 171.112 359.267 172.024C360.371 172.168 360.995 169.816 361.283 164.632C362.435 165.88 364.979 167.464 366.131 167.992C364.835 176.968 362.243 179.176 359.555 178.936C347.747 177.736 344.723 160.648 343.859 134.488ZM358.451 151.72L363.203 154.6C358.835 164.152 350.291 173.32 340.931 177.736C339.875 176.248 337.955 174.424 336.323 173.272C346.067 169.48 354.467 160.792 358.451 151.72ZM394.163 154.36H400.115V170.968C400.115 172.84 400.403 173.08 401.939 173.08C402.611 173.08 405.443 173.08 406.307 173.08C407.939 173.08 408.227 171.88 408.419 164.92C409.667 165.928 412.211 166.936 413.747 167.32C413.171 176.008 411.731 178.504 406.835 178.504C405.731 178.504 402.083 178.504 401.027 178.504C395.555 178.504 394.163 176.632 394.163 171.016V154.36ZM369.779 150.664H412.835V156.28H369.779V150.664ZM374.147 137.608H408.419V143.176H374.147V137.608ZM380.771 155.08H386.963C386.195 165.64 384.371 174.328 372.275 179.176C371.651 177.736 370.019 175.624 368.723 174.52C379.283 170.584 380.195 163.528 380.771 155.08ZM442.355 158.344H448.163V171.352C448.163 172.936 448.403 173.128 449.891 173.128C450.563 173.128 453.251 173.128 454.067 173.128C455.507 173.128 455.747 172.264 455.939 166.6C457.139 167.512 459.635 168.472 461.219 168.856C460.643 176.536 459.107 178.6 454.595 178.6C453.491 178.6 450.083 178.6 449.027 178.6C443.603 178.6 442.355 176.776 442.355 171.352V158.344ZM417.875 154.072H460.739V159.64H417.875V154.072ZM425.795 140.728H456.947V146.248H425.795V140.728ZM429.443 158.44H435.491C434.579 167.512 432.323 175.192 420.755 179.56C420.083 178.024 418.451 175.672 417.107 174.52C427.379 171.208 428.723 165.256 429.443 158.44ZM425.747 134.92L431.603 136.072C430.067 141.736 427.619 148.648 424.403 152.872C423.059 152.008 420.707 150.808 419.267 150.28C422.435 146.344 424.691 139.864 425.747 134.92ZM436.403 134.248H442.259V155.8H436.403V134.248ZM473.219 142.936H506.627V148.552H473.219V142.936ZM471.251 157.096H504.803V162.616H471.251V157.096ZM465.683 172.312H509.075V177.928H465.683V172.312ZM484.355 134.248H490.355V175.096H484.355V134.248ZM473.267 134.824L479.219 136.168C477.107 143.608 473.603 151 469.859 155.608C468.707 154.6 466.163 152.92 464.675 152.104C468.467 148.072 471.539 141.448 473.267 134.824Z" fill="white"/>
<path d="M139.712 200.696C137.096 202.928 134.96 206.96 134.96 211.88C134.96 216.824 137.096 220.856 139.712 223.088V223.208H132.248V200.576H139.712V200.696ZM153.848 210.68H156.824V218.984C156.824 219.92 156.968 220.04 157.736 220.04C158.072 220.04 159.488 220.04 159.92 220.04C160.736 220.04 160.88 219.44 160.976 215.96C161.6 216.464 162.872 216.968 163.64 217.16C163.352 221.504 162.632 222.752 160.184 222.752C159.632 222.752 157.808 222.752 157.28 222.752C154.544 222.752 153.848 221.816 153.848 219.008V210.68ZM141.656 208.832H163.184V211.64H141.656V208.832ZM143.84 202.304H160.976V205.088H143.84V202.304ZM147.152 211.04H150.248C149.864 216.32 148.952 220.664 142.904 223.088C142.592 222.368 141.776 221.312 141.128 220.76C146.408 218.792 146.864 215.264 147.152 211.04ZM177.944 212.672H180.848V219.176C180.848 219.968 180.968 220.064 181.712 220.064C182.048 220.064 183.392 220.064 183.8 220.064C184.52 220.064 184.64 219.632 184.736 216.8C185.336 217.256 186.584 217.736 187.376 217.928C187.088 221.768 186.32 222.8 184.064 222.8C183.512 222.8 181.808 222.8 181.28 222.8C178.568 222.8 177.944 221.888 177.944 219.176V212.672ZM165.704 210.536H187.136V213.32H165.704V210.536ZM169.664 203.864H185.24V206.624H169.664V203.864ZM171.488 212.72H174.512C174.056 217.256 172.928 221.096 167.144 223.28C166.808 222.512 165.992 221.336 165.32 220.76C170.456 219.104 171.128 216.128 171.488 212.72ZM169.64 200.96L172.568 201.536C171.8 204.368 170.576 207.824 168.968 209.936C168.296 209.504 167.12 208.904 166.4 208.64C167.984 206.672 169.112 203.432 169.64 200.96ZM174.968 200.624H177.896V211.4H174.968V200.624ZM193.376 204.968H210.08V207.776H193.376V204.968ZM192.392 212.048H209.168V214.808H192.392V212.048ZM189.608 219.656H211.304V222.464H189.608V219.656ZM198.944 200.624H201.944V221.048H198.944V200.624ZM193.4 200.912L196.376 201.584C195.32 205.304 193.568 209 191.696 211.304C191.12 210.8 189.848 209.96 189.104 209.552C191 207.536 192.536 204.224 193.4 200.912ZM220.544 223.208H213.08V223.088C215.696 220.856 217.832 216.824 217.832 211.88C217.832 206.96 215.696 202.928 213.08 200.696V200.576H220.544V223.208ZM237.416 221V218.984C242.264 214.64 245.096 211.304 245.096 208.568C245.096 206.792 244.16 205.688 242.456 205.688C241.136 205.688 240.104 206.528 239.192 207.536L237.248 205.616C238.88 203.864 240.488 202.928 242.912 202.928C246.248 202.928 248.504 205.064 248.504 208.376C248.504 211.616 245.816 215.072 242.576 218.24C243.464 218.144 244.64 218.024 245.48 218.024H249.32V221H237.416ZM258.628 221V210.08C258.628 209.048 258.724 207.44 258.772 206.384H258.676C258.22 207.344 257.74 208.328 257.236 209.288L254.5 213.704H264.028V216.416H251.068V213.992L257.668 203.24H261.916V221H258.628ZM275.209 200.96H278.377V219.56C278.377 221.336 277.969 222.128 276.865 222.584C275.761 223.064 274.105 223.16 271.753 223.136C271.609 222.296 271.057 220.928 270.601 220.136C272.185 220.232 273.985 220.208 274.489 220.184C275.017 220.184 275.209 220.016 275.209 219.536V200.96ZM280.993 207.272L283.801 206.216C285.769 209.6 287.761 213.992 288.361 216.992L285.217 218.24C284.713 215.336 282.889 210.8 280.993 207.272ZM268.921 206.456L272.209 207.008C271.393 210.632 270.073 215.12 268.057 217.784C267.361 217.256 266.041 216.584 265.249 216.272C267.193 213.824 268.417 209.6 268.921 206.456ZM298.969 207.992H311.257V210.488H298.969V207.992ZM298.201 203.168H311.905V205.712H298.201V203.168ZM298.225 212.36H311.809V214.88H298.225V212.36ZM303.625 200.6H306.457V209.408H303.625V200.6ZM306.673 210.176H309.481V220.112C309.481 221.504 309.217 222.248 308.281 222.656C307.321 223.088 306.025 223.136 304.225 223.136C304.129 222.344 303.697 221.192 303.313 220.448C304.489 220.496 305.809 220.496 306.169 220.472C306.553 220.472 306.673 220.4 306.673 220.064V210.176ZM299.185 216.488L301.585 215.192C302.545 216.344 303.865 218 304.489 219.056L301.945 220.544C301.393 219.488 300.169 217.76 299.185 216.488ZM291.577 202.088H297.769V218.504H291.577V215.936H295.081V204.656H291.577V202.088ZM291.721 208.904H296.377V211.424H291.721V208.904ZM290.233 202.088H292.897V220.64H290.233V202.088ZM314.041 203.96H335.449V206.72H314.041V203.96ZM321.865 211.736H334.441V214.4H321.865V211.736ZM320.929 219.896H335.353V222.56H320.929V219.896ZM326.761 207.752H329.665V221.312H326.761V207.752ZM321.601 200.6L324.601 201.32C322.825 207.104 319.801 212.936 314.665 216.44C314.377 215.624 313.705 214.352 313.273 213.656C317.617 210.824 320.353 205.448 321.601 200.6ZM316.801 210.656H319.705V223.112H316.801V210.656ZM351.649 200.6L354.937 201.176C354.265 202.472 353.569 203.744 353.017 204.56L350.569 203.96C351.001 202.976 351.433 201.608 351.649 200.6ZM350.137 208.544V209.792H356.233V208.544H350.137ZM350.137 205.328V206.552H356.233V205.328H350.137ZM347.473 203.168H359.017V211.952H347.473V203.168ZM352.033 210.968H354.769V220.304C354.769 221.576 354.553 222.32 353.737 222.752C352.921 223.184 351.793 223.208 350.257 223.208C350.161 222.44 349.849 221.312 349.489 220.592C350.377 220.64 351.361 220.64 351.649 220.616C351.961 220.616 352.033 220.544 352.033 220.256V210.968ZM346.609 213.44H349.969V215.768H346.609V213.44ZM349.345 213.44H349.801L350.233 213.368L351.937 213.944C351.145 217.712 349.369 220.472 346.873 222.008C346.537 221.408 345.769 220.496 345.265 220.016C347.257 218.888 348.817 216.44 349.345 213.848V213.44ZM357.673 212.312L359.809 214.112C358.441 215.192 357.049 216.392 355.921 217.136L354.385 215.696C355.417 214.832 356.857 213.392 357.673 212.312ZM354.649 212.336C355.585 215.552 357.481 218.552 360.121 219.992C359.521 220.496 358.681 221.552 358.249 222.272C355.489 220.376 353.713 216.8 352.705 212.792L354.649 212.336ZM343.009 210.488L345.097 209.936C345.649 211.544 346.201 213.68 346.369 214.976L344.161 215.672C343.993 214.352 343.537 212.168 343.009 210.488ZM340.945 216.8L342.961 216.44C343.225 218.072 343.441 220.136 343.489 221.528L341.353 221.936C341.353 220.544 341.161 218.408 340.945 216.8ZM338.353 216.464L340.561 216.824C340.393 219.032 339.985 221.408 339.481 222.944C339.001 222.68 337.945 222.344 337.369 222.176C337.921 220.736 338.209 218.504 338.353 216.464ZM338.137 210.152C337.993 209.624 337.537 208.352 337.249 207.656C337.705 207.536 338.113 207.08 338.569 206.384C339.049 205.688 340.465 203.072 341.257 200.552L343.873 201.608C342.793 204.152 341.185 206.888 339.721 208.76V208.808C339.721 208.808 338.137 209.672 338.137 210.152ZM338.137 210.152L338.041 208.16L339.217 207.416L343.393 207.104C343.249 207.824 343.105 208.808 343.105 209.384C339.385 209.744 338.617 209.936 338.137 210.152ZM338.305 215.72C338.161 215.168 337.705 213.848 337.393 213.128C338.017 212.96 338.545 212.408 339.313 211.52C340.105 210.656 342.601 207.248 344.089 203.96L346.513 205.472C344.785 208.688 342.337 211.952 339.961 214.304V214.376C339.961 214.376 338.305 215.216 338.305 215.72ZM338.305 215.72L338.185 213.68L339.361 212.888L345.121 212.216C345.001 212.912 344.929 213.92 344.953 214.472C339.769 215.216 338.881 215.432 338.305 215.72ZM343.345 216.32L345.217 215.744C345.601 216.8 346.033 218.144 346.201 219.056L344.233 219.728C344.089 218.816 343.705 217.4 343.345 216.32ZM371.185 206.432H374.161V212.768H371.185V206.432ZM364.033 211.424H381.241V213.632H364.033V211.424ZM362.737 207.608H382.729V210.032H362.737V207.608ZM361.993 215.24H383.473V217.592H361.993V215.24ZM375.937 214.064H378.913V220.568C378.913 221.912 378.601 222.512 377.545 222.824C376.513 223.136 375.049 223.136 373.057 223.136C372.985 222.416 372.673 221.528 372.361 220.832C373.537 220.904 375.049 220.904 375.409 220.88C375.793 220.856 375.937 220.76 375.937 220.448V214.064ZM365.833 218.6L367.873 217.088C369.073 218.096 370.777 219.56 371.617 220.52L369.481 222.2C368.713 221.24 367.057 219.68 365.833 218.6ZM364.873 202.136H372.409V204.584H364.873V202.136ZM374.857 202.136H383.833V204.584H374.857V202.136ZM365.017 200.408L367.537 201.176C366.553 203.408 364.897 205.736 363.289 207.176C362.905 206.696 361.945 205.664 361.369 205.208C362.857 204.032 364.225 202.208 365.017 200.408ZM374.977 200.408L377.617 201.056C376.849 203.48 375.505 205.88 374.113 207.416C373.633 206.96 372.553 206.12 371.953 205.736C373.273 204.44 374.377 202.424 374.977 200.408ZM366.433 205.328L368.137 203.84C368.977 204.488 370.057 205.424 370.585 206.048L368.785 207.728C368.281 207.056 367.249 206.024 366.433 205.328ZM376.897 205.4L378.745 203.912C379.537 204.584 380.569 205.592 381.049 206.288L379.105 207.944C378.673 207.248 377.689 206.144 376.897 205.4Z" fill="#53F5FF"/>
<path d="M123.38 275.908H137.744V278.26H123.38V275.908ZM126.74 253.116L129.26 253.984C126.964 257.848 123.324 261.348 119.796 263.532C119.376 263.028 118.396 262.02 117.808 261.6C121.364 259.668 124.78 256.532 126.74 253.116ZM136.96 256.196H137.52L137.968 256.056L139.844 257.288C135.672 263.98 126.628 268.124 118.452 269.972C118.2 269.272 117.612 268.18 117.136 267.592C124.808 266.108 133.544 262.132 136.96 256.616V256.196ZM124.892 257.624C128.56 262.328 135.84 265.996 143.708 267.396C143.092 267.984 142.364 269.104 141.972 269.832C134.076 268.18 126.908 264.204 122.68 258.66L124.892 257.624ZM122.008 269.132H138.864V279.352H136.064V271.54H124.668V279.464H122.008V269.132ZM126.096 256.196H137.576V258.52H124.5L126.096 256.196ZM162.076 255.608H164.624V277.868H162.076V255.608ZM155.384 258.296H170.952V260.396H155.384V258.296ZM154.6 276.72H171.512V278.848H154.6V276.72ZM156.196 272.828H170.504V274.9H156.196V272.828ZM169.328 253.676L170.896 255.636C167.032 256.448 161.18 256.868 156.392 256.952C156.336 256.364 156.028 255.468 155.804 254.936C160.452 254.768 166.108 254.348 169.328 253.676ZM158.772 267.368V269.244H168.012V267.368H158.772ZM158.772 263.868V265.716H168.012V263.868H158.772ZM156.448 261.964H170.448V271.148H156.448V261.964ZM150.008 255.832H152.584V279.324H150.008V255.832ZM145.668 261.264H155.86V263.728H145.668V261.264ZM150.148 262.244L151.744 262.916C150.652 266.892 148.524 271.848 146.368 274.508C146.116 273.752 145.528 272.66 145.08 272.016C147.068 269.776 149.196 265.548 150.148 262.244ZM154.236 253.732L156.056 255.776C153.368 256.84 149.448 257.596 146.2 258.044C146.06 257.456 145.724 256.588 145.416 256.028C148.552 255.496 152.136 254.684 154.236 253.732ZM152.5 264.988C153.2 265.576 155.748 268.208 156.308 268.852L154.768 270.952C154.096 269.72 152.164 267.088 151.296 266.052L152.5 264.988ZM175.908 262.608L178.288 263.056C177.784 265.604 176.804 268.18 175.712 269.832C175.236 269.468 174.2 268.936 173.584 268.656C174.732 267.144 175.488 264.848 175.908 262.608ZM176.496 265.044H184.868V267.2H175.488L176.496 265.044ZM173.584 269.944H185.316V272.156H173.584V269.944ZM178.988 265.912H181.452V269.104C181.452 272.128 180.724 276.384 175.292 279.38C174.9 278.848 174.116 278.064 173.528 277.616C178.596 275.124 178.988 271.428 178.988 269.048V265.912ZM180.752 271.68C181.564 272.24 184.224 274.592 184.812 275.208L183.3 277.28C182.46 276.188 180.276 273.78 179.324 272.884L180.752 271.68ZM175.124 253.48H177.7V259.136C177.7 260.004 177.84 260.312 178.568 260.312C179.184 260.312 181.788 260.312 182.46 260.312C183.104 260.312 184.168 260.256 184.672 260.116C184.756 260.816 184.812 261.768 184.896 262.356C184.42 262.524 183.44 262.552 182.544 262.552C181.844 262.552 179.016 262.552 178.456 262.552C175.796 262.552 175.124 261.6 175.124 259.108V253.48ZM186.1 254.264H197.02V256.336H186.1V254.264ZM196.18 254.264H196.712L197.216 254.124L198.784 255.16C197.272 257.428 194.808 259.752 192.456 261.152C192.12 260.676 191.42 259.92 190.972 259.528C193.016 258.352 195.2 256.308 196.18 254.712V254.264ZM187.276 259.248L188.844 257.624C191.28 258.66 194.528 260.424 196.208 261.684L194.528 263.504C192.96 262.272 189.768 260.424 187.276 259.248ZM185.596 263.224H197.356V265.408H185.596V263.224ZM196.88 263.224H197.244L197.608 263.112L199.232 263.532C198.7 265.324 198.028 267.368 197.356 268.656L195.424 268.068C195.984 266.92 196.544 265.072 196.88 263.56V263.224ZM191 263.868H193.38V277.672L191 276.552V263.868ZM191.98 269.748H198.308V271.96H191.98V269.748ZM188.536 271.008C189.908 275.992 192.82 276.86 196.012 276.86C196.544 276.86 198.728 276.86 199.484 276.86C199.176 277.392 198.868 278.428 198.784 279.044H195.844C191.812 279.044 188.62 277.784 186.94 271.624L188.536 271.008ZM186.744 267.06L189.152 267.144C188.928 272.604 188.116 276.692 185.68 279.492C185.288 279.128 184.224 278.344 183.664 278.036C186.044 275.656 186.632 271.82 186.744 267.06ZM176.86 255.608H184.616V257.708H176.86V255.608ZM202.424 267.872H213.624V269.776H202.424V267.872ZM201.5 271.232H214.38V273.248H201.5V271.232ZM201.612 255.048H214.296V257.036H201.612V255.048ZM206.848 259.416H209.004V265.408H206.848V259.416ZM204.44 262.664V264.708H211.328V262.664H204.44ZM202.396 260.928H213.484V266.444H202.396V260.928ZM206.736 265.492H209.2V269.664C209.2 272.8 208.416 276.72 203.012 279.324C202.648 278.792 201.92 278.036 201.332 277.588C206.176 275.488 206.736 272.016 206.736 269.608V265.492ZM206.848 274.76L208.192 273.22C209.956 274.256 212.364 275.88 213.54 276.944L212.14 278.708C211.02 277.616 208.668 275.908 206.848 274.76ZM203.992 253.424H206.316V258.24H209.732V253.424H212.168V259.892H203.992V253.424ZM216.284 264.316H226.84V266.556H216.284V264.316ZM216.312 269.888H226.868V272.156H216.312V269.888ZM216.172 275.572H227.316V277.98H216.172V275.572ZM217.432 253.368L219.84 253.984C218.664 258.128 216.76 262.328 214.688 265.044C214.296 264.596 213.288 263.728 212.728 263.364C214.744 260.928 216.396 257.12 217.432 253.368ZM217.992 258.66H227.148V261.04H217.992V279.296H215.612V261.18L217.936 258.66H217.992ZM221.24 259.752H223.62V276.804H221.24V259.752ZM220.4 254.488L222.668 253.732C223.424 254.908 224.208 256.476 224.516 257.54L222.108 258.436C221.828 257.372 221.1 255.72 220.4 254.488ZM232.3 258.884L234.484 259.304C233.812 262.412 232.58 265.324 230.928 267.172C230.592 266.78 229.752 265.996 229.248 265.66C230.76 264.036 231.796 261.544 232.3 258.884ZM229.668 268.348H242.408V270.672H229.668V268.348ZM229.78 256.28H242.24V258.632H229.78V256.28ZM237.816 259.052L239.972 259.444C239.328 262.356 238.152 265.016 236.556 266.752C236.192 266.388 235.352 265.66 234.848 265.324C236.304 263.812 237.284 261.516 237.816 259.052ZM231.964 262.468L233.252 261.18C234.148 261.852 235.268 262.86 235.772 263.56L234.428 265.016C233.952 264.288 232.888 263.224 231.964 262.468ZM237.368 262.748L238.88 261.6C239.972 262.664 241.344 264.204 242.016 265.156L240.42 266.5C239.804 265.492 238.46 263.896 237.368 262.748ZM244.284 264.316H254.84V266.556H244.284V264.316ZM244.312 269.888H254.868V272.156H244.312V269.888ZM244.172 275.572H255.316V277.98H244.172V275.572ZM245.432 253.452L247.896 254.04C246.72 258.184 244.872 262.384 242.856 265.128C242.436 264.68 241.428 263.812 240.868 263.42C242.828 260.984 244.452 257.176 245.432 253.452ZM245.992 258.66H255.148V261.04H245.992V279.296H243.612V261.18L245.936 258.66H245.992ZM249.24 259.752H251.62V276.804H249.24V259.752ZM234.148 253.984L236.612 253.34C237.172 254.292 237.788 255.552 238.068 256.392L235.492 257.148C235.24 256.308 234.652 254.964 234.148 253.984ZM248.4 254.488L250.696 253.732C251.452 254.908 252.208 256.476 252.544 257.54L250.108 258.436C249.828 257.372 249.1 255.72 248.4 254.488ZM232.076 272.1L234.26 272.52C233.7 274.536 232.72 276.552 231.628 277.868C231.208 277.56 230.256 277 229.696 276.748C230.788 275.544 231.6 273.808 232.076 272.1ZM238.264 272.688L240.224 271.988C241.148 273.472 242.128 275.404 242.52 276.664L240.448 277.476C240.056 276.188 239.132 274.172 238.264 272.688ZM235.072 266.472H237.564V279.268H235.072V266.472ZM265.816 261.348H282.588V263.784H265.816V261.348ZM274.328 268.124H282.112V270.476H274.328V268.124ZM263.94 275.936H283.428V278.4H263.94V275.936ZM273.096 262.328H275.644V277.56H273.096V262.328ZM267.02 266.948H269.428V277.448H267.02V266.948ZM263.324 256.42H283.4V258.8H263.324V256.42ZM261.868 256.42H264.388V264.848C264.388 269.3 263.8 275.544 259.936 279.436C259.544 278.904 258.564 277.98 258.032 277.644C261.532 274.032 261.868 268.852 261.868 264.82V256.42ZM257.556 259.78L259.488 258.828C260.468 260.452 261.392 262.608 261.672 264.008L259.6 265.1C259.32 263.7 258.452 261.46 257.556 259.78ZM257.22 269.72C258.564 269.132 260.44 268.18 262.4 267.2L263.016 269.272C261.364 270.28 259.628 271.288 258.06 272.184L257.22 269.72ZM270.772 253.9L273.432 253.34C273.936 254.46 274.524 255.888 274.776 256.812L272.032 257.484C271.808 256.532 271.248 255.02 270.772 253.9ZM297.148 258.408L298.828 256.952C301.432 257.876 304.988 259.388 306.864 260.508L305.072 262.132C303.336 261.04 299.808 259.416 297.148 258.408ZM294.488 260.396H308.712V262.384H296.84V274.872H294.488V260.396ZM307.76 260.396H310.168V272.52C310.168 273.668 309.916 274.228 309.132 274.592C308.376 274.928 307.2 274.928 305.408 274.928C305.324 274.34 305.016 273.472 304.736 272.912C305.912 272.968 306.976 272.94 307.312 272.94C307.676 272.94 307.76 272.828 307.76 272.52V260.396ZM294.656 254.432H308.348V256.448H294.656V254.432ZM295.916 264.428H308.6V266.332H295.916V264.428ZM295.916 268.46H308.6V270.448H295.916V268.46ZM301.068 261.292H303.336V274.788H301.068V261.292ZM307.424 254.432H308.04L308.572 254.292L310.168 255.58C308.236 257.372 305.436 259.22 302.86 260.368C302.552 259.92 301.908 259.22 301.516 258.856C303.728 257.904 306.248 256.224 307.424 254.908V254.432ZM286.536 254.6L288.524 253.396C289.812 254.74 291.38 256.504 292.164 257.652L290.148 259.108C289.392 257.932 287.796 255.972 286.536 254.6ZM285.668 259.864H291.716V262.02H285.668V259.864ZM290.96 272.408C292.584 276.132 296.084 276.608 301.432 276.636C304.372 276.636 308.712 276.468 311.708 276.216C311.344 276.748 310.98 277.98 310.84 278.708C308.096 278.876 304.54 278.932 301.376 278.932C294.852 278.932 291.268 278.12 289.196 273.192L290.96 272.408ZM290.876 266.78H291.492L291.94 266.724L293.228 267.2C292.276 273.276 289.952 277.308 286.76 279.408C286.424 278.904 285.556 277.98 285.052 277.616C288.048 275.768 290.12 272.24 290.876 267.2V266.78ZM286.116 269.272V267.34L287.208 266.78H291.688L291.66 268.88H287.796C287.096 268.88 286.34 269.048 286.116 269.272ZM286.116 269.272C285.948 268.712 285.444 267.536 285.192 267.032C285.64 266.92 286.088 266.724 286.592 266.164C287.46 265.324 290.12 261.628 291.072 260.116V260.032L291.8 259.724L293.48 260.508C292.136 262.412 289.588 265.94 287.992 267.76C287.992 267.76 286.116 268.656 286.116 269.272ZM325.148 258.408L326.828 256.952C329.432 257.876 332.988 259.388 334.864 260.508L333.072 262.132C331.336 261.04 327.808 259.416 325.148 258.408ZM322.488 260.396H336.712V262.384H324.84V274.872H322.488V260.396ZM335.76 260.396H338.168V272.52C338.168 273.668 337.916 274.228 337.132 274.592C336.376 274.928 335.2 274.928 333.408 274.928C333.324 274.34 333.016 273.472 332.736 272.912C333.912 272.968 334.976 272.94 335.312 272.94C335.676 272.94 335.76 272.828 335.76 272.52V260.396ZM322.656 254.432H336.348V256.448H322.656V254.432ZM323.916 264.428H336.6V266.332H323.916V264.428ZM323.916 268.46H336.6V270.448H323.916V268.46ZM329.068 261.292H331.336V274.788H329.068V261.292ZM335.424 254.432H336.04L336.572 254.292L338.168 255.58C336.236 257.372 333.436 259.22 330.86 260.368C330.552 259.92 329.908 259.22 329.516 258.856C331.728 257.904 334.248 256.224 335.424 254.908V254.432ZM314.536 254.6L316.524 253.396C317.812 254.74 319.38 256.504 320.164 257.652L318.148 259.108C317.392 257.932 315.796 255.972 314.536 254.6ZM313.668 259.864H319.716V262.02H313.668V259.864ZM318.96 272.408C320.584 276.132 324.084 276.608 329.432 276.636C332.372 276.636 336.712 276.468 339.708 276.216C339.344 276.748 338.98 277.98 338.84 278.708C336.096 278.876 332.54 278.932 329.376 278.932C322.852 278.932 319.268 278.12 317.196 273.192L318.96 272.408ZM318.876 266.78H319.492L319.94 266.724L321.228 267.2C320.276 273.276 317.952 277.308 314.76 279.408C314.424 278.904 313.556 277.98 313.052 277.616C316.048 275.768 318.12 272.24 318.876 267.2V266.78ZM314.116 269.272V267.34L315.208 266.78H319.688L319.66 268.88H315.796C315.096 268.88 314.34 269.048 314.116 269.272ZM314.116 269.272C313.948 268.712 313.444 267.536 313.192 267.032C313.64 266.92 314.088 266.724 314.592 266.164C315.46 265.324 318.12 261.628 319.072 260.116V260.032L319.8 259.724L321.48 260.508C320.136 262.412 317.588 265.94 315.992 267.76C315.992 267.76 314.116 268.656 314.116 269.272ZM342.06 256.896H366.784V259.388H342.06V256.896ZM348.892 266.948H361.884V269.188H348.892V266.948ZM360.96 262.188H363.564V276.3C363.564 277.728 363.284 278.484 362.248 278.904C361.24 279.324 359.672 279.324 357.32 279.324C357.208 278.596 356.844 277.476 356.48 276.776C358.16 276.86 359.84 276.832 360.344 276.832C360.82 276.804 360.96 276.664 360.96 276.272V262.188ZM351.02 253.368L353.736 253.984C351.832 260.116 348.472 266.332 343.208 270.056C342.816 269.44 341.976 268.516 341.472 268.012C346.372 264.68 349.564 258.8 351.02 253.368ZM348.752 271.624H361.884V273.864H348.752V271.624ZM348.724 262.188H361.632V264.54H348.724V262.188ZM347.296 262.188H349.956V269.636C349.956 272.856 349.424 277 346.568 279.548C346.232 278.988 345.196 277.868 344.692 277.504C347.044 275.32 347.296 272.24 347.296 269.608V262.188ZM372.328 260.536H380.28V262.524H372.328V260.536ZM372.328 265.212H380.28V267.144H372.328V265.212ZM372.328 270H380.28V272.016H372.328V270ZM384.34 266.64H394.952V268.908H384.34V266.64ZM373.756 255.916H378.292V257.96H373.756V255.916ZM382.408 254.796H393.132V257.008H382.408V254.796ZM382.212 271.932H395.456V274.256H382.212V271.932ZM387.84 263.924H390.36V279.268H387.84V263.924ZM375.604 261.544H377.424V270.784H375.604V261.544ZM392.348 254.796H394.728C394.728 254.796 394.7 255.412 394.672 255.72C394.504 260.312 394.252 262.16 393.636 262.86C393.244 263.364 392.74 263.588 392.04 263.644C391.452 263.728 390.304 263.728 389.156 263.672C389.1 263 388.876 262.104 388.54 261.516C389.576 261.6 390.472 261.628 390.864 261.628C391.228 261.628 391.452 261.6 391.648 261.348C391.984 260.956 392.18 259.388 392.348 255.132V254.796ZM384.144 264.148L386.384 264.596C385.824 267.172 384.872 269.748 383.752 271.4C383.304 271.092 382.296 270.588 381.736 270.336C382.912 268.796 383.724 266.472 384.144 264.148ZM373.42 253.34L375.828 253.872C374.792 257.708 373.084 261.376 371.068 263.756C370.676 263.336 369.668 262.524 369.136 262.188C371.096 260.06 372.608 256.756 373.42 253.34ZM371.32 260.536H373.476V267.956C373.476 271.456 373.14 276.3 371.124 279.408C370.732 279.072 369.752 278.456 369.248 278.232C371.152 275.292 371.32 271.12 371.32 267.956V260.536ZM379.552 260.536H381.764V276.664C381.764 277.812 381.512 278.512 380.756 278.904C379.972 279.296 378.824 279.324 376.976 279.324C376.892 278.708 376.5 277.7 376.192 277.084C377.48 277.14 378.684 277.14 379.048 277.112C379.412 277.112 379.552 277 379.552 276.636V260.536ZM386.132 255.524H388.512C388.092 259.5 387 262.664 382.968 264.456C382.688 263.896 382.072 263.056 381.54 262.664C384.956 261.236 385.768 258.632 386.132 255.524ZM377.648 255.916H378.18L378.516 255.804L380.056 256.784C379.44 258.548 378.376 260.676 377.536 262.02C377.088 261.684 376.332 261.236 375.856 261.012C376.528 259.752 377.284 257.708 377.648 256.336V255.916ZM408.084 272.072L407.328 270.252C409.652 269.412 410.912 268.012 410.912 266.108L410.52 263.588L412.06 265.884C411.64 266.332 411.08 266.5 410.492 266.5C409.232 266.5 408.14 265.716 408.14 264.288C408.14 262.86 409.26 262.048 410.548 262.048C412.284 262.048 413.208 263.42 413.208 265.548C413.208 268.628 411.248 271.064 408.084 272.072ZM123.492 306.8H137.268V308.928H123.492V306.8ZM123.044 311.588H137.8V313.8H123.044V311.588ZM131.948 307.472H134.3V319.848H131.948V307.472ZM126.32 307.584H128.616V312.792C128.616 314.556 127.888 318.224 124.836 320.296C124.472 319.82 123.66 319.092 123.1 318.728C125.732 317.132 126.32 314.276 126.32 312.792V307.584ZM120.104 299.38H127.608V301.172H120.104V299.38ZM133.04 299.38H140.6V301.172H133.04V299.38ZM139.564 295.516H142.168V317.132C142.168 318.588 141.888 319.372 140.964 319.82C140.04 320.268 138.64 320.324 136.484 320.296C136.4 319.596 136.036 318.364 135.672 317.664C137.1 317.72 138.528 317.72 138.976 317.692C139.424 317.692 139.564 317.524 139.564 317.104V295.516ZM120.328 295.516H129.26V305.176H120.328V303.216H126.768V297.476H120.328V295.516ZM140.88 295.516V297.476H133.964V303.272H140.88V305.232H131.444V295.516H140.88ZM118.76 295.516H121.364V320.38H118.76V295.516ZM147.656 296.412H150.092V303.664C150.092 308.088 149.672 314.752 147.096 319.12C146.676 318.644 145.612 317.832 145.052 317.58C147.404 313.52 147.656 307.752 147.656 303.664V296.412ZM157.316 294.62L159.332 296.524C156.28 297.476 151.996 298.12 148.384 298.428C148.272 297.868 147.936 296.972 147.656 296.412C151.072 296.02 155.02 295.376 157.316 294.62ZM161.852 299.688H171.4V302.152H161.852V299.688ZM162.132 294.424L164.792 294.788C164.036 300.332 162.664 305.54 160.368 308.928C159.976 308.424 158.94 307.444 158.352 307.024C160.452 304.084 161.572 299.352 162.132 294.424ZM163.084 301.872C164.344 308.844 166.948 315.172 171.596 318.028C170.952 318.532 170.056 319.624 169.608 320.352C164.792 316.908 162.328 310.16 160.928 302.264L163.084 301.872ZM167.872 299.996L170.112 301.144C169.076 309.964 166.22 317.132 160.172 320.352C159.752 319.68 158.912 318.7 158.24 318.14C164.26 315.34 166.864 308.648 167.872 299.996ZM148.692 299.8H158.8V306.968H148.692V304.784H156.42V301.956H148.692V299.8ZM150.484 315.2H158.156V317.356H150.484V315.2ZM149.42 309.236H158.828V318.56H156.476V311.392H151.716V319.092H149.42V309.236ZM188.452 305.848H191.168V316.18C191.168 317.216 191.364 317.384 192.372 317.384C192.82 317.384 194.92 317.384 195.536 317.384C196.6 317.384 196.768 316.656 196.88 312.456C197.468 312.932 198.616 313.408 199.344 313.576C199.064 318.504 198.392 319.876 195.76 319.876C195.144 319.876 192.568 319.876 191.98 319.876C189.18 319.876 188.452 319.008 188.452 316.208V305.848ZM173.976 304.224H198.868V306.8H173.976V304.224ZM176.468 296.468H196.404V299.016H176.468V296.468ZM180.808 306.212H183.636C183.188 312.428 182.012 317.552 175.18 320.296C174.872 319.652 174.116 318.672 173.528 318.168C179.688 315.872 180.444 311.448 180.808 306.212ZM216.62 308.116H219.28V316.404C219.28 317.272 219.448 317.412 220.428 317.412C220.876 317.412 222.92 317.412 223.508 317.412C224.46 317.412 224.6 316.88 224.712 313.38C225.272 313.828 226.42 314.248 227.148 314.444C226.868 318.784 226.14 319.932 223.732 319.932C223.144 319.932 220.652 319.932 220.092 319.932C217.292 319.932 216.62 319.092 216.62 316.404V308.116ZM202.032 306.212H226.812V308.788H202.032V306.212ZM206.652 298.484H224.712V301.032H206.652V298.484ZM209.116 308.2H211.888C211.356 313.744 209.956 318.112 203.292 320.52C202.984 319.82 202.228 318.756 201.612 318.224C207.688 316.32 208.668 312.68 209.116 308.2ZM206.932 294.928L209.62 295.46C208.752 298.708 207.296 302.656 205.364 305.148C204.748 304.728 203.684 304.168 203.04 303.916C204.916 301.592 206.288 297.812 206.932 294.928ZM213.064 294.368H215.752V307.024H213.064V294.368ZM234.232 299.66H253.664V302.236H234.232V299.66ZM233.028 307.892H252.628V310.44H233.028V307.892ZM229.892 316.936H255.036V319.512H229.892V316.936ZM241.064 294.368H243.836V318.196H241.064V294.368ZM234.708 294.788L237.424 295.404C236.22 299.744 234.204 303.944 231.992 306.632C231.46 306.184 230.284 305.4 229.612 305.036C231.852 302.6 233.672 298.736 234.708 294.788ZM270.492 296.272H283.176V298.064H270.492V296.272ZM274.552 299.464H282.224V301.032H274.552V299.464ZM272.564 302.936H282.952V304.504H272.564V302.936ZM276.764 300.64H279.06V303.776H276.764V300.64ZM274.944 294.284L276.96 294.592C276.064 298.456 274.272 301.62 271.668 303.636C271.416 303.244 270.716 302.432 270.296 302.04C272.62 300.332 274.216 297.588 274.944 294.284ZM279.872 305.624H281.888V314.78C281.888 315.732 281.72 316.208 281.048 316.488C280.404 316.796 279.424 316.796 277.912 316.796C277.828 316.292 277.576 315.592 277.324 315.116C278.276 315.144 279.228 315.144 279.508 315.144C279.788 315.144 279.872 315.06 279.872 314.78V305.624ZM273.488 305.624H280.88V307.22H273.488V305.624ZM272.564 305.624H274.552V309.544C274.552 311.728 274.272 314.696 272.788 316.656C272.424 316.348 271.528 315.732 271.08 315.536C272.424 313.744 272.564 311.364 272.564 309.488V305.624ZM274.272 312.26C275.952 311.924 278.248 311.364 280.656 310.804L280.824 312.288C278.752 313.016 276.764 313.66 275.028 314.192L274.272 312.26ZM274.888 308.928L275.868 307.612C277.128 308.228 278.612 308.956 279.396 309.544L278.416 311.056C277.604 310.44 276.092 309.516 274.888 308.928ZM258.424 295.488H264.584V297.868H260.552V320.296H258.424V295.488ZM263.8 295.488H264.192L264.528 295.404L266.04 296.272C265.368 298.568 264.472 301.424 263.66 303.664C265.368 306.016 265.76 308.032 265.76 309.74C265.76 311.308 265.452 312.512 264.696 313.1C264.332 313.408 263.884 313.576 263.352 313.632C262.848 313.688 262.26 313.688 261.672 313.688C261.644 313.1 261.448 312.232 261.14 311.644C261.644 311.7 262.092 311.7 262.456 311.7C262.736 311.672 263.016 311.588 263.212 311.448C263.548 311.14 263.716 310.384 263.688 309.516C263.688 308.032 263.324 306.128 261.644 303.916C262.484 301.368 263.352 298.008 263.8 296.132V295.488ZM266.096 295.46L268.084 294.844C268.868 296.216 269.764 298.008 270.184 299.184L268.112 299.912C267.72 298.708 266.824 296.832 266.096 295.46ZM265.62 300.808H269.54V303.076H265.62V300.808ZM269.372 313.436C270.744 317.188 273.516 317.804 277.436 317.804C279.228 317.804 281.832 317.72 283.652 317.524C283.316 318.056 283.036 319.176 282.924 319.848C281.3 319.96 279.2 319.988 277.352 319.988C272.452 319.988 269.484 319.036 267.72 314.136L269.372 313.436ZM268.868 307.556H269.708L270.1 307.472L271.024 307.892C270.24 314.052 268.224 318.224 265.34 320.436C265.032 319.932 264.276 319.092 263.8 318.728C266.488 316.796 268.252 313.128 268.868 307.948V307.556ZM266.404 310.16V308.088L267.496 307.556H269.904V309.74H267.916C267.384 309.74 266.628 309.936 266.404 310.16ZM266.404 310.16C266.264 309.628 265.816 308.592 265.564 308.116C265.984 308.004 266.32 307.836 266.628 307.248C267.076 306.52 268.448 302.46 268.924 300.948V300.864L269.54 300.612L271.08 301.032C270.38 302.908 268.98 306.912 268.056 308.704C268.056 308.704 266.404 309.572 266.404 310.16ZM296.308 303.132H310.476V305.456H296.308V303.132ZM295.216 297.56H311.316V299.912H295.216V297.56ZM295.3 308.144H311.204V310.496H295.3V308.144ZM301.964 294.34H304.568V304.448H301.964V294.34ZM305.576 305.092H308.18V317.412C308.18 318.784 307.872 319.512 306.92 319.904C305.94 320.296 304.484 320.324 302.3 320.324C302.188 319.624 301.796 318.56 301.432 317.86C303 317.916 304.54 317.916 304.988 317.888C305.436 317.888 305.576 317.776 305.576 317.356V305.092ZM296.756 312.428L298.94 311.196C300.2 312.596 301.768 314.584 302.496 315.872L300.144 317.272C299.5 315.984 298.016 313.884 296.756 312.428ZM287.628 296.16H294.712V314.892H287.628V312.512H292.248V298.54H287.628V296.16ZM287.74 304.224H293.424V306.576H287.74V304.224ZM286.368 296.16H288.832V317.272H286.368V296.16ZM327.556 302.768H333.296V304.812H327.556V302.768ZM325.428 310.916H334.92V312.764H325.428V310.916ZM316.16 295.46H323.944V297.588H316.16V295.46ZM323.244 295.46H323.692L324.112 295.376L325.764 296.188C323.692 300.976 319.156 304.14 314.536 305.764C314.2 305.204 313.556 304.28 313.108 303.832C317.308 302.544 321.62 299.576 323.244 295.88V295.46ZM328.312 294.452C330.272 298.708 334.36 302.04 339.568 303.412C339.008 303.916 338.336 304.84 337.972 305.484C332.568 303.776 328.452 300.08 326.184 295.096L328.312 294.452ZM333.38 294.564L335.312 295.908C333.968 297.14 332.316 298.4 331.056 299.268L329.516 298.064C330.72 297.168 332.428 295.656 333.38 294.564ZM336.852 297.364L338.784 298.708C337.44 299.94 335.732 301.2 334.444 302.04L332.848 300.836C334.108 299.94 335.872 298.428 336.852 297.364ZM317.392 302.88H324.196V309.488H321.816V304.924H317.392V302.88ZM316.496 307.472H318.68C318.4 309.628 318.036 312.26 317.7 313.94H315.46C315.852 312.204 316.244 309.544 316.496 307.472ZM321.816 311.952H324.224C324.224 311.952 324.196 312.596 324.14 312.932C323.832 316.796 323.496 318.532 322.796 319.232C322.236 319.792 321.648 319.988 320.752 320.044C319.996 320.1 318.54 320.1 317 320.016C316.972 319.316 316.664 318.392 316.244 317.776C317.728 317.888 319.212 317.916 319.744 317.916C320.248 317.916 320.556 317.888 320.78 317.664C321.256 317.272 321.564 315.788 321.816 312.288V311.952ZM326.576 302.768H328.816V304.924C328.816 306.856 328.228 309.068 325.736 310.58C325.4 310.104 324.532 309.236 324.056 308.928C326.24 307.724 326.576 306.212 326.576 304.868V302.768ZM334.36 310.916H334.836L335.256 310.832L336.712 311.364C334.836 316.516 330.44 319.12 325.148 320.38C324.924 319.82 324.42 318.952 324 318.448C328.732 317.552 332.848 315.2 334.36 311.224V310.916ZM317.476 307.472H322.656V309.488H317.112L317.476 307.472ZM316.664 311.952H322.488V313.94H316.272L316.664 311.952ZM315.348 299.268L316.86 297.868C318.092 298.54 319.632 299.576 320.388 300.332L318.792 301.928C318.092 301.144 316.58 300.024 315.348 299.268ZM332.092 302.768H334.304V307.08C334.304 307.752 334.36 307.948 334.752 307.948C335.06 307.948 336.208 307.948 336.516 307.948C336.908 307.948 337.58 307.92 337.916 307.836C337.944 308.368 338 309.152 338.084 309.656C337.72 309.796 337.132 309.796 336.572 309.796C336.18 309.796 334.864 309.796 334.472 309.796C332.484 309.796 332.092 309.012 332.092 307.052V302.768ZM325.232 314.136L326.492 312.652C329.824 314.416 334.5 317.048 336.88 318.672L335.536 320.408C333.268 318.784 328.648 316.012 325.232 314.136ZM350.096 307.92H359.644V316.404H350.096V314.22H357.152V310.132H350.096V307.92ZM348.948 307.92H351.412V318.056H348.948V307.92ZM344.104 299.576H351.552V301.452H344.104V299.576ZM357.04 299.576H364.6V301.452H357.04V299.576ZM363.452 295.516H366.14V317.02C366.14 318.644 365.776 319.428 364.768 319.876C363.704 320.324 362.024 320.352 359.504 320.352C359.42 319.624 358.972 318.364 358.58 317.664C360.344 317.748 362.22 317.72 362.752 317.692C363.284 317.692 363.452 317.524 363.452 316.992V295.516ZM344.3 295.516H353.232V305.652H344.3V303.58H350.74V297.588H344.3V295.516ZM364.88 295.516V297.588H357.992V303.636H364.88V305.68H355.472V295.516H364.88ZM342.816 295.516H345.448V320.38H342.816V295.516ZM381.26 311.056L380.616 300.752L380.504 297.056H384.284L384.172 300.752L383.528 311.056H381.26ZM382.408 318.196C381.204 318.196 380.308 317.356 380.308 316.096C380.308 314.808 381.232 313.94 382.408 313.94C383.556 313.94 384.48 314.808 384.48 316.096C384.48 317.356 383.556 318.196 382.408 318.196Z" fill="white"/>
<g clip-path="url(#clip0_1230_14387)">
<path d="M700.393 346.694L719.517 316.664L787.044 502.512H768.784L700.393 346.694Z" fill="url(#paint2_linear_1230_14387)"/>
<path d="M639.882 316.664H719.995L700.393 347.464H590.908L639.882 316.664Z" fill="url(#paint3_linear_1230_14387)"/>
<path d="M590.908 347.463H700.871L768.762 502.234H707.803L590.908 347.463Z" fill="url(#paint4_linear_1230_14387)"/>
<path fill-rule="evenodd" clip-rule="evenodd" d="M607.847 269.377C604.003 269.377 601.755 273.71 603.97 276.852L619.792 299.298C620.681 300.558 622.127 301.308 623.669 301.308H650.955L667.242 308.252C669.062 309.027 670.975 307.366 670.463 305.456L669.351 301.308H676.464C679.869 301.308 682.164 297.827 680.824 294.698L671.209 272.252C670.462 270.508 668.747 269.377 666.85 269.377H607.847Z" fill="url(#paint5_linear_1230_14387)"/>
<path fill-rule="evenodd" clip-rule="evenodd" d="M605.034 271.639C601.19 271.639 598.943 275.972 601.158 279.114L616.98 301.559C617.868 302.82 619.314 303.57 620.856 303.57H647.9C648.06 303.57 648.218 303.602 648.365 303.665L664.43 310.513C666.249 311.289 668.162 309.628 667.65 307.718L666.939 305.062C666.737 304.309 667.304 303.57 668.084 303.57H673.652C677.056 303.57 679.352 300.089 678.011 296.959L668.397 274.514C667.65 272.77 665.935 271.639 664.037 271.639H605.034Z" fill="url(#paint6_linear_1230_14387)" fill-opacity="0.95"/>
<path d="M660.681 286.046C662.734 288.325 662.814 290.917 660.86 291.835C658.905 292.754 655.656 291.65 653.603 289.371C651.549 287.092 651.469 284.5 653.424 283.581C655.378 282.663 658.627 283.766 660.681 286.046Z" fill="white"/>
<path d="M646.067 286.046C648.121 288.325 648.201 290.917 646.247 291.835C644.292 292.754 641.043 291.65 638.99 289.371C636.936 287.092 636.856 284.5 638.81 283.581C640.765 282.663 644.014 283.766 646.067 286.046Z" fill="white"/>
<path d="M630.485 286.046C632.539 288.325 632.619 290.917 630.665 291.835C628.71 292.754 625.461 291.65 623.407 289.371C621.354 287.092 621.274 284.5 623.228 283.581C625.183 282.663 628.432 283.766 630.485 286.046Z" fill="white"/>
<path d="M914.209 345.839L895.947 316.664L827.591 535.635L844.748 546.711L914.209 345.839Z" fill="url(#paint7_linear_1230_14387)"/>
<path d="M971.994 316.664H895.492L914.211 346.587H1018.76L971.994 316.664Z" fill="url(#paint8_linear_1230_14387)" fill-opacity="0.8"/>
<path d="M1018.76 346.586H913.754L845.861 540.077H887L1018.76 346.586Z" fill="url(#paint9_linear_1230_14387)"/>
<path d="M923.908 274.075C925.226 270.185 928.897 267.585 933.004 267.634L987.302 268.272C994.706 268.359 999.16 276.516 995.229 282.792L983.616 301.335C981.882 304.105 978.844 305.786 975.577 305.786H926.395C919.901 305.786 915.327 299.408 917.41 293.257L923.908 274.075Z" fill="#0051AF"/>
<path d="M926.627 276.761C927.93 272.867 931.591 270.254 935.696 270.286L988.513 270.696C995.92 270.754 1000.41 278.9 996.495 285.19L985.642 302.644C983.91 305.428 980.865 307.121 977.586 307.121H929.644C923.165 307.121 918.593 300.769 920.649 294.625L926.627 276.761Z" fill="url(#paint10_linear_1230_14387)"/>
<path opacity="0.8" d="M982.503 276.66H989.631L974.911 302.149L967.783 302.149L982.503 276.66Z" fill="white"/>
<path opacity="0.8" d="M964.695 287.584H971.427L963.593 302.149L956.861 302.149L964.695 287.584Z" fill="white"/>
<path opacity="0.8" d="M945.231 277.829C942.77 277.662 940.157 278.204 937.731 279.383C935.305 280.561 933.179 282.323 931.627 284.44C930.076 286.557 929.171 288.931 929.029 291.254C928.888 293.576 929.517 295.742 930.835 297.468C932.153 299.194 934.099 300.402 936.421 300.935C938.743 301.468 941.333 301.302 943.855 300.457C946.378 299.613 948.717 298.129 950.57 296.199C952.422 294.269 953.701 291.981 954.243 289.633L941.771 289.52L945.231 277.829Z" fill="white"/>
<path d="M948.39 276.165C951.511 276.374 954.176 277.713 955.839 279.905C957.501 282.097 958.035 284.978 957.33 287.955L944.943 287.788L948.39 276.165Z" fill="white"/>
<path d="M694.859 327.701L723.5 268.199H884.663L917.71 327.701H694.859Z" fill="url(#paint11_linear_1230_14387)" stroke="url(#paint12_linear_1230_14387)" stroke-width="0.797097"/>
<path d="M742.082 274.328H868.313L890.378 319.45H723.096L742.082 274.328Z" fill="url(#paint13_linear_1230_14387)"/>
<path d="M755.631 528.632L695.449 328.565H917.186L860.987 528.632H755.631Z" fill="url(#paint14_linear_1230_14387)" stroke="#BBFBFF" stroke-width="1.82065"/>
<path d="M729.766 303.041H882.168L890.891 319.449H723.096L729.766 303.041Z" fill="url(#paint15_linear_1230_14387)"/>
<path d="M876.522 238.949L899.613 284.584L890.89 319.964L867.799 274.329L876.522 238.949Z" fill="url(#paint16_linear_1230_14387)"/>
<path d="M738.492 236.387L713.861 288.174L723.098 319.452L742.084 274.33L738.492 236.387Z" fill="url(#paint17_linear_1230_14387)"/>
<g clip-path="url(#clip1_1230_14387)">
<path d="M683.499 210.255L684.604 211.331C694.827 221.214 748.663 271.584 755.671 278.137C756.159 278.596 756.421 278.84 756.421 278.84L767.04 242.486C767.04 242.486 732.788 210.915 707.445 187.644C706.479 186.788 705.025 186.582 703.803 187.151C699.04 189.356 687.701 195.857 683.468 205.658C683.232 206.208 683.016 206.763 682.826 207.332C682.482 208.366 682.728 209.475 683.499 210.255Z" fill="#252533"/>
<path d="M683.499 210.257L684.604 211.333L755.671 281.133V269.275L691.858 206.454L683.468 205.66C683.232 206.21 683.016 206.765 682.826 207.334C682.482 208.368 682.728 209.477 683.499 210.257Z" fill="#131516"/>
<path d="M696.305 198.751C690.386 204.415 683.846 207.916 681.704 206.572C679.556 205.228 682.618 199.545 688.537 193.882C694.455 188.218 700.995 184.717 703.138 186.061C705.285 187.405 702.223 193.088 696.305 198.751Z" fill="white"/>
<path d="M696.247 198.823C691.058 203.788 685.334 206.854 683.454 205.678C681.574 204.501 684.256 199.521 689.445 194.556C694.628 189.591 700.357 186.525 702.237 187.702C704.117 188.878 701.436 193.858 696.247 198.823Z" fill="#88999D"/>
<path d="M657.552 167.074C659.33 170.088 668.716 182.157 671.634 186.194C673.73 189.093 675.867 190.901 677.984 191.943C678.529 192.211 679.048 192.518 679.546 192.852L686.173 199.477L692.457 205.538L704.427 192.384L705.747 190.934L705.244 190.456L703.929 189.217L699.135 184.414C701.062 180.918 700.492 177.187 701.118 174.317C702.526 167.883 708.383 160.559 703.24 160.593C697.599 160.626 693.52 170.365 693.52 170.365C693.52 170.365 690.032 163.836 687.242 153.776C684.653 144.425 679.063 147.419 680.224 153.059C681.503 159.249 684.288 165.314 684.288 165.314L683.173 165.73C683.173 165.73 679.854 161.779 676.237 151.863C673.412 144.123 666.866 147.711 669.738 154.327C671.876 159.253 676.849 167.519 676.849 167.519L676.109 167.868C676.109 167.868 671.742 162.324 668.326 154.499C665.649 148.362 659.402 151.346 661.626 156.728C663.851 162.109 670.016 172.422 670.016 172.422L669.106 172.776C669.106 172.776 665.844 169.385 662.916 164.458C659.037 157.933 654.259 161.511 657.552 167.074Z" fill="#FFB287"/>
<path d="M686.174 199.476L692.457 205.537L704.428 192.382L705.244 190.455L705.558 189.713L704.314 188.651C704.314 188.651 704.181 188.857 703.929 189.216C702.306 191.493 695.678 199.849 686.205 199.438L686.174 199.476Z" fill="#ED8366"/>
<path opacity="0.64" d="M693.526 170.365C693.526 170.365 693.48 170.418 693.398 170.518C693.31 170.624 693.177 170.772 693.007 170.968C692.848 171.159 692.658 171.394 692.442 171.662C692.232 171.929 692 172.24 691.764 172.58C691.641 172.747 691.517 172.924 691.404 173.116C691.281 173.302 691.158 173.494 691.029 173.69C690.803 174.101 690.531 174.512 690.315 174.972C690.202 175.197 690.084 175.421 689.966 175.656C689.863 175.895 689.76 176.134 689.653 176.373L689.488 176.737L689.355 177.11L689.082 177.861C688.908 178.363 688.795 178.885 688.63 179.382C688.533 179.894 688.42 180.401 688.312 180.894C688.25 181.391 688.173 181.869 688.101 182.333C688.055 182.563 688.06 182.788 688.039 183.008C688.019 183.228 688.003 183.438 687.983 183.644C687.952 184.051 687.896 184.429 687.906 184.763C687.906 185.098 687.885 185.395 687.875 185.634C687.849 186.122 687.818 186.409 687.818 186.409C687.818 186.409 687.716 186.146 687.572 185.672C687.5 185.438 687.407 185.146 687.32 184.811C687.212 184.476 687.156 184.094 687.099 183.673C687.048 183.252 686.95 182.793 686.95 182.305C686.95 181.817 686.935 181.295 686.95 180.76C687.012 180.224 687.079 179.674 687.166 179.109C687.305 178.559 687.433 177.99 687.613 177.44C687.834 176.899 687.993 176.34 688.281 175.833C688.414 175.579 688.543 175.321 688.676 175.072C688.82 174.828 688.974 174.594 689.129 174.364C689.411 173.891 689.781 173.494 690.089 173.097C690.433 172.719 690.752 172.365 691.091 172.073C691.261 171.925 691.41 171.776 691.569 171.652C691.733 171.528 691.882 171.413 692.031 171.303C692.319 171.083 692.591 170.915 692.812 170.781C693.038 170.643 693.213 170.557 693.336 170.494C693.465 170.427 693.537 170.389 693.537 170.389L693.526 170.365Z" fill="#ED8366"/>
<path d="M706.307 188.935L703.24 186.112C703.25 186.141 703.009 186.146 703.019 186.174C703.62 188.317 700.99 193.072 695.78 197.832C689.512 203.558 683.666 207.776 681.523 206.432L684.914 209.255C687.062 210.599 693.735 206.801 699.654 201.137C705.572 195.473 707.915 190.384 706.312 188.935H706.307Z" fill="white"/>
<path d="M864.881 323.369C861.787 325.073 852.695 328.044 838.322 326.525L838.937 267.108L827.948 240.341L830.204 232.984C830.204 232.984 824.222 229.013 829.375 229.954C834.844 230.954 839.467 233.925 847.397 240.57C853.259 245.482 861.24 254.373 862.403 274.213C863.026 284.763 866.462 313.82 866.513 320.747C866.513 321.806 865.906 322.806 864.872 323.377L864.881 323.369Z" fill="#252533"/>
<path d="M840.758 329.306L846.065 329.343L843.108 261.725L840.622 327.787C840.587 328.343 840.639 328.854 840.767 329.306H840.758Z" fill="#272735"/>
<path d="M845.835 246.19L841.751 281.807L830.32 264.113L822.1 251.384L817.07 243.602C817.07 243.602 817.152 243.516 817.312 243.367C818.555 242.186 824.427 236.962 831.373 236.8C836.069 236.69 841.258 238.885 845.835 246.19Z" fill="#252533"/>
<path d="M810.524 245.465H792.131C768.915 245.465 756.158 264.9 756.158 286.516H847.971C847.971 264.9 833.74 245.465 810.524 245.465Z" fill="#252533"/>
<path d="M828.724 341.118H774.092V264.311C774.092 253.309 783.668 244.393 795.485 244.393H807.332C819.148 244.393 828.724 253.309 828.724 264.311V341.118Z" fill="white"/>
<path d="M782.907 260.562C782.907 260.562 782.521 330.998 785.219 340.565C787.885 350.022 776.613 342.995 776.613 342.995L777.985 249.488L782.907 260.562Z" fill="#CEBABA"/>
<path d="M820.095 260.565C820.095 260.565 820.48 331.001 817.783 340.568C815.117 350.025 826.388 342.998 826.388 342.998L825.017 251.726L820.095 260.565Z" fill="#CEBABA"/>
<path d="M811.47 327.922L804.066 269.262C804.38 269.028 804.667 268.746 804.909 268.416L808.546 263.441C810.118 261.293 809.337 258.356 806.871 257.136L806.769 257.089C803.414 255.429 799.391 255.429 796.036 257.089L795.934 257.136C793.473 258.356 792.692 261.293 794.259 263.441L797.896 268.416C798.174 268.794 798.502 269.105 798.867 269.358L791.479 327.922C791.413 328.324 791.551 328.73 791.854 329.027L800.449 337.403C801.004 337.943 801.934 337.943 802.489 337.403L811.084 329.027C811.387 328.735 811.526 328.324 811.459 327.922H811.47Z" fill="#CEBABA"/>
<path d="M801.483 239.622C786.276 239.622 769.903 251.164 789.117 268.748L801.483 256.106L813.849 268.748C833.064 251.16 816.691 239.622 801.483 239.622Z" fill="#CEBABA"/>
<path d="M808.621 259.323L804.978 264.298C803.298 266.598 799.656 266.598 797.976 264.298L794.338 259.323C792.766 257.18 793.547 254.238 796.008 253.018L796.111 252.97C799.466 251.311 803.488 251.311 806.843 252.97L806.946 253.018C809.407 254.238 810.188 257.18 808.621 259.323Z" fill="#F93E3E"/>
<path d="M808.621 259.323C808.621 259.323 804.999 254.941 801.402 254.941C797.806 254.941 794.338 259.323 794.338 259.323C792.766 257.18 793.547 254.238 796.008 253.018L796.111 252.97C799.466 251.311 803.488 251.311 806.843 252.97L806.946 253.018C809.407 254.238 810.188 257.18 808.621 259.323Z" fill="#BA3131"/>
<path d="M852.745 352.694L833.782 351.259C826.991 351.259 821.488 344.232 821.488 335.56L821.858 271.562H847.977L852.745 352.694Z" fill="#252533"/>
<path d="M781.334 271.076V335.48C781.334 344.152 775.061 351.179 767.318 351.179L751.027 352.614L756.165 271.076L758.862 257.62L781.334 271.076Z" fill="#252533"/>
<path d="M765.876 255.154C765.136 256.714 765.748 258.632 767.032 259.722L774.939 266.434L767.571 272.269C766.272 273.298 765.578 274.967 765.727 276.675C766.292 283.147 770.952 300.75 781.335 319.29L781.371 314.813L780.523 254.642C780.523 254.642 778.776 239.737 799.476 239.737C799.476 239.737 774.348 237.255 765.871 255.159L765.876 255.154Z" fill="#131516"/>
<path d="M834.783 272.272C836.037 273.3 836.705 274.965 836.561 276.677C836.021 283.149 830.535 302.417 821.498 319.293L821.462 311.754L822.279 254.64C822.279 254.64 822.433 253.282 822.099 251.383C821.677 249.015 820.501 245.815 817.311 243.366C818.554 242.184 824.426 236.96 831.372 236.798C829.358 243.499 829.25 245.432 831.557 247.733C833.432 249.608 835.164 252.401 836.422 255.157C837.136 256.716 836.546 258.634 835.307 259.725L830.319 264.111L827.673 266.436L834.783 272.272Z" fill="#131516"/>
<path d="M756.961 246.186L761.045 281.803L772.476 264.109L780.696 251.381L785.726 243.598C785.726 243.598 785.644 243.512 785.485 243.364C784.241 242.182 778.369 236.959 771.423 236.796C766.727 236.686 761.538 238.881 756.961 246.186Z" fill="#252533"/>
<path d="M768.012 272.272C766.758 273.3 766.09 274.965 766.234 276.677C766.773 283.149 772.26 302.417 781.297 319.293L781.333 311.754L780.516 254.64C780.516 254.64 780.362 253.282 780.696 251.383C781.117 249.015 782.294 245.815 785.484 243.366C784.241 242.184 778.369 236.96 771.423 236.798C773.437 243.499 773.545 245.432 771.238 247.733C769.363 249.608 767.631 252.401 766.373 255.157C765.659 256.716 766.249 258.634 767.487 259.725L772.476 264.111L775.122 266.436L768.012 272.272Z" fill="#131516"/>
<path d="M833.579 268.374L826.725 262.638L834.082 256.042C835.279 254.97 835.926 253.047 835.156 251.55C823.848 229.561 803.889 234.952 803.889 234.952C821.536 235.779 821.521 251.043 821.521 251.043L821.454 313.859C829.895 296.165 834.765 279.074 835.289 272.707C835.428 271.024 834.781 269.383 833.573 268.374H833.579Z" fill="#323244"/>
<path d="M769.202 268.374L776.056 262.638L768.699 256.042C767.502 254.97 766.855 253.047 767.625 251.55C778.933 229.561 798.892 234.952 798.892 234.952C781.245 235.779 781.26 251.043 781.26 251.043L781.327 313.859C772.886 296.165 768.016 279.074 767.492 272.707C767.353 271.024 768 269.383 769.208 268.374H769.202Z" fill="#323244"/>
<path d="M801.478 234.388C785.68 234.388 768.664 246.38 788.629 264.653L801.478 251.517L814.327 264.653C834.291 246.38 817.281 234.388 801.478 234.388Z" fill="white"/>
<path d="M787.562 241.467C787.562 247.03 793.393 251.536 800.96 251.536C808.528 251.536 814.662 247.03 814.662 241.467V229.709H787.557V241.467H787.562Z" fill="#FFB287"/>
<path d="M787.562 238.424C787.562 243.04 793.393 246.78 800.96 246.78C808.528 246.78 814.662 243.04 814.662 238.424V220.782H787.557V238.424H787.562Z" fill="#F58D6C"/>
<path d="M811.09 326.345L802.495 334.725C801.94 335.266 801.01 335.266 800.455 334.725L791.86 326.345C791.557 326.053 791.418 325.646 791.485 325.24L798.375 268.527L798.781 265.188L798.93 263.964H804.026L804.175 265.188L804.678 269.35C804.678 269.35 804.684 269.355 804.684 269.36L811.465 325.24C811.532 325.646 811.393 326.053 811.09 326.345Z" fill="#F93E3E"/>
<path d="M775.08 157.584C775.224 157.871 775.357 158.182 775.486 158.517C775.322 158.211 775.188 157.9 775.08 157.584Z" fill="#993E39"/>
<path opacity="0.48" d="M804.686 269.357C804.686 269.357 804.686 269.352 804.681 269.347C804.234 267.941 803.304 266.817 801.531 266.817C800.057 266.817 799.029 267.319 798.377 268.524L798.783 265.186C798.783 265.186 800.247 266.224 801.444 266.224C802.641 266.224 804.177 265.186 804.177 265.186L804.686 269.357Z" fill="#BA3131"/>
<g clip-path="url(#clip2_1230_14387)">
<path d="M897.907 156.074C897.907 168.69 895.435 181.183 890.631 192.838C885.827 204.494 878.786 215.084 869.91 224.005C861.034 232.925 850.496 240.001 838.899 244.828C827.302 249.656 814.873 252.14 802.321 252.139C789.769 252.14 777.339 249.656 765.743 244.828C754.146 240.001 743.609 232.925 734.733 224.005C725.857 215.084 718.817 204.494 714.013 192.838C709.21 181.183 706.738 168.69 706.738 156.074C706.738 143.458 709.21 130.966 714.013 119.309C718.816 107.653 725.857 97.0623 734.732 88.141C743.608 79.2196 754.145 72.1428 765.742 67.3144C777.339 62.4859 789.768 60.0004 802.321 60C814.874 60 827.303 62.4849 838.901 67.3131C850.498 72.1414 861.035 79.2183 869.911 88.1397C878.787 97.0611 885.828 107.652 890.632 119.309C895.435 130.965 897.907 143.458 897.907 156.074Z" fill="white"/>
<path d="M761.551 159.076V159.035C761.682 158.723 761.744 158.386 761.735 158.047C761.739 157.692 761.673 157.34 761.541 157.011C761.409 156.682 761.214 156.384 760.967 156.132C760.72 155.88 760.426 155.68 760.103 155.544C759.779 155.408 759.432 155.339 759.081 155.34H709.392C709.044 155.339 708.698 155.407 708.376 155.541C708.054 155.675 707.761 155.873 707.514 156.123C707.267 156.372 707.072 156.668 706.939 156.994C706.806 157.32 706.737 157.67 706.738 158.023V158.111C707.378 181.598 716.45 204.044 732.255 221.25C732.274 221.267 732.295 221.281 732.318 221.291C732.562 221.548 732.855 221.753 733.179 221.893C733.503 222.032 733.851 222.104 734.203 222.103C734.731 222.103 735.246 221.945 735.685 221.65C736.124 221.354 736.467 220.934 736.67 220.441L761.551 159.076ZM845.855 238.799C845.832 238.772 845.82 238.737 845.822 238.701L815.846 164.754C815.821 164.714 815.806 164.669 815.803 164.622C814.719 161.892 812.853 159.554 810.444 157.908C808.035 156.263 805.195 155.386 802.289 155.39C799.563 155.388 796.891 156.161 794.579 157.623C792.267 159.085 790.408 161.176 789.214 163.657L758.767 238.721C758.636 239.051 758.57 239.404 758.573 239.76C758.577 240.232 758.703 240.694 758.937 241.101C759.172 241.508 759.507 241.846 759.91 242.081C759.93 242.122 759.967 242.122 760.027 242.166C773.174 248.739 787.643 252.15 802.306 252.135C816.967 252.158 831.436 248.749 844.581 242.176C844.608 242.165 844.631 242.146 844.648 242.122C845.075 241.897 845.431 241.556 845.678 241.138C845.925 240.72 846.052 240.24 846.046 239.753C846.046 239.418 845.984 239.087 845.861 238.776L845.855 238.799ZM897.907 158.131C897.897 158.107 897.889 158.081 897.887 158.054C897.889 157.699 897.823 157.347 897.69 157.019C897.558 156.691 897.363 156.392 897.117 156.14C896.87 155.889 896.577 155.689 896.253 155.553C895.93 155.417 895.583 155.346 895.233 155.346H845.544C845.194 155.346 844.848 155.417 844.525 155.553C844.202 155.689 843.909 155.889 843.663 156.141C843.417 156.393 843.222 156.692 843.091 157.02C842.959 157.348 842.893 157.7 842.897 158.054C842.891 158.41 842.961 158.763 843.104 159.089L867.969 220.441C868.162 220.935 868.498 221.357 868.933 221.653C869.368 221.95 869.881 222.107 870.405 222.103C870.751 222.106 871.094 222.039 871.413 221.906C871.733 221.773 872.023 221.577 872.267 221.328C872.297 221.297 872.332 221.271 872.371 221.25C888.163 204.043 897.239 181.61 897.907 158.131Z" fill="#0C70C3"/>
<path d="M815.96 68.5413H816C816.08 84.7884 819.155 100.878 825.065 115.983L829.658 127.343C829.826 127.744 830.086 128.099 830.416 128.379C830.746 128.659 831.136 128.856 831.556 128.953H831.583C831.663 128.963 831.742 128.979 831.82 129.001H831.85H832.097H890.313C891.019 129.001 891.696 128.719 892.197 128.215C892.698 127.712 892.982 127.029 892.987 126.314C892.986 126.031 892.936 125.75 892.84 125.485V125.461C887.324 109.081 877.574 94.495 864.605 83.2205C851.636 71.9461 835.92 64.3944 819.092 61.3506C819.051 61.3465 819.009 61.3465 818.968 61.3506C818.858 61.3405 818.738 61.3238 818.634 61.3238C817.93 61.3237 817.254 61.6046 816.754 62.1057C816.253 62.6068 815.968 63.2878 815.96 64.0005V68.5413Z" fill="#0C70C3"/>
<path d="M772.518 129.001H714.32L714.316 129.011C713.612 129.006 712.939 128.719 712.442 128.214C711.945 127.71 711.665 127.027 711.662 126.314C711.662 126.033 711.705 125.753 711.789 125.485C711.795 125.463 711.795 125.44 711.789 125.418C717.312 109.049 727.062 94.4761 740.026 83.2098C752.99 71.9436 768.696 64.3948 785.514 61.3473C785.557 61.3426 785.601 61.3426 785.644 61.3473C785.761 61.3372 785.868 61.3205 785.978 61.3205C786.328 61.3165 786.675 61.3827 786.999 61.5155C787.323 61.6482 787.619 61.8444 787.867 62.0933C788.116 62.3423 788.313 62.639 788.448 62.9657C788.583 63.2925 788.652 63.6431 788.652 63.9972V68.538C788.554 84.7761 785.475 100.854 779.571 115.953L774.972 127.333C774.785 127.793 774.476 128.192 774.08 128.486C773.684 128.781 773.215 128.959 772.726 129.001H772.518Z" fill="#0C70C3"/>
</g>
<g opacity="0.2">
<path fill-rule="evenodd" clip-rule="evenodd" d="M786.928 235.571C839.718 235.571 882.513 192.559 882.513 139.502C882.513 118.241 875.641 98.5932 864.009 82.6797C884.742 100.302 897.907 126.64 897.907 156.068C897.907 209.126 855.112 252.137 802.323 252.137C770.686 252.137 742.64 236.69 725.242 212.89C741.89 227.04 763.418 235.571 786.928 235.571Z" fill="black"/>
</g>
<path style="mix-blend-mode:overlay" d="M708.395 141.919C716.048 89.3482 761.276 52.6424 816.092 60.7307C869.307 67.352 903.729 117.352 896.079 169.923C888.426 222.494 840.209 258.843 788.382 251.112C736.556 243.377 700.745 194.491 708.395 141.919Z" fill="url(#paint18_radial_1230_14387)"/>
</g>
<g style="mix-blend-mode:screen">
<path d="M649.17 87.3105H961.108L890.709 319.14H723.21L649.17 87.3105Z" fill="url(#paint19_linear_1230_14387)"/>
</g>
<g style="mix-blend-mode:darken">
<ellipse cx="953.217" cy="331.276" rx="23.6684" ry="3.6413" fill="black" fill-opacity="0.1"/>
</g>
<g style="mix-blend-mode:darken">
<ellipse cx="656.452" cy="331.276" rx="23.6684" ry="3.6413" fill="black" fill-opacity="0.1"/>
</g>
</g>
<rect x="592" y="183" width="6" height="6" transform="rotate(-180 592 183)" fill="#15FFFF"/>
<rect x="592" y="173" width="6" height="6" transform="rotate(-180 592 173)" fill="#C8FCFF"/>
<rect x="582" y="183" width="6" height="6" transform="rotate(-180 582 183)" fill="#69F6FF"/>
<defs>
<filter id="filter0_d_1230_14387" x="0" y="0" width="1240" height="508" filterUnits="userSpaceOnUse" color-interpolation-filters="sRGB">
<feFlood flood-opacity="0" result="BackgroundImageFix"/>
<feColorMatrix in="SourceAlpha" type="matrix" values="0 0 0 0 0 0 0 0 0 0 0 0 0 0 0 0 0 0 127 0" result="hardAlpha"/>
<feOffset/>
<feGaussianBlur stdDeviation="10"/>
<feComposite in2="hardAlpha" operator="out"/>
<feColorMatrix type="matrix" values="0 0 0 0 0 0 0 0 0 0.945274 0 0 0 0 1 0 0 0 0.64 0"/>
<feBlend mode="normal" in2="BackgroundImageFix" result="effect1_dropShadow_1230_14387"/>
<feBlend mode="normal" in="SourceGraphic" in2="effect1_dropShadow_1230_14387" result="shape"/>
</filter>
<linearGradient id="paint0_linear_1230_14387" x1="245.5" y1="409.168" x2="62.7409" y2="-3.50051" gradientUnits="userSpaceOnUse">
<stop stop-color="#024FC3"/>
<stop offset="1" stop-color="#0099DB"/>
</linearGradient>
<linearGradient id="paint1_linear_1230_14387" x1="1369.99" y1="631.648" x2="257.735" y2="-454.152" gradientUnits="userSpaceOnUse">
<stop stop-color="#00F9FF"/>
<stop offset="0.135" stop-color="white"/>
<stop offset="0.33" stop-color="#61FBFF"/>
<stop offset="0.51" stop-color="#73FCFF"/>
<stop offset="1" stop-color="white"/>
</linearGradient>
<linearGradient id="paint2_linear_1230_14387" x1="716.733" y1="316.664" x2="752.163" y2="499.403" gradientUnits="userSpaceOnUse">
<stop stop-color="#E89900"/>
<stop offset="0.635" stop-color="#DE9B18" stop-opacity="0.53"/>
<stop offset="1" stop-color="#F2FEFF"/>
</linearGradient>
<linearGradient id="paint3_linear_1230_14387" x1="590.908" y1="347.464" x2="703.97" y2="297.653" gradientUnits="userSpaceOnUse">
<stop stop-color="#FFA439"/>
<stop offset="1" stop-color="#FFE0A5"/>
</linearGradient>
<linearGradient id="paint4_linear_1230_14387" x1="643.977" y1="347.463" x2="666.459" y2="508.073" gradientUnits="userSpaceOnUse">
<stop stop-color="#FFC14A"/>
<stop offset="1" stop-color="#F2FEFF"/>
</linearGradient>
<linearGradient id="paint5_linear_1230_14387" x1="671.478" y1="309.9" x2="652.02" y2="252.929" gradientUnits="userSpaceOnUse">
<stop stop-color="#BB4300"/>
<stop offset="1" stop-color="#F87B00" stop-opacity="0.79"/>
</linearGradient>
<linearGradient id="paint6_linear_1230_14387" x1="678.4" y1="277.036" x2="641.257" y2="337.331" gradientUnits="userSpaceOnUse">
<stop stop-color="#FFB55D"/>
<stop offset="1" stop-color="#FFDB1F"/>
</linearGradient>
<linearGradient id="paint7_linear_1230_14387" x1="898.605" y1="316.664" x2="760.626" y2="402.532" gradientUnits="userSpaceOnUse">
<stop stop-color="#26C8DE"/>
<stop offset="0.3714" stop-color="#38BFD5"/>
<stop offset="1" stop-color="#F4FDFF"/>
</linearGradient>
<linearGradient id="paint8_linear_1230_14387" x1="1018.76" y1="346.587" x2="910.198" y2="299.574" gradientUnits="userSpaceOnUse">
<stop stop-color="#5EBEFF"/>
<stop offset="1" stop-color="#61FBFF"/>
</linearGradient>
<linearGradient id="paint9_linear_1230_14387" x1="884.999" y1="537.986" x2="905.526" y2="370.464" gradientUnits="userSpaceOnUse">
<stop stop-color="#F2FEFF"/>
<stop offset="1" stop-color="#02D9E7"/>
</linearGradient>
<linearGradient id="paint10_linear_1230_14387" x1="944.118" y1="303.057" x2="990.089" y2="247.905" gradientUnits="userSpaceOnUse">
<stop stop-color="#00B3FF"/>
<stop offset="1" stop-color="#36FFFF"/>
</linearGradient>
<linearGradient id="paint11_linear_1230_14387" x1="1045.16" y1="208.384" x2="671.345" y2="262.004" gradientUnits="userSpaceOnUse">
<stop stop-color="white"/>
<stop offset="1" stop-color="#0073DD"/>
</linearGradient>
<linearGradient id="paint12_linear_1230_14387" x1="913.066" y1="272.288" x2="797.88" y2="327.503" gradientUnits="userSpaceOnUse">
<stop stop-color="#7CFFE7"/>
<stop offset="1" stop-color="#9CFFE7"/>
</linearGradient>
<linearGradient id="paint13_linear_1230_14387" x1="887.116" y1="274.328" x2="726.509" y2="290.462" gradientUnits="userSpaceOnUse">
<stop stop-color="#0F87E1"/>
<stop offset="1" stop-color="#005083"/>
</linearGradient>
<linearGradient id="paint14_linear_1230_14387" x1="674.659" y1="327.637" x2="838.005" y2="380.452" gradientUnits="userSpaceOnUse">
<stop stop-color="#59D7FF"/>
<stop offset="1" stop-color="#0164D9"/>
<stop offset="1.0001" stop-color="#007DF1"/>
</linearGradient>
<linearGradient id="paint15_linear_1230_14387" x1="803.658" y1="303.041" x2="803.658" y2="319.449" gradientUnits="userSpaceOnUse">
<stop stop-color="#004570" stop-opacity="0"/>
<stop offset="1" stop-color="#00609F" stop-opacity="0.41"/>
</linearGradient>
<linearGradient id="paint16_linear_1230_14387" x1="889.864" y1="267.15" x2="880.127" y2="297.92" gradientUnits="userSpaceOnUse">
<stop stop-color="white" stop-opacity="0"/>
<stop offset="1" stop-color="white" stop-opacity="0.5"/>
</linearGradient>
<linearGradient id="paint17_linear_1230_14387" x1="719.506" y1="266.639" x2="733.856" y2="297.925" gradientUnits="userSpaceOnUse">
<stop stop-color="white" stop-opacity="0"/>
<stop offset="1" stop-color="white" stop-opacity="0.5"/>
</linearGradient>
<radialGradient id="paint18_radial_1230_14387" cx="0" cy="0" r="1" gradientUnits="userSpaceOnUse" gradientTransform="translate(745.054 78.5937) rotate(57.5638) scale(149.486 193.556)">
<stop stop-color="white"/>
<stop offset="0.655" stop-color="#007AEB" stop-opacity="0.6"/>
<stop offset="1" stop-color="#0055A3" stop-opacity="0.6"/>
</radialGradient>
<linearGradient id="paint19_linear_1230_14387" x1="824.503" y1="178.343" x2="828.504" y2="339.773" gradientUnits="userSpaceOnUse">
<stop stop-color="#BDE7FF" stop-opacity="0"/>
<stop offset="0.807731" stop-color="#27A4FF" stop-opacity="0.3"/>
<stop offset="1" stop-color="#2287FF" stop-opacity="0.77"/>
</linearGradient>
<clipPath id="clip0_1230_14387">
<rect width="481.184" height="325" fill="white" transform="translate(552.408 60)"/>
</clipPath>
<clipPath id="clip1_1230_14387">
<rect width="241.174" height="259.451" fill="white" transform="translate(656.451 60)"/>
</clipPath>
<clipPath id="clip2_1230_14387">
<rect width="191.169" height="192.139" fill="white" transform="translate(706.738 60)"/>
</clipPath>
</defs>
</svg>
