<svg width="1200" height="468" viewBox="0 0 1200 468" fill="none" xmlns="http://www.w3.org/2000/svg">
<path d="M1 427.671V40.3296L40.4136 1H1159.09L1199 40.3332V427.671L1159.59 467L40.4136 467L1 427.671Z" fill="url(#paint0_linear_1230_14387)" stroke="url(#paint1_linear_1230_14387)" stroke-width="2"/>
<path d="M99.0002 120.056H141.816V125.432H99.0002V120.056ZM111.192 137.336H132.696V142.136H111.192V137.336ZM130.824 129.224H136.44V153.08C136.44 155.912 135.912 157.496 133.944 158.408C132.024 159.272 129.288 159.32 125.4 159.32C125.16 157.736 124.392 155.288 123.624 153.8C126.12 153.944 128.952 153.896 129.768 153.896C130.536 153.896 130.824 153.656 130.824 152.984V129.224ZM113.88 114.2L119.832 115.544C116.52 126.152 110.808 136.952 101.736 143.336C100.872 142.04 99.0482 139.976 97.8962 138.872C106.2 133.4 111.528 123.272 113.88 114.2ZM111.048 145.256H132.696V150.056H111.048V145.256ZM110.856 129.224H132.12V134.312H110.856V129.224ZM107.688 129.224H113.496V142.088C113.496 147.848 112.536 155.336 107.352 159.704C106.584 158.504 104.328 156.056 103.176 155.24C107.352 151.64 107.688 146.504 107.688 141.992V129.224ZM161.352 137.384H177.576V152.504H161.352V147.8H172.2V142.088H161.352V137.384ZM158.904 137.384H164.232V155.24H158.904V137.384ZM151.032 123.032H163.08V126.968H151.032V123.032ZM173.304 123.032H185.448V126.968H173.304V123.032ZM183.048 116.072H188.856V152.408C188.856 155.672 188.184 157.304 186.216 158.264C184.2 159.224 181.176 159.32 176.76 159.32C176.568 157.688 175.608 154.952 174.792 153.464C177.576 153.608 180.888 153.56 181.8 153.56C182.712 153.56 183.048 153.224 183.048 152.36V116.072ZM151.512 116.072H166.68V134.072H151.512V129.656H161.304V120.488H151.512V116.072ZM186.168 116.072V120.44H175.416V129.752H186.168V134.12H169.944V116.072H186.168ZM148.2 116.072H153.912V159.32H148.2V116.072ZM201.768 125.864V128.168H208.584V125.864H201.768ZM201.768 119.96V122.216H208.584V119.96H201.768ZM196.68 116.12H213.912V132.056H196.68V116.12ZM194.424 134.792H216.072V139.016H194.424V134.792ZM215.88 116.264H238.008V120.296H215.88V116.264ZM203.4 136.136H208.2V155.432L203.4 152.648V136.136ZM205.896 142.904H215.208V147.032H205.896V142.904ZM225.144 117.224L230.376 118.376C229.224 121.064 227.976 123.944 226.968 125.816L222.888 124.76C223.752 122.6 224.664 119.48 225.144 117.224ZM222.504 132.68V134.936H231.24V132.68H222.504ZM222.504 138.584V140.888H231.24V138.584H222.504ZM222.504 126.728V128.984H231.24V126.728H222.504ZM217.368 122.84H236.568V144.824H217.368V122.84ZM221.256 145.16L226.008 146.6C223.944 149.336 220.536 152.072 217.56 153.704C216.744 152.792 214.92 151.112 213.864 150.344C216.744 149.096 219.624 147.128 221.256 145.16ZM196.632 140.888H201.24C201 148.232 200.28 155.288 196.632 159.608C195.96 158.408 194.424 156.584 193.272 155.72C196.008 152.36 196.488 146.696 196.632 140.888ZM200.472 144.92C203.16 152.984 209.16 153.8 218.952 153.848C222.168 153.848 235.416 153.848 239.352 153.656C238.584 154.76 237.768 156.968 237.48 158.408H218.952C207.048 158.408 200.472 156.776 197.064 145.928L200.472 144.92ZM228.072 146.888L232.008 144.824C234.6 146.504 237.576 149.096 239.064 150.92L234.936 153.368C233.448 151.448 230.472 148.664 228.072 146.888ZM260.499 131.672V135.704H268.563V131.672H260.499ZM255.555 127.208H273.843V140.168H255.555V127.208ZM253.491 119.72H275.523V124.76H253.491V119.72ZM276.051 126.488H297.555V131.624H276.051V126.488ZM285.507 134.072H290.451V152.36C290.451 153.176 290.499 153.704 290.643 153.896C290.835 154.04 291.075 154.136 291.363 154.136C291.651 154.136 292.227 154.136 292.611 154.136C292.899 154.136 293.235 154.088 293.427 153.944C293.667 153.848 293.811 153.416 293.907 152.552C294.003 151.736 294.051 149.672 294.051 147.224C295.107 148.184 297.075 149.144 298.515 149.624C298.419 151.928 298.179 154.472 297.843 155.576C297.459 156.728 296.883 157.448 296.019 157.832C295.251 158.312 294.051 158.408 293.139 158.408C292.275 158.408 290.883 158.408 290.115 158.408C288.963 158.408 287.571 158.072 286.755 157.304C285.891 156.488 285.507 155.48 285.507 152.12V134.072ZM282.243 114.344H287.667C287.523 130.184 287.187 148.712 276.099 159.464C275.235 158.216 273.555 156.728 272.067 155.864C282.579 146.216 282.147 129.032 282.243 114.344ZM262.467 138.824H267.555V153.8C267.555 156.056 267.219 157.4 265.731 158.216C264.243 158.936 262.371 159.032 259.779 159.032C259.587 157.592 258.867 155.576 258.195 154.28C259.683 154.328 261.267 154.328 261.795 154.28C262.323 154.28 262.467 154.136 262.467 153.656V138.824ZM256.707 141.512L261.363 142.52C260.307 147.272 258.531 152.264 256.515 155.432C255.651 154.664 253.683 153.272 252.627 152.696C254.547 149.912 255.891 145.64 256.707 141.512ZM268.275 142.76L272.259 140.936C273.795 143.624 275.283 147.128 275.811 149.48L271.587 151.496C271.155 149.096 269.763 145.448 268.275 142.76ZM287.907 118.088L291.651 115.928C293.571 118.088 295.827 121.208 296.739 123.272L292.803 125.72C291.939 123.656 289.827 120.44 287.907 118.088ZM260.787 115.304L266.067 114.152C267.075 116.168 268.131 118.856 268.563 120.584L262.995 121.88C262.659 120.152 261.699 117.368 260.787 115.304ZM300.531 138.632C304.947 137.72 311.571 136.136 317.715 134.504L318.387 139.832C312.819 141.368 306.723 142.952 302.019 144.152L300.531 138.632ZM301.107 123.368H317.907V128.744H301.107V123.368ZM307.107 114.248H312.723V152.888C312.723 155.624 312.195 157.064 310.611 157.928C308.979 158.792 306.675 158.936 303.267 158.936C303.075 157.496 302.355 155.144 301.683 153.704C303.555 153.8 305.571 153.752 306.195 153.752C306.867 153.752 307.107 153.512 307.107 152.84V114.248ZM318.435 127.016L344.691 124.472L345.267 129.848L319.011 132.536L318.435 127.016ZM331.539 117.56L335.955 114.728C338.067 116.792 340.995 119.768 342.435 121.688L337.779 124.904C336.483 122.936 333.651 119.768 331.539 117.56ZM323.859 114.488H329.763C330.099 135.272 332.979 151.112 339.267 152.024C340.371 152.168 340.995 149.816 341.283 144.632C342.435 145.88 344.979 147.464 346.131 147.992C344.835 156.968 342.243 159.176 339.555 158.936C327.747 157.736 324.723 140.648 323.859 114.488ZM338.451 131.72L343.203 134.6C338.835 144.152 330.291 153.32 320.931 157.736C319.875 156.248 317.955 154.424 316.323 153.272C326.067 149.48 334.467 140.792 338.451 131.72ZM374.163 134.36H380.115V150.968C380.115 152.84 380.403 153.08 381.939 153.08C382.611 153.08 385.443 153.08 386.307 153.08C387.939 153.08 388.227 151.88 388.419 144.92C389.667 145.928 392.211 146.936 393.747 147.32C393.171 156.008 391.731 158.504 386.835 158.504C385.731 158.504 382.083 158.504 381.027 158.504C375.555 158.504 374.163 156.632 374.163 151.016V134.36ZM349.779 130.664H392.835V136.28H349.779V130.664ZM354.147 117.608H388.419V123.176H354.147V117.608ZM360.771 135.08H366.963C366.195 145.64 364.371 154.328 352.275 159.176C351.651 157.736 350.019 155.624 348.723 154.52C359.283 150.584 360.195 143.528 360.771 135.08ZM422.355 138.344H428.163V151.352C428.163 152.936 428.403 153.128 429.891 153.128C430.563 153.128 433.251 153.128 434.067 153.128C435.507 153.128 435.747 152.264 435.939 146.6C437.139 147.512 439.635 148.472 441.219 148.856C440.643 156.536 439.107 158.6 434.595 158.6C433.491 158.6 430.083 158.6 429.027 158.6C423.603 158.6 422.355 156.776 422.355 151.352V138.344ZM397.875 134.072H440.739V139.64H397.875V134.072ZM405.795 120.728H436.947V126.248H405.795V120.728ZM409.443 138.44H415.491C414.579 147.512 412.323 155.192 400.755 159.56C400.083 158.024 398.451 155.672 397.107 154.52C407.379 151.208 408.723 145.256 409.443 138.44ZM405.747 114.92L411.603 116.072C410.067 121.736 407.619 128.648 404.403 132.872C403.059 132.008 400.707 130.808 399.267 130.28C402.435 126.344 404.691 119.864 405.747 114.92ZM416.403 114.248H422.259V135.8H416.403V114.248ZM453.219 122.936H486.627V128.552H453.219V122.936ZM451.251 137.096H484.803V142.616H451.251V137.096ZM445.683 152.312H489.075V157.928H445.683V152.312ZM464.355 114.248H470.355V155.096H464.355V114.248ZM453.267 114.824L459.219 116.168C457.107 123.608 453.603 131 449.859 135.608C448.707 134.6 446.163 132.92 444.675 132.104C448.467 128.072 451.539 121.448 453.267 114.824Z" fill="white"/>
<path d="M119.712 180.696C117.096 182.928 114.96 186.96 114.96 191.88C114.96 196.824 117.096 200.856 119.712 203.088V203.208H112.248V180.576H119.712V180.696ZM133.848 190.68H136.824V198.984C136.824 199.92 136.968 200.04 137.736 200.04C138.072 200.04 139.488 200.04 139.92 200.04C140.736 200.04 140.88 199.44 140.976 195.96C141.6 196.464 142.872 196.968 143.64 197.16C143.352 201.504 142.632 202.752 140.184 202.752C139.632 202.752 137.808 202.752 137.28 202.752C134.544 202.752 133.848 201.816 133.848 199.008V190.68ZM121.656 188.832H143.184V191.64H121.656V188.832ZM123.84 182.304H140.976V185.088H123.84V182.304ZM127.152 191.04H130.248C129.864 196.32 128.952 200.664 122.904 203.088C122.592 202.368 121.776 201.312 121.128 200.76C126.408 198.792 126.864 195.264 127.152 191.04ZM157.944 192.672H160.848V199.176C160.848 199.968 160.968 200.064 161.712 200.064C162.048 200.064 163.392 200.064 163.8 200.064C164.52 200.064 164.64 199.632 164.736 196.8C165.336 197.256 166.584 197.736 167.376 197.928C167.088 201.768 166.32 202.8 164.064 202.8C163.512 202.8 161.808 202.8 161.28 202.8C158.568 202.8 157.944 201.888 157.944 199.176V192.672ZM145.704 190.536H167.136V193.32H145.704V190.536ZM149.664 183.864H165.24V186.624H149.664V183.864ZM151.488 192.72H154.512C154.056 197.256 152.928 201.096 147.144 203.28C146.808 202.512 145.992 201.336 145.32 200.76C150.456 199.104 151.128 196.128 151.488 192.72ZM149.64 180.96L152.568 181.536C151.8 184.368 150.576 187.824 148.968 189.936C148.296 189.504 147.12 188.904 146.4 188.64C147.984 186.672 149.112 183.432 149.64 180.96ZM154.968 180.624H157.896V191.4H154.968V180.624ZM173.376 184.968H190.08V187.776H173.376V184.968ZM172.392 192.048H189.168V194.808H172.392V192.048ZM169.608 199.656H191.304V202.464H169.608V199.656ZM178.944 180.624H181.944V201.048H178.944V180.624ZM173.4 180.912L176.376 181.584C175.32 185.304 173.568 189 171.696 191.304C171.12 190.8 169.848 189.96 169.104 189.552C171 187.536 172.536 184.224 173.4 180.912ZM200.544 203.208H193.08V203.088C195.696 200.856 197.832 196.824 197.832 191.88C197.832 186.96 195.696 182.928 193.08 180.696V180.576H200.544V203.208ZM217.416 201V198.984C222.264 194.64 225.096 191.304 225.096 188.568C225.096 186.792 224.16 185.688 222.456 185.688C221.136 185.688 220.104 186.528 219.192 187.536L217.248 185.616C218.88 183.864 220.488 182.928 222.912 182.928C226.248 182.928 228.504 185.064 228.504 188.376C228.504 191.616 225.816 195.072 222.576 198.24C223.464 198.144 224.64 198.024 225.48 198.024H229.32V201H217.416ZM238.628 201V190.08C238.628 189.048 238.724 187.44 238.772 186.384H238.676C238.22 187.344 237.74 188.328 237.236 189.288L234.5 193.704H244.028V196.416H231.068V193.992L237.668 183.24H241.916V201H238.628ZM255.209 180.96H258.377V199.56C258.377 201.336 257.969 202.128 256.865 202.584C255.761 203.064 254.105 203.16 251.753 203.136C251.609 202.296 251.057 200.928 250.601 200.136C252.185 200.232 253.985 200.208 254.489 200.184C255.017 200.184 255.209 200.016 255.209 199.536V180.96ZM260.993 187.272L263.801 186.216C265.769 189.6 267.761 193.992 268.361 196.992L265.217 198.24C264.713 195.336 262.889 190.8 260.993 187.272ZM248.921 186.456L252.209 187.008C251.393 190.632 250.073 195.12 248.057 197.784C247.361 197.256 246.041 196.584 245.249 196.272C247.193 193.824 248.417 189.6 248.921 186.456ZM278.969 187.992H291.257V190.488H278.969V187.992ZM278.201 183.168H291.905V185.712H278.201V183.168ZM278.225 192.36H291.809V194.88H278.225V192.36ZM283.625 180.6H286.457V189.408H283.625V180.6ZM286.673 190.176H289.481V200.112C289.481 201.504 289.217 202.248 288.281 202.656C287.321 203.088 286.025 203.136 284.225 203.136C284.129 202.344 283.697 201.192 283.313 200.448C284.489 200.496 285.809 200.496 286.169 200.472C286.553 200.472 286.673 200.4 286.673 200.064V190.176ZM279.185 196.488L281.585 195.192C282.545 196.344 283.865 198 284.489 199.056L281.945 200.544C281.393 199.488 280.169 197.76 279.185 196.488ZM271.577 182.088H277.769V198.504H271.577V195.936H275.081V184.656H271.577V182.088ZM271.721 188.904H276.377V191.424H271.721V188.904ZM270.233 182.088H272.897V200.64H270.233V182.088ZM294.041 183.96H315.449V186.72H294.041V183.96ZM301.865 191.736H314.441V194.4H301.865V191.736ZM300.929 199.896H315.353V202.56H300.929V199.896ZM306.761 187.752H309.665V201.312H306.761V187.752ZM301.601 180.6L304.601 181.32C302.825 187.104 299.801 192.936 294.665 196.44C294.377 195.624 293.705 194.352 293.273 193.656C297.617 190.824 300.353 185.448 301.601 180.6ZM296.801 190.656H299.705V203.112H296.801V190.656ZM331.649 180.6L334.937 181.176C334.265 182.472 333.569 183.744 333.017 184.56L330.569 183.96C331.001 182.976 331.433 181.608 331.649 180.6ZM330.137 188.544V189.792H336.233V188.544H330.137ZM330.137 185.328V186.552H336.233V185.328H330.137ZM327.473 183.168H339.017V191.952H327.473V183.168ZM332.033 190.968H334.769V200.304C334.769 201.576 334.553 202.32 333.737 202.752C332.921 203.184 331.793 203.208 330.257 203.208C330.161 202.44 329.849 201.312 329.489 200.592C330.377 200.64 331.361 200.64 331.649 200.616C331.961 200.616 332.033 200.544 332.033 200.256V190.968ZM326.609 193.44H329.969V195.768H326.609V193.44ZM329.345 193.44H329.801L330.233 193.368L331.937 193.944C331.145 197.712 329.369 200.472 326.873 202.008C326.537 201.408 325.769 200.496 325.265 200.016C327.257 198.888 328.817 196.44 329.345 193.848V193.44ZM337.673 192.312L339.809 194.112C338.441 195.192 337.049 196.392 335.921 197.136L334.385 195.696C335.417 194.832 336.857 193.392 337.673 192.312ZM334.649 192.336C335.585 195.552 337.481 198.552 340.121 199.992C339.521 200.496 338.681 201.552 338.249 202.272C335.489 200.376 333.713 196.8 332.705 192.792L334.649 192.336ZM323.009 190.488L325.097 189.936C325.649 191.544 326.201 193.68 326.369 194.976L324.161 195.672C323.993 194.352 323.537 192.168 323.009 190.488ZM320.945 196.8L322.961 196.44C323.225 198.072 323.441 200.136 323.489 201.528L321.353 201.936C321.353 200.544 321.161 198.408 320.945 196.8ZM318.353 196.464L320.561 196.824C320.393 199.032 319.985 201.408 319.481 202.944C319.001 202.68 317.945 202.344 317.369 202.176C317.921 200.736 318.209 198.504 318.353 196.464ZM318.137 190.152C317.993 189.624 317.537 188.352 317.249 187.656C317.705 187.536 318.113 187.08 318.569 186.384C319.049 185.688 320.465 183.072 321.257 180.552L323.873 181.608C322.793 184.152 321.185 186.888 319.721 188.76V188.808C319.721 188.808 318.137 189.672 318.137 190.152ZM318.137 190.152L318.041 188.16L319.217 187.416L323.393 187.104C323.249 187.824 323.105 188.808 323.105 189.384C319.385 189.744 318.617 189.936 318.137 190.152ZM318.305 195.72C318.161 195.168 317.705 193.848 317.393 193.128C318.017 192.96 318.545 192.408 319.313 191.52C320.105 190.656 322.601 187.248 324.089 183.96L326.513 185.472C324.785 188.688 322.337 191.952 319.961 194.304V194.376C319.961 194.376 318.305 195.216 318.305 195.72ZM318.305 195.72L318.185 193.68L319.361 192.888L325.121 192.216C325.001 192.912 324.929 193.92 324.953 194.472C319.769 195.216 318.881 195.432 318.305 195.72ZM323.345 196.32L325.217 195.744C325.601 196.8 326.033 198.144 326.201 199.056L324.233 199.728C324.089 198.816 323.705 197.4 323.345 196.32ZM351.185 186.432H354.161V192.768H351.185V186.432ZM344.033 191.424H361.241V193.632H344.033V191.424ZM342.737 187.608H362.729V190.032H342.737V187.608ZM341.993 195.24H363.473V197.592H341.993V195.24ZM355.937 194.064H358.913V200.568C358.913 201.912 358.601 202.512 357.545 202.824C356.513 203.136 355.049 203.136 353.057 203.136C352.985 202.416 352.673 201.528 352.361 200.832C353.537 200.904 355.049 200.904 355.409 200.88C355.793 200.856 355.937 200.76 355.937 200.448V194.064ZM345.833 198.6L347.873 197.088C349.073 198.096 350.777 199.56 351.617 200.52L349.481 202.2C348.713 201.24 347.057 199.68 345.833 198.6ZM344.873 182.136H352.409V184.584H344.873V182.136ZM354.857 182.136H363.833V184.584H354.857V182.136ZM345.017 180.408L347.537 181.176C346.553 183.408 344.897 185.736 343.289 187.176C342.905 186.696 341.945 185.664 341.369 185.208C342.857 184.032 344.225 182.208 345.017 180.408ZM354.977 180.408L357.617 181.056C356.849 183.48 355.505 185.88 354.113 187.416C353.633 186.96 352.553 186.12 351.953 185.736C353.273 184.44 354.377 182.424 354.977 180.408ZM346.433 185.328L348.137 183.84C348.977 184.488 350.057 185.424 350.585 186.048L348.785 187.728C348.281 187.056 347.249 186.024 346.433 185.328ZM356.897 185.4L358.745 183.912C359.537 184.584 360.569 185.592 361.049 186.288L359.105 187.944C358.673 187.248 357.689 186.144 356.897 185.4Z" fill="#53F5FF"/>
<path d="M103.38 255.908H117.744V258.26H103.38V255.908ZM106.74 233.116L109.26 233.984C106.964 237.848 103.324 241.348 99.7962 243.532C99.3762 243.028 98.3962 242.02 97.8082 241.6C101.364 239.668 104.78 236.532 106.74 233.116ZM116.96 236.196H117.52L117.968 236.056L119.844 237.288C115.672 243.98 106.628 248.124 98.4522 249.972C98.2002 249.272 97.6122 248.18 97.1362 247.592C104.808 246.108 113.544 242.132 116.96 236.616V236.196ZM104.892 237.624C108.56 242.328 115.84 245.996 123.708 247.396C123.092 247.984 122.364 249.104 121.972 249.832C114.076 248.18 106.908 244.204 102.68 238.66L104.892 237.624ZM102.008 249.132H118.864V259.352H116.064V251.54H104.668V259.464H102.008V249.132ZM106.096 236.196H117.576V238.52H104.5L106.096 236.196ZM142.076 235.608H144.624V257.868H142.076V235.608ZM135.384 238.296H150.952V240.396H135.384V238.296ZM134.6 256.72H151.512V258.848H134.6V256.72ZM136.196 252.828H150.504V254.9H136.196V252.828ZM149.328 233.676L150.896 235.636C147.032 236.448 141.18 236.868 136.392 236.952C136.336 236.364 136.028 235.468 135.804 234.936C140.452 234.768 146.108 234.348 149.328 233.676ZM138.772 247.368V249.244H148.012V247.368H138.772ZM138.772 243.868V245.716H148.012V243.868H138.772ZM136.448 241.964H150.448V251.148H136.448V241.964ZM130.008 235.832H132.584V259.324H130.008V235.832ZM125.668 241.264H135.86V243.728H125.668V241.264ZM130.148 242.244L131.744 242.916C130.652 246.892 128.524 251.848 126.368 254.508C126.116 253.752 125.528 252.66 125.08 252.016C127.068 249.776 129.196 245.548 130.148 242.244ZM134.236 233.732L136.056 235.776C133.368 236.84 129.448 237.596 126.2 238.044C126.06 237.456 125.724 236.588 125.416 236.028C128.552 235.496 132.136 234.684 134.236 233.732ZM132.5 244.988C133.2 245.576 135.748 248.208 136.308 248.852L134.768 250.952C134.096 249.72 132.164 247.088 131.296 246.052L132.5 244.988ZM155.908 242.608L158.288 243.056C157.784 245.604 156.804 248.18 155.712 249.832C155.236 249.468 154.2 248.936 153.584 248.656C154.732 247.144 155.488 244.848 155.908 242.608ZM156.496 245.044H164.868V247.2H155.488L156.496 245.044ZM153.584 249.944H165.316V252.156H153.584V249.944ZM158.988 245.912H161.452V249.104C161.452 252.128 160.724 256.384 155.292 259.38C154.9 258.848 154.116 258.064 153.528 257.616C158.596 255.124 158.988 251.428 158.988 249.048V245.912ZM160.752 251.68C161.564 252.24 164.224 254.592 164.812 255.208L163.3 257.28C162.46 256.188 160.276 253.78 159.324 252.884L160.752 251.68ZM155.124 233.48H157.7V239.136C157.7 240.004 157.84 240.312 158.568 240.312C159.184 240.312 161.788 240.312 162.46 240.312C163.104 240.312 164.168 240.256 164.672 240.116C164.756 240.816 164.812 241.768 164.896 242.356C164.42 242.524 163.44 242.552 162.544 242.552C161.844 242.552 159.016 242.552 158.456 242.552C155.796 242.552 155.124 241.6 155.124 239.108V233.48ZM166.1 234.264H177.02V236.336H166.1V234.264ZM176.18 234.264H176.712L177.216 234.124L178.784 235.16C177.272 237.428 174.808 239.752 172.456 241.152C172.12 240.676 171.42 239.92 170.972 239.528C173.016 238.352 175.2 236.308 176.18 234.712V234.264ZM167.276 239.248L168.844 237.624C171.28 238.66 174.528 240.424 176.208 241.684L174.528 243.504C172.96 242.272 169.768 240.424 167.276 239.248ZM165.596 243.224H177.356V245.408H165.596V243.224ZM176.88 243.224H177.244L177.608 243.112L179.232 243.532C178.7 245.324 178.028 247.368 177.356 248.656L175.424 248.068C175.984 246.92 176.544 245.072 176.88 243.56V243.224ZM171 243.868H173.38V257.672L171 256.552V243.868ZM171.98 249.748H178.308V251.96H171.98V249.748ZM168.536 251.008C169.908 255.992 172.82 256.86 176.012 256.86C176.544 256.86 178.728 256.86 179.484 256.86C179.176 257.392 178.868 258.428 178.784 259.044H175.844C171.812 259.044 168.62 257.784 166.94 251.624L168.536 251.008ZM166.744 247.06L169.152 247.144C168.928 252.604 168.116 256.692 165.68 259.492C165.288 259.128 164.224 258.344 163.664 258.036C166.044 255.656 166.632 251.82 166.744 247.06ZM156.86 235.608H164.616V237.708H156.86V235.608ZM182.424 247.872H193.624V249.776H182.424V247.872ZM181.5 251.232H194.38V253.248H181.5V251.232ZM181.612 235.048H194.296V237.036H181.612V235.048ZM186.848 239.416H189.004V245.408H186.848V239.416ZM184.44 242.664V244.708H191.328V242.664H184.44ZM182.396 240.928H193.484V246.444H182.396V240.928ZM186.736 245.492H189.2V249.664C189.2 252.8 188.416 256.72 183.012 259.324C182.648 258.792 181.92 258.036 181.332 257.588C186.176 255.488 186.736 252.016 186.736 249.608V245.492ZM186.848 254.76L188.192 253.22C189.956 254.256 192.364 255.88 193.54 256.944L192.14 258.708C191.02 257.616 188.668 255.908 186.848 254.76ZM183.992 233.424H186.316V238.24H189.732V233.424H192.168V239.892H183.992V233.424ZM196.284 244.316H206.84V246.556H196.284V244.316ZM196.312 249.888H206.868V252.156H196.312V249.888ZM196.172 255.572H207.316V257.98H196.172V255.572ZM197.432 233.368L199.84 233.984C198.664 238.128 196.76 242.328 194.688 245.044C194.296 244.596 193.288 243.728 192.728 243.364C194.744 240.928 196.396 237.12 197.432 233.368ZM197.992 238.66H207.148V241.04H197.992V259.296H195.612V241.18L197.936 238.66H197.992ZM201.24 239.752H203.62V256.804H201.24V239.752ZM200.4 234.488L202.668 233.732C203.424 234.908 204.208 236.476 204.516 237.54L202.108 238.436C201.828 237.372 201.1 235.72 200.4 234.488ZM212.3 238.884L214.484 239.304C213.812 242.412 212.58 245.324 210.928 247.172C210.592 246.78 209.752 245.996 209.248 245.66C210.76 244.036 211.796 241.544 212.3 238.884ZM209.668 248.348H222.408V250.672H209.668V248.348ZM209.78 236.28H222.24V238.632H209.78V236.28ZM217.816 239.052L219.972 239.444C219.328 242.356 218.152 245.016 216.556 246.752C216.192 246.388 215.352 245.66 214.848 245.324C216.304 243.812 217.284 241.516 217.816 239.052ZM211.964 242.468L213.252 241.18C214.148 241.852 215.268 242.86 215.772 243.56L214.428 245.016C213.952 244.288 212.888 243.224 211.964 242.468ZM217.368 242.748L218.88 241.6C219.972 242.664 221.344 244.204 222.016 245.156L220.42 246.5C219.804 245.492 218.46 243.896 217.368 242.748ZM224.284 244.316H234.84V246.556H224.284V244.316ZM224.312 249.888H234.868V252.156H224.312V249.888ZM224.172 255.572H235.316V257.98H224.172V255.572ZM225.432 233.452L227.896 234.04C226.72 238.184 224.872 242.384 222.856 245.128C222.436 244.68 221.428 243.812 220.868 243.42C222.828 240.984 224.452 237.176 225.432 233.452ZM225.992 238.66H235.148V241.04H225.992V259.296H223.612V241.18L225.936 238.66H225.992ZM229.24 239.752H231.62V256.804H229.24V239.752ZM214.148 233.984L216.612 233.34C217.172 234.292 217.788 235.552 218.068 236.392L215.492 237.148C215.24 236.308 214.652 234.964 214.148 233.984ZM228.4 234.488L230.696 233.732C231.452 234.908 232.208 236.476 232.544 237.54L230.108 238.436C229.828 237.372 229.1 235.72 228.4 234.488ZM212.076 252.1L214.26 252.52C213.7 254.536 212.72 256.552 211.628 257.868C211.208 257.56 210.256 257 209.696 256.748C210.788 255.544 211.6 253.808 212.076 252.1ZM218.264 252.688L220.224 251.988C221.148 253.472 222.128 255.404 222.52 256.664L220.448 257.476C220.056 256.188 219.132 254.172 218.264 252.688ZM215.072 246.472H217.564V259.268H215.072V246.472ZM245.816 241.348H262.588V243.784H245.816V241.348ZM254.328 248.124H262.112V250.476H254.328V248.124ZM243.94 255.936H263.428V258.4H243.94V255.936ZM253.096 242.328H255.644V257.56H253.096V242.328ZM247.02 246.948H249.428V257.448H247.02V246.948ZM243.324 236.42H263.4V238.8H243.324V236.42ZM241.868 236.42H244.388V244.848C244.388 249.3 243.8 255.544 239.936 259.436C239.544 258.904 238.564 257.98 238.032 257.644C241.532 254.032 241.868 248.852 241.868 244.82V236.42ZM237.556 239.78L239.488 238.828C240.468 240.452 241.392 242.608 241.672 244.008L239.6 245.1C239.32 243.7 238.452 241.46 237.556 239.78ZM237.22 249.72C238.564 249.132 240.44 248.18 242.4 247.2L243.016 249.272C241.364 250.28 239.628 251.288 238.06 252.184L237.22 249.72ZM250.772 233.9L253.432 233.34C253.936 234.46 254.524 235.888 254.776 236.812L252.032 237.484C251.808 236.532 251.248 235.02 250.772 233.9ZM277.148 238.408L278.828 236.952C281.432 237.876 284.988 239.388 286.864 240.508L285.072 242.132C283.336 241.04 279.808 239.416 277.148 238.408ZM274.488 240.396H288.712V242.384H276.84V254.872H274.488V240.396ZM287.76 240.396H290.168V252.52C290.168 253.668 289.916 254.228 289.132 254.592C288.376 254.928 287.2 254.928 285.408 254.928C285.324 254.34 285.016 253.472 284.736 252.912C285.912 252.968 286.976 252.94 287.312 252.94C287.676 252.94 287.76 252.828 287.76 252.52V240.396ZM274.656 234.432H288.348V236.448H274.656V234.432ZM275.916 244.428H288.6V246.332H275.916V244.428ZM275.916 248.46H288.6V250.448H275.916V248.46ZM281.068 241.292H283.336V254.788H281.068V241.292ZM287.424 234.432H288.04L288.572 234.292L290.168 235.58C288.236 237.372 285.436 239.22 282.86 240.368C282.552 239.92 281.908 239.22 281.516 238.856C283.728 237.904 286.248 236.224 287.424 234.908V234.432ZM266.536 234.6L268.524 233.396C269.812 234.74 271.38 236.504 272.164 237.652L270.148 239.108C269.392 237.932 267.796 235.972 266.536 234.6ZM265.668 239.864H271.716V242.02H265.668V239.864ZM270.96 252.408C272.584 256.132 276.084 256.608 281.432 256.636C284.372 256.636 288.712 256.468 291.708 256.216C291.344 256.748 290.98 257.98 290.84 258.708C288.096 258.876 284.54 258.932 281.376 258.932C274.852 258.932 271.268 258.12 269.196 253.192L270.96 252.408ZM270.876 246.78H271.492L271.94 246.724L273.228 247.2C272.276 253.276 269.952 257.308 266.76 259.408C266.424 258.904 265.556 257.98 265.052 257.616C268.048 255.768 270.12 252.24 270.876 247.2V246.78ZM266.116 249.272V247.34L267.208 246.78H271.688L271.66 248.88H267.796C267.096 248.88 266.34 249.048 266.116 249.272ZM266.116 249.272C265.948 248.712 265.444 247.536 265.192 247.032C265.64 246.92 266.088 246.724 266.592 246.164C267.46 245.324 270.12 241.628 271.072 240.116V240.032L271.8 239.724L273.48 240.508C272.136 242.412 269.588 245.94 267.992 247.76C267.992 247.76 266.116 248.656 266.116 249.272ZM305.148 238.408L306.828 236.952C309.432 237.876 312.988 239.388 314.864 240.508L313.072 242.132C311.336 241.04 307.808 239.416 305.148 238.408ZM302.488 240.396H316.712V242.384H304.84V254.872H302.488V240.396ZM315.76 240.396H318.168V252.52C318.168 253.668 317.916 254.228 317.132 254.592C316.376 254.928 315.2 254.928 313.408 254.928C313.324 254.34 313.016 253.472 312.736 252.912C313.912 252.968 314.976 252.94 315.312 252.94C315.676 252.94 315.76 252.828 315.76 252.52V240.396ZM302.656 234.432H316.348V236.448H302.656V234.432ZM303.916 244.428H316.6V246.332H303.916V244.428ZM303.916 248.46H316.6V250.448H303.916V248.46ZM309.068 241.292H311.336V254.788H309.068V241.292ZM315.424 234.432H316.04L316.572 234.292L318.168 235.58C316.236 237.372 313.436 239.22 310.86 240.368C310.552 239.92 309.908 239.22 309.516 238.856C311.728 237.904 314.248 236.224 315.424 234.908V234.432ZM294.536 234.6L296.524 233.396C297.812 234.74 299.38 236.504 300.164 237.652L298.148 239.108C297.392 237.932 295.796 235.972 294.536 234.6ZM293.668 239.864H299.716V242.02H293.668V239.864ZM298.96 252.408C300.584 256.132 304.084 256.608 309.432 256.636C312.372 256.636 316.712 256.468 319.708 256.216C319.344 256.748 318.98 257.98 318.84 258.708C316.096 258.876 312.54 258.932 309.376 258.932C302.852 258.932 299.268 258.12 297.196 253.192L298.96 252.408ZM298.876 246.78H299.492L299.94 246.724L301.228 247.2C300.276 253.276 297.952 257.308 294.76 259.408C294.424 258.904 293.556 257.98 293.052 257.616C296.048 255.768 298.12 252.24 298.876 247.2V246.78ZM294.116 249.272V247.34L295.208 246.78H299.688L299.66 248.88H295.796C295.096 248.88 294.34 249.048 294.116 249.272ZM294.116 249.272C293.948 248.712 293.444 247.536 293.192 247.032C293.64 246.92 294.088 246.724 294.592 246.164C295.46 245.324 298.12 241.628 299.072 240.116V240.032L299.8 239.724L301.48 240.508C300.136 242.412 297.588 245.94 295.992 247.76C295.992 247.76 294.116 248.656 294.116 249.272ZM322.06 236.896H346.784V239.388H322.06V236.896ZM328.892 246.948H341.884V249.188H328.892V246.948ZM340.96 242.188H343.564V256.3C343.564 257.728 343.284 258.484 342.248 258.904C341.24 259.324 339.672 259.324 337.32 259.324C337.208 258.596 336.844 257.476 336.48 256.776C338.16 256.86 339.84 256.832 340.344 256.832C340.82 256.804 340.96 256.664 340.96 256.272V242.188ZM331.02 233.368L333.736 233.984C331.832 240.116 328.472 246.332 323.208 250.056C322.816 249.44 321.976 248.516 321.472 248.012C326.372 244.68 329.564 238.8 331.02 233.368ZM328.752 251.624H341.884V253.864H328.752V251.624ZM328.724 242.188H341.632V244.54H328.724V242.188ZM327.296 242.188H329.956V249.636C329.956 252.856 329.424 257 326.568 259.548C326.232 258.988 325.196 257.868 324.692 257.504C327.044 255.32 327.296 252.24 327.296 249.608V242.188ZM352.328 240.536H360.28V242.524H352.328V240.536ZM352.328 245.212H360.28V247.144H352.328V245.212ZM352.328 250H360.28V252.016H352.328V250ZM364.34 246.64H374.952V248.908H364.34V246.64ZM353.756 235.916H358.292V237.96H353.756V235.916ZM362.408 234.796H373.132V237.008H362.408V234.796ZM362.212 251.932H375.456V254.256H362.212V251.932ZM367.84 243.924H370.36V259.268H367.84V243.924ZM355.604 241.544H357.424V250.784H355.604V241.544ZM372.348 234.796H374.728C374.728 234.796 374.7 235.412 374.672 235.72C374.504 240.312 374.252 242.16 373.636 242.86C373.244 243.364 372.74 243.588 372.04 243.644C371.452 243.728 370.304 243.728 369.156 243.672C369.1 243 368.876 242.104 368.54 241.516C369.576 241.6 370.472 241.628 370.864 241.628C371.228 241.628 371.452 241.6 371.648 241.348C371.984 240.956 372.18 239.388 372.348 235.132V234.796ZM364.144 244.148L366.384 244.596C365.824 247.172 364.872 249.748 363.752 251.4C363.304 251.092 362.296 250.588 361.736 250.336C362.912 248.796 363.724 246.472 364.144 244.148ZM353.42 233.34L355.828 233.872C354.792 237.708 353.084 241.376 351.068 243.756C350.676 243.336 349.668 242.524 349.136 242.188C351.096 240.06 352.608 236.756 353.42 233.34ZM351.32 240.536H353.476V247.956C353.476 251.456 353.14 256.3 351.124 259.408C350.732 259.072 349.752 258.456 349.248 258.232C351.152 255.292 351.32 251.12 351.32 247.956V240.536ZM359.552 240.536H361.764V256.664C361.764 257.812 361.512 258.512 360.756 258.904C359.972 259.296 358.824 259.324 356.976 259.324C356.892 258.708 356.5 257.7 356.192 257.084C357.48 257.14 358.684 257.14 359.048 257.112C359.412 257.112 359.552 257 359.552 256.636V240.536ZM366.132 235.524H368.512C368.092 239.5 367 242.664 362.968 244.456C362.688 243.896 362.072 243.056 361.54 242.664C364.956 241.236 365.768 238.632 366.132 235.524ZM357.648 235.916H358.18L358.516 235.804L360.056 236.784C359.44 238.548 358.376 240.676 357.536 242.02C357.088 241.684 356.332 241.236 355.856 241.012C356.528 239.752 357.284 237.708 357.648 236.336V235.916ZM388.084 252.072L387.328 250.252C389.652 249.412 390.912 248.012 390.912 246.108L390.52 243.588L392.06 245.884C391.64 246.332 391.08 246.5 390.492 246.5C389.232 246.5 388.14 245.716 388.14 244.288C388.14 242.86 389.26 242.048 390.548 242.048C392.284 242.048 393.208 243.42 393.208 245.548C393.208 248.628 391.248 251.064 388.084 252.072ZM103.492 286.8H117.268V288.928H103.492V286.8ZM103.044 291.588H117.8V293.8H103.044V291.588ZM111.948 287.472H114.3V299.848H111.948V287.472ZM106.32 287.584H108.616V292.792C108.616 294.556 107.888 298.224 104.836 300.296C104.472 299.82 103.66 299.092 103.1 298.728C105.732 297.132 106.32 294.276 106.32 292.792V287.584ZM100.104 279.38H107.608V281.172H100.104V279.38ZM113.04 279.38H120.6V281.172H113.04V279.38ZM119.564 275.516H122.168V297.132C122.168 298.588 121.888 299.372 120.964 299.82C120.04 300.268 118.64 300.324 116.484 300.296C116.4 299.596 116.036 298.364 115.672 297.664C117.1 297.72 118.528 297.72 118.976 297.692C119.424 297.692 119.564 297.524 119.564 297.104V275.516ZM100.328 275.516H109.26V285.176H100.328V283.216H106.768V277.476H100.328V275.516ZM120.88 275.516V277.476H113.964V283.272H120.88V285.232H111.444V275.516H120.88ZM98.7602 275.516H101.364V300.38H98.7602V275.516ZM127.656 276.412H130.092V283.664C130.092 288.088 129.672 294.752 127.096 299.12C126.676 298.644 125.612 297.832 125.052 297.58C127.404 293.52 127.656 287.752 127.656 283.664V276.412ZM137.316 274.62L139.332 276.524C136.28 277.476 131.996 278.12 128.384 278.428C128.272 277.868 127.936 276.972 127.656 276.412C131.072 276.02 135.02 275.376 137.316 274.62ZM141.852 279.688H151.4V282.152H141.852V279.688ZM142.132 274.424L144.792 274.788C144.036 280.332 142.664 285.54 140.368 288.928C139.976 288.424 138.94 287.444 138.352 287.024C140.452 284.084 141.572 279.352 142.132 274.424ZM143.084 281.872C144.344 288.844 146.948 295.172 151.596 298.028C150.952 298.532 150.056 299.624 149.608 300.352C144.792 296.908 142.328 290.16 140.928 282.264L143.084 281.872ZM147.872 279.996L150.112 281.144C149.076 289.964 146.22 297.132 140.172 300.352C139.752 299.68 138.912 298.7 138.24 298.14C144.26 295.34 146.864 288.648 147.872 279.996ZM128.692 279.8H138.8V286.968H128.692V284.784H136.42V281.956H128.692V279.8ZM130.484 295.2H138.156V297.356H130.484V295.2ZM129.42 289.236H138.828V298.56H136.476V291.392H131.716V299.092H129.42V289.236ZM168.452 285.848H171.168V296.18C171.168 297.216 171.364 297.384 172.372 297.384C172.82 297.384 174.92 297.384 175.536 297.384C176.6 297.384 176.768 296.656 176.88 292.456C177.468 292.932 178.616 293.408 179.344 293.576C179.064 298.504 178.392 299.876 175.76 299.876C175.144 299.876 172.568 299.876 171.98 299.876C169.18 299.876 168.452 299.008 168.452 296.208V285.848ZM153.976 284.224H178.868V286.8H153.976V284.224ZM156.468 276.468H176.404V279.016H156.468V276.468ZM160.808 286.212H163.636C163.188 292.428 162.012 297.552 155.18 300.296C154.872 299.652 154.116 298.672 153.528 298.168C159.688 295.872 160.444 291.448 160.808 286.212ZM196.62 288.116H199.28V296.404C199.28 297.272 199.448 297.412 200.428 297.412C200.876 297.412 202.92 297.412 203.508 297.412C204.46 297.412 204.6 296.88 204.712 293.38C205.272 293.828 206.42 294.248 207.148 294.444C206.868 298.784 206.14 299.932 203.732 299.932C203.144 299.932 200.652 299.932 200.092 299.932C197.292 299.932 196.62 299.092 196.62 296.404V288.116ZM182.032 286.212H206.812V288.788H182.032V286.212ZM186.652 278.484H204.712V281.032H186.652V278.484ZM189.116 288.2H191.888C191.356 293.744 189.956 298.112 183.292 300.52C182.984 299.82 182.228 298.756 181.612 298.224C187.688 296.32 188.668 292.68 189.116 288.2ZM186.932 274.928L189.62 275.46C188.752 278.708 187.296 282.656 185.364 285.148C184.748 284.728 183.684 284.168 183.04 283.916C184.916 281.592 186.288 277.812 186.932 274.928ZM193.064 274.368H195.752V287.024H193.064V274.368ZM214.232 279.66H233.664V282.236H214.232V279.66ZM213.028 287.892H232.628V290.44H213.028V287.892ZM209.892 296.936H235.036V299.512H209.892V296.936ZM221.064 274.368H223.836V298.196H221.064V274.368ZM214.708 274.788L217.424 275.404C216.22 279.744 214.204 283.944 211.992 286.632C211.46 286.184 210.284 285.4 209.612 285.036C211.852 282.6 213.672 278.736 214.708 274.788ZM250.492 276.272H263.176V278.064H250.492V276.272ZM254.552 279.464H262.224V281.032H254.552V279.464ZM252.564 282.936H262.952V284.504H252.564V282.936ZM256.764 280.64H259.06V283.776H256.764V280.64ZM254.944 274.284L256.96 274.592C256.064 278.456 254.272 281.62 251.668 283.636C251.416 283.244 250.716 282.432 250.296 282.04C252.62 280.332 254.216 277.588 254.944 274.284ZM259.872 285.624H261.888V294.78C261.888 295.732 261.72 296.208 261.048 296.488C260.404 296.796 259.424 296.796 257.912 296.796C257.828 296.292 257.576 295.592 257.324 295.116C258.276 295.144 259.228 295.144 259.508 295.144C259.788 295.144 259.872 295.06 259.872 294.78V285.624ZM253.488 285.624H260.88V287.22H253.488V285.624ZM252.564 285.624H254.552V289.544C254.552 291.728 254.272 294.696 252.788 296.656C252.424 296.348 251.528 295.732 251.08 295.536C252.424 293.744 252.564 291.364 252.564 289.488V285.624ZM254.272 292.26C255.952 291.924 258.248 291.364 260.656 290.804L260.824 292.288C258.752 293.016 256.764 293.66 255.028 294.192L254.272 292.26ZM254.888 288.928L255.868 287.612C257.128 288.228 258.612 288.956 259.396 289.544L258.416 291.056C257.604 290.44 256.092 289.516 254.888 288.928ZM238.424 275.488H244.584V277.868H240.552V300.296H238.424V275.488ZM243.8 275.488H244.192L244.528 275.404L246.04 276.272C245.368 278.568 244.472 281.424 243.66 283.664C245.368 286.016 245.76 288.032 245.76 289.74C245.76 291.308 245.452 292.512 244.696 293.1C244.332 293.408 243.884 293.576 243.352 293.632C242.848 293.688 242.26 293.688 241.672 293.688C241.644 293.1 241.448 292.232 241.14 291.644C241.644 291.7 242.092 291.7 242.456 291.7C242.736 291.672 243.016 291.588 243.212 291.448C243.548 291.14 243.716 290.384 243.688 289.516C243.688 288.032 243.324 286.128 241.644 283.916C242.484 281.368 243.352 278.008 243.8 276.132V275.488ZM246.096 275.46L248.084 274.844C248.868 276.216 249.764 278.008 250.184 279.184L248.112 279.912C247.72 278.708 246.824 276.832 246.096 275.46ZM245.62 280.808H249.54V283.076H245.62V280.808ZM249.372 293.436C250.744 297.188 253.516 297.804 257.436 297.804C259.228 297.804 261.832 297.72 263.652 297.524C263.316 298.056 263.036 299.176 262.924 299.848C261.3 299.96 259.2 299.988 257.352 299.988C252.452 299.988 249.484 299.036 247.72 294.136L249.372 293.436ZM248.868 287.556H249.708L250.1 287.472L251.024 287.892C250.24 294.052 248.224 298.224 245.34 300.436C245.032 299.932 244.276 299.092 243.8 298.728C246.488 296.796 248.252 293.128 248.868 287.948V287.556ZM246.404 290.16V288.088L247.496 287.556H249.904V289.74H247.916C247.384 289.74 246.628 289.936 246.404 290.16ZM246.404 290.16C246.264 289.628 245.816 288.592 245.564 288.116C245.984 288.004 246.32 287.836 246.628 287.248C247.076 286.52 248.448 282.46 248.924 280.948V280.864L249.54 280.612L251.08 281.032C250.38 282.908 248.98 286.912 248.056 288.704C248.056 288.704 246.404 289.572 246.404 290.16ZM276.308 283.132H290.476V285.456H276.308V283.132ZM275.216 277.56H291.316V279.912H275.216V277.56ZM275.3 288.144H291.204V290.496H275.3V288.144ZM281.964 274.34H284.568V284.448H281.964V274.34ZM285.576 285.092H288.18V297.412C288.18 298.784 287.872 299.512 286.92 299.904C285.94 300.296 284.484 300.324 282.3 300.324C282.188 299.624 281.796 298.56 281.432 297.86C283 297.916 284.54 297.916 284.988 297.888C285.436 297.888 285.576 297.776 285.576 297.356V285.092ZM276.756 292.428L278.94 291.196C280.2 292.596 281.768 294.584 282.496 295.872L280.144 297.272C279.5 295.984 278.016 293.884 276.756 292.428ZM267.628 276.16H274.712V294.892H267.628V292.512H272.248V278.54H267.628V276.16ZM267.74 284.224H273.424V286.576H267.74V284.224ZM266.368 276.16H268.832V297.272H266.368V276.16ZM307.556 282.768H313.296V284.812H307.556V282.768ZM305.428 290.916H314.92V292.764H305.428V290.916ZM296.16 275.46H303.944V277.588H296.16V275.46ZM303.244 275.46H303.692L304.112 275.376L305.764 276.188C303.692 280.976 299.156 284.14 294.536 285.764C294.2 285.204 293.556 284.28 293.108 283.832C297.308 282.544 301.62 279.576 303.244 275.88V275.46ZM308.312 274.452C310.272 278.708 314.36 282.04 319.568 283.412C319.008 283.916 318.336 284.84 317.972 285.484C312.568 283.776 308.452 280.08 306.184 275.096L308.312 274.452ZM313.38 274.564L315.312 275.908C313.968 277.14 312.316 278.4 311.056 279.268L309.516 278.064C310.72 277.168 312.428 275.656 313.38 274.564ZM316.852 277.364L318.784 278.708C317.44 279.94 315.732 281.2 314.444 282.04L312.848 280.836C314.108 279.94 315.872 278.428 316.852 277.364ZM297.392 282.88H304.196V289.488H301.816V284.924H297.392V282.88ZM296.496 287.472H298.68C298.4 289.628 298.036 292.26 297.7 293.94H295.46C295.852 292.204 296.244 289.544 296.496 287.472ZM301.816 291.952H304.224C304.224 291.952 304.196 292.596 304.14 292.932C303.832 296.796 303.496 298.532 302.796 299.232C302.236 299.792 301.648 299.988 300.752 300.044C299.996 300.1 298.54 300.1 297 300.016C296.972 299.316 296.664 298.392 296.244 297.776C297.728 297.888 299.212 297.916 299.744 297.916C300.248 297.916 300.556 297.888 300.78 297.664C301.256 297.272 301.564 295.788 301.816 292.288V291.952ZM306.576 282.768H308.816V284.924C308.816 286.856 308.228 289.068 305.736 290.58C305.4 290.104 304.532 289.236 304.056 288.928C306.24 287.724 306.576 286.212 306.576 284.868V282.768ZM314.36 290.916H314.836L315.256 290.832L316.712 291.364C314.836 296.516 310.44 299.12 305.148 300.38C304.924 299.82 304.42 298.952 304 298.448C308.732 297.552 312.848 295.2 314.36 291.224V290.916ZM297.476 287.472H302.656V289.488H297.112L297.476 287.472ZM296.664 291.952H302.488V293.94H296.272L296.664 291.952ZM295.348 279.268L296.86 277.868C298.092 278.54 299.632 279.576 300.388 280.332L298.792 281.928C298.092 281.144 296.58 280.024 295.348 279.268ZM312.092 282.768H314.304V287.08C314.304 287.752 314.36 287.948 314.752 287.948C315.06 287.948 316.208 287.948 316.516 287.948C316.908 287.948 317.58 287.92 317.916 287.836C317.944 288.368 318 289.152 318.084 289.656C317.72 289.796 317.132 289.796 316.572 289.796C316.18 289.796 314.864 289.796 314.472 289.796C312.484 289.796 312.092 289.012 312.092 287.052V282.768ZM305.232 294.136L306.492 292.652C309.824 294.416 314.5 297.048 316.88 298.672L315.536 300.408C313.268 298.784 308.648 296.012 305.232 294.136ZM330.096 287.92H339.644V296.404H330.096V294.22H337.152V290.132H330.096V287.92ZM328.948 287.92H331.412V298.056H328.948V287.92ZM324.104 279.576H331.552V281.452H324.104V279.576ZM337.04 279.576H344.6V281.452H337.04V279.576ZM343.452 275.516H346.14V297.02C346.14 298.644 345.776 299.428 344.768 299.876C343.704 300.324 342.024 300.352 339.504 300.352C339.42 299.624 338.972 298.364 338.58 297.664C340.344 297.748 342.22 297.72 342.752 297.692C343.284 297.692 343.452 297.524 343.452 296.992V275.516ZM324.3 275.516H333.232V285.652H324.3V283.58H330.74V277.588H324.3V275.516ZM344.88 275.516V277.588H337.992V283.636H344.88V285.68H335.472V275.516H344.88ZM322.816 275.516H325.448V300.38H322.816V275.516ZM361.26 291.056L360.616 280.752L360.504 277.056H364.284L364.172 280.752L363.528 291.056H361.26ZM362.408 298.196C361.204 298.196 360.308 297.356 360.308 296.096C360.308 294.808 361.232 293.94 362.408 293.94C363.556 293.94 364.48 294.808 364.48 296.096C364.48 297.356 363.556 298.196 362.408 298.196Z" fill="white"/>
<g clip-path="url(#clip0_1230_14387)">
<path d="M680.393 326.694L699.517 296.664L767.044 482.512H748.784L680.393 326.694Z" fill="url(#paint2_linear_1230_14387)"/>
<path d="M619.882 296.664H699.995L680.393 327.464H570.908L619.882 296.664Z" fill="url(#paint3_linear_1230_14387)"/>
<path d="M570.908 327.463H680.871L748.762 482.234H687.803L570.908 327.463Z" fill="url(#paint4_linear_1230_14387)"/>
<path fill-rule="evenodd" clip-rule="evenodd" d="M587.847 249.377C584.003 249.377 581.755 253.71 583.97 256.852L599.792 279.298C600.681 280.558 602.127 281.308 603.669 281.308H630.955L647.242 288.252C649.062 289.027 650.975 287.366 650.463 285.456L649.351 281.308H656.464C659.869 281.308 662.164 277.827 660.824 274.698L651.209 252.252C650.462 250.508 648.747 249.377 646.85 249.377H587.847Z" fill="url(#paint5_linear_1230_14387)"/>
<path fill-rule="evenodd" clip-rule="evenodd" d="M585.034 251.639C581.19 251.639 578.943 255.972 581.158 259.114L596.98 281.559C597.868 282.82 599.314 283.57 600.856 283.57H627.9C628.06 283.57 628.218 283.602 628.365 283.665L644.43 290.513C646.249 291.289 648.162 289.628 647.65 287.718L646.939 285.062C646.737 284.309 647.304 283.57 648.084 283.57H653.652C657.056 283.57 659.352 280.089 658.011 276.959L648.397 254.514C647.65 252.77 645.935 251.639 644.037 251.639H585.034Z" fill="url(#paint6_linear_1230_14387)" fill-opacity="0.95"/>
<path d="M640.681 266.046C642.734 268.325 642.814 270.917 640.86 271.835C638.905 272.754 635.656 271.65 633.603 269.371C631.549 267.092 631.469 264.5 633.424 263.581C635.378 262.663 638.627 263.766 640.681 266.046Z" fill="white"/>
<path d="M626.067 266.046C628.121 268.325 628.201 270.917 626.247 271.835C624.292 272.754 621.043 271.65 618.99 269.371C616.936 267.092 616.856 264.5 618.81 263.581C620.765 262.663 624.014 263.766 626.067 266.046Z" fill="white"/>
<path d="M610.485 266.046C612.539 268.325 612.619 270.917 610.665 271.835C608.71 272.754 605.461 271.65 603.407 269.371C601.354 267.092 601.274 264.5 603.228 263.581C605.183 262.663 608.432 263.766 610.485 266.046Z" fill="white"/>
<path d="M894.209 325.839L875.947 296.664L807.591 515.635L824.748 526.711L894.209 325.839Z" fill="url(#paint7_linear_1230_14387)"/>
<path d="M951.994 296.664H875.492L894.211 326.587H998.76L951.994 296.664Z" fill="url(#paint8_linear_1230_14387)" fill-opacity="0.8"/>
<path d="M998.76 326.586H893.754L825.861 520.077H867L998.76 326.586Z" fill="url(#paint9_linear_1230_14387)"/>
<path d="M903.908 254.075C905.226 250.185 908.897 247.585 913.004 247.634L967.302 248.272C974.706 248.359 979.16 256.516 975.229 262.792L963.616 281.335C961.882 284.105 958.844 285.786 955.577 285.786H906.395C899.901 285.786 895.327 279.408 897.41 273.257L903.908 254.075Z" fill="#0051AF"/>
<path d="M906.627 256.761C907.93 252.867 911.591 250.254 915.696 250.286L968.513 250.696C975.92 250.754 980.406 258.9 976.495 265.19L965.642 282.644C963.91 285.428 960.865 287.121 957.586 287.121H909.644C903.165 287.121 898.593 280.769 900.649 274.625L906.627 256.761Z" fill="url(#paint10_linear_1230_14387)"/>
<path opacity="0.8" d="M962.503 256.66H969.631L954.911 282.149L947.783 282.149L962.503 256.66Z" fill="white"/>
<path opacity="0.8" d="M944.695 267.584H951.427L943.593 282.149L936.861 282.149L944.695 267.584Z" fill="white"/>
<path opacity="0.8" d="M925.231 257.829C922.77 257.662 920.157 258.204 917.731 259.383C915.305 260.561 913.179 262.323 911.627 264.44C910.076 266.557 909.171 268.931 909.029 271.254C908.888 273.576 909.517 275.742 910.835 277.468C912.153 279.194 914.099 280.402 916.421 280.935C918.743 281.468 921.333 281.302 923.855 280.457C926.378 279.613 928.717 278.129 930.57 276.199C932.422 274.269 933.701 271.981 934.243 269.633L921.771 269.52L925.231 257.829Z" fill="white"/>
<path d="M928.39 256.165C931.511 256.374 934.176 257.713 935.839 259.905C937.501 262.097 938.035 264.978 937.33 267.955L924.943 267.788L928.39 256.165Z" fill="white"/>
<path d="M674.859 307.701L703.5 248.199H864.663L897.71 307.701H674.859Z" fill="url(#paint11_linear_1230_14387)" stroke="url(#paint12_linear_1230_14387)" stroke-width="0.797097"/>
<path d="M722.082 254.328H848.313L870.378 299.45H703.096L722.082 254.328Z" fill="url(#paint13_linear_1230_14387)"/>
<path d="M735.631 508.632L675.449 308.565H897.186L840.987 508.632H735.631Z" fill="url(#paint14_linear_1230_14387)" stroke="#BBFBFF" stroke-width="1.82065"/>
<path d="M709.766 283.041H862.168L870.891 299.449H703.096L709.766 283.041Z" fill="url(#paint15_linear_1230_14387)"/>
<path d="M856.522 218.949L879.613 264.584L870.89 299.964L847.799 254.329L856.522 218.949Z" fill="url(#paint16_linear_1230_14387)"/>
<path d="M718.492 216.387L693.861 268.174L703.098 299.452L722.084 254.33L718.492 216.387Z" fill="url(#paint17_linear_1230_14387)"/>
<g clip-path="url(#clip1_1230_14387)">
<path d="M663.499 190.255L664.604 191.331C674.827 201.214 728.663 251.584 735.671 258.137C736.159 258.596 736.421 258.84 736.421 258.84L747.04 222.486C747.04 222.486 712.788 190.915 687.445 167.644C686.479 166.788 685.025 166.582 683.803 167.151C679.04 169.356 667.701 175.857 663.468 185.658C663.232 186.208 663.016 186.763 662.826 187.332C662.482 188.366 662.728 189.475 663.499 190.255Z" fill="#252533"/>
<path d="M663.499 190.257L664.604 191.333L735.671 261.133V249.275L671.858 186.454L663.468 185.66C663.232 186.21 663.016 186.765 662.826 187.334C662.482 188.368 662.728 189.477 663.499 190.257Z" fill="#131516"/>
<path d="M676.305 178.751C670.386 184.415 663.846 187.916 661.704 186.572C659.556 185.228 662.618 179.545 668.537 173.882C674.455 168.218 680.995 164.717 683.138 166.061C685.285 167.405 682.223 173.088 676.305 178.751Z" fill="white"/>
<path d="M676.247 178.823C671.058 183.788 665.334 186.854 663.454 185.678C661.574 184.501 664.256 179.521 669.445 174.556C674.628 169.591 680.357 166.525 682.237 167.702C684.117 168.878 681.436 173.858 676.247 178.823Z" fill="#88999D"/>
<path d="M637.552 147.074C639.33 150.088 648.716 162.157 651.634 166.194C653.73 169.093 655.867 170.901 657.984 171.943C658.529 172.211 659.048 172.518 659.546 172.852L666.173 179.477L672.457 185.538L684.427 172.384L685.747 170.934L685.244 170.456L683.929 169.217L679.135 164.414C681.062 160.918 680.492 157.187 681.118 154.317C682.526 147.883 688.383 140.559 683.24 140.593C677.599 140.626 673.52 150.365 673.52 150.365C673.52 150.365 670.032 143.836 667.242 133.776C664.653 124.425 659.063 127.419 660.224 133.059C661.503 139.249 664.288 145.314 664.288 145.314L663.173 145.73C663.173 145.73 659.854 141.779 656.237 131.863C653.412 124.123 646.866 127.711 649.738 134.327C651.876 139.253 656.849 147.519 656.849 147.519L656.109 147.868C656.109 147.868 651.742 142.324 648.326 134.499C645.649 128.362 639.402 131.346 641.626 136.728C643.851 142.109 650.016 152.422 650.016 152.422L649.106 152.776C649.106 152.776 645.844 149.385 642.916 144.458C639.037 137.933 634.259 141.511 637.552 147.074Z" fill="#FFB287"/>
<path d="M666.174 179.476L672.457 185.537L684.428 172.382L685.244 170.455L685.558 169.713L684.314 168.651C684.314 168.651 684.181 168.857 683.929 169.216C682.306 171.493 675.678 179.849 666.205 179.438L666.174 179.476Z" fill="#ED8366"/>
<path opacity="0.64" d="M673.526 150.365C673.526 150.365 673.48 150.418 673.398 150.518C673.31 150.624 673.177 150.772 673.007 150.968C672.848 151.159 672.658 151.394 672.442 151.662C672.232 151.929 672 152.24 671.764 152.58C671.641 152.747 671.517 152.924 671.404 153.116C671.281 153.302 671.158 153.494 671.029 153.69C670.803 154.101 670.531 154.512 670.315 154.972C670.202 155.197 670.084 155.421 669.966 155.656C669.863 155.895 669.76 156.134 669.653 156.373L669.488 156.737L669.355 157.11L669.082 157.861C668.908 158.363 668.795 158.885 668.63 159.382C668.533 159.894 668.42 160.401 668.312 160.894C668.25 161.391 668.173 161.869 668.101 162.333C668.055 162.563 668.06 162.788 668.039 163.008C668.019 163.228 668.003 163.438 667.983 163.644C667.952 164.051 667.896 164.429 667.906 164.763C667.906 165.098 667.885 165.395 667.875 165.634C667.849 166.122 667.818 166.409 667.818 166.409C667.818 166.409 667.716 166.146 667.572 165.672C667.5 165.438 667.407 165.146 667.32 164.811C667.212 164.476 667.156 164.094 667.099 163.673C667.048 163.252 666.95 162.793 666.95 162.305C666.95 161.817 666.935 161.295 666.95 160.76C667.012 160.224 667.079 159.674 667.166 159.109C667.305 158.559 667.433 157.99 667.613 157.44C667.834 156.899 667.993 156.34 668.281 155.833C668.414 155.579 668.543 155.321 668.676 155.072C668.82 154.828 668.974 154.594 669.129 154.364C669.411 153.891 669.781 153.494 670.089 153.097C670.433 152.719 670.752 152.365 671.091 152.073C671.261 151.925 671.41 151.776 671.569 151.652C671.733 151.528 671.882 151.413 672.031 151.303C672.319 151.083 672.591 150.915 672.812 150.781C673.038 150.643 673.213 150.557 673.336 150.494C673.465 150.427 673.537 150.389 673.537 150.389L673.526 150.365Z" fill="#ED8366"/>
<path d="M686.307 168.935L683.24 166.112C683.25 166.141 683.009 166.146 683.019 166.174C683.62 168.317 680.99 173.072 675.78 177.832C669.512 183.558 663.666 187.776 661.523 186.432L664.914 189.255C667.062 190.599 673.735 186.801 679.654 181.137C685.572 175.473 687.915 170.384 686.312 168.935H686.307Z" fill="white"/>
<path d="M844.881 303.369C841.787 305.073 832.695 308.044 818.322 306.525L818.937 247.108L807.948 220.341L810.204 212.984C810.204 212.984 804.222 209.013 809.375 209.954C814.844 210.954 819.467 213.925 827.397 220.57C833.259 225.482 841.24 234.373 842.403 254.213C843.026 264.763 846.462 293.82 846.513 300.747C846.513 301.806 845.906 302.806 844.872 303.377L844.881 303.369Z" fill="#252533"/>
<path d="M820.758 309.306L826.065 309.343L823.108 241.725L820.622 307.787C820.587 308.343 820.639 308.854 820.767 309.306H820.758Z" fill="#272735"/>
<path d="M825.835 226.19L821.751 261.807L810.32 244.113L802.1 231.384L797.07 223.602C797.07 223.602 797.152 223.516 797.312 223.367C798.555 222.186 804.427 216.962 811.373 216.8C816.069 216.69 821.258 218.885 825.835 226.19Z" fill="#252533"/>
<path d="M790.524 225.465H772.131C748.915 225.465 736.158 244.9 736.158 266.516H827.971C827.971 244.9 813.74 225.465 790.524 225.465Z" fill="#252533"/>
<path d="M808.724 321.118H754.092V244.311C754.092 233.309 763.668 224.393 775.485 224.393H787.332C799.148 224.393 808.724 233.309 808.724 244.311V321.118Z" fill="white"/>
<path d="M762.907 240.562C762.907 240.562 762.521 310.998 765.219 320.565C767.885 330.022 756.613 322.995 756.613 322.995L757.985 229.488L762.907 240.562Z" fill="#CEBABA"/>
<path d="M800.095 240.565C800.095 240.565 800.48 311.001 797.783 320.568C795.117 330.025 806.388 322.998 806.388 322.998L805.017 231.726L800.095 240.565Z" fill="#CEBABA"/>
<path d="M791.47 307.922L784.066 249.262C784.38 249.028 784.667 248.746 784.909 248.416L788.546 243.441C790.118 241.293 789.337 238.356 786.871 237.136L786.769 237.089C783.414 235.429 779.391 235.429 776.036 237.089L775.934 237.136C773.473 238.356 772.692 241.293 774.259 243.441L777.896 248.416C778.174 248.794 778.502 249.105 778.867 249.358L771.479 307.922C771.413 308.324 771.551 308.73 771.854 309.027L780.449 317.403C781.004 317.943 781.934 317.943 782.489 317.403L791.084 309.027C791.387 308.735 791.526 308.324 791.459 307.922H791.47Z" fill="#CEBABA"/>
<path d="M781.483 219.622C766.276 219.622 749.903 231.164 769.117 248.748L781.483 236.106L793.849 248.748C813.064 231.16 796.691 219.622 781.483 219.622Z" fill="#CEBABA"/>
<path d="M788.621 239.323L784.978 244.298C783.298 246.598 779.656 246.598 777.976 244.298L774.338 239.323C772.766 237.18 773.547 234.238 776.008 233.018L776.111 232.97C779.466 231.311 783.488 231.311 786.843 232.97L786.946 233.018C789.407 234.238 790.188 237.18 788.621 239.323Z" fill="#F93E3E"/>
<path d="M788.621 239.323C788.621 239.323 784.999 234.941 781.402 234.941C777.806 234.941 774.338 239.323 774.338 239.323C772.766 237.18 773.547 234.238 776.008 233.018L776.111 232.97C779.466 231.311 783.488 231.311 786.843 232.97L786.946 233.018C789.407 234.238 790.188 237.18 788.621 239.323Z" fill="#BA3131"/>
<path d="M832.745 332.694L813.782 331.259C806.991 331.259 801.488 324.232 801.488 315.56L801.858 251.562H827.977L832.745 332.694Z" fill="#252533"/>
<path d="M761.334 251.076V315.48C761.334 324.152 755.061 331.179 747.318 331.179L731.027 332.614L736.165 251.076L738.862 237.62L761.334 251.076Z" fill="#252533"/>
<path d="M745.876 235.154C745.136 236.714 745.748 238.632 747.032 239.722L754.939 246.434L747.571 252.269C746.272 253.298 745.578 254.967 745.727 256.675C746.292 263.147 750.952 280.75 761.335 299.29L761.371 294.813L760.523 234.642C760.523 234.642 758.776 219.737 779.476 219.737C779.476 219.737 754.348 217.255 745.871 235.159L745.876 235.154Z" fill="#131516"/>
<path d="M814.783 252.272C816.037 253.3 816.705 254.965 816.561 256.677C816.021 263.149 810.535 282.417 801.498 299.293L801.462 291.754L802.279 234.64C802.279 234.64 802.433 233.282 802.099 231.383C801.677 229.015 800.501 225.815 797.311 223.366C798.554 222.184 804.426 216.96 811.372 216.798C809.358 223.499 809.25 225.432 811.557 227.733C813.432 229.608 815.164 232.401 816.422 235.157C817.136 236.716 816.546 238.634 815.307 239.725L810.319 244.111L807.673 246.436L814.783 252.272Z" fill="#131516"/>
<path d="M736.961 226.186L741.045 261.803L752.476 244.109L760.696 231.381L765.726 223.598C765.726 223.598 765.644 223.512 765.485 223.364C764.241 222.182 758.369 216.959 751.423 216.796C746.727 216.686 741.538 218.881 736.961 226.186Z" fill="#252533"/>
<path d="M748.012 252.272C746.758 253.3 746.09 254.965 746.234 256.677C746.773 263.149 752.26 282.417 761.297 299.293L761.333 291.754L760.516 234.64C760.516 234.64 760.362 233.282 760.696 231.383C761.117 229.015 762.294 225.815 765.484 223.366C764.241 222.184 758.369 216.96 751.423 216.798C753.437 223.499 753.545 225.432 751.238 227.733C749.363 229.608 747.631 232.401 746.373 235.157C745.659 236.716 746.249 238.634 747.487 239.725L752.476 244.111L755.122 246.436L748.012 252.272Z" fill="#131516"/>
<path d="M813.579 248.374L806.725 242.638L814.082 236.042C815.279 234.97 815.926 233.047 815.156 231.55C803.848 209.561 783.889 214.952 783.889 214.952C801.536 215.779 801.521 231.043 801.521 231.043L801.454 293.859C809.895 276.165 814.765 259.074 815.289 252.707C815.428 251.024 814.781 249.383 813.573 248.374H813.579Z" fill="#323244"/>
<path d="M749.202 248.374L756.056 242.638L748.699 236.042C747.502 234.97 746.855 233.047 747.625 231.55C758.933 209.561 778.892 214.952 778.892 214.952C761.245 215.779 761.26 231.043 761.26 231.043L761.327 293.859C752.886 276.165 748.016 259.074 747.492 252.707C747.353 251.024 748 249.383 749.208 248.374H749.202Z" fill="#323244"/>
<path d="M781.478 214.388C765.68 214.388 748.664 226.38 768.629 244.653L781.478 231.517L794.327 244.653C814.291 226.38 797.281 214.388 781.478 214.388Z" fill="white"/>
<path d="M767.562 221.467C767.562 227.03 773.393 231.536 780.96 231.536C788.528 231.536 794.662 227.03 794.662 221.467V209.709H767.557V221.467H767.562Z" fill="#FFB287"/>
<path d="M767.562 218.424C767.562 223.04 773.393 226.78 780.96 226.78C788.528 226.78 794.662 223.04 794.662 218.424V200.782H767.557V218.424H767.562Z" fill="#F58D6C"/>
<path d="M791.09 306.345L782.495 314.725C781.94 315.266 781.01 315.266 780.455 314.725L771.86 306.345C771.557 306.053 771.418 305.646 771.485 305.24L778.375 248.527L778.781 245.188L778.93 243.964H784.026L784.175 245.188L784.678 249.35C784.678 249.35 784.684 249.355 784.684 249.36L791.465 305.24C791.532 305.646 791.393 306.053 791.09 306.345Z" fill="#F93E3E"/>
<path d="M755.08 137.584C755.224 137.871 755.357 138.182 755.486 138.517C755.322 138.211 755.188 137.9 755.08 137.584Z" fill="#993E39"/>
<path opacity="0.48" d="M784.686 249.357C784.686 249.357 784.686 249.352 784.681 249.347C784.234 247.941 783.304 246.817 781.531 246.817C780.057 246.817 779.029 247.319 778.377 248.524L778.783 245.186C778.783 245.186 780.247 246.224 781.444 246.224C782.641 246.224 784.177 245.186 784.177 245.186L784.686 249.357Z" fill="#BA3131"/>
<g clip-path="url(#clip2_1230_14387)">
<path d="M877.907 136.074C877.907 148.69 875.435 161.183 870.631 172.838C865.827 184.494 858.786 195.084 849.91 204.005C841.034 212.925 830.496 220.001 818.899 224.828C807.302 229.656 794.873 232.14 782.321 232.139C769.769 232.14 757.339 229.656 745.743 224.828C734.146 220.001 723.609 212.925 714.733 204.005C705.857 195.084 698.817 184.494 694.013 172.838C689.21 161.183 686.738 148.69 686.738 136.074C686.738 123.458 689.21 110.966 694.013 99.3095C698.816 87.6534 705.857 77.0623 714.732 68.141C723.608 59.2196 734.145 52.1428 745.742 47.3144C757.339 42.4859 769.768 40.0004 782.321 40C794.874 40 807.303 42.4849 818.901 47.3131C830.498 52.1414 841.035 59.2183 849.911 68.1397C858.787 77.0611 865.828 87.6524 870.632 99.3087C875.435 110.965 877.907 123.458 877.907 136.074Z" fill="white"/>
<path d="M741.551 139.076V139.035C741.682 138.723 741.744 138.386 741.735 138.047C741.739 137.692 741.673 137.34 741.541 137.011C741.409 136.682 741.214 136.384 740.967 136.132C740.72 135.88 740.426 135.68 740.103 135.544C739.779 135.408 739.432 135.339 739.081 135.34H689.392C689.044 135.339 688.698 135.407 688.376 135.541C688.054 135.675 687.761 135.873 687.514 136.123C687.267 136.372 687.072 136.668 686.939 136.994C686.806 137.32 686.737 137.67 686.738 138.023V138.111C687.378 161.598 696.45 184.044 712.255 201.25C712.274 201.267 712.295 201.281 712.318 201.291C712.562 201.548 712.855 201.753 713.179 201.893C713.503 202.032 713.851 202.104 714.203 202.103C714.731 202.103 715.246 201.945 715.685 201.65C716.124 201.354 716.467 200.934 716.67 200.441L741.551 139.076ZM825.855 218.799C825.832 218.772 825.82 218.737 825.822 218.701L795.846 144.754C795.821 144.714 795.806 144.669 795.803 144.622C794.719 141.892 792.853 139.554 790.444 137.908C788.035 136.263 785.195 135.386 782.289 135.39C779.563 135.388 776.891 136.161 774.579 137.623C772.267 139.085 770.408 141.176 769.214 143.657L738.767 218.721C738.636 219.051 738.57 219.404 738.573 219.76C738.577 220.232 738.703 220.694 738.937 221.101C739.172 221.508 739.507 221.846 739.91 222.081C739.93 222.122 739.967 222.122 740.027 222.166C753.174 228.739 767.643 232.15 782.306 232.135C796.967 232.158 811.436 228.749 824.581 222.176C824.608 222.165 824.631 222.146 824.648 222.122C825.075 221.897 825.431 221.556 825.678 221.138C825.925 220.72 826.052 220.24 826.046 219.753C826.046 219.418 825.984 219.087 825.861 218.776L825.855 218.799ZM877.907 138.131C877.897 138.107 877.889 138.081 877.887 138.054C877.889 137.699 877.823 137.347 877.69 137.019C877.558 136.691 877.363 136.392 877.117 136.14C876.87 135.889 876.577 135.689 876.253 135.553C875.93 135.417 875.583 135.346 875.233 135.346H825.544C825.194 135.346 824.848 135.417 824.525 135.553C824.202 135.689 823.909 135.889 823.663 136.141C823.417 136.393 823.222 136.692 823.091 137.02C822.959 137.348 822.893 137.7 822.897 138.054C822.891 138.41 822.961 138.763 823.104 139.089L847.969 200.441C848.162 200.935 848.498 201.357 848.933 201.653C849.368 201.95 849.881 202.107 850.405 202.103C850.751 202.106 851.094 202.039 851.413 201.906C851.733 201.773 852.023 201.577 852.267 201.328C852.297 201.297 852.332 201.271 852.371 201.25C868.163 184.043 877.239 161.61 877.907 138.131Z" fill="#0C70C3"/>
<path d="M795.96 48.5413H796C796.08 64.7884 799.155 80.8777 805.065 95.9831L809.658 107.343C809.826 107.744 810.086 108.099 810.416 108.379C810.746 108.659 811.136 108.856 811.556 108.953H811.583C811.663 108.963 811.742 108.979 811.82 109.001H811.85H812.097H870.313C871.019 109.001 871.696 108.719 872.197 108.215C872.698 107.712 872.982 107.029 872.987 106.314C872.986 106.031 872.936 105.75 872.84 105.485V105.461C867.324 89.0808 857.574 74.495 844.605 63.2205C831.636 51.9461 815.92 44.3944 799.092 41.3506C799.051 41.3465 799.009 41.3465 798.968 41.3506C798.858 41.3405 798.738 41.3238 798.634 41.3238C797.93 41.3237 797.254 41.6046 796.754 42.1057C796.253 42.6068 795.968 43.2878 795.96 44.0005V48.5413Z" fill="#0C70C3"/>
<path d="M752.518 109.001H694.32L694.316 109.011C693.612 109.006 692.939 108.719 692.442 108.214C691.945 107.71 691.665 107.027 691.662 106.314C691.662 106.033 691.705 105.753 691.789 105.485C691.795 105.463 691.795 105.44 691.789 105.418C697.312 89.0495 707.062 74.4761 720.026 63.2098C732.99 51.9436 748.696 44.3948 765.514 41.3473C765.557 41.3426 765.601 41.3426 765.644 41.3473C765.761 41.3372 765.868 41.3205 765.978 41.3205C766.328 41.3165 766.675 41.3827 766.999 41.5155C767.323 41.6482 767.619 41.8444 767.867 42.0933C768.116 42.3423 768.313 42.639 768.448 42.9657C768.583 43.2925 768.652 43.6431 768.652 43.9972V48.538C768.554 64.7761 765.475 80.8545 759.571 95.9529L754.972 107.333C754.785 107.793 754.476 108.192 754.08 108.486C753.684 108.781 753.215 108.959 752.726 109.001H752.518Z" fill="#0C70C3"/>
</g>
<g opacity="0.2">
<path fill-rule="evenodd" clip-rule="evenodd" d="M766.928 215.571C819.718 215.571 862.513 172.559 862.513 119.502C862.513 98.2409 855.641 78.5932 844.009 62.6797C864.742 80.3022 877.907 106.64 877.907 136.068C877.907 189.126 835.112 232.137 782.323 232.137C750.686 232.137 722.64 216.69 705.242 192.89C721.89 207.04 743.418 215.571 766.928 215.571Z" fill="black"/>
</g>
<path style="mix-blend-mode:overlay" d="M688.395 121.919C696.048 69.3482 741.276 32.6424 796.092 40.7307C849.307 47.352 883.729 97.3515 876.079 149.923C868.426 202.494 820.209 238.843 768.382 231.112C716.556 223.377 680.745 174.491 688.395 121.919Z" fill="url(#paint18_radial_1230_14387)"/>
</g>
<g style="mix-blend-mode:screen">
<path d="M629.17 67.3105H941.108L870.709 299.14H703.21L629.17 67.3105Z" fill="url(#paint19_linear_1230_14387)"/>
</g>
<g style="mix-blend-mode:darken">
<ellipse cx="933.217" cy="311.276" rx="23.6684" ry="3.6413" fill="black" fill-opacity="0.1"/>
</g>
<g style="mix-blend-mode:darken">
<ellipse cx="636.452" cy="311.276" rx="23.6684" ry="3.6413" fill="black" fill-opacity="0.1"/>
</g>
</g>
<rect x="572" y="163" width="6" height="6" transform="rotate(-180 572 163)" fill="#15FFFF"/>
<rect x="572" y="153" width="6" height="6" transform="rotate(-180 572 153)" fill="#C8FCFF"/>
<rect x="562" y="163" width="6" height="6" transform="rotate(-180 562 163)" fill="#69F6FF"/>
<defs>
<linearGradient id="paint0_linear_1230_14387" x1="225.5" y1="389.168" x2="42.7409" y2="-23.5005" gradientUnits="userSpaceOnUse">
<stop stop-color="#024FC3"/>
<stop offset="1" stop-color="#0099DB"/>
</linearGradient>
<linearGradient id="paint1_linear_1230_14387" x1="1349.99" y1="611.648" x2="237.735" y2="-474.152" gradientUnits="userSpaceOnUse">
<stop stop-color="#00F9FF"/>
<stop offset="0.135" stop-color="white"/>
<stop offset="0.33" stop-color="#61FBFF"/>
<stop offset="0.51" stop-color="#73FCFF"/>
<stop offset="1" stop-color="white"/>
</linearGradient>
<linearGradient id="paint2_linear_1230_14387" x1="696.733" y1="296.664" x2="732.163" y2="479.403" gradientUnits="userSpaceOnUse">
<stop stop-color="#E89900"/>
<stop offset="0.635" stop-color="#DE9B18" stop-opacity="0.53"/>
<stop offset="1" stop-color="#F2FEFF"/>
</linearGradient>
<linearGradient id="paint3_linear_1230_14387" x1="570.908" y1="327.464" x2="683.97" y2="277.653" gradientUnits="userSpaceOnUse">
<stop stop-color="#FFA439"/>
<stop offset="1" stop-color="#FFE0A5"/>
</linearGradient>
<linearGradient id="paint4_linear_1230_14387" x1="623.977" y1="327.463" x2="646.459" y2="488.073" gradientUnits="userSpaceOnUse">
<stop stop-color="#FFC14A"/>
<stop offset="1" stop-color="#F2FEFF"/>
</linearGradient>
<linearGradient id="paint5_linear_1230_14387" x1="651.478" y1="289.9" x2="632.02" y2="232.929" gradientUnits="userSpaceOnUse">
<stop stop-color="#BB4300"/>
<stop offset="1" stop-color="#F87B00" stop-opacity="0.79"/>
</linearGradient>
<linearGradient id="paint6_linear_1230_14387" x1="658.4" y1="257.036" x2="621.257" y2="317.331" gradientUnits="userSpaceOnUse">
<stop stop-color="#FFB55D"/>
<stop offset="1" stop-color="#FFDB1F"/>
</linearGradient>
<linearGradient id="paint7_linear_1230_14387" x1="878.605" y1="296.664" x2="740.626" y2="382.532" gradientUnits="userSpaceOnUse">
<stop stop-color="#26C8DE"/>
<stop offset="0.3714" stop-color="#38BFD5"/>
<stop offset="1" stop-color="#F4FDFF"/>
</linearGradient>
<linearGradient id="paint8_linear_1230_14387" x1="998.76" y1="326.587" x2="890.198" y2="279.574" gradientUnits="userSpaceOnUse">
<stop stop-color="#5EBEFF"/>
<stop offset="1" stop-color="#61FBFF"/>
</linearGradient>
<linearGradient id="paint9_linear_1230_14387" x1="864.999" y1="517.986" x2="885.526" y2="350.464" gradientUnits="userSpaceOnUse">
<stop stop-color="#F2FEFF"/>
<stop offset="1" stop-color="#02D9E7"/>
</linearGradient>
<linearGradient id="paint10_linear_1230_14387" x1="924.118" y1="283.057" x2="970.089" y2="227.905" gradientUnits="userSpaceOnUse">
<stop stop-color="#00B3FF"/>
<stop offset="1" stop-color="#36FFFF"/>
</linearGradient>
<linearGradient id="paint11_linear_1230_14387" x1="1025.16" y1="188.384" x2="651.345" y2="242.004" gradientUnits="userSpaceOnUse">
<stop stop-color="white"/>
<stop offset="1" stop-color="#0073DD"/>
</linearGradient>
<linearGradient id="paint12_linear_1230_14387" x1="893.066" y1="252.288" x2="777.88" y2="307.503" gradientUnits="userSpaceOnUse">
<stop stop-color="#7CFFE7"/>
<stop offset="1" stop-color="#9CFFE7"/>
</linearGradient>
<linearGradient id="paint13_linear_1230_14387" x1="867.116" y1="254.328" x2="706.509" y2="270.462" gradientUnits="userSpaceOnUse">
<stop stop-color="#0F87E1"/>
<stop offset="1" stop-color="#005083"/>
</linearGradient>
<linearGradient id="paint14_linear_1230_14387" x1="654.659" y1="307.637" x2="818.005" y2="360.452" gradientUnits="userSpaceOnUse">
<stop stop-color="#59D7FF"/>
<stop offset="1" stop-color="#0164D9"/>
<stop offset="1.0001" stop-color="#007DF1"/>
</linearGradient>
<linearGradient id="paint15_linear_1230_14387" x1="783.658" y1="283.041" x2="783.658" y2="299.449" gradientUnits="userSpaceOnUse">
<stop stop-color="#004570" stop-opacity="0"/>
<stop offset="1" stop-color="#00609F" stop-opacity="0.41"/>
</linearGradient>
<linearGradient id="paint16_linear_1230_14387" x1="869.864" y1="247.15" x2="860.127" y2="277.92" gradientUnits="userSpaceOnUse">
<stop stop-color="white" stop-opacity="0"/>
<stop offset="1" stop-color="white" stop-opacity="0.5"/>
</linearGradient>
<linearGradient id="paint17_linear_1230_14387" x1="699.506" y1="246.639" x2="713.856" y2="277.925" gradientUnits="userSpaceOnUse">
<stop stop-color="white" stop-opacity="0"/>
<stop offset="1" stop-color="white" stop-opacity="0.5"/>
</linearGradient>
<radialGradient id="paint18_radial_1230_14387" cx="0" cy="0" r="1" gradientUnits="userSpaceOnUse" gradientTransform="translate(725.054 58.5937) rotate(57.5638) scale(149.486 193.556)">
<stop stop-color="white"/>
<stop offset="0.655" stop-color="#007AEB" stop-opacity="0.6"/>
<stop offset="1" stop-color="#0055A3" stop-opacity="0.6"/>
</radialGradient>
<linearGradient id="paint19_linear_1230_14387" x1="804.503" y1="158.343" x2="808.504" y2="319.773" gradientUnits="userSpaceOnUse">
<stop stop-color="#BDE7FF" stop-opacity="0"/>
<stop offset="0.807731" stop-color="#27A4FF" stop-opacity="0.3"/>
<stop offset="1" stop-color="#2287FF" stop-opacity="0.77"/>
</linearGradient>
<clipPath id="clip0_1230_14387">
<rect width="481.184" height="325" fill="white" transform="translate(532.408 40)"/>
</clipPath>
<clipPath id="clip1_1230_14387">
<rect width="241.174" height="259.451" fill="white" transform="translate(636.451 40)"/>
</clipPath>
<clipPath id="clip2_1230_14387">
<rect width="191.169" height="192.139" fill="white" transform="translate(686.738 40)"/>
</clipPath>
</defs>
</svg>
