<svg width="744" height="672" viewBox="0 0 744 672" fill="none" xmlns="http://www.w3.org/2000/svg">
<g filter="url(#filter0_d_1230_14607)">
<path d="M20 60L60 20L372 20L684 20L724 60V345.515V612L684 652H372H60L20 612V60Z" fill="url(#paint0_linear_1230_14607)"/>
<path d="M60.4142 651L21 611.586V60.4142L60.4142 21H372H683.586L723 60.4142V345.515V611.586L683.586 651H372H60.4142Z" stroke="url(#paint1_linear_1230_14607)" stroke-width="2"/>
</g>
<path d="M54.6288 89.0362H90.3088V93.5162H54.6288V89.0362ZM64.7888 103.436H82.7088V107.436H64.7888V103.436ZM81.1488 96.6762H85.8288V116.556C85.8288 118.916 85.3888 120.236 83.7488 120.996C82.1488 121.716 79.8688 121.756 76.6288 121.756C76.4288 120.436 75.7888 118.396 75.1488 117.156C77.2288 117.276 79.5888 117.236 80.2688 117.236C80.9088 117.236 81.1488 117.036 81.1488 116.476V96.6762ZM67.0288 84.1562L71.9888 85.2762C69.2288 94.1162 64.4688 103.116 56.9088 108.436C56.1888 107.356 54.6688 105.636 53.7088 104.716C60.6288 100.156 65.0688 91.7162 67.0288 84.1562ZM64.6688 110.036H82.7088V114.036H64.6688V110.036ZM64.5088 96.6762H82.2288V100.916H64.5088V96.6762ZM61.8688 96.6762H66.7088V107.396C66.7088 112.196 65.9088 118.436 61.5888 122.076C60.9488 121.076 59.0688 119.036 58.1088 118.356C61.5888 115.356 61.8688 111.076 61.8688 107.316V96.6762ZM106.589 103.476H120.109V116.076H106.589V112.156H115.629V107.396H106.589V103.476ZM104.549 103.476H108.989V118.356H104.549V103.476ZM97.9888 91.5162H108.029V94.7962H97.9888V91.5162ZM116.549 91.5162H126.669V94.7962H116.549V91.5162ZM124.669 85.7162H129.509V115.996C129.509 118.716 128.949 120.076 127.309 120.876C125.629 121.676 123.109 121.756 119.429 121.756C119.269 120.396 118.469 118.116 117.789 116.876C120.109 116.996 122.869 116.956 123.629 116.956C124.389 116.956 124.669 116.676 124.669 115.956V85.7162ZM98.3888 85.7162H111.029V100.716H98.3888V97.0363H106.549V89.3962H98.3888V85.7162ZM127.269 85.7162V89.3562H118.309V97.1162H127.269V100.756H113.749V85.7162H127.269ZM95.6288 85.7162H100.389V121.756H95.6288V85.7162ZM140.269 93.8762V95.7962H145.949V93.8762H140.269ZM140.269 88.9562V90.8362H145.949V88.9562H140.269ZM136.029 85.7562H150.389V99.0362H136.029V85.7562ZM134.149 101.316H152.189V104.836H134.149V101.316ZM152.029 85.8762H170.469V89.2362H152.029V85.8762ZM141.629 102.436H145.629V118.516L141.629 116.196V102.436ZM143.709 108.076H151.469V111.516H143.709V108.076ZM159.749 86.6762L164.109 87.6362C163.149 89.8762 162.109 92.2762 161.269 93.8362L157.869 92.9562C158.589 91.1562 159.349 88.5562 159.749 86.6762ZM157.549 99.5562V101.436H164.829V99.5562H157.549ZM157.549 104.476V106.396H164.829V104.476H157.549ZM157.549 94.5962V96.4762H164.829V94.5962H157.549ZM153.269 91.3562H169.269V109.676H153.269V91.3562ZM156.509 109.956L160.469 111.156C158.749 113.436 155.909 115.716 153.429 117.076C152.749 116.316 151.229 114.916 150.349 114.276C152.749 113.236 155.149 111.596 156.509 109.956ZM135.989 106.396H139.829C139.629 112.516 139.029 118.396 135.989 121.996C135.429 120.996 134.149 119.476 133.189 118.756C135.469 115.956 135.869 111.236 135.989 106.396ZM139.189 109.756C141.429 116.476 146.429 117.156 154.589 117.196C157.269 117.196 168.309 117.196 171.589 117.036C170.949 117.956 170.269 119.796 170.029 120.996H154.589C144.669 120.996 139.189 119.636 136.349 110.596L139.189 109.756ZM162.189 111.396L165.469 109.676C167.629 111.076 170.109 113.236 171.349 114.756L167.909 116.796C166.669 115.196 164.189 112.876 162.189 111.396ZM189.211 98.7162V102.076H195.931V98.7162H189.211ZM185.091 94.9962H200.331V105.796H185.091V94.9962ZM183.371 88.7562H201.731V92.9562H183.371V88.7562ZM202.171 94.3962H220.091V98.6762H202.171V94.3962ZM210.051 100.716H214.171V115.956C214.171 116.636 214.211 117.076 214.331 117.236C214.491 117.356 214.691 117.436 214.931 117.436C215.171 117.436 215.651 117.436 215.971 117.436C216.211 117.436 216.491 117.396 216.651 117.276C216.851 117.196 216.971 116.836 217.051 116.116C217.131 115.436 217.171 113.716 217.171 111.676C218.051 112.476 219.691 113.276 220.891 113.676C220.811 115.596 220.611 117.716 220.331 118.636C220.011 119.596 219.531 120.196 218.811 120.516C218.171 120.916 217.171 120.996 216.411 120.996C215.691 120.996 214.531 120.996 213.891 120.996C212.931 120.996 211.771 120.716 211.091 120.076C210.371 119.396 210.051 118.556 210.051 115.756V100.716ZM207.331 84.2762H211.851C211.731 97.4762 211.451 112.916 202.211 121.876C201.491 120.836 200.091 119.596 198.851 118.876C207.611 110.836 207.251 96.5162 207.331 84.2762ZM190.851 104.676H195.091V117.156C195.091 119.036 194.811 120.156 193.571 120.836C192.331 121.436 190.771 121.516 188.611 121.516C188.451 120.316 187.851 118.636 187.291 117.556C188.531 117.596 189.851 117.596 190.291 117.556C190.731 117.556 190.851 117.436 190.851 117.036V104.676ZM186.051 106.916L189.931 107.756C189.051 111.716 187.571 115.876 185.891 118.516C185.171 117.876 183.531 116.716 182.651 116.236C184.251 113.916 185.371 110.356 186.051 106.916ZM195.691 107.956L199.011 106.436C200.291 108.676 201.531 111.596 201.971 113.556L198.451 115.236C198.091 113.236 196.931 110.196 195.691 107.956ZM212.051 87.3962L215.171 85.5962C216.771 87.3962 218.651 89.9962 219.411 91.7162L216.131 93.7562C215.411 92.0362 213.651 89.3562 212.051 87.3962ZM189.451 85.0762L193.851 84.1162C194.691 85.7962 195.571 88.0362 195.931 89.4762L191.291 90.5562C191.011 89.1162 190.211 86.7962 189.451 85.0762ZM222.571 104.516C226.251 103.756 231.771 102.436 236.891 101.076L237.451 105.516C232.811 106.796 227.731 108.116 223.811 109.116L222.571 104.516ZM223.051 91.7962H237.051V96.2762H223.051V91.7962ZM228.051 84.1962H232.731V116.396C232.731 118.676 232.291 119.876 230.971 120.596C229.611 121.316 227.691 121.436 224.851 121.436C224.691 120.236 224.091 118.276 223.531 117.076C225.091 117.156 226.771 117.116 227.291 117.116C227.851 117.116 228.051 116.916 228.051 116.356V84.1962ZM237.491 94.8362L259.371 92.7162L259.851 97.1962L237.971 99.4362L237.491 94.8362ZM248.411 86.9562L252.091 84.5962C253.851 86.3162 256.291 88.7962 257.491 90.3962L253.611 93.0762C252.531 91.4362 250.171 88.7962 248.411 86.9562ZM242.011 84.3962H246.931C247.211 101.716 249.611 114.916 254.851 115.676C255.771 115.796 256.291 113.836 256.531 109.516C257.491 110.556 259.611 111.876 260.571 112.316C259.491 119.796 257.331 121.636 255.091 121.436C245.251 120.436 242.731 106.196 242.011 84.3962ZM254.171 98.7562L258.131 101.156C254.491 109.116 247.371 116.756 239.571 120.436C238.691 119.196 237.091 117.676 235.731 116.716C243.851 113.556 250.851 106.316 254.171 98.7562ZM283.931 100.956H288.891V114.796C288.891 116.356 289.131 116.556 290.411 116.556C290.971 116.556 293.331 116.556 294.051 116.556C295.411 116.556 295.651 115.556 295.811 109.756C296.851 110.596 298.971 111.436 300.251 111.756C299.771 118.996 298.571 121.076 294.491 121.076C293.571 121.076 290.531 121.076 289.651 121.076C285.091 121.076 283.931 119.516 283.931 114.836V100.956ZM263.611 97.8762H299.491V102.556H263.611V97.8762ZM267.251 86.9962H295.811V91.6362H267.251V86.9962ZM272.771 101.556H277.931C277.291 110.356 275.771 117.596 265.691 121.636C265.171 120.436 263.811 118.676 262.731 117.756C271.531 114.476 272.291 108.596 272.771 101.556ZM324.091 104.276H328.931V115.116C328.931 116.436 329.131 116.596 330.371 116.596C330.931 116.596 333.171 116.596 333.851 116.596C335.051 116.596 335.251 115.876 335.411 111.156C336.411 111.916 338.491 112.716 339.811 113.036C339.331 119.436 338.051 121.156 334.291 121.156C333.371 121.156 330.531 121.156 329.651 121.156C325.131 121.156 324.091 119.636 324.091 115.116V104.276ZM303.691 100.716H339.411V105.356H303.691V100.716ZM310.291 89.5962H336.251V94.1962H310.291V89.5962ZM313.331 104.356H318.371C317.611 111.916 315.731 118.316 306.091 121.956C305.531 120.676 304.171 118.716 303.051 117.756C311.611 114.996 312.731 110.036 313.331 104.356ZM310.251 84.7562L315.131 85.7162C313.851 90.4362 311.811 96.1962 309.131 99.7162C308.011 98.9962 306.051 97.9962 304.851 97.5562C307.491 94.2762 309.371 88.8762 310.251 84.7562ZM319.131 84.1962H324.011V102.156H319.131V84.1962ZM349.811 91.4362H377.651V96.1163H349.811V91.4362ZM348.171 103.236H376.131V107.836H348.171V103.236ZM343.531 115.916H379.691V120.596H343.531V115.916ZM359.091 84.1962H364.091V118.236H359.091V84.1962ZM349.851 84.6762L354.811 85.7962C353.051 91.9962 350.131 98.1562 347.011 101.996C346.051 101.156 343.931 99.7562 342.691 99.0762C345.851 95.7162 348.411 90.1962 349.851 84.6762Z" fill="white"/>
<path d="M69.478 139.466C67.516 141.14 65.914 144.164 65.914 147.854C65.914 151.562 67.516 154.586 69.478 156.26V156.35H63.88V139.376H69.478V139.466ZM80.08 146.954H82.312V153.182C82.312 153.884 82.42 153.974 82.996 153.974C83.248 153.974 84.31 153.974 84.634 153.974C85.246 153.974 85.354 153.524 85.426 150.914C85.894 151.292 86.848 151.67 87.424 151.814C87.208 155.072 86.668 156.008 84.832 156.008C84.418 156.008 83.05 156.008 82.654 156.008C80.602 156.008 80.08 155.306 80.08 153.2V146.954ZM70.936 145.568H87.082V147.674H70.936V145.568ZM72.574 140.672H85.426V142.76H72.574V140.672ZM75.058 147.224H77.38C77.092 151.184 76.408 154.442 71.872 156.26C71.638 155.72 71.026 154.928 70.54 154.514C74.5 153.038 74.842 150.392 75.058 147.224ZM98.152 148.448H100.33V153.326C100.33 153.92 100.42 153.992 100.978 153.992C101.23 153.992 102.238 153.992 102.544 153.992C103.084 153.992 103.174 153.668 103.246 151.544C103.696 151.886 104.632 152.246 105.226 152.39C105.01 155.27 104.434 156.044 102.742 156.044C102.328 156.044 101.05 156.044 100.654 156.044C98.62 156.044 98.152 155.36 98.152 153.326V148.448ZM88.972 146.846H105.046V148.934H88.972V146.846ZM91.942 141.842H103.624V143.912H91.942V141.842ZM93.31 148.484H95.578C95.236 151.886 94.39 154.766 90.052 156.404C89.8 155.828 89.188 154.946 88.684 154.514C92.536 153.272 93.04 151.04 93.31 148.484ZM91.924 139.664L94.12 140.096C93.544 142.22 92.626 144.812 91.42 146.396C90.916 146.072 90.034 145.622 89.494 145.424C90.682 143.948 91.528 141.518 91.924 139.664ZM95.92 139.412H98.116V147.494H95.92V139.412ZM109.726 142.67H122.254V144.776H109.726V142.67ZM108.988 147.98H121.57V150.05H108.988V147.98ZM106.9 153.686H123.172V155.792H106.9V153.686ZM113.902 139.412H116.152V154.73H113.902V139.412ZM109.744 139.628L111.976 140.132C111.184 142.922 109.87 145.694 108.466 147.422C108.034 147.044 107.08 146.414 106.522 146.108C107.944 144.596 109.096 142.112 109.744 139.628ZM130.102 156.35H124.504V156.26C126.466 154.586 128.068 151.562 128.068 147.854C128.068 144.164 126.466 141.14 124.504 139.466V139.376H130.102V156.35ZM142.756 154.694V153.182C146.392 149.924 148.516 147.422 148.516 145.37C148.516 144.038 147.814 143.21 146.536 143.21C145.546 143.21 144.772 143.84 144.088 144.596L142.63 143.156C143.854 141.842 145.06 141.14 146.878 141.14C149.38 141.14 151.072 142.742 151.072 145.226C151.072 147.656 149.056 150.248 146.626 152.624C147.292 152.552 148.174 152.462 148.804 152.462H151.684V154.694H142.756ZM158.665 154.694V146.504C158.665 145.73 158.737 144.524 158.773 143.732H158.701C158.359 144.452 157.999 145.19 157.621 145.91L155.569 149.222H162.715V151.256H152.995V149.438L157.945 141.374H161.131V154.694H158.665ZM171.1 139.664H173.476V153.614C173.476 154.946 173.17 155.54 172.342 155.882C171.514 156.242 170.272 156.314 168.508 156.296C168.4 155.666 167.986 154.64 167.644 154.046C168.832 154.118 170.182 154.1 170.56 154.082C170.956 154.082 171.1 153.956 171.1 153.596V139.664ZM175.438 144.398L177.544 143.606C179.02 146.144 180.514 149.438 180.964 151.688L178.606 152.624C178.228 150.446 176.86 147.044 175.438 144.398ZM166.384 143.786L168.85 144.2C168.238 146.918 167.248 150.284 165.736 152.282C165.214 151.886 164.224 151.382 163.63 151.148C165.088 149.312 166.006 146.144 166.384 143.786ZM188.92 144.938H198.136V146.81H188.92V144.938ZM188.344 141.32H198.622V143.228H188.344V141.32ZM188.362 148.214H198.55V150.104H188.362V148.214ZM192.412 139.394H194.536V146H192.412V139.394ZM194.698 146.576H196.804V154.028C196.804 155.072 196.606 155.63 195.904 155.936C195.184 156.26 194.212 156.296 192.862 156.296C192.79 155.702 192.466 154.838 192.178 154.28C193.06 154.316 194.05 154.316 194.32 154.298C194.608 154.298 194.698 154.244 194.698 153.992V146.576ZM189.082 151.31L190.882 150.338C191.602 151.202 192.592 152.444 193.06 153.236L191.152 154.352C190.738 153.56 189.82 152.264 189.082 151.31ZM183.376 140.51H188.02V152.822H183.376V150.896H186.004V142.436H183.376V140.51ZM183.484 145.622H186.976V147.512H183.484V145.622ZM182.368 140.51H184.366V154.424H182.368V140.51ZM200.224 141.914H216.28V143.984H200.224V141.914ZM206.092 147.746H215.524V149.744H206.092V147.746ZM205.39 153.866H216.208V155.864H205.39V153.866ZM209.764 144.758H211.942V154.928H209.764V144.758ZM205.894 139.394L208.144 139.934C206.812 144.272 204.544 148.646 200.692 151.274C200.476 150.662 199.972 149.708 199.648 149.186C202.906 147.062 204.958 143.03 205.894 139.394ZM202.294 146.936H204.472V156.278H202.294V146.936ZM228.43 139.394L230.896 139.826C230.392 140.798 229.87 141.752 229.456 142.364L227.62 141.914C227.944 141.176 228.268 140.15 228.43 139.394ZM227.296 145.352V146.288H231.868V145.352H227.296ZM227.296 142.94V143.858H231.868V142.94H227.296ZM225.298 141.32H233.956V147.908H225.298V141.32ZM228.718 147.17H230.77V154.172C230.77 155.126 230.608 155.684 229.996 156.008C229.384 156.332 228.538 156.35 227.386 156.35C227.314 155.774 227.08 154.928 226.81 154.388C227.476 154.424 228.214 154.424 228.43 154.406C228.664 154.406 228.718 154.352 228.718 154.136V147.17ZM224.65 149.024H227.17V150.77H224.65V149.024ZM226.702 149.024H227.044L227.368 148.97L228.646 149.402C228.052 152.228 226.72 154.298 224.848 155.45C224.596 155 224.02 154.316 223.642 153.956C225.136 153.11 226.306 151.274 226.702 149.33V149.024ZM232.948 148.178L234.55 149.528C233.524 150.338 232.48 151.238 231.634 151.796L230.482 150.716C231.256 150.068 232.336 148.988 232.948 148.178ZM230.68 148.196C231.382 150.608 232.804 152.858 234.784 153.938C234.334 154.316 233.704 155.108 233.38 155.648C231.31 154.226 229.978 151.544 229.222 148.538L230.68 148.196ZM221.95 146.81L223.516 146.396C223.93 147.602 224.344 149.204 224.47 150.176L222.814 150.698C222.688 149.708 222.346 148.07 221.95 146.81ZM220.402 151.544L221.914 151.274C222.112 152.498 222.274 154.046 222.31 155.09L220.708 155.396C220.708 154.352 220.564 152.75 220.402 151.544ZM218.458 151.292L220.114 151.562C219.988 153.218 219.682 155 219.304 156.152C218.944 155.954 218.152 155.702 217.72 155.576C218.134 154.496 218.35 152.822 218.458 151.292ZM218.296 146.558C218.188 146.162 217.846 145.208 217.63 144.686C217.972 144.596 218.278 144.254 218.62 143.732C218.98 143.21 220.042 141.248 220.636 139.358L222.598 140.15C221.788 142.058 220.582 144.11 219.484 145.514V145.55C219.484 145.55 218.296 146.198 218.296 146.558ZM218.296 146.558L218.224 145.064L219.106 144.506L222.238 144.272C222.13 144.812 222.022 145.55 222.022 145.982C219.232 146.252 218.656 146.396 218.296 146.558ZM218.422 150.734C218.314 150.32 217.972 149.33 217.738 148.79C218.206 148.664 218.602 148.25 219.178 147.584C219.772 146.936 221.644 144.38 222.76 141.914L224.578 143.048C223.282 145.46 221.446 147.908 219.664 149.672V149.726C219.664 149.726 218.422 150.356 218.422 150.734ZM218.422 150.734L218.332 149.204L219.214 148.61L223.534 148.106C223.444 148.628 223.39 149.384 223.408 149.798C219.52 150.356 218.854 150.518 218.422 150.734ZM222.202 151.184L223.606 150.752C223.894 151.544 224.218 152.552 224.344 153.236L222.868 153.74C222.76 153.056 222.472 151.994 222.202 151.184ZM243.082 143.768H245.314V148.52H243.082V143.768ZM237.718 147.512H250.624V149.168H237.718V147.512ZM236.746 144.65H251.74V146.468H236.746V144.65ZM236.188 150.374H252.298V152.138H236.188V150.374ZM246.646 149.492H248.878V154.37C248.878 155.378 248.644 155.828 247.852 156.062C247.078 156.296 245.98 156.296 244.486 156.296C244.432 155.756 244.198 155.09 243.964 154.568C244.846 154.622 245.98 154.622 246.25 154.604C246.538 154.586 246.646 154.514 246.646 154.28V149.492ZM239.068 152.894L240.598 151.76C241.498 152.516 242.776 153.614 243.406 154.334L241.804 155.594C241.228 154.874 239.986 153.704 239.068 152.894ZM238.348 140.546H244V142.382H238.348V140.546ZM245.836 140.546H252.568V142.382H245.836V140.546ZM238.456 139.25L240.346 139.826C239.608 141.5 238.366 143.246 237.16 144.326C236.872 143.966 236.152 143.192 235.72 142.85C236.836 141.968 237.862 140.6 238.456 139.25ZM245.926 139.25L247.906 139.736C247.33 141.554 246.322 143.354 245.278 144.506C244.918 144.164 244.108 143.534 243.658 143.246C244.648 142.274 245.476 140.762 245.926 139.25ZM239.518 142.94L240.796 141.824C241.426 142.31 242.236 143.012 242.632 143.48L241.282 144.74C240.904 144.236 240.13 143.462 239.518 142.94ZM247.366 142.994L248.752 141.878C249.346 142.382 250.12 143.138 250.48 143.66L249.022 144.902C248.698 144.38 247.96 143.552 247.366 142.994Z" fill="#53F5FF"/>
<path d="M56.482 194.143H65.716V195.655H56.482V194.143ZM58.642 179.491L60.262 180.049C58.786 182.533 56.446 184.783 54.178 186.187C53.908 185.863 53.278 185.215 52.9 184.945C55.186 183.703 57.382 181.687 58.642 179.491ZM65.212 181.471H65.572L65.86 181.381L67.066 182.173C64.384 186.475 58.57 189.139 53.314 190.327C53.152 189.877 52.774 189.175 52.468 188.797C57.4 187.843 63.016 185.287 65.212 181.741V181.471ZM57.454 182.389C59.812 185.413 64.492 187.771 69.55 188.671C69.154 189.049 68.686 189.769 68.434 190.237C63.358 189.175 58.75 186.619 56.032 183.055L57.454 182.389ZM55.6 189.787H66.436V196.357H64.636V191.335H57.31V196.429H55.6V189.787ZM58.228 181.471H65.608V182.965H57.202L58.228 181.471ZM81.358 181.093H82.996V195.403H81.358V181.093ZM77.056 182.821H87.064V184.171H77.056V182.821ZM76.552 194.665H87.424V196.033H76.552V194.665ZM77.578 192.163H86.776V193.495H77.578V192.163ZM86.02 179.851L87.028 181.111C84.544 181.633 80.782 181.903 77.704 181.957C77.668 181.579 77.47 181.003 77.326 180.661C80.314 180.553 83.95 180.283 86.02 179.851ZM79.234 188.653V189.859H85.174V188.653H79.234ZM79.234 186.403V187.591H85.174V186.403H79.234ZM77.74 185.179H86.74V191.083H77.74V185.179ZM73.6 181.237H75.256V196.339H73.6V181.237ZM70.81 184.729H77.362V186.313H70.81V184.729ZM73.69 185.359L74.716 185.791C74.014 188.347 72.646 191.533 71.26 193.243C71.098 192.757 70.72 192.055 70.432 191.641C71.71 190.201 73.078 187.483 73.69 185.359ZM76.318 179.887L77.488 181.201C75.76 181.885 73.24 182.371 71.152 182.659C71.062 182.281 70.846 181.723 70.648 181.363C72.664 181.021 74.968 180.499 76.318 179.887ZM75.202 187.123C75.652 187.501 77.29 189.193 77.65 189.607L76.66 190.957C76.228 190.165 74.986 188.473 74.428 187.807L75.202 187.123ZM90.25 185.593L91.78 185.881C91.456 187.519 90.826 189.175 90.124 190.237C89.818 190.003 89.152 189.661 88.756 189.481C89.494 188.509 89.98 187.033 90.25 185.593ZM90.628 187.159H96.01V188.545H89.98L90.628 187.159ZM88.756 190.309H96.298V191.731H88.756V190.309ZM92.23 187.717H93.814V189.769C93.814 191.713 93.346 194.449 89.854 196.375C89.602 196.033 89.098 195.529 88.72 195.241C91.978 193.639 92.23 191.263 92.23 189.733V187.717ZM93.364 191.425C93.886 191.785 95.596 193.297 95.974 193.693L95.002 195.025C94.462 194.323 93.058 192.775 92.446 192.199L93.364 191.425ZM89.746 179.725H91.402V183.361C91.402 183.919 91.492 184.117 91.96 184.117C92.356 184.117 94.03 184.117 94.462 184.117C94.876 184.117 95.56 184.081 95.884 183.991C95.938 184.441 95.974 185.053 96.028 185.431C95.722 185.539 95.092 185.557 94.516 185.557C94.066 185.557 92.248 185.557 91.888 185.557C90.178 185.557 89.746 184.945 89.746 183.343V179.725ZM96.802 180.229H103.822V181.561H96.802V180.229ZM103.282 180.229H103.624L103.948 180.139L104.956 180.805C103.984 182.263 102.4 183.757 100.888 184.657C100.672 184.351 100.222 183.865 99.934 183.613C101.248 182.857 102.652 181.543 103.282 180.517V180.229ZM97.558 183.433L98.566 182.389C100.132 183.055 102.22 184.189 103.3 184.999L102.22 186.169C101.212 185.377 99.16 184.189 97.558 183.433ZM96.478 185.989H104.038V187.393H96.478V185.989ZM103.732 185.989H103.966L104.2 185.917L105.244 186.187C104.902 187.339 104.47 188.653 104.038 189.481L102.796 189.103C103.156 188.365 103.516 187.177 103.732 186.205V185.989ZM99.952 186.403H101.482V195.277L99.952 194.557V186.403ZM100.582 190.183H104.65V191.605H100.582V190.183ZM98.368 190.993C99.25 194.197 101.122 194.755 103.174 194.755C103.516 194.755 104.92 194.755 105.406 194.755C105.208 195.097 105.01 195.763 104.956 196.159H103.066C100.474 196.159 98.422 195.349 97.342 191.389L98.368 190.993ZM97.216 188.455L98.764 188.509C98.62 192.019 98.098 194.647 96.532 196.447C96.28 196.213 95.596 195.709 95.236 195.511C96.766 193.981 97.144 191.515 97.216 188.455ZM90.862 181.093H95.848V182.443H90.862V181.093ZM107.296 188.977H114.496V190.201H107.296V188.977ZM106.702 191.137H114.982V192.433H106.702V191.137ZM106.774 180.733H114.928V182.011H106.774V180.733ZM110.14 183.541H111.526V187.393H110.14V183.541ZM108.592 185.629V186.943H113.02V185.629H108.592ZM107.278 184.513H114.406V188.059H107.278V184.513ZM110.068 187.447H111.652V190.129C111.652 192.145 111.148 194.665 107.674 196.339C107.44 195.997 106.972 195.511 106.594 195.223C109.708 193.873 110.068 191.641 110.068 190.093V187.447ZM110.14 193.405L111.004 192.415C112.138 193.081 113.686 194.125 114.442 194.809L113.542 195.943C112.822 195.241 111.31 194.143 110.14 193.405ZM108.304 179.689H109.798V182.785H111.994V179.689H113.56V183.847H108.304V179.689ZM116.206 186.691H122.992V188.131H116.206V186.691ZM116.224 190.273H123.01V191.731H116.224V190.273ZM116.134 193.927H123.298V195.475H116.134V193.927ZM116.944 179.653L118.492 180.049C117.736 182.713 116.512 185.413 115.18 187.159C114.928 186.871 114.28 186.313 113.92 186.079C115.216 184.513 116.278 182.065 116.944 179.653ZM117.304 183.055H123.19V184.585H117.304V196.321H115.774V184.675L117.268 183.055H117.304ZM119.392 183.757H120.922V194.719H119.392V183.757ZM118.852 180.373L120.31 179.887C120.796 180.643 121.3 181.651 121.498 182.335L119.95 182.911C119.77 182.227 119.302 181.165 118.852 180.373ZM126.502 183.199L127.906 183.469C127.474 185.467 126.682 187.339 125.62 188.527C125.404 188.275 124.864 187.771 124.54 187.555C125.512 186.511 126.178 184.909 126.502 183.199ZM124.81 189.283H133V190.777H124.81V189.283ZM124.882 181.525H132.892V183.037H124.882V181.525ZM130.048 183.307L131.434 183.559C131.02 185.431 130.264 187.141 129.238 188.257C129.004 188.023 128.464 187.555 128.14 187.339C129.076 186.367 129.706 184.891 130.048 183.307ZM126.286 185.503L127.114 184.675C127.69 185.107 128.41 185.755 128.734 186.205L127.87 187.141C127.564 186.673 126.88 185.989 126.286 185.503ZM129.76 185.683L130.732 184.945C131.434 185.629 132.316 186.619 132.748 187.231L131.722 188.095C131.326 187.447 130.462 186.421 129.76 185.683ZM134.206 186.691H140.992V188.131H134.206V186.691ZM134.224 190.273H141.01V191.731H134.224V190.273ZM134.134 193.927H141.298V195.475H134.134V193.927ZM134.944 179.707L136.528 180.085C135.772 182.749 134.584 185.449 133.288 187.213C133.018 186.925 132.37 186.367 132.01 186.115C133.27 184.549 134.314 182.101 134.944 179.707ZM135.304 183.055H141.19V184.585H135.304V196.321H133.774V184.675L135.268 183.055H135.304ZM137.392 183.757H138.922V194.719H137.392V183.757ZM127.69 180.049L129.274 179.635C129.634 180.247 130.03 181.057 130.21 181.597L128.554 182.083C128.392 181.543 128.014 180.679 127.69 180.049ZM136.852 180.373L138.328 179.887C138.814 180.643 139.3 181.651 139.516 182.335L137.95 182.911C137.77 182.227 137.302 181.165 136.852 180.373ZM126.358 191.695L127.762 191.965C127.402 193.261 126.772 194.557 126.07 195.403C125.8 195.205 125.188 194.845 124.828 194.683C125.53 193.909 126.052 192.793 126.358 191.695ZM130.336 192.073L131.596 191.623C132.19 192.577 132.82 193.819 133.072 194.629L131.74 195.151C131.488 194.323 130.894 193.027 130.336 192.073ZM128.284 188.077H129.886V196.303H128.284V188.077ZM148.048 184.783H158.83V186.349H148.048V184.783ZM153.52 189.139H158.524V190.651H153.52V189.139ZM146.842 194.161H159.37V195.745H146.842V194.161ZM152.728 185.413H154.366V195.205H152.728V185.413ZM148.822 188.383H150.37V195.133H148.822V188.383ZM146.446 181.615H159.352V183.145H146.446V181.615ZM145.51 181.615H147.13V187.033C147.13 189.895 146.752 193.909 144.268 196.411C144.016 196.069 143.386 195.475 143.044 195.259C145.294 192.937 145.51 189.607 145.51 187.015V181.615ZM142.738 183.775L143.98 183.163C144.61 184.207 145.204 185.593 145.384 186.493L144.052 187.195C143.872 186.295 143.314 184.855 142.738 183.775ZM142.522 190.165C143.386 189.787 144.592 189.175 145.852 188.545L146.248 189.877C145.186 190.525 144.07 191.173 143.062 191.749L142.522 190.165ZM151.234 179.995L152.944 179.635C153.268 180.355 153.646 181.273 153.808 181.867L152.044 182.299C151.9 181.687 151.54 180.715 151.234 179.995ZM168.19 182.893L169.27 181.957C170.944 182.551 173.23 183.523 174.436 184.243L173.284 185.287C172.168 184.585 169.9 183.541 168.19 182.893ZM166.48 184.171H175.624V185.449H167.992V193.477H166.48V184.171ZM175.012 184.171H176.56V191.965C176.56 192.703 176.398 193.063 175.894 193.297C175.408 193.513 174.652 193.513 173.5 193.513C173.446 193.135 173.248 192.577 173.068 192.217C173.824 192.253 174.508 192.235 174.724 192.235C174.958 192.235 175.012 192.163 175.012 191.965V184.171ZM166.588 180.337H175.39V181.633H166.588V180.337ZM167.398 186.763H175.552V187.987H167.398V186.763ZM167.398 189.355H175.552V190.633H167.398V189.355ZM170.71 184.747H172.168V193.423H170.71V184.747ZM174.796 180.337H175.192L175.534 180.247L176.56 181.075C175.318 182.227 173.518 183.415 171.862 184.153C171.664 183.865 171.25 183.415 170.998 183.181C172.42 182.569 174.04 181.489 174.796 180.643V180.337ZM161.368 180.445L162.646 179.671C163.474 180.535 164.482 181.669 164.986 182.407L163.69 183.343C163.204 182.587 162.178 181.327 161.368 180.445ZM160.81 183.829H164.698V185.215H160.81V183.829ZM164.212 191.893C165.256 194.287 167.506 194.593 170.944 194.611C172.834 194.611 175.624 194.503 177.55 194.341C177.316 194.683 177.082 195.475 176.992 195.943C175.228 196.051 172.942 196.087 170.908 196.087C166.714 196.087 164.41 195.565 163.078 192.397L164.212 191.893ZM164.158 188.275H164.554L164.842 188.239L165.67 188.545C165.058 192.451 163.564 195.043 161.512 196.393C161.296 196.069 160.738 195.475 160.414 195.241C162.34 194.053 163.672 191.785 164.158 188.545V188.275ZM161.098 189.877V188.635L161.8 188.275H164.68L164.662 189.625H162.178C161.728 189.625 161.242 189.733 161.098 189.877ZM161.098 189.877C160.99 189.517 160.666 188.761 160.504 188.437C160.792 188.365 161.08 188.239 161.404 187.879C161.962 187.339 163.672 184.963 164.284 183.991V183.937L164.752 183.739L165.832 184.243C164.968 185.467 163.33 187.735 162.304 188.905C162.304 188.905 161.098 189.481 161.098 189.877ZM186.19 182.893L187.27 181.957C188.944 182.551 191.23 183.523 192.436 184.243L191.284 185.287C190.168 184.585 187.9 183.541 186.19 182.893ZM184.48 184.171H193.624V185.449H185.992V193.477H184.48V184.171ZM193.012 184.171H194.56V191.965C194.56 192.703 194.398 193.063 193.894 193.297C193.408 193.513 192.652 193.513 191.5 193.513C191.446 193.135 191.248 192.577 191.068 192.217C191.824 192.253 192.508 192.235 192.724 192.235C192.958 192.235 193.012 192.163 193.012 191.965V184.171ZM184.588 180.337H193.39V181.633H184.588V180.337ZM185.398 186.763H193.552V187.987H185.398V186.763ZM185.398 189.355H193.552V190.633H185.398V189.355ZM188.71 184.747H190.168V193.423H188.71V184.747ZM192.796 180.337H193.192L193.534 180.247L194.56 181.075C193.318 182.227 191.518 183.415 189.862 184.153C189.664 183.865 189.25 183.415 188.998 183.181C190.42 182.569 192.04 181.489 192.796 180.643V180.337ZM179.368 180.445L180.646 179.671C181.474 180.535 182.482 181.669 182.986 182.407L181.69 183.343C181.204 182.587 180.178 181.327 179.368 180.445ZM178.81 183.829H182.698V185.215H178.81V183.829ZM182.212 191.893C183.256 194.287 185.506 194.593 188.944 194.611C190.834 194.611 193.624 194.503 195.55 194.341C195.316 194.683 195.082 195.475 194.992 195.943C193.228 196.051 190.942 196.087 188.908 196.087C184.714 196.087 182.41 195.565 181.078 192.397L182.212 191.893ZM182.158 188.275H182.554L182.842 188.239L183.67 188.545C183.058 192.451 181.564 195.043 179.512 196.393C179.296 196.069 178.738 195.475 178.414 195.241C180.34 194.053 181.672 191.785 182.158 188.545V188.275ZM179.098 189.877V188.635L179.8 188.275H182.68L182.662 189.625H180.178C179.728 189.625 179.242 189.733 179.098 189.877ZM179.098 189.877C178.99 189.517 178.666 188.761 178.504 188.437C178.792 188.365 179.08 188.239 179.404 187.879C179.962 187.339 181.672 184.963 182.284 183.991V183.937L182.752 183.739L183.832 184.243C182.968 185.467 181.33 187.735 180.304 188.905C180.304 188.905 179.098 189.481 179.098 189.877ZM197.062 181.921H212.956V183.523H197.062V181.921ZM201.454 188.383H209.806V189.823H201.454V188.383ZM209.212 185.323H210.886V194.395C210.886 195.313 210.706 195.799 210.04 196.069C209.392 196.339 208.384 196.339 206.872 196.339C206.8 195.871 206.566 195.151 206.332 194.701C207.412 194.755 208.492 194.737 208.816 194.737C209.122 194.719 209.212 194.629 209.212 194.377V185.323ZM202.822 179.653L204.568 180.049C203.344 183.991 201.184 187.987 197.8 190.381C197.548 189.985 197.008 189.391 196.684 189.067C199.834 186.925 201.886 183.145 202.822 179.653ZM201.364 191.389H209.806V192.829H201.364V191.389ZM201.346 185.323H209.644V186.835H201.346V185.323ZM200.428 185.323H202.138V190.111C202.138 192.181 201.796 194.845 199.96 196.483C199.744 196.123 199.078 195.403 198.754 195.169C200.266 193.765 200.428 191.785 200.428 190.093V185.323ZM216.52 184.261H221.632V185.539H216.52V184.261ZM216.52 187.267H221.632V188.509H216.52V187.267ZM216.52 190.345H221.632V191.641H216.52V190.345ZM224.242 188.185H231.064V189.643H224.242V188.185ZM217.438 181.291H220.354V182.605H217.438V181.291ZM223 180.571H229.894V181.993H223V180.571ZM222.874 191.587H231.388V193.081H222.874V191.587ZM226.492 186.439H228.112V196.303H226.492V186.439ZM218.626 184.909H219.796V190.849H218.626V184.909ZM229.39 180.571H230.92C230.92 180.571 230.902 180.967 230.884 181.165C230.776 184.117 230.614 185.305 230.218 185.755C229.966 186.079 229.642 186.223 229.192 186.259C228.814 186.313 228.076 186.313 227.338 186.277C227.302 185.845 227.158 185.269 226.942 184.891C227.608 184.945 228.184 184.963 228.436 184.963C228.67 184.963 228.814 184.945 228.94 184.783C229.156 184.531 229.282 183.523 229.39 180.787V180.571ZM224.116 186.583L225.556 186.871C225.196 188.527 224.584 190.183 223.864 191.245C223.576 191.047 222.928 190.723 222.568 190.561C223.324 189.571 223.846 188.077 224.116 186.583ZM217.222 179.635L218.77 179.977C218.104 182.443 217.006 184.801 215.71 186.331C215.458 186.061 214.81 185.539 214.468 185.323C215.728 183.955 216.7 181.831 217.222 179.635ZM215.872 184.261H217.258V189.031C217.258 191.281 217.042 194.395 215.746 196.393C215.494 196.177 214.864 195.781 214.54 195.637C215.764 193.747 215.872 191.065 215.872 189.031V184.261ZM221.164 184.261H222.586V194.629C222.586 195.367 222.424 195.817 221.938 196.069C221.434 196.321 220.696 196.339 219.508 196.339C219.454 195.943 219.202 195.295 219.004 194.899C219.832 194.935 220.606 194.935 220.84 194.917C221.074 194.917 221.164 194.845 221.164 194.611V184.261ZM225.394 181.039H226.924C226.654 183.595 225.952 185.629 223.36 186.781C223.18 186.421 222.784 185.881 222.442 185.629C224.638 184.711 225.16 183.037 225.394 181.039ZM219.94 181.291H220.282L220.498 181.219L221.488 181.849C221.092 182.983 220.408 184.351 219.868 185.215C219.58 184.999 219.094 184.711 218.788 184.567C219.22 183.757 219.706 182.443 219.94 181.561V181.291ZM239.506 191.677L239.02 190.507C240.514 189.967 241.324 189.067 241.324 187.843L241.072 186.223L242.062 187.699C241.792 187.987 241.432 188.095 241.054 188.095C240.244 188.095 239.542 187.591 239.542 186.673C239.542 185.755 240.262 185.233 241.09 185.233C242.206 185.233 242.8 186.115 242.8 187.483C242.8 189.463 241.54 191.029 239.506 191.677ZM56.554 213.645H65.41V215.013H56.554V213.645ZM56.266 216.723H65.752V218.145H56.266V216.723ZM61.99 214.077H63.502V222.033H61.99V214.077ZM58.372 214.149H59.848V217.497C59.848 218.631 59.38 220.989 57.418 222.321C57.184 222.015 56.662 221.547 56.302 221.313C57.994 220.287 58.372 218.451 58.372 217.497V214.149ZM54.376 208.875H59.2V210.027H54.376V208.875ZM62.692 208.875H67.552V210.027H62.692V208.875ZM66.886 206.391H68.56V220.287C68.56 221.223 68.38 221.727 67.786 222.015C67.192 222.303 66.292 222.339 64.906 222.321C64.852 221.871 64.618 221.079 64.384 220.629C65.302 220.665 66.22 220.665 66.508 220.647C66.796 220.647 66.886 220.539 66.886 220.269V206.391ZM54.52 206.391H60.262V212.601H54.52V211.341H58.66V207.651H54.52V206.391ZM67.732 206.391V207.651H63.286V211.377H67.732V212.637H61.666V206.391H67.732ZM53.512 206.391H55.186V222.375H53.512V206.391ZM72.088 206.967H73.654V211.629C73.654 214.473 73.384 218.757 71.728 221.565C71.458 221.259 70.774 220.737 70.414 220.575C71.926 217.965 72.088 214.257 72.088 211.629V206.967ZM78.298 205.815L79.594 207.039C77.632 207.651 74.878 208.065 72.556 208.263C72.484 207.903 72.268 207.327 72.088 206.967C74.284 206.715 76.822 206.301 78.298 205.815ZM81.214 209.073H87.352V210.657H81.214V209.073ZM81.394 205.689L83.104 205.923C82.618 209.487 81.736 212.835 80.26 215.013C80.008 214.689 79.342 214.059 78.964 213.789C80.314 211.899 81.034 208.857 81.394 205.689ZM82.006 210.477C82.816 214.959 84.49 219.027 87.478 220.863C87.064 221.187 86.488 221.889 86.2 222.357C83.104 220.143 81.52 215.805 80.62 210.729L82.006 210.477ZM85.084 209.271L86.524 210.009C85.858 215.679 84.022 220.287 80.134 222.357C79.864 221.925 79.324 221.295 78.892 220.935C82.762 219.135 84.436 214.833 85.084 209.271ZM72.754 209.145H79.252V213.753H72.754V212.349H77.722V210.531H72.754V209.145ZM73.906 219.045H78.838V220.431H73.906V219.045ZM73.222 215.211H79.27V221.205H77.758V216.597H74.698V221.547H73.222V215.211ZM91.366 214.851H102.76V222.339H101.014V216.219H93.022V222.357H91.366V214.851ZM92.338 217.605H101.626V218.883H92.338V217.605ZM90.844 207.093H96.586V208.443H90.844V207.093ZM88.828 209.919H97.036V211.287H88.828V209.919ZM92.338 220.341H101.626V221.727H92.338V220.341ZM92.446 207.525H94.066V209.397C94.066 211.179 93.472 213.627 89.728 215.319C89.494 214.977 89.008 214.455 88.63 214.167C92.158 212.799 92.446 210.747 92.446 209.379V207.525ZM90.772 205.581L92.284 205.887C91.834 207.453 91.006 208.983 90.106 209.973C89.8 209.739 89.134 209.325 88.756 209.163C89.674 208.263 90.376 206.931 90.772 205.581ZM93.688 211.395C94.336 211.719 96.46 212.979 96.982 213.339L95.776 214.455C95.092 213.879 93.346 212.619 92.554 212.115L93.688 211.395ZM99.304 208.569V212.061H102.616V208.569H99.304ZM97.72 207.057H104.29V213.591H97.72V207.057ZM112.768 212.097H114.388V220.665C114.388 221.439 114.226 221.835 113.704 222.069C113.182 222.285 112.372 222.303 111.256 222.303C111.184 221.907 110.95 221.331 110.734 220.953C111.49 220.989 112.228 220.971 112.462 220.971C112.714 220.971 112.768 220.899 112.768 220.665V212.097ZM108.646 212.097H113.65V213.537H108.646V212.097ZM115.882 214.095H117.574V219.999C117.574 220.629 117.718 220.719 118.51 220.719C118.852 220.719 120.598 220.719 121.084 220.719C121.768 220.719 121.894 220.413 121.984 218.577C122.344 218.847 123.028 219.117 123.496 219.207C123.28 221.565 122.812 222.231 121.228 222.231C120.796 222.231 118.708 222.231 118.294 222.231C116.386 222.231 115.882 221.727 115.882 220.017V214.095ZM111.904 207.489L113.29 206.967C114.118 208.245 115.108 209.973 115.558 211.053L114.082 211.683C113.686 210.585 112.714 208.803 111.904 207.489ZM116.908 208.029H122.254V209.505H116.908V208.029ZM116.926 216.093H122.434V217.623H116.926V216.093ZM107.638 211.215C107.548 210.873 107.278 210.081 107.098 209.649C107.404 209.577 107.71 209.325 108.07 208.929C108.43 208.533 109.582 207.093 110.302 205.653L112.03 206.193C111.058 207.759 109.762 209.361 108.628 210.369V210.387C108.628 210.387 107.638 210.891 107.638 211.215ZM107.638 211.215L107.584 209.973L108.43 209.469L114.064 209.055C114.118 209.487 114.262 210.063 114.37 210.405C108.862 210.909 108.124 211.017 107.638 211.215ZM107.836 212.097H109.402V216.381C109.402 218.253 109.186 220.773 107.926 222.411C107.692 222.087 107.062 221.475 106.738 221.259C107.746 219.855 107.836 217.911 107.836 216.363V212.097ZM109.132 218.757C110.176 218.289 111.706 217.497 113.236 216.723L113.56 217.767C112.228 218.631 110.86 219.495 109.672 220.197L109.132 218.757ZM109.402 215.139L110.284 214.347C111.148 214.887 112.282 215.679 112.876 216.165L111.958 217.083C111.4 216.561 110.266 215.733 109.402 215.139ZM115.882 205.689H117.574V211.179C117.574 211.827 117.7 212.061 118.276 212.061C118.762 212.061 120.796 212.061 121.318 212.061C121.786 212.061 122.524 212.025 122.902 211.935C122.92 212.385 122.992 213.015 123.046 213.411C122.722 213.501 122.02 213.537 121.354 213.537C120.832 213.537 118.636 213.537 118.24 213.537C116.404 213.537 115.882 212.889 115.882 211.125V205.689ZM130.786 208.929L132.604 209.289C131.326 211.125 129.49 212.799 126.79 214.077C126.556 213.681 126.034 213.105 125.656 212.835C128.176 211.791 129.886 210.297 130.786 208.929ZM130.966 210.225H136.852V211.521H129.778L130.966 210.225ZM136.348 210.225H136.672L136.978 210.135L138.13 210.837C135.7 214.689 130.426 216.885 125.386 217.857C125.224 217.425 124.864 216.723 124.558 216.345C129.31 215.571 134.368 213.537 136.348 210.477V210.225ZM130.228 211.215C132.316 213.771 136.618 215.373 141.442 215.931C141.064 216.327 140.596 217.065 140.362 217.551C135.466 216.831 131.218 214.977 128.734 211.881L130.228 211.215ZM128.014 216.777H138.112V222.321H136.366V218.199H129.688V222.357H128.014V216.777ZM128.968 220.359H137.248V221.781H128.968V220.359ZM125.314 207.219H140.668V210.873H138.94V208.767H126.988V210.873H125.314V207.219ZM131.596 205.887L133.27 205.473C133.738 206.193 134.296 207.201 134.566 207.849L132.802 208.317C132.568 207.687 132.028 206.661 131.596 205.887ZM144.484 206.301H148.606V207.885H144.484V206.301ZM144.484 210.459H148.66V212.043H144.484V210.459ZM151.504 212.529H157.948V214.095H151.504V212.529ZM144.448 214.725H148.606V216.327H144.448V214.725ZM143.8 206.301H145.348V212.817C145.348 215.661 145.168 219.729 143.908 222.393C143.602 222.141 142.918 221.745 142.522 221.601C143.71 219.099 143.8 215.463 143.8 212.817V206.301ZM147.652 206.301H149.236V220.431C149.236 221.277 149.074 221.781 148.57 222.051C148.048 222.339 147.31 222.375 146.104 222.357C146.05 221.943 145.852 221.169 145.636 220.737C146.392 220.755 147.112 220.755 147.328 220.737C147.562 220.737 147.652 220.665 147.652 220.413V206.301ZM156.868 206.337H158.506V209.829C158.506 210.621 158.344 211.053 157.696 211.287C157.066 211.521 156.094 211.521 154.726 211.521C154.654 211.053 154.42 210.477 154.204 210.081C155.212 210.117 156.22 210.117 156.508 210.099C156.796 210.081 156.868 210.027 156.868 209.811V206.337ZM157.48 212.529H157.768L158.038 212.475L159.046 212.817C158.182 217.461 156.004 220.593 153.142 222.303C152.944 221.925 152.494 221.331 152.152 221.043C154.708 219.693 156.778 216.633 157.48 212.835V212.529ZM153.772 213.537C154.762 216.849 156.796 219.747 159.568 221.079C159.208 221.385 158.74 221.979 158.488 222.375C155.572 220.809 153.556 217.659 152.422 213.897L153.772 213.537ZM150.568 206.337H157.3V207.921H152.17V222.357H150.568V206.337ZM160.846 216.543V214.995H165.598V216.543H160.846ZM176.748 213.033H178.494V219.675C178.494 220.341 178.62 220.449 179.268 220.449C179.556 220.449 180.906 220.449 181.302 220.449C181.986 220.449 182.094 219.981 182.166 217.281C182.544 217.587 183.282 217.893 183.75 218.001C183.57 221.169 183.138 222.051 181.446 222.051C181.05 222.051 179.394 222.051 179.016 222.051C177.216 222.051 176.748 221.493 176.748 219.693V213.033ZM167.442 211.989H183.444V213.645H167.442V211.989ZM169.044 207.003H181.86V208.641H169.044V207.003ZM171.834 213.267H173.652C173.364 217.263 172.608 220.557 168.216 222.321C168.018 221.907 167.532 221.277 167.154 220.953C171.114 219.477 171.6 216.633 171.834 213.267ZM194.856 214.491H196.566V219.819C196.566 220.377 196.674 220.467 197.304 220.467C197.592 220.467 198.906 220.467 199.284 220.467C199.896 220.467 199.986 220.125 200.058 217.875C200.418 218.163 201.156 218.433 201.624 218.559C201.444 221.349 200.976 222.087 199.428 222.087C199.05 222.087 197.448 222.087 197.088 222.087C195.288 222.087 194.856 221.547 194.856 219.819V214.491ZM185.478 213.267H201.408V214.923H185.478V213.267ZM188.448 208.299H200.058V209.937H188.448V208.299ZM190.032 214.545H191.814C191.472 218.109 190.572 220.917 186.288 222.465C186.09 222.015 185.604 221.331 185.208 220.989C189.114 219.765 189.744 217.425 190.032 214.545ZM188.628 206.013L190.356 206.355C189.798 208.443 188.862 210.981 187.62 212.583C187.224 212.313 186.54 211.953 186.126 211.791C187.332 210.297 188.214 207.867 188.628 206.013ZM192.57 205.653H194.298V213.789H192.57V205.653ZM206.178 209.055H218.67V210.711H206.178V209.055ZM205.404 214.347H218.004V215.985H205.404V214.347ZM203.388 220.161H219.552V221.817H203.388V220.161ZM210.57 205.653H212.352V220.971H210.57V205.653ZM206.484 205.923L208.23 206.319C207.456 209.109 206.16 211.809 204.738 213.537C204.396 213.249 203.64 212.745 203.208 212.511C204.648 210.945 205.818 208.461 206.484 205.923ZM229.488 206.877H237.642V208.029H229.488V206.877ZM232.098 208.929H237.03V209.937H232.098V208.929ZM230.82 211.161H237.498V212.169H230.82V211.161ZM233.52 209.685H234.996V211.701H233.52V209.685ZM232.35 205.599L233.646 205.797C233.07 208.281 231.918 210.315 230.244 211.611C230.082 211.359 229.632 210.837 229.362 210.585C230.856 209.487 231.882 207.723 232.35 205.599ZM235.518 212.889H236.814V218.775C236.814 219.387 236.706 219.693 236.274 219.873C235.86 220.071 235.23 220.071 234.258 220.071C234.204 219.747 234.042 219.297 233.88 218.991C234.492 219.009 235.104 219.009 235.284 219.009C235.464 219.009 235.518 218.955 235.518 218.775V212.889ZM231.414 212.889H236.166V213.915H231.414V212.889ZM230.82 212.889H232.098V215.409C232.098 216.813 231.918 218.721 230.964 219.981C230.73 219.783 230.154 219.387 229.866 219.261C230.73 218.109 230.82 216.579 230.82 215.373V212.889ZM231.918 217.155C232.998 216.939 234.474 216.579 236.022 216.219L236.13 217.173C234.798 217.641 233.52 218.055 232.404 218.397L231.918 217.155ZM232.314 215.013L232.944 214.167C233.754 214.563 234.708 215.031 235.212 215.409L234.582 216.381C234.06 215.985 233.088 215.391 232.314 215.013ZM221.73 206.373H225.69V207.903H223.098V222.321H221.73V206.373ZM225.186 206.373H225.438L225.654 206.319L226.626 206.877C226.194 208.353 225.618 210.189 225.096 211.629C226.194 213.141 226.446 214.437 226.446 215.535C226.446 216.543 226.248 217.317 225.762 217.695C225.528 217.893 225.24 218.001 224.898 218.037C224.574 218.073 224.196 218.073 223.818 218.073C223.8 217.695 223.674 217.137 223.476 216.759C223.8 216.795 224.088 216.795 224.322 216.795C224.502 216.777 224.682 216.723 224.808 216.633C225.024 216.435 225.132 215.949 225.114 215.391C225.114 214.437 224.88 213.213 223.8 211.791C224.34 210.153 224.898 207.993 225.186 206.787V206.373ZM226.662 206.355L227.94 205.959C228.444 206.841 229.02 207.993 229.29 208.749L227.958 209.217C227.706 208.443 227.13 207.237 226.662 206.355ZM226.356 209.793H228.876V211.251H226.356V209.793ZM228.768 217.911C229.65 220.323 231.432 220.719 233.952 220.719C235.104 220.719 236.778 220.665 237.948 220.539C237.732 220.881 237.552 221.601 237.48 222.033C236.436 222.105 235.086 222.123 233.898 222.123C230.748 222.123 228.84 221.511 227.706 218.361L228.768 217.911ZM228.444 214.131H228.984L229.236 214.077L229.83 214.347C229.326 218.307 228.03 220.989 226.176 222.411C225.978 222.087 225.492 221.547 225.186 221.313C226.914 220.071 228.048 217.713 228.444 214.383V214.131ZM226.86 215.805V214.473L227.562 214.131H229.11V215.535H227.832C227.49 215.535 227.004 215.661 226.86 215.805ZM226.86 215.805C226.77 215.463 226.482 214.797 226.32 214.491C226.59 214.419 226.806 214.311 227.004 213.933C227.292 213.465 228.174 210.855 228.48 209.883V209.829L228.876 209.667L229.866 209.937C229.416 211.143 228.516 213.717 227.922 214.869C227.922 214.869 226.86 215.427 226.86 215.805ZM246.084 211.287H255.192V212.781H246.084V211.287ZM245.382 207.705H255.732V209.217H245.382V207.705ZM245.436 214.509H255.66V216.021H245.436V214.509ZM249.72 205.635H251.394V212.133H249.72V205.635ZM252.042 212.547H253.716V220.467C253.716 221.349 253.518 221.817 252.906 222.069C252.276 222.321 251.34 222.339 249.936 222.339C249.864 221.889 249.612 221.205 249.378 220.755C250.386 220.791 251.376 220.791 251.664 220.773C251.952 220.773 252.042 220.701 252.042 220.431V212.547ZM246.372 217.263L247.776 216.471C248.586 217.371 249.594 218.649 250.062 219.477L248.55 220.377C248.136 219.549 247.182 218.199 246.372 217.263ZM240.504 206.805H245.058V218.847H240.504V217.317H243.474V208.335H240.504V206.805ZM240.576 211.989H244.23V213.501H240.576V211.989ZM239.694 206.805H241.278V220.377H239.694V206.805ZM266.172 211.053H269.862V212.367H266.172V211.053ZM264.804 216.291H270.906V217.479H264.804V216.291ZM258.846 206.355H263.85V207.723H258.846V206.355ZM263.4 206.355H263.688L263.958 206.301L265.02 206.823C263.688 209.901 260.772 211.935 257.802 212.979C257.586 212.619 257.172 212.025 256.884 211.737C259.584 210.909 262.356 209.001 263.4 206.625V206.355ZM266.658 205.707C267.918 208.443 270.546 210.585 273.894 211.467C273.534 211.791 273.102 212.385 272.868 212.799C269.394 211.701 266.748 209.325 265.29 206.121L266.658 205.707ZM269.916 205.779L271.158 206.643C270.294 207.435 269.232 208.245 268.422 208.803L267.432 208.029C268.206 207.453 269.304 206.481 269.916 205.779ZM272.148 207.579L273.39 208.443C272.526 209.235 271.428 210.045 270.6 210.585L269.574 209.811C270.384 209.235 271.518 208.263 272.148 207.579ZM259.638 211.125H264.012V215.373H262.482V212.439H259.638V211.125ZM259.062 214.077H260.466C260.286 215.463 260.052 217.155 259.836 218.235H258.396C258.648 217.119 258.9 215.409 259.062 214.077ZM262.482 216.957H264.03C264.03 216.957 264.012 217.371 263.976 217.587C263.778 220.071 263.562 221.187 263.112 221.637C262.752 221.997 262.374 222.123 261.798 222.159C261.312 222.195 260.376 222.195 259.386 222.141C259.368 221.691 259.17 221.097 258.9 220.701C259.854 220.773 260.808 220.791 261.15 220.791C261.474 220.791 261.672 220.773 261.816 220.629C262.122 220.377 262.32 219.423 262.482 217.173V216.957ZM265.542 211.053H266.982V212.439C266.982 213.681 266.604 215.103 265.002 216.075C264.786 215.769 264.228 215.211 263.922 215.013C265.326 214.239 265.542 213.267 265.542 212.403V211.053ZM270.546 216.291H270.852L271.122 216.237L272.058 216.579C270.852 219.891 268.026 221.565 264.624 222.375C264.48 222.015 264.156 221.457 263.886 221.133C266.928 220.557 269.574 219.045 270.546 216.489V216.291ZM259.692 214.077H263.022V215.373H259.458L259.692 214.077ZM259.17 216.957H262.914V218.235H258.918L259.17 216.957ZM258.324 208.803L259.296 207.903C260.088 208.335 261.078 209.001 261.564 209.487L260.538 210.513C260.088 210.009 259.116 209.289 258.324 208.803ZM269.088 211.053H270.51V213.825C270.51 214.257 270.546 214.383 270.798 214.383C270.996 214.383 271.734 214.383 271.932 214.383C272.184 214.383 272.616 214.365 272.832 214.311C272.85 214.653 272.886 215.157 272.94 215.481C272.706 215.571 272.328 215.571 271.968 215.571C271.716 215.571 270.87 215.571 270.618 215.571C269.34 215.571 269.088 215.067 269.088 213.807V211.053ZM264.678 218.361L265.488 217.407C267.63 218.541 270.636 220.233 272.166 221.277L271.302 222.393C269.844 221.349 266.874 219.567 264.678 218.361ZM280.662 214.365H286.8V219.819H280.662V218.415H285.198V215.787H280.662V214.365ZM279.924 214.365H281.508V220.881H279.924V214.365ZM276.81 209.001H281.598V210.207H276.81V209.001ZM285.126 209.001H289.986V210.207H285.126V209.001ZM289.248 206.391H290.976V220.215C290.976 221.259 290.742 221.763 290.094 222.051C289.41 222.339 288.33 222.357 286.71 222.357C286.656 221.889 286.368 221.079 286.116 220.629C287.25 220.683 288.456 220.665 288.798 220.647C289.14 220.647 289.248 220.539 289.248 220.197V206.391ZM276.936 206.391H282.678V212.907H276.936V211.575H281.076V207.723H276.936V206.391ZM290.166 206.391V207.723H285.738V211.611H290.166V212.925H284.118V206.391H290.166ZM275.982 206.391H277.674V222.375H275.982V206.391ZM300.696 216.381L300.282 209.757L300.21 207.381H302.64L302.568 209.757L302.154 216.381H300.696ZM301.434 220.971C300.66 220.971 300.084 220.431 300.084 219.621C300.084 218.793 300.678 218.235 301.434 218.235C302.172 218.235 302.766 218.793 302.766 219.621C302.766 220.431 302.172 220.971 301.434 220.971Z" fill="white"/>
<g clip-path="url(#clip0_1230_14607)">
<path d="M470.264 223.135L481.67 205.209L521.947 316.146H511.055L470.264 223.135Z" fill="url(#paint2_linear_1230_14607)"/>
<path d="M434.173 205.209H481.956L470.265 223.594H404.963L434.173 205.209Z" fill="url(#paint3_linear_1230_14607)"/>
<path d="M404.963 223.594H470.55L511.043 315.98H474.684L404.963 223.594Z" fill="url(#paint4_linear_1230_14607)"/>
<path fill-rule="evenodd" clip-rule="evenodd" d="M418.753 176.982C414.91 176.982 412.662 181.314 414.876 184.456L421.619 194.031C422.508 195.292 423.954 196.043 425.497 196.043H443.411C443.539 196.753 443.99 197.413 444.817 197.766L448.684 199.416C450.503 200.192 452.417 198.531 451.905 196.621L451.75 196.043H453.093C456.497 196.043 458.793 192.563 457.453 189.434L453.355 179.859C452.608 178.114 450.893 176.982 448.995 176.982H418.753Z" fill="url(#paint5_linear_1230_14607)"/>
<path fill-rule="evenodd" clip-rule="evenodd" d="M417.075 178.332C413.232 178.332 410.985 182.664 413.198 185.806L419.942 195.381C420.83 196.642 422.276 197.392 423.819 197.392H440.742C441.316 197.392 441.78 197.832 442.11 198.302C442.346 198.637 442.687 198.923 443.14 199.116L447.006 200.766C448.825 201.542 450.739 199.881 450.227 197.971V197.971C450.149 197.679 450.369 197.392 450.671 197.392H451.415C454.819 197.392 457.115 193.913 455.776 190.783L451.678 181.209C450.931 179.464 449.215 178.332 447.317 178.332H417.075Z" fill="url(#paint6_linear_1230_14607)" fill-opacity="0.95"/>
<path d="M446.578 186.933C447.803 188.293 447.85 189.84 446.685 190.389C445.519 190.937 443.581 190.278 442.356 188.918C441.132 187.557 441.084 186.01 442.249 185.462C443.415 184.913 445.353 185.572 446.578 186.933Z" fill="white"/>
<path d="M437.861 186.933C439.086 188.293 439.134 189.84 437.968 190.389C436.802 190.937 434.864 190.278 433.639 188.918C432.415 187.557 432.367 186.01 433.533 185.462C434.698 184.913 436.636 185.572 437.861 186.933Z" fill="white"/>
<path d="M428.568 186.933C429.793 188.293 429.841 189.84 428.675 190.389C427.509 190.937 425.571 190.278 424.347 188.918C423.122 187.557 423.074 186.01 424.24 185.462C425.405 184.913 427.343 185.572 428.568 186.933Z" fill="white"/>
<path d="M597.793 222.624L586.901 205.209L546.13 335.918L556.364 342.529L597.793 222.624Z" fill="url(#paint7_linear_1230_14607)"/>
<path d="M632.259 205.209H586.63L597.795 223.07H660.152L632.259 205.209Z" fill="url(#paint8_linear_1230_14607)" fill-opacity="0.8"/>
<path d="M660.152 223.07H597.522L557.027 338.57H581.565L660.152 223.07Z" fill="url(#paint9_linear_1230_14607)"/>
<path d="M602.688 182.417C604.005 178.526 607.677 175.925 611.785 175.974L634.578 176.242C641.981 176.329 646.435 184.483 642.508 190.759L640.316 194.261C638.582 197.032 635.544 198.715 632.275 198.715H610.397C603.904 198.715 599.33 192.338 601.412 186.188L602.688 182.417Z" fill="#0051AF"/>
<path d="M604.32 184.023C605.622 180.128 609.283 177.514 613.39 177.546L635.294 177.716C642.7 177.773 647.186 185.917 643.278 192.207L641.523 195.032C639.792 197.818 636.745 199.512 633.465 199.512H612.315C605.836 199.512 601.264 193.162 603.319 187.018L604.32 184.023Z" fill="url(#paint10_linear_1230_14607)"/>
<path opacity="0.8" d="M638.528 181.329H642.779L634 196.544L629.748 196.544L638.528 181.329Z" fill="white"/>
<path opacity="0.8" d="M627.907 187.85H631.922L627.249 196.544L623.234 196.544L627.907 187.85Z" fill="white"/>
<path opacity="0.8" d="M616.297 182.027C614.829 181.928 613.271 182.251 611.824 182.954C610.377 183.658 609.109 184.71 608.183 185.973C607.258 187.237 606.718 188.654 606.634 190.04C606.55 191.427 606.925 192.719 607.711 193.75C608.497 194.78 609.658 195.501 611.043 195.82C612.427 196.138 613.972 196.038 615.477 195.534C616.982 195.03 618.377 194.145 619.482 192.993C620.586 191.841 621.349 190.475 621.672 189.073L614.234 189.006L616.297 182.027Z" fill="white"/>
<path d="M618.181 181.034C620.042 181.159 621.632 181.958 622.624 183.266C623.615 184.575 623.933 186.295 623.513 188.072L616.124 187.972L618.181 181.034Z" fill="white"/>
<path d="M467.22 211.636L484.148 176.44H580.077L599.61 211.636H467.22Z" fill="url(#paint11_linear_1230_14607)" stroke="url(#paint12_linear_1230_14607)" stroke-width="0.797097"/>
<path d="M495.129 179.938H570.419L583.58 206.872H483.805L495.129 179.938Z" fill="url(#paint13_linear_1230_14607)"/>
<path d="M503.485 331.37L467.81 212.679H599.086L565.772 331.37H503.485Z" fill="url(#paint14_linear_1230_14607)" stroke="#BBFBFF" stroke-width="1.82065"/>
<path d="M487.783 197.077H578.683L583.886 206.871H483.805L487.783 197.077Z" fill="url(#paint15_linear_1230_14607)"/>
<path d="M575.316 158.819L589.089 186.06L583.886 207.179L570.113 179.938L575.316 158.819Z" fill="url(#paint16_linear_1230_14607)"/>
<path d="M492.988 157.289L478.297 188.202L483.806 206.873L495.13 179.938L492.988 157.289Z" fill="url(#paint17_linear_1230_14607)"/>
<g clip-path="url(#clip1_1230_14607)">
<path d="M460.189 141.69L460.848 142.333C466.946 148.232 499.057 178.299 503.236 182.211C503.527 182.485 503.684 182.63 503.684 182.63L510.017 160.93C510.017 160.93 489.588 142.084 474.472 128.193C473.896 127.682 473.029 127.559 472.299 127.899C469.459 129.215 462.696 133.096 460.171 138.946C460.03 139.275 459.901 139.606 459.788 139.946C459.583 140.563 459.73 141.225 460.189 141.69Z" fill="#252533"/>
<path d="M460.189 141.692L460.848 142.335L503.236 184V176.921L465.175 139.422L460.171 138.948C460.03 139.277 459.901 139.608 459.788 139.948C459.583 140.564 459.73 141.227 460.189 141.692Z" fill="#131516"/>
<path d="M467.827 134.824C464.297 138.205 460.396 140.295 459.118 139.492C457.837 138.69 459.664 135.298 463.194 131.917C466.724 128.536 470.625 126.446 471.902 127.249C473.183 128.051 471.357 131.443 467.827 134.824Z" fill="white"/>
<path d="M467.793 134.867C464.698 137.831 461.284 139.661 460.163 138.959C459.041 138.256 460.641 135.284 463.736 132.32C466.828 129.356 470.244 127.526 471.366 128.228C472.487 128.931 470.888 131.903 467.793 134.867Z" fill="#88999D"/>
<path d="M444.713 115.915C445.774 117.714 451.372 124.918 453.112 127.328C454.363 129.058 455.637 130.138 456.9 130.76C457.225 130.92 457.534 131.103 457.831 131.303L461.784 135.257L465.532 138.875L472.672 131.023L473.459 130.158L473.159 129.872L472.374 129.133L469.515 126.266C470.665 124.179 470.324 121.951 470.698 120.238C471.538 116.398 475.031 112.026 471.964 112.046C468.599 112.066 466.166 117.88 466.166 117.88C466.166 117.88 464.086 113.982 462.422 107.977C460.877 102.395 457.543 104.183 458.236 107.549C458.999 111.244 460.66 114.864 460.66 114.864L459.995 115.113C459.995 115.113 458.015 112.754 455.858 106.835C454.173 102.215 450.269 104.357 451.982 108.306C453.256 111.247 456.223 116.181 456.223 116.181L455.781 116.389C455.781 116.389 453.177 113.08 451.139 108.409C449.543 104.745 445.816 106.527 447.143 109.739C448.47 112.951 452.147 119.107 452.147 119.107L451.605 119.319C451.605 119.319 449.659 117.294 447.912 114.353C445.599 110.459 442.749 112.594 444.713 115.915Z" fill="#FFB287"/>
<path d="M461.783 135.257L465.531 138.874L472.671 131.022L473.158 129.871L473.345 129.429L472.603 128.795C472.603 128.795 472.523 128.918 472.373 129.132C471.405 130.491 467.452 135.479 461.802 135.234L461.783 135.257Z" fill="#ED8366"/>
<path opacity="0.64" d="M466.17 117.879C466.17 117.879 466.143 117.91 466.094 117.97C466.042 118.033 465.962 118.122 465.861 118.239C465.766 118.353 465.653 118.493 465.524 118.653C465.398 118.813 465.26 118.998 465.119 119.201C465.046 119.301 464.972 119.407 464.905 119.521C464.831 119.632 464.758 119.746 464.681 119.863C464.546 120.109 464.384 120.354 464.255 120.629C464.188 120.763 464.117 120.897 464.047 121.037C463.986 121.18 463.924 121.322 463.86 121.465L463.762 121.682L463.682 121.905L463.52 122.353C463.416 122.653 463.348 122.964 463.25 123.261C463.192 123.567 463.125 123.869 463.06 124.164C463.023 124.46 462.978 124.746 462.935 125.023C462.907 125.16 462.91 125.294 462.898 125.426C462.886 125.557 462.876 125.683 462.864 125.805C462.846 126.048 462.812 126.274 462.818 126.473C462.818 126.673 462.806 126.85 462.8 126.993C462.784 127.284 462.766 127.456 462.766 127.456C462.766 127.456 462.705 127.299 462.619 127.016C462.576 126.876 462.521 126.702 462.469 126.502C462.405 126.302 462.371 126.074 462.337 125.822C462.306 125.571 462.248 125.297 462.248 125.006C462.248 124.715 462.239 124.403 462.248 124.084C462.285 123.764 462.325 123.435 462.377 123.098C462.46 122.77 462.536 122.43 462.644 122.102C462.775 121.779 462.87 121.445 463.042 121.143C463.122 120.991 463.198 120.837 463.278 120.689C463.364 120.543 463.456 120.403 463.547 120.266C463.716 119.983 463.937 119.746 464.12 119.509C464.326 119.284 464.516 119.072 464.718 118.898C464.819 118.81 464.908 118.721 465.003 118.647C465.101 118.573 465.19 118.504 465.279 118.439C465.45 118.307 465.613 118.207 465.745 118.127C465.879 118.045 465.984 117.993 466.057 117.956C466.134 117.916 466.177 117.893 466.177 117.893L466.17 117.879Z" fill="#ED8366"/>
<path d="M473.792 128.964L471.962 127.279C471.969 127.296 471.825 127.299 471.831 127.316C472.189 128.596 470.62 131.434 467.513 134.275C463.775 137.693 460.288 140.211 459.01 139.409L461.032 141.093C462.313 141.896 466.294 139.629 469.824 136.248C473.354 132.867 474.751 129.829 473.795 128.964H473.792Z" fill="white"/>
<path d="M568.375 209.211C566.53 210.228 561.107 212.002 552.534 211.095L552.901 175.628L546.347 159.65L547.692 155.258C547.692 155.258 544.124 152.888 547.198 153.449C550.46 154.046 553.217 155.82 557.947 159.787C561.444 162.719 566.204 168.026 566.897 179.869C567.269 186.166 569.318 203.511 569.349 207.646C569.349 208.278 568.987 208.875 568.37 209.216L568.375 209.211Z" fill="#252533"/>
<path d="M553.988 212.755L557.153 212.777L555.39 172.414L553.907 211.848C553.886 212.18 553.917 212.485 553.993 212.755H553.988Z" fill="#272735"/>
<path d="M557.014 163.141L554.578 184.401L547.76 173.84L542.857 166.241L539.857 161.596C539.857 161.596 539.906 161.544 540.001 161.456C540.743 160.751 544.245 157.633 548.388 157.536C551.189 157.47 554.284 158.78 557.014 163.141Z" fill="#252533"/>
<path d="M535.955 162.708H524.985C511.138 162.708 503.529 174.309 503.529 187.213H558.291C558.291 174.309 549.803 162.708 535.955 162.708Z" fill="#252533"/>
<path d="M546.81 219.806H514.225V173.958C514.225 167.391 519.936 162.068 526.984 162.068H534.05C541.098 162.068 546.81 167.391 546.81 173.958V219.806Z" fill="white"/>
<path d="M519.482 171.72C519.482 171.72 519.252 213.765 520.861 219.476C522.452 225.121 515.729 220.927 515.729 220.927L516.547 165.11L519.482 171.72Z" fill="#CEBABA"/>
<path d="M541.663 171.722C541.663 171.722 541.893 213.767 540.284 219.478C538.694 225.123 545.417 220.928 545.417 220.928L544.599 166.445L541.663 171.722Z" fill="#CEBABA"/>
<path d="M536.519 211.929L532.103 176.914C532.29 176.774 532.462 176.606 532.606 176.409L534.775 173.439C535.713 172.157 535.247 170.404 533.776 169.676L533.715 169.647C531.714 168.657 529.315 168.657 527.314 169.647L527.252 169.676C525.785 170.404 525.319 172.157 526.254 173.439L528.423 176.409C528.588 176.634 528.785 176.82 529.002 176.971L524.596 211.929C524.556 212.169 524.639 212.412 524.819 212.589L529.946 217.589C530.277 217.911 530.832 217.911 531.162 217.589L536.289 212.589C536.47 212.415 536.553 212.169 536.513 211.929H536.519Z" fill="#CEBABA"/>
<path d="M530.562 159.221C521.492 159.221 511.726 166.111 523.187 176.607L530.562 169.06L537.938 176.607C549.398 166.108 539.633 159.221 530.562 159.221Z" fill="#CEBABA"/>
<path d="M534.819 170.98L532.647 173.95C531.645 175.323 529.472 175.323 528.47 173.95L526.3 170.98C525.363 169.701 525.829 167.945 527.296 167.217L527.358 167.188C529.359 166.198 531.758 166.198 533.759 167.188L533.82 167.217C535.288 167.945 535.754 169.701 534.819 170.98Z" fill="#F93E3E"/>
<path d="M534.819 170.98C534.819 170.98 532.659 168.365 530.514 168.365C528.369 168.365 526.3 170.98 526.3 170.98C525.363 169.701 525.829 167.945 527.296 167.217L527.358 167.188C529.359 166.198 531.758 166.198 533.759 167.188L533.82 167.217C535.288 167.945 535.754 169.701 534.819 170.98Z" fill="#BA3131"/>
<path d="M561.137 226.716L549.827 225.859C545.776 225.859 542.494 221.665 542.494 216.488L542.715 178.286H558.293L561.137 226.716Z" fill="#252533"/>
<path d="M518.545 177.996V216.44C518.545 221.617 514.803 225.812 510.186 225.812L500.469 226.668L503.533 177.996L505.142 169.964L518.545 177.996Z" fill="#252533"/>
<path d="M509.323 168.491C508.882 169.422 509.247 170.567 510.013 171.218L514.729 175.224L510.335 178.708C509.559 179.322 509.146 180.318 509.234 181.338C509.572 185.201 512.351 195.709 518.544 206.776L518.565 204.103L518.06 168.186C518.06 168.186 517.018 159.289 529.364 159.289C529.364 159.289 514.376 157.807 509.32 168.494L509.323 168.491Z" fill="#131516"/>
<path d="M550.424 178.709C551.171 179.323 551.57 180.317 551.484 181.339C551.162 185.202 547.889 196.704 542.499 206.777L542.478 202.277L542.965 168.185C542.965 168.185 543.057 167.374 542.858 166.24C542.607 164.827 541.905 162.917 540.002 161.455C540.744 160.749 544.246 157.631 548.389 157.534C547.188 161.535 547.123 162.688 548.499 164.061C549.618 165.181 550.65 166.848 551.401 168.493C551.827 169.424 551.475 170.569 550.736 171.22L547.761 173.838L546.183 175.226L550.424 178.709Z" fill="#131516"/>
<path d="M504.006 163.138L506.442 184.399L513.26 173.837L518.163 166.239L521.163 161.593C521.163 161.593 521.114 161.542 521.019 161.453C520.277 160.748 516.775 157.63 512.632 157.533C509.831 157.467 506.736 158.778 504.006 163.138Z" fill="#252533"/>
<path d="M510.597 178.709C509.849 179.323 509.451 180.317 509.537 181.339C509.858 185.202 513.131 196.704 518.521 206.777L518.542 202.277L518.055 168.185C518.055 168.185 517.963 167.374 518.163 166.24C518.414 164.827 519.116 162.917 521.018 161.455C520.277 160.749 516.774 157.631 512.632 157.534C513.833 161.535 513.897 162.688 512.521 164.061C511.403 165.181 510.37 166.848 509.619 168.493C509.193 169.424 509.546 170.569 510.284 171.22L513.26 173.838L514.838 175.226L510.597 178.709Z" fill="#131516"/>
<path d="M549.704 176.383L545.617 172.959L550.005 169.022C550.719 168.382 551.105 167.234 550.645 166.34C543.901 153.214 531.996 156.432 531.996 156.432C542.522 156.926 542.513 166.038 542.513 166.038L542.473 203.534C547.507 192.972 550.412 182.77 550.725 178.97C550.808 177.964 550.422 176.985 549.701 176.383H549.704Z" fill="#323244"/>
<path d="M511.308 176.383L515.396 172.959L511.008 169.022C510.294 168.382 509.908 167.234 510.367 166.34C517.112 153.214 529.016 156.432 529.016 156.432C518.491 156.926 518.5 166.038 518.5 166.038L518.54 203.534C513.505 192.972 510.6 182.77 510.288 178.97C510.205 177.964 510.591 176.985 511.311 176.383H511.308Z" fill="#323244"/>
<path d="M530.559 156.096C521.136 156.096 510.987 163.254 522.895 174.161L530.559 166.321L538.223 174.161C550.13 163.254 539.985 156.096 530.559 156.096Z" fill="white"/>
<path d="M522.259 160.322C522.259 163.643 525.737 166.333 530.251 166.333C534.764 166.333 538.423 163.643 538.423 160.322V153.304H522.256V160.322H522.259Z" fill="#FFB287"/>
<path d="M522.259 158.505C522.259 161.261 525.737 163.493 530.251 163.493C534.764 163.493 538.423 161.261 538.423 158.505V147.975H522.256V158.505H522.259Z" fill="#F58D6C"/>
<path d="M536.293 210.987L531.166 215.989C530.835 216.312 530.281 216.312 529.95 215.989L524.823 210.987C524.643 210.812 524.56 210.57 524.6 210.327L528.709 176.474L528.951 174.481L529.04 173.75H532.08L532.168 174.481L532.469 176.965C532.469 176.965 532.472 176.968 532.472 176.971L536.517 210.327C536.556 210.57 536.474 210.812 536.293 210.987Z" fill="#F93E3E"/>
<path d="M514.814 110.25C514.9 110.421 514.98 110.607 515.057 110.807C514.958 110.624 514.879 110.438 514.814 110.25Z" fill="#993E39"/>
<path opacity="0.48" d="M532.472 176.969C532.472 176.969 532.472 176.966 532.469 176.964C532.202 176.124 531.648 175.453 530.59 175.453C529.711 175.453 529.098 175.753 528.709 176.473L528.951 174.479C528.951 174.479 529.824 175.099 530.538 175.099C531.252 175.099 532.169 174.479 532.169 174.479L532.472 176.969Z" fill="#BA3131"/>
<g clip-path="url(#clip2_1230_14607)">
<path d="M588.073 109.349C588.073 116.88 586.598 124.337 583.733 131.294C580.868 138.252 576.668 144.573 571.374 149.898C566.08 155.223 559.795 159.447 552.878 162.328C545.961 165.21 538.547 166.693 531.061 166.692C523.574 166.693 516.16 165.21 509.244 162.328C502.327 159.447 496.042 155.223 490.748 149.898C485.454 144.573 481.255 138.252 478.39 131.294C475.525 124.337 474.051 116.88 474.051 109.349C474.051 101.818 475.525 94.361 478.39 87.4032C481.255 80.4454 485.454 74.1234 490.748 68.798C496.041 63.4726 502.326 59.2483 509.243 56.3661C516.16 53.4839 523.574 52.0003 531.061 52C538.548 52 545.961 53.4833 552.878 56.3654C559.796 59.2475 566.081 63.4719 571.375 68.7973C576.669 74.1226 580.868 80.4448 583.733 87.4027C586.598 94.3606 588.073 101.818 588.073 109.349Z" fill="white"/>
<path d="M506.744 111.14V111.116C506.822 110.929 506.859 110.728 506.853 110.526C506.855 110.314 506.816 110.104 506.738 109.908C506.659 109.712 506.543 109.533 506.395 109.383C506.248 109.233 506.073 109.113 505.88 109.032C505.687 108.951 505.48 108.91 505.271 108.91H475.634C475.426 108.909 475.22 108.95 475.028 109.03C474.835 109.11 474.661 109.229 474.513 109.377C474.366 109.526 474.25 109.703 474.17 109.898C474.091 110.092 474.05 110.301 474.051 110.512V110.564C474.433 124.584 479.843 137.983 489.27 148.254C489.281 148.264 489.294 148.272 489.308 148.278C489.453 148.432 489.628 148.554 489.821 148.637C490.014 148.72 490.222 148.763 490.432 148.763C490.747 148.763 491.054 148.669 491.316 148.492C491.578 148.316 491.782 148.065 491.904 147.771L506.744 111.14ZM557.026 158.729C557.012 158.713 557.005 158.692 557.006 158.67L539.128 114.529C539.113 114.506 539.103 114.479 539.102 114.451C538.456 112.821 537.342 111.426 535.906 110.443C534.469 109.461 532.775 108.938 531.042 108.94C529.416 108.939 527.822 109.401 526.443 110.273C525.064 111.146 523.955 112.394 523.243 113.875L505.083 158.683C505.005 158.88 504.965 159.09 504.968 159.303C504.97 159.584 505.045 159.86 505.185 160.103C505.324 160.346 505.525 160.547 505.765 160.688C505.777 160.712 505.799 160.712 505.835 160.739C513.676 164.662 522.306 166.699 531.052 166.689C539.796 166.703 548.426 164.668 556.267 160.745C556.283 160.738 556.296 160.727 556.306 160.713C556.561 160.578 556.774 160.375 556.921 160.125C557.068 159.875 557.144 159.589 557.14 159.298C557.14 159.099 557.103 158.901 557.03 158.715L557.026 158.729ZM588.073 110.576C588.066 110.562 588.062 110.546 588.06 110.53C588.062 110.319 588.022 110.108 587.943 109.912C587.865 109.716 587.748 109.538 587.601 109.388C587.454 109.238 587.279 109.119 587.086 109.037C586.893 108.956 586.686 108.914 586.478 108.914H556.841C556.632 108.914 556.426 108.956 556.233 109.037C556.04 109.119 555.866 109.238 555.719 109.388C555.572 109.539 555.456 109.717 555.378 109.913C555.299 110.109 555.26 110.319 555.262 110.53C555.258 110.743 555.301 110.954 555.386 111.148L570.216 147.771C570.331 148.065 570.532 148.317 570.791 148.494C571.051 148.671 571.357 148.765 571.669 148.763C571.875 148.765 572.08 148.724 572.271 148.645C572.461 148.565 572.634 148.448 572.78 148.3C572.798 148.282 572.819 148.266 572.841 148.254C582.261 137.982 587.674 124.592 588.073 110.576Z" fill="#0C70C3"/>
<path d="M539.194 57.0985H539.218C539.266 66.7967 541.1 76.4008 544.625 85.4175L547.364 92.1985C547.465 92.438 547.62 92.65 547.816 92.8171C548.013 92.9842 548.246 93.1017 548.497 93.1599H548.513C548.56 93.1656 548.608 93.1751 548.654 93.1882H548.672H548.819H583.542C583.963 93.1882 584.367 93.0197 584.665 92.7192C584.964 92.4188 585.134 92.011 585.137 91.5845C585.136 91.4156 585.106 91.2479 585.049 91.0894V91.0753C581.759 81.2974 575.944 72.5908 568.209 65.8608C560.473 59.1309 551.099 54.6231 541.062 52.8062C541.038 52.8037 541.013 52.8037 540.989 52.8062C540.923 52.8001 540.851 52.7902 540.789 52.7902C540.369 52.7901 539.966 52.9578 539.668 53.2569C539.369 53.556 539.199 53.9625 539.194 54.3879V57.0985Z" fill="#0C70C3"/>
<path d="M513.284 93.1882H478.571L478.569 93.1944C478.149 93.1912 477.748 93.0201 477.451 92.7187C477.155 92.4173 476.988 92.0099 476.986 91.5845C476.986 91.4166 477.012 91.2495 477.062 91.0894C477.066 91.0762 477.066 91.0624 477.062 91.0492C480.356 81.2787 486.171 72.5795 493.904 65.8544C501.636 59.1294 511.004 54.6233 521.035 52.8042C521.061 52.8014 521.087 52.8014 521.113 52.8042C521.182 52.7982 521.246 52.7882 521.312 52.7882C521.521 52.7858 521.727 52.8254 521.921 52.9046C522.114 52.9838 522.29 53.1009 522.439 53.2495C522.587 53.3981 522.705 53.5752 522.785 53.7703C522.865 53.9653 522.907 54.1746 522.907 54.386V57.0965C522.848 66.7894 521.011 76.3869 517.49 85.3996L514.747 92.1923C514.636 92.467 514.452 92.7053 514.215 92.881C513.979 93.0567 513.699 93.163 513.407 93.1882H513.284Z" fill="#0C70C3"/>
</g>
<g opacity="0.2">
<path fill-rule="evenodd" clip-rule="evenodd" d="M521.88 156.803C553.367 156.803 578.891 131.128 578.891 99.4564C578.891 86.7654 574.793 75.0373 567.855 65.5381C580.221 76.0574 588.073 91.7789 588.073 109.345C588.073 141.017 562.548 166.691 531.062 166.691C512.193 166.691 495.464 157.47 485.088 143.263C495.018 151.71 507.858 156.803 521.88 156.803Z" fill="black"/>
</g>
<path style="mix-blend-mode:overlay" d="M475.04 100.899C479.604 69.5182 506.58 47.6076 539.275 52.4357C571.015 56.3881 591.546 86.234 586.983 117.615C582.418 148.996 553.659 170.693 522.748 166.078C491.836 161.461 470.477 132.28 475.04 100.899Z" fill="url(#paint18_radial_1230_14607)"/>
</g>
<g style="mix-blend-mode:screen">
<path d="M439.713 68.3027H625.767L583.778 206.687H483.874L439.713 68.3027Z" fill="url(#paint19_linear_1230_14607)"/>
</g>
<g style="mix-blend-mode:darken">
<ellipse cx="621.06" cy="213.931" rx="14.1169" ry="2.17358" fill="black" fill-opacity="0.1"/>
</g>
<g style="mix-blend-mode:darken">
<ellipse cx="444.056" cy="213.931" rx="14.1169" ry="2.17358" fill="black" fill-opacity="0.1"/>
</g>
</g>
<defs>
<filter id="filter0_d_1230_14607" x="0" y="0" width="744" height="672" filterUnits="userSpaceOnUse" color-interpolation-filters="sRGB">
<feFlood flood-opacity="0" result="BackgroundImageFix"/>
<feColorMatrix in="SourceAlpha" type="matrix" values="0 0 0 0 0 0 0 0 0 0 0 0 0 0 0 0 0 0 127 0" result="hardAlpha"/>
<feOffset/>
<feGaussianBlur stdDeviation="10"/>
<feComposite in2="hardAlpha" operator="out"/>
<feColorMatrix type="matrix" values="0 0 0 0 0 0 0 0 0 0.945274 0 0 0 0 1 0 0 0 0.64 0"/>
<feBlend mode="normal" in2="BackgroundImageFix" result="effect1_dropShadow_1230_14607"/>
<feBlend mode="normal" in="SourceGraphic" in2="effect1_dropShadow_1230_14607" result="shape"/>
</filter>
<linearGradient id="paint0_linear_1230_14607" x1="152.293" y1="545.544" x2="-180.936" y2="218.666" gradientUnits="userSpaceOnUse">
<stop stop-color="#024FC3"/>
<stop offset="1" stop-color="#0099DB"/>
</linearGradient>
<linearGradient id="paint1_linear_1230_14607" x1="811.996" y1="845.986" x2="-268.113" y2="387.916" gradientUnits="userSpaceOnUse">
<stop stop-color="#00F9FF"/>
<stop offset="0.135" stop-color="white"/>
<stop offset="0.33" stop-color="#61FBFF"/>
<stop offset="0.51" stop-color="#73FCFF"/>
<stop offset="1" stop-color="white"/>
</linearGradient>
<linearGradient id="paint2_linear_1230_14607" x1="480.01" y1="205.209" x2="501.175" y2="314.284" gradientUnits="userSpaceOnUse">
<stop stop-color="#E89900"/>
<stop offset="0.635" stop-color="#DE9B18" stop-opacity="0.53"/>
<stop offset="1" stop-color="#F2FEFF"/>
</linearGradient>
<linearGradient id="paint3_linear_1230_14607" x1="404.963" y1="223.594" x2="472.416" y2="193.901" gradientUnits="userSpaceOnUse">
<stop stop-color="#FFA439"/>
<stop offset="1" stop-color="#FFE0A5"/>
</linearGradient>
<linearGradient id="paint4_linear_1230_14607" x1="436.616" y1="223.594" x2="450.046" y2="319.463" gradientUnits="userSpaceOnUse">
<stop stop-color="#FFC14A"/>
<stop offset="1" stop-color="#F2FEFF"/>
</linearGradient>
<linearGradient id="paint5_linear_1230_14607" x1="452.378" y1="200.453" x2="440.826" y2="167.679" gradientUnits="userSpaceOnUse">
<stop stop-color="#BB4300"/>
<stop offset="1" stop-color="#F87B00" stop-opacity="0.79"/>
</linearGradient>
<linearGradient id="paint6_linear_1230_14607" x1="456.163" y1="181.458" x2="434.352" y2="215.765" gradientUnits="userSpaceOnUse">
<stop stop-color="#FFB55D"/>
<stop offset="1" stop-color="#FFDB1F"/>
</linearGradient>
<linearGradient id="paint7_linear_1230_14607" x1="588.486" y1="205.209" x2="506.152" y2="256.407" gradientUnits="userSpaceOnUse">
<stop stop-color="#26C8DE"/>
<stop offset="0.3714" stop-color="#38BFD5"/>
<stop offset="1" stop-color="#F4FDFF"/>
</linearGradient>
<linearGradient id="paint8_linear_1230_14607" x1="660.152" y1="223.07" x2="595.385" y2="195.045" gradientUnits="userSpaceOnUse">
<stop stop-color="#5EBEFF"/>
<stop offset="1" stop-color="#61FBFF"/>
</linearGradient>
<linearGradient id="paint9_linear_1230_14607" x1="580.371" y1="337.321" x2="592.634" y2="237.326" gradientUnits="userSpaceOnUse">
<stop stop-color="#F2FEFF"/>
<stop offset="1" stop-color="#02D9E7"/>
</linearGradient>
<linearGradient id="paint10_linear_1230_14607" x1="615.633" y1="197.086" x2="643.078" y2="164.186" gradientUnits="userSpaceOnUse">
<stop stop-color="#00B3FF"/>
<stop offset="1" stop-color="#36FFFF"/>
</linearGradient>
<linearGradient id="paint11_linear_1230_14607" x1="675.9" y1="140.574" x2="452.932" y2="172.531" gradientUnits="userSpaceOnUse">
<stop stop-color="white"/>
<stop offset="1" stop-color="#0073DD"/>
</linearGradient>
<linearGradient id="paint12_linear_1230_14607" x1="597.113" y1="178.719" x2="528.39" y2="211.636" gradientUnits="userSpaceOnUse">
<stop stop-color="#7CFFE7"/>
<stop offset="1" stop-color="#9CFFE7"/>
</linearGradient>
<linearGradient id="paint13_linear_1230_14607" x1="581.634" y1="179.937" x2="485.839" y2="189.553" gradientUnits="userSpaceOnUse">
<stop stop-color="#0F87E1"/>
<stop offset="1" stop-color="#005083"/>
</linearGradient>
<linearGradient id="paint14_linear_1230_14607" x1="454.916" y1="211.758" x2="552.358" y2="243.239" gradientUnits="userSpaceOnUse">
<stop stop-color="#59D7FF"/>
<stop offset="1" stop-color="#0164D9"/>
<stop offset="1.0001" stop-color="#007DF1"/>
</linearGradient>
<linearGradient id="paint15_linear_1230_14607" x1="531.856" y1="197.077" x2="531.856" y2="206.871" gradientUnits="userSpaceOnUse">
<stop stop-color="#004570" stop-opacity="0"/>
<stop offset="1" stop-color="#00609F" stop-opacity="0.41"/>
</linearGradient>
<linearGradient id="paint16_linear_1230_14607" x1="583.274" y1="175.653" x2="577.458" y2="194.017" gradientUnits="userSpaceOnUse">
<stop stop-color="white" stop-opacity="0"/>
<stop offset="1" stop-color="white" stop-opacity="0.5"/>
</linearGradient>
<linearGradient id="paint17_linear_1230_14607" x1="481.664" y1="175.347" x2="490.234" y2="194.017" gradientUnits="userSpaceOnUse">
<stop stop-color="white" stop-opacity="0"/>
<stop offset="1" stop-color="white" stop-opacity="0.5"/>
</linearGradient>
<radialGradient id="paint18_radial_1230_14607" cx="0" cy="0" r="1" gradientUnits="userSpaceOnUse" gradientTransform="translate(496.904 63.0986) rotate(57.5845) scale(89.2113 115.472)">
<stop stop-color="white"/>
<stop offset="0.655" stop-color="#007AEB" stop-opacity="0.6"/>
<stop offset="1" stop-color="#0055A3" stop-opacity="0.6"/>
</radialGradient>
<linearGradient id="paint19_linear_1230_14607" x1="544.289" y1="122.642" x2="546.68" y2="219.003" gradientUnits="userSpaceOnUse">
<stop stop-color="#BDE7FF" stop-opacity="0"/>
<stop offset="0.807731" stop-color="#27A4FF" stop-opacity="0.3"/>
<stop offset="1" stop-color="#2287FF" stop-opacity="0.77"/>
</linearGradient>
<clipPath id="clip0_1230_14607">
<rect width="287" height="194" fill="white" transform="translate(382 52)"/>
</clipPath>
<clipPath id="clip1_1230_14607">
<rect width="143.847" height="154.872" fill="white" transform="translate(444.057 52)"/>
</clipPath>
<clipPath id="clip2_1230_14607">
<rect width="114.022" height="114.692" fill="white" transform="translate(474.051 52)"/>
</clipPath>
</defs>
</svg>
