<svg width="312" height="690" viewBox="0 0 312 690" fill="none" xmlns="http://www.w3.org/2000/svg">
<path d="M1 673.586V16.4142L16.4142 1H156H295.586L311 16.4142V355.388V673.591L295.865 689H156H16.4142L1 673.586Z" fill="url(#paint0_linear_1230_14856)" stroke="url(#paint1_linear_1230_14856)" stroke-width="2"/>
<path d="M42.3401 36.616H67.3161V39.752H42.3401V36.616ZM49.4521 46.696H61.9961V49.496H49.4521V46.696ZM60.9041 41.964H64.1801V55.88C64.1801 57.532 63.8721 58.456 62.7241 58.988C61.6041 59.492 60.0081 59.52 57.7401 59.52C57.6001 58.596 57.1521 57.168 56.7041 56.3C58.1601 56.384 59.8121 56.356 60.2881 56.356C60.7361 56.356 60.9041 56.216 60.9041 55.824V41.964ZM51.0201 33.2L54.4921 33.984C52.5601 40.172 49.2281 46.472 43.9361 50.196C43.4321 49.44 42.3681 48.236 41.6961 47.592C46.5401 44.4 49.6481 38.492 51.0201 33.2ZM49.3681 51.316H61.9961V54.116H49.3681V51.316ZM49.2561 41.964H61.6601V44.932H49.2561V41.964ZM47.4081 41.964H50.7961V49.468C50.7961 52.828 50.2361 57.196 47.2121 59.744C46.7641 59.044 45.4481 57.616 44.7761 57.14C47.2121 55.04 47.4081 52.044 47.4081 49.412V41.964ZM78.7121 46.724H88.1761V55.544H78.7121V52.8H85.0401V49.468H78.7121V46.724ZM77.2841 46.724H80.3921V57.14H77.2841V46.724ZM72.6921 38.352H79.7201V40.648H72.6921V38.352ZM85.6841 38.352H92.7681V40.648H85.6841V38.352ZM91.3681 34.292H94.7561V55.488C94.7561 57.392 94.3641 58.344 93.2161 58.904C92.0401 59.464 90.2761 59.52 87.7001 59.52C87.5881 58.568 87.0281 56.972 86.5521 56.104C88.1761 56.188 90.1081 56.16 90.6401 56.16C91.1721 56.16 91.3681 55.964 91.3681 55.46V34.292ZM72.9721 34.292H81.8201V44.792H72.9721V42.216H78.6841V36.868H72.9721V34.292ZM93.1881 34.292V36.84H86.9161V42.272H93.1881V44.82H83.7241V34.292H93.1881ZM71.0401 34.292H74.3721V59.52H71.0401V34.292ZM102.288 40.004V41.348H106.264V40.004H102.288ZM102.288 36.56V37.876H106.264V36.56H102.288ZM99.3201 34.32H109.372V43.616H99.3201V34.32ZM98.0041 45.212H110.632V47.676H98.0041V45.212ZM110.52 34.404H123.428V36.756H110.52V34.404ZM103.24 45.996H106.04V57.252L103.24 55.628V45.996ZM104.696 49.944H110.128V52.352H104.696V49.944ZM115.924 34.964L118.976 35.636C118.304 37.204 117.576 38.884 116.988 39.976L114.608 39.36C115.112 38.1 115.644 36.28 115.924 34.964ZM114.384 43.98V45.296H119.48V43.98H114.384ZM114.384 47.424V48.768H119.48V47.424H114.384ZM114.384 40.508V41.824H119.48V40.508H114.384ZM111.388 38.24H122.588V51.064H111.388V38.24ZM113.656 51.26L116.428 52.1C115.224 53.696 113.236 55.292 111.5 56.244C111.024 55.712 109.96 54.732 109.344 54.284C111.024 53.556 112.704 52.408 113.656 51.26ZM99.2921 48.768H101.98C101.84 53.052 101.42 57.168 99.2921 59.688C98.9001 58.988 98.0041 57.924 97.3321 57.42C98.9281 55.46 99.2081 52.156 99.2921 48.768ZM101.532 51.12C103.1 55.824 106.6 56.3 112.312 56.328C114.188 56.328 121.916 56.328 124.212 56.216C123.764 56.86 123.288 58.148 123.12 58.988H112.312C105.368 58.988 101.532 58.036 99.5441 51.708L101.532 51.12ZM117.632 52.268L119.928 51.064C121.44 52.044 123.176 53.556 124.044 54.62L121.636 56.048C120.768 54.928 119.032 53.304 117.632 52.268ZM136.548 43.392V45.744H141.252V43.392H136.548ZM133.664 40.788H144.332V48.348H133.664V40.788ZM132.46 36.42H145.312V39.36H132.46V36.42ZM145.62 40.368H158.164V43.364H145.62V40.368ZM151.136 44.792H154.02V55.46C154.02 55.936 154.048 56.244 154.132 56.356C154.244 56.44 154.384 56.496 154.552 56.496C154.72 56.496 155.056 56.496 155.28 56.496C155.448 56.496 155.644 56.468 155.756 56.384C155.896 56.328 155.98 56.076 156.036 55.572C156.092 55.096 156.12 53.892 156.12 52.464C156.736 53.024 157.884 53.584 158.724 53.864C158.668 55.208 158.528 56.692 158.332 57.336C158.108 58.008 157.772 58.428 157.268 58.652C156.82 58.932 156.12 58.988 155.588 58.988C155.084 58.988 154.272 58.988 153.824 58.988C153.152 58.988 152.34 58.792 151.864 58.344C151.36 57.868 151.136 57.28 151.136 55.32V44.792ZM149.232 33.284H152.396C152.312 42.524 152.116 53.332 145.648 59.604C145.144 58.876 144.164 58.008 143.296 57.504C149.428 51.876 149.176 41.852 149.232 33.284ZM137.696 47.564H140.664V56.3C140.664 57.616 140.468 58.4 139.6 58.876C138.732 59.296 137.64 59.352 136.128 59.352C136.016 58.512 135.596 57.336 135.204 56.58C136.072 56.608 136.996 56.608 137.304 56.58C137.612 56.58 137.696 56.496 137.696 56.216V47.564ZM134.336 49.132L137.052 49.72C136.436 52.492 135.4 55.404 134.224 57.252C133.72 56.804 132.572 55.992 131.956 55.656C133.076 54.032 133.86 51.54 134.336 49.132ZM141.084 49.86L143.408 48.796C144.304 50.364 145.172 52.408 145.48 53.78L143.016 54.956C142.764 53.556 141.952 51.428 141.084 49.86ZM152.536 35.468L154.72 34.208C155.84 35.468 157.156 37.288 157.688 38.492L155.392 39.92C154.888 38.716 153.656 36.84 152.536 35.468ZM136.716 33.844L139.796 33.172C140.384 34.348 141 35.916 141.252 36.924L138.004 37.68C137.808 36.672 137.248 35.048 136.716 33.844ZM159.9 47.452C162.476 46.92 166.34 45.996 169.924 45.044L170.316 48.152C167.068 49.048 163.512 49.972 160.768 50.672L159.9 47.452ZM160.236 38.548H170.036V41.684H160.236V38.548ZM163.736 33.228H167.012V55.768C167.012 57.364 166.704 58.204 165.78 58.708C164.828 59.212 163.484 59.296 161.496 59.296C161.384 58.456 160.964 57.084 160.572 56.244C161.664 56.3 162.84 56.272 163.204 56.272C163.596 56.272 163.736 56.132 163.736 55.74V33.228ZM170.344 40.676L185.66 39.192L185.996 42.328L170.68 43.896L170.344 40.676ZM177.988 35.16L180.564 33.508C181.796 34.712 183.504 36.448 184.344 37.568L181.628 39.444C180.872 38.296 179.22 36.448 177.988 35.16ZM173.508 33.368H176.952C177.148 45.492 178.828 54.732 182.496 55.264C183.14 55.348 183.504 53.976 183.672 50.952C184.344 51.68 185.828 52.604 186.5 52.912C185.744 58.148 184.232 59.436 182.664 59.296C175.776 58.596 174.012 48.628 173.508 33.368ZM182.02 43.42L184.792 45.1C182.244 50.672 177.26 56.02 171.8 58.596C171.184 57.728 170.064 56.664 169.112 55.992C174.796 53.78 179.696 48.712 182.02 43.42ZM202.852 44.96H206.324V54.648C206.324 55.74 206.492 55.88 207.388 55.88C207.78 55.88 209.432 55.88 209.936 55.88C210.888 55.88 211.056 55.18 211.168 51.12C211.896 51.708 213.38 52.296 214.276 52.52C213.94 57.588 213.1 59.044 210.244 59.044C209.6 59.044 207.472 59.044 206.856 59.044C203.664 59.044 202.852 57.952 202.852 54.676V44.96ZM188.628 42.804H213.744V46.08H188.628V42.804ZM191.176 35.188H211.168V38.436H191.176V35.188ZM195.04 45.38H198.652C198.204 51.54 197.14 56.608 190.084 59.436C189.72 58.596 188.768 57.364 188.012 56.72C194.172 54.424 194.704 50.308 195.04 45.38ZM230.964 47.284H234.352V54.872C234.352 55.796 234.492 55.908 235.36 55.908C235.752 55.908 237.32 55.908 237.796 55.908C238.636 55.908 238.776 55.404 238.888 52.1C239.588 52.632 241.044 53.192 241.968 53.416C241.632 57.896 240.736 59.1 238.104 59.1C237.46 59.1 235.472 59.1 234.856 59.1C231.692 59.1 230.964 58.036 230.964 54.872V47.284ZM216.684 44.792H241.688V48.04H216.684V44.792ZM221.304 37.008H239.476V40.228H221.304V37.008ZM223.432 47.34H226.96C226.428 52.632 225.112 57.112 218.364 59.66C217.972 58.764 217.02 57.392 216.236 56.72C222.228 54.788 223.012 51.316 223.432 47.34ZM221.276 33.62L224.692 34.292C223.796 37.596 222.368 41.628 220.492 44.092C219.708 43.588 218.336 42.888 217.496 42.58C219.344 40.284 220.66 36.504 221.276 33.62ZM227.492 33.228H230.908V45.8H227.492V33.228ZM248.968 38.296H268.456V41.572H248.968V38.296ZM247.82 46.556H267.392V49.776H247.82V46.556ZM244.572 55.432H269.884V58.708H244.572V55.432ZM255.464 33.228H258.964V57.056H255.464V33.228ZM248.996 33.564L252.468 34.348C251.236 38.688 249.192 43 247.008 45.688C246.336 45.1 244.852 44.12 243.984 43.644C246.196 41.292 247.988 37.428 248.996 33.564Z" fill="white"/>
<path d="M82.0985 73.464C80.3545 74.952 78.9305 77.64 78.9305 80.92C78.9305 84.216 80.3545 86.904 82.0985 88.392V88.472H77.1225V73.384H82.0985V73.464ZM91.5225 80.12H93.5065V85.656C93.5065 86.28 93.6025 86.36 94.1145 86.36C94.3385 86.36 95.2825 86.36 95.5705 86.36C96.1145 86.36 96.2105 85.96 96.2745 83.64C96.6905 83.976 97.5385 84.312 98.0505 84.44C97.8585 87.336 97.3785 88.168 95.7465 88.168C95.3785 88.168 94.1625 88.168 93.8105 88.168C91.9865 88.168 91.5225 87.544 91.5225 85.672V80.12ZM83.3945 78.888H97.7465V80.76H83.3945V78.888ZM84.8505 74.536H96.2745V76.392H84.8505V74.536ZM87.0585 80.36H89.1225C88.8665 83.88 88.2585 86.776 84.2265 88.392C84.0185 87.912 83.4745 87.208 83.0425 86.84C86.5625 85.528 86.8665 83.176 87.0585 80.36ZM107.587 81.448H109.523V85.784C109.523 86.312 109.603 86.376 110.099 86.376C110.323 86.376 111.219 86.376 111.491 86.376C111.971 86.376 112.051 86.088 112.115 84.2C112.515 84.504 113.347 84.824 113.875 84.952C113.683 87.512 113.171 88.2 111.667 88.2C111.299 88.2 110.163 88.2 109.811 88.2C108.003 88.2 107.587 87.592 107.587 85.784V81.448ZM99.4265 80.024H113.715V81.88H99.4265V80.024ZM102.067 75.576H112.451V77.416H102.067V75.576ZM103.283 81.48H105.299C104.995 84.504 104.243 87.064 100.387 88.52C100.163 88.008 99.6185 87.224 99.1705 86.84C102.595 85.736 103.043 83.752 103.283 81.48ZM102.051 73.64L104.003 74.024C103.491 75.912 102.674 78.216 101.603 79.624C101.155 79.336 100.371 78.936 99.8905 78.76C100.947 77.448 101.699 75.288 102.051 73.64ZM105.603 73.416H107.555V80.6H105.603V73.416ZM117.875 76.312H129.011V78.184H117.875V76.312ZM117.219 81.032H128.403V82.872H117.219V81.032ZM115.363 86.104H129.827V87.976H115.363V86.104ZM121.587 73.416H123.587V87.032H121.587V73.416ZM117.891 73.608L119.875 74.056C119.171 76.536 118.003 79 116.755 80.536C116.371 80.2 115.523 79.64 115.027 79.368C116.291 78.024 117.315 75.816 117.891 73.608ZM135.987 88.472H131.011V88.392C132.755 86.904 134.179 84.216 134.179 80.92C134.179 77.64 132.755 74.952 131.011 73.464V73.384H135.987V88.472ZM147.235 87V85.656C150.467 82.76 152.355 80.536 152.355 78.712C152.355 77.528 151.731 76.792 150.595 76.792C149.715 76.792 149.027 77.352 148.419 78.024L147.123 76.744C148.211 75.576 149.283 74.952 150.899 74.952C153.123 74.952 154.627 76.376 154.627 78.584C154.627 80.744 152.835 83.048 150.674 85.16C151.266 85.096 152.051 85.016 152.611 85.016H155.171V87H147.235ZM161.376 87V79.72C161.376 79.032 161.44 77.96 161.472 77.256H161.408C161.104 77.896 160.784 78.552 160.448 79.192L158.624 82.136H164.976V83.944H156.336V82.328L160.736 75.16H163.568V87H161.376ZM172.43 73.64H174.542V86.04C174.542 87.224 174.27 87.752 173.534 88.056C172.798 88.376 171.694 88.44 170.126 88.424C170.03 87.864 169.661 86.952 169.358 86.424C170.414 86.488 171.614 86.472 171.95 86.456C172.302 86.456 172.43 86.344 172.43 86.024V73.64ZM176.286 77.848L178.158 77.144C179.47 79.4 180.798 82.328 181.198 84.328L179.102 85.16C178.766 83.224 177.55 80.2 176.286 77.848ZM168.238 77.304L170.43 77.672C169.886 80.088 169.006 83.08 167.662 84.856C167.198 84.504 166.318 84.056 165.79 83.848C167.086 82.216 167.902 79.4 168.238 77.304ZM188.27 78.328H196.462V79.992H188.27V78.328ZM187.758 75.112H196.894V76.808H187.758V75.112ZM187.774 81.24H196.83V82.92H187.774V81.24ZM191.374 73.4H193.262V79.272H191.374V73.4ZM193.406 79.784H195.278V86.408C195.278 87.336 195.102 87.832 194.478 88.104C193.838 88.392 192.974 88.424 191.774 88.424C191.71 87.896 191.422 87.128 191.166 86.632C191.95 86.664 192.83 86.664 193.07 86.648C193.326 86.648 193.406 86.6 193.406 86.376V79.784ZM188.414 83.992L190.014 83.128C190.654 83.896 191.534 85 191.95 85.704L190.253 86.696C189.885 85.992 189.07 84.84 188.414 83.992ZM183.342 74.392H187.47V85.336H183.342V83.624H185.678V76.104H183.342V74.392ZM183.438 78.936H186.542V80.616H183.438V78.936ZM182.446 74.392H184.222V86.76H182.446V74.392ZM198.318 75.64H212.59V77.48H198.318V75.64ZM203.534 80.824H211.918V82.6H203.534V80.824ZM202.91 86.264H212.526V88.04H202.91V86.264ZM206.798 78.168H208.734V87.208H206.798V78.168ZM203.358 73.4L205.358 73.88C204.174 77.736 202.158 81.624 198.734 83.96C198.542 83.416 198.094 82.568 197.806 82.104C200.702 80.216 202.526 76.632 203.358 73.4ZM200.158 80.104H202.094V88.408H200.158V80.104ZM223.39 73.4L225.582 73.784C225.134 74.648 224.67 75.496 224.302 76.04L222.67 75.64C222.958 74.984 223.246 74.072 223.39 73.4ZM222.382 78.696V79.528H226.446V78.696H222.382ZM222.382 76.552V77.368H226.446V76.552H222.382ZM220.606 75.112H228.302V80.968H220.606V75.112ZM223.646 80.312H225.47V86.536C225.47 87.384 225.326 87.88 224.782 88.168C224.238 88.456 223.486 88.472 222.462 88.472C222.398 87.96 222.19 87.208 221.95 86.728C222.542 86.76 223.198 86.76 223.39 86.744C223.598 86.744 223.646 86.696 223.646 86.504V80.312ZM220.03 81.96H222.27V83.512H220.03V81.96ZM221.854 81.96H222.158L222.446 81.912L223.582 82.296C223.054 84.808 221.87 86.648 220.206 87.672C219.982 87.272 219.47 86.664 219.134 86.344C220.462 85.592 221.502 83.96 221.854 82.232V81.96ZM227.406 81.208L228.83 82.408C227.918 83.128 226.99 83.928 226.238 84.424L225.214 83.464C225.902 82.888 226.862 81.928 227.406 81.208ZM225.39 81.224C226.014 83.368 227.278 85.368 229.038 86.328C228.638 86.664 228.078 87.368 227.79 87.848C225.95 86.584 224.766 84.2 224.094 81.528L225.39 81.224ZM217.63 79.992L219.022 79.624C219.39 80.696 219.758 82.12 219.87 82.984L218.398 83.448C218.286 82.568 217.982 81.112 217.63 79.992ZM216.254 84.2L217.598 83.96C217.774 85.048 217.918 86.424 217.95 87.352L216.526 87.624C216.526 86.696 216.398 85.272 216.254 84.2ZM214.526 83.976L215.998 84.216C215.886 85.688 215.614 87.272 215.278 88.296C214.958 88.12 214.254 87.896 213.87 87.784C214.238 86.824 214.43 85.336 214.526 83.976ZM214.382 79.768C214.286 79.416 213.982 78.568 213.79 78.104C214.094 78.024 214.366 77.72 214.67 77.256C214.99 76.792 215.934 75.048 216.462 73.368L218.206 74.072C217.486 75.768 216.414 77.592 215.438 78.84V78.872C215.438 78.872 214.382 79.448 214.382 79.768ZM214.382 79.768L214.318 78.44L215.102 77.944L217.886 77.736C217.79 78.216 217.694 78.872 217.694 79.256C215.214 79.496 214.702 79.624 214.382 79.768ZM214.493 83.48C214.398 83.112 214.094 82.232 213.886 81.752C214.302 81.64 214.654 81.272 215.166 80.68C215.694 80.104 217.358 77.832 218.35 75.64L219.966 76.648C218.814 78.792 217.182 80.968 215.598 82.536V82.584C215.598 82.584 214.493 83.144 214.493 83.48ZM214.493 83.48L214.414 82.12L215.198 81.592L219.038 81.144C218.958 81.608 218.91 82.28 218.926 82.648C215.47 83.144 214.878 83.288 214.493 83.48ZM217.854 83.88L219.102 83.496C219.358 84.2 219.646 85.096 219.758 85.704L218.446 86.152C218.35 85.544 218.094 84.6 217.854 83.88ZM236.414 77.288H238.398V81.512H236.414V77.288ZM231.646 80.616H243.118V82.088H231.646V80.616ZM230.782 78.072H244.11V79.688H230.782V78.072ZM230.286 83.16H244.606V84.728H230.286V83.16ZM239.582 82.376H241.566V86.712C241.566 87.608 241.358 88.008 240.654 88.216C239.966 88.424 238.99 88.424 237.661 88.424C237.614 87.944 237.406 87.352 237.198 86.888C237.982 86.936 238.99 86.936 239.23 86.92C239.486 86.904 239.582 86.84 239.582 86.632V82.376ZM232.846 85.4L234.206 84.392C235.006 85.064 236.142 86.04 236.702 86.68L235.278 87.8C234.766 87.16 233.661 86.12 232.846 85.4ZM232.206 74.424H237.23V76.056H232.206V74.424ZM238.862 74.424H244.846V76.056H238.862V74.424ZM232.302 73.272L233.982 73.784C233.326 75.272 232.222 76.824 231.15 77.784C230.894 77.464 230.254 76.776 229.87 76.472C230.862 75.688 231.774 74.472 232.302 73.272ZM238.942 73.272L240.702 73.704C240.19 75.32 239.294 76.92 238.366 77.944C238.046 77.64 237.326 77.08 236.926 76.824C237.806 75.96 238.542 74.616 238.942 73.272ZM233.246 76.552L234.382 75.56C234.942 75.992 235.662 76.616 236.014 77.032L234.814 78.152C234.478 77.704 233.79 77.016 233.246 76.552ZM240.222 76.6L241.454 75.608C241.982 76.056 242.67 76.728 242.99 77.192L241.694 78.296C241.406 77.832 240.75 77.096 240.222 76.6Z" fill="#53F5FF"/>
<rect x="288" y="92" width="6" height="6" transform="rotate(-180 288 92)" fill="#15FFFF"/>
<rect x="288" y="82" width="6" height="6" transform="rotate(-180 288 82)" fill="#C8FCFF"/>
<rect x="278" y="92" width="6" height="6" transform="rotate(-180 278 92)" fill="#69F6FF"/>
<path d="M61.482 136.298H70.716V137.81H61.482V136.298ZM63.642 121.646L65.262 122.204C63.786 124.688 61.446 126.938 59.178 128.342C58.908 128.018 58.278 127.37 57.9 127.1C60.186 125.858 62.382 123.842 63.642 121.646ZM70.212 123.626H70.572L70.86 123.536L72.066 124.328C69.384 128.63 63.57 131.294 58.314 132.482C58.152 132.032 57.774 131.33 57.468 130.952C62.4 129.998 68.016 127.442 70.212 123.896V123.626ZM62.454 124.544C64.812 127.568 69.492 129.926 74.55 130.826C74.154 131.204 73.686 131.924 73.434 132.392C68.358 131.33 63.75 128.774 61.032 125.21L62.454 124.544ZM60.6 131.942H71.436V138.512H69.636V133.49H62.31V138.584H60.6V131.942ZM63.228 123.626H70.608V125.12H62.202L63.228 123.626ZM86.358 123.248H87.996V137.558H86.358V123.248ZM82.056 124.976H92.064V126.326H82.056V124.976ZM81.552 136.82H92.424V138.188H81.552V136.82ZM82.578 134.318H91.776V135.65H82.578V134.318ZM91.02 122.006L92.028 123.266C89.544 123.788 85.782 124.058 82.704 124.112C82.668 123.734 82.47 123.158 82.326 122.816C85.314 122.708 88.95 122.438 91.02 122.006ZM84.234 130.808V132.014H90.174V130.808H84.234ZM84.234 128.558V129.746H90.174V128.558H84.234ZM82.74 127.334H91.74V133.238H82.74V127.334ZM78.6 123.392H80.256V138.494H78.6V123.392ZM75.81 126.884H82.362V128.468H75.81V126.884ZM78.69 127.514L79.716 127.946C79.014 130.502 77.646 133.688 76.26 135.398C76.098 134.912 75.72 134.21 75.432 133.796C76.71 132.356 78.078 129.638 78.69 127.514ZM81.318 122.042L82.488 123.356C80.76 124.04 78.24 124.526 76.152 124.814C76.062 124.436 75.846 123.878 75.648 123.518C77.664 123.176 79.968 122.654 81.318 122.042ZM80.202 129.278C80.652 129.656 82.29 131.348 82.65 131.762L81.66 133.112C81.228 132.32 79.986 130.628 79.428 129.962L80.202 129.278ZM95.25 127.748L96.78 128.036C96.456 129.674 95.826 131.33 95.124 132.392C94.818 132.158 94.152 131.816 93.756 131.636C94.494 130.664 94.98 129.188 95.25 127.748ZM95.628 129.314H101.01V130.7H94.98L95.628 129.314ZM93.756 132.464H101.298V133.886H93.756V132.464ZM97.23 129.872H98.814V131.924C98.814 133.868 98.346 136.604 94.854 138.53C94.602 138.188 94.098 137.684 93.72 137.396C96.978 135.794 97.23 133.418 97.23 131.888V129.872ZM98.364 133.58C98.886 133.94 100.596 135.452 100.974 135.848L100.002 137.18C99.462 136.478 98.058 134.93 97.446 134.354L98.364 133.58ZM94.746 121.88H96.402V125.516C96.402 126.074 96.492 126.272 96.96 126.272C97.356 126.272 99.03 126.272 99.462 126.272C99.876 126.272 100.56 126.236 100.884 126.146C100.938 126.596 100.974 127.208 101.028 127.586C100.722 127.694 100.092 127.712 99.516 127.712C99.066 127.712 97.248 127.712 96.888 127.712C95.178 127.712 94.746 127.1 94.746 125.498V121.88ZM101.802 122.384H108.822V123.716H101.802V122.384ZM108.282 122.384H108.624L108.948 122.294L109.956 122.96C108.984 124.418 107.4 125.912 105.888 126.812C105.672 126.506 105.222 126.02 104.934 125.768C106.248 125.012 107.652 123.698 108.282 122.672V122.384ZM102.558 125.588L103.566 124.544C105.132 125.21 107.22 126.344 108.3 127.154L107.22 128.324C106.212 127.532 104.16 126.344 102.558 125.588ZM101.478 128.144H109.038V129.548H101.478V128.144ZM108.732 128.144H108.966L109.2 128.072L110.244 128.342C109.902 129.494 109.47 130.808 109.038 131.636L107.796 131.258C108.156 130.52 108.516 129.332 108.732 128.36V128.144ZM104.952 128.558H106.482V137.432L104.952 136.712V128.558ZM105.582 132.338H109.65V133.76H105.582V132.338ZM103.368 133.148C104.25 136.352 106.122 136.91 108.174 136.91C108.516 136.91 109.92 136.91 110.406 136.91C110.208 137.252 110.01 137.918 109.956 138.314H108.066C105.474 138.314 103.422 137.504 102.342 133.544L103.368 133.148ZM102.216 130.61L103.764 130.664C103.62 134.174 103.098 136.802 101.532 138.602C101.28 138.368 100.596 137.864 100.236 137.666C101.766 136.136 102.144 133.67 102.216 130.61ZM95.862 123.248H100.848V124.598H95.862V123.248ZM112.296 131.132H119.496V132.356H112.296V131.132ZM111.702 133.292H119.982V134.588H111.702V133.292ZM111.774 122.888H119.928V124.166H111.774V122.888ZM115.14 125.696H116.526V129.548H115.14V125.696ZM113.592 127.784V129.098H118.02V127.784H113.592ZM112.278 126.668H119.406V130.214H112.278V126.668ZM115.068 129.602H116.652V132.284C116.652 134.3 116.148 136.82 112.674 138.494C112.44 138.152 111.972 137.666 111.594 137.378C114.708 136.028 115.068 133.796 115.068 132.248V129.602ZM115.14 135.56L116.004 134.57C117.138 135.236 118.686 136.28 119.442 136.964L118.542 138.098C117.822 137.396 116.31 136.298 115.14 135.56ZM113.304 121.844H114.798V124.94H116.994V121.844H118.56V126.002H113.304V121.844ZM121.206 128.846H127.992V130.286H121.206V128.846ZM121.224 132.428H128.01V133.886H121.224V132.428ZM121.134 136.082H128.298V137.63H121.134V136.082ZM121.944 121.808L123.492 122.204C122.736 124.868 121.512 127.568 120.18 129.314C119.928 129.026 119.28 128.468 118.92 128.234C120.216 126.668 121.278 124.22 121.944 121.808ZM122.304 125.21H128.19V126.74H122.304V138.476H120.774V126.83L122.268 125.21H122.304ZM124.392 125.912H125.922V136.874H124.392V125.912ZM123.852 122.528L125.31 122.042C125.796 122.798 126.3 123.806 126.498 124.49L124.95 125.066C124.77 124.382 124.302 123.32 123.852 122.528ZM131.502 125.354L132.906 125.624C132.474 127.622 131.682 129.494 130.62 130.682C130.404 130.43 129.864 129.926 129.54 129.71C130.512 128.666 131.178 127.064 131.502 125.354ZM129.81 131.438H138V132.932H129.81V131.438ZM129.882 123.68H137.892V125.192H129.882V123.68ZM135.048 125.462L136.434 125.714C136.02 127.586 135.264 129.296 134.238 130.412C134.004 130.178 133.464 129.71 133.14 129.494C134.076 128.522 134.706 127.046 135.048 125.462ZM131.286 127.658L132.114 126.83C132.69 127.262 133.41 127.91 133.734 128.36L132.87 129.296C132.564 128.828 131.88 128.144 131.286 127.658ZM134.76 127.838L135.732 127.1C136.434 127.784 137.316 128.774 137.748 129.386L136.722 130.25C136.326 129.602 135.462 128.576 134.76 127.838ZM139.206 128.846H145.992V130.286H139.206V128.846ZM139.224 132.428H146.01V133.886H139.224V132.428ZM139.134 136.082H146.298V137.63H139.134V136.082ZM139.944 121.862L141.528 122.24C140.772 124.904 139.584 127.604 138.288 129.368C138.018 129.08 137.37 128.522 137.01 128.27C138.27 126.704 139.314 124.256 139.944 121.862ZM140.304 125.21H146.19V126.74H140.304V138.476H138.774V126.83L140.268 125.21H140.304ZM142.392 125.912H143.922V136.874H142.392V125.912ZM132.69 122.204L134.274 121.79C134.634 122.402 135.03 123.212 135.21 123.752L133.554 124.238C133.392 123.698 133.014 122.834 132.69 122.204ZM141.852 122.528L143.328 122.042C143.814 122.798 144.3 123.806 144.516 124.49L142.95 125.066C142.77 124.382 142.302 123.32 141.852 122.528ZM131.358 133.85L132.762 134.12C132.402 135.416 131.772 136.712 131.07 137.558C130.8 137.36 130.188 137 129.828 136.838C130.53 136.064 131.052 134.948 131.358 133.85ZM135.336 134.228L136.596 133.778C137.19 134.732 137.82 135.974 138.072 136.784L136.74 137.306C136.488 136.478 135.894 135.182 135.336 134.228ZM133.284 130.232H134.886V138.458H133.284V130.232ZM153.048 126.938H163.83V128.504H153.048V126.938ZM158.52 131.294H163.524V132.806H158.52V131.294ZM151.842 136.316H164.37V137.9H151.842V136.316ZM157.728 127.568H159.366V137.36H157.728V127.568ZM153.822 130.538H155.37V137.288H153.822V130.538ZM151.446 123.77H164.352V125.3H151.446V123.77ZM150.51 123.77H152.13V129.188C152.13 132.05 151.752 136.064 149.268 138.566C149.016 138.224 148.386 137.63 148.044 137.414C150.294 135.092 150.51 131.762 150.51 129.17V123.77ZM147.738 125.93L148.98 125.318C149.61 126.362 150.204 127.748 150.384 128.648L149.052 129.35C148.872 128.45 148.314 127.01 147.738 125.93ZM147.522 132.32C148.386 131.942 149.592 131.33 150.852 130.7L151.248 132.032C150.186 132.68 149.07 133.328 148.062 133.904L147.522 132.32ZM156.234 122.15L157.944 121.79C158.268 122.51 158.646 123.428 158.808 124.022L157.044 124.454C156.9 123.842 156.54 122.87 156.234 122.15ZM173.19 125.048L174.27 124.112C175.944 124.706 178.23 125.678 179.436 126.398L178.284 127.442C177.168 126.74 174.9 125.696 173.19 125.048ZM171.48 126.326H180.624V127.604H172.992V135.632H171.48V126.326ZM180.012 126.326H181.56V134.12C181.56 134.858 181.398 135.218 180.894 135.452C180.408 135.668 179.652 135.668 178.5 135.668C178.446 135.29 178.248 134.732 178.068 134.372C178.824 134.408 179.508 134.39 179.724 134.39C179.958 134.39 180.012 134.318 180.012 134.12V126.326ZM171.588 122.492H180.39V123.788H171.588V122.492ZM172.398 128.918H180.552V130.142H172.398V128.918ZM172.398 131.51H180.552V132.788H172.398V131.51ZM175.71 126.902H177.168V135.578H175.71V126.902ZM179.796 122.492H180.192L180.534 122.402L181.56 123.23C180.318 124.382 178.518 125.57 176.862 126.308C176.664 126.02 176.25 125.57 175.998 125.336C177.42 124.724 179.04 123.644 179.796 122.798V122.492ZM166.368 122.6L167.646 121.826C168.474 122.69 169.482 123.824 169.986 124.562L168.69 125.498C168.204 124.742 167.178 123.482 166.368 122.6ZM165.81 125.984H169.698V127.37H165.81V125.984ZM169.212 134.048C170.256 136.442 172.506 136.748 175.944 136.766C177.834 136.766 180.624 136.658 182.55 136.496C182.316 136.838 182.082 137.63 181.992 138.098C180.228 138.206 177.942 138.242 175.908 138.242C171.714 138.242 169.41 137.72 168.078 134.552L169.212 134.048ZM169.158 130.43H169.554L169.842 130.394L170.67 130.7C170.058 134.606 168.564 137.198 166.512 138.548C166.296 138.224 165.738 137.63 165.414 137.396C167.34 136.208 168.672 133.94 169.158 130.7V130.43ZM166.098 132.032V130.79L166.8 130.43H169.68L169.662 131.78H167.178C166.728 131.78 166.242 131.888 166.098 132.032ZM166.098 132.032C165.99 131.672 165.666 130.916 165.504 130.592C165.792 130.52 166.08 130.394 166.404 130.034C166.962 129.494 168.672 127.118 169.284 126.146V126.092L169.752 125.894L170.832 126.398C169.968 127.622 168.33 129.89 167.304 131.06C167.304 131.06 166.098 131.636 166.098 132.032ZM191.19 125.048L192.27 124.112C193.944 124.706 196.23 125.678 197.436 126.398L196.284 127.442C195.168 126.74 192.9 125.696 191.19 125.048ZM189.48 126.326H198.624V127.604H190.992V135.632H189.48V126.326ZM198.012 126.326H199.56V134.12C199.56 134.858 199.398 135.218 198.894 135.452C198.408 135.668 197.652 135.668 196.5 135.668C196.446 135.29 196.248 134.732 196.068 134.372C196.824 134.408 197.508 134.39 197.724 134.39C197.958 134.39 198.012 134.318 198.012 134.12V126.326ZM189.588 122.492H198.39V123.788H189.588V122.492ZM190.398 128.918H198.552V130.142H190.398V128.918ZM190.398 131.51H198.552V132.788H190.398V131.51ZM193.71 126.902H195.168V135.578H193.71V126.902ZM197.796 122.492H198.192L198.534 122.402L199.56 123.23C198.318 124.382 196.518 125.57 194.862 126.308C194.664 126.02 194.25 125.57 193.998 125.336C195.42 124.724 197.04 123.644 197.796 122.798V122.492ZM184.368 122.6L185.646 121.826C186.474 122.69 187.482 123.824 187.986 124.562L186.69 125.498C186.204 124.742 185.178 123.482 184.368 122.6ZM183.81 125.984H187.698V127.37H183.81V125.984ZM187.212 134.048C188.256 136.442 190.506 136.748 193.944 136.766C195.834 136.766 198.624 136.658 200.55 136.496C200.316 136.838 200.082 137.63 199.992 138.098C198.228 138.206 195.942 138.242 193.908 138.242C189.714 138.242 187.41 137.72 186.078 134.552L187.212 134.048ZM187.158 130.43H187.554L187.842 130.394L188.67 130.7C188.058 134.606 186.564 137.198 184.512 138.548C184.296 138.224 183.738 137.63 183.414 137.396C185.34 136.208 186.672 133.94 187.158 130.7V130.43ZM184.098 132.032V130.79L184.8 130.43H187.68L187.662 131.78H185.178C184.728 131.78 184.242 131.888 184.098 132.032ZM184.098 132.032C183.99 131.672 183.666 130.916 183.504 130.592C183.792 130.52 184.08 130.394 184.404 130.034C184.962 129.494 186.672 127.118 187.284 126.146V126.092L187.752 125.894L188.832 126.398C187.968 127.622 186.33 129.89 185.304 131.06C185.304 131.06 184.098 131.636 184.098 132.032ZM202.062 124.076H217.956V125.678H202.062V124.076ZM206.454 130.538H214.806V131.978H206.454V130.538ZM214.212 127.478H215.886V136.55C215.886 137.468 215.706 137.954 215.04 138.224C214.392 138.494 213.384 138.494 211.872 138.494C211.8 138.026 211.566 137.306 211.332 136.856C212.412 136.91 213.492 136.892 213.816 136.892C214.122 136.874 214.212 136.784 214.212 136.532V127.478ZM207.822 121.808L209.568 122.204C208.344 126.146 206.184 130.142 202.8 132.536C202.548 132.14 202.008 131.546 201.684 131.222C204.834 129.08 206.886 125.3 207.822 121.808ZM206.364 133.544H214.806V134.984H206.364V133.544ZM206.346 127.478H214.644V128.99H206.346V127.478ZM205.428 127.478H207.138V132.266C207.138 134.336 206.796 137 204.96 138.638C204.744 138.278 204.078 137.558 203.754 137.324C205.266 135.92 205.428 133.94 205.428 132.248V127.478ZM221.52 126.416H226.632V127.694H221.52V126.416ZM221.52 129.422H226.632V130.664H221.52V129.422ZM221.52 132.5H226.632V133.796H221.52V132.5ZM229.242 130.34H236.064V131.798H229.242V130.34ZM222.438 123.446H225.354V124.76H222.438V123.446ZM228 122.726H234.894V124.148H228V122.726ZM227.874 133.742H236.388V135.236H227.874V133.742ZM231.492 128.594H233.112V138.458H231.492V128.594ZM223.626 127.064H224.796V133.004H223.626V127.064ZM234.39 122.726H235.92C235.92 122.726 235.902 123.122 235.884 123.32C235.776 126.272 235.614 127.46 235.218 127.91C234.966 128.234 234.642 128.378 234.192 128.414C233.814 128.468 233.076 128.468 232.338 128.432C232.302 128 232.158 127.424 231.942 127.046C232.608 127.1 233.184 127.118 233.436 127.118C233.67 127.118 233.814 127.1 233.94 126.938C234.156 126.686 234.282 125.678 234.39 122.942V122.726ZM229.116 128.738L230.556 129.026C230.196 130.682 229.584 132.338 228.864 133.4C228.576 133.202 227.928 132.878 227.568 132.716C228.324 131.726 228.846 130.232 229.116 128.738ZM222.222 121.79L223.77 122.132C223.104 124.598 222.006 126.956 220.71 128.486C220.458 128.216 219.81 127.694 219.468 127.478C220.728 126.11 221.7 123.986 222.222 121.79ZM220.872 126.416H222.258V131.186C222.258 133.436 222.042 136.55 220.746 138.548C220.494 138.332 219.864 137.936 219.54 137.792C220.764 135.902 220.872 133.22 220.872 131.186V126.416ZM226.164 126.416H227.586V136.784C227.586 137.522 227.424 137.972 226.938 138.224C226.434 138.476 225.696 138.494 224.508 138.494C224.454 138.098 224.202 137.45 224.004 137.054C224.832 137.09 225.606 137.09 225.84 137.072C226.074 137.072 226.164 137 226.164 136.766V126.416ZM230.394 123.194H231.924C231.654 125.75 230.952 127.784 228.36 128.936C228.18 128.576 227.784 128.036 227.442 127.784C229.638 126.866 230.16 125.192 230.394 123.194ZM224.94 123.446H225.282L225.498 123.374L226.488 124.004C226.092 125.138 225.408 126.506 224.868 127.37C224.58 127.154 224.094 126.866 223.788 126.722C224.22 125.912 224.706 124.598 224.94 123.716V123.446ZM244.506 133.832L244.02 132.662C245.514 132.122 246.324 131.222 246.324 129.998L246.072 128.378L247.062 129.854C246.792 130.142 246.432 130.25 246.054 130.25C245.244 130.25 244.542 129.746 244.542 128.828C244.542 127.91 245.262 127.388 246.09 127.388C247.206 127.388 247.8 128.27 247.8 129.638C247.8 131.618 246.54 133.184 244.506 133.832ZM31.3372 156.8H40.1932V158.168H31.3372V156.8ZM31.0492 159.878H40.5352V161.3H31.0492V159.878ZM36.7732 157.232H38.2852V165.188H36.7732V157.232ZM33.1552 157.304H34.6312V160.652C34.6312 161.786 34.1632 164.144 32.2012 165.476C31.9672 165.17 31.4452 164.702 31.0852 164.468C32.7772 163.442 33.1552 161.606 33.1552 160.652V157.304ZM29.1592 152.03H33.9832V153.182H29.1592V152.03ZM37.4752 152.03H42.3352V153.182H37.4752V152.03ZM41.6692 149.546H43.3432V163.442C43.3432 164.378 43.1632 164.882 42.5692 165.17C41.9752 165.458 41.0752 165.494 39.6892 165.476C39.6352 165.026 39.4012 164.234 39.1672 163.784C40.0852 163.82 41.0032 163.82 41.2912 163.802C41.5792 163.802 41.6692 163.694 41.6692 163.424V149.546ZM29.3032 149.546H35.0452V155.756H29.3032V154.496H33.4432V150.806H29.3032V149.546ZM42.5152 149.546V150.806H38.0692V154.532H42.5152V155.792H36.4492V149.546H42.5152ZM28.2952 149.546H29.9692V165.53H28.2952V149.546ZM46.8712 150.122H48.4372V154.784C48.4372 157.628 48.1672 161.912 46.5112 164.72C46.2412 164.414 45.5572 163.892 45.1972 163.73C46.7092 161.12 46.8712 157.412 46.8712 154.784V150.122ZM53.0812 148.97L54.3772 150.194C52.4152 150.806 49.6612 151.22 47.3392 151.418C47.2672 151.058 47.0512 150.482 46.8712 150.122C49.0672 149.87 51.6052 149.456 53.0812 148.97ZM55.9972 152.228H62.1352V153.812H55.9972V152.228ZM56.1772 148.844L57.8872 149.078C57.4012 152.642 56.5192 155.99 55.0432 158.168C54.7912 157.844 54.1252 157.214 53.7472 156.944C55.0972 155.054 55.8172 152.012 56.1772 148.844ZM56.7892 153.632C57.5992 158.114 59.2732 162.182 62.2612 164.018C61.8472 164.342 61.2712 165.044 60.9832 165.512C57.8872 163.298 56.3032 158.96 55.4032 153.884L56.7892 153.632ZM59.8672 152.426L61.3072 153.164C60.6412 158.834 58.8052 163.442 54.9172 165.512C54.6472 165.08 54.1072 164.45 53.6752 164.09C57.5452 162.29 59.2192 157.988 59.8672 152.426ZM47.5372 152.3H54.0352V156.908H47.5372V155.504H52.5052V153.686H47.5372V152.3ZM48.6892 162.2H53.6212V163.586H48.6892V162.2ZM48.0052 158.366H54.0532V164.36H52.5412V159.752H49.4812V164.702H48.0052V158.366ZM66.1492 158.006H77.5432V165.494H75.7972V159.374H67.8052V165.512H66.1492V158.006ZM67.1212 160.76H76.4092V162.038H67.1212V160.76ZM65.6272 150.248H71.3692V151.598H65.6272V150.248ZM63.6112 153.074H71.8192V154.442H63.6112V153.074ZM67.1212 163.496H76.4092V164.882H67.1212V163.496ZM67.2292 150.68H68.8492V152.552C68.8492 154.334 68.2552 156.782 64.5112 158.474C64.2772 158.132 63.7912 157.61 63.4132 157.322C66.9412 155.954 67.2292 153.902 67.2292 152.534V150.68ZM65.5552 148.736L67.0672 149.042C66.6172 150.608 65.7892 152.138 64.8892 153.128C64.5832 152.894 63.9172 152.48 63.5392 152.318C64.4572 151.418 65.1592 150.086 65.5552 148.736ZM68.4712 154.55C69.1192 154.874 71.2432 156.134 71.7652 156.494L70.5592 157.61C69.8752 157.034 68.1292 155.774 67.3372 155.27L68.4712 154.55ZM74.0872 151.724V155.216H77.3992V151.724H74.0872ZM72.5032 150.212H79.0732V156.746H72.5032V150.212ZM87.5512 155.252H89.1712V163.82C89.1712 164.594 89.0092 164.99 88.4872 165.224C87.9652 165.44 87.1552 165.458 86.0392 165.458C85.9672 165.062 85.7332 164.486 85.5172 164.108C86.2732 164.144 87.0112 164.126 87.2452 164.126C87.4972 164.126 87.5512 164.054 87.5512 163.82V155.252ZM83.4292 155.252H88.4332V156.692H83.4292V155.252ZM90.6652 157.25H92.3572V163.154C92.3572 163.784 92.5012 163.874 93.2932 163.874C93.6352 163.874 95.3812 163.874 95.8672 163.874C96.5512 163.874 96.6772 163.568 96.7672 161.732C97.1272 162.002 97.8112 162.272 98.2792 162.362C98.0632 164.72 97.5952 165.386 96.0112 165.386C95.5792 165.386 93.4912 165.386 93.0772 165.386C91.1692 165.386 90.6652 164.882 90.6652 163.172V157.25ZM86.6872 150.644L88.0732 150.122C88.9012 151.4 89.8912 153.128 90.3412 154.208L88.8652 154.838C88.4692 153.74 87.4972 151.958 86.6872 150.644ZM91.6912 151.184H97.0372V152.66H91.6912V151.184ZM91.7092 159.248H97.2172V160.778H91.7092V159.248ZM82.4212 154.37C82.3312 154.028 82.0612 153.236 81.8812 152.804C82.1872 152.732 82.4932 152.48 82.8532 152.084C83.2132 151.688 84.3652 150.248 85.0852 148.808L86.8132 149.348C85.8412 150.914 84.5452 152.516 83.4112 153.524V153.542C83.4112 153.542 82.4212 154.046 82.4212 154.37ZM82.4212 154.37L82.3672 153.128L83.2132 152.624L88.8472 152.21C88.9012 152.642 89.0452 153.218 89.1532 153.56C83.6452 154.064 82.9072 154.172 82.4212 154.37ZM82.6192 155.252H84.1852V159.536C84.1852 161.408 83.9692 163.928 82.7092 165.566C82.4752 165.242 81.8452 164.63 81.5212 164.414C82.5292 163.01 82.6192 161.066 82.6192 159.518V155.252ZM83.9152 161.912C84.9592 161.444 86.4892 160.652 88.0192 159.878L88.3432 160.922C87.0112 161.786 85.6432 162.65 84.4552 163.352L83.9152 161.912ZM84.1852 158.294L85.0672 157.502C85.9312 158.042 87.0652 158.834 87.6592 159.32L86.7412 160.238C86.1832 159.716 85.0492 158.888 84.1852 158.294ZM90.6652 148.844H92.3572V154.334C92.3572 154.982 92.4832 155.216 93.0592 155.216C93.5452 155.216 95.5792 155.216 96.1012 155.216C96.5692 155.216 97.3072 155.18 97.6852 155.09C97.7032 155.54 97.7752 156.17 97.8292 156.566C97.5052 156.656 96.8032 156.692 96.1372 156.692C95.6152 156.692 93.4192 156.692 93.0232 156.692C91.1872 156.692 90.6652 156.044 90.6652 154.28V148.844ZM105.569 152.084L107.387 152.444C106.109 154.28 104.273 155.954 101.573 157.232C101.339 156.836 100.817 156.26 100.439 155.99C102.959 154.946 104.669 153.452 105.569 152.084ZM105.749 153.38H111.635V154.676H104.561L105.749 153.38ZM111.131 153.38H111.455L111.761 153.29L112.913 153.992C110.483 157.844 105.209 160.04 100.169 161.012C100.007 160.58 99.6472 159.878 99.3412 159.5C104.093 158.726 109.151 156.692 111.131 153.632V153.38ZM105.011 154.37C107.099 156.926 111.401 158.528 116.225 159.086C115.847 159.482 115.379 160.22 115.145 160.706C110.249 159.986 106.001 158.132 103.517 155.036L105.011 154.37ZM102.797 159.932H112.895V165.476H111.149V161.354H104.471V165.512H102.797V159.932ZM103.751 163.514H112.031V164.936H103.751V163.514ZM100.097 150.374H115.451V154.028H113.723V151.922H101.771V154.028H100.097V150.374ZM106.379 149.042L108.053 148.628C108.521 149.348 109.079 150.356 109.349 151.004L107.585 151.472C107.351 150.842 106.811 149.816 106.379 149.042ZM119.267 149.456H123.389V151.04H119.267V149.456ZM119.267 153.614H123.443V155.198H119.267V153.614ZM126.287 155.684H132.731V157.25H126.287V155.684ZM119.231 157.88H123.389V159.482H119.231V157.88ZM118.583 149.456H120.131V155.972C120.131 158.816 119.951 162.884 118.691 165.548C118.385 165.296 117.701 164.9 117.305 164.756C118.493 162.254 118.583 158.618 118.583 155.972V149.456ZM122.435 149.456H124.019V163.586C124.019 164.432 123.857 164.936 123.353 165.206C122.831 165.494 122.093 165.53 120.887 165.512C120.833 165.098 120.635 164.324 120.419 163.892C121.175 163.91 121.895 163.91 122.111 163.892C122.345 163.892 122.435 163.82 122.435 163.568V149.456ZM131.651 149.492H133.289V152.984C133.289 153.776 133.127 154.208 132.479 154.442C131.849 154.676 130.877 154.676 129.509 154.676C129.437 154.208 129.203 153.632 128.987 153.236C129.995 153.272 131.003 153.272 131.291 153.254C131.579 153.236 131.651 153.182 131.651 152.966V149.492ZM132.263 155.684H132.551L132.821 155.63L133.829 155.972C132.965 160.616 130.787 163.748 127.925 165.458C127.727 165.08 127.277 164.486 126.935 164.198C129.491 162.848 131.561 159.788 132.263 155.99V155.684ZM128.555 156.692C129.545 160.004 131.579 162.902 134.351 164.234C133.991 164.54 133.523 165.134 133.271 165.53C130.355 163.964 128.339 160.814 127.205 157.052L128.555 156.692ZM125.351 149.492H132.083V151.076H126.953V165.512H125.351V149.492ZM135.629 159.698V158.15H140.381V159.698H135.629ZM151.531 156.188H153.277V162.83C153.277 163.496 153.403 163.604 154.051 163.604C154.339 163.604 155.689 163.604 156.085 163.604C156.769 163.604 156.877 163.136 156.949 160.436C157.327 160.742 158.065 161.048 158.533 161.156C158.353 164.324 157.921 165.206 156.229 165.206C155.833 165.206 154.177 165.206 153.799 165.206C151.999 165.206 151.531 164.648 151.531 162.848V156.188ZM142.225 155.144H158.227V156.8H142.225V155.144ZM143.827 150.158H156.643V151.796H143.827V150.158ZM146.617 156.422H148.435C148.147 160.418 147.391 163.712 142.999 165.476C142.801 165.062 142.315 164.432 141.937 164.108C145.897 162.632 146.383 159.788 146.617 156.422ZM169.639 157.646H171.349V162.974C171.349 163.532 171.457 163.622 172.087 163.622C172.375 163.622 173.689 163.622 174.067 163.622C174.679 163.622 174.769 163.28 174.841 161.03C175.201 161.318 175.939 161.588 176.407 161.714C176.227 164.504 175.759 165.242 174.211 165.242C173.833 165.242 172.231 165.242 171.871 165.242C170.071 165.242 169.639 164.702 169.639 162.974V157.646ZM160.261 156.422H176.191V158.078H160.261V156.422ZM163.231 151.454H174.841V153.092H163.231V151.454ZM164.815 157.7H166.597C166.255 161.264 165.355 164.072 161.071 165.62C160.873 165.17 160.387 164.486 159.991 164.144C163.897 162.92 164.527 160.58 164.815 157.7ZM163.411 149.168L165.139 149.51C164.581 151.598 163.645 154.136 162.403 155.738C162.007 155.468 161.323 155.108 160.909 154.946C162.115 153.452 162.997 151.022 163.411 149.168ZM167.353 148.808H169.081V156.944H167.353V148.808ZM180.961 152.21H193.453V153.866H180.961V152.21ZM180.187 157.502H192.787V159.14H180.187V157.502ZM178.171 163.316H194.335V164.972H178.171V163.316ZM185.353 148.808H187.135V164.126H185.353V148.808ZM181.267 149.078L183.013 149.474C182.239 152.264 180.943 154.964 179.521 156.692C179.179 156.404 178.423 155.9 177.991 155.666C179.431 154.1 180.601 151.616 181.267 149.078ZM204.271 150.032H212.425V151.184H204.271V150.032ZM206.881 152.084H211.813V153.092H206.881V152.084ZM205.603 154.316H212.281V155.324H205.603V154.316ZM208.303 152.84H209.779V154.856H208.303V152.84ZM207.133 148.754L208.429 148.952C207.853 151.436 206.701 153.47 205.027 154.766C204.865 154.514 204.415 153.992 204.145 153.74C205.639 152.642 206.665 150.878 207.133 148.754ZM210.301 156.044H211.597V161.93C211.597 162.542 211.489 162.848 211.057 163.028C210.643 163.226 210.013 163.226 209.041 163.226C208.987 162.902 208.825 162.452 208.663 162.146C209.275 162.164 209.887 162.164 210.067 162.164C210.247 162.164 210.301 162.11 210.301 161.93V156.044ZM206.197 156.044H210.949V157.07H206.197V156.044ZM205.603 156.044H206.881V158.564C206.881 159.968 206.701 161.876 205.747 163.136C205.513 162.938 204.937 162.542 204.649 162.416C205.513 161.264 205.603 159.734 205.603 158.528V156.044ZM206.701 160.31C207.781 160.094 209.257 159.734 210.805 159.374L210.913 160.328C209.581 160.796 208.303 161.21 207.187 161.552L206.701 160.31ZM207.097 158.168L207.727 157.322C208.537 157.718 209.491 158.186 209.995 158.564L209.365 159.536C208.843 159.14 207.871 158.546 207.097 158.168ZM196.513 149.528H200.473V151.058H197.881V165.476H196.513V149.528ZM199.969 149.528H200.221L200.437 149.474L201.409 150.032C200.977 151.508 200.401 153.344 199.879 154.784C200.977 156.296 201.229 157.592 201.229 158.69C201.229 159.698 201.031 160.472 200.545 160.85C200.311 161.048 200.023 161.156 199.681 161.192C199.357 161.228 198.979 161.228 198.601 161.228C198.583 160.85 198.457 160.292 198.259 159.914C198.583 159.95 198.871 159.95 199.105 159.95C199.285 159.932 199.465 159.878 199.591 159.788C199.807 159.59 199.915 159.104 199.897 158.546C199.897 157.592 199.663 156.368 198.583 154.946C199.123 153.308 199.681 151.148 199.969 149.942V149.528ZM201.445 149.51L202.723 149.114C203.227 149.996 203.803 151.148 204.073 151.904L202.741 152.372C202.489 151.598 201.913 150.392 201.445 149.51ZM201.139 152.948H203.659V154.406H201.139V152.948ZM203.551 161.066C204.433 163.478 206.215 163.874 208.735 163.874C209.887 163.874 211.561 163.82 212.731 163.694C212.515 164.036 212.335 164.756 212.263 165.188C211.219 165.26 209.869 165.278 208.681 165.278C205.531 165.278 203.623 164.666 202.489 161.516L203.551 161.066ZM203.227 157.286H203.767L204.019 157.232L204.613 157.502C204.109 161.462 202.813 164.144 200.959 165.566C200.761 165.242 200.275 164.702 199.969 164.468C201.697 163.226 202.831 160.868 203.227 157.538V157.286ZM201.643 158.96V157.628L202.345 157.286H203.893V158.69H202.615C202.273 158.69 201.787 158.816 201.643 158.96ZM201.643 158.96C201.553 158.618 201.265 157.952 201.103 157.646C201.373 157.574 201.589 157.466 201.787 157.088C202.075 156.62 202.957 154.01 203.263 153.038V152.984L203.659 152.822L204.649 153.092C204.199 154.298 203.299 156.872 202.705 158.024C202.705 158.024 201.643 158.582 201.643 158.96ZM220.867 154.442H229.975V155.936H220.867V154.442ZM220.165 150.86H230.515V152.372H220.165V150.86ZM220.219 157.664H230.443V159.176H220.219V157.664ZM224.503 148.79H226.177V155.288H224.503V148.79ZM226.825 155.702H228.499V163.622C228.499 164.504 228.301 164.972 227.689 165.224C227.059 165.476 226.123 165.494 224.719 165.494C224.647 165.044 224.395 164.36 224.161 163.91C225.169 163.946 226.159 163.946 226.447 163.928C226.735 163.928 226.825 163.856 226.825 163.586V155.702ZM221.155 160.418L222.559 159.626C223.369 160.526 224.377 161.804 224.845 162.632L223.333 163.532C222.919 162.704 221.965 161.354 221.155 160.418ZM215.287 149.96H219.841V162.002H215.287V160.472H218.257V151.49H215.287V149.96ZM215.359 155.144H219.013V156.656H215.359V155.144ZM214.477 149.96H216.061V163.532H214.477V149.96ZM240.955 154.208H244.645V155.522H240.955V154.208ZM239.587 159.446H245.689V160.634H239.587V159.446ZM233.629 149.51H238.633V150.878H233.629V149.51ZM238.183 149.51H238.471L238.741 149.456L239.803 149.978C238.471 153.056 235.555 155.09 232.585 156.134C232.369 155.774 231.955 155.18 231.667 154.892C234.367 154.064 237.139 152.156 238.183 149.78V149.51ZM241.441 148.862C242.701 151.598 245.329 153.74 248.677 154.622C248.317 154.946 247.885 155.54 247.651 155.954C244.177 154.856 241.531 152.48 240.073 149.276L241.441 148.862ZM244.699 148.934L245.941 149.798C245.077 150.59 244.015 151.4 243.205 151.958L242.215 151.184C242.989 150.608 244.087 149.636 244.699 148.934ZM246.931 150.734L248.173 151.598C247.309 152.39 246.211 153.2 245.383 153.74L244.357 152.966C245.167 152.39 246.301 151.418 246.931 150.734ZM234.421 154.28H238.795V158.528H237.265V155.594H234.421V154.28ZM233.845 157.232H235.249C235.069 158.618 234.835 160.31 234.619 161.39H233.179C233.431 160.274 233.683 158.564 233.845 157.232ZM237.265 160.112H238.813C238.813 160.112 238.795 160.526 238.759 160.742C238.561 163.226 238.345 164.342 237.895 164.792C237.535 165.152 237.157 165.278 236.581 165.314C236.095 165.35 235.159 165.35 234.169 165.296C234.151 164.846 233.953 164.252 233.683 163.856C234.637 163.928 235.591 163.946 235.933 163.946C236.257 163.946 236.455 163.928 236.599 163.784C236.905 163.532 237.103 162.578 237.265 160.328V160.112ZM240.325 154.208H241.765V155.594C241.765 156.836 241.387 158.258 239.785 159.23C239.569 158.924 239.011 158.366 238.705 158.168C240.109 157.394 240.325 156.422 240.325 155.558V154.208ZM245.329 159.446H245.635L245.905 159.392L246.841 159.734C245.635 163.046 242.809 164.72 239.407 165.53C239.263 165.17 238.939 164.612 238.669 164.288C241.711 163.712 244.357 162.2 245.329 159.644V159.446ZM234.475 157.232H237.805V158.528H234.241L234.475 157.232ZM233.953 160.112H237.697V161.39H233.701L233.953 160.112ZM233.107 151.958L234.079 151.058C234.871 151.49 235.861 152.156 236.347 152.642L235.321 153.668C234.871 153.164 233.899 152.444 233.107 151.958ZM243.871 154.208H245.293V156.98C245.293 157.412 245.329 157.538 245.581 157.538C245.779 157.538 246.517 157.538 246.715 157.538C246.967 157.538 247.399 157.52 247.615 157.466C247.633 157.808 247.669 158.312 247.723 158.636C247.489 158.726 247.111 158.726 246.751 158.726C246.499 158.726 245.653 158.726 245.401 158.726C244.123 158.726 243.871 158.222 243.871 156.962V154.208ZM239.461 161.516L240.271 160.562C242.413 161.696 245.419 163.388 246.949 164.432L246.085 165.548C244.627 164.504 241.657 162.722 239.461 161.516ZM255.445 157.52H261.583V162.974H255.445V161.57H259.981V158.942H255.445V157.52ZM254.707 157.52H256.291V164.036H254.707V157.52ZM251.593 152.156H256.381V153.362H251.593V152.156ZM259.909 152.156H264.769V153.362H259.909V152.156ZM264.031 149.546H265.759V163.37C265.759 164.414 265.525 164.918 264.877 165.206C264.193 165.494 263.113 165.512 261.493 165.512C261.439 165.044 261.151 164.234 260.899 163.784C262.033 163.838 263.239 163.82 263.581 163.802C263.923 163.802 264.031 163.694 264.031 163.352V149.546ZM251.719 149.546H257.461V156.062H251.719V154.73H255.859V150.878H251.719V149.546ZM264.949 149.546V150.878H260.521V154.766H264.949V156.08H258.901V149.546H264.949ZM250.765 149.546H252.457V165.53H250.765V149.546ZM275.479 159.536L275.065 152.912L274.993 150.536H277.423L277.351 152.912L276.937 159.536H275.479ZM276.217 164.126C275.443 164.126 274.867 163.586 274.867 162.776C274.867 161.948 275.461 161.39 276.217 161.39C276.955 161.39 277.549 161.948 277.549 162.776C277.549 163.586 276.955 164.126 276.217 164.126Z" fill="white"/>
<g clip-path="url(#clip0_1230_14856)">
<path d="M105.191 351.02L115.684 334.572L152.733 436.36H142.714L105.191 351.02Z" fill="url(#paint2_linear_1230_14856)"/>
<path d="M71.9924 334.572H115.946L105.192 351.441H45.123L71.9924 334.572Z" fill="url(#paint3_linear_1230_14856)"/>
<path d="M45.123 351.44H105.454L142.702 436.207H109.257L45.123 351.44Z" fill="url(#paint4_linear_1230_14856)"/>
<path fill-rule="evenodd" clip-rule="evenodd" d="M58.5539 308.674C54.7079 308.674 52.4611 313.011 54.6796 316.153L60.3306 324.155C61.2193 325.414 62.6641 326.162 64.2049 326.162H81.2296C81.2933 326.959 81.7488 327.729 82.6676 328.12L84.9806 329.104C86.8001 329.879 88.7123 328.217 88.1995 326.307L88.1606 326.162H88.8125C92.2184 326.162 94.5141 322.679 93.1711 319.549L89.7371 311.546C88.9893 309.804 87.2751 308.674 85.3786 308.674H58.5539Z" fill="url(#paint5_linear_1230_14856)"/>
<path fill-rule="evenodd" clip-rule="evenodd" d="M57.0109 309.912C53.165 309.912 50.9182 314.249 53.1366 317.391L58.7876 325.393C59.6764 326.652 61.1211 327.4 62.6619 327.4H78.5919C79.2101 327.4 79.6951 327.907 80.0201 328.432C80.2571 328.816 80.6214 329.144 81.1247 329.358L83.4376 330.342C85.2571 331.117 87.1694 329.455 86.6565 327.545C86.6369 327.472 86.692 327.4 86.7676 327.4H87.2696C90.6754 327.4 92.9712 323.917 91.6281 320.787L88.1942 312.785C87.4463 311.042 85.7321 309.912 83.8356 309.912H57.0109Z" fill="url(#paint6_linear_1230_14856)" fill-opacity="0.95"/>
<path d="M83.4037 317.803C84.5303 319.052 84.5742 320.471 83.5019 320.974C82.4296 321.477 80.647 320.873 79.5204 319.625C78.3938 318.376 78.3498 316.957 79.4221 316.454C80.4945 315.951 82.2771 316.555 83.4037 317.803Z" fill="white"/>
<path d="M75.3861 317.803C76.5127 319.052 76.5567 320.471 75.4843 320.974C74.412 321.477 72.6294 320.873 71.5028 319.625C70.3762 318.376 70.3322 316.957 71.4045 316.454C72.4769 315.951 74.2595 316.555 75.3861 317.803Z" fill="white"/>
<path d="M66.8373 317.803C67.9639 319.052 68.0078 320.471 66.9355 320.974C65.8631 321.477 64.0806 320.873 62.954 319.625C61.8274 318.376 61.7834 316.957 62.8557 316.454C63.9281 315.951 65.7107 316.555 66.8373 317.803Z" fill="white"/>
<path d="M222.502 350.552L212.483 334.573L174.979 454.502L184.393 460.568L222.502 350.552Z" fill="url(#paint7_linear_1230_14856)"/>
<path d="M254.205 334.573H212.233L222.503 350.962H279.863L254.205 334.573Z" fill="url(#paint8_linear_1230_14856)" fill-opacity="0.8"/>
<path d="M279.863 350.961H222.252L185.003 456.935H207.574L279.863 350.961Z" fill="url(#paint9_linear_1230_14856)"/>
<path d="M226.824 314.192C228.143 310.305 231.813 307.707 235.918 307.756L254.962 307.979C262.369 308.066 266.822 316.23 262.886 322.505L261.841 324.17C260.106 326.936 257.07 328.615 253.806 328.615H235.166C228.67 328.615 224.096 322.233 226.183 316.081L226.824 314.192Z" fill="#0051AF"/>
<path d="M228.326 315.666C229.631 311.775 233.29 309.164 237.394 309.196L255.619 309.337C263.029 309.395 267.515 317.547 263.597 323.838L262.95 324.876C261.218 327.656 258.174 329.346 254.899 329.346H236.925C230.443 329.346 225.871 322.991 227.931 316.845L228.326 315.666Z" fill="url(#paint10_linear_1230_14856)"/>
<path opacity="0.8" d="M259.972 312.663H263.883L255.807 326.623L251.896 326.623L259.972 312.663Z" fill="white"/>
<path opacity="0.8" d="M250.202 318.646H253.895L249.598 326.623L245.904 326.623L250.202 318.646Z" fill="white"/>
<path opacity="0.8" d="M239.522 313.303C238.172 313.211 236.738 313.508 235.408 314.153C234.077 314.799 232.91 315.764 232.059 316.923C231.208 318.083 230.711 319.383 230.633 320.655C230.556 321.927 230.901 323.113 231.624 324.059C232.347 325.004 233.415 325.666 234.689 325.958C235.963 326.25 237.384 326.158 238.768 325.696C240.152 325.233 241.435 324.421 242.451 323.364C243.468 322.307 244.17 321.054 244.467 319.767L237.624 319.706L239.522 313.303Z" fill="white"/>
<path d="M241.255 312.392C242.967 312.507 244.429 313.24 245.342 314.44C246.254 315.641 246.546 317.219 246.16 318.849L239.363 318.758L241.255 312.392Z" fill="white"/>
<path d="M102.441 340.437L117.981 308.209H206.184L224.115 340.437H102.441Z" fill="url(#paint11_linear_1230_14856)" stroke="url(#paint12_linear_1230_14856)" stroke-width="0.797097"/>
<path d="M128.063 311.386H197.32L209.425 336.099H117.646L128.063 311.386Z" fill="url(#paint13_linear_1230_14856)"/>
<path d="M135.802 450.254L103.032 341.502H223.591L192.989 450.254H135.802Z" fill="url(#paint14_linear_1230_14856)" stroke="#BBFBFF" stroke-width="1.82065"/>
<path d="M121.306 327.111H204.921L209.707 336.098H117.646L121.306 327.111Z" fill="url(#paint15_linear_1230_14856)"/>
<path d="M201.823 292.009L214.492 317.003L209.706 336.38L197.037 311.386L201.823 292.009Z" fill="url(#paint16_linear_1230_14856)"/>
<path d="M126.094 290.605L112.58 318.969L117.648 336.1L128.064 311.387L126.094 290.605Z" fill="url(#paint17_linear_1230_14856)"/>
<g clip-path="url(#clip1_1230_14856)">
<path d="M95.9214 276.294L96.5275 276.883C102.137 282.296 131.674 309.883 135.518 313.472C135.786 313.724 135.93 313.857 135.93 313.857L141.756 293.947C141.756 293.947 122.964 276.656 109.059 263.91C108.529 263.441 107.732 263.328 107.061 263.64C104.448 264.848 98.2271 268.408 95.9045 273.776C95.7749 274.078 95.6565 274.382 95.5522 274.693C95.3633 275.259 95.4986 275.867 95.9214 276.294Z" fill="#252533"/>
<path d="M95.9214 276.295L96.5275 276.884L135.518 315.113V308.619L100.507 274.212L95.9045 273.777C95.7749 274.079 95.6565 274.383 95.5522 274.694C95.3633 275.26 95.4986 275.868 95.9214 276.295Z" fill="#131516"/>
<path d="M102.948 269.994C99.7006 273.095 96.1124 275.013 94.937 274.277C93.7588 273.541 95.4387 270.428 98.6859 267.327C101.933 264.225 105.521 262.307 106.697 263.043C107.875 263.779 106.195 266.892 102.948 269.994Z" fill="white"/>
<path d="M102.916 270.033C100.07 272.752 96.9295 274.431 95.8979 273.787C94.8662 273.142 96.3376 270.415 99.1845 267.696C102.029 264.976 105.171 263.297 106.203 263.941C107.235 264.586 105.763 267.313 102.916 270.033Z" fill="#88999D"/>
<path d="M81.686 252.644C82.6613 254.295 87.8111 260.904 89.4121 263.116C90.5621 264.703 91.7347 265.693 92.896 266.265C93.1948 266.411 93.4795 266.579 93.7529 266.762L97.389 270.391L100.836 273.71L107.404 266.506L108.128 265.712L107.852 265.45L107.13 264.771L104.501 262.141C105.558 260.226 105.245 258.182 105.589 256.61C106.361 253.087 109.574 249.076 106.753 249.094C103.658 249.112 101.42 254.446 101.42 254.446C101.42 254.446 99.5058 250.87 97.9753 245.361C96.5547 240.239 93.4879 241.879 94.125 244.968C94.8268 248.358 96.3545 251.68 96.3545 251.68L95.7429 251.908C95.7429 251.908 93.922 249.744 91.9376 244.313C90.3874 240.074 86.7963 242.039 88.372 245.662C89.5446 248.361 92.2731 252.888 92.2731 252.888L91.8672 253.079C91.8672 253.079 89.4713 250.042 87.5969 245.756C86.1283 242.395 82.7008 244.03 83.9213 246.977C85.1418 249.925 88.5242 255.573 88.5242 255.573L88.0253 255.767C88.0253 255.767 86.2354 253.909 84.6288 251.211C82.5007 247.637 79.8793 249.597 81.686 252.644Z" fill="#FFB287"/>
<path d="M97.3887 270.391L100.836 273.71L107.403 266.505L107.852 265.45L108.024 265.044L107.341 264.462C107.341 264.462 107.268 264.575 107.13 264.771C106.239 266.018 102.603 270.595 97.4056 270.37L97.3887 270.391Z" fill="#ED8366"/>
<path opacity="0.64" d="M101.422 254.446C101.422 254.446 101.397 254.475 101.352 254.53C101.304 254.588 101.231 254.669 101.138 254.776C101.05 254.881 100.946 255.01 100.827 255.156C100.712 255.303 100.585 255.473 100.455 255.659C100.388 255.751 100.32 255.848 100.258 255.953C100.19 256.055 100.123 256.16 100.052 256.267C99.9283 256.492 99.7789 256.718 99.6606 256.969C99.5985 257.092 99.5337 257.215 99.4689 257.344C99.4125 257.475 99.3561 257.606 99.2969 257.737L99.2067 257.936L99.1335 258.14L98.9841 258.552C98.8882 258.827 98.8262 259.112 98.736 259.385C98.6825 259.665 98.6205 259.943 98.5613 260.213C98.5274 260.485 98.4852 260.747 98.4457 261.001C98.4203 261.127 98.4231 261.25 98.4119 261.371C98.4006 261.491 98.3921 261.606 98.3809 261.719C98.364 261.942 98.3329 262.149 98.3386 262.332C98.3386 262.515 98.3273 262.678 98.3217 262.809C98.3076 263.076 98.2907 263.233 98.2907 263.233C98.2907 263.233 98.2343 263.089 98.1554 262.83C98.1159 262.701 98.0652 262.542 98.0173 262.358C97.9581 262.175 97.9271 261.965 97.896 261.735C97.8679 261.504 97.8143 261.253 97.8143 260.985C97.8143 260.718 97.8058 260.433 97.8143 260.139C97.8481 259.846 97.8848 259.545 97.9327 259.235C98.0088 258.934 98.0793 258.622 98.1779 258.321C98.2991 258.025 98.3865 257.718 98.5443 257.441C98.6176 257.302 98.6881 257.16 98.7614 257.024C98.8403 256.891 98.9249 256.762 99.0094 256.636C99.1645 256.377 99.3674 256.16 99.5365 255.942C99.7254 255.735 99.9001 255.541 100.086 255.382C100.179 255.3 100.261 255.219 100.348 255.151C100.439 255.083 100.52 255.02 100.602 254.96C100.76 254.839 100.909 254.748 101.03 254.674C101.154 254.598 101.25 254.551 101.318 254.517C101.388 254.48 101.428 254.459 101.428 254.459L101.422 254.446Z" fill="#ED8366"/>
<path d="M108.435 264.616L106.753 263.07C106.758 263.086 106.626 263.089 106.631 263.104C106.961 264.278 105.518 266.882 102.66 269.489C99.221 272.625 96.0133 274.936 94.8379 274.199L96.6982 275.745C97.8764 276.481 101.538 274.401 104.785 271.299C108.032 268.197 109.318 265.41 108.438 264.616H108.435Z" fill="white"/>
<path d="M195.436 338.246C193.738 339.179 188.75 340.806 180.864 339.974L181.202 307.432L175.172 292.772L176.41 288.742C176.41 288.742 173.128 286.568 175.955 287.083C178.956 287.631 181.492 289.258 185.843 292.898C189.059 295.588 193.438 300.457 194.076 311.323C194.418 317.101 196.303 333.016 196.331 336.809C196.331 337.39 195.998 337.937 195.431 338.25L195.436 338.246Z" fill="#252533"/>
<path d="M182.2 341.497L185.111 341.518L183.489 304.483L182.125 340.665C182.106 340.97 182.134 341.25 182.205 341.497H182.2Z" fill="#272735"/>
<path d="M184.987 295.975L182.746 315.482L176.474 305.792L171.965 298.82L169.205 294.558C169.205 294.558 169.25 294.51 169.338 294.429C170.02 293.782 173.241 290.921 177.052 290.832C179.629 290.772 182.475 291.974 184.987 295.975Z" fill="#252533"/>
<path d="M165.615 295.578H155.524C142.786 295.578 135.787 306.223 135.787 318.062H186.16C186.16 306.223 178.352 295.578 165.615 295.578Z" fill="#252533"/>
<path d="M175.599 347.967H145.625V305.9C145.625 299.875 150.879 294.991 157.362 294.991H163.862C170.345 294.991 175.599 299.875 175.599 305.9V347.967Z" fill="white"/>
<path d="M150.461 303.846C150.461 303.846 150.249 342.424 151.729 347.663C153.192 352.843 147.008 348.994 147.008 348.994L147.76 297.781L150.461 303.846Z" fill="#CEBABA"/>
<path d="M170.865 303.848C170.865 303.848 171.077 342.426 169.597 347.665C168.134 352.845 174.318 348.996 174.318 348.996L173.566 299.007L170.865 303.848Z" fill="#CEBABA"/>
<path d="M166.131 340.739L162.069 308.612C162.241 308.484 162.399 308.329 162.531 308.148L164.527 305.424C165.39 304.247 164.961 302.639 163.608 301.971L163.552 301.945C161.711 301.035 159.504 301.035 157.664 301.945L157.607 301.971C156.257 302.639 155.829 304.247 156.688 305.424L158.684 308.148C158.836 308.355 159.016 308.526 159.217 308.664L155.163 340.739C155.127 340.959 155.203 341.182 155.369 341.344L160.085 345.932C160.389 346.228 160.899 346.228 161.204 345.932L165.919 341.344C166.086 341.185 166.162 340.959 166.125 340.739H166.131Z" fill="#CEBABA"/>
<path d="M160.652 292.378C152.309 292.378 143.326 298.7 153.868 308.33L160.652 301.406L167.437 308.33C177.979 298.697 168.996 292.378 160.652 292.378Z" fill="#CEBABA"/>
<path d="M164.568 303.168L162.57 305.892C161.648 307.153 159.65 307.153 158.728 305.892L156.732 303.168C155.87 301.994 156.298 300.383 157.648 299.715L157.705 299.689C159.545 298.78 161.752 298.78 163.593 299.689L163.649 299.715C164.999 300.383 165.428 301.994 164.568 303.168Z" fill="#F93E3E"/>
<path d="M164.568 303.168C164.568 303.168 162.581 300.768 160.608 300.768C158.635 300.768 156.732 303.168 156.732 303.168C155.87 301.994 156.298 300.383 157.648 299.715L157.705 299.689C159.545 298.78 161.752 298.78 163.593 299.689L163.649 299.715C164.999 300.383 165.428 301.994 164.568 303.168Z" fill="#BA3131"/>
<path d="M188.778 354.306L178.374 353.52C174.648 353.52 171.629 349.672 171.629 344.922L171.832 309.871H186.162L188.778 354.306Z" fill="#252533"/>
<path d="M149.598 309.605V344.879C149.598 349.628 146.157 353.477 141.909 353.477L132.971 354.263L135.789 309.605L137.269 302.235L149.598 309.605Z" fill="#252533"/>
<path d="M141.117 300.884C140.711 301.738 141.046 302.788 141.751 303.386L146.089 307.061L142.047 310.258C141.334 310.821 140.953 311.735 141.035 312.671C141.345 316.215 143.902 325.856 149.598 336.011L149.618 333.559L149.153 300.604C149.153 300.604 148.194 292.44 159.551 292.44C159.551 292.44 145.765 291.08 141.114 300.886L141.117 300.884Z" fill="#131516"/>
<path d="M178.924 310.26C179.612 310.823 179.978 311.735 179.9 312.673C179.604 316.217 176.593 326.77 171.635 336.013L171.615 331.884L172.064 300.603C172.064 300.603 172.148 299.859 171.965 298.819C171.734 297.522 171.088 295.769 169.338 294.428C170.02 293.781 173.242 290.92 177.053 290.831C175.948 294.501 175.889 295.56 177.154 296.82C178.183 297.847 179.133 299.377 179.823 300.886C180.215 301.74 179.891 302.791 179.212 303.388L176.475 305.79L175.023 307.064L178.924 310.26Z" fill="#131516"/>
<path d="M136.227 295.972L138.467 315.479L144.739 305.789L149.249 298.817L152.008 294.555C152.008 294.555 151.963 294.508 151.876 294.426C151.194 293.779 147.972 290.918 144.161 290.829C141.585 290.769 138.738 291.972 136.227 295.972Z" fill="#252533"/>
<path d="M142.289 310.26C141.601 310.823 141.235 311.735 141.314 312.673C141.61 316.217 144.62 326.77 149.578 336.013L149.598 331.884L149.15 300.603C149.15 300.603 149.065 299.859 149.248 298.819C149.479 297.522 150.125 295.769 151.875 294.428C151.193 293.781 147.971 290.92 144.161 290.831C145.265 294.501 145.325 295.56 144.059 296.82C143.03 297.847 142.08 299.377 141.39 300.886C140.998 301.74 141.322 302.791 142.001 303.388L144.738 305.79L146.19 307.064L142.289 310.26Z" fill="#131516"/>
<path d="M178.262 308.125L174.502 304.983L178.538 301.371C179.195 300.784 179.55 299.73 179.127 298.91C172.923 286.867 161.973 289.82 161.973 289.82C171.655 290.273 171.646 298.633 171.646 298.633L171.61 333.037C176.241 323.346 178.913 313.985 179.201 310.498C179.277 309.576 178.921 308.677 178.259 308.125H178.262Z" fill="#323244"/>
<path d="M142.943 308.125L146.703 304.983L142.667 301.371C142.01 300.784 141.655 299.73 142.078 298.91C148.282 286.867 159.232 289.82 159.232 289.82C149.55 290.273 149.559 298.633 149.559 298.633L149.595 333.037C144.964 323.346 142.292 313.985 142.005 310.498C141.928 309.576 142.284 308.677 142.946 308.125H142.943Z" fill="#323244"/>
<path d="M160.65 289.512C151.983 289.512 142.647 296.08 153.601 306.088L160.65 298.893L167.7 306.088C178.653 296.08 169.321 289.512 160.65 289.512Z" fill="white"/>
<path d="M153.016 293.389C153.016 296.436 156.216 298.904 160.368 298.904C164.52 298.904 167.885 296.436 167.885 293.389V286.949H153.014V293.389H153.016Z" fill="#FFB287"/>
<path d="M153.016 291.722C153.016 294.25 156.216 296.298 160.368 296.298C164.52 296.298 167.885 294.25 167.885 291.722V282.06H153.014V291.722H153.016Z" fill="#F58D6C"/>
<path d="M165.925 339.875L161.21 344.465C160.905 344.761 160.395 344.761 160.091 344.465L155.375 339.875C155.209 339.716 155.133 339.493 155.169 339.27L158.949 308.209L159.172 306.381L159.253 305.71H162.05L162.131 306.381L162.408 308.66C162.408 308.66 162.41 308.663 162.41 308.665L166.131 339.27C166.168 339.493 166.092 339.716 165.925 339.875Z" fill="#F93E3E"/>
<path d="M146.168 247.446C146.247 247.603 146.32 247.774 146.391 247.957C146.3 247.789 146.227 247.619 146.168 247.446Z" fill="#993E39"/>
<path opacity="0.48" d="M162.411 308.663C162.411 308.663 162.411 308.661 162.408 308.658C162.163 307.888 161.652 307.272 160.68 307.272C159.871 307.272 159.307 307.547 158.949 308.208L159.172 306.379C159.172 306.379 159.975 306.947 160.632 306.947C161.289 306.947 162.132 306.379 162.132 306.379L162.411 308.663Z" fill="#BA3131"/>
<g clip-path="url(#clip2_1230_14856)">
<path d="M213.556 246.619C213.556 253.529 212.199 260.371 209.564 266.754C206.928 273.138 203.065 278.938 198.195 283.824C193.326 288.71 187.544 292.585 181.182 295.229C174.819 297.873 168 299.234 161.113 299.233C154.226 299.234 147.407 297.873 141.044 295.229C134.682 292.585 128.901 288.71 124.031 283.824C119.161 278.938 115.299 273.138 112.663 266.754C110.028 260.371 108.672 253.529 108.672 246.619C108.672 239.709 110.028 232.867 112.663 226.483C115.298 220.099 119.161 214.299 124.031 209.413C128.9 204.526 134.682 200.651 141.044 198.006C147.407 195.362 154.226 194 161.113 194C168 194 174.82 195.361 181.182 198.005C187.545 200.65 193.327 204.526 198.196 209.412C203.066 214.298 206.929 220.099 209.564 226.483C212.2 232.867 213.556 239.709 213.556 246.619Z" fill="white"/>
<path d="M138.745 248.263V248.24C138.816 248.069 138.851 247.885 138.846 247.699C138.848 247.505 138.811 247.312 138.739 247.132C138.667 246.952 138.56 246.788 138.424 246.65C138.289 246.513 138.128 246.403 137.95 246.329C137.772 246.254 137.582 246.216 137.39 246.217H110.128C109.937 246.216 109.747 246.253 109.57 246.327C109.394 246.401 109.233 246.509 109.097 246.646C108.962 246.782 108.855 246.944 108.782 247.123C108.709 247.302 108.671 247.493 108.672 247.686V247.735C109.023 260.598 114 272.892 122.671 282.315C122.682 282.325 122.694 282.332 122.706 282.338C122.84 282.479 123.001 282.591 123.178 282.667C123.356 282.744 123.547 282.783 123.741 282.783C124.03 282.783 124.313 282.696 124.553 282.534C124.794 282.372 124.982 282.142 125.094 281.872L138.745 248.263ZM184.998 291.927C184.985 291.912 184.978 291.893 184.979 291.873L168.534 251.373C168.52 251.351 168.511 251.326 168.51 251.3C167.915 249.805 166.891 248.525 165.57 247.624C164.248 246.722 162.69 246.242 161.096 246.244C159.6 246.243 158.134 246.667 156.865 247.467C155.597 248.268 154.577 249.413 153.922 250.772L137.217 291.884C137.145 292.065 137.109 292.258 137.111 292.453C137.113 292.711 137.182 292.964 137.311 293.187C137.439 293.41 137.623 293.595 137.845 293.724C137.856 293.747 137.876 293.747 137.909 293.771C145.122 297.371 153.06 299.239 161.105 299.231C169.149 299.243 177.087 297.376 184.299 293.776C184.314 293.77 184.326 293.76 184.336 293.747C184.57 293.623 184.765 293.437 184.901 293.208C185.036 292.979 185.106 292.716 185.102 292.449C185.103 292.266 185.068 292.084 185.001 291.914L184.998 291.927ZM213.556 247.746C213.55 247.732 213.546 247.718 213.545 247.703C213.546 247.509 213.51 247.316 213.437 247.136C213.365 246.957 213.258 246.793 213.122 246.655C212.987 246.517 212.826 246.408 212.649 246.334C212.471 246.259 212.281 246.22 212.089 246.22H184.827C184.635 246.22 184.445 246.259 184.268 246.334C184.091 246.408 183.93 246.518 183.795 246.655C183.66 246.793 183.553 246.957 183.481 247.137C183.409 247.317 183.373 247.509 183.375 247.703C183.371 247.898 183.41 248.092 183.489 248.27L197.13 281.872C197.237 282.143 197.421 282.374 197.66 282.536C197.898 282.699 198.18 282.785 198.467 282.783C198.657 282.784 198.845 282.747 199.02 282.674C199.196 282.602 199.355 282.494 199.489 282.358C199.505 282.341 199.525 282.327 199.546 282.315C208.21 272.891 213.189 260.605 213.556 247.746Z" fill="#0C70C3"/>
<path d="M168.596 198.678H168.618C168.662 207.576 170.348 216.388 173.591 224.661L176.111 230.883C176.203 231.102 176.346 231.297 176.527 231.45C176.708 231.604 176.922 231.711 177.152 231.765H177.167C177.211 231.77 177.255 231.779 177.297 231.791H177.314H177.45H209.389C209.776 231.791 210.148 231.636 210.423 231.361C210.698 231.085 210.854 230.711 210.856 230.319C210.856 230.164 210.828 230.011 210.776 229.865V229.852C207.749 220.881 202.4 212.892 195.285 206.717C188.169 200.542 179.547 196.406 170.314 194.739C170.292 194.737 170.269 194.737 170.246 194.739C170.186 194.734 170.12 194.725 170.063 194.725C169.677 194.725 169.306 194.878 169.031 195.153C168.757 195.427 168.6 195.8 168.596 196.191V198.678Z" fill="#0C70C3"/>
<path d="M144.762 231.791H112.831L112.829 231.796C112.443 231.794 112.073 231.637 111.801 231.36C111.528 231.084 111.374 230.71 111.373 230.319C111.373 230.165 111.397 230.012 111.443 229.865C111.446 229.853 111.446 229.84 111.443 229.828C114.473 220.864 119.822 212.882 126.935 206.711C134.047 200.541 142.664 196.407 151.891 194.737C151.915 194.735 151.939 194.735 151.963 194.737C152.027 194.732 152.086 194.723 152.146 194.723C152.338 194.721 152.529 194.757 152.706 194.83C152.884 194.902 153.046 195.01 153.183 195.146C153.319 195.282 153.427 195.445 153.501 195.624C153.575 195.803 153.613 195.995 153.613 196.189V198.676C153.559 207.569 151.87 216.375 148.631 224.645L146.108 230.877C146.005 231.129 145.836 231.348 145.619 231.509C145.401 231.67 145.144 231.768 144.875 231.791H144.762Z" fill="#0C70C3"/>
</g>
<g opacity="0.2">
<path fill-rule="evenodd" clip-rule="evenodd" d="M152.668 290.158C181.631 290.158 205.11 266.601 205.11 237.542C205.11 225.897 201.34 215.137 194.958 206.421C206.333 216.073 213.556 230.498 213.556 246.615C213.556 275.674 190.077 299.232 161.114 299.232C143.757 299.232 128.369 290.771 118.824 277.736C127.958 285.486 139.769 290.158 152.668 290.158Z" fill="black"/>
</g>
<path style="mix-blend-mode:overlay" d="M109.582 238.867C113.781 210.074 138.595 189.97 168.669 194.4C197.865 198.027 216.751 225.411 212.554 254.204C208.355 282.997 181.901 302.905 153.466 298.67C125.032 294.434 105.384 267.66 109.582 238.867Z" fill="url(#paint18_radial_1230_14856)"/>
</g>
<g style="mix-blend-mode:screen">
<path d="M77.0879 208.958H248.232L209.608 335.929H117.71L77.0879 208.958Z" fill="url(#paint19_linear_1230_14856)"/>
</g>
<g style="mix-blend-mode:darken">
<ellipse cx="243.904" cy="342.575" rx="12.9856" ry="1.99432" fill="black" fill-opacity="0.1"/>
</g>
<g style="mix-blend-mode:darken">
<ellipse cx="81.0833" cy="342.575" rx="12.9856" ry="1.99432" fill="black" fill-opacity="0.1"/>
</g>
</g>
<defs>
<linearGradient id="paint0_linear_1230_14856" x1="31.5" y1="483.733" x2="-148.685" y2="419.936" gradientUnits="userSpaceOnUse">
<stop stop-color="#024FC3"/>
<stop offset="1" stop-color="#0099DB"/>
</linearGradient>
<linearGradient id="paint1_linear_1230_14856" x1="350.998" y1="901.789" x2="-197.525" y2="807.359" gradientUnits="userSpaceOnUse">
<stop stop-color="#00F9FF"/>
<stop offset="0.135" stop-color="white"/>
<stop offset="0.33" stop-color="#61FBFF"/>
<stop offset="0.51" stop-color="#73FCFF"/>
<stop offset="1" stop-color="white"/>
</linearGradient>
<linearGradient id="paint2_linear_1230_14856" x1="114.157" y1="334.572" x2="133.53" y2="434.67" gradientUnits="userSpaceOnUse">
<stop stop-color="#E89900"/>
<stop offset="0.635" stop-color="#DE9B18" stop-opacity="0.53"/>
<stop offset="1" stop-color="#F2FEFF"/>
</linearGradient>
<linearGradient id="paint3_linear_1230_14856" x1="45.123" y1="351.441" x2="107.119" y2="324.08" gradientUnits="userSpaceOnUse">
<stop stop-color="#FFA439"/>
<stop offset="1" stop-color="#FFE0A5"/>
</linearGradient>
<linearGradient id="paint4_linear_1230_14856" x1="74.2393" y1="351.44" x2="86.5316" y2="439.411" gradientUnits="userSpaceOnUse">
<stop stop-color="#FFC14A"/>
<stop offset="1" stop-color="#F2FEFF"/>
</linearGradient>
<linearGradient id="paint5_linear_1230_14856" x1="88.6064" y1="330.066" x2="78.0359" y2="300.227" gradientUnits="userSpaceOnUse">
<stop stop-color="#BB4300"/>
<stop offset="1" stop-color="#F87B00" stop-opacity="0.79"/>
</linearGradient>
<linearGradient id="paint6_linear_1230_14856" x1="92.0175" y1="312.761" x2="72.0958" y2="343.94" gradientUnits="userSpaceOnUse">
<stop stop-color="#FFB55D"/>
<stop offset="1" stop-color="#FFDB1F"/>
</linearGradient>
<linearGradient id="paint7_linear_1230_14856" x1="213.941" y1="334.573" x2="138.313" y2="381.721" gradientUnits="userSpaceOnUse">
<stop stop-color="#26C8DE"/>
<stop offset="0.3714" stop-color="#38BFD5"/>
<stop offset="1" stop-color="#F4FDFF"/>
</linearGradient>
<linearGradient id="paint8_linear_1230_14856" x1="279.863" y1="350.962" x2="220.334" y2="325.138" gradientUnits="userSpaceOnUse">
<stop stop-color="#5EBEFF"/>
<stop offset="1" stop-color="#61FBFF"/>
</linearGradient>
<linearGradient id="paint9_linear_1230_14856" x1="206.476" y1="455.789" x2="217.699" y2="364.034" gradientUnits="userSpaceOnUse">
<stop stop-color="#F2FEFF"/>
<stop offset="1" stop-color="#02D9E7"/>
</linearGradient>
<linearGradient id="paint10_linear_1230_14856" x1="238.911" y1="327.121" x2="264.081" y2="296.871" gradientUnits="userSpaceOnUse">
<stop stop-color="#00B3FF"/>
<stop offset="1" stop-color="#36FFFF"/>
</linearGradient>
<linearGradient id="paint11_linear_1230_14856" x1="294.347" y1="275.269" x2="89.268" y2="304.736" gradientUnits="userSpaceOnUse">
<stop stop-color="white"/>
<stop offset="1" stop-color="#0073DD"/>
</linearGradient>
<linearGradient id="paint12_linear_1230_14856" x1="221.873" y1="310.268" x2="158.718" y2="340.594" gradientUnits="userSpaceOnUse">
<stop stop-color="#7CFFE7"/>
<stop offset="1" stop-color="#9CFFE7"/>
</linearGradient>
<linearGradient id="paint13_linear_1230_14856" x1="207.636" y1="311.386" x2="119.522" y2="320.253" gradientUnits="userSpaceOnUse">
<stop stop-color="#0F87E1"/>
<stop offset="1" stop-color="#005083"/>
</linearGradient>
<linearGradient id="paint14_linear_1230_14856" x1="91.0719" y1="340.582" x2="180.662" y2="369.6" gradientUnits="userSpaceOnUse">
<stop stop-color="#59D7FF"/>
<stop offset="1" stop-color="#0164D9"/>
<stop offset="1.0001" stop-color="#007DF1"/>
</linearGradient>
<linearGradient id="paint15_linear_1230_14856" x1="161.847" y1="327.111" x2="161.847" y2="336.098" gradientUnits="userSpaceOnUse">
<stop stop-color="#004570" stop-opacity="0"/>
<stop offset="1" stop-color="#00609F" stop-opacity="0.41"/>
</linearGradient>
<linearGradient id="paint16_linear_1230_14856" x1="209.143" y1="307.454" x2="203.818" y2="324.312" gradientUnits="userSpaceOnUse">
<stop stop-color="white" stop-opacity="0"/>
<stop offset="1" stop-color="white" stop-opacity="0.5"/>
</linearGradient>
<linearGradient id="paint17_linear_1230_14856" x1="115.677" y1="307.174" x2="123.527" y2="324.32" gradientUnits="userSpaceOnUse">
<stop stop-color="white" stop-opacity="0"/>
<stop offset="1" stop-color="white" stop-opacity="0.5"/>
</linearGradient>
<radialGradient id="paint18_radial_1230_14856" cx="0" cy="0" r="1" gradientUnits="userSpaceOnUse" gradientTransform="translate(129.694 204.184) rotate(57.5186) scale(81.9136 106.14)">
<stop stop-color="white"/>
<stop offset="0.655" stop-color="#007AEB" stop-opacity="0.6"/>
<stop offset="1" stop-color="#0055A3" stop-opacity="0.6"/>
</radialGradient>
<linearGradient id="paint19_linear_1230_14856" x1="173.284" y1="258.816" x2="175.471" y2="347.23" gradientUnits="userSpaceOnUse">
<stop stop-color="#BDE7FF" stop-opacity="0"/>
<stop offset="0.807731" stop-color="#27A4FF" stop-opacity="0.3"/>
<stop offset="1" stop-color="#2287FF" stop-opacity="0.77"/>
</linearGradient>
<clipPath id="clip0_1230_14856">
<rect width="264" height="178" fill="white" transform="translate(24 194)"/>
</clipPath>
<clipPath id="clip1_1230_14856">
<rect width="132.319" height="142.099" fill="white" transform="translate(81.082 194)"/>
</clipPath>
<clipPath id="clip2_1230_14856">
<rect width="104.884" height="105.233" fill="white" transform="translate(108.672 194)"/>
</clipPath>
</defs>
</svg>
