<svg width="328" height="706" viewBox="0 0 328 706" fill="none" xmlns="http://www.w3.org/2000/svg">
<g filter="url(#filter0_bd_1230_14856)">
<path d="M8 24L24 8L164 8L304 8L320 24V363.388V682L304.285 698H164H24L8 682V24Z" fill="url(#paint0_linear_1230_14856)"/>
<path d="M24.4142 697L9 681.586V24.4142L24.4142 9H164H303.586L319 24.4142V363.388V681.591L303.865 697H164H24.4142Z" stroke="url(#paint1_linear_1230_14856)" stroke-width="2"/>
</g>
<path d="M50.3401 44.616H75.3161V47.752H50.3401V44.616ZM57.4521 54.696H69.9961V57.496H57.4521V54.696ZM68.9041 49.964H72.1801V63.88C72.1801 65.532 71.8721 66.456 70.7241 66.988C69.6041 67.492 68.0081 67.52 65.7401 67.52C65.6001 66.596 65.1521 65.168 64.7041 64.3C66.1601 64.384 67.8121 64.356 68.2881 64.356C68.7361 64.356 68.9041 64.216 68.9041 63.824V49.964ZM59.0201 41.2L62.4921 41.984C60.5601 48.172 57.2281 54.472 51.9361 58.196C51.4321 57.44 50.3681 56.236 49.6961 55.592C54.5401 52.4 57.6481 46.492 59.0201 41.2ZM57.3681 59.316H69.9961V62.116H57.3681V59.316ZM57.2561 49.964H69.6601V52.932H57.2561V49.964ZM55.4081 49.964H58.7961V57.468C58.7961 60.828 58.2361 65.196 55.2121 67.744C54.7641 67.044 53.4481 65.616 52.7761 65.14C55.2121 63.04 55.4081 60.044 55.4081 57.412V49.964ZM86.7121 54.724H96.1761V63.544H86.7121V60.8H93.0401V57.468H86.7121V54.724ZM85.2841 54.724H88.3921V65.14H85.2841V54.724ZM80.6921 46.352H87.7201V48.648H80.6921V46.352ZM93.6841 46.352H100.768V48.648H93.6841V46.352ZM99.3681 42.292H102.756V63.488C102.756 65.392 102.364 66.344 101.216 66.904C100.04 67.464 98.2761 67.52 95.7001 67.52C95.5881 66.568 95.0281 64.972 94.5521 64.104C96.1761 64.188 98.1081 64.16 98.6401 64.16C99.1721 64.16 99.3681 63.964 99.3681 63.46V42.292ZM80.9721 42.292H89.8201V52.792H80.9721V50.216H86.6841V44.868H80.9721V42.292ZM101.188 42.292V44.84H94.9161V50.272H101.188V52.82H91.7241V42.292H101.188ZM79.0401 42.292H82.3721V67.52H79.0401V42.292ZM110.288 48.004V49.348H114.264V48.004H110.288ZM110.288 44.56V45.876H114.264V44.56H110.288ZM107.32 42.32H117.372V51.616H107.32V42.32ZM106.004 53.212H118.632V55.676H106.004V53.212ZM118.52 42.404H131.428V44.756H118.52V42.404ZM111.24 53.996H114.04V65.252L111.24 63.628V53.996ZM112.696 57.944H118.128V60.352H112.696V57.944ZM123.924 42.964L126.976 43.636C126.304 45.204 125.576 46.884 124.988 47.976L122.608 47.36C123.112 46.1 123.644 44.28 123.924 42.964ZM122.384 51.98V53.296H127.48V51.98H122.384ZM122.384 55.424V56.768H127.48V55.424H122.384ZM122.384 48.508V49.824H127.48V48.508H122.384ZM119.388 46.24H130.588V59.064H119.388V46.24ZM121.656 59.26L124.428 60.1C123.224 61.696 121.236 63.292 119.5 64.244C119.024 63.712 117.96 62.732 117.344 62.284C119.024 61.556 120.704 60.408 121.656 59.26ZM107.292 56.768H109.98C109.84 61.052 109.42 65.168 107.292 67.688C106.9 66.988 106.004 65.924 105.332 65.42C106.928 63.46 107.208 60.156 107.292 56.768ZM109.532 59.12C111.1 63.824 114.6 64.3 120.312 64.328C122.188 64.328 129.916 64.328 132.212 64.216C131.764 64.86 131.288 66.148 131.12 66.988H120.312C113.368 66.988 109.532 66.036 107.544 59.708L109.532 59.12ZM125.632 60.268L127.928 59.064C129.44 60.044 131.176 61.556 132.044 62.62L129.636 64.048C128.768 62.928 127.032 61.304 125.632 60.268ZM144.548 51.392V53.744H149.252V51.392H144.548ZM141.664 48.788H152.332V56.348H141.664V48.788ZM140.46 44.42H153.312V47.36H140.46V44.42ZM153.62 48.368H166.164V51.364H153.62V48.368ZM159.136 52.792H162.02V63.46C162.02 63.936 162.048 64.244 162.132 64.356C162.244 64.44 162.384 64.496 162.552 64.496C162.72 64.496 163.056 64.496 163.28 64.496C163.448 64.496 163.644 64.468 163.756 64.384C163.896 64.328 163.98 64.076 164.036 63.572C164.092 63.096 164.12 61.892 164.12 60.464C164.736 61.024 165.884 61.584 166.724 61.864C166.668 63.208 166.528 64.692 166.332 65.336C166.108 66.008 165.772 66.428 165.268 66.652C164.82 66.932 164.12 66.988 163.588 66.988C163.084 66.988 162.272 66.988 161.824 66.988C161.152 66.988 160.34 66.792 159.864 66.344C159.36 65.868 159.136 65.28 159.136 63.32V52.792ZM157.232 41.284H160.396C160.312 50.524 160.116 61.332 153.648 67.604C153.144 66.876 152.164 66.008 151.296 65.504C157.428 59.876 157.176 49.852 157.232 41.284ZM145.696 55.564H148.664V64.3C148.664 65.616 148.468 66.4 147.6 66.876C146.732 67.296 145.64 67.352 144.128 67.352C144.016 66.512 143.596 65.336 143.204 64.58C144.072 64.608 144.996 64.608 145.304 64.58C145.612 64.58 145.696 64.496 145.696 64.216V55.564ZM142.336 57.132L145.052 57.72C144.436 60.492 143.4 63.404 142.224 65.252C141.72 64.804 140.572 63.992 139.956 63.656C141.076 62.032 141.86 59.54 142.336 57.132ZM149.084 57.86L151.408 56.796C152.304 58.364 153.172 60.408 153.48 61.78L151.016 62.956C150.764 61.556 149.952 59.428 149.084 57.86ZM160.536 43.468L162.72 42.208C163.84 43.468 165.156 45.288 165.688 46.492L163.392 47.92C162.888 46.716 161.656 44.84 160.536 43.468ZM144.716 41.844L147.796 41.172C148.384 42.348 149 43.916 149.252 44.924L146.004 45.68C145.808 44.672 145.248 43.048 144.716 41.844ZM167.9 55.452C170.476 54.92 174.34 53.996 177.924 53.044L178.316 56.152C175.068 57.048 171.512 57.972 168.768 58.672L167.9 55.452ZM168.236 46.548H178.036V49.684H168.236V46.548ZM171.736 41.228H175.012V63.768C175.012 65.364 174.704 66.204 173.78 66.708C172.828 67.212 171.484 67.296 169.496 67.296C169.384 66.456 168.964 65.084 168.572 64.244C169.664 64.3 170.84 64.272 171.204 64.272C171.596 64.272 171.736 64.132 171.736 63.74V41.228ZM178.344 48.676L193.66 47.192L193.996 50.328L178.68 51.896L178.344 48.676ZM185.988 43.16L188.564 41.508C189.796 42.712 191.504 44.448 192.344 45.568L189.628 47.444C188.872 46.296 187.22 44.448 185.988 43.16ZM181.508 41.368H184.952C185.148 53.492 186.828 62.732 190.496 63.264C191.14 63.348 191.504 61.976 191.672 58.952C192.344 59.68 193.828 60.604 194.5 60.912C193.744 66.148 192.232 67.436 190.664 67.296C183.776 66.596 182.012 56.628 181.508 41.368ZM190.02 51.42L192.792 53.1C190.244 58.672 185.26 64.02 179.8 66.596C179.184 65.728 178.064 64.664 177.112 63.992C182.796 61.78 187.696 56.712 190.02 51.42ZM210.852 52.96H214.324V62.648C214.324 63.74 214.492 63.88 215.388 63.88C215.78 63.88 217.432 63.88 217.936 63.88C218.888 63.88 219.056 63.18 219.168 59.12C219.896 59.708 221.38 60.296 222.276 60.52C221.94 65.588 221.1 67.044 218.244 67.044C217.6 67.044 215.472 67.044 214.856 67.044C211.664 67.044 210.852 65.952 210.852 62.676V52.96ZM196.628 50.804H221.744V54.08H196.628V50.804ZM199.176 43.188H219.168V46.436H199.176V43.188ZM203.04 53.38H206.652C206.204 59.54 205.14 64.608 198.084 67.436C197.72 66.596 196.768 65.364 196.012 64.72C202.172 62.424 202.704 58.308 203.04 53.38ZM238.964 55.284H242.352V62.872C242.352 63.796 242.492 63.908 243.36 63.908C243.752 63.908 245.32 63.908 245.796 63.908C246.636 63.908 246.776 63.404 246.888 60.1C247.588 60.632 249.044 61.192 249.968 61.416C249.632 65.896 248.736 67.1 246.104 67.1C245.46 67.1 243.472 67.1 242.856 67.1C239.692 67.1 238.964 66.036 238.964 62.872V55.284ZM224.684 52.792H249.688V56.04H224.684V52.792ZM229.304 45.008H247.476V48.228H229.304V45.008ZM231.432 55.34H234.96C234.428 60.632 233.112 65.112 226.364 67.66C225.972 66.764 225.02 65.392 224.236 64.72C230.228 62.788 231.012 59.316 231.432 55.34ZM229.276 41.62L232.692 42.292C231.796 45.596 230.368 49.628 228.492 52.092C227.708 51.588 226.336 50.888 225.496 50.58C227.344 48.284 228.66 44.504 229.276 41.62ZM235.492 41.228H238.908V53.8H235.492V41.228ZM256.968 46.296H276.456V49.572H256.968V46.296ZM255.82 54.556H275.392V57.776H255.82V54.556ZM252.572 63.432H277.884V66.708H252.572V63.432ZM263.464 41.228H266.964V65.056H263.464V41.228ZM256.996 41.564L260.468 42.348C259.236 46.688 257.192 51 255.008 53.688C254.336 53.1 252.852 52.12 251.984 51.644C254.196 49.292 255.988 45.428 256.996 41.564Z" fill="white"/>
<path d="M90.0985 81.464C88.3545 82.952 86.9305 85.64 86.9305 88.92C86.9305 92.216 88.3545 94.904 90.0985 96.392V96.472H85.1225V81.384H90.0985V81.464ZM99.5225 88.12H101.507V93.656C101.507 94.28 101.603 94.36 102.115 94.36C102.339 94.36 103.283 94.36 103.571 94.36C104.115 94.36 104.211 93.96 104.275 91.64C104.691 91.976 105.539 92.312 106.051 92.44C105.859 95.336 105.379 96.168 103.747 96.168C103.379 96.168 102.163 96.168 101.811 96.168C99.9865 96.168 99.5225 95.544 99.5225 93.672V88.12ZM91.3945 86.888H105.747V88.76H91.3945V86.888ZM92.8505 82.536H104.275V84.392H92.8505V82.536ZM95.0585 88.36H97.1225C96.8665 91.88 96.2585 94.776 92.2265 96.392C92.0185 95.912 91.4745 95.208 91.0425 94.84C94.5625 93.528 94.8665 91.176 95.0585 88.36ZM115.587 89.448H117.523V93.784C117.523 94.312 117.603 94.376 118.099 94.376C118.323 94.376 119.219 94.376 119.491 94.376C119.971 94.376 120.051 94.088 120.115 92.2C120.515 92.504 121.347 92.824 121.875 92.952C121.683 95.512 121.171 96.2 119.667 96.2C119.299 96.2 118.163 96.2 117.811 96.2C116.003 96.2 115.587 95.592 115.587 93.784V89.448ZM107.427 88.024H121.715V89.88H107.427V88.024ZM110.067 83.576H120.451V85.416H110.067V83.576ZM111.283 89.48H113.299C112.995 92.504 112.243 95.064 108.387 96.52C108.163 96.008 107.618 95.224 107.171 94.84C110.595 93.736 111.043 91.752 111.283 89.48ZM110.051 81.64L112.003 82.024C111.491 83.912 110.674 86.216 109.603 87.624C109.155 87.336 108.371 86.936 107.891 86.76C108.947 85.448 109.699 83.288 110.051 81.64ZM113.603 81.416H115.555V88.6H113.603V81.416ZM125.875 84.312H137.011V86.184H125.875V84.312ZM125.219 89.032H136.403V90.872H125.219V89.032ZM123.363 94.104H137.827V95.976H123.363V94.104ZM129.587 81.416H131.587V95.032H129.587V81.416ZM125.891 81.608L127.875 82.056C127.171 84.536 126.003 87 124.755 88.536C124.371 88.2 123.523 87.64 123.027 87.368C124.291 86.024 125.315 83.816 125.891 81.608ZM143.987 96.472H139.011V96.392C140.755 94.904 142.179 92.216 142.179 88.92C142.179 85.64 140.755 82.952 139.011 81.464V81.384H143.987V96.472ZM155.235 95V93.656C158.467 90.76 160.355 88.536 160.355 86.712C160.355 85.528 159.731 84.792 158.595 84.792C157.715 84.792 157.027 85.352 156.419 86.024L155.123 84.744C156.211 83.576 157.283 82.952 158.899 82.952C161.123 82.952 162.627 84.376 162.627 86.584C162.627 88.744 160.835 91.048 158.674 93.16C159.266 93.096 160.051 93.016 160.611 93.016H163.171V95H155.235ZM169.376 95V87.72C169.376 87.032 169.44 85.96 169.472 85.256H169.408C169.104 85.896 168.784 86.552 168.448 87.192L166.624 90.136H172.976V91.944H164.336V90.328L168.736 83.16H171.568V95H169.376ZM180.43 81.64H182.542V94.04C182.542 95.224 182.27 95.752 181.534 96.056C180.798 96.376 179.694 96.44 178.126 96.424C178.03 95.864 177.661 94.952 177.358 94.424C178.414 94.488 179.614 94.472 179.95 94.456C180.302 94.456 180.43 94.344 180.43 94.024V81.64ZM184.286 85.848L186.158 85.144C187.47 87.4 188.798 90.328 189.198 92.328L187.102 93.16C186.766 91.224 185.55 88.2 184.286 85.848ZM176.238 85.304L178.43 85.672C177.886 88.088 177.006 91.08 175.662 92.856C175.198 92.504 174.318 92.056 173.79 91.848C175.086 90.216 175.902 87.4 176.238 85.304ZM196.27 86.328H204.462V87.992H196.27V86.328ZM195.758 83.112H204.894V84.808H195.758V83.112ZM195.774 89.24H204.83V90.92H195.774V89.24ZM199.374 81.4H201.262V87.272H199.374V81.4ZM201.406 87.784H203.278V94.408C203.278 95.336 203.102 95.832 202.478 96.104C201.838 96.392 200.974 96.424 199.774 96.424C199.71 95.896 199.422 95.128 199.166 94.632C199.95 94.664 200.83 94.664 201.07 94.648C201.326 94.648 201.406 94.6 201.406 94.376V87.784ZM196.414 91.992L198.014 91.128C198.654 91.896 199.534 93 199.95 93.704L198.253 94.696C197.885 93.992 197.07 92.84 196.414 91.992ZM191.342 82.392H195.47V93.336H191.342V91.624H193.678V84.104H191.342V82.392ZM191.438 86.936H194.542V88.616H191.438V86.936ZM190.446 82.392H192.222V94.76H190.446V82.392ZM206.318 83.64H220.59V85.48H206.318V83.64ZM211.534 88.824H219.918V90.6H211.534V88.824ZM210.91 94.264H220.526V96.04H210.91V94.264ZM214.798 86.168H216.734V95.208H214.798V86.168ZM211.358 81.4L213.358 81.88C212.174 85.736 210.158 89.624 206.734 91.96C206.542 91.416 206.094 90.568 205.806 90.104C208.702 88.216 210.526 84.632 211.358 81.4ZM208.158 88.104H210.094V96.408H208.158V88.104ZM231.39 81.4L233.582 81.784C233.134 82.648 232.67 83.496 232.302 84.04L230.67 83.64C230.958 82.984 231.246 82.072 231.39 81.4ZM230.382 86.696V87.528H234.446V86.696H230.382ZM230.382 84.552V85.368H234.446V84.552H230.382ZM228.606 83.112H236.302V88.968H228.606V83.112ZM231.646 88.312H233.47V94.536C233.47 95.384 233.326 95.88 232.782 96.168C232.238 96.456 231.486 96.472 230.462 96.472C230.398 95.96 230.19 95.208 229.95 94.728C230.542 94.76 231.198 94.76 231.39 94.744C231.598 94.744 231.646 94.696 231.646 94.504V88.312ZM228.03 89.96H230.27V91.512H228.03V89.96ZM229.854 89.96H230.158L230.446 89.912L231.582 90.296C231.054 92.808 229.87 94.648 228.206 95.672C227.982 95.272 227.47 94.664 227.134 94.344C228.462 93.592 229.502 91.96 229.854 90.232V89.96ZM235.406 89.208L236.83 90.408C235.918 91.128 234.99 91.928 234.238 92.424L233.214 91.464C233.902 90.888 234.862 89.928 235.406 89.208ZM233.39 89.224C234.014 91.368 235.278 93.368 237.038 94.328C236.638 94.664 236.078 95.368 235.79 95.848C233.95 94.584 232.766 92.2 232.094 89.528L233.39 89.224ZM225.63 87.992L227.022 87.624C227.39 88.696 227.758 90.12 227.87 90.984L226.398 91.448C226.286 90.568 225.982 89.112 225.63 87.992ZM224.254 92.2L225.598 91.96C225.774 93.048 225.918 94.424 225.95 95.352L224.526 95.624C224.526 94.696 224.398 93.272 224.254 92.2ZM222.526 91.976L223.998 92.216C223.886 93.688 223.614 95.272 223.278 96.296C222.958 96.12 222.254 95.896 221.87 95.784C222.238 94.824 222.43 93.336 222.526 91.976ZM222.382 87.768C222.286 87.416 221.982 86.568 221.79 86.104C222.094 86.024 222.366 85.72 222.67 85.256C222.99 84.792 223.934 83.048 224.462 81.368L226.206 82.072C225.486 83.768 224.414 85.592 223.438 86.84V86.872C223.438 86.872 222.382 87.448 222.382 87.768ZM222.382 87.768L222.318 86.44L223.102 85.944L225.886 85.736C225.79 86.216 225.694 86.872 225.694 87.256C223.214 87.496 222.702 87.624 222.382 87.768ZM222.493 91.48C222.398 91.112 222.094 90.232 221.886 89.752C222.302 89.64 222.654 89.272 223.166 88.68C223.694 88.104 225.358 85.832 226.35 83.64L227.966 84.648C226.814 86.792 225.182 88.968 223.598 90.536V90.584C223.598 90.584 222.493 91.144 222.493 91.48ZM222.493 91.48L222.414 90.12L223.198 89.592L227.038 89.144C226.958 89.608 226.91 90.28 226.926 90.648C223.47 91.144 222.878 91.288 222.493 91.48ZM225.854 91.88L227.102 91.496C227.358 92.2 227.646 93.096 227.758 93.704L226.446 94.152C226.35 93.544 226.094 92.6 225.854 91.88ZM244.414 85.288H246.398V89.512H244.414V85.288ZM239.646 88.616H251.118V90.088H239.646V88.616ZM238.782 86.072H252.11V87.688H238.782V86.072ZM238.286 91.16H252.606V92.728H238.286V91.16ZM247.582 90.376H249.566V94.712C249.566 95.608 249.358 96.008 248.654 96.216C247.966 96.424 246.99 96.424 245.661 96.424C245.614 95.944 245.406 95.352 245.198 94.888C245.982 94.936 246.99 94.936 247.23 94.92C247.486 94.904 247.582 94.84 247.582 94.632V90.376ZM240.846 93.4L242.206 92.392C243.006 93.064 244.142 94.04 244.702 94.68L243.278 95.8C242.766 95.16 241.661 94.12 240.846 93.4ZM240.206 82.424H245.23V84.056H240.206V82.424ZM246.862 82.424H252.846V84.056H246.862V82.424ZM240.302 81.272L241.982 81.784C241.326 83.272 240.222 84.824 239.15 85.784C238.894 85.464 238.254 84.776 237.87 84.472C238.862 83.688 239.774 82.472 240.302 81.272ZM246.942 81.272L248.702 81.704C248.19 83.32 247.294 84.92 246.366 85.944C246.046 85.64 245.326 85.08 244.926 84.824C245.806 83.96 246.542 82.616 246.942 81.272ZM241.246 84.552L242.382 83.56C242.942 83.992 243.662 84.616 244.014 85.032L242.814 86.152C242.478 85.704 241.79 85.016 241.246 84.552ZM248.222 84.6L249.454 83.608C249.982 84.056 250.67 84.728 250.99 85.192L249.694 86.296C249.406 85.832 248.75 85.096 248.222 84.6Z" fill="#53F5FF"/>
<rect x="296" y="100" width="6" height="6" transform="rotate(-180 296 100)" fill="#15FFFF"/>
<rect x="296" y="90" width="6" height="6" transform="rotate(-180 296 90)" fill="#C8FCFF"/>
<rect x="286" y="100" width="6" height="6" transform="rotate(-180 286 100)" fill="#69F6FF"/>
<path d="M69.482 144.298H78.716V145.81H69.482V144.298ZM71.642 129.646L73.262 130.204C71.786 132.688 69.446 134.938 67.178 136.342C66.908 136.018 66.278 135.37 65.9 135.1C68.186 133.858 70.382 131.842 71.642 129.646ZM78.212 131.626H78.572L78.86 131.536L80.066 132.328C77.384 136.63 71.57 139.294 66.314 140.482C66.152 140.032 65.774 139.33 65.468 138.952C70.4 137.998 76.016 135.442 78.212 131.896V131.626ZM70.454 132.544C72.812 135.568 77.492 137.926 82.55 138.826C82.154 139.204 81.686 139.924 81.434 140.392C76.358 139.33 71.75 136.774 69.032 133.21L70.454 132.544ZM68.6 139.942H79.436V146.512H77.636V141.49H70.31V146.584H68.6V139.942ZM71.228 131.626H78.608V133.12H70.202L71.228 131.626ZM94.358 131.248H95.996V145.558H94.358V131.248ZM90.056 132.976H100.064V134.326H90.056V132.976ZM89.552 144.82H100.424V146.188H89.552V144.82ZM90.578 142.318H99.776V143.65H90.578V142.318ZM99.02 130.006L100.028 131.266C97.544 131.788 93.782 132.058 90.704 132.112C90.668 131.734 90.47 131.158 90.326 130.816C93.314 130.708 96.95 130.438 99.02 130.006ZM92.234 138.808V140.014H98.174V138.808H92.234ZM92.234 136.558V137.746H98.174V136.558H92.234ZM90.74 135.334H99.74V141.238H90.74V135.334ZM86.6 131.392H88.256V146.494H86.6V131.392ZM83.81 134.884H90.362V136.468H83.81V134.884ZM86.69 135.514L87.716 135.946C87.014 138.502 85.646 141.688 84.26 143.398C84.098 142.912 83.72 142.21 83.432 141.796C84.71 140.356 86.078 137.638 86.69 135.514ZM89.318 130.042L90.488 131.356C88.76 132.04 86.24 132.526 84.152 132.814C84.062 132.436 83.846 131.878 83.648 131.518C85.664 131.176 87.968 130.654 89.318 130.042ZM88.202 137.278C88.652 137.656 90.29 139.348 90.65 139.762L89.66 141.112C89.228 140.32 87.986 138.628 87.428 137.962L88.202 137.278ZM103.25 135.748L104.78 136.036C104.456 137.674 103.826 139.33 103.124 140.392C102.818 140.158 102.152 139.816 101.756 139.636C102.494 138.664 102.98 137.188 103.25 135.748ZM103.628 137.314H109.01V138.7H102.98L103.628 137.314ZM101.756 140.464H109.298V141.886H101.756V140.464ZM105.23 137.872H106.814V139.924C106.814 141.868 106.346 144.604 102.854 146.53C102.602 146.188 102.098 145.684 101.72 145.396C104.978 143.794 105.23 141.418 105.23 139.888V137.872ZM106.364 141.58C106.886 141.94 108.596 143.452 108.974 143.848L108.002 145.18C107.462 144.478 106.058 142.93 105.446 142.354L106.364 141.58ZM102.746 129.88H104.402V133.516C104.402 134.074 104.492 134.272 104.96 134.272C105.356 134.272 107.03 134.272 107.462 134.272C107.876 134.272 108.56 134.236 108.884 134.146C108.938 134.596 108.974 135.208 109.028 135.586C108.722 135.694 108.092 135.712 107.516 135.712C107.066 135.712 105.248 135.712 104.888 135.712C103.178 135.712 102.746 135.1 102.746 133.498V129.88ZM109.802 130.384H116.822V131.716H109.802V130.384ZM116.282 130.384H116.624L116.948 130.294L117.956 130.96C116.984 132.418 115.4 133.912 113.888 134.812C113.672 134.506 113.222 134.02 112.934 133.768C114.248 133.012 115.652 131.698 116.282 130.672V130.384ZM110.558 133.588L111.566 132.544C113.132 133.21 115.22 134.344 116.3 135.154L115.22 136.324C114.212 135.532 112.16 134.344 110.558 133.588ZM109.478 136.144H117.038V137.548H109.478V136.144ZM116.732 136.144H116.966L117.2 136.072L118.244 136.342C117.902 137.494 117.47 138.808 117.038 139.636L115.796 139.258C116.156 138.52 116.516 137.332 116.732 136.36V136.144ZM112.952 136.558H114.482V145.432L112.952 144.712V136.558ZM113.582 140.338H117.65V141.76H113.582V140.338ZM111.368 141.148C112.25 144.352 114.122 144.91 116.174 144.91C116.516 144.91 117.92 144.91 118.406 144.91C118.208 145.252 118.01 145.918 117.956 146.314H116.066C113.474 146.314 111.422 145.504 110.342 141.544L111.368 141.148ZM110.216 138.61L111.764 138.664C111.62 142.174 111.098 144.802 109.532 146.602C109.28 146.368 108.596 145.864 108.236 145.666C109.766 144.136 110.144 141.67 110.216 138.61ZM103.862 131.248H108.848V132.598H103.862V131.248ZM120.296 139.132H127.496V140.356H120.296V139.132ZM119.702 141.292H127.982V142.588H119.702V141.292ZM119.774 130.888H127.928V132.166H119.774V130.888ZM123.14 133.696H124.526V137.548H123.14V133.696ZM121.592 135.784V137.098H126.02V135.784H121.592ZM120.278 134.668H127.406V138.214H120.278V134.668ZM123.068 137.602H124.652V140.284C124.652 142.3 124.148 144.82 120.674 146.494C120.44 146.152 119.972 145.666 119.594 145.378C122.708 144.028 123.068 141.796 123.068 140.248V137.602ZM123.14 143.56L124.004 142.57C125.138 143.236 126.686 144.28 127.442 144.964L126.542 146.098C125.822 145.396 124.31 144.298 123.14 143.56ZM121.304 129.844H122.798V132.94H124.994V129.844H126.56V134.002H121.304V129.844ZM129.206 136.846H135.992V138.286H129.206V136.846ZM129.224 140.428H136.01V141.886H129.224V140.428ZM129.134 144.082H136.298V145.63H129.134V144.082ZM129.944 129.808L131.492 130.204C130.736 132.868 129.512 135.568 128.18 137.314C127.928 137.026 127.28 136.468 126.92 136.234C128.216 134.668 129.278 132.22 129.944 129.808ZM130.304 133.21H136.19V134.74H130.304V146.476H128.774V134.83L130.268 133.21H130.304ZM132.392 133.912H133.922V144.874H132.392V133.912ZM131.852 130.528L133.31 130.042C133.796 130.798 134.3 131.806 134.498 132.49L132.95 133.066C132.77 132.382 132.302 131.32 131.852 130.528ZM139.502 133.354L140.906 133.624C140.474 135.622 139.682 137.494 138.62 138.682C138.404 138.43 137.864 137.926 137.54 137.71C138.512 136.666 139.178 135.064 139.502 133.354ZM137.81 139.438H146V140.932H137.81V139.438ZM137.882 131.68H145.892V133.192H137.882V131.68ZM143.048 133.462L144.434 133.714C144.02 135.586 143.264 137.296 142.238 138.412C142.004 138.178 141.464 137.71 141.14 137.494C142.076 136.522 142.706 135.046 143.048 133.462ZM139.286 135.658L140.114 134.83C140.69 135.262 141.41 135.91 141.734 136.36L140.87 137.296C140.564 136.828 139.88 136.144 139.286 135.658ZM142.76 135.838L143.732 135.1C144.434 135.784 145.316 136.774 145.748 137.386L144.722 138.25C144.326 137.602 143.462 136.576 142.76 135.838ZM147.206 136.846H153.992V138.286H147.206V136.846ZM147.224 140.428H154.01V141.886H147.224V140.428ZM147.134 144.082H154.298V145.63H147.134V144.082ZM147.944 129.862L149.528 130.24C148.772 132.904 147.584 135.604 146.288 137.368C146.018 137.08 145.37 136.522 145.01 136.27C146.27 134.704 147.314 132.256 147.944 129.862ZM148.304 133.21H154.19V134.74H148.304V146.476H146.774V134.83L148.268 133.21H148.304ZM150.392 133.912H151.922V144.874H150.392V133.912ZM140.69 130.204L142.274 129.79C142.634 130.402 143.03 131.212 143.21 131.752L141.554 132.238C141.392 131.698 141.014 130.834 140.69 130.204ZM149.852 130.528L151.328 130.042C151.814 130.798 152.3 131.806 152.516 132.49L150.95 133.066C150.77 132.382 150.302 131.32 149.852 130.528ZM139.358 141.85L140.762 142.12C140.402 143.416 139.772 144.712 139.07 145.558C138.8 145.36 138.188 145 137.828 144.838C138.53 144.064 139.052 142.948 139.358 141.85ZM143.336 142.228L144.596 141.778C145.19 142.732 145.82 143.974 146.072 144.784L144.74 145.306C144.488 144.478 143.894 143.182 143.336 142.228ZM141.284 138.232H142.886V146.458H141.284V138.232ZM161.048 134.938H171.83V136.504H161.048V134.938ZM166.52 139.294H171.524V140.806H166.52V139.294ZM159.842 144.316H172.37V145.9H159.842V144.316ZM165.728 135.568H167.366V145.36H165.728V135.568ZM161.822 138.538H163.37V145.288H161.822V138.538ZM159.446 131.77H172.352V133.3H159.446V131.77ZM158.51 131.77H160.13V137.188C160.13 140.05 159.752 144.064 157.268 146.566C157.016 146.224 156.386 145.63 156.044 145.414C158.294 143.092 158.51 139.762 158.51 137.17V131.77ZM155.738 133.93L156.98 133.318C157.61 134.362 158.204 135.748 158.384 136.648L157.052 137.35C156.872 136.45 156.314 135.01 155.738 133.93ZM155.522 140.32C156.386 139.942 157.592 139.33 158.852 138.7L159.248 140.032C158.186 140.68 157.07 141.328 156.062 141.904L155.522 140.32ZM164.234 130.15L165.944 129.79C166.268 130.51 166.646 131.428 166.808 132.022L165.044 132.454C164.9 131.842 164.54 130.87 164.234 130.15ZM181.19 133.048L182.27 132.112C183.944 132.706 186.23 133.678 187.436 134.398L186.284 135.442C185.168 134.74 182.9 133.696 181.19 133.048ZM179.48 134.326H188.624V135.604H180.992V143.632H179.48V134.326ZM188.012 134.326H189.56V142.12C189.56 142.858 189.398 143.218 188.894 143.452C188.408 143.668 187.652 143.668 186.5 143.668C186.446 143.29 186.248 142.732 186.068 142.372C186.824 142.408 187.508 142.39 187.724 142.39C187.958 142.39 188.012 142.318 188.012 142.12V134.326ZM179.588 130.492H188.39V131.788H179.588V130.492ZM180.398 136.918H188.552V138.142H180.398V136.918ZM180.398 139.51H188.552V140.788H180.398V139.51ZM183.71 134.902H185.168V143.578H183.71V134.902ZM187.796 130.492H188.192L188.534 130.402L189.56 131.23C188.318 132.382 186.518 133.57 184.862 134.308C184.664 134.02 184.25 133.57 183.998 133.336C185.42 132.724 187.04 131.644 187.796 130.798V130.492ZM174.368 130.6L175.646 129.826C176.474 130.69 177.482 131.824 177.986 132.562L176.69 133.498C176.204 132.742 175.178 131.482 174.368 130.6ZM173.81 133.984H177.698V135.37H173.81V133.984ZM177.212 142.048C178.256 144.442 180.506 144.748 183.944 144.766C185.834 144.766 188.624 144.658 190.55 144.496C190.316 144.838 190.082 145.63 189.992 146.098C188.228 146.206 185.942 146.242 183.908 146.242C179.714 146.242 177.41 145.72 176.078 142.552L177.212 142.048ZM177.158 138.43H177.554L177.842 138.394L178.67 138.7C178.058 142.606 176.564 145.198 174.512 146.548C174.296 146.224 173.738 145.63 173.414 145.396C175.34 144.208 176.672 141.94 177.158 138.7V138.43ZM174.098 140.032V138.79L174.8 138.43H177.68L177.662 139.78H175.178C174.728 139.78 174.242 139.888 174.098 140.032ZM174.098 140.032C173.99 139.672 173.666 138.916 173.504 138.592C173.792 138.52 174.08 138.394 174.404 138.034C174.962 137.494 176.672 135.118 177.284 134.146V134.092L177.752 133.894L178.832 134.398C177.968 135.622 176.33 137.89 175.304 139.06C175.304 139.06 174.098 139.636 174.098 140.032ZM199.19 133.048L200.27 132.112C201.944 132.706 204.23 133.678 205.436 134.398L204.284 135.442C203.168 134.74 200.9 133.696 199.19 133.048ZM197.48 134.326H206.624V135.604H198.992V143.632H197.48V134.326ZM206.012 134.326H207.56V142.12C207.56 142.858 207.398 143.218 206.894 143.452C206.408 143.668 205.652 143.668 204.5 143.668C204.446 143.29 204.248 142.732 204.068 142.372C204.824 142.408 205.508 142.39 205.724 142.39C205.958 142.39 206.012 142.318 206.012 142.12V134.326ZM197.588 130.492H206.39V131.788H197.588V130.492ZM198.398 136.918H206.552V138.142H198.398V136.918ZM198.398 139.51H206.552V140.788H198.398V139.51ZM201.71 134.902H203.168V143.578H201.71V134.902ZM205.796 130.492H206.192L206.534 130.402L207.56 131.23C206.318 132.382 204.518 133.57 202.862 134.308C202.664 134.02 202.25 133.57 201.998 133.336C203.42 132.724 205.04 131.644 205.796 130.798V130.492ZM192.368 130.6L193.646 129.826C194.474 130.69 195.482 131.824 195.986 132.562L194.69 133.498C194.204 132.742 193.178 131.482 192.368 130.6ZM191.81 133.984H195.698V135.37H191.81V133.984ZM195.212 142.048C196.256 144.442 198.506 144.748 201.944 144.766C203.834 144.766 206.624 144.658 208.55 144.496C208.316 144.838 208.082 145.63 207.992 146.098C206.228 146.206 203.942 146.242 201.908 146.242C197.714 146.242 195.41 145.72 194.078 142.552L195.212 142.048ZM195.158 138.43H195.554L195.842 138.394L196.67 138.7C196.058 142.606 194.564 145.198 192.512 146.548C192.296 146.224 191.738 145.63 191.414 145.396C193.34 144.208 194.672 141.94 195.158 138.7V138.43ZM192.098 140.032V138.79L192.8 138.43H195.68L195.662 139.78H193.178C192.728 139.78 192.242 139.888 192.098 140.032ZM192.098 140.032C191.99 139.672 191.666 138.916 191.504 138.592C191.792 138.52 192.08 138.394 192.404 138.034C192.962 137.494 194.672 135.118 195.284 134.146V134.092L195.752 133.894L196.832 134.398C195.968 135.622 194.33 137.89 193.304 139.06C193.304 139.06 192.098 139.636 192.098 140.032ZM210.062 132.076H225.956V133.678H210.062V132.076ZM214.454 138.538H222.806V139.978H214.454V138.538ZM222.212 135.478H223.886V144.55C223.886 145.468 223.706 145.954 223.04 146.224C222.392 146.494 221.384 146.494 219.872 146.494C219.8 146.026 219.566 145.306 219.332 144.856C220.412 144.91 221.492 144.892 221.816 144.892C222.122 144.874 222.212 144.784 222.212 144.532V135.478ZM215.822 129.808L217.568 130.204C216.344 134.146 214.184 138.142 210.8 140.536C210.548 140.14 210.008 139.546 209.684 139.222C212.834 137.08 214.886 133.3 215.822 129.808ZM214.364 141.544H222.806V142.984H214.364V141.544ZM214.346 135.478H222.644V136.99H214.346V135.478ZM213.428 135.478H215.138V140.266C215.138 142.336 214.796 145 212.96 146.638C212.744 146.278 212.078 145.558 211.754 145.324C213.266 143.92 213.428 141.94 213.428 140.248V135.478ZM229.52 134.416H234.632V135.694H229.52V134.416ZM229.52 137.422H234.632V138.664H229.52V137.422ZM229.52 140.5H234.632V141.796H229.52V140.5ZM237.242 138.34H244.064V139.798H237.242V138.34ZM230.438 131.446H233.354V132.76H230.438V131.446ZM236 130.726H242.894V132.148H236V130.726ZM235.874 141.742H244.388V143.236H235.874V141.742ZM239.492 136.594H241.112V146.458H239.492V136.594ZM231.626 135.064H232.796V141.004H231.626V135.064ZM242.39 130.726H243.92C243.92 130.726 243.902 131.122 243.884 131.32C243.776 134.272 243.614 135.46 243.218 135.91C242.966 136.234 242.642 136.378 242.192 136.414C241.814 136.468 241.076 136.468 240.338 136.432C240.302 136 240.158 135.424 239.942 135.046C240.608 135.1 241.184 135.118 241.436 135.118C241.67 135.118 241.814 135.1 241.94 134.938C242.156 134.686 242.282 133.678 242.39 130.942V130.726ZM237.116 136.738L238.556 137.026C238.196 138.682 237.584 140.338 236.864 141.4C236.576 141.202 235.928 140.878 235.568 140.716C236.324 139.726 236.846 138.232 237.116 136.738ZM230.222 129.79L231.77 130.132C231.104 132.598 230.006 134.956 228.71 136.486C228.458 136.216 227.81 135.694 227.468 135.478C228.728 134.11 229.7 131.986 230.222 129.79ZM228.872 134.416H230.258V139.186C230.258 141.436 230.042 144.55 228.746 146.548C228.494 146.332 227.864 145.936 227.54 145.792C228.764 143.902 228.872 141.22 228.872 139.186V134.416ZM234.164 134.416H235.586V144.784C235.586 145.522 235.424 145.972 234.938 146.224C234.434 146.476 233.696 146.494 232.508 146.494C232.454 146.098 232.202 145.45 232.004 145.054C232.832 145.09 233.606 145.09 233.84 145.072C234.074 145.072 234.164 145 234.164 144.766V134.416ZM238.394 131.194H239.924C239.654 133.75 238.952 135.784 236.36 136.936C236.18 136.576 235.784 136.036 235.442 135.784C237.638 134.866 238.16 133.192 238.394 131.194ZM232.94 131.446H233.282L233.498 131.374L234.488 132.004C234.092 133.138 233.408 134.506 232.868 135.37C232.58 135.154 232.094 134.866 231.788 134.722C232.22 133.912 232.706 132.598 232.94 131.716V131.446ZM252.506 141.832L252.02 140.662C253.514 140.122 254.324 139.222 254.324 137.998L254.072 136.378L255.062 137.854C254.792 138.142 254.432 138.25 254.054 138.25C253.244 138.25 252.542 137.746 252.542 136.828C252.542 135.91 253.262 135.388 254.09 135.388C255.206 135.388 255.8 136.27 255.8 137.638C255.8 139.618 254.54 141.184 252.506 141.832ZM39.3372 164.8H48.1932V166.168H39.3372V164.8ZM39.0492 167.878H48.5352V169.3H39.0492V167.878ZM44.7732 165.232H46.2852V173.188H44.7732V165.232ZM41.1552 165.304H42.6312V168.652C42.6312 169.786 42.1632 172.144 40.2012 173.476C39.9672 173.17 39.4452 172.702 39.0852 172.468C40.7772 171.442 41.1552 169.606 41.1552 168.652V165.304ZM37.1592 160.03H41.9832V161.182H37.1592V160.03ZM45.4752 160.03H50.3352V161.182H45.4752V160.03ZM49.6692 157.546H51.3432V171.442C51.3432 172.378 51.1632 172.882 50.5692 173.17C49.9752 173.458 49.0752 173.494 47.6892 173.476C47.6352 173.026 47.4012 172.234 47.1672 171.784C48.0852 171.82 49.0032 171.82 49.2912 171.802C49.5792 171.802 49.6692 171.694 49.6692 171.424V157.546ZM37.3032 157.546H43.0452V163.756H37.3032V162.496H41.4432V158.806H37.3032V157.546ZM50.5152 157.546V158.806H46.0692V162.532H50.5152V163.792H44.4492V157.546H50.5152ZM36.2952 157.546H37.9692V173.53H36.2952V157.546ZM54.8712 158.122H56.4372V162.784C56.4372 165.628 56.1672 169.912 54.5112 172.72C54.2412 172.414 53.5572 171.892 53.1972 171.73C54.7092 169.12 54.8712 165.412 54.8712 162.784V158.122ZM61.0812 156.97L62.3772 158.194C60.4152 158.806 57.6612 159.22 55.3392 159.418C55.2672 159.058 55.0512 158.482 54.8712 158.122C57.0672 157.87 59.6052 157.456 61.0812 156.97ZM63.9972 160.228H70.1352V161.812H63.9972V160.228ZM64.1772 156.844L65.8872 157.078C65.4012 160.642 64.5192 163.99 63.0432 166.168C62.7912 165.844 62.1252 165.214 61.7472 164.944C63.0972 163.054 63.8172 160.012 64.1772 156.844ZM64.7892 161.632C65.5992 166.114 67.2732 170.182 70.2612 172.018C69.8472 172.342 69.2712 173.044 68.9832 173.512C65.8872 171.298 64.3032 166.96 63.4032 161.884L64.7892 161.632ZM67.8672 160.426L69.3072 161.164C68.6412 166.834 66.8052 171.442 62.9172 173.512C62.6472 173.08 62.1072 172.45 61.6752 172.09C65.5452 170.29 67.2192 165.988 67.8672 160.426ZM55.5372 160.3H62.0352V164.908H55.5372V163.504H60.5052V161.686H55.5372V160.3ZM56.6892 170.2H61.6212V171.586H56.6892V170.2ZM56.0052 166.366H62.0532V172.36H60.5412V167.752H57.4812V172.702H56.0052V166.366ZM74.1492 166.006H85.5432V173.494H83.7972V167.374H75.8052V173.512H74.1492V166.006ZM75.1212 168.76H84.4092V170.038H75.1212V168.76ZM73.6272 158.248H79.3692V159.598H73.6272V158.248ZM71.6112 161.074H79.8192V162.442H71.6112V161.074ZM75.1212 171.496H84.4092V172.882H75.1212V171.496ZM75.2292 158.68H76.8492V160.552C76.8492 162.334 76.2552 164.782 72.5112 166.474C72.2772 166.132 71.7912 165.61 71.4132 165.322C74.9412 163.954 75.2292 161.902 75.2292 160.534V158.68ZM73.5552 156.736L75.0672 157.042C74.6172 158.608 73.7892 160.138 72.8892 161.128C72.5832 160.894 71.9172 160.48 71.5392 160.318C72.4572 159.418 73.1592 158.086 73.5552 156.736ZM76.4712 162.55C77.1192 162.874 79.2432 164.134 79.7652 164.494L78.5592 165.61C77.8752 165.034 76.1292 163.774 75.3372 163.27L76.4712 162.55ZM82.0872 159.724V163.216H85.3992V159.724H82.0872ZM80.5032 158.212H87.0732V164.746H80.5032V158.212ZM95.5512 163.252H97.1712V171.82C97.1712 172.594 97.0092 172.99 96.4872 173.224C95.9652 173.44 95.1552 173.458 94.0392 173.458C93.9672 173.062 93.7332 172.486 93.5172 172.108C94.2732 172.144 95.0112 172.126 95.2452 172.126C95.4972 172.126 95.5512 172.054 95.5512 171.82V163.252ZM91.4292 163.252H96.4332V164.692H91.4292V163.252ZM98.6652 165.25H100.357V171.154C100.357 171.784 100.501 171.874 101.293 171.874C101.635 171.874 103.381 171.874 103.867 171.874C104.551 171.874 104.677 171.568 104.767 169.732C105.127 170.002 105.811 170.272 106.279 170.362C106.063 172.72 105.595 173.386 104.011 173.386C103.579 173.386 101.491 173.386 101.077 173.386C99.1692 173.386 98.6652 172.882 98.6652 171.172V165.25ZM94.6872 158.644L96.0732 158.122C96.9012 159.4 97.8912 161.128 98.3412 162.208L96.8652 162.838C96.4692 161.74 95.4972 159.958 94.6872 158.644ZM99.6912 159.184H105.037V160.66H99.6912V159.184ZM99.7092 167.248H105.217V168.778H99.7092V167.248ZM90.4212 162.37C90.3312 162.028 90.0612 161.236 89.8812 160.804C90.1872 160.732 90.4932 160.48 90.8532 160.084C91.2132 159.688 92.3652 158.248 93.0852 156.808L94.8132 157.348C93.8412 158.914 92.5452 160.516 91.4112 161.524V161.542C91.4112 161.542 90.4212 162.046 90.4212 162.37ZM90.4212 162.37L90.3672 161.128L91.2132 160.624L96.8472 160.21C96.9012 160.642 97.0452 161.218 97.1532 161.56C91.6452 162.064 90.9072 162.172 90.4212 162.37ZM90.6192 163.252H92.1852V167.536C92.1852 169.408 91.9692 171.928 90.7092 173.566C90.4752 173.242 89.8452 172.63 89.5212 172.414C90.5292 171.01 90.6192 169.066 90.6192 167.518V163.252ZM91.9152 169.912C92.9592 169.444 94.4892 168.652 96.0192 167.878L96.3432 168.922C95.0112 169.786 93.6432 170.65 92.4552 171.352L91.9152 169.912ZM92.1852 166.294L93.0672 165.502C93.9312 166.042 95.0652 166.834 95.6592 167.32L94.7412 168.238C94.1832 167.716 93.0492 166.888 92.1852 166.294ZM98.6652 156.844H100.357V162.334C100.357 162.982 100.483 163.216 101.059 163.216C101.545 163.216 103.579 163.216 104.101 163.216C104.569 163.216 105.307 163.18 105.685 163.09C105.703 163.54 105.775 164.17 105.829 164.566C105.505 164.656 104.803 164.692 104.137 164.692C103.615 164.692 101.419 164.692 101.023 164.692C99.1872 164.692 98.6652 164.044 98.6652 162.28V156.844ZM113.569 160.084L115.387 160.444C114.109 162.28 112.273 163.954 109.573 165.232C109.339 164.836 108.817 164.26 108.439 163.99C110.959 162.946 112.669 161.452 113.569 160.084ZM113.749 161.38H119.635V162.676H112.561L113.749 161.38ZM119.131 161.38H119.455L119.761 161.29L120.913 161.992C118.483 165.844 113.209 168.04 108.169 169.012C108.007 168.58 107.647 167.878 107.341 167.5C112.093 166.726 117.151 164.692 119.131 161.632V161.38ZM113.011 162.37C115.099 164.926 119.401 166.528 124.225 167.086C123.847 167.482 123.379 168.22 123.145 168.706C118.249 167.986 114.001 166.132 111.517 163.036L113.011 162.37ZM110.797 167.932H120.895V173.476H119.149V169.354H112.471V173.512H110.797V167.932ZM111.751 171.514H120.031V172.936H111.751V171.514ZM108.097 158.374H123.451V162.028H121.723V159.922H109.771V162.028H108.097V158.374ZM114.379 157.042L116.053 156.628C116.521 157.348 117.079 158.356 117.349 159.004L115.585 159.472C115.351 158.842 114.811 157.816 114.379 157.042ZM127.267 157.456H131.389V159.04H127.267V157.456ZM127.267 161.614H131.443V163.198H127.267V161.614ZM134.287 163.684H140.731V165.25H134.287V163.684ZM127.231 165.88H131.389V167.482H127.231V165.88ZM126.583 157.456H128.131V163.972C128.131 166.816 127.951 170.884 126.691 173.548C126.385 173.296 125.701 172.9 125.305 172.756C126.493 170.254 126.583 166.618 126.583 163.972V157.456ZM130.435 157.456H132.019V171.586C132.019 172.432 131.857 172.936 131.353 173.206C130.831 173.494 130.093 173.53 128.887 173.512C128.833 173.098 128.635 172.324 128.419 171.892C129.175 171.91 129.895 171.91 130.111 171.892C130.345 171.892 130.435 171.82 130.435 171.568V157.456ZM139.651 157.492H141.289V160.984C141.289 161.776 141.127 162.208 140.479 162.442C139.849 162.676 138.877 162.676 137.509 162.676C137.437 162.208 137.203 161.632 136.987 161.236C137.995 161.272 139.003 161.272 139.291 161.254C139.579 161.236 139.651 161.182 139.651 160.966V157.492ZM140.263 163.684H140.551L140.821 163.63L141.829 163.972C140.965 168.616 138.787 171.748 135.925 173.458C135.727 173.08 135.277 172.486 134.935 172.198C137.491 170.848 139.561 167.788 140.263 163.99V163.684ZM136.555 164.692C137.545 168.004 139.579 170.902 142.351 172.234C141.991 172.54 141.523 173.134 141.271 173.53C138.355 171.964 136.339 168.814 135.205 165.052L136.555 164.692ZM133.351 157.492H140.083V159.076H134.953V173.512H133.351V157.492ZM143.629 167.698V166.15H148.381V167.698H143.629ZM159.531 164.188H161.277V170.83C161.277 171.496 161.403 171.604 162.051 171.604C162.339 171.604 163.689 171.604 164.085 171.604C164.769 171.604 164.877 171.136 164.949 168.436C165.327 168.742 166.065 169.048 166.533 169.156C166.353 172.324 165.921 173.206 164.229 173.206C163.833 173.206 162.177 173.206 161.799 173.206C159.999 173.206 159.531 172.648 159.531 170.848V164.188ZM150.225 163.144H166.227V164.8H150.225V163.144ZM151.827 158.158H164.643V159.796H151.827V158.158ZM154.617 164.422H156.435C156.147 168.418 155.391 171.712 150.999 173.476C150.801 173.062 150.315 172.432 149.937 172.108C153.897 170.632 154.383 167.788 154.617 164.422ZM177.639 165.646H179.349V170.974C179.349 171.532 179.457 171.622 180.087 171.622C180.375 171.622 181.689 171.622 182.067 171.622C182.679 171.622 182.769 171.28 182.841 169.03C183.201 169.318 183.939 169.588 184.407 169.714C184.227 172.504 183.759 173.242 182.211 173.242C181.833 173.242 180.231 173.242 179.871 173.242C178.071 173.242 177.639 172.702 177.639 170.974V165.646ZM168.261 164.422H184.191V166.078H168.261V164.422ZM171.231 159.454H182.841V161.092H171.231V159.454ZM172.815 165.7H174.597C174.255 169.264 173.355 172.072 169.071 173.62C168.873 173.17 168.387 172.486 167.991 172.144C171.897 170.92 172.527 168.58 172.815 165.7ZM171.411 157.168L173.139 157.51C172.581 159.598 171.645 162.136 170.403 163.738C170.007 163.468 169.323 163.108 168.909 162.946C170.115 161.452 170.997 159.022 171.411 157.168ZM175.353 156.808H177.081V164.944H175.353V156.808ZM188.961 160.21H201.453V161.866H188.961V160.21ZM188.187 165.502H200.787V167.14H188.187V165.502ZM186.171 171.316H202.335V172.972H186.171V171.316ZM193.353 156.808H195.135V172.126H193.353V156.808ZM189.267 157.078L191.013 157.474C190.239 160.264 188.943 162.964 187.521 164.692C187.179 164.404 186.423 163.9 185.991 163.666C187.431 162.1 188.601 159.616 189.267 157.078ZM212.271 158.032H220.425V159.184H212.271V158.032ZM214.881 160.084H219.813V161.092H214.881V160.084ZM213.603 162.316H220.281V163.324H213.603V162.316ZM216.303 160.84H217.779V162.856H216.303V160.84ZM215.133 156.754L216.429 156.952C215.853 159.436 214.701 161.47 213.027 162.766C212.865 162.514 212.415 161.992 212.145 161.74C213.639 160.642 214.665 158.878 215.133 156.754ZM218.301 164.044H219.597V169.93C219.597 170.542 219.489 170.848 219.057 171.028C218.643 171.226 218.013 171.226 217.041 171.226C216.987 170.902 216.825 170.452 216.663 170.146C217.275 170.164 217.887 170.164 218.067 170.164C218.247 170.164 218.301 170.11 218.301 169.93V164.044ZM214.197 164.044H218.949V165.07H214.197V164.044ZM213.603 164.044H214.881V166.564C214.881 167.968 214.701 169.876 213.747 171.136C213.513 170.938 212.937 170.542 212.649 170.416C213.513 169.264 213.603 167.734 213.603 166.528V164.044ZM214.701 168.31C215.781 168.094 217.257 167.734 218.805 167.374L218.913 168.328C217.581 168.796 216.303 169.21 215.187 169.552L214.701 168.31ZM215.097 166.168L215.727 165.322C216.537 165.718 217.491 166.186 217.995 166.564L217.365 167.536C216.843 167.14 215.871 166.546 215.097 166.168ZM204.513 157.528H208.473V159.058H205.881V173.476H204.513V157.528ZM207.969 157.528H208.221L208.437 157.474L209.409 158.032C208.977 159.508 208.401 161.344 207.879 162.784C208.977 164.296 209.229 165.592 209.229 166.69C209.229 167.698 209.031 168.472 208.545 168.85C208.311 169.048 208.023 169.156 207.681 169.192C207.357 169.228 206.979 169.228 206.601 169.228C206.583 168.85 206.457 168.292 206.259 167.914C206.583 167.95 206.871 167.95 207.105 167.95C207.285 167.932 207.465 167.878 207.591 167.788C207.807 167.59 207.915 167.104 207.897 166.546C207.897 165.592 207.663 164.368 206.583 162.946C207.123 161.308 207.681 159.148 207.969 157.942V157.528ZM209.445 157.51L210.723 157.114C211.227 157.996 211.803 159.148 212.073 159.904L210.741 160.372C210.489 159.598 209.913 158.392 209.445 157.51ZM209.139 160.948H211.659V162.406H209.139V160.948ZM211.551 169.066C212.433 171.478 214.215 171.874 216.735 171.874C217.887 171.874 219.561 171.82 220.731 171.694C220.515 172.036 220.335 172.756 220.263 173.188C219.219 173.26 217.869 173.278 216.681 173.278C213.531 173.278 211.623 172.666 210.489 169.516L211.551 169.066ZM211.227 165.286H211.767L212.019 165.232L212.613 165.502C212.109 169.462 210.813 172.144 208.959 173.566C208.761 173.242 208.275 172.702 207.969 172.468C209.697 171.226 210.831 168.868 211.227 165.538V165.286ZM209.643 166.96V165.628L210.345 165.286H211.893V166.69H210.615C210.273 166.69 209.787 166.816 209.643 166.96ZM209.643 166.96C209.553 166.618 209.265 165.952 209.103 165.646C209.373 165.574 209.589 165.466 209.787 165.088C210.075 164.62 210.957 162.01 211.263 161.038V160.984L211.659 160.822L212.649 161.092C212.199 162.298 211.299 164.872 210.705 166.024C210.705 166.024 209.643 166.582 209.643 166.96ZM228.867 162.442H237.975V163.936H228.867V162.442ZM228.165 158.86H238.515V160.372H228.165V158.86ZM228.219 165.664H238.443V167.176H228.219V165.664ZM232.503 156.79H234.177V163.288H232.503V156.79ZM234.825 163.702H236.499V171.622C236.499 172.504 236.301 172.972 235.689 173.224C235.059 173.476 234.123 173.494 232.719 173.494C232.647 173.044 232.395 172.36 232.161 171.91C233.169 171.946 234.159 171.946 234.447 171.928C234.735 171.928 234.825 171.856 234.825 171.586V163.702ZM229.155 168.418L230.559 167.626C231.369 168.526 232.377 169.804 232.845 170.632L231.333 171.532C230.919 170.704 229.965 169.354 229.155 168.418ZM223.287 157.96H227.841V170.002H223.287V168.472H226.257V159.49H223.287V157.96ZM223.359 163.144H227.013V164.656H223.359V163.144ZM222.477 157.96H224.061V171.532H222.477V157.96ZM248.955 162.208H252.645V163.522H248.955V162.208ZM247.587 167.446H253.689V168.634H247.587V167.446ZM241.629 157.51H246.633V158.878H241.629V157.51ZM246.183 157.51H246.471L246.741 157.456L247.803 157.978C246.471 161.056 243.555 163.09 240.585 164.134C240.369 163.774 239.955 163.18 239.667 162.892C242.367 162.064 245.139 160.156 246.183 157.78V157.51ZM249.441 156.862C250.701 159.598 253.329 161.74 256.677 162.622C256.317 162.946 255.885 163.54 255.651 163.954C252.177 162.856 249.531 160.48 248.073 157.276L249.441 156.862ZM252.699 156.934L253.941 157.798C253.077 158.59 252.015 159.4 251.205 159.958L250.215 159.184C250.989 158.608 252.087 157.636 252.699 156.934ZM254.931 158.734L256.173 159.598C255.309 160.39 254.211 161.2 253.383 161.74L252.357 160.966C253.167 160.39 254.301 159.418 254.931 158.734ZM242.421 162.28H246.795V166.528H245.265V163.594H242.421V162.28ZM241.845 165.232H243.249C243.069 166.618 242.835 168.31 242.619 169.39H241.179C241.431 168.274 241.683 166.564 241.845 165.232ZM245.265 168.112H246.813C246.813 168.112 246.795 168.526 246.759 168.742C246.561 171.226 246.345 172.342 245.895 172.792C245.535 173.152 245.157 173.278 244.581 173.314C244.095 173.35 243.159 173.35 242.169 173.296C242.151 172.846 241.953 172.252 241.683 171.856C242.637 171.928 243.591 171.946 243.933 171.946C244.257 171.946 244.455 171.928 244.599 171.784C244.905 171.532 245.103 170.578 245.265 168.328V168.112ZM248.325 162.208H249.765V163.594C249.765 164.836 249.387 166.258 247.785 167.23C247.569 166.924 247.011 166.366 246.705 166.168C248.109 165.394 248.325 164.422 248.325 163.558V162.208ZM253.329 167.446H253.635L253.905 167.392L254.841 167.734C253.635 171.046 250.809 172.72 247.407 173.53C247.263 173.17 246.939 172.612 246.669 172.288C249.711 171.712 252.357 170.2 253.329 167.644V167.446ZM242.475 165.232H245.805V166.528H242.241L242.475 165.232ZM241.953 168.112H245.697V169.39H241.701L241.953 168.112ZM241.107 159.958L242.079 159.058C242.871 159.49 243.861 160.156 244.347 160.642L243.321 161.668C242.871 161.164 241.899 160.444 241.107 159.958ZM251.871 162.208H253.293V164.98C253.293 165.412 253.329 165.538 253.581 165.538C253.779 165.538 254.517 165.538 254.715 165.538C254.967 165.538 255.399 165.52 255.615 165.466C255.633 165.808 255.669 166.312 255.723 166.636C255.489 166.726 255.111 166.726 254.751 166.726C254.499 166.726 253.653 166.726 253.401 166.726C252.123 166.726 251.871 166.222 251.871 164.962V162.208ZM247.461 169.516L248.271 168.562C250.413 169.696 253.419 171.388 254.949 172.432L254.085 173.548C252.627 172.504 249.657 170.722 247.461 169.516ZM263.445 165.52H269.583V170.974H263.445V169.57H267.981V166.942H263.445V165.52ZM262.707 165.52H264.291V172.036H262.707V165.52ZM259.593 160.156H264.381V161.362H259.593V160.156ZM267.909 160.156H272.769V161.362H267.909V160.156ZM272.031 157.546H273.759V171.37C273.759 172.414 273.525 172.918 272.877 173.206C272.193 173.494 271.113 173.512 269.493 173.512C269.439 173.044 269.151 172.234 268.899 171.784C270.033 171.838 271.239 171.82 271.581 171.802C271.923 171.802 272.031 171.694 272.031 171.352V157.546ZM259.719 157.546H265.461V164.062H259.719V162.73H263.859V158.878H259.719V157.546ZM272.949 157.546V158.878H268.521V162.766H272.949V164.08H266.901V157.546H272.949ZM258.765 157.546H260.457V173.53H258.765V157.546ZM283.479 167.536L283.065 160.912L282.993 158.536H285.423L285.351 160.912L284.937 167.536H283.479ZM284.217 172.126C283.443 172.126 282.867 171.586 282.867 170.776C282.867 169.948 283.461 169.39 284.217 169.39C284.955 169.39 285.549 169.948 285.549 170.776C285.549 171.586 284.955 172.126 284.217 172.126Z" fill="white"/>
<g clip-path="url(#clip0_1230_14856)">
<path d="M113.191 359.02L123.684 342.572L160.733 444.36H150.714L113.191 359.02Z" fill="url(#paint2_linear_1230_14856)"/>
<path d="M79.9924 342.572H123.946L113.192 359.441H53.123L79.9924 342.572Z" fill="url(#paint3_linear_1230_14856)"/>
<path d="M53.123 359.44H113.454L150.702 444.207H117.257L53.123 359.44Z" fill="url(#paint4_linear_1230_14856)"/>
<path fill-rule="evenodd" clip-rule="evenodd" d="M66.5539 316.674C62.7079 316.674 60.4611 321.011 62.6796 324.153L68.3306 332.155C69.2193 333.414 70.6641 334.162 72.2049 334.162H89.2296C89.2933 334.959 89.7488 335.729 90.6676 336.12L92.9806 337.104C94.8001 337.879 96.7123 336.217 96.1995 334.307L96.1606 334.162H96.8125C100.218 334.162 102.514 330.679 101.171 327.549L97.7371 319.546C96.9893 317.804 95.2751 316.674 93.3786 316.674H66.5539Z" fill="url(#paint5_linear_1230_14856)"/>
<path fill-rule="evenodd" clip-rule="evenodd" d="M65.0109 317.912C61.165 317.912 58.9182 322.249 61.1366 325.391L66.7876 333.393C67.6764 334.652 69.1211 335.4 70.6619 335.4H86.5919C87.2101 335.4 87.6951 335.907 88.0201 336.432C88.2571 336.816 88.6214 337.144 89.1247 337.358L91.4376 338.342C93.2571 339.117 95.1694 337.455 94.6565 335.545V335.545C94.6369 335.472 94.692 335.4 94.7676 335.4H95.2696C98.6754 335.4 100.971 331.917 99.6281 328.787L96.1942 320.785C95.4463 319.042 93.7321 317.912 91.8356 317.912H65.0109Z" fill="url(#paint6_linear_1230_14856)" fill-opacity="0.95"/>
<path d="M91.4037 325.803C92.5303 327.052 92.5742 328.471 91.5019 328.974C90.4296 329.477 88.647 328.873 87.5204 327.625C86.3938 326.376 86.3498 324.957 87.4221 324.454C88.4945 323.951 90.2771 324.555 91.4037 325.803Z" fill="white"/>
<path d="M83.3861 325.803C84.5127 327.052 84.5567 328.471 83.4843 328.974C82.412 329.477 80.6294 328.873 79.5028 327.625C78.3762 326.376 78.3322 324.957 79.4045 324.454C80.4769 323.951 82.2595 324.555 83.3861 325.803Z" fill="white"/>
<path d="M74.8373 325.803C75.9639 327.052 76.0078 328.471 74.9355 328.974C73.8631 329.477 72.0806 328.873 70.954 327.625C69.8274 326.376 69.7834 324.957 70.8557 324.454C71.9281 323.951 73.7107 324.555 74.8373 325.803Z" fill="white"/>
<path d="M230.502 358.552L220.483 342.573L182.979 462.502L192.393 468.568L230.502 358.552Z" fill="url(#paint7_linear_1230_14856)"/>
<path d="M262.205 342.573H220.233L230.503 358.962H287.863L262.205 342.573Z" fill="url(#paint8_linear_1230_14856)" fill-opacity="0.8"/>
<path d="M287.863 358.961H230.252L193.003 464.935H215.574L287.863 358.961Z" fill="url(#paint9_linear_1230_14856)"/>
<path d="M234.824 322.192C236.143 318.305 239.813 315.707 243.918 315.756L262.962 315.979C270.369 316.066 274.822 324.23 270.886 330.505L269.841 332.17C268.106 334.936 265.07 336.615 261.806 336.615H243.166C236.67 336.615 232.096 330.233 234.183 324.081L234.824 322.192Z" fill="#0051AF"/>
<path d="M236.326 323.666C237.631 319.775 241.29 317.164 245.394 317.196L263.619 317.337C271.029 317.395 275.515 325.547 271.597 331.838L270.95 332.876C269.218 335.656 266.174 337.346 262.899 337.346H244.925C238.443 337.346 233.871 330.991 235.931 324.845L236.326 323.666Z" fill="url(#paint10_linear_1230_14856)"/>
<path opacity="0.8" d="M267.972 320.663H271.883L263.807 334.623L259.896 334.623L267.972 320.663Z" fill="white"/>
<path opacity="0.8" d="M258.202 326.646H261.895L257.598 334.623L253.904 334.623L258.202 326.646Z" fill="white"/>
<path opacity="0.8" d="M247.522 321.303C246.172 321.211 244.738 321.508 243.408 322.153C242.077 322.799 240.91 323.764 240.059 324.923C239.208 326.083 238.711 327.383 238.633 328.655C238.556 329.927 238.901 331.113 239.624 332.059C240.347 333.004 241.415 333.666 242.689 333.958C243.963 334.25 245.384 334.158 246.768 333.696C248.152 333.233 249.435 332.421 250.451 331.364C251.468 330.307 252.17 329.054 252.467 327.767L245.624 327.706L247.522 321.303Z" fill="white"/>
<path d="M249.255 320.392C250.967 320.507 252.429 321.24 253.342 322.44C254.254 323.641 254.546 325.219 254.16 326.849L247.363 326.758L249.255 320.392Z" fill="white"/>
<path d="M110.441 348.437L125.981 316.209H214.184L232.115 348.437H110.441Z" fill="url(#paint11_linear_1230_14856)" stroke="url(#paint12_linear_1230_14856)" stroke-width="0.797097"/>
<path d="M136.063 319.386H205.32L217.425 344.099H125.646L136.063 319.386Z" fill="url(#paint13_linear_1230_14856)"/>
<path d="M143.802 458.254L111.032 349.502H231.591L200.989 458.254H143.802Z" fill="url(#paint14_linear_1230_14856)" stroke="#BBFBFF" stroke-width="1.82065"/>
<path d="M129.306 335.111H212.921L217.707 344.098H125.646L129.306 335.111Z" fill="url(#paint15_linear_1230_14856)"/>
<path d="M209.823 300.009L222.492 325.003L217.706 344.38L205.037 319.386L209.823 300.009Z" fill="url(#paint16_linear_1230_14856)"/>
<path d="M134.094 298.605L120.58 326.969L125.648 344.1L136.064 319.387L134.094 298.605Z" fill="url(#paint17_linear_1230_14856)"/>
<g clip-path="url(#clip1_1230_14856)">
<path d="M103.921 284.294L104.527 284.883C110.137 290.296 139.674 317.883 143.518 321.472C143.786 321.724 143.93 321.857 143.93 321.857L149.756 301.947C149.756 301.947 130.964 284.656 117.059 271.91C116.529 271.441 115.732 271.328 115.061 271.64C112.448 272.848 106.227 276.408 103.905 281.776C103.775 282.078 103.656 282.382 103.552 282.693C103.363 283.259 103.499 283.867 103.921 284.294Z" fill="#252533"/>
<path d="M103.921 284.295L104.527 284.884L143.518 323.113V316.619L108.507 282.212L103.905 281.777C103.775 282.079 103.656 282.383 103.552 282.694C103.363 283.26 103.499 283.868 103.921 284.295Z" fill="#131516"/>
<path d="M110.948 277.994C107.701 281.095 104.112 283.013 102.937 282.277C101.759 281.541 103.439 278.428 106.686 275.327C109.933 272.225 113.521 270.307 114.697 271.043C115.875 271.779 114.195 274.892 110.948 277.994Z" fill="white"/>
<path d="M110.916 278.033C108.07 280.752 104.93 282.431 103.898 281.787C102.866 281.142 104.338 278.415 107.184 275.696C110.029 272.976 113.171 271.297 114.203 271.941C115.235 272.586 113.763 275.313 110.916 278.033Z" fill="#88999D"/>
<path d="M89.686 260.644C90.6613 262.295 95.8111 268.904 97.4121 271.116C98.5621 272.703 99.7347 273.693 100.896 274.265C101.195 274.411 101.479 274.579 101.753 274.762L105.389 278.391L108.836 281.71L115.404 274.506L116.128 273.712L115.852 273.45L115.13 272.771L112.501 270.141C113.558 268.226 113.245 266.182 113.589 264.61C114.361 261.087 117.574 257.076 114.753 257.094C111.658 257.112 109.42 262.446 109.42 262.446C109.42 262.446 107.506 258.87 105.975 253.361C104.555 248.239 101.488 249.879 102.125 252.968C102.827 256.358 104.355 259.68 104.355 259.68L103.743 259.908C103.743 259.908 101.922 257.744 99.9376 252.313C98.3874 248.074 94.7963 250.039 96.372 253.662C97.5446 256.361 100.273 260.888 100.273 260.888L99.8672 261.079C99.8672 261.079 97.4713 258.042 95.5969 253.756C94.1283 250.395 90.7008 252.03 91.9213 254.977C93.1418 257.925 96.5242 263.573 96.5242 263.573L96.0253 263.767C96.0253 263.767 94.2354 261.909 92.6288 259.211C90.5007 255.637 87.8793 257.597 89.686 260.644Z" fill="#FFB287"/>
<path d="M105.389 278.391L108.836 281.71L115.403 274.505L115.852 273.45L116.024 273.044L115.341 272.462C115.341 272.462 115.268 272.575 115.13 272.771C114.239 274.018 110.603 278.595 105.406 278.37L105.389 278.391Z" fill="#ED8366"/>
<path opacity="0.64" d="M109.422 262.446C109.422 262.446 109.397 262.475 109.352 262.53C109.304 262.588 109.231 262.669 109.138 262.776C109.05 262.881 108.946 263.01 108.827 263.156C108.712 263.303 108.585 263.473 108.455 263.659C108.388 263.751 108.32 263.848 108.258 263.953C108.19 264.055 108.123 264.16 108.052 264.267C107.928 264.492 107.779 264.718 107.661 264.969C107.599 265.092 107.534 265.215 107.469 265.344C107.413 265.475 107.356 265.606 107.297 265.737L107.207 265.936L107.133 266.14L106.984 266.552C106.888 266.827 106.826 267.112 106.736 267.385C106.682 267.665 106.62 267.943 106.561 268.213C106.527 268.485 106.485 268.747 106.446 269.001C106.42 269.127 106.423 269.25 106.412 269.371C106.401 269.491 106.392 269.606 106.381 269.719C106.364 269.942 106.333 270.149 106.339 270.332C106.339 270.515 106.327 270.678 106.322 270.809C106.308 271.076 106.291 271.233 106.291 271.233C106.291 271.233 106.234 271.089 106.155 270.83C106.116 270.701 106.065 270.542 106.017 270.358C105.958 270.175 105.927 269.965 105.896 269.735C105.868 269.504 105.814 269.253 105.814 268.985C105.814 268.718 105.806 268.433 105.814 268.139C105.848 267.846 105.885 267.545 105.933 267.235C106.009 266.934 106.079 266.622 106.178 266.321C106.299 266.025 106.387 265.718 106.544 265.441C106.618 265.302 106.688 265.16 106.761 265.024C106.84 264.891 106.925 264.762 107.009 264.636C107.164 264.377 107.367 264.16 107.537 263.942C107.725 263.735 107.9 263.541 108.086 263.382C108.179 263.3 108.261 263.219 108.348 263.151C108.439 263.083 108.52 263.02 108.602 262.96C108.76 262.839 108.909 262.748 109.03 262.674C109.154 262.598 109.25 262.551 109.318 262.517C109.388 262.48 109.428 262.459 109.428 262.459L109.422 262.446Z" fill="#ED8366"/>
<path d="M116.435 272.616L114.753 271.07C114.758 271.086 114.626 271.089 114.631 271.104C114.961 272.278 113.518 274.882 110.66 277.489C107.221 280.625 104.013 282.936 102.838 282.199L104.698 283.745C105.876 284.481 109.538 282.401 112.785 279.299C116.032 276.197 117.318 273.41 116.438 272.616H116.435Z" fill="white"/>
<path d="M203.436 346.246C201.738 347.179 196.75 348.806 188.864 347.974L189.202 315.432L183.172 300.772L184.41 296.742C184.41 296.742 181.128 294.568 183.955 295.083C186.956 295.631 189.492 297.258 193.843 300.898C197.059 303.588 201.438 308.457 202.076 319.323C202.418 325.101 204.303 341.016 204.331 344.809C204.331 345.39 203.998 345.937 203.431 346.25L203.436 346.246Z" fill="#252533"/>
<path d="M190.2 349.497L193.111 349.518L191.489 312.483L190.125 348.665C190.106 348.97 190.134 349.25 190.205 349.497H190.2Z" fill="#272735"/>
<path d="M192.987 303.975L190.746 323.482L184.474 313.792L179.965 306.82L177.205 302.558C177.205 302.558 177.25 302.51 177.338 302.429C178.02 301.782 181.241 298.921 185.052 298.832C187.629 298.772 190.475 299.974 192.987 303.975Z" fill="#252533"/>
<path d="M173.615 303.578H163.524C150.786 303.578 143.787 314.223 143.787 326.062H194.16C194.16 314.223 186.352 303.578 173.615 303.578Z" fill="#252533"/>
<path d="M183.599 355.967H153.625V313.9C153.625 307.875 158.879 302.991 165.362 302.991H171.862C178.345 302.991 183.599 307.875 183.599 313.9V355.967Z" fill="white"/>
<path d="M158.461 311.846C158.461 311.846 158.249 350.424 159.729 355.663C161.192 360.843 155.008 356.994 155.008 356.994L155.76 305.781L158.461 311.846Z" fill="#CEBABA"/>
<path d="M178.865 311.848C178.865 311.848 179.077 350.426 177.597 355.665C176.134 360.845 182.318 356.996 182.318 356.996L181.566 307.007L178.865 311.848Z" fill="#CEBABA"/>
<path d="M174.131 348.739L170.069 316.612C170.241 316.484 170.399 316.329 170.531 316.148L172.527 313.424C173.39 312.247 172.961 310.639 171.608 309.971L171.552 309.945C169.711 309.035 167.504 309.035 165.664 309.945L165.607 309.971C164.257 310.639 163.829 312.247 164.688 313.424L166.684 316.148C166.836 316.355 167.016 316.526 167.217 316.664L163.163 348.739C163.127 348.959 163.203 349.182 163.369 349.344L168.085 353.932C168.389 354.228 168.899 354.228 169.204 353.932L173.919 349.344C174.086 349.185 174.162 348.959 174.125 348.739H174.131Z" fill="#CEBABA"/>
<path d="M168.652 300.378C160.309 300.378 151.326 306.7 161.868 316.33L168.652 309.406L175.437 316.33C185.979 306.697 176.996 300.378 168.652 300.378Z" fill="#CEBABA"/>
<path d="M172.568 311.168L170.57 313.892C169.648 315.153 167.65 315.153 166.728 313.892L164.732 311.168C163.87 309.994 164.298 308.383 165.648 307.715L165.705 307.689C167.545 306.78 169.752 306.78 171.593 307.689L171.649 307.715C172.999 308.383 173.428 309.994 172.568 311.168Z" fill="#F93E3E"/>
<path d="M172.568 311.168C172.568 311.168 170.581 308.768 168.608 308.768C166.635 308.768 164.732 311.168 164.732 311.168C163.87 309.994 164.298 308.383 165.648 307.715L165.705 307.689C167.545 306.78 169.752 306.78 171.593 307.689L171.649 307.715C172.999 308.383 173.428 309.994 172.568 311.168Z" fill="#BA3131"/>
<path d="M196.778 362.306L186.374 361.52C182.648 361.52 179.629 357.672 179.629 352.922L179.832 317.871H194.162L196.778 362.306Z" fill="#252533"/>
<path d="M157.598 317.605V352.879C157.598 357.628 154.157 361.477 149.909 361.477L140.971 362.263L143.789 317.605L145.269 310.235L157.598 317.605Z" fill="#252533"/>
<path d="M149.117 308.884C148.711 309.738 149.046 310.788 149.751 311.386L154.089 315.061L150.047 318.258C149.334 318.821 148.953 319.735 149.035 320.671C149.345 324.215 151.902 333.856 157.598 344.011L157.618 341.559L157.153 308.604C157.153 308.604 156.194 300.44 167.551 300.44C167.551 300.44 153.765 299.08 149.114 308.886L149.117 308.884Z" fill="#131516"/>
<path d="M186.924 318.26C187.612 318.823 187.978 319.735 187.9 320.673C187.604 324.217 184.593 334.77 179.635 344.013L179.615 339.884L180.064 308.603C180.064 308.603 180.148 307.859 179.965 306.819C179.734 305.522 179.088 303.769 177.338 302.428C178.02 301.781 181.242 298.92 185.053 298.831C183.948 302.501 183.889 303.56 185.154 304.82C186.183 305.847 187.133 307.377 187.823 308.886C188.215 309.74 187.891 310.791 187.212 311.388L184.475 313.79L183.023 315.064L186.924 318.26Z" fill="#131516"/>
<path d="M144.227 303.972L146.467 323.479L152.739 313.789L157.249 306.817L160.008 302.555C160.008 302.555 159.963 302.508 159.876 302.426C159.194 301.779 155.972 298.918 152.161 298.829C149.585 298.769 146.738 299.972 144.227 303.972Z" fill="#252533"/>
<path d="M150.289 318.26C149.601 318.823 149.235 319.735 149.314 320.673C149.61 324.217 152.62 334.77 157.578 344.013L157.598 339.884L157.15 308.603C157.15 308.603 157.065 307.859 157.248 306.819C157.479 305.522 158.125 303.769 159.875 302.428C159.193 301.781 155.971 298.92 152.161 298.831C153.265 302.501 153.325 303.56 152.059 304.82C151.03 305.847 150.08 307.377 149.39 308.886C148.998 309.74 149.322 310.791 150.001 311.388L152.738 313.79L154.19 315.064L150.289 318.26Z" fill="#131516"/>
<path d="M186.262 316.124L182.502 312.983L186.538 309.371C187.195 308.784 187.55 307.73 187.127 306.91C180.923 294.867 169.973 297.82 169.973 297.82C179.655 298.273 179.646 306.633 179.646 306.633L179.61 341.037C184.241 331.346 186.913 321.985 187.201 318.498C187.277 317.576 186.921 316.677 186.259 316.124H186.262Z" fill="#323244"/>
<path d="M150.943 316.124L154.703 312.983L150.667 309.371C150.01 308.784 149.655 307.73 150.078 306.91C156.282 294.867 167.232 297.82 167.232 297.82C157.55 298.273 157.559 306.633 157.559 306.633L157.595 341.037C152.964 331.346 150.292 321.985 150.005 318.498C149.928 317.576 150.284 316.677 150.946 316.124H150.943Z" fill="#323244"/>
<path d="M168.65 297.512C159.983 297.512 150.647 304.08 161.601 314.088L168.65 306.893L175.7 314.088C186.653 304.08 177.321 297.512 168.65 297.512Z" fill="white"/>
<path d="M161.016 301.389C161.016 304.436 164.216 306.904 168.368 306.904C172.52 306.904 175.885 304.436 175.885 301.389V294.949H161.014V301.389H161.016Z" fill="#FFB287"/>
<path d="M161.016 299.722C161.016 302.25 164.216 304.298 168.368 304.298C172.52 304.298 175.885 302.25 175.885 299.722V290.06H161.014V299.722H161.016Z" fill="#F58D6C"/>
<path d="M173.925 347.875L169.21 352.465C168.905 352.761 168.395 352.761 168.091 352.465L163.375 347.875C163.209 347.716 163.133 347.493 163.169 347.27L166.949 316.209L167.172 314.381L167.253 313.71H170.05L170.131 314.381L170.408 316.66C170.408 316.66 170.41 316.663 170.41 316.665L174.131 347.27C174.168 347.493 174.092 347.716 173.925 347.875Z" fill="#F93E3E"/>
<path d="M154.168 255.446C154.247 255.603 154.32 255.774 154.391 255.957C154.3 255.789 154.227 255.619 154.168 255.446Z" fill="#993E39"/>
<path opacity="0.48" d="M170.411 316.663C170.411 316.663 170.411 316.661 170.408 316.658C170.163 315.888 169.652 315.272 168.68 315.272C167.871 315.272 167.307 315.547 166.949 316.208L167.172 314.379C167.172 314.379 167.975 314.947 168.632 314.947C169.289 314.947 170.132 314.379 170.132 314.379L170.411 316.663Z" fill="#BA3131"/>
<g clip-path="url(#clip2_1230_14856)">
<path d="M221.556 254.619C221.556 261.529 220.199 268.371 217.564 274.754C214.928 281.138 211.065 286.938 206.195 291.824C201.326 296.71 195.544 300.585 189.182 303.229C182.819 305.873 176 307.234 169.113 307.233C162.226 307.234 155.407 305.873 149.044 303.229C142.682 300.585 136.901 296.71 132.031 291.824C127.161 286.938 123.299 281.138 120.663 274.754C118.028 268.371 116.672 261.529 116.672 254.619C116.672 247.709 118.028 240.867 120.663 234.483C123.298 228.099 127.161 222.299 132.031 217.413C136.9 212.526 142.682 208.651 149.044 206.006C155.407 203.362 162.226 202 169.113 202C176 202 182.82 203.361 189.182 206.005C195.545 208.65 201.327 212.526 206.196 217.412C211.066 222.298 214.929 228.099 217.564 234.483C220.2 240.867 221.556 247.709 221.556 254.619Z" fill="white"/>
<path d="M146.745 256.263V256.24C146.816 256.069 146.851 255.885 146.846 255.699C146.848 255.505 146.811 255.312 146.739 255.132C146.667 254.952 146.56 254.788 146.424 254.65C146.289 254.513 146.128 254.403 145.95 254.329C145.772 254.254 145.582 254.216 145.39 254.217H118.128C117.937 254.216 117.747 254.253 117.57 254.327C117.394 254.401 117.233 254.509 117.097 254.646C116.962 254.782 116.855 254.944 116.782 255.123C116.709 255.302 116.671 255.493 116.672 255.686V255.735C117.023 268.598 122 280.892 130.671 290.315C130.682 290.325 130.694 290.332 130.706 290.338C130.84 290.479 131.001 290.591 131.178 290.667C131.356 290.744 131.547 290.783 131.741 290.783C132.03 290.783 132.313 290.696 132.553 290.534C132.794 290.372 132.982 290.142 133.094 289.872L146.745 256.263ZM192.998 299.927C192.985 299.912 192.978 299.893 192.979 299.873L176.534 259.373C176.52 259.351 176.511 259.326 176.51 259.3C175.915 257.805 174.891 256.525 173.57 255.624C172.248 254.722 170.69 254.242 169.096 254.244C167.6 254.243 166.134 254.667 164.865 255.467C163.597 256.268 162.577 257.413 161.922 258.772L145.217 299.884C145.145 300.065 145.109 300.258 145.111 300.453C145.113 300.711 145.182 300.964 145.311 301.187C145.439 301.41 145.623 301.595 145.845 301.724C145.856 301.747 145.876 301.747 145.909 301.771C153.122 305.371 161.06 307.239 169.105 307.231C177.149 307.243 185.087 305.376 192.299 301.776C192.314 301.77 192.326 301.76 192.336 301.747C192.57 301.623 192.765 301.437 192.901 301.208C193.036 300.979 193.106 300.716 193.102 300.449C193.103 300.266 193.068 300.084 193.001 299.914L192.998 299.927ZM221.556 255.746C221.55 255.732 221.546 255.718 221.545 255.703C221.546 255.509 221.51 255.316 221.437 255.136C221.365 254.957 221.258 254.793 221.122 254.655C220.987 254.517 220.826 254.408 220.649 254.334C220.471 254.259 220.281 254.22 220.089 254.22H192.827C192.635 254.22 192.445 254.259 192.268 254.334C192.091 254.408 191.93 254.518 191.795 254.655C191.66 254.793 191.553 254.957 191.481 255.137C191.409 255.317 191.373 255.509 191.375 255.703C191.371 255.898 191.41 256.092 191.489 256.27L205.13 289.872C205.237 290.143 205.421 290.374 205.66 290.536C205.898 290.699 206.18 290.785 206.467 290.783C206.657 290.784 206.845 290.747 207.02 290.674C207.196 290.602 207.355 290.494 207.489 290.358C207.505 290.341 207.525 290.327 207.546 290.315C216.21 280.891 221.189 268.605 221.556 255.746Z" fill="#0C70C3"/>
<path d="M176.596 206.678H176.618C176.662 215.576 178.348 224.388 181.591 232.661L184.111 238.883C184.203 239.102 184.346 239.297 184.527 239.45C184.708 239.604 184.922 239.711 185.152 239.765H185.167C185.211 239.77 185.255 239.779 185.297 239.791H185.314H185.45H217.389C217.776 239.791 218.148 239.636 218.423 239.361C218.698 239.085 218.854 238.711 218.856 238.319C218.856 238.164 218.828 238.011 218.776 237.865V237.852C215.749 228.881 210.4 220.892 203.285 214.717C196.169 208.542 187.547 204.406 178.314 202.739C178.292 202.737 178.269 202.737 178.246 202.739C178.186 202.734 178.12 202.725 178.063 202.725C177.677 202.725 177.306 202.878 177.031 203.153C176.757 203.427 176.6 203.8 176.596 204.191V206.678Z" fill="#0C70C3"/>
<path d="M152.762 239.791H120.831L120.829 239.796C120.443 239.794 120.073 239.637 119.801 239.36C119.528 239.084 119.374 238.71 119.373 238.319C119.373 238.165 119.397 238.012 119.443 237.865C119.446 237.853 119.446 237.84 119.443 237.828C122.473 228.864 127.822 220.882 134.935 214.711C142.047 208.541 150.664 204.407 159.891 202.737C159.915 202.735 159.939 202.735 159.963 202.737C160.027 202.732 160.086 202.723 160.146 202.723C160.338 202.721 160.529 202.757 160.706 202.83C160.884 202.902 161.046 203.01 161.183 203.146C161.319 203.282 161.427 203.445 161.501 203.624C161.575 203.803 161.613 203.995 161.613 204.189V206.676C161.559 215.569 159.87 224.375 156.631 232.645L154.108 238.877C154.005 239.129 153.836 239.348 153.619 239.509C153.401 239.67 153.144 239.768 152.875 239.791H152.762Z" fill="#0C70C3"/>
</g>
<g opacity="0.2">
<path fill-rule="evenodd" clip-rule="evenodd" d="M160.668 298.158C189.631 298.158 213.11 274.601 213.11 245.542C213.11 233.897 209.34 223.137 202.958 214.421C214.333 224.073 221.556 238.498 221.556 254.615C221.556 283.674 198.077 307.232 169.114 307.232C151.757 307.232 136.369 298.771 126.824 285.736C135.958 293.486 147.769 298.158 160.668 298.158Z" fill="black"/>
</g>
<path style="mix-blend-mode:overlay" d="M117.582 246.867C121.781 218.074 146.595 197.97 176.669 202.4C205.865 206.027 224.751 233.411 220.554 262.204C216.355 290.997 189.901 310.905 161.466 306.67C133.032 302.434 113.384 275.66 117.582 246.867Z" fill="url(#paint18_radial_1230_14856)"/>
</g>
<g style="mix-blend-mode:screen">
<path d="M85.0879 216.958H256.232L217.608 343.929H125.71L85.0879 216.958Z" fill="url(#paint19_linear_1230_14856)"/>
</g>
<g style="mix-blend-mode:darken">
<ellipse cx="251.904" cy="350.575" rx="12.9856" ry="1.99432" fill="black" fill-opacity="0.1"/>
</g>
<g style="mix-blend-mode:darken">
<ellipse cx="89.0833" cy="350.575" rx="12.9856" ry="1.99432" fill="black" fill-opacity="0.1"/>
</g>
</g>
<defs>
<filter id="filter0_bd_1230_14856" x="-23.6541" y="-23.6541" width="375.308" height="753.308" filterUnits="userSpaceOnUse" color-interpolation-filters="sRGB">
<feFlood flood-opacity="0" result="BackgroundImageFix"/>
<feGaussianBlur in="BackgroundImageFix" stdDeviation="15.8271"/>
<feComposite in2="SourceAlpha" operator="in" result="effect1_backgroundBlur_1230_14856"/>
<feColorMatrix in="SourceAlpha" type="matrix" values="0 0 0 0 0 0 0 0 0 0 0 0 0 0 0 0 0 0 127 0" result="hardAlpha"/>
<feOffset/>
<feGaussianBlur stdDeviation="4"/>
<feComposite in2="hardAlpha" operator="out"/>
<feColorMatrix type="matrix" values="0 0 0 0 0.725488 0 0 0 0 1 0 0 0 0 1 0 0 0 0.95 0"/>
<feBlend mode="normal" in2="effect1_backgroundBlur_1230_14856" result="effect2_dropShadow_1230_14856"/>
<feBlend mode="normal" in="SourceGraphic" in2="effect2_dropShadow_1230_14856" result="shape"/>
</filter>
<linearGradient id="paint0_linear_1230_14856" x1="39.5" y1="491.733" x2="-140.685" y2="427.936" gradientUnits="userSpaceOnUse">
<stop stop-color="#024FC3"/>
<stop offset="1" stop-color="#0099DB"/>
</linearGradient>
<linearGradient id="paint1_linear_1230_14856" x1="358.998" y1="909.789" x2="-189.525" y2="815.359" gradientUnits="userSpaceOnUse">
<stop stop-color="#00F9FF"/>
<stop offset="0.135" stop-color="white"/>
<stop offset="0.33" stop-color="#61FBFF"/>
<stop offset="0.51" stop-color="#73FCFF"/>
<stop offset="1" stop-color="white"/>
</linearGradient>
<linearGradient id="paint2_linear_1230_14856" x1="122.157" y1="342.572" x2="141.53" y2="442.67" gradientUnits="userSpaceOnUse">
<stop stop-color="#E89900"/>
<stop offset="0.635" stop-color="#DE9B18" stop-opacity="0.53"/>
<stop offset="1" stop-color="#F2FEFF"/>
</linearGradient>
<linearGradient id="paint3_linear_1230_14856" x1="53.123" y1="359.441" x2="115.119" y2="332.08" gradientUnits="userSpaceOnUse">
<stop stop-color="#FFA439"/>
<stop offset="1" stop-color="#FFE0A5"/>
</linearGradient>
<linearGradient id="paint4_linear_1230_14856" x1="82.2393" y1="359.44" x2="94.5316" y2="447.411" gradientUnits="userSpaceOnUse">
<stop stop-color="#FFC14A"/>
<stop offset="1" stop-color="#F2FEFF"/>
</linearGradient>
<linearGradient id="paint5_linear_1230_14856" x1="96.6064" y1="338.066" x2="86.0359" y2="308.227" gradientUnits="userSpaceOnUse">
<stop stop-color="#BB4300"/>
<stop offset="1" stop-color="#F87B00" stop-opacity="0.79"/>
</linearGradient>
<linearGradient id="paint6_linear_1230_14856" x1="100.017" y1="320.761" x2="80.0958" y2="351.94" gradientUnits="userSpaceOnUse">
<stop stop-color="#FFB55D"/>
<stop offset="1" stop-color="#FFDB1F"/>
</linearGradient>
<linearGradient id="paint7_linear_1230_14856" x1="221.941" y1="342.573" x2="146.313" y2="389.721" gradientUnits="userSpaceOnUse">
<stop stop-color="#26C8DE"/>
<stop offset="0.3714" stop-color="#38BFD5"/>
<stop offset="1" stop-color="#F4FDFF"/>
</linearGradient>
<linearGradient id="paint8_linear_1230_14856" x1="287.863" y1="358.962" x2="228.334" y2="333.138" gradientUnits="userSpaceOnUse">
<stop stop-color="#5EBEFF"/>
<stop offset="1" stop-color="#61FBFF"/>
</linearGradient>
<linearGradient id="paint9_linear_1230_14856" x1="214.476" y1="463.789" x2="225.699" y2="372.034" gradientUnits="userSpaceOnUse">
<stop stop-color="#F2FEFF"/>
<stop offset="1" stop-color="#02D9E7"/>
</linearGradient>
<linearGradient id="paint10_linear_1230_14856" x1="246.911" y1="335.121" x2="272.081" y2="304.871" gradientUnits="userSpaceOnUse">
<stop stop-color="#00B3FF"/>
<stop offset="1" stop-color="#36FFFF"/>
</linearGradient>
<linearGradient id="paint11_linear_1230_14856" x1="302.347" y1="283.269" x2="97.268" y2="312.736" gradientUnits="userSpaceOnUse">
<stop stop-color="white"/>
<stop offset="1" stop-color="#0073DD"/>
</linearGradient>
<linearGradient id="paint12_linear_1230_14856" x1="229.873" y1="318.268" x2="166.718" y2="348.594" gradientUnits="userSpaceOnUse">
<stop stop-color="#7CFFE7"/>
<stop offset="1" stop-color="#9CFFE7"/>
</linearGradient>
<linearGradient id="paint13_linear_1230_14856" x1="215.636" y1="319.386" x2="127.522" y2="328.253" gradientUnits="userSpaceOnUse">
<stop stop-color="#0F87E1"/>
<stop offset="1" stop-color="#005083"/>
</linearGradient>
<linearGradient id="paint14_linear_1230_14856" x1="99.0719" y1="348.582" x2="188.662" y2="377.6" gradientUnits="userSpaceOnUse">
<stop stop-color="#59D7FF"/>
<stop offset="1" stop-color="#0164D9"/>
<stop offset="1.0001" stop-color="#007DF1"/>
</linearGradient>
<linearGradient id="paint15_linear_1230_14856" x1="169.847" y1="335.111" x2="169.847" y2="344.098" gradientUnits="userSpaceOnUse">
<stop stop-color="#004570" stop-opacity="0"/>
<stop offset="1" stop-color="#00609F" stop-opacity="0.41"/>
</linearGradient>
<linearGradient id="paint16_linear_1230_14856" x1="217.143" y1="315.454" x2="211.818" y2="332.312" gradientUnits="userSpaceOnUse">
<stop stop-color="white" stop-opacity="0"/>
<stop offset="1" stop-color="white" stop-opacity="0.5"/>
</linearGradient>
<linearGradient id="paint17_linear_1230_14856" x1="123.677" y1="315.174" x2="131.527" y2="332.32" gradientUnits="userSpaceOnUse">
<stop stop-color="white" stop-opacity="0"/>
<stop offset="1" stop-color="white" stop-opacity="0.5"/>
</linearGradient>
<radialGradient id="paint18_radial_1230_14856" cx="0" cy="0" r="1" gradientUnits="userSpaceOnUse" gradientTransform="translate(137.694 212.184) rotate(57.5186) scale(81.9136 106.14)">
<stop stop-color="white"/>
<stop offset="0.655" stop-color="#007AEB" stop-opacity="0.6"/>
<stop offset="1" stop-color="#0055A3" stop-opacity="0.6"/>
</radialGradient>
<linearGradient id="paint19_linear_1230_14856" x1="181.284" y1="266.816" x2="183.471" y2="355.23" gradientUnits="userSpaceOnUse">
<stop stop-color="#BDE7FF" stop-opacity="0"/>
<stop offset="0.807731" stop-color="#27A4FF" stop-opacity="0.3"/>
<stop offset="1" stop-color="#2287FF" stop-opacity="0.77"/>
</linearGradient>
<clipPath id="clip0_1230_14856">
<rect width="264" height="178" fill="white" transform="translate(32 202)"/>
</clipPath>
<clipPath id="clip1_1230_14856">
<rect width="132.319" height="142.099" fill="white" transform="translate(89.082 202)"/>
</clipPath>
<clipPath id="clip2_1230_14856">
<rect width="104.884" height="105.233" fill="white" transform="translate(116.672 202)"/>
</clipPath>
</defs>
</svg>
