<svg width="704" height="632" viewBox="0 0 704 632" fill="none" xmlns="http://www.w3.org/2000/svg">
<path d="M1 591.586V40.4142L40.4142 1H352H663.586L703 40.4142V325.515V591.586L663.586 631H352H40.4142L1 591.586Z" fill="url(#paint0_linear_1230_14607)" stroke="url(#paint1_linear_1230_14607)" stroke-width="2"/>
<path d="M34.6288 69.0362H70.3088V73.5162H34.6288V69.0362ZM44.7888 83.4362H62.7088V87.4362H44.7888V83.4362ZM61.1488 76.6762H65.8288V96.5562C65.8288 98.9163 65.3888 100.236 63.7488 100.996C62.1488 101.716 59.8688 101.756 56.6288 101.756C56.4288 100.436 55.7888 98.3963 55.1488 97.1562C57.2288 97.2762 59.5888 97.2362 60.2688 97.2362C60.9088 97.2362 61.1488 97.0362 61.1488 96.4762V76.6762ZM47.0288 64.1562L51.9888 65.2762C49.2288 74.1162 44.4688 83.1162 36.9088 88.4362C36.1888 87.3562 34.6688 85.6362 33.7088 84.7162C40.6288 80.1562 45.0688 71.7162 47.0288 64.1562ZM44.6688 90.0362H62.7088V94.0362H44.6688V90.0362ZM44.5088 76.6762H62.2288V80.9162H44.5088V76.6762ZM41.8688 76.6762H46.7088V87.3962C46.7088 92.1962 45.9088 98.4363 41.5888 102.076C40.9488 101.076 39.0688 99.0363 38.1088 98.3563C41.5888 95.3562 41.8688 91.0762 41.8688 87.3162V76.6762ZM86.5888 83.4762H100.109V96.0762H86.5888V92.1562H95.6288V87.3962H86.5888V83.4762ZM84.5488 83.4762H88.9888V98.3563H84.5488V83.4762ZM77.9888 71.5162H88.0288V74.7962H77.9888V71.5162ZM96.5488 71.5162H106.669V74.7962H96.5488V71.5162ZM104.669 65.7162H109.509V95.9962C109.509 98.7163 108.949 100.076 107.309 100.876C105.629 101.676 103.109 101.756 99.4288 101.756C99.2688 100.396 98.4688 98.1162 97.7888 96.8762C100.109 96.9962 102.869 96.9562 103.629 96.9562C104.389 96.9562 104.669 96.6762 104.669 95.9562V65.7162ZM78.3888 65.7162H91.0288V80.7162H78.3888V77.0363H86.5488V69.3962H78.3888V65.7162ZM107.269 65.7162V69.3562H98.3088V77.1162H107.269V80.7562H93.7488V65.7162H107.269ZM75.6288 65.7162H80.3888V101.756H75.6288V65.7162ZM120.269 73.8762V75.7962H125.949V73.8762H120.269ZM120.269 68.9562V70.8362H125.949V68.9562H120.269ZM116.029 65.7562H130.389V79.0362H116.029V65.7562ZM114.149 81.3162H132.189V84.8362H114.149V81.3162ZM132.029 65.8762H150.469V69.2362H132.029V65.8762ZM121.629 82.4362H125.629V98.5163L121.629 96.1962V82.4362ZM123.709 88.0762H131.469V91.5162H123.709V88.0762ZM139.749 66.6762L144.109 67.6362C143.149 69.8762 142.109 72.2762 141.269 73.8362L137.869 72.9562C138.589 71.1562 139.349 68.5562 139.749 66.6762ZM137.549 79.5562V81.4362H144.829V79.5562H137.549ZM137.549 84.4762V86.3963H144.829V84.4762H137.549ZM137.549 74.5962V76.4762H144.829V74.5962H137.549ZM133.269 71.3562H149.269V89.6762H133.269V71.3562ZM136.509 89.9562L140.469 91.1562C138.749 93.4362 135.909 95.7162 133.429 97.0762C132.749 96.3162 131.229 94.9162 130.349 94.2762C132.749 93.2362 135.149 91.5962 136.509 89.9562ZM115.989 86.3963H119.829C119.629 92.5162 119.029 98.3963 115.989 101.996C115.429 100.996 114.149 99.4762 113.189 98.7563C115.469 95.9562 115.869 91.2362 115.989 86.3963ZM119.189 89.7562C121.429 96.4762 126.429 97.1562 134.589 97.1962C137.269 97.1962 148.309 97.1962 151.589 97.0362C150.949 97.9562 150.269 99.7963 150.029 100.996H134.589C124.669 100.996 119.189 99.6363 116.349 90.5962L119.189 89.7562ZM142.189 91.3962L145.469 89.6762C147.629 91.0762 150.109 93.2362 151.349 94.7562L147.909 96.7962C146.669 95.1962 144.189 92.8763 142.189 91.3962ZM169.211 78.7162V82.0762H175.931V78.7162H169.211ZM165.091 74.9962H180.331V85.7962H165.091V74.9962ZM163.371 68.7562H181.731V72.9562H163.371V68.7562ZM182.171 74.3962H200.091V78.6762H182.171V74.3962ZM190.051 80.7162H194.171V95.9562C194.171 96.6362 194.211 97.0762 194.331 97.2362C194.491 97.3562 194.691 97.4362 194.931 97.4362C195.171 97.4362 195.651 97.4362 195.971 97.4362C196.211 97.4362 196.491 97.3962 196.651 97.2762C196.851 97.1962 196.971 96.8363 197.051 96.1162C197.131 95.4362 197.171 93.7162 197.171 91.6762C198.051 92.4762 199.691 93.2762 200.891 93.6762C200.811 95.5962 200.611 97.7162 200.331 98.6363C200.011 99.5963 199.531 100.196 198.811 100.516C198.171 100.916 197.171 100.996 196.411 100.996C195.691 100.996 194.531 100.996 193.891 100.996C192.931 100.996 191.771 100.716 191.091 100.076C190.371 99.3963 190.051 98.5563 190.051 95.7562V80.7162ZM187.331 64.2762H191.851C191.731 77.4762 191.451 92.9162 182.211 101.876C181.491 100.836 180.091 99.5963 178.851 98.8763C187.611 90.8362 187.251 76.5162 187.331 64.2762ZM170.851 84.6762H175.091V97.1562C175.091 99.0363 174.811 100.156 173.571 100.836C172.331 101.436 170.771 101.516 168.611 101.516C168.451 100.316 167.851 98.6363 167.291 97.5562C168.531 97.5962 169.851 97.5962 170.291 97.5562C170.731 97.5562 170.851 97.4362 170.851 97.0362V84.6762ZM166.051 86.9162L169.931 87.7562C169.051 91.7162 167.571 95.8762 165.891 98.5163C165.171 97.8762 163.531 96.7162 162.651 96.2362C164.251 93.9162 165.371 90.3562 166.051 86.9162ZM175.691 87.9562L179.011 86.4362C180.291 88.6762 181.531 91.5962 181.971 93.5562L178.451 95.2362C178.091 93.2362 176.931 90.1962 175.691 87.9562ZM192.051 67.3962L195.171 65.5962C196.771 67.3962 198.651 69.9962 199.411 71.7162L196.131 73.7562C195.411 72.0362 193.651 69.3562 192.051 67.3962ZM169.451 65.0762L173.851 64.1162C174.691 65.7962 175.571 68.0362 175.931 69.4762L171.291 70.5562C171.011 69.1162 170.211 66.7962 169.451 65.0762ZM202.571 84.5162C206.251 83.7562 211.771 82.4362 216.891 81.0762L217.451 85.5162C212.811 86.7962 207.731 88.1162 203.811 89.1162L202.571 84.5162ZM203.051 71.7962H217.051V76.2762H203.051V71.7962ZM208.051 64.1962H212.731V96.3962C212.731 98.6763 212.291 99.8763 210.971 100.596C209.611 101.316 207.691 101.436 204.851 101.436C204.691 100.236 204.091 98.2763 203.531 97.0762C205.091 97.1562 206.771 97.1162 207.291 97.1162C207.851 97.1162 208.051 96.9162 208.051 96.3562V64.1962ZM217.491 74.8362L239.371 72.7162L239.851 77.1962L217.971 79.4362L217.491 74.8362ZM228.411 66.9562L232.091 64.5962C233.851 66.3162 236.291 68.7962 237.491 70.3962L233.611 73.0762C232.531 71.4362 230.171 68.7962 228.411 66.9562ZM222.011 64.3962H226.931C227.211 81.7162 229.611 94.9162 234.851 95.6762C235.771 95.7962 236.291 93.8362 236.531 89.5162C237.491 90.5562 239.611 91.8762 240.571 92.3162C239.491 99.7963 237.331 101.636 235.091 101.436C225.251 100.436 222.731 86.1962 222.011 64.3962ZM234.171 78.7562L238.131 81.1562C234.491 89.1162 227.371 96.7562 219.571 100.436C218.691 99.1963 217.091 97.6762 215.731 96.7162C223.851 93.5562 230.851 86.3162 234.171 78.7562ZM263.931 80.9562H268.891V94.7962C268.891 96.3562 269.131 96.5562 270.411 96.5562C270.971 96.5562 273.331 96.5562 274.051 96.5562C275.411 96.5562 275.651 95.5562 275.811 89.7562C276.851 90.5962 278.971 91.4362 280.251 91.7562C279.771 98.9963 278.571 101.076 274.491 101.076C273.571 101.076 270.531 101.076 269.651 101.076C265.091 101.076 263.931 99.5163 263.931 94.8362V80.9562ZM243.611 77.8762H279.491V82.5562H243.611V77.8762ZM247.251 66.9962H275.811V71.6362H247.251V66.9962ZM252.771 81.5562H257.931C257.291 90.3562 255.771 97.5962 245.691 101.636C245.171 100.436 243.811 98.6763 242.731 97.7562C251.531 94.4762 252.291 88.5962 252.771 81.5562ZM304.091 84.2762H308.931V95.1162C308.931 96.4362 309.131 96.5962 310.371 96.5962C310.931 96.5962 313.171 96.5962 313.851 96.5962C315.051 96.5962 315.251 95.8762 315.411 91.1562C316.411 91.9162 318.491 92.7162 319.811 93.0362C319.331 99.4363 318.051 101.156 314.291 101.156C313.371 101.156 310.531 101.156 309.651 101.156C305.131 101.156 304.091 99.6363 304.091 95.1162V84.2762ZM283.691 80.7162H319.411V85.3562H283.691V80.7162ZM290.291 69.5962H316.251V74.1962H290.291V69.5962ZM293.331 84.3562H298.371C297.611 91.9162 295.731 98.3163 286.091 101.956C285.531 100.676 284.171 98.7163 283.051 97.7562C291.611 94.9962 292.731 90.0362 293.331 84.3562ZM290.251 64.7562L295.131 65.7162C293.851 70.4362 291.811 76.1962 289.131 79.7162C288.011 78.9962 286.051 77.9962 284.851 77.5562C287.491 74.2762 289.371 68.8762 290.251 64.7562ZM299.131 64.1962H304.011V82.1562H299.131V64.1962ZM329.811 71.4362H357.651V76.1163H329.811V71.4362ZM328.171 83.2362H356.131V87.8362H328.171V83.2362ZM323.531 95.9162H359.691V100.596H323.531V95.9162ZM339.091 64.1962H344.091V98.2363H339.091V64.1962ZM329.851 64.6762L334.811 65.7962C333.051 71.9962 330.131 78.1562 327.011 81.9962C326.051 81.1562 323.931 79.7562 322.691 79.0762C325.851 75.7162 328.411 70.1962 329.851 64.6762Z" fill="white"/>
<path d="M49.478 119.466C47.516 121.14 45.914 124.164 45.914 127.854C45.914 131.562 47.516 134.586 49.478 136.26V136.35H43.88V119.376H49.478V119.466ZM60.08 126.954H62.312V133.182C62.312 133.884 62.42 133.974 62.996 133.974C63.248 133.974 64.31 133.974 64.634 133.974C65.246 133.974 65.354 133.524 65.426 130.914C65.894 131.292 66.848 131.67 67.424 131.814C67.208 135.072 66.668 136.008 64.832 136.008C64.418 136.008 63.05 136.008 62.654 136.008C60.602 136.008 60.08 135.306 60.08 133.2V126.954ZM50.936 125.568H67.082V127.674H50.936V125.568ZM52.574 120.672H65.426V122.76H52.574V120.672ZM55.058 127.224H57.38C57.092 131.184 56.408 134.442 51.872 136.26C51.638 135.72 51.026 134.928 50.54 134.514C54.5 133.038 54.842 130.392 55.058 127.224ZM78.152 128.448H80.33V133.326C80.33 133.92 80.42 133.992 80.978 133.992C81.23 133.992 82.238 133.992 82.544 133.992C83.084 133.992 83.174 133.668 83.246 131.544C83.696 131.886 84.632 132.246 85.226 132.39C85.01 135.27 84.434 136.044 82.742 136.044C82.328 136.044 81.05 136.044 80.654 136.044C78.62 136.044 78.152 135.36 78.152 133.326V128.448ZM68.972 126.846H85.046V128.934H68.972V126.846ZM71.942 121.842H83.624V123.912H71.942V121.842ZM73.31 128.484H75.578C75.236 131.886 74.39 134.766 70.052 136.404C69.8 135.828 69.188 134.946 68.684 134.514C72.536 133.272 73.04 131.04 73.31 128.484ZM71.924 119.664L74.12 120.096C73.544 122.22 72.626 124.812 71.42 126.396C70.916 126.072 70.034 125.622 69.494 125.424C70.682 123.948 71.528 121.518 71.924 119.664ZM75.92 119.412H78.116V127.494H75.92V119.412ZM89.726 122.67H102.254V124.776H89.726V122.67ZM88.988 127.98H101.57V130.05H88.988V127.98ZM86.9 133.686H103.172V135.792H86.9V133.686ZM93.902 119.412H96.152V134.73H93.902V119.412ZM89.744 119.628L91.976 120.132C91.184 122.922 89.87 125.694 88.466 127.422C88.034 127.044 87.08 126.414 86.522 126.108C87.944 124.596 89.096 122.112 89.744 119.628ZM110.102 136.35H104.504V136.26C106.466 134.586 108.068 131.562 108.068 127.854C108.068 124.164 106.466 121.14 104.504 119.466V119.376H110.102V136.35ZM122.756 134.694V133.182C126.392 129.924 128.516 127.422 128.516 125.37C128.516 124.038 127.814 123.21 126.536 123.21C125.546 123.21 124.772 123.84 124.088 124.596L122.63 123.156C123.854 121.842 125.06 121.14 126.878 121.14C129.38 121.14 131.072 122.742 131.072 125.226C131.072 127.656 129.056 130.248 126.626 132.624C127.292 132.552 128.174 132.462 128.804 132.462H131.684V134.694H122.756ZM138.665 134.694V126.504C138.665 125.73 138.737 124.524 138.773 123.732H138.701C138.359 124.452 137.999 125.19 137.621 125.91L135.569 129.222H142.715V131.256H132.995V129.438L137.945 121.374H141.131V134.694H138.665ZM151.1 119.664H153.476V133.614C153.476 134.946 153.17 135.54 152.342 135.882C151.514 136.242 150.272 136.314 148.508 136.296C148.4 135.666 147.986 134.64 147.644 134.046C148.832 134.118 150.182 134.1 150.56 134.082C150.956 134.082 151.1 133.956 151.1 133.596V119.664ZM155.438 124.398L157.544 123.606C159.02 126.144 160.514 129.438 160.964 131.688L158.606 132.624C158.228 130.446 156.86 127.044 155.438 124.398ZM146.384 123.786L148.85 124.2C148.238 126.918 147.248 130.284 145.736 132.282C145.214 131.886 144.224 131.382 143.63 131.148C145.088 129.312 146.006 126.144 146.384 123.786ZM168.92 124.938H178.136V126.81H168.92V124.938ZM168.344 121.32H178.622V123.228H168.344V121.32ZM168.362 128.214H178.55V130.104H168.362V128.214ZM172.412 119.394H174.536V126H172.412V119.394ZM174.698 126.576H176.804V134.028C176.804 135.072 176.606 135.63 175.904 135.936C175.184 136.26 174.212 136.296 172.862 136.296C172.79 135.702 172.466 134.838 172.178 134.28C173.06 134.316 174.05 134.316 174.32 134.298C174.608 134.298 174.698 134.244 174.698 133.992V126.576ZM169.082 131.31L170.882 130.338C171.602 131.202 172.592 132.444 173.06 133.236L171.152 134.352C170.738 133.56 169.82 132.264 169.082 131.31ZM163.376 120.51H168.02V132.822H163.376V130.896H166.004V122.436H163.376V120.51ZM163.484 125.622H166.976V127.512H163.484V125.622ZM162.368 120.51H164.366V134.424H162.368V120.51ZM180.224 121.914H196.28V123.984H180.224V121.914ZM186.092 127.746H195.524V129.744H186.092V127.746ZM185.39 133.866H196.208V135.864H185.39V133.866ZM189.764 124.758H191.942V134.928H189.764V124.758ZM185.894 119.394L188.144 119.934C186.812 124.272 184.544 128.646 180.692 131.274C180.476 130.662 179.972 129.708 179.648 129.186C182.906 127.062 184.958 123.03 185.894 119.394ZM182.294 126.936H184.472V136.278H182.294V126.936ZM208.43 119.394L210.896 119.826C210.392 120.798 209.87 121.752 209.456 122.364L207.62 121.914C207.944 121.176 208.268 120.15 208.43 119.394ZM207.296 125.352V126.288H211.868V125.352H207.296ZM207.296 122.94V123.858H211.868V122.94H207.296ZM205.298 121.32H213.956V127.908H205.298V121.32ZM208.718 127.17H210.77V134.172C210.77 135.126 210.608 135.684 209.996 136.008C209.384 136.332 208.538 136.35 207.386 136.35C207.314 135.774 207.08 134.928 206.81 134.388C207.476 134.424 208.214 134.424 208.43 134.406C208.664 134.406 208.718 134.352 208.718 134.136V127.17ZM204.65 129.024H207.17V130.77H204.65V129.024ZM206.702 129.024H207.044L207.368 128.97L208.646 129.402C208.052 132.228 206.72 134.298 204.848 135.45C204.596 135 204.02 134.316 203.642 133.956C205.136 133.11 206.306 131.274 206.702 129.33V129.024ZM212.948 128.178L214.55 129.528C213.524 130.338 212.48 131.238 211.634 131.796L210.482 130.716C211.256 130.068 212.336 128.988 212.948 128.178ZM210.68 128.196C211.382 130.608 212.804 132.858 214.784 133.938C214.334 134.316 213.704 135.108 213.38 135.648C211.31 134.226 209.978 131.544 209.222 128.538L210.68 128.196ZM201.95 126.81L203.516 126.396C203.93 127.602 204.344 129.204 204.47 130.176L202.814 130.698C202.688 129.708 202.346 128.07 201.95 126.81ZM200.402 131.544L201.914 131.274C202.112 132.498 202.274 134.046 202.31 135.09L200.708 135.396C200.708 134.352 200.564 132.75 200.402 131.544ZM198.458 131.292L200.114 131.562C199.988 133.218 199.682 135 199.304 136.152C198.944 135.954 198.152 135.702 197.72 135.576C198.134 134.496 198.35 132.822 198.458 131.292ZM198.296 126.558C198.188 126.162 197.846 125.208 197.63 124.686C197.972 124.596 198.278 124.254 198.62 123.732C198.98 123.21 200.042 121.248 200.636 119.358L202.598 120.15C201.788 122.058 200.582 124.11 199.484 125.514V125.55C199.484 125.55 198.296 126.198 198.296 126.558ZM198.296 126.558L198.224 125.064L199.106 124.506L202.238 124.272C202.13 124.812 202.022 125.55 202.022 125.982C199.232 126.252 198.656 126.396 198.296 126.558ZM198.422 130.734C198.314 130.32 197.972 129.33 197.738 128.79C198.206 128.664 198.602 128.25 199.178 127.584C199.772 126.936 201.644 124.38 202.76 121.914L204.578 123.048C203.282 125.46 201.446 127.908 199.664 129.672V129.726C199.664 129.726 198.422 130.356 198.422 130.734ZM198.422 130.734L198.332 129.204L199.214 128.61L203.534 128.106C203.444 128.628 203.39 129.384 203.408 129.798C199.52 130.356 198.854 130.518 198.422 130.734ZM202.202 131.184L203.606 130.752C203.894 131.544 204.218 132.552 204.344 133.236L202.868 133.74C202.76 133.056 202.472 131.994 202.202 131.184ZM223.082 123.768H225.314V128.52H223.082V123.768ZM217.718 127.512H230.624V129.168H217.718V127.512ZM216.746 124.65H231.74V126.468H216.746V124.65ZM216.188 130.374H232.298V132.138H216.188V130.374ZM226.646 129.492H228.878V134.37C228.878 135.378 228.644 135.828 227.852 136.062C227.078 136.296 225.98 136.296 224.486 136.296C224.432 135.756 224.198 135.09 223.964 134.568C224.846 134.622 225.98 134.622 226.25 134.604C226.538 134.586 226.646 134.514 226.646 134.28V129.492ZM219.068 132.894L220.598 131.76C221.498 132.516 222.776 133.614 223.406 134.334L221.804 135.594C221.228 134.874 219.986 133.704 219.068 132.894ZM218.348 120.546H224V122.382H218.348V120.546ZM225.836 120.546H232.568V122.382H225.836V120.546ZM218.456 119.25L220.346 119.826C219.608 121.5 218.366 123.246 217.16 124.326C216.872 123.966 216.152 123.192 215.72 122.85C216.836 121.968 217.862 120.6 218.456 119.25ZM225.926 119.25L227.906 119.736C227.33 121.554 226.322 123.354 225.278 124.506C224.918 124.164 224.108 123.534 223.658 123.246C224.648 122.274 225.476 120.762 225.926 119.25ZM219.518 122.94L220.796 121.824C221.426 122.31 222.236 123.012 222.632 123.48L221.282 124.74C220.904 124.236 220.13 123.462 219.518 122.94ZM227.366 122.994L228.752 121.878C229.346 122.382 230.12 123.138 230.48 123.66L229.022 124.902C228.698 124.38 227.96 123.552 227.366 122.994Z" fill="#53F5FF"/>
<path d="M36.482 174.143H45.716V175.655H36.482V174.143ZM38.642 159.491L40.262 160.049C38.786 162.533 36.446 164.783 34.178 166.187C33.908 165.863 33.278 165.215 32.9 164.945C35.186 163.703 37.382 161.687 38.642 159.491ZM45.212 161.471H45.572L45.86 161.381L47.066 162.173C44.384 166.475 38.57 169.139 33.314 170.327C33.152 169.877 32.774 169.175 32.468 168.797C37.4 167.843 43.016 165.287 45.212 161.741V161.471ZM37.454 162.389C39.812 165.413 44.492 167.771 49.55 168.671C49.154 169.049 48.686 169.769 48.434 170.237C43.358 169.175 38.75 166.619 36.032 163.055L37.454 162.389ZM35.6 169.787H46.436V176.357H44.636V171.335H37.31V176.429H35.6V169.787ZM38.228 161.471H45.608V162.965H37.202L38.228 161.471ZM61.358 161.093H62.996V175.403H61.358V161.093ZM57.056 162.821H67.064V164.171H57.056V162.821ZM56.552 174.665H67.424V176.033H56.552V174.665ZM57.578 172.163H66.776V173.495H57.578V172.163ZM66.02 159.851L67.028 161.111C64.544 161.633 60.782 161.903 57.704 161.957C57.668 161.579 57.47 161.003 57.326 160.661C60.314 160.553 63.95 160.283 66.02 159.851ZM59.234 168.653V169.859H65.174V168.653H59.234ZM59.234 166.403V167.591H65.174V166.403H59.234ZM57.74 165.179H66.74V171.083H57.74V165.179ZM53.6 161.237H55.256V176.339H53.6V161.237ZM50.81 164.729H57.362V166.313H50.81V164.729ZM53.69 165.359L54.716 165.791C54.014 168.347 52.646 171.533 51.26 173.243C51.098 172.757 50.72 172.055 50.432 171.641C51.71 170.201 53.078 167.483 53.69 165.359ZM56.318 159.887L57.488 161.201C55.76 161.885 53.24 162.371 51.152 162.659C51.062 162.281 50.846 161.723 50.648 161.363C52.664 161.021 54.968 160.499 56.318 159.887ZM55.202 167.123C55.652 167.501 57.29 169.193 57.65 169.607L56.66 170.957C56.228 170.165 54.986 168.473 54.428 167.807L55.202 167.123ZM70.25 165.593L71.78 165.881C71.456 167.519 70.826 169.175 70.124 170.237C69.818 170.003 69.152 169.661 68.756 169.481C69.494 168.509 69.98 167.033 70.25 165.593ZM70.628 167.159H76.01V168.545H69.98L70.628 167.159ZM68.756 170.309H76.298V171.731H68.756V170.309ZM72.23 167.717H73.814V169.769C73.814 171.713 73.346 174.449 69.854 176.375C69.602 176.033 69.098 175.529 68.72 175.241C71.978 173.639 72.23 171.263 72.23 169.733V167.717ZM73.364 171.425C73.886 171.785 75.596 173.297 75.974 173.693L75.002 175.025C74.462 174.323 73.058 172.775 72.446 172.199L73.364 171.425ZM69.746 159.725H71.402V163.361C71.402 163.919 71.492 164.117 71.96 164.117C72.356 164.117 74.03 164.117 74.462 164.117C74.876 164.117 75.56 164.081 75.884 163.991C75.938 164.441 75.974 165.053 76.028 165.431C75.722 165.539 75.092 165.557 74.516 165.557C74.066 165.557 72.248 165.557 71.888 165.557C70.178 165.557 69.746 164.945 69.746 163.343V159.725ZM76.802 160.229H83.822V161.561H76.802V160.229ZM83.282 160.229H83.624L83.948 160.139L84.956 160.805C83.984 162.263 82.4 163.757 80.888 164.657C80.672 164.351 80.222 163.865 79.934 163.613C81.248 162.857 82.652 161.543 83.282 160.517V160.229ZM77.558 163.433L78.566 162.389C80.132 163.055 82.22 164.189 83.3 164.999L82.22 166.169C81.212 165.377 79.16 164.189 77.558 163.433ZM76.478 165.989H84.038V167.393H76.478V165.989ZM83.732 165.989H83.966L84.2 165.917L85.244 166.187C84.902 167.339 84.47 168.653 84.038 169.481L82.796 169.103C83.156 168.365 83.516 167.177 83.732 166.205V165.989ZM79.952 166.403H81.482V175.277L79.952 174.557V166.403ZM80.582 170.183H84.65V171.605H80.582V170.183ZM78.368 170.993C79.25 174.197 81.122 174.755 83.174 174.755C83.516 174.755 84.92 174.755 85.406 174.755C85.208 175.097 85.01 175.763 84.956 176.159H83.066C80.474 176.159 78.422 175.349 77.342 171.389L78.368 170.993ZM77.216 168.455L78.764 168.509C78.62 172.019 78.098 174.647 76.532 176.447C76.28 176.213 75.596 175.709 75.236 175.511C76.766 173.981 77.144 171.515 77.216 168.455ZM70.862 161.093H75.848V162.443H70.862V161.093ZM87.296 168.977H94.496V170.201H87.296V168.977ZM86.702 171.137H94.982V172.433H86.702V171.137ZM86.774 160.733H94.928V162.011H86.774V160.733ZM90.14 163.541H91.526V167.393H90.14V163.541ZM88.592 165.629V166.943H93.02V165.629H88.592ZM87.278 164.513H94.406V168.059H87.278V164.513ZM90.068 167.447H91.652V170.129C91.652 172.145 91.148 174.665 87.674 176.339C87.44 175.997 86.972 175.511 86.594 175.223C89.708 173.873 90.068 171.641 90.068 170.093V167.447ZM90.14 173.405L91.004 172.415C92.138 173.081 93.686 174.125 94.442 174.809L93.542 175.943C92.822 175.241 91.31 174.143 90.14 173.405ZM88.304 159.689H89.798V162.785H91.994V159.689H93.56V163.847H88.304V159.689ZM96.206 166.691H102.992V168.131H96.206V166.691ZM96.224 170.273H103.01V171.731H96.224V170.273ZM96.134 173.927H103.298V175.475H96.134V173.927ZM96.944 159.653L98.492 160.049C97.736 162.713 96.512 165.413 95.18 167.159C94.928 166.871 94.28 166.313 93.92 166.079C95.216 164.513 96.278 162.065 96.944 159.653ZM97.304 163.055H103.19V164.585H97.304V176.321H95.774V164.675L97.268 163.055H97.304ZM99.392 163.757H100.922V174.719H99.392V163.757ZM98.852 160.373L100.31 159.887C100.796 160.643 101.3 161.651 101.498 162.335L99.95 162.911C99.77 162.227 99.302 161.165 98.852 160.373ZM106.502 163.199L107.906 163.469C107.474 165.467 106.682 167.339 105.62 168.527C105.404 168.275 104.864 167.771 104.54 167.555C105.512 166.511 106.178 164.909 106.502 163.199ZM104.81 169.283H113V170.777H104.81V169.283ZM104.882 161.525H112.892V163.037H104.882V161.525ZM110.048 163.307L111.434 163.559C111.02 165.431 110.264 167.141 109.238 168.257C109.004 168.023 108.464 167.555 108.14 167.339C109.076 166.367 109.706 164.891 110.048 163.307ZM106.286 165.503L107.114 164.675C107.69 165.107 108.41 165.755 108.734 166.205L107.87 167.141C107.564 166.673 106.88 165.989 106.286 165.503ZM109.76 165.683L110.732 164.945C111.434 165.629 112.316 166.619 112.748 167.231L111.722 168.095C111.326 167.447 110.462 166.421 109.76 165.683ZM114.206 166.691H120.992V168.131H114.206V166.691ZM114.224 170.273H121.01V171.731H114.224V170.273ZM114.134 173.927H121.298V175.475H114.134V173.927ZM114.944 159.707L116.528 160.085C115.772 162.749 114.584 165.449 113.288 167.213C113.018 166.925 112.37 166.367 112.01 166.115C113.27 164.549 114.314 162.101 114.944 159.707ZM115.304 163.055H121.19V164.585H115.304V176.321H113.774V164.675L115.268 163.055H115.304ZM117.392 163.757H118.922V174.719H117.392V163.757ZM107.69 160.049L109.274 159.635C109.634 160.247 110.03 161.057 110.21 161.597L108.554 162.083C108.392 161.543 108.014 160.679 107.69 160.049ZM116.852 160.373L118.328 159.887C118.814 160.643 119.3 161.651 119.516 162.335L117.95 162.911C117.77 162.227 117.302 161.165 116.852 160.373ZM106.358 171.695L107.762 171.965C107.402 173.261 106.772 174.557 106.07 175.403C105.8 175.205 105.188 174.845 104.828 174.683C105.53 173.909 106.052 172.793 106.358 171.695ZM110.336 172.073L111.596 171.623C112.19 172.577 112.82 173.819 113.072 174.629L111.74 175.151C111.488 174.323 110.894 173.027 110.336 172.073ZM108.284 168.077H109.886V176.303H108.284V168.077ZM128.048 164.783H138.83V166.349H128.048V164.783ZM133.52 169.139H138.524V170.651H133.52V169.139ZM126.842 174.161H139.37V175.745H126.842V174.161ZM132.728 165.413H134.366V175.205H132.728V165.413ZM128.822 168.383H130.37V175.133H128.822V168.383ZM126.446 161.615H139.352V163.145H126.446V161.615ZM125.51 161.615H127.13V167.033C127.13 169.895 126.752 173.909 124.268 176.411C124.016 176.069 123.386 175.475 123.044 175.259C125.294 172.937 125.51 169.607 125.51 167.015V161.615ZM122.738 163.775L123.98 163.163C124.61 164.207 125.204 165.593 125.384 166.493L124.052 167.195C123.872 166.295 123.314 164.855 122.738 163.775ZM122.522 170.165C123.386 169.787 124.592 169.175 125.852 168.545L126.248 169.877C125.186 170.525 124.07 171.173 123.062 171.749L122.522 170.165ZM131.234 159.995L132.944 159.635C133.268 160.355 133.646 161.273 133.808 161.867L132.044 162.299C131.9 161.687 131.54 160.715 131.234 159.995ZM148.19 162.893L149.27 161.957C150.944 162.551 153.23 163.523 154.436 164.243L153.284 165.287C152.168 164.585 149.9 163.541 148.19 162.893ZM146.48 164.171H155.624V165.449H147.992V173.477H146.48V164.171ZM155.012 164.171H156.56V171.965C156.56 172.703 156.398 173.063 155.894 173.297C155.408 173.513 154.652 173.513 153.5 173.513C153.446 173.135 153.248 172.577 153.068 172.217C153.824 172.253 154.508 172.235 154.724 172.235C154.958 172.235 155.012 172.163 155.012 171.965V164.171ZM146.588 160.337H155.39V161.633H146.588V160.337ZM147.398 166.763H155.552V167.987H147.398V166.763ZM147.398 169.355H155.552V170.633H147.398V169.355ZM150.71 164.747H152.168V173.423H150.71V164.747ZM154.796 160.337H155.192L155.534 160.247L156.56 161.075C155.318 162.227 153.518 163.415 151.862 164.153C151.664 163.865 151.25 163.415 150.998 163.181C152.42 162.569 154.04 161.489 154.796 160.643V160.337ZM141.368 160.445L142.646 159.671C143.474 160.535 144.482 161.669 144.986 162.407L143.69 163.343C143.204 162.587 142.178 161.327 141.368 160.445ZM140.81 163.829H144.698V165.215H140.81V163.829ZM144.212 171.893C145.256 174.287 147.506 174.593 150.944 174.611C152.834 174.611 155.624 174.503 157.55 174.341C157.316 174.683 157.082 175.475 156.992 175.943C155.228 176.051 152.942 176.087 150.908 176.087C146.714 176.087 144.41 175.565 143.078 172.397L144.212 171.893ZM144.158 168.275H144.554L144.842 168.239L145.67 168.545C145.058 172.451 143.564 175.043 141.512 176.393C141.296 176.069 140.738 175.475 140.414 175.241C142.34 174.053 143.672 171.785 144.158 168.545V168.275ZM141.098 169.877V168.635L141.8 168.275H144.68L144.662 169.625H142.178C141.728 169.625 141.242 169.733 141.098 169.877ZM141.098 169.877C140.99 169.517 140.666 168.761 140.504 168.437C140.792 168.365 141.08 168.239 141.404 167.879C141.962 167.339 143.672 164.963 144.284 163.991V163.937L144.752 163.739L145.832 164.243C144.968 165.467 143.33 167.735 142.304 168.905C142.304 168.905 141.098 169.481 141.098 169.877ZM166.19 162.893L167.27 161.957C168.944 162.551 171.23 163.523 172.436 164.243L171.284 165.287C170.168 164.585 167.9 163.541 166.19 162.893ZM164.48 164.171H173.624V165.449H165.992V173.477H164.48V164.171ZM173.012 164.171H174.56V171.965C174.56 172.703 174.398 173.063 173.894 173.297C173.408 173.513 172.652 173.513 171.5 173.513C171.446 173.135 171.248 172.577 171.068 172.217C171.824 172.253 172.508 172.235 172.724 172.235C172.958 172.235 173.012 172.163 173.012 171.965V164.171ZM164.588 160.337H173.39V161.633H164.588V160.337ZM165.398 166.763H173.552V167.987H165.398V166.763ZM165.398 169.355H173.552V170.633H165.398V169.355ZM168.71 164.747H170.168V173.423H168.71V164.747ZM172.796 160.337H173.192L173.534 160.247L174.56 161.075C173.318 162.227 171.518 163.415 169.862 164.153C169.664 163.865 169.25 163.415 168.998 163.181C170.42 162.569 172.04 161.489 172.796 160.643V160.337ZM159.368 160.445L160.646 159.671C161.474 160.535 162.482 161.669 162.986 162.407L161.69 163.343C161.204 162.587 160.178 161.327 159.368 160.445ZM158.81 163.829H162.698V165.215H158.81V163.829ZM162.212 171.893C163.256 174.287 165.506 174.593 168.944 174.611C170.834 174.611 173.624 174.503 175.55 174.341C175.316 174.683 175.082 175.475 174.992 175.943C173.228 176.051 170.942 176.087 168.908 176.087C164.714 176.087 162.41 175.565 161.078 172.397L162.212 171.893ZM162.158 168.275H162.554L162.842 168.239L163.67 168.545C163.058 172.451 161.564 175.043 159.512 176.393C159.296 176.069 158.738 175.475 158.414 175.241C160.34 174.053 161.672 171.785 162.158 168.545V168.275ZM159.098 169.877V168.635L159.8 168.275H162.68L162.662 169.625H160.178C159.728 169.625 159.242 169.733 159.098 169.877ZM159.098 169.877C158.99 169.517 158.666 168.761 158.504 168.437C158.792 168.365 159.08 168.239 159.404 167.879C159.962 167.339 161.672 164.963 162.284 163.991V163.937L162.752 163.739L163.832 164.243C162.968 165.467 161.33 167.735 160.304 168.905C160.304 168.905 159.098 169.481 159.098 169.877ZM177.062 161.921H192.956V163.523H177.062V161.921ZM181.454 168.383H189.806V169.823H181.454V168.383ZM189.212 165.323H190.886V174.395C190.886 175.313 190.706 175.799 190.04 176.069C189.392 176.339 188.384 176.339 186.872 176.339C186.8 175.871 186.566 175.151 186.332 174.701C187.412 174.755 188.492 174.737 188.816 174.737C189.122 174.719 189.212 174.629 189.212 174.377V165.323ZM182.822 159.653L184.568 160.049C183.344 163.991 181.184 167.987 177.8 170.381C177.548 169.985 177.008 169.391 176.684 169.067C179.834 166.925 181.886 163.145 182.822 159.653ZM181.364 171.389H189.806V172.829H181.364V171.389ZM181.346 165.323H189.644V166.835H181.346V165.323ZM180.428 165.323H182.138V170.111C182.138 172.181 181.796 174.845 179.96 176.483C179.744 176.123 179.078 175.403 178.754 175.169C180.266 173.765 180.428 171.785 180.428 170.093V165.323ZM196.52 164.261H201.632V165.539H196.52V164.261ZM196.52 167.267H201.632V168.509H196.52V167.267ZM196.52 170.345H201.632V171.641H196.52V170.345ZM204.242 168.185H211.064V169.643H204.242V168.185ZM197.438 161.291H200.354V162.605H197.438V161.291ZM203 160.571H209.894V161.993H203V160.571ZM202.874 171.587H211.388V173.081H202.874V171.587ZM206.492 166.439H208.112V176.303H206.492V166.439ZM198.626 164.909H199.796V170.849H198.626V164.909ZM209.39 160.571H210.92C210.92 160.571 210.902 160.967 210.884 161.165C210.776 164.117 210.614 165.305 210.218 165.755C209.966 166.079 209.642 166.223 209.192 166.259C208.814 166.313 208.076 166.313 207.338 166.277C207.302 165.845 207.158 165.269 206.942 164.891C207.608 164.945 208.184 164.963 208.436 164.963C208.67 164.963 208.814 164.945 208.94 164.783C209.156 164.531 209.282 163.523 209.39 160.787V160.571ZM204.116 166.583L205.556 166.871C205.196 168.527 204.584 170.183 203.864 171.245C203.576 171.047 202.928 170.723 202.568 170.561C203.324 169.571 203.846 168.077 204.116 166.583ZM197.222 159.635L198.77 159.977C198.104 162.443 197.006 164.801 195.71 166.331C195.458 166.061 194.81 165.539 194.468 165.323C195.728 163.955 196.7 161.831 197.222 159.635ZM195.872 164.261H197.258V169.031C197.258 171.281 197.042 174.395 195.746 176.393C195.494 176.177 194.864 175.781 194.54 175.637C195.764 173.747 195.872 171.065 195.872 169.031V164.261ZM201.164 164.261H202.586V174.629C202.586 175.367 202.424 175.817 201.938 176.069C201.434 176.321 200.696 176.339 199.508 176.339C199.454 175.943 199.202 175.295 199.004 174.899C199.832 174.935 200.606 174.935 200.84 174.917C201.074 174.917 201.164 174.845 201.164 174.611V164.261ZM205.394 161.039H206.924C206.654 163.595 205.952 165.629 203.36 166.781C203.18 166.421 202.784 165.881 202.442 165.629C204.638 164.711 205.16 163.037 205.394 161.039ZM199.94 161.291H200.282L200.498 161.219L201.488 161.849C201.092 162.983 200.408 164.351 199.868 165.215C199.58 164.999 199.094 164.711 198.788 164.567C199.22 163.757 199.706 162.443 199.94 161.561V161.291ZM219.506 171.677L219.02 170.507C220.514 169.967 221.324 169.067 221.324 167.843L221.072 166.223L222.062 167.699C221.792 167.987 221.432 168.095 221.054 168.095C220.244 168.095 219.542 167.591 219.542 166.673C219.542 165.755 220.262 165.233 221.09 165.233C222.206 165.233 222.8 166.115 222.8 167.483C222.8 169.463 221.54 171.029 219.506 171.677ZM36.554 193.645H45.41V195.013H36.554V193.645ZM36.266 196.723H45.752V198.145H36.266V196.723ZM41.99 194.077H43.502V202.033H41.99V194.077ZM38.372 194.149H39.848V197.497C39.848 198.631 39.38 200.989 37.418 202.321C37.184 202.015 36.662 201.547 36.302 201.313C37.994 200.287 38.372 198.451 38.372 197.497V194.149ZM34.376 188.875H39.2V190.027H34.376V188.875ZM42.692 188.875H47.552V190.027H42.692V188.875ZM46.886 186.391H48.56V200.287C48.56 201.223 48.38 201.727 47.786 202.015C47.192 202.303 46.292 202.339 44.906 202.321C44.852 201.871 44.618 201.079 44.384 200.629C45.302 200.665 46.22 200.665 46.508 200.647C46.796 200.647 46.886 200.539 46.886 200.269V186.391ZM34.52 186.391H40.262V192.601H34.52V191.341H38.66V187.651H34.52V186.391ZM47.732 186.391V187.651H43.286V191.377H47.732V192.637H41.666V186.391H47.732ZM33.512 186.391H35.186V202.375H33.512V186.391ZM52.088 186.967H53.654V191.629C53.654 194.473 53.384 198.757 51.728 201.565C51.458 201.259 50.774 200.737 50.414 200.575C51.926 197.965 52.088 194.257 52.088 191.629V186.967ZM58.298 185.815L59.594 187.039C57.632 187.651 54.878 188.065 52.556 188.263C52.484 187.903 52.268 187.327 52.088 186.967C54.284 186.715 56.822 186.301 58.298 185.815ZM61.214 189.073H67.352V190.657H61.214V189.073ZM61.394 185.689L63.104 185.923C62.618 189.487 61.736 192.835 60.26 195.013C60.008 194.689 59.342 194.059 58.964 193.789C60.314 191.899 61.034 188.857 61.394 185.689ZM62.006 190.477C62.816 194.959 64.49 199.027 67.478 200.863C67.064 201.187 66.488 201.889 66.2 202.357C63.104 200.143 61.52 195.805 60.62 190.729L62.006 190.477ZM65.084 189.271L66.524 190.009C65.858 195.679 64.022 200.287 60.134 202.357C59.864 201.925 59.324 201.295 58.892 200.935C62.762 199.135 64.436 194.833 65.084 189.271ZM52.754 189.145H59.252V193.753H52.754V192.349H57.722V190.531H52.754V189.145ZM53.906 199.045H58.838V200.431H53.906V199.045ZM53.222 195.211H59.27V201.205H57.758V196.597H54.698V201.547H53.222V195.211ZM71.366 194.851H82.76V202.339H81.014V196.219H73.022V202.357H71.366V194.851ZM72.338 197.605H81.626V198.883H72.338V197.605ZM70.844 187.093H76.586V188.443H70.844V187.093ZM68.828 189.919H77.036V191.287H68.828V189.919ZM72.338 200.341H81.626V201.727H72.338V200.341ZM72.446 187.525H74.066V189.397C74.066 191.179 73.472 193.627 69.728 195.319C69.494 194.977 69.008 194.455 68.63 194.167C72.158 192.799 72.446 190.747 72.446 189.379V187.525ZM70.772 185.581L72.284 185.887C71.834 187.453 71.006 188.983 70.106 189.973C69.8 189.739 69.134 189.325 68.756 189.163C69.674 188.263 70.376 186.931 70.772 185.581ZM73.688 191.395C74.336 191.719 76.46 192.979 76.982 193.339L75.776 194.455C75.092 193.879 73.346 192.619 72.554 192.115L73.688 191.395ZM79.304 188.569V192.061H82.616V188.569H79.304ZM77.72 187.057H84.29V193.591H77.72V187.057ZM92.768 192.097H94.388V200.665C94.388 201.439 94.226 201.835 93.704 202.069C93.182 202.285 92.372 202.303 91.256 202.303C91.184 201.907 90.95 201.331 90.734 200.953C91.49 200.989 92.228 200.971 92.462 200.971C92.714 200.971 92.768 200.899 92.768 200.665V192.097ZM88.646 192.097H93.65V193.537H88.646V192.097ZM95.882 194.095H97.574V199.999C97.574 200.629 97.718 200.719 98.51 200.719C98.852 200.719 100.598 200.719 101.084 200.719C101.768 200.719 101.894 200.413 101.984 198.577C102.344 198.847 103.028 199.117 103.496 199.207C103.28 201.565 102.812 202.231 101.228 202.231C100.796 202.231 98.708 202.231 98.294 202.231C96.386 202.231 95.882 201.727 95.882 200.017V194.095ZM91.904 187.489L93.29 186.967C94.118 188.245 95.108 189.973 95.558 191.053L94.082 191.683C93.686 190.585 92.714 188.803 91.904 187.489ZM96.908 188.029H102.254V189.505H96.908V188.029ZM96.926 196.093H102.434V197.623H96.926V196.093ZM87.638 191.215C87.548 190.873 87.278 190.081 87.098 189.649C87.404 189.577 87.71 189.325 88.07 188.929C88.43 188.533 89.582 187.093 90.302 185.653L92.03 186.193C91.058 187.759 89.762 189.361 88.628 190.369V190.387C88.628 190.387 87.638 190.891 87.638 191.215ZM87.638 191.215L87.584 189.973L88.43 189.469L94.064 189.055C94.118 189.487 94.262 190.063 94.37 190.405C88.862 190.909 88.124 191.017 87.638 191.215ZM87.836 192.097H89.402V196.381C89.402 198.253 89.186 200.773 87.926 202.411C87.692 202.087 87.062 201.475 86.738 201.259C87.746 199.855 87.836 197.911 87.836 196.363V192.097ZM89.132 198.757C90.176 198.289 91.706 197.497 93.236 196.723L93.56 197.767C92.228 198.631 90.86 199.495 89.672 200.197L89.132 198.757ZM89.402 195.139L90.284 194.347C91.148 194.887 92.282 195.679 92.876 196.165L91.958 197.083C91.4 196.561 90.266 195.733 89.402 195.139ZM95.882 185.689H97.574V191.179C97.574 191.827 97.7 192.061 98.276 192.061C98.762 192.061 100.796 192.061 101.318 192.061C101.786 192.061 102.524 192.025 102.902 191.935C102.92 192.385 102.992 193.015 103.046 193.411C102.722 193.501 102.02 193.537 101.354 193.537C100.832 193.537 98.636 193.537 98.24 193.537C96.404 193.537 95.882 192.889 95.882 191.125V185.689ZM110.786 188.929L112.604 189.289C111.326 191.125 109.49 192.799 106.79 194.077C106.556 193.681 106.034 193.105 105.656 192.835C108.176 191.791 109.886 190.297 110.786 188.929ZM110.966 190.225H116.852V191.521H109.778L110.966 190.225ZM116.348 190.225H116.672L116.978 190.135L118.13 190.837C115.7 194.689 110.426 196.885 105.386 197.857C105.224 197.425 104.864 196.723 104.558 196.345C109.31 195.571 114.368 193.537 116.348 190.477V190.225ZM110.228 191.215C112.316 193.771 116.618 195.373 121.442 195.931C121.064 196.327 120.596 197.065 120.362 197.551C115.466 196.831 111.218 194.977 108.734 191.881L110.228 191.215ZM108.014 196.777H118.112V202.321H116.366V198.199H109.688V202.357H108.014V196.777ZM108.968 200.359H117.248V201.781H108.968V200.359ZM105.314 187.219H120.668V190.873H118.94V188.767H106.988V190.873H105.314V187.219ZM111.596 185.887L113.27 185.473C113.738 186.193 114.296 187.201 114.566 187.849L112.802 188.317C112.568 187.687 112.028 186.661 111.596 185.887ZM124.484 186.301H128.606V187.885H124.484V186.301ZM124.484 190.459H128.66V192.043H124.484V190.459ZM131.504 192.529H137.948V194.095H131.504V192.529ZM124.448 194.725H128.606V196.327H124.448V194.725ZM123.8 186.301H125.348V192.817C125.348 195.661 125.168 199.729 123.908 202.393C123.602 202.141 122.918 201.745 122.522 201.601C123.71 199.099 123.8 195.463 123.8 192.817V186.301ZM127.652 186.301H129.236V200.431C129.236 201.277 129.074 201.781 128.57 202.051C128.048 202.339 127.31 202.375 126.104 202.357C126.05 201.943 125.852 201.169 125.636 200.737C126.392 200.755 127.112 200.755 127.328 200.737C127.562 200.737 127.652 200.665 127.652 200.413V186.301ZM136.868 186.337H138.506V189.829C138.506 190.621 138.344 191.053 137.696 191.287C137.066 191.521 136.094 191.521 134.726 191.521C134.654 191.053 134.42 190.477 134.204 190.081C135.212 190.117 136.22 190.117 136.508 190.099C136.796 190.081 136.868 190.027 136.868 189.811V186.337ZM137.48 192.529H137.768L138.038 192.475L139.046 192.817C138.182 197.461 136.004 200.593 133.142 202.303C132.944 201.925 132.494 201.331 132.152 201.043C134.708 199.693 136.778 196.633 137.48 192.835V192.529ZM133.772 193.537C134.762 196.849 136.796 199.747 139.568 201.079C139.208 201.385 138.74 201.979 138.488 202.375C135.572 200.809 133.556 197.659 132.422 193.897L133.772 193.537ZM130.568 186.337H137.3V187.921H132.17V202.357H130.568V186.337ZM140.846 196.543V194.995H145.598V196.543H140.846ZM156.748 193.033H158.494V199.675C158.494 200.341 158.62 200.449 159.268 200.449C159.556 200.449 160.906 200.449 161.302 200.449C161.986 200.449 162.094 199.981 162.166 197.281C162.544 197.587 163.282 197.893 163.75 198.001C163.57 201.169 163.138 202.051 161.446 202.051C161.05 202.051 159.394 202.051 159.016 202.051C157.216 202.051 156.748 201.493 156.748 199.693V193.033ZM147.442 191.989H163.444V193.645H147.442V191.989ZM149.044 187.003H161.86V188.641H149.044V187.003ZM151.834 193.267H153.652C153.364 197.263 152.608 200.557 148.216 202.321C148.018 201.907 147.532 201.277 147.154 200.953C151.114 199.477 151.6 196.633 151.834 193.267ZM174.856 194.491H176.566V199.819C176.566 200.377 176.674 200.467 177.304 200.467C177.592 200.467 178.906 200.467 179.284 200.467C179.896 200.467 179.986 200.125 180.058 197.875C180.418 198.163 181.156 198.433 181.624 198.559C181.444 201.349 180.976 202.087 179.428 202.087C179.05 202.087 177.448 202.087 177.088 202.087C175.288 202.087 174.856 201.547 174.856 199.819V194.491ZM165.478 193.267H181.408V194.923H165.478V193.267ZM168.448 188.299H180.058V189.937H168.448V188.299ZM170.032 194.545H171.814C171.472 198.109 170.572 200.917 166.288 202.465C166.09 202.015 165.604 201.331 165.208 200.989C169.114 199.765 169.744 197.425 170.032 194.545ZM168.628 186.013L170.356 186.355C169.798 188.443 168.862 190.981 167.62 192.583C167.224 192.313 166.54 191.953 166.126 191.791C167.332 190.297 168.214 187.867 168.628 186.013ZM172.57 185.653H174.298V193.789H172.57V185.653ZM186.178 189.055H198.67V190.711H186.178V189.055ZM185.404 194.347H198.004V195.985H185.404V194.347ZM183.388 200.161H199.552V201.817H183.388V200.161ZM190.57 185.653H192.352V200.971H190.57V185.653ZM186.484 185.923L188.23 186.319C187.456 189.109 186.16 191.809 184.738 193.537C184.396 193.249 183.64 192.745 183.208 192.511C184.648 190.945 185.818 188.461 186.484 185.923ZM209.488 186.877H217.642V188.029H209.488V186.877ZM212.098 188.929H217.03V189.937H212.098V188.929ZM210.82 191.161H217.498V192.169H210.82V191.161ZM213.52 189.685H214.996V191.701H213.52V189.685ZM212.35 185.599L213.646 185.797C213.07 188.281 211.918 190.315 210.244 191.611C210.082 191.359 209.632 190.837 209.362 190.585C210.856 189.487 211.882 187.723 212.35 185.599ZM215.518 192.889H216.814V198.775C216.814 199.387 216.706 199.693 216.274 199.873C215.86 200.071 215.23 200.071 214.258 200.071C214.204 199.747 214.042 199.297 213.88 198.991C214.492 199.009 215.104 199.009 215.284 199.009C215.464 199.009 215.518 198.955 215.518 198.775V192.889ZM211.414 192.889H216.166V193.915H211.414V192.889ZM210.82 192.889H212.098V195.409C212.098 196.813 211.918 198.721 210.964 199.981C210.73 199.783 210.154 199.387 209.866 199.261C210.73 198.109 210.82 196.579 210.82 195.373V192.889ZM211.918 197.155C212.998 196.939 214.474 196.579 216.022 196.219L216.13 197.173C214.798 197.641 213.52 198.055 212.404 198.397L211.918 197.155ZM212.314 195.013L212.944 194.167C213.754 194.563 214.708 195.031 215.212 195.409L214.582 196.381C214.06 195.985 213.088 195.391 212.314 195.013ZM201.73 186.373H205.69V187.903H203.098V202.321H201.73V186.373ZM205.186 186.373H205.438L205.654 186.319L206.626 186.877C206.194 188.353 205.618 190.189 205.096 191.629C206.194 193.141 206.446 194.437 206.446 195.535C206.446 196.543 206.248 197.317 205.762 197.695C205.528 197.893 205.24 198.001 204.898 198.037C204.574 198.073 204.196 198.073 203.818 198.073C203.8 197.695 203.674 197.137 203.476 196.759C203.8 196.795 204.088 196.795 204.322 196.795C204.502 196.777 204.682 196.723 204.808 196.633C205.024 196.435 205.132 195.949 205.114 195.391C205.114 194.437 204.88 193.213 203.8 191.791C204.34 190.153 204.898 187.993 205.186 186.787V186.373ZM206.662 186.355L207.94 185.959C208.444 186.841 209.02 187.993 209.29 188.749L207.958 189.217C207.706 188.443 207.13 187.237 206.662 186.355ZM206.356 189.793H208.876V191.251H206.356V189.793ZM208.768 197.911C209.65 200.323 211.432 200.719 213.952 200.719C215.104 200.719 216.778 200.665 217.948 200.539C217.732 200.881 217.552 201.601 217.48 202.033C216.436 202.105 215.086 202.123 213.898 202.123C210.748 202.123 208.84 201.511 207.706 198.361L208.768 197.911ZM208.444 194.131H208.984L209.236 194.077L209.83 194.347C209.326 198.307 208.03 200.989 206.176 202.411C205.978 202.087 205.492 201.547 205.186 201.313C206.914 200.071 208.048 197.713 208.444 194.383V194.131ZM206.86 195.805V194.473L207.562 194.131H209.11V195.535H207.832C207.49 195.535 207.004 195.661 206.86 195.805ZM206.86 195.805C206.77 195.463 206.482 194.797 206.32 194.491C206.59 194.419 206.806 194.311 207.004 193.933C207.292 193.465 208.174 190.855 208.48 189.883V189.829L208.876 189.667L209.866 189.937C209.416 191.143 208.516 193.717 207.922 194.869C207.922 194.869 206.86 195.427 206.86 195.805ZM226.084 191.287H235.192V192.781H226.084V191.287ZM225.382 187.705H235.732V189.217H225.382V187.705ZM225.436 194.509H235.66V196.021H225.436V194.509ZM229.72 185.635H231.394V192.133H229.72V185.635ZM232.042 192.547H233.716V200.467C233.716 201.349 233.518 201.817 232.906 202.069C232.276 202.321 231.34 202.339 229.936 202.339C229.864 201.889 229.612 201.205 229.378 200.755C230.386 200.791 231.376 200.791 231.664 200.773C231.952 200.773 232.042 200.701 232.042 200.431V192.547ZM226.372 197.263L227.776 196.471C228.586 197.371 229.594 198.649 230.062 199.477L228.55 200.377C228.136 199.549 227.182 198.199 226.372 197.263ZM220.504 186.805H225.058V198.847H220.504V197.317H223.474V188.335H220.504V186.805ZM220.576 191.989H224.23V193.501H220.576V191.989ZM219.694 186.805H221.278V200.377H219.694V186.805ZM246.172 191.053H249.862V192.367H246.172V191.053ZM244.804 196.291H250.906V197.479H244.804V196.291ZM238.846 186.355H243.85V187.723H238.846V186.355ZM243.4 186.355H243.688L243.958 186.301L245.02 186.823C243.688 189.901 240.772 191.935 237.802 192.979C237.586 192.619 237.172 192.025 236.884 191.737C239.584 190.909 242.356 189.001 243.4 186.625V186.355ZM246.658 185.707C247.918 188.443 250.546 190.585 253.894 191.467C253.534 191.791 253.102 192.385 252.868 192.799C249.394 191.701 246.748 189.325 245.29 186.121L246.658 185.707ZM249.916 185.779L251.158 186.643C250.294 187.435 249.232 188.245 248.422 188.803L247.432 188.029C248.206 187.453 249.304 186.481 249.916 185.779ZM252.148 187.579L253.39 188.443C252.526 189.235 251.428 190.045 250.6 190.585L249.574 189.811C250.384 189.235 251.518 188.263 252.148 187.579ZM239.638 191.125H244.012V195.373H242.482V192.439H239.638V191.125ZM239.062 194.077H240.466C240.286 195.463 240.052 197.155 239.836 198.235H238.396C238.648 197.119 238.9 195.409 239.062 194.077ZM242.482 196.957H244.03C244.03 196.957 244.012 197.371 243.976 197.587C243.778 200.071 243.562 201.187 243.112 201.637C242.752 201.997 242.374 202.123 241.798 202.159C241.312 202.195 240.376 202.195 239.386 202.141C239.368 201.691 239.17 201.097 238.9 200.701C239.854 200.773 240.808 200.791 241.15 200.791C241.474 200.791 241.672 200.773 241.816 200.629C242.122 200.377 242.32 199.423 242.482 197.173V196.957ZM245.542 191.053H246.982V192.439C246.982 193.681 246.604 195.103 245.002 196.075C244.786 195.769 244.228 195.211 243.922 195.013C245.326 194.239 245.542 193.267 245.542 192.403V191.053ZM250.546 196.291H250.852L251.122 196.237L252.058 196.579C250.852 199.891 248.026 201.565 244.624 202.375C244.48 202.015 244.156 201.457 243.886 201.133C246.928 200.557 249.574 199.045 250.546 196.489V196.291ZM239.692 194.077H243.022V195.373H239.458L239.692 194.077ZM239.17 196.957H242.914V198.235H238.918L239.17 196.957ZM238.324 188.803L239.296 187.903C240.088 188.335 241.078 189.001 241.564 189.487L240.538 190.513C240.088 190.009 239.116 189.289 238.324 188.803ZM249.088 191.053H250.51V193.825C250.51 194.257 250.546 194.383 250.798 194.383C250.996 194.383 251.734 194.383 251.932 194.383C252.184 194.383 252.616 194.365 252.832 194.311C252.85 194.653 252.886 195.157 252.94 195.481C252.706 195.571 252.328 195.571 251.968 195.571C251.716 195.571 250.87 195.571 250.618 195.571C249.34 195.571 249.088 195.067 249.088 193.807V191.053ZM244.678 198.361L245.488 197.407C247.63 198.541 250.636 200.233 252.166 201.277L251.302 202.393C249.844 201.349 246.874 199.567 244.678 198.361ZM260.662 194.365H266.8V199.819H260.662V198.415H265.198V195.787H260.662V194.365ZM259.924 194.365H261.508V200.881H259.924V194.365ZM256.81 189.001H261.598V190.207H256.81V189.001ZM265.126 189.001H269.986V190.207H265.126V189.001ZM269.248 186.391H270.976V200.215C270.976 201.259 270.742 201.763 270.094 202.051C269.41 202.339 268.33 202.357 266.71 202.357C266.656 201.889 266.368 201.079 266.116 200.629C267.25 200.683 268.456 200.665 268.798 200.647C269.14 200.647 269.248 200.539 269.248 200.197V186.391ZM256.936 186.391H262.678V192.907H256.936V191.575H261.076V187.723H256.936V186.391ZM270.166 186.391V187.723H265.738V191.611H270.166V192.925H264.118V186.391H270.166ZM255.982 186.391H257.674V202.375H255.982V186.391ZM280.696 196.381L280.282 189.757L280.21 187.381H282.64L282.568 189.757L282.154 196.381H280.696ZM281.434 200.971C280.66 200.971 280.084 200.431 280.084 199.621C280.084 198.793 280.678 198.235 281.434 198.235C282.172 198.235 282.766 198.793 282.766 199.621C282.766 200.431 282.172 200.971 281.434 200.971Z" fill="white"/>
<g clip-path="url(#clip0_1230_14607)">
<path d="M450.264 203.135L461.67 185.209L501.947 296.146H491.055L450.264 203.135Z" fill="url(#paint2_linear_1230_14607)"/>
<path d="M414.173 185.209H461.956L450.265 203.594H384.963L414.173 185.209Z" fill="url(#paint3_linear_1230_14607)"/>
<path d="M384.963 203.594H450.55L491.043 295.98H454.684L384.963 203.594Z" fill="url(#paint4_linear_1230_14607)"/>
<path fill-rule="evenodd" clip-rule="evenodd" d="M398.753 156.982C394.91 156.982 392.662 161.314 394.876 164.456L401.619 174.031C402.508 175.292 403.954 176.043 405.497 176.043H423.411C423.539 176.753 423.99 177.413 424.817 177.766L428.684 179.416C430.503 180.192 432.417 178.531 431.905 176.621L431.75 176.043H433.093C436.497 176.043 438.793 172.563 437.453 169.434L433.355 159.859C432.608 158.114 430.893 156.982 428.995 156.982H398.753Z" fill="url(#paint5_linear_1230_14607)"/>
<path fill-rule="evenodd" clip-rule="evenodd" d="M397.075 158.332C393.232 158.332 390.985 162.664 393.198 165.806L399.942 175.381C400.83 176.642 402.276 177.392 403.819 177.392H420.742C421.316 177.392 421.78 177.832 422.11 178.302C422.346 178.637 422.687 178.923 423.14 179.116L427.006 180.766C428.825 181.542 430.739 179.881 430.227 177.971C430.149 177.679 430.369 177.392 430.671 177.392H431.415C434.819 177.392 437.115 173.913 435.776 170.783L431.678 161.209C430.931 159.464 429.215 158.332 427.317 158.332H397.075Z" fill="url(#paint6_linear_1230_14607)" fill-opacity="0.95"/>
<path d="M426.578 166.933C427.803 168.293 427.85 169.84 426.685 170.389C425.519 170.937 423.581 170.278 422.356 168.918C421.132 167.557 421.084 166.01 422.249 165.462C423.415 164.913 425.353 165.572 426.578 166.933Z" fill="white"/>
<path d="M417.861 166.933C419.086 168.293 419.134 169.84 417.968 170.389C416.802 170.937 414.864 170.278 413.639 168.918C412.415 167.557 412.367 166.01 413.533 165.462C414.698 164.913 416.636 165.572 417.861 166.933Z" fill="white"/>
<path d="M408.568 166.933C409.793 168.293 409.841 169.84 408.675 170.389C407.509 170.937 405.571 170.278 404.347 168.918C403.122 167.557 403.074 166.01 404.24 165.462C405.405 164.913 407.343 165.572 408.568 166.933Z" fill="white"/>
<path d="M577.793 202.624L566.901 185.209L526.13 315.918L536.364 322.529L577.793 202.624Z" fill="url(#paint7_linear_1230_14607)"/>
<path d="M612.259 185.209H566.63L577.795 203.07H640.152L612.259 185.209Z" fill="url(#paint8_linear_1230_14607)" fill-opacity="0.8"/>
<path d="M640.152 203.07H577.522L537.027 318.57H561.565L640.152 203.07Z" fill="url(#paint9_linear_1230_14607)"/>
<path d="M582.688 162.417C584.005 158.526 587.677 155.925 591.785 155.974L614.578 156.242C621.981 156.329 626.435 164.483 622.508 170.759L620.316 174.261C618.582 177.032 615.544 178.715 612.275 178.715H590.397C583.904 178.715 579.33 172.338 581.412 166.188L582.688 162.417Z" fill="#0051AF"/>
<path d="M584.32 164.023C585.622 160.128 589.283 157.514 593.39 157.546L615.294 157.716C622.7 157.773 627.186 165.917 623.278 172.207L621.523 175.032C619.792 177.818 616.745 179.512 613.465 179.512H592.315C585.836 179.512 581.264 173.162 583.319 167.018L584.32 164.023Z" fill="url(#paint10_linear_1230_14607)"/>
<path opacity="0.8" d="M618.528 161.329H622.779L614 176.544L609.748 176.544L618.528 161.329Z" fill="white"/>
<path opacity="0.8" d="M607.907 167.85H611.922L607.249 176.544L603.234 176.544L607.907 167.85Z" fill="white"/>
<path opacity="0.8" d="M596.297 162.027C594.829 161.928 593.271 162.251 591.824 162.954C590.377 163.658 589.109 164.71 588.183 165.973C587.258 167.237 586.718 168.654 586.634 170.04C586.55 171.427 586.925 172.719 587.711 173.75C588.497 174.78 589.658 175.501 591.043 175.82C592.427 176.138 593.972 176.038 595.477 175.534C596.982 175.03 598.377 174.145 599.482 172.993C600.586 171.841 601.349 170.475 601.672 169.073L594.234 169.006L596.297 162.027Z" fill="white"/>
<path d="M598.181 161.034C600.042 161.159 601.632 161.958 602.624 163.266C603.615 164.575 603.933 166.295 603.513 168.072L596.124 167.972L598.181 161.034Z" fill="white"/>
<path d="M447.22 191.636L464.148 156.44H560.077L579.61 191.636H447.22Z" fill="url(#paint11_linear_1230_14607)" stroke="url(#paint12_linear_1230_14607)" stroke-width="0.797097"/>
<path d="M475.129 159.938H550.419L563.58 186.872H463.805L475.129 159.938Z" fill="url(#paint13_linear_1230_14607)"/>
<path d="M483.485 311.37L447.81 192.679H579.086L545.772 311.37H483.485Z" fill="url(#paint14_linear_1230_14607)" stroke="#BBFBFF" stroke-width="1.82065"/>
<path d="M467.783 177.077H558.683L563.886 186.871H463.805L467.783 177.077Z" fill="url(#paint15_linear_1230_14607)"/>
<path d="M555.316 138.819L569.089 166.06L563.886 187.179L550.113 159.938L555.316 138.819Z" fill="url(#paint16_linear_1230_14607)"/>
<path d="M472.988 137.289L458.297 168.202L463.806 186.873L475.13 159.938L472.988 137.289Z" fill="url(#paint17_linear_1230_14607)"/>
<g clip-path="url(#clip1_1230_14607)">
<path d="M440.189 121.69L440.848 122.333C446.946 128.232 479.057 158.299 483.236 162.211C483.527 162.485 483.684 162.63 483.684 162.63L490.017 140.93C490.017 140.93 469.588 122.084 454.472 108.193C453.896 107.682 453.029 107.559 452.299 107.899C449.459 109.215 442.696 113.096 440.171 118.946C440.03 119.275 439.901 119.606 439.788 119.946C439.583 120.563 439.73 121.225 440.189 121.69Z" fill="#252533"/>
<path d="M440.189 121.692L440.848 122.335L483.236 164V156.921L445.175 119.422L440.171 118.948C440.03 119.277 439.901 119.608 439.788 119.948C439.583 120.564 439.73 121.227 440.189 121.692Z" fill="#131516"/>
<path d="M447.827 114.824C444.297 118.205 440.396 120.295 439.118 119.492C437.837 118.69 439.664 115.298 443.194 111.917C446.724 108.536 450.625 106.446 451.902 107.249C453.183 108.051 451.357 111.443 447.827 114.824Z" fill="white"/>
<path d="M447.793 114.867C444.698 117.831 441.284 119.661 440.163 118.959C439.041 118.256 440.641 115.284 443.736 112.32C446.828 109.356 450.244 107.526 451.366 108.228C452.487 108.931 450.888 111.903 447.793 114.867Z" fill="#88999D"/>
<path d="M424.713 95.9152C425.774 97.7141 431.372 104.918 433.112 107.328C434.363 109.058 435.637 110.138 436.9 110.76C437.225 110.92 437.534 111.103 437.831 111.303L441.784 115.257L445.532 118.875L452.672 111.023L453.459 110.158L453.159 109.872L452.374 109.133L449.515 106.266C450.665 104.179 450.324 101.951 450.698 100.238C451.538 96.3978 455.031 92.0262 451.964 92.0462C448.599 92.0662 446.166 97.8797 446.166 97.8797C446.166 97.8797 444.086 93.9822 442.422 87.9774C440.877 82.3952 437.543 84.1826 438.236 87.5491C438.999 91.2439 440.66 94.8645 440.66 94.8645L439.995 95.1129C439.995 95.1129 438.015 92.7544 435.858 86.8352C434.173 82.2153 430.269 84.3568 431.982 88.3057C433.256 91.2467 436.223 96.1808 436.223 96.1808L435.781 96.3892C435.781 96.3892 433.177 93.0799 431.139 88.4085C429.543 84.7451 425.816 86.5268 427.143 89.7391C428.47 92.9514 432.147 99.1075 432.147 99.1075L431.605 99.3188C431.605 99.3188 429.659 97.2943 427.912 94.3533C425.599 90.4587 422.749 92.5945 424.713 95.9152Z" fill="#FFB287"/>
<path d="M441.783 115.257L445.531 118.874L452.671 111.022L453.158 109.871L453.345 109.429L452.603 108.795C452.603 108.795 452.523 108.918 452.373 109.132C451.405 110.491 447.452 115.479 441.802 115.234L441.783 115.257Z" fill="#ED8366"/>
<path opacity="0.64" d="M446.17 97.8789C446.17 97.8789 446.143 97.9103 446.094 97.9703C446.042 98.0331 445.962 98.1216 445.861 98.2387C445.766 98.3529 445.653 98.4928 445.524 98.6527C445.398 98.8126 445.26 98.9982 445.119 99.2009C445.046 99.3009 444.972 99.4065 444.905 99.5207C444.831 99.6321 444.758 99.7463 444.681 99.8634C444.546 100.109 444.384 100.354 444.255 100.629C444.188 100.763 444.117 100.897 444.047 101.037C443.986 101.18 443.924 101.322 443.86 101.465L443.762 101.682L443.682 101.905L443.52 102.353C443.416 102.653 443.348 102.964 443.25 103.261C443.192 103.567 443.125 103.869 443.06 104.164C443.023 104.46 442.978 104.746 442.935 105.023C442.907 105.16 442.91 105.294 442.898 105.426C442.886 105.557 442.876 105.683 442.864 105.805C442.846 106.048 442.812 106.274 442.818 106.473C442.818 106.673 442.806 106.85 442.8 106.993C442.784 107.284 442.766 107.456 442.766 107.456C442.766 107.456 442.705 107.299 442.619 107.016C442.576 106.876 442.521 106.702 442.469 106.502C442.405 106.302 442.371 106.074 442.337 105.822C442.306 105.571 442.248 105.297 442.248 105.006C442.248 104.715 442.239 104.403 442.248 104.084C442.285 103.764 442.325 103.435 442.377 103.098C442.46 102.77 442.536 102.43 442.644 102.102C442.775 101.779 442.87 101.445 443.042 101.143C443.122 100.991 443.198 100.837 443.278 100.689C443.364 100.543 443.456 100.403 443.547 100.266C443.716 99.9833 443.937 99.7463 444.12 99.5093C444.326 99.2837 444.516 99.0724 444.718 98.8983C444.819 98.8097 444.908 98.7212 445.003 98.647C445.101 98.5728 445.19 98.5042 445.279 98.4386C445.45 98.3072 445.613 98.2073 445.745 98.1273C445.879 98.0445 445.984 97.9931 446.057 97.956C446.134 97.916 446.177 97.8932 446.177 97.8932L446.17 97.8789Z" fill="#ED8366"/>
<path d="M453.792 108.964L451.962 107.279C451.969 107.296 451.825 107.299 451.831 107.316C452.189 108.596 450.62 111.434 447.513 114.275C443.775 117.693 440.288 120.211 439.01 119.409L441.032 121.093C442.313 121.896 446.294 119.629 449.824 116.248C453.354 112.867 454.751 109.829 453.795 108.964H453.792Z" fill="white"/>
<path d="M548.375 189.211C546.53 190.228 541.107 192.002 532.534 191.095L532.901 155.628L526.347 139.65L527.692 135.258C527.692 135.258 524.124 132.888 527.198 133.449C530.46 134.046 533.217 135.82 537.947 139.787C541.444 142.719 546.204 148.026 546.897 159.869C547.269 166.166 549.318 183.511 549.349 187.646C549.349 188.278 548.987 188.875 548.37 189.216L548.375 189.211Z" fill="#252533"/>
<path d="M533.988 192.755L537.153 192.777L535.39 152.414L533.907 191.848C533.886 192.18 533.917 192.485 533.993 192.755H533.988Z" fill="#272735"/>
<path d="M537.014 143.141L534.578 164.401L527.76 153.84L522.857 146.241L519.857 141.596C519.857 141.596 519.906 141.544 520.001 141.456C520.743 140.751 524.245 137.633 528.388 137.536C531.189 137.47 534.284 138.78 537.014 143.141Z" fill="#252533"/>
<path d="M515.955 142.708H504.985C491.138 142.708 483.529 154.309 483.529 167.213H538.291C538.291 154.309 529.803 142.708 515.955 142.708Z" fill="#252533"/>
<path d="M526.81 199.806H494.225V153.958C494.225 147.391 499.936 142.068 506.984 142.068H514.05C521.098 142.068 526.81 147.391 526.81 153.958V199.806Z" fill="white"/>
<path d="M499.482 151.72C499.482 151.72 499.252 193.765 500.861 199.476C502.452 205.121 495.729 200.927 495.729 200.927L496.547 145.11L499.482 151.72Z" fill="#CEBABA"/>
<path d="M521.663 151.722C521.663 151.722 521.893 193.767 520.284 199.478C518.694 205.123 525.417 200.928 525.417 200.928L524.599 146.445L521.663 151.722Z" fill="#CEBABA"/>
<path d="M516.519 191.929L512.103 156.914C512.29 156.774 512.462 156.606 512.606 156.409L514.775 153.439C515.713 152.157 515.247 150.404 513.776 149.676L513.715 149.647C511.714 148.657 509.315 148.657 507.314 149.647L507.252 149.676C505.785 150.404 505.319 152.157 506.254 153.439L508.423 156.409C508.588 156.634 508.785 156.82 509.002 156.971L504.596 191.929C504.556 192.169 504.639 192.412 504.819 192.589L509.946 197.589C510.277 197.911 510.832 197.911 511.162 197.589L516.289 192.589C516.47 192.415 516.553 192.169 516.513 191.929H516.519Z" fill="#CEBABA"/>
<path d="M510.562 139.221C501.492 139.221 491.726 146.111 503.187 156.607L510.562 149.06L517.938 156.607C529.398 146.108 519.633 139.221 510.562 139.221Z" fill="#CEBABA"/>
<path d="M514.819 150.98L512.647 153.95C511.645 155.323 509.472 155.323 508.47 153.95L506.3 150.98C505.363 149.701 505.829 147.945 507.296 147.217L507.358 147.188C509.359 146.198 511.758 146.198 513.759 147.188L513.82 147.217C515.288 147.945 515.754 149.701 514.819 150.98Z" fill="#F93E3E"/>
<path d="M514.819 150.98C514.819 150.98 512.659 148.365 510.514 148.365C508.369 148.365 506.3 150.98 506.3 150.98C505.363 149.701 505.829 147.945 507.296 147.217L507.358 147.188C509.359 146.198 511.758 146.198 513.759 147.188L513.82 147.217C515.288 147.945 515.754 149.701 514.819 150.98Z" fill="#BA3131"/>
<path d="M541.137 206.716L529.827 205.859C525.776 205.859 522.494 201.665 522.494 196.488L522.715 158.286H538.293L541.137 206.716Z" fill="#252533"/>
<path d="M498.545 157.996V196.44C498.545 201.617 494.803 205.812 490.186 205.812L480.469 206.668L483.533 157.996L485.142 149.964L498.545 157.996Z" fill="#252533"/>
<path d="M489.323 148.491C488.882 149.422 489.247 150.567 490.013 151.218L494.729 155.224L490.335 158.708C489.559 159.322 489.146 160.318 489.234 161.338C489.572 165.201 492.351 175.709 498.544 186.776L498.565 184.103L498.06 148.186C498.06 148.186 497.018 139.289 509.364 139.289C509.364 139.289 494.376 137.807 489.32 148.494L489.323 148.491Z" fill="#131516"/>
<path d="M530.424 158.709C531.171 159.323 531.57 160.317 531.484 161.339C531.162 165.202 527.889 176.704 522.499 186.777L522.478 182.277L522.965 148.185C522.965 148.185 523.057 147.374 522.858 146.24C522.607 144.827 521.905 142.917 520.002 141.455C520.744 140.749 524.246 137.631 528.389 137.534C527.188 141.535 527.123 142.688 528.499 144.061C529.618 145.181 530.65 146.848 531.401 148.493C531.827 149.424 531.475 150.569 530.736 151.22L527.761 153.838L526.183 155.226L530.424 158.709Z" fill="#131516"/>
<path d="M484.006 143.138L486.442 164.399L493.26 153.837L498.163 146.239L501.163 141.593C501.163 141.593 501.114 141.542 501.019 141.453C500.277 140.748 496.775 137.63 492.632 137.533C489.831 137.467 486.736 138.778 484.006 143.138Z" fill="#252533"/>
<path d="M490.597 158.709C489.849 159.323 489.451 160.317 489.537 161.339C489.858 165.202 493.131 176.704 498.521 186.777L498.542 182.277L498.055 148.185C498.055 148.185 497.963 147.374 498.163 146.24C498.414 144.827 499.116 142.917 501.018 141.455C500.277 140.749 496.774 137.631 492.632 137.534C493.833 141.535 493.897 142.688 492.521 144.061C491.403 145.181 490.37 146.848 489.619 148.493C489.193 149.424 489.546 150.569 490.284 151.22L493.26 153.838L494.838 155.226L490.597 158.709Z" fill="#131516"/>
<path d="M529.704 156.383L525.617 152.959L530.005 149.022C530.719 148.382 531.105 147.234 530.645 146.34C523.901 133.214 511.996 136.432 511.996 136.432C522.522 136.926 522.513 146.038 522.513 146.038L522.473 183.534C527.507 172.972 530.412 162.77 530.725 158.97C530.808 157.964 530.422 156.985 529.701 156.383H529.704Z" fill="#323244"/>
<path d="M491.308 156.383L495.396 152.959L491.008 149.022C490.294 148.382 489.908 147.234 490.367 146.34C497.112 133.214 509.016 136.432 509.016 136.432C498.491 136.926 498.5 146.038 498.5 146.038L498.54 183.534C493.505 172.972 490.6 162.77 490.288 158.97C490.205 157.964 490.591 156.985 491.311 156.383H491.308Z" fill="#323244"/>
<path d="M510.559 136.096C501.136 136.096 490.987 143.254 502.895 154.161L510.559 146.321L518.223 154.161C530.13 143.254 519.985 136.096 510.559 136.096Z" fill="white"/>
<path d="M502.259 140.322C502.259 143.643 505.737 146.333 510.251 146.333C514.764 146.333 518.423 143.643 518.423 140.322V133.304H502.256V140.322H502.259Z" fill="#FFB287"/>
<path d="M502.259 138.505C502.259 141.261 505.737 143.493 510.251 143.493C514.764 143.493 518.423 141.261 518.423 138.505V127.975H502.256V138.505H502.259Z" fill="#F58D6C"/>
<path d="M516.293 190.987L511.166 195.989C510.835 196.312 510.281 196.312 509.95 195.989L504.823 190.987C504.643 190.812 504.56 190.57 504.6 190.327L508.709 156.474L508.951 154.481L509.04 153.75H512.08L512.168 154.481L512.469 156.965C512.469 156.965 512.472 156.968 512.472 156.971L516.517 190.327C516.556 190.57 516.474 190.812 516.293 190.987Z" fill="#F93E3E"/>
<path d="M494.814 90.25C494.9 90.4213 494.98 90.6069 495.057 90.8068C494.958 90.6241 494.879 90.4385 494.814 90.25Z" fill="#993E39"/>
<path opacity="0.48" d="M512.472 156.969C512.472 156.969 512.472 156.966 512.469 156.964C512.202 156.124 511.648 155.453 510.59 155.453C509.711 155.453 509.098 155.753 508.709 156.473L508.951 154.479C508.951 154.479 509.824 155.099 510.538 155.099C511.252 155.099 512.169 154.479 512.169 154.479L512.472 156.969Z" fill="#BA3131"/>
<g clip-path="url(#clip2_1230_14607)">
<path d="M568.073 89.3491C568.073 96.8798 566.598 104.337 563.733 111.294C560.868 118.252 556.668 124.573 551.374 129.898C546.08 135.223 539.795 139.447 532.878 142.328C525.961 145.21 518.547 146.693 511.061 146.692C503.574 146.693 496.16 145.21 489.244 142.328C482.327 139.447 476.042 135.223 470.748 129.898C465.454 124.573 461.255 118.252 458.39 111.294C455.525 104.337 454.051 96.8797 454.051 89.3491C454.051 81.8181 455.525 74.361 458.39 67.4032C461.255 60.4454 465.454 54.1234 470.748 48.798C476.042 43.4726 482.326 39.2483 489.243 36.3661C496.16 33.4839 503.574 32.0003 511.061 32C518.548 32 525.961 33.4833 532.879 36.3654C539.796 39.2475 546.081 43.4719 551.375 48.7973C556.669 54.1226 560.868 60.4448 563.733 67.4027C566.598 74.3606 568.073 81.818 568.073 89.3491Z" fill="white"/>
<path d="M486.744 91.1401V91.1157C486.822 90.9294 486.859 90.7282 486.853 90.5259C486.855 90.3142 486.816 90.104 486.737 89.9078C486.659 89.7116 486.543 89.5332 486.395 89.3828C486.248 89.2325 486.073 89.1134 485.88 89.0322C485.687 88.9511 485.48 88.9096 485.271 88.9102H455.634C455.426 88.9094 455.22 88.9501 455.028 89.0303C454.835 89.1104 454.661 89.2285 454.513 89.3774C454.366 89.5263 454.25 89.703 454.17 89.8977C454.091 90.0924 454.05 90.3012 454.051 90.5119V90.5644C454.433 104.584 459.843 117.983 469.27 128.254C469.281 128.264 469.294 128.272 469.308 128.278C469.453 128.432 469.628 128.554 469.821 128.637C470.014 128.72 470.222 128.763 470.432 128.763C470.747 128.763 471.054 128.669 471.316 128.492C471.578 128.316 471.782 128.065 471.904 127.771L486.744 91.1401ZM537.026 138.729C537.012 138.713 537.005 138.692 537.006 138.67L519.128 94.5295C519.113 94.506 519.103 94.4787 519.102 94.4506C518.456 92.8212 517.342 91.4255 515.906 90.4433C514.469 89.4612 512.775 88.9375 511.042 88.9403C509.416 88.9387 507.822 89.4006 506.443 90.2732C505.064 91.1458 503.955 92.3939 503.243 93.8749L485.083 138.683C485.005 138.88 484.965 139.09 484.968 139.303C484.97 139.584 485.045 139.86 485.185 140.103C485.324 140.346 485.525 140.547 485.765 140.688C485.777 140.712 485.799 140.712 485.835 140.739C493.676 144.662 502.306 146.699 511.052 146.689C519.797 146.703 528.426 144.668 536.267 140.745C536.283 140.738 536.296 140.727 536.306 140.713C536.561 140.578 536.774 140.375 536.921 140.125C537.068 139.875 537.144 139.589 537.14 139.298C537.14 139.099 537.103 138.901 537.03 138.715L537.026 138.729ZM568.073 90.5765C568.066 90.5617 568.062 90.5461 568.06 90.5301C568.062 90.3185 568.022 90.1085 567.943 89.9125C567.865 89.7165 567.748 89.5382 567.601 89.388C567.454 89.2378 567.279 89.1188 567.086 89.0374C566.893 88.956 566.686 88.9141 566.478 88.9141H536.841C536.632 88.9141 536.426 88.956 536.233 89.0374C536.04 89.1188 535.866 89.238 535.719 89.3883C535.572 89.5385 535.456 89.717 535.378 89.913C535.299 90.1089 535.26 90.3187 535.262 90.5301C535.258 90.7428 535.301 90.9536 535.386 91.148L550.216 127.771C550.331 128.065 550.532 128.317 550.791 128.494C551.05 128.671 551.357 128.765 551.669 128.763C551.875 128.765 552.08 128.724 552.271 128.645C552.461 128.565 552.634 128.448 552.78 128.3C552.798 128.282 552.819 128.266 552.841 128.254C562.261 117.982 567.674 104.592 568.073 90.5765Z" fill="#0C70C3"/>
<path d="M519.194 37.0985H519.218C519.266 46.7967 521.1 56.4008 524.625 65.4175L527.364 72.1985C527.465 72.438 527.62 72.65 527.816 72.8171C528.013 72.9842 528.246 73.1017 528.497 73.1599H528.513C528.56 73.1656 528.608 73.1751 528.654 73.1882H528.672H528.819H563.542C563.963 73.1882 564.367 73.0197 564.665 72.7192C564.964 72.4188 565.134 72.011 565.137 71.5845C565.136 71.4156 565.106 71.2479 565.049 71.0894V71.0753C561.759 61.2974 555.944 52.5908 548.209 45.8608C540.473 39.1309 531.099 34.6231 521.062 32.8062C521.038 32.8037 521.013 32.8037 520.989 32.8062C520.923 32.8001 520.851 32.7902 520.789 32.7902C520.369 32.7901 519.966 32.9578 519.668 33.2569C519.369 33.556 519.199 33.9625 519.194 34.3879V37.0985Z" fill="#0C70C3"/>
<path d="M493.284 73.1882H458.571L458.569 73.1944C458.149 73.1912 457.748 73.0201 457.451 72.7187C457.155 72.4173 456.988 72.0099 456.986 71.5845C456.986 71.4166 457.012 71.2495 457.062 71.0894C457.066 71.0762 457.066 71.0624 457.062 71.0492C460.356 61.2787 466.171 52.5795 473.904 45.8544C481.636 39.1294 491.004 34.6233 501.035 32.8042C501.061 32.8014 501.087 32.8014 501.113 32.8042C501.182 32.7982 501.246 32.7882 501.312 32.7882C501.521 32.7858 501.727 32.8254 501.921 32.9046C502.114 32.9838 502.29 33.1009 502.439 33.2495C502.587 33.3981 502.705 33.5752 502.785 33.7703C502.865 33.9653 502.907 34.1746 502.907 34.386V37.0965C502.848 46.7894 501.011 56.3869 497.49 65.3996L494.747 72.1923C494.636 72.467 494.452 72.7053 494.215 72.881C493.979 73.0567 493.699 73.163 493.407 73.1882H493.284Z" fill="#0C70C3"/>
</g>
<g opacity="0.2">
<path fill-rule="evenodd" clip-rule="evenodd" d="M501.88 136.803C533.367 136.803 558.891 111.128 558.891 79.4564C558.891 66.7654 554.793 55.0373 547.855 45.5381C560.221 56.0574 568.073 71.7789 568.073 89.3452C568.073 121.017 542.548 146.691 511.062 146.691C492.193 146.691 475.464 137.47 465.088 123.263C475.018 131.71 487.858 136.803 501.88 136.803Z" fill="black"/>
</g>
<path style="mix-blend-mode:overlay" d="M455.04 80.8992C459.604 49.5182 486.58 27.6076 519.275 32.4357C551.015 36.3881 571.546 66.234 566.983 97.615C562.418 128.996 533.659 150.693 502.748 146.078C471.836 141.461 450.477 112.28 455.04 80.8992Z" fill="url(#paint18_radial_1230_14607)"/>
</g>
<g style="mix-blend-mode:screen">
<path d="M419.713 48.3027H605.767L563.778 186.687H463.874L419.713 48.3027Z" fill="url(#paint19_linear_1230_14607)"/>
</g>
<g style="mix-blend-mode:darken">
<ellipse cx="601.06" cy="193.931" rx="14.1169" ry="2.17358" fill="black" fill-opacity="0.1"/>
</g>
<g style="mix-blend-mode:darken">
<ellipse cx="424.056" cy="193.931" rx="14.1169" ry="2.17358" fill="black" fill-opacity="0.1"/>
</g>
</g>
<defs>
<linearGradient id="paint0_linear_1230_14607" x1="132.293" y1="525.544" x2="-200.936" y2="198.666" gradientUnits="userSpaceOnUse">
<stop stop-color="#024FC3"/>
<stop offset="1" stop-color="#0099DB"/>
</linearGradient>
<linearGradient id="paint1_linear_1230_14607" x1="791.996" y1="825.986" x2="-288.113" y2="367.916" gradientUnits="userSpaceOnUse">
<stop stop-color="#00F9FF"/>
<stop offset="0.135" stop-color="white"/>
<stop offset="0.33" stop-color="#61FBFF"/>
<stop offset="0.51" stop-color="#73FCFF"/>
<stop offset="1" stop-color="white"/>
</linearGradient>
<linearGradient id="paint2_linear_1230_14607" x1="460.01" y1="185.209" x2="481.175" y2="294.284" gradientUnits="userSpaceOnUse">
<stop stop-color="#E89900"/>
<stop offset="0.635" stop-color="#DE9B18" stop-opacity="0.53"/>
<stop offset="1" stop-color="#F2FEFF"/>
</linearGradient>
<linearGradient id="paint3_linear_1230_14607" x1="384.963" y1="203.594" x2="452.416" y2="173.901" gradientUnits="userSpaceOnUse">
<stop stop-color="#FFA439"/>
<stop offset="1" stop-color="#FFE0A5"/>
</linearGradient>
<linearGradient id="paint4_linear_1230_14607" x1="416.616" y1="203.594" x2="430.046" y2="299.463" gradientUnits="userSpaceOnUse">
<stop stop-color="#FFC14A"/>
<stop offset="1" stop-color="#F2FEFF"/>
</linearGradient>
<linearGradient id="paint5_linear_1230_14607" x1="432.378" y1="180.453" x2="420.826" y2="147.679" gradientUnits="userSpaceOnUse">
<stop stop-color="#BB4300"/>
<stop offset="1" stop-color="#F87B00" stop-opacity="0.79"/>
</linearGradient>
<linearGradient id="paint6_linear_1230_14607" x1="436.163" y1="161.458" x2="414.352" y2="195.765" gradientUnits="userSpaceOnUse">
<stop stop-color="#FFB55D"/>
<stop offset="1" stop-color="#FFDB1F"/>
</linearGradient>
<linearGradient id="paint7_linear_1230_14607" x1="568.486" y1="185.209" x2="486.152" y2="236.407" gradientUnits="userSpaceOnUse">
<stop stop-color="#26C8DE"/>
<stop offset="0.3714" stop-color="#38BFD5"/>
<stop offset="1" stop-color="#F4FDFF"/>
</linearGradient>
<linearGradient id="paint8_linear_1230_14607" x1="640.152" y1="203.07" x2="575.385" y2="175.045" gradientUnits="userSpaceOnUse">
<stop stop-color="#5EBEFF"/>
<stop offset="1" stop-color="#61FBFF"/>
</linearGradient>
<linearGradient id="paint9_linear_1230_14607" x1="560.371" y1="317.321" x2="572.634" y2="217.326" gradientUnits="userSpaceOnUse">
<stop stop-color="#F2FEFF"/>
<stop offset="1" stop-color="#02D9E7"/>
</linearGradient>
<linearGradient id="paint10_linear_1230_14607" x1="595.633" y1="177.086" x2="623.078" y2="144.186" gradientUnits="userSpaceOnUse">
<stop stop-color="#00B3FF"/>
<stop offset="1" stop-color="#36FFFF"/>
</linearGradient>
<linearGradient id="paint11_linear_1230_14607" x1="655.9" y1="120.574" x2="432.932" y2="152.531" gradientUnits="userSpaceOnUse">
<stop stop-color="white"/>
<stop offset="1" stop-color="#0073DD"/>
</linearGradient>
<linearGradient id="paint12_linear_1230_14607" x1="577.113" y1="158.719" x2="508.39" y2="191.636" gradientUnits="userSpaceOnUse">
<stop stop-color="#7CFFE7"/>
<stop offset="1" stop-color="#9CFFE7"/>
</linearGradient>
<linearGradient id="paint13_linear_1230_14607" x1="561.634" y1="159.937" x2="465.839" y2="169.553" gradientUnits="userSpaceOnUse">
<stop stop-color="#0F87E1"/>
<stop offset="1" stop-color="#005083"/>
</linearGradient>
<linearGradient id="paint14_linear_1230_14607" x1="434.916" y1="191.758" x2="532.358" y2="223.239" gradientUnits="userSpaceOnUse">
<stop stop-color="#59D7FF"/>
<stop offset="1" stop-color="#0164D9"/>
<stop offset="1.0001" stop-color="#007DF1"/>
</linearGradient>
<linearGradient id="paint15_linear_1230_14607" x1="511.856" y1="177.077" x2="511.856" y2="186.871" gradientUnits="userSpaceOnUse">
<stop stop-color="#004570" stop-opacity="0"/>
<stop offset="1" stop-color="#00609F" stop-opacity="0.41"/>
</linearGradient>
<linearGradient id="paint16_linear_1230_14607" x1="563.274" y1="155.653" x2="557.458" y2="174.017" gradientUnits="userSpaceOnUse">
<stop stop-color="white" stop-opacity="0"/>
<stop offset="1" stop-color="white" stop-opacity="0.5"/>
</linearGradient>
<linearGradient id="paint17_linear_1230_14607" x1="461.664" y1="155.347" x2="470.234" y2="174.017" gradientUnits="userSpaceOnUse">
<stop stop-color="white" stop-opacity="0"/>
<stop offset="1" stop-color="white" stop-opacity="0.5"/>
</linearGradient>
<radialGradient id="paint18_radial_1230_14607" cx="0" cy="0" r="1" gradientUnits="userSpaceOnUse" gradientTransform="translate(476.904 43.0986) rotate(57.5845) scale(89.2113 115.472)">
<stop stop-color="white"/>
<stop offset="0.655" stop-color="#007AEB" stop-opacity="0.6"/>
<stop offset="1" stop-color="#0055A3" stop-opacity="0.6"/>
</radialGradient>
<linearGradient id="paint19_linear_1230_14607" x1="524.289" y1="102.642" x2="526.68" y2="199.003" gradientUnits="userSpaceOnUse">
<stop stop-color="#BDE7FF" stop-opacity="0"/>
<stop offset="0.807731" stop-color="#27A4FF" stop-opacity="0.3"/>
<stop offset="1" stop-color="#2287FF" stop-opacity="0.77"/>
</linearGradient>
<clipPath id="clip0_1230_14607">
<rect width="287" height="194" fill="white" transform="translate(362 32)"/>
</clipPath>
<clipPath id="clip1_1230_14607">
<rect width="143.847" height="154.872" fill="white" transform="translate(424.057 32)"/>
</clipPath>
<clipPath id="clip2_1230_14607">
<rect width="114.022" height="114.692" fill="white" transform="translate(454.051 32)"/>
</clipPath>
</defs>
</svg>
