<svg width="287" height="194" viewBox="0 0 287 194" fill="none" xmlns="http://www.w3.org/2000/svg">
<g clip-path="url(#clip0_1413_24014)">
<path d="M88.2646 171.135L99.6711 153.209L139.948 264.146H129.056L88.2646 171.135Z" fill="url(#paint0_linear_1413_24014)"/>
<path d="M52.1732 153.209H99.9564L88.2648 171.594H22.9629L52.1732 153.209Z" fill="url(#paint1_linear_1413_24014)"/>
<path d="M22.9629 171.594H88.5499L129.043 263.98H92.6842L22.9629 171.594Z" fill="url(#paint2_linear_1413_24014)"/>
<path fill-rule="evenodd" clip-rule="evenodd" d="M36.7531 124.982C32.9097 124.982 30.6623 129.314 32.8755 132.456L39.6194 142.031C40.5078 143.292 41.9542 144.043 43.497 144.043H61.4114C61.5387 144.753 61.9898 145.413 62.8173 145.766L66.6838 147.416C68.5028 148.192 70.4168 146.531 69.9051 144.621L69.7502 144.043H71.093C74.4971 144.043 76.7927 140.563 75.4533 137.434L71.3553 127.859C70.6084 126.114 68.8931 124.982 66.995 124.982H36.7531Z" fill="url(#paint3_linear_1413_24014)"/>
<path fill-rule="evenodd" clip-rule="evenodd" d="M35.0754 126.332C31.232 126.332 28.9846 130.664 31.1978 133.806L37.9417 143.381C38.8301 144.642 40.2764 145.392 41.8192 145.392H58.7416C59.3158 145.392 59.7797 145.832 60.1102 146.302C60.3462 146.637 60.6865 146.923 61.1396 147.116L65.006 148.766C66.8251 149.542 68.7391 147.881 68.2274 145.971V145.971C68.1492 145.679 68.3691 145.392 68.6712 145.392H69.4153C72.8193 145.392 75.115 141.913 73.7756 138.783L69.6776 129.209C68.9307 127.464 67.2154 126.332 65.3173 126.332H35.0754Z" fill="url(#paint4_linear_1413_24014)" fill-opacity="0.95"/>
<path d="M64.5779 134.932C65.8027 136.292 65.8505 137.839 64.6847 138.388C63.5189 138.936 61.581 138.277 60.3563 136.917C59.1315 135.556 59.0837 134.009 60.2495 133.461C61.4153 132.912 63.3532 133.571 64.5779 134.932Z" fill="white"/>
<path d="M55.8621 134.932C57.0868 136.292 57.1347 137.839 55.9689 138.388C54.8031 138.936 52.8652 138.277 51.6405 136.917C50.4157 135.556 50.3679 134.009 51.5337 133.461C52.6994 132.912 54.6373 133.571 55.8621 134.932Z" fill="white"/>
<path d="M46.5681 134.932C47.7929 136.292 47.8407 137.839 46.6749 138.388C45.5092 138.936 43.5713 138.277 42.3465 136.917C41.1218 135.556 41.0739 134.009 42.2397 133.461C43.4055 132.912 45.3434 133.571 46.5681 134.932Z" fill="white"/>
<path d="M215.795 170.624L204.903 153.209L164.132 283.918L174.365 290.529L215.795 170.624Z" fill="url(#paint5_linear_1413_24014)"/>
<path d="M250.26 153.209H204.631L215.795 171.07H278.153L250.26 153.209Z" fill="url(#paint6_linear_1413_24014)" fill-opacity="0.8"/>
<path d="M278.153 171.07H215.523L175.028 286.57H199.566L278.153 171.07Z" fill="url(#paint7_linear_1413_24014)"/>
<path d="M220.688 130.417C222.005 126.526 225.677 123.925 229.785 123.974L252.578 124.242C259.981 124.329 264.435 132.483 260.508 138.759L258.316 142.261C256.582 145.032 253.544 146.715 250.275 146.715H228.397C221.904 146.715 217.33 140.338 219.412 134.188L220.688 130.417Z" fill="#0051AF"/>
<path d="M222.32 132.023C223.622 128.128 227.283 125.514 231.39 125.546L253.294 125.716C260.7 125.773 265.186 133.917 261.278 140.207L259.523 143.032C257.792 145.818 254.745 147.512 251.465 147.512H230.315C223.836 147.512 219.264 141.162 221.319 135.018L222.32 132.023Z" fill="url(#paint8_linear_1413_24014)"/>
<path opacity="0.8" d="M256.529 129.33H260.78L252.001 144.545L247.749 144.545L256.529 129.33Z" fill="white"/>
<path opacity="0.8" d="M245.907 135.852H249.922L245.249 144.546L241.234 144.546L245.907 135.852Z" fill="white"/>
<path opacity="0.8" d="M234.297 130.027C232.829 129.928 231.271 130.251 229.824 130.954C228.377 131.658 227.109 132.71 226.183 133.973C225.258 135.237 224.718 136.654 224.634 138.04C224.55 139.427 224.925 140.719 225.711 141.75C226.497 142.78 227.658 143.501 229.043 143.82C230.427 144.138 231.972 144.038 233.477 143.534C234.982 143.03 236.377 142.145 237.482 140.993C238.586 139.841 239.349 138.475 239.672 137.073L232.234 137.006L234.297 130.027Z" fill="white"/>
<path d="M236.182 129.034C238.043 129.159 239.633 129.958 240.624 131.266C241.616 132.575 241.934 134.295 241.514 136.072L234.125 135.972L236.182 129.034Z" fill="white"/>
<path d="M85.2199 159.636L102.148 124.44H198.077L217.61 159.636H85.2199Z" fill="url(#paint9_linear_1413_24014)" stroke="url(#paint10_linear_1413_24014)" stroke-width="0.797097"/>
<path d="M113.13 127.938H188.42L201.581 154.872H101.806L113.13 127.938Z" fill="url(#paint11_linear_1413_24014)"/>
<path d="M121.485 279.371L85.8101 160.68H217.086L183.772 279.371H121.485Z" fill="url(#paint12_linear_1413_24014)" stroke="#BBFBFF" stroke-width="1.82065"/>
<path d="M105.784 145.076H196.684L201.887 154.87H101.806L105.784 145.076Z" fill="url(#paint13_linear_1413_24014)"/>
<path d="M193.316 106.818L207.089 134.059L201.886 155.178L188.113 127.937L193.316 106.818Z" fill="url(#paint14_linear_1413_24014)"/>
<path d="M110.989 105.289L96.2979 136.202L101.807 154.873L113.131 127.938L110.989 105.289Z" fill="url(#paint15_linear_1413_24014)"/>
<g clip-path="url(#clip1_1413_24014)">
<path d="M78.1874 89.6913L78.8463 90.3338C84.9442 96.2329 117.055 126.3 121.234 130.212C121.525 130.486 121.682 130.631 121.682 130.631L128.015 108.931C128.015 108.931 107.586 90.0854 92.47 76.1941C91.8939 75.683 91.0267 75.5602 90.2974 75.9C87.4568 77.2163 80.694 81.0968 78.1691 86.9474C78.0281 87.2757 77.8994 87.6069 77.786 87.9467C77.5807 88.5635 77.7278 89.2259 78.1874 89.6913Z" fill="#252533"/>
<path d="M78.1874 89.6932L78.8463 90.3357L121.234 132.001V124.922L83.173 87.4232L78.1691 86.9492C78.0281 87.2776 77.8994 87.6088 77.786 87.9486C77.5807 88.5653 77.7278 89.2278 78.1874 89.6932Z" fill="#131516"/>
<path d="M85.8259 82.8248C82.2959 86.2055 78.395 88.2957 77.1173 87.4933C75.8364 86.691 77.6627 83.2988 81.1927 79.9181C84.7228 76.5374 88.6236 74.4472 89.9014 75.2496C91.1822 76.0519 89.3559 79.4441 85.8259 82.8248Z" fill="white"/>
<path d="M85.792 82.8669C82.6971 85.8307 79.2835 87.661 78.1619 86.9586C77.0404 86.2562 78.64 83.2838 81.7349 80.3199C84.8267 77.3561 88.2434 75.5258 89.3649 76.2282C90.4864 76.9306 88.8869 79.903 85.792 82.8669Z" fill="#88999D"/>
<path d="M62.7123 63.9162C63.7725 65.7151 69.3709 72.9191 71.1115 75.329C72.3617 77.0593 73.6364 78.1387 74.8989 78.7611C75.2237 78.921 75.5332 79.1038 75.8304 79.3036L79.7833 83.2583L83.5309 86.876L90.6706 79.0238L91.4582 78.1587L91.1579 77.8731L90.3734 77.1336L87.5145 74.2668C88.6636 72.1796 88.3234 69.9524 88.6973 68.2392C89.5369 64.3987 93.0301 60.0272 89.9628 60.0472C86.5982 60.0672 84.1652 65.8807 84.1652 65.8807C84.1652 65.8807 82.0846 61.9831 80.4207 55.9783C78.8763 50.3961 75.5424 52.1836 76.2349 55.55C76.9979 59.2449 78.6587 62.8654 78.6587 62.8654L77.9938 63.1138C77.9938 63.1138 76.0143 60.7553 73.857 54.8362C72.1717 50.2163 68.2678 52.3578 69.9807 56.3067C71.2555 59.2477 74.2217 64.1817 74.2217 64.1817L73.7804 64.3902C73.7804 64.3902 71.1758 61.0808 69.1381 56.4095C67.5416 52.7461 63.8154 54.5278 65.1423 57.7401C66.4691 60.9523 70.1462 67.1085 70.1462 67.1085L69.6038 67.3198C69.6038 67.3198 67.658 65.2953 65.9114 62.3543C63.5979 58.4596 60.7481 60.5954 62.7123 63.9162Z" fill="#FFB287"/>
<path d="M79.7832 83.2585L83.5308 86.8762L90.6705 79.024L91.1578 77.8733L91.3447 77.4308L90.6031 76.7969C90.6031 76.7969 90.5235 76.9197 90.3733 77.1338C89.405 78.493 85.4521 83.4812 79.8016 83.2357L79.7832 83.2585Z" fill="#ED8366"/>
<path opacity="0.64" d="M84.1685 65.8809C84.1685 65.8809 84.141 65.9123 84.0919 65.9722C84.0398 66.035 83.9602 66.1236 83.859 66.2406C83.764 66.3548 83.6507 66.4948 83.522 66.6547C83.3963 66.8146 83.2584 67.0002 83.1175 67.2029C83.0439 67.3028 82.9704 67.4085 82.903 67.5227C82.8294 67.634 82.7559 67.7483 82.6793 67.8653C82.5445 68.1109 82.3821 68.3564 82.2534 68.6306C82.186 68.7648 82.1155 68.899 82.045 69.0389C81.9837 69.1816 81.9224 69.3244 81.8581 69.4672L81.76 69.6842L81.6803 69.9069L81.5179 70.3552C81.4138 70.655 81.3463 70.9662 81.2483 71.2632C81.1901 71.5687 81.1227 71.8714 81.0583 72.1655C81.0215 72.4624 80.9756 72.748 80.9327 73.0249C80.9051 73.162 80.9082 73.2962 80.8959 73.4275C80.8836 73.5589 80.8744 73.6845 80.8622 73.8073C80.8438 74.05 80.8101 74.2756 80.8162 74.4755C80.8162 74.6753 80.804 74.8524 80.7978 74.9951C80.7825 75.2864 80.7641 75.4577 80.7641 75.4577C80.7641 75.4577 80.7028 75.3006 80.617 75.018C80.5741 74.8781 80.519 74.7039 80.4669 74.504C80.4026 74.3041 80.3688 74.0757 80.3351 73.8244C80.3045 73.5732 80.2463 73.299 80.2463 73.0078C80.2463 72.7166 80.2371 72.4053 80.2463 72.0855C80.283 71.7657 80.3229 71.4374 80.375 71.1004C80.4577 70.7721 80.5343 70.4323 80.6416 70.1039C80.7733 69.7813 80.8683 69.4472 81.0399 69.1445C81.1196 68.9932 81.1962 68.839 81.2759 68.6905C81.3617 68.5449 81.4536 68.405 81.5455 68.2679C81.7141 67.9852 81.9347 67.7483 82.1185 67.5113C82.3238 67.2857 82.5138 67.0744 82.7161 66.9002C82.8172 66.8117 82.9061 66.7232 83.001 66.6489C83.0991 66.5747 83.188 66.5062 83.2768 66.4405C83.4484 66.3092 83.6108 66.2092 83.7426 66.1293C83.8774 66.0465 83.9816 65.9951 84.0552 65.958C84.1318 65.918 84.1747 65.8951 84.1747 65.8951L84.1685 65.8809Z" fill="#ED8366"/>
<path d="M91.7918 76.9639L89.9624 75.2793C89.9685 75.2964 89.8245 75.2993 89.8306 75.3164C90.1892 76.5956 88.6203 79.4338 85.5131 82.2749C81.7747 85.6927 78.2876 88.2111 77.0098 87.4088L79.0322 89.0934C80.313 89.8958 84.2935 87.6287 87.8236 84.2479C91.3536 80.8672 92.7509 77.8291 91.7948 76.9639H91.7918Z" fill="white"/>
<path d="M186.372 157.213C184.527 158.23 179.104 160.004 170.531 159.097L170.898 123.63L164.344 107.652L165.689 103.26C165.689 103.26 162.121 100.89 165.195 101.451C168.457 102.048 171.214 103.822 175.944 107.789C179.441 110.721 184.201 116.028 184.894 127.871C185.266 134.168 187.315 151.513 187.346 155.648C187.346 156.28 186.984 156.877 186.367 157.218L186.372 157.213Z" fill="#252533"/>
<path d="M171.984 160.757L175.149 160.779L173.386 120.416L171.903 159.85C171.882 160.182 171.913 160.487 171.989 160.757H171.984Z" fill="#272735"/>
<path d="M175.013 111.143L172.577 132.403L165.759 121.841L160.856 114.243L157.856 109.598C157.856 109.598 157.905 109.546 158 109.458C158.742 108.753 162.244 105.635 166.387 105.537C169.188 105.472 172.283 106.782 175.013 111.143Z" fill="#252533"/>
<path d="M153.952 110.709H142.982C129.135 110.709 121.526 122.31 121.526 135.214H176.288C176.288 122.31 167.8 110.709 153.952 110.709Z" fill="#252533"/>
<path d="M164.807 167.808H132.222V121.96C132.222 115.393 137.933 110.07 144.981 110.07H152.047C159.095 110.07 164.807 115.393 164.807 121.96V167.808Z" fill="white"/>
<path d="M137.479 119.721C137.479 119.721 137.249 161.766 138.858 167.477C140.449 173.122 133.726 168.928 133.726 168.928L134.544 113.111L137.479 119.721Z" fill="#CEBABA"/>
<path d="M159.66 119.724C159.66 119.724 159.89 161.769 158.282 167.48C156.691 173.125 163.414 168.93 163.414 168.93L162.596 114.447L159.66 119.724Z" fill="#CEBABA"/>
<path d="M154.515 159.931L150.099 124.916C150.286 124.776 150.458 124.608 150.602 124.411L152.771 121.441C153.709 120.159 153.243 118.406 151.772 117.678L151.711 117.649C149.71 116.659 147.311 116.659 145.31 117.649L145.249 117.678C143.781 118.406 143.315 120.159 144.25 121.441L146.419 124.411C146.585 124.636 146.781 124.822 146.998 124.973L142.592 159.931C142.552 160.171 142.635 160.414 142.816 160.591L147.942 165.591C148.273 165.913 148.828 165.913 149.159 165.591L154.285 160.591C154.466 160.417 154.549 160.171 154.509 159.931H154.515Z" fill="#CEBABA"/>
<path d="M148.558 107.223C139.488 107.223 129.722 114.113 141.183 124.609L148.558 117.062L155.934 124.609C167.394 114.11 157.629 107.223 148.558 107.223Z" fill="#CEBABA"/>
<path d="M152.816 118.982L150.644 121.952C149.642 123.325 147.469 123.325 146.467 121.952L144.298 118.982C143.36 117.703 143.826 115.947 145.293 115.219L145.355 115.19C147.356 114.2 149.755 114.2 151.756 115.19L151.817 115.219C153.285 115.947 153.751 117.703 152.816 118.982Z" fill="#F93E3E"/>
<path d="M152.816 118.982C152.816 118.982 150.656 116.367 148.511 116.367C146.366 116.367 144.298 118.982 144.298 118.982C143.36 117.703 143.826 115.947 145.293 115.219L145.355 115.19C147.356 114.2 149.755 114.2 151.756 115.19L151.817 115.219C153.285 115.947 153.751 117.703 152.816 118.982Z" fill="#BA3131"/>
<path d="M179.134 174.719L167.824 173.862C163.773 173.862 160.491 169.667 160.491 164.491L160.712 126.289H176.291L179.134 174.719Z" fill="#252533"/>
<path d="M136.542 125.999V164.443C136.542 169.62 132.8 173.814 128.183 173.814L118.466 174.671L121.53 125.999L123.139 117.967L136.542 125.999Z" fill="#252533"/>
<path d="M127.322 116.493C126.881 117.424 127.246 118.569 128.012 119.22L132.728 123.226L128.334 126.71C127.558 127.324 127.145 128.32 127.233 129.34C127.571 133.203 130.35 143.71 136.543 154.778L136.564 152.105L136.059 116.188C136.059 116.188 135.017 107.291 147.363 107.291C147.363 107.291 132.375 105.809 127.319 116.496L127.322 116.493Z" fill="#131516"/>
<path d="M168.422 126.712C169.169 127.326 169.568 128.32 169.482 129.342C169.16 133.205 165.887 144.707 160.497 154.78L160.476 150.28L160.963 116.188C160.963 116.188 161.055 115.377 160.856 114.243C160.605 112.83 159.903 110.919 158 109.457C158.742 108.752 162.244 105.634 166.387 105.537C165.186 109.537 165.121 110.691 166.497 112.064C167.616 113.184 168.648 114.851 169.399 116.496C169.825 117.427 169.473 118.572 168.734 119.223L165.759 121.841L164.181 123.229L168.422 126.712Z" fill="#131516"/>
<path d="M122.005 111.141L124.441 132.401L131.259 121.84L136.162 114.241L139.162 109.596C139.162 109.596 139.113 109.544 139.018 109.456C138.276 108.751 134.774 105.633 130.631 105.536C127.83 105.47 124.735 106.78 122.005 111.141Z" fill="#252533"/>
<path d="M128.596 126.712C127.848 127.326 127.45 128.32 127.536 129.342C127.857 133.205 131.13 144.707 136.52 154.78L136.542 150.28L136.054 116.188C136.054 116.188 135.962 115.377 136.162 114.243C136.413 112.83 137.115 110.919 139.017 109.457C138.276 108.752 134.773 105.634 130.631 105.537C131.832 109.537 131.896 110.691 130.52 112.064C129.402 113.184 128.369 114.851 127.618 116.496C127.192 117.427 127.545 118.572 128.283 119.223L131.259 121.841L132.837 123.229L128.596 126.712Z" fill="#131516"/>
<path d="M167.703 124.385L163.616 120.961L168.004 117.023C168.718 116.384 169.104 115.236 168.644 114.342C161.9 101.216 149.995 104.434 149.995 104.434C160.521 104.928 160.512 114.04 160.512 114.04L160.472 151.536C165.506 140.974 168.411 130.772 168.724 126.971C168.807 125.966 168.421 124.987 167.7 124.385H167.703Z" fill="#323244"/>
<path d="M129.307 124.385L133.395 120.961L129.007 117.023C128.293 116.384 127.907 115.236 128.366 114.342C135.111 101.216 147.015 104.434 147.015 104.434C136.49 104.928 136.499 114.04 136.499 114.04L136.539 151.536C131.504 140.974 128.599 130.772 128.287 126.971C128.204 125.966 128.59 124.987 129.31 124.385H129.307Z" fill="#323244"/>
<path d="M148.557 104.098C139.134 104.098 128.985 111.256 140.893 122.163L148.557 114.323L156.221 122.163C168.128 111.256 157.983 104.098 148.557 104.098Z" fill="white"/>
<path d="M140.256 108.323C140.256 111.644 143.734 114.334 148.248 114.334C152.761 114.334 156.42 111.644 156.42 108.323V101.305H140.253V108.323H140.256Z" fill="#FFB287"/>
<path d="M140.256 106.507C140.256 109.262 143.734 111.495 148.248 111.495C152.761 111.495 156.42 109.262 156.42 106.507V95.9766H140.253V106.507H140.256Z" fill="#F58D6C"/>
<path d="M154.29 158.989L149.163 163.991C148.833 164.314 148.278 164.314 147.947 163.991L142.82 158.989C142.64 158.814 142.557 158.572 142.597 158.329L146.706 124.476L146.948 122.483L147.037 121.752H150.077L150.165 122.483L150.466 124.967C150.466 124.967 150.469 124.97 150.469 124.973L154.514 158.329C154.553 158.572 154.471 158.814 154.29 158.989Z" fill="#F93E3E"/>
<path d="M132.812 58.252C132.898 58.4233 132.978 58.6089 133.055 58.8087C132.957 58.626 132.877 58.4404 132.812 58.252Z" fill="#993E39"/>
<path opacity="0.48" d="M150.47 124.972C150.47 124.972 150.47 124.969 150.467 124.967C150.2 124.127 149.646 123.456 148.588 123.456C147.709 123.456 147.096 123.756 146.707 124.475L146.949 122.482C146.949 122.482 147.822 123.102 148.536 123.102C149.25 123.102 150.167 122.482 150.167 122.482L150.47 124.972Z" fill="#BA3131"/>
<g clip-path="url(#clip2_1413_24014)">
<path d="M206.072 57.3491C206.072 64.8798 204.597 72.3367 201.732 79.2942C198.867 86.2516 194.667 92.5733 189.373 97.8982C184.079 103.223 177.794 107.447 170.877 110.328C163.96 113.21 156.546 114.693 149.06 114.692C141.573 114.693 134.159 113.21 127.243 110.328C120.326 107.447 114.041 103.223 108.747 97.8982C103.453 92.5733 99.2539 86.2516 96.3889 79.2942C93.524 72.3367 92.0495 64.8797 92.0498 57.3491C92.0495 49.8181 93.5238 42.361 96.3887 35.4032C99.2536 28.4454 103.453 22.1234 108.747 16.798C114.041 11.4726 120.325 7.24833 127.242 4.36612C134.159 1.48392 141.573 0.00026487 149.06 0C156.547 -4.65765e-09 163.96 1.4833 170.878 4.36539C177.795 7.24747 184.08 11.4719 189.374 16.7973C194.668 22.1226 198.867 28.4448 201.732 35.4027C204.597 42.3606 206.072 49.818 206.072 57.3491Z" fill="white"/>
<path d="M124.743 59.1401V59.1157C124.821 58.9294 124.858 58.7282 124.852 58.5259C124.854 58.3142 124.815 58.104 124.737 57.9078C124.658 57.7116 124.542 57.5332 124.394 57.3828C124.247 57.2325 124.072 57.1134 123.879 57.0322C123.686 56.9511 123.479 56.9096 123.27 56.9102H93.6329C93.4249 56.9094 93.2189 56.9501 93.0267 57.0303C92.8344 57.1104 92.6596 57.2285 92.5124 57.3774C92.3653 57.5263 92.2487 57.703 92.1693 57.8977C92.0899 58.0924 92.0493 58.3012 92.0498 58.5119V58.5644C92.4316 72.5844 97.8421 85.983 107.269 96.2536C107.28 96.2637 107.293 96.2721 107.307 96.278C107.452 96.4316 107.627 96.5537 107.82 96.637C108.013 96.7203 108.221 96.7631 108.431 96.7628C108.746 96.7628 109.053 96.6685 109.315 96.492C109.577 96.3156 109.781 96.0647 109.903 95.7708L124.743 59.1401ZM175.025 106.729C175.011 106.713 175.004 106.692 175.005 106.67L157.127 62.5295C157.112 62.506 157.103 62.4787 157.101 62.4506C156.455 60.8212 155.341 59.4255 153.905 58.4433C152.468 57.4612 150.774 56.9375 149.041 56.9403C147.415 56.9387 145.821 57.4006 144.442 58.2732C143.063 59.1458 141.954 60.3939 141.242 61.8749L123.082 106.683C123.004 106.88 122.965 107.09 122.967 107.303C122.969 107.584 123.044 107.86 123.184 108.103C123.324 108.346 123.524 108.547 123.764 108.688C123.776 108.712 123.798 108.712 123.834 108.739C131.675 112.662 140.305 114.699 149.051 114.689C157.796 114.703 166.425 112.668 174.266 108.745C174.282 108.738 174.296 108.727 174.306 108.713C174.56 108.578 174.773 108.375 174.92 108.125C175.067 107.875 175.143 107.589 175.139 107.298C175.139 107.099 175.102 106.901 175.029 106.715L175.025 106.729ZM206.072 58.5765C206.065 58.5617 206.061 58.5461 206.059 58.5301C206.061 58.3185 206.021 58.1085 205.942 57.9125C205.864 57.7165 205.747 57.5382 205.6 57.388C205.453 57.2378 205.278 57.1188 205.085 57.0374C204.892 56.956 204.686 56.9141 204.477 56.9141H174.84C174.631 56.9141 174.425 56.956 174.232 57.0374C174.039 57.1188 173.865 57.238 173.718 57.3883C173.571 57.5385 173.455 57.717 173.377 57.913C173.298 58.1089 173.259 58.3187 173.261 58.5301C173.257 58.7428 173.3 58.9536 173.385 59.148L188.215 95.7708C188.33 96.0651 188.531 96.3173 188.79 96.4943C189.05 96.6712 189.356 96.7649 189.668 96.7628C189.874 96.7645 190.079 96.7243 190.27 96.6449C190.46 96.5655 190.633 96.4484 190.779 96.3002C190.797 96.2815 190.818 96.2657 190.841 96.2536C200.26 85.982 205.673 72.5916 206.072 58.5765Z" fill="#0C70C3"/>
<path d="M157.194 5.0975H157.218C157.266 14.7958 159.1 24.3998 162.625 33.4166L165.364 40.1975C165.465 40.437 165.62 40.649 165.816 40.8161C166.013 40.9833 166.246 41.1007 166.497 41.1589H166.513C166.56 41.1646 166.608 41.1741 166.654 41.1872H166.672H166.819H201.542C201.963 41.1872 202.367 41.0187 202.665 40.7183C202.964 40.4178 203.134 40.01 203.137 39.5835C203.136 39.4147 203.106 39.247 203.049 39.0884V39.0744C199.759 29.2964 193.944 20.5899 186.209 13.8599C178.473 7.12988 169.099 2.62209 159.062 0.805212C159.038 0.802742 159.013 0.802742 158.989 0.805212C158.923 0.799153 158.851 0.789185 158.789 0.789185C158.369 0.789158 157.966 0.956819 157.668 1.25594C157.369 1.55507 157.199 1.96155 157.194 2.38696V5.0975Z" fill="#0C70C3"/>
<path d="M131.284 41.1872H96.5713L96.5691 41.1934C96.1493 41.1902 95.7477 41.0192 95.4514 40.7178C95.155 40.4164 94.9879 40.009 94.9863 39.5835C94.9864 39.4156 95.0119 39.2485 95.062 39.0884C95.0657 39.0752 95.0657 39.0614 95.062 39.0482C98.3563 29.2777 104.171 20.5785 111.904 13.8535C119.636 7.12837 129.004 2.62233 139.035 0.80324C139.061 0.800387 139.087 0.800387 139.113 0.80324C139.182 0.79718 139.246 0.787213 139.312 0.787213C139.521 0.784808 139.727 0.824377 139.921 0.903594C140.114 0.98281 140.29 1.09994 140.439 1.24855C140.587 1.39715 140.705 1.57426 140.785 1.7693C140.865 1.96434 140.907 2.17363 140.907 2.38499V5.09553C140.848 14.7884 139.011 24.386 135.49 33.3986L132.747 40.1913C132.636 40.466 132.452 40.7043 132.215 40.88C131.979 41.0557 131.699 41.162 131.407 41.1872H131.284Z" fill="#0C70C3"/>
</g>
<g opacity="0.2">
<path fill-rule="evenodd" clip-rule="evenodd" d="M139.878 104.802C171.365 104.802 196.889 79.1268 196.889 47.4554C196.889 34.7644 192.791 23.0363 185.853 13.5371C198.219 24.0564 206.071 39.7779 206.071 57.3442C206.071 89.0156 180.546 114.69 149.06 114.69C130.191 114.69 113.462 105.469 103.086 91.2625C113.016 99.7091 125.856 104.802 139.878 104.802Z" fill="black"/>
</g>
<path style="mix-blend-mode:overlay" d="M93.0375 48.8992C97.6025 17.5182 124.578 -4.39237 157.273 0.43571C189.013 4.38814 209.544 34.234 204.981 65.615C200.416 96.996 171.657 118.693 140.746 114.078C109.834 109.461 88.4748 80.2802 93.0375 48.8992Z" fill="url(#paint16_radial_1413_24014)"/>
</g>
<g style="mix-blend-mode:screen">
<path d="M57.7129 16.3027H243.767L201.778 154.687H101.874L57.7129 16.3027Z" fill="url(#paint17_linear_1413_24014)"/>
</g>
<g style="mix-blend-mode:darken">
<ellipse cx="239.061" cy="161.931" rx="14.1169" ry="2.17358" fill="black" fill-opacity="0.1"/>
</g>
<g style="mix-blend-mode:darken">
<ellipse cx="62.0564" cy="161.931" rx="14.1169" ry="2.17358" fill="black" fill-opacity="0.1"/>
</g>
</g>
<defs>
<linearGradient id="paint0_linear_1413_24014" x1="98.0109" y1="153.209" x2="119.176" y2="262.284" gradientUnits="userSpaceOnUse">
<stop stop-color="#E89900"/>
<stop offset="0.635" stop-color="#DE9B18" stop-opacity="0.53"/>
<stop offset="1" stop-color="#F2FEFF"/>
</linearGradient>
<linearGradient id="paint1_linear_1413_24014" x1="22.9629" y1="171.594" x2="90.4157" y2="141.901" gradientUnits="userSpaceOnUse">
<stop stop-color="#FFA439"/>
<stop offset="1" stop-color="#FFE0A5"/>
</linearGradient>
<linearGradient id="paint2_linear_1413_24014" x1="54.6158" y1="171.594" x2="68.0458" y2="267.463" gradientUnits="userSpaceOnUse">
<stop stop-color="#FFC14A"/>
<stop offset="1" stop-color="#F2FEFF"/>
</linearGradient>
<linearGradient id="paint3_linear_1413_24014" x1="70.3783" y1="148.453" x2="58.8257" y2="115.679" gradientUnits="userSpaceOnUse">
<stop stop-color="#BB4300"/>
<stop offset="1" stop-color="#F87B00" stop-opacity="0.79"/>
</linearGradient>
<linearGradient id="paint4_linear_1413_24014" x1="74.1632" y1="129.458" x2="52.3519" y2="163.765" gradientUnits="userSpaceOnUse">
<stop stop-color="#FFB55D"/>
<stop offset="1" stop-color="#FFDB1F"/>
</linearGradient>
<linearGradient id="paint5_linear_1413_24014" x1="206.488" y1="153.209" x2="124.154" y2="204.407" gradientUnits="userSpaceOnUse">
<stop stop-color="#26C8DE"/>
<stop offset="0.3714" stop-color="#38BFD5"/>
<stop offset="1" stop-color="#F4FDFF"/>
</linearGradient>
<linearGradient id="paint6_linear_1413_24014" x1="278.153" y1="171.07" x2="213.386" y2="143.045" gradientUnits="userSpaceOnUse">
<stop stop-color="#5EBEFF"/>
<stop offset="1" stop-color="#61FBFF"/>
</linearGradient>
<linearGradient id="paint7_linear_1413_24014" x1="198.372" y1="285.321" x2="210.635" y2="185.326" gradientUnits="userSpaceOnUse">
<stop stop-color="#F2FEFF"/>
<stop offset="1" stop-color="#02D9E7"/>
</linearGradient>
<linearGradient id="paint8_linear_1413_24014" x1="233.633" y1="145.086" x2="261.078" y2="112.186" gradientUnits="userSpaceOnUse">
<stop stop-color="#00B3FF"/>
<stop offset="1" stop-color="#36FFFF"/>
</linearGradient>
<linearGradient id="paint9_linear_1413_24014" x1="293.9" y1="88.5739" x2="70.932" y2="120.531" gradientUnits="userSpaceOnUse">
<stop stop-color="white"/>
<stop offset="1" stop-color="#0073DD"/>
</linearGradient>
<linearGradient id="paint10_linear_1413_24014" x1="215.113" y1="126.719" x2="146.39" y2="159.636" gradientUnits="userSpaceOnUse">
<stop stop-color="#7CFFE7"/>
<stop offset="1" stop-color="#9CFFE7"/>
</linearGradient>
<linearGradient id="paint11_linear_1413_24014" x1="199.635" y1="127.937" x2="103.84" y2="137.553" gradientUnits="userSpaceOnUse">
<stop stop-color="#0F87E1"/>
<stop offset="1" stop-color="#005083"/>
</linearGradient>
<linearGradient id="paint12_linear_1413_24014" x1="72.916" y1="159.759" x2="170.358" y2="191.24" gradientUnits="userSpaceOnUse">
<stop stop-color="#59D7FF"/>
<stop offset="1" stop-color="#0164D9"/>
<stop offset="1.0001" stop-color="#007DF1"/>
</linearGradient>
<linearGradient id="paint13_linear_1413_24014" x1="149.857" y1="145.076" x2="149.857" y2="154.87" gradientUnits="userSpaceOnUse">
<stop stop-color="#004570" stop-opacity="0"/>
<stop offset="1" stop-color="#00609F" stop-opacity="0.41"/>
</linearGradient>
<linearGradient id="paint14_linear_1413_24014" x1="201.274" y1="123.652" x2="195.458" y2="142.016" gradientUnits="userSpaceOnUse">
<stop stop-color="white" stop-opacity="0"/>
<stop offset="1" stop-color="white" stop-opacity="0.5"/>
</linearGradient>
<linearGradient id="paint15_linear_1413_24014" x1="99.6645" y1="123.347" x2="108.235" y2="142.017" gradientUnits="userSpaceOnUse">
<stop stop-color="white" stop-opacity="0"/>
<stop offset="1" stop-color="white" stop-opacity="0.5"/>
</linearGradient>
<radialGradient id="paint16_radial_1413_24014" cx="0" cy="0" r="1" gradientUnits="userSpaceOnUse" gradientTransform="translate(114.903 11.0986) rotate(57.5845) scale(89.2113 115.472)">
<stop stop-color="white"/>
<stop offset="0.655" stop-color="#007AEB" stop-opacity="0.6"/>
<stop offset="1" stop-color="#0055A3" stop-opacity="0.6"/>
</radialGradient>
<linearGradient id="paint17_linear_1413_24014" x1="162.289" y1="70.6421" x2="164.68" y2="167.003" gradientUnits="userSpaceOnUse">
<stop stop-color="#BDE7FF" stop-opacity="0"/>
<stop offset="0.807731" stop-color="#27A4FF" stop-opacity="0.3"/>
<stop offset="1" stop-color="#2287FF" stop-opacity="0.77"/>
</linearGradient>
<clipPath id="clip0_1413_24014">
<rect width="287" height="194" fill="white"/>
</clipPath>
<clipPath id="clip1_1413_24014">
<rect width="143.847" height="154.872" fill="white" transform="translate(62.0557)"/>
</clipPath>
<clipPath id="clip2_1413_24014">
<rect width="114.022" height="114.692" fill="white" transform="translate(92.0498)"/>
</clipPath>
</defs>
</svg>
