<svg width="734" height="987" viewBox="0 0 734 987" fill="none" xmlns="http://www.w3.org/2000/svg">
<path style="mix-blend-mode:overlay" d="M188.492 886.876C200.22 838.322 283.97 803.893 375.555 809.975C467.141 816.06 531.881 860.353 520.159 908.906C508.43 957.46 424.681 991.889 333.095 985.807C241.509 979.722 176.77 935.429 188.492 886.876Z" fill="url(#paint0_radial_1309_26003)"/>
<g filter="url(#filter0_f_1309_26003)">
<path fill-rule="evenodd" clip-rule="evenodd" d="M725.5 8H8L185.143 949.81H189.315C185.026 950.96 182.727 952.176 182.727 953.434C182.727 960.565 256.572 966.346 347.664 966.346C438.757 966.346 512.602 960.565 512.602 953.434C512.602 952.176 510.302 950.96 506.013 949.81H513.71L725.5 8Z" fill="url(#paint1_linear_1309_26003)"/>
</g>
<g style="mix-blend-mode:plus-lighter" filter="url(#filter1_f_1309_26003)">
<path fill-rule="evenodd" clip-rule="evenodd" d="M203.08 945.395C202.629 945.017 202.5 944.718 202.5 944.5C202.5 944.282 202.629 943.983 203.08 943.605C203.526 943.232 204.22 942.841 205.178 942.443C207.091 941.648 209.941 940.87 213.651 940.125C221.061 938.635 231.803 937.29 245.098 936.159C271.681 933.899 308.417 932.5 349 932.5C389.583 932.5 426.319 933.899 452.902 936.159C466.197 937.29 476.939 938.635 484.349 940.125C488.059 940.87 490.909 941.648 492.822 942.443C493.78 942.841 494.474 943.232 494.92 943.605C495.371 943.983 495.5 944.282 495.5 944.5C495.5 944.718 495.371 945.017 494.92 945.395C494.474 945.768 493.78 946.159 492.822 946.557C490.909 947.352 488.059 948.13 484.349 948.875C476.939 950.365 466.197 951.71 452.902 952.841C426.319 955.101 389.583 956.5 349 956.5C308.417 956.5 271.681 955.101 245.098 952.841C231.803 951.71 221.061 950.365 213.651 948.875C209.941 948.13 207.091 947.352 205.178 946.557C204.22 946.159 203.526 945.768 203.08 945.395ZM349 957C267.814 957 202 951.404 202 944.5C202 937.596 267.814 932 349 932C430.186 932 496 937.596 496 944.5C496 951.404 430.186 957 349 957Z" fill="#FFBF1B"/>
</g>
<g style="mix-blend-mode:plus-lighter" filter="url(#filter2_f_1309_26003)">
<path fill-rule="evenodd" clip-rule="evenodd" d="M188.862 948.385C186.726 947.048 186 945.892 186 945C186 944.108 186.726 942.952 188.862 941.615C190.936 940.318 194.06 939.029 198.178 937.783C206.398 935.294 218.342 933.04 233.161 931.143C262.786 927.349 303.741 925 349 925C394.259 925 435.214 927.349 464.839 931.143C479.658 933.04 491.602 935.294 499.822 937.783C503.94 939.029 507.064 940.318 509.138 941.615C511.274 942.952 512 944.108 512 945C512 945.892 511.274 947.048 509.138 948.385C507.064 949.682 503.94 950.971 499.822 952.217C491.602 954.706 479.658 956.96 464.839 958.857C435.214 962.651 394.259 965 349 965C303.741 965 262.786 962.651 233.161 958.857C218.342 956.96 206.398 954.706 198.178 952.217C194.06 950.971 190.936 949.682 188.862 948.385ZM349 966C258.425 966 185 956.598 185 945C185 933.402 258.425 924 349 924C439.575 924 513 933.402 513 945C513 956.598 439.575 966 349 966Z" fill="#FFBF1B"/>
</g>
<ellipse cx="352" cy="943" rx="110" ry="7" fill="#002959" fill-opacity="0.24"/>
<path d="M519.839 675.362C500.485 675.482 481.139 675.59 461.785 675.71C447.871 675.785 435.153 665.719 423.034 658.459C414.377 653.275 405.72 648.091 397.063 642.908C371.562 627.64 381.949 585.286 407.339 600.48C409.377 601.699 411.602 603.063 413.945 604.543C426.918 612.707 444.028 624.271 457.494 632.842C458.259 633.324 459.012 633.798 459.752 634.264C476.763 633.98 495.531 633.3 511.666 633.199C513.785 633.192 515.776 634.505 517.579 636.702C525.829 646.806 529.628 675.27 519.844 675.329L519.839 675.362Z" fill="#252533"/>
<path d="M517.846 636.9C513.739 639.803 510.348 643.009 510.348 643.009L456.978 640.441L455.263 639.37L456.288 636.025L456.823 634.305L457.277 632.838C458.05 633.326 458.81 633.805 459.557 634.276C476.708 634.04 495.628 633.41 511.896 633.355C514.032 633.354 516.043 634.681 517.867 636.896L517.846 636.9Z" fill="#171818"/>
<path d="M417.291 629.407C416.757 640.599 412.675 652.287 412.675 652.287L443.069 670.535L426.505 652.83C426.505 652.83 425.78 628.596 421.197 619.649C416.627 610.71 417.808 618.53 417.282 629.419L417.291 629.407Z" fill="#131516"/>
<path d="M455.473 631.8C455.473 631.8 451.804 642.108 453.723 643.389C457.501 645.893 457.978 638.497 464.98 634.56L464.212 634.56C461.248 634.577 458.167 633.607 455.501 631.819L455.459 631.791L455.473 631.8Z" fill="#252533"/>
<path d="M514.625 671C509.174 670.626 504.324 662.219 503.803 652.207C503.282 642.196 507.288 634.383 512.748 634.744L522.24 635.388L523.454 671.557L514.617 671.012L514.625 671Z" fill="white"/>
<path d="M522.52 671.425C518.135 671.07 515.156 665.478 513.371 658.235C513.299 657.974 513.235 657.701 513.172 657.428C512.831 655.888 512.588 654.255 512.468 652.599C512.423 651.985 512.402 651.387 512.402 650.785C512.295 643.088 515.003 637.087 519.002 635.783C519.668 635.563 520.391 635.468 521.124 635.541C521.328 635.555 521.523 635.582 521.723 635.629C530.344 637.263 529.818 656.313 529.278 658.6C528.339 665.27 526.737 671.79 522.511 671.437L522.52 671.425Z" fill="#CEBABA"/>
<path d="M555.989 636.65C558.082 635.964 561.731 636.168 561.69 640.168C561.636 645.022 554.189 648.409 541.436 644.661C528.684 640.913 532.144 638.416 532.144 638.416C532.144 638.416 543.488 637.525 544.443 637.579C548.62 637.812 556.002 636.655 556.002 636.655L555.989 636.65Z" fill="#FFB287"/>
<path d="M583.502 657.184C583.502 657.184 583.489 657.226 583.458 657.231C582.872 657.988 582.018 658.683 580.908 659.29C580.908 659.29 580.873 659.309 580.851 659.333C580.251 661.416 577.86 663.779 574.031 665.056C571.834 665.798 569.495 666.399 567.167 666.879C565.331 667.251 563.518 667.553 561.767 667.753C559.596 668.009 557.557 668.124 555.791 668.102C555.791 668.102 555.791 668.102 555.765 668.094C555.765 668.094 555.765 668.094 555.74 668.085C555.481 668.088 555.227 668.078 554.973 668.067C554.973 668.067 554.96 668.063 554.947 668.059C553.453 667.991 552.18 667.814 551.28 667.503C549.204 666.801 542.83 664.924 537.148 663.254C537.109 663.241 537.071 663.228 537.045 663.219C535.543 662.777 534.092 662.353 532.788 661.964C529.804 661.104 527.573 660.441 527.165 660.331C527.126 660.317 527.101 660.309 527.101 660.309L515.503 664.457C514.831 663.08 514.227 661.882 513.726 660.331C513.539 659.756 513.146 658.533 513.003 657.957C511.503 648.958 512.887 643.457 513.502 642.456L517.632 641.093L523.174 638.937C523.174 638.937 528.853 636.132 538.699 639.039C545.668 641.107 552.601 647.775 559.353 648.343C559.564 648.354 559.787 648.37 560.029 648.376C560.029 648.376 560.029 648.376 560.041 648.38C563.574 648.378 568.774 647.017 571.847 646.934C575.6 646.822 576.921 648.981 577.197 649.634C577.306 649.873 580.771 650.482 580.771 650.482C584.481 652.77 585.194 654.951 583.516 657.142L583.503 657.138L583.502 657.184Z" fill="#FFB287"/>
<path d="M580.825 660.139C580.825 660.139 580.927 659.733 580.853 659.029C580.822 658.679 580.731 658.25 580.497 657.816C580.268 657.368 579.859 656.947 579.338 656.604C578.803 656.258 578.141 655.999 577.4 655.847L577.134 655.784C577.134 655.784 577.017 655.744 577.03 655.748L576.88 655.726C576.673 655.698 576.48 655.676 576.273 655.649C575.877 655.63 575.52 655.624 575.129 655.636C574.329 655.669 573.521 655.862 572.704 656.036C571.866 656.233 571.019 656.456 570.181 656.653C569.317 656.841 568.448 657.042 567.562 657.163C567.124 657.232 566.685 657.302 566.242 657.34C565.812 657.383 565.378 657.44 564.944 657.452C564.522 657.468 564.097 657.498 563.679 657.501C563.266 657.491 562.853 657.481 562.471 657.466C561.684 657.46 560.926 657.36 560.242 657.301C559.563 657.228 558.926 657.111 558.366 657.021C557.816 656.948 557.329 656.81 556.938 656.734C556.146 656.563 555.698 656.438 555.698 656.438C555.698 656.438 556.163 656.466 556.942 656.543C557.333 656.575 557.824 656.656 558.366 656.667C558.916 656.695 559.527 656.715 560.207 656.743C560.869 656.736 561.6 656.783 562.361 656.736C562.74 656.72 563.131 656.707 563.523 656.695C563.923 656.657 564.318 656.631 564.731 656.597C565.548 656.511 566.387 656.403 567.225 656.25C568.072 656.116 568.91 655.919 569.748 655.722C570.604 655.517 571.455 655.325 572.306 655.133C573.17 654.945 574.048 654.806 574.942 654.791C575.376 654.779 575.871 654.802 576.284 654.857C576.486 654.897 576.689 654.937 576.895 654.965L577.046 654.987C577.153 655.01 577.162 655.027 577.227 655.05L577.524 655.152C578.32 655.354 579.078 655.719 579.663 656.172C580.262 656.629 580.642 657.188 580.85 657.702C581.04 658.224 581.067 658.676 581.051 659.038C581.034 659.401 580.957 659.684 580.902 659.857C580.846 660.029 580.812 660.135 580.812 660.135L580.821 660.108L580.825 660.139Z" fill="#F58D6C"/>
<path d="M555.616 650.18C555.616 650.18 555.757 650.229 556.04 650.282C556.31 650.331 556.717 650.398 557.218 650.482C557.724 650.552 558.341 650.632 559.053 650.685C559.751 650.733 560.562 650.79 561.419 650.789C562.285 650.806 563.228 650.805 564.201 650.755C564.69 650.745 565.2 650.714 565.714 650.669C566.224 650.637 566.752 650.596 567.288 650.529C568.359 650.438 569.444 650.308 570.555 650.142C571.108 650.066 571.678 649.98 572.235 649.891L573.089 649.77L573.985 649.693C576.351 649.53 578.884 649.826 580.996 650.897C582.037 651.435 582.974 652.16 583.565 653.033C584.172 653.897 584.41 654.885 584.298 655.723C584.185 656.561 583.807 657.247 583.377 657.738C582.931 658.237 582.472 658.599 582.073 658.862C581.665 659.108 581.322 659.286 581.086 659.398C580.854 659.496 580.721 659.554 580.721 659.554C580.721 659.554 580.846 659.478 581.056 659.358C581.279 659.242 581.579 659.019 581.957 658.733C582.322 658.443 582.73 658.064 583.095 657.551C583.456 657.052 583.727 656.388 583.766 655.644C583.802 654.913 583.559 654.071 582.977 653.35C582.425 652.624 581.586 651.993 580.639 651.561C579.679 651.126 578.608 650.815 577.507 650.687C576.397 650.541 575.269 650.538 574.155 650.628L573.327 650.714L572.474 650.835C571.917 650.925 571.346 651.01 570.789 651.1C569.657 651.243 568.542 651.378 567.449 651.446C566.905 651.496 566.36 651.501 565.837 651.528C565.301 651.551 564.8 651.556 564.285 651.557C563.771 651.557 563.291 651.54 562.815 651.509C562.335 651.492 561.872 651.466 561.431 651.417C560.544 651.334 559.734 651.232 559.018 651.103C558.302 650.975 557.681 650.82 557.175 650.704C556.16 650.443 555.611 650.194 555.611 650.194L555.624 650.198L555.616 650.18Z" fill="#F58D6C"/>
<path fill-rule="evenodd" clip-rule="evenodd" d="M554.016 644.475C550.491 645.577 541.707 646.966 539.144 646.852C541.795 646.97 550.614 646.793 554.298 645.642C557.947 644.501 560.911 643.118 561.926 639.395C561.093 642.45 557.577 643.362 554.016 644.475Z" fill="#F58D6C"/>
<path d="M146.505 600.773C164.933 610.702 183.358 620.615 201.785 630.543C215.039 637.669 232.1 634.268 247.217 633.308C258.016 632.625 268.814 631.941 279.613 631.258C311.421 629.246 322.171 582.541 290.505 584.535C287.964 584.695 285.173 584.902 282.212 585.163C265.837 586.574 243.851 589.215 226.806 590.774C225.84 590.859 224.89 590.941 223.955 591.021C207.845 582.121 190.252 571.941 174.89 563.662C172.87 562.581 170.327 562.858 167.533 564.093C154.721 569.796 137.201 595.72 146.517 600.739L146.505 600.773Z" fill="#252533"/>
<path d="M223.737 590.945L224.637 598.339C227.602 593.883 249.828 592.522 272.209 589.799C277.938 589.103 280.88 587.351 282.051 585.126C265.659 586.517 243.653 589.16 226.59 590.701C225.623 590.785 224.672 590.866 223.737 590.945Z" fill="#131516"/>
<path d="M166.844 564.201C169.323 569.115 170.981 573.962 170.981 573.962L222.521 598.521L224.652 598.345L225.291 594.563L225.612 592.614L225.888 590.953C224.926 591.036 223.979 591.118 223.049 591.198C206.995 582.272 189.463 572.063 174.154 563.76C172.142 562.676 169.609 562.951 166.826 564.187L166.844 564.201Z" fill="#131516"/>
<path d="M265.647 607.86C260.786 619.148 259.038 632.745 259.038 632.745L221.599 635.116L245.722 626.187C245.722 626.187 258.022 602.708 266.636 596.253C275.235 589.8 270.372 596.89 265.649 607.876L265.647 607.86Z" fill="#131516"/>
<path d="M228.041 591.156C228.041 591.156 226.766 601.309 224.694 601.546C220.623 601.996 223.275 595.642 219.251 589.345L219.87 589.677C222.25 590.971 225.13 591.495 228.011 591.16L228.056 591.155L228.041 591.156Z" fill="#131516"/>
<path d="M153.683 599.624C159.109 601.946 167.944 596.275 173.412 586.939C178.88 577.603 178.903 568.147 173.475 565.808L164.029 561.758L144.917 595.816L153.685 599.64L153.683 599.624Z" fill="white"/>
<path d="M145.934 596.383C150.243 598.305 155.726 594.3 160.873 588.039C161.066 587.818 161.256 587.58 161.447 587.342C162.505 585.99 163.514 584.496 164.419 582.915C164.755 582.329 165.06 581.747 165.348 581.15C169.127 573.568 169.438 566.21 166.286 562.843C165.762 562.279 165.125 561.811 164.398 561.503C164.199 561.411 164.002 561.336 163.791 561.279C154.871 558.431 146.265 577.605 145.682 580.154C143.381 587.259 141.778 594.559 145.936 596.4L145.934 596.383Z" fill="#CEBABA"/>
<path d="M117.575 565.461C115.478 564.401 112.793 561.489 115.598 558.483C119.006 554.84 127.121 557.894 134.398 570.372C141.676 582.849 137.265 582.132 137.265 582.132C137.265 582.132 127.862 574.239 127.16 573.476C124.087 570.145 117.568 565.447 117.568 565.447L117.575 565.461Z" fill="#FFB287"/>
<path d="M110.508 529.089C110.508 529.089 110.547 529.068 110.574 529.087C111.553 528.956 112.696 529.072 113.977 529.45C113.977 529.45 114.017 529.462 114.05 529.461C115.959 528.332 119.449 528.345 123.3 530.268C125.516 531.365 127.743 532.675 129.879 534.069C131.559 535.173 133.172 536.314 134.667 537.485C136.525 538.93 138.185 540.382 139.537 541.733C139.537 541.733 139.537 541.733 139.551 541.759C139.551 541.759 139.551 541.759 139.565 541.785C139.767 541.978 139.957 542.178 140.146 542.378C140.146 542.378 140.153 542.391 140.16 542.404C141.27 543.583 142.133 544.679 142.615 545.596C143.736 547.697 147.37 553.936 150.613 559.495C150.634 559.534 150.654 559.574 150.668 559.6C151.525 561.07 152.355 562.487 153.095 563.768C154.809 566.674 156.077 568.863 156.317 569.255C156.337 569.294 156.351 569.32 156.351 569.32L168.443 575.214C168.008 576.767 167.441 578.358 166.754 579.914C166.5 580.492 166.232 581.043 165.943 581.588C162.348 588.613 157.054 592.791 152.863 592.15L150.361 591.057L144.575 588.508C144.575 588.508 138.232 586.347 132.623 576.704C128.659 569.87 127.914 559.572 123.08 554.041C122.924 553.873 122.761 553.692 122.578 553.506C122.578 553.506 122.579 553.506 122.572 553.493C119.835 550.826 114.864 547.931 112.427 545.674C109.443 542.923 109.917 540.286 110.156 539.583C110.237 539.319 107.976 536.24 107.976 536.24C106.69 531.701 107.65 529.506 110.468 529.111L110.475 529.124L110.508 529.089Z" fill="#FFB287"/>
<path d="M114.55 529.005C114.55 529.005 114.189 529.236 113.759 529.827C113.54 530.115 113.313 530.51 113.193 531.016C113.06 531.529 113.084 532.158 113.251 532.812C113.424 533.478 113.758 534.175 114.226 534.85L114.389 535.099C114.389 535.099 114.451 535.218 114.444 535.205L114.545 535.335C114.686 535.512 114.82 535.675 114.961 535.852C115.255 536.165 115.527 536.439 115.839 536.726C116.481 537.305 117.241 537.769 117.994 538.254C118.78 538.738 119.59 539.208 120.376 539.692C121.175 540.202 121.987 540.705 122.757 541.282C123.145 541.561 123.533 541.839 123.903 542.145C124.266 542.437 124.641 542.722 124.986 543.041C125.323 543.347 125.674 543.646 125.999 543.959C126.312 544.278 126.625 544.598 126.911 544.898C127.516 545.498 128.034 546.145 128.522 546.707C128.998 547.276 129.41 547.846 129.781 548.337C130.157 548.807 130.438 549.28 130.688 549.634C131.183 550.361 131.443 550.794 131.443 550.794C131.443 550.794 131.102 550.422 130.553 549.775C130.272 549.455 129.948 549.023 129.536 548.606C129.129 548.169 128.67 547.692 128.163 547.157C127.645 546.662 127.111 546.075 126.489 545.535C126.185 545.262 125.873 544.975 125.562 544.689C125.225 544.416 124.901 544.136 124.558 543.851C123.865 543.299 123.141 542.748 122.386 542.23C121.637 541.692 120.851 541.208 120.066 540.725C119.261 540.234 118.468 539.737 117.676 539.24C116.876 538.73 116.101 538.173 115.397 537.509C115.053 537.19 114.686 536.798 114.404 536.445C114.275 536.261 114.146 536.078 114.005 535.901L113.904 535.77C113.837 535.672 113.842 535.652 113.808 535.586L113.649 535.284C113.172 534.53 112.838 533.68 112.698 532.894C112.552 532.094 112.645 531.383 112.841 530.837C113.055 530.296 113.348 529.933 113.612 529.67C113.876 529.407 114.132 529.25 114.294 529.161C114.457 529.072 114.557 529.018 114.557 529.018L114.532 529.031L114.55 529.005Z" fill="#F58D6C"/>
<path d="M127.175 555.615C127.175 555.615 127.099 555.471 126.917 555.217C126.741 554.976 126.472 554.618 126.142 554.175C125.8 553.74 125.377 553.213 124.862 552.635C124.355 552.071 123.767 551.416 123.102 550.769C122.443 550.102 121.712 549.391 120.924 548.693C120.539 548.331 120.122 547.97 119.692 547.616C119.275 547.255 118.838 546.887 118.377 546.533C117.484 545.792 116.553 545.072 115.578 544.359C115.097 543.999 114.596 543.633 114.102 543.28L113.357 542.728L112.61 542.109C110.665 540.445 108.908 538.308 108.015 535.899C107.582 534.704 107.359 533.446 107.507 532.337C107.636 531.223 108.136 530.292 108.805 529.741C109.473 529.19 110.242 528.955 110.915 528.907C111.607 528.865 112.213 528.938 112.705 529.039C113.191 529.161 113.58 529.284 113.84 529.378C114.088 529.478 114.231 529.535 114.231 529.535C114.231 529.535 114.082 529.498 113.836 529.431C113.582 529.351 113.195 529.293 112.705 529.225C112.221 529.169 111.642 529.149 111.004 529.262C110.378 529.369 109.708 529.668 109.161 530.203C108.627 530.731 108.231 531.554 108.182 532.541C108.106 533.508 108.318 534.622 108.752 535.664C109.193 536.72 109.808 537.765 110.572 538.694C111.33 539.643 112.201 540.497 113.127 541.271L113.827 541.831L114.572 542.383C115.066 542.736 115.567 543.102 116.061 543.455C117.037 544.201 117.994 544.941 118.888 545.715C119.344 546.089 119.769 546.496 120.193 546.87C120.624 547.258 121.016 547.633 121.414 548.021C121.813 548.409 122.173 548.785 122.52 549.167C122.88 549.543 123.22 549.913 123.529 550.283C124.158 551.017 124.715 551.706 125.18 552.344C125.645 552.982 126.018 553.569 126.33 554.039C126.935 555.005 127.187 555.608 127.187 555.608L127.18 555.595L127.175 555.615Z" fill="#F58D6C"/>
<path fill-rule="evenodd" clip-rule="evenodd" d="M124.906 560.272C127.857 561.836 134.417 566.608 136.028 568.336C134.362 566.549 128.487 560.97 125.403 559.336C122.348 557.718 119.6 556.699 116.762 558.451C119.091 557.013 121.925 558.693 124.906 560.272Z" fill="#F58D6C"/>
<path d="M282.297 892.094C280.145 898.667 272.821 907.637 272.976 913.7C273.131 919.762 336.212 928.841 335.948 915.586C335.685 902.332 307.551 887.176 307.551 887.176L282.297 892.094Z" fill="#131516"/>
<path d="M320.617 940.954H317.489L285.608 940.707C283.487 940.707 281.505 940.011 279.91 938.897C277.82 937.412 276.426 937.49 276.303 935.046L276.008 925.628L275.497 921.251L274.987 916.766C274.971 916.364 275.017 915.93 275.11 915.436C275.776 912.358 278.718 907.563 281.83 904.718C282.465 904.13 283.1 903.651 283.719 903.264C284.648 902.692 285.546 902.352 286.382 902.367L289.742 901.47L290.718 901.207L297.082 901.253L317.365 901.377C318.805 901.377 320.214 901.717 321.468 902.29C324.194 903.527 326.237 905.94 326.625 908.723L327.817 926.169L328.436 935.386C329.025 939.701 325.479 940.97 320.601 940.939L320.617 940.954Z" fill="#6B2A18"/>
<path d="M284.031 901.264L283.907 901.465H282.545C277.931 901.434 283.83 897.196 284.031 901.264Z" fill="#6B2A18"/>
<path d="M327.125 920.646C320.095 922.286 313.36 923.198 307.043 923.585C294.671 924.327 283.879 923.043 275.518 921.296C275.44 921.296 275.379 921.265 275.286 921.249L273.784 917.63L275.131 915.481L281.851 904.763L283.91 901.469H284.375L289.747 901.515L298.341 901.577L317.045 901.701C318.981 901.716 320.839 902.288 322.356 903.263C324.477 904.608 325.979 906.696 326.304 909.047L327.094 920.662L327.125 920.646Z" fill="#6B2A18"/>
<path d="M317.629 925.96L254.827 925.512C251.39 925.496 248.588 931.482 248.557 934.528V935.487C248.526 938.534 251.282 938.735 254.719 938.75L317.521 939.214C320.958 939.23 323.761 939.06 323.792 936.013V935.054C323.823 932.007 324.458 925.96 317.629 925.96Z" fill="#6B2A18"/>
<path d="M308.414 934.184L308.383 936.024L248.555 935.638H247.084V933.797C247.13 930.642 247.982 927.812 249.499 925.369C252.116 921.1 256.714 917.914 262.505 915.95C262.598 915.919 262.676 915.888 262.784 915.857C267.259 914.372 272.446 913.615 277.943 913.645L278.02 913.692C281.303 913.707 284.461 913.877 287.434 914.279C294.959 915.3 301.184 917.79 304.838 923.064C305.318 923.76 305.953 924.951 307.547 925.894C308.925 926.714 311.031 927.364 314.391 927.364C317.472 927.364 308.43 931.74 308.399 934.199L308.414 934.184Z" fill="#6B2A18"/>
<g opacity="0.35">
<path d="M328.468 935.42L327.833 926.202L326.641 908.757C326.254 905.973 324.21 903.576 321.485 902.323L314.393 895.008C314.393 895.008 288.768 899.199 297.098 901.271L290.734 901.225L289.759 901.488L284.386 901.457L283.736 903.298L276.443 910.922C292.623 910.922 304.36 914.588 308.014 922.676H302.734C293.924 922.676 290.27 923.96 290.27 929.605C290.27 933.27 287.142 935.312 273.563 935.312L270.698 938.637L303.586 936.642L314.92 936.92C315.059 937.198 315.199 937.461 315.322 937.74C315.57 938.25 315.833 938.73 316.097 939.147C316.515 939.812 316.979 940.4 317.475 940.926H320.602C325.48 940.972 329.041 939.704 328.437 935.389L328.468 935.42Z" fill="#131516"/>
</g>
<path d="M375.569 892.104C372.983 902.466 370.97 908.019 370.97 918.118C370.97 928.217 405.127 923.686 405.127 923.686L431.449 909.039L423.769 898.94L405.979 884.031L375.553 892.12L375.569 892.104Z" fill="#131516"/>
<path d="M433.167 916.793L432.16 925.64L431.866 935.074C431.742 937.502 430.349 937.44 428.258 938.909C426.663 940.023 424.682 940.719 422.56 940.734L387.536 940.966C382.674 940.997 379.098 939.713 379.701 935.414L380.321 926.212L381.513 908.766C382.07 904.699 386.158 901.451 390.772 901.42L417.404 901.25L421.74 902.41C424.418 902.41 427.918 905.89 430.333 909.632C431.231 911.024 431.974 912.447 432.485 913.715C432.95 914.906 433.213 915.989 433.167 916.809V916.793Z" fill="#6B2A18"/>
<path d="M391.098 901.684L425.611 901.452C430.21 901.421 424.326 897.184 424.125 901.267L434.391 917.629L432.889 921.248C420.254 923.924 401.983 925.563 381.065 920.661L381.855 909.03C382.412 904.963 386.5 901.715 391.114 901.684H391.098Z" fill="#6B2A18"/>
<path d="M390.54 925.948L453.342 925.484C456.78 925.469 459.582 931.454 459.613 934.501V935.46C459.644 938.507 456.888 938.708 453.451 938.723L390.649 939.187C387.211 939.203 384.409 939.032 384.378 935.986V935.027C384.347 931.98 383.712 925.933 390.54 925.933V925.948Z" fill="#6B2A18"/>
<g opacity="0.5">
<path d="M414.876 902.704C402.319 903.724 386.943 918.664 380.332 926.196L381.524 908.751C382.082 904.683 386.169 901.435 390.783 901.405L417.415 901.234C418.143 901.961 417.477 902.503 414.876 902.719V902.704Z" fill="#131516"/>
</g>
<g opacity="0.5">
<path d="M432.484 913.685H432.391C426.229 913.422 416.041 916.577 412.17 922.005C412.34 921.587 416.381 911.643 430.332 909.602C431.23 910.993 431.973 912.416 432.484 913.685Z" fill="#131516"/>
</g>
<path d="M335.941 915.577C333.418 914.587 330.305 913.69 326.822 912.886C306.399 908.216 273.418 907.148 272.969 913.69L269.609 771.359L268.665 731.256L268.541 725.781L275.447 729.694L304.262 745.995L332.504 765.296L335.074 766.75L335.941 915.577Z" fill="#252533"/>
<path d="M259.918 725.816L324.686 769.677H340.356C340.356 769.677 371.834 924.954 370.967 918.133C370.394 913.54 392.83 906.07 411.07 904.941C414.321 904.74 417.418 904.74 420.236 904.987C420.731 905.034 421.227 905.08 421.707 905.142C425.918 905.668 429.371 906.828 431.523 908.792L405.495 780.008L403.932 771.688L401.578 761.697L401.005 740.014L399.147 729.745L398.435 725.816H259.918Z" fill="#252533"/>
<path d="M335.144 769.534L334.401 763.487C330.22 764.786 326.659 758.77 326.659 762.544L326.845 912.886C330.313 913.691 333.441 914.588 335.965 915.577L335.16 769.519L335.144 769.534Z" fill="#252533"/>
<path d="M397.678 782.983C394.937 770.332 376.589 771.152 365.193 767.563C352.822 763.666 348.811 757.279 347.573 746.035L349.075 740.266L398.375 729.719L404.243 762.166L405.605 769.729L397.678 782.998V782.983Z" fill="#131516"/>
<path d="M431.527 908.766C429.128 906.586 425.117 905.395 420.255 904.962L400.405 798.712L391.703 752.098C391.703 752.098 395.559 750.304 397.696 744.164C398.3 742.416 399.337 740.932 401.025 739.988L401.613 743.236L405.035 762.151L410.609 792.959L412.606 804.017L431.543 908.766H431.527Z" fill="#131516"/>
<path d="M300.902 729.719V735.921C300.902 752.917 299.153 755.809 284.629 761.547C280.65 763.125 276.469 764.362 273.589 767.301L269.594 771.384L268.65 731.281V729.719H275.432L300.887 729.734L300.902 729.719Z" fill="#131516"/>
<path d="M335.079 769.66C329.567 769.66 316.483 759.02 316.483 759.02H334.909C336.829 759.02 338.393 760.319 338.455 761.943L347.172 802.71L340.344 769.66C340.344 769.66 340.576 769.66 335.079 769.66Z" fill="#131516"/>
<path d="M261.559 726.91H404.07V733.576H261.559V726.91Z" fill="#131516"/>
<path d="M461.082 935.63L399.782 936.017L399.751 934.176C399.72 931.717 390.693 927.34 393.774 927.34C401.021 927.34 402.43 924.34 403.328 923.041C406.998 917.767 413.222 915.277 420.732 914.272C423.689 913.87 426.848 913.699 430.146 913.684L430.208 913.638C435.72 913.607 440.891 914.365 445.382 915.849C454.656 918.911 460.974 925.082 461.067 933.805V935.645L461.082 935.63Z" fill="#6B2A18"/>
<path d="M462.43 941.281C462.43 942.132 461.64 942.843 460.634 942.843H380.196C379.189 942.843 378.384 942.487 378.384 941.621L378.353 934.538C378.353 933.672 379.143 932.976 380.149 932.976L388.356 932.898H390.291L397.615 935.11L460.587 934.924C461.594 934.924 462.399 935.62 462.399 936.471L462.43 941.281Z" fill="#302524"/>
<path d="M245.752 941.281C245.752 942.132 246.542 942.843 247.548 942.843H328.001C329.008 942.843 329.813 942.487 329.813 941.621L329.844 934.538C329.844 933.672 329.054 932.976 328.048 932.976L324.935 932.898H323L315.676 935.11L247.594 934.924C246.588 934.924 245.783 935.62 245.783 936.471L245.752 941.296V941.281Z" fill="#302524"/>
<path d="M410.547 630.566L387.739 699.884C378.728 726.454 347.296 730.923 316.607 723.113H313.526L310.027 723.16C279.338 715.334 264.722 697.394 273.749 670.823L295.178 607.723L298.383 598.273L299.142 598.49L305.026 600.191L410.531 630.551L410.547 630.566Z" fill="white"/>
<path d="M306.246 722.723L310.039 723.171C279.35 715.346 264.734 697.405 273.761 670.835L295.19 607.735L297.048 603.59L299.17 598.502L302.87 589.578L305.053 600.203L306.555 607.472C308.553 620.958 297.962 691.034 306.23 722.723H306.246Z" fill="#BAD8E0"/>
<path d="M372.531 587.716C371.942 586.293 369.774 585.953 368.629 587.113C363.984 591.799 352.417 600.769 335.525 595.975C327.396 593.67 324.469 589.85 323.432 587.407C322.921 586.231 321.264 585.752 320.025 586.448C314.436 589.618 303.148 598.356 311.06 614.24C311.664 615.446 313.445 615.817 314.622 614.982L328.48 605.161C329.718 604.28 331.607 604.744 332.103 606.043L333.682 610.172C333.806 610.497 333.821 610.868 333.744 611.209L309.62 702.982C309.45 703.632 309.682 704.328 310.255 704.792L320.103 717.087C320.939 717.783 322.24 717.83 323.138 717.211L341.021 705.658C341.61 705.256 341.919 704.622 341.857 703.988L337.135 622.174C337.042 621.277 337.677 620.442 338.683 620.163C346.719 617.921 381.093 608.409 372.515 587.731L372.531 587.716Z" fill="#BAD8E0"/>
<path d="M337.232 700.403L323.049 711.508C322.135 712.219 320.711 712.142 319.906 711.338L307.596 698.857C307.163 698.424 306.992 697.836 307.147 697.279L312.845 670.632L319.085 641.401L324.055 618.079L324.798 614.599L325.046 613.424L325.418 611.723L333.268 612.125L333.361 613.857L333.485 616.177L333.686 619.749L337.929 698.903C337.991 699.475 337.727 700.032 337.232 700.419V700.403Z" fill="#F93E3E"/>
<path d="M333.465 616.161C330.616 614.46 327.457 614.166 324.778 614.584L325.026 613.408L325.398 611.707L333.248 612.109L333.341 613.841L333.465 616.161Z" fill="#BA3131"/>
<path d="M269.303 716.982C294.17 723.988 320.631 725.999 346.535 722.627C362.391 720.57 377.348 715.977 392.46 711.615C399.768 709.512 402.447 719.426 395.216 721.498C379.144 726.122 363.32 730.793 346.427 732.865C319.392 736.175 291.615 733.963 265.695 726.664C258.402 724.607 261.948 714.91 269.287 716.966L269.303 716.982Z" fill="#131516"/>
<path d="M396.547 720.652C380.15 724.348 363.985 728.106 346.984 729.204C331.872 730.179 316.682 729.452 301.818 727.101C294.819 726.003 287.914 724.549 281.116 722.739C276.316 721.456 271.594 720.017 266.933 718.409C259.811 715.935 264.131 706.469 271.269 708.944C274.366 710.011 277.493 711.016 280.667 711.929C288.316 714.14 296.12 715.888 304.048 717.141C318.463 719.414 333.188 720.064 347.898 719.012C363.861 717.868 379.175 714.125 394.581 710.661C402.044 708.975 403.917 719.012 396.547 720.683V720.652Z" fill="#6D2813"/>
<path d="M304.047 717.106C303.211 720.122 302.437 723.618 301.817 727.082C294.819 725.984 287.913 724.53 281.116 722.721L278.143 715.745L280.667 711.895C288.315 714.106 296.119 715.854 304.047 717.106Z" fill="#511F14"/>
<path d="M296.675 688.881C294.801 705.043 293.207 722.859 292.216 742.068C291.983 746.553 287.927 749.862 282.864 750.976C269.687 753.853 255.984 750.326 255.984 750.326C255.984 750.326 260.366 660.501 275.292 620.661C290.218 580.822 303.565 588.152 309.325 587.255C310.285 587.101 293.346 591.323 294.461 591.199C299.524 590.611 302.466 590.194 311.137 590.704C311.137 590.704 303.72 628.147 296.66 688.881H296.675Z" fill="#252533"/>
<path d="M309.344 590.393C309.344 590.393 303.739 628.161 296.678 688.895C289.602 672.176 276.58 637.827 282.495 623.815C284.957 617.984 298.397 613.112 298.397 613.112L287.651 610.854C284.059 610.035 281.938 606.725 282.944 603.539C284.322 599.178 286.985 595.574 294.495 591.197C299.558 590.61 300.689 589.867 309.359 590.378L309.344 590.393Z" fill="#131516"/>
<path d="M296.274 691.357C296.274 691.357 278.715 638.495 286.751 619.627C289.229 613.796 298.472 610.626 298.472 610.626L290.452 608.816C286.798 607.997 284.615 604.687 285.636 601.501C287.773 594.804 298.952 579.771 324.284 577.003C330.4 576.338 324.268 579.802 327.071 579.369C332.196 578.581 320.8 586.793 319.313 587.674C317.61 588.695 325.166 582.586 322.581 584.69C319.654 587.04 307.407 587.458 310.008 605.336C312.81 624.514 300.532 655.244 296.274 691.373V691.357Z" fill="#3B3B51"/>
<path d="M425.113 611.766C425.067 612.353 424.989 612.956 424.866 613.575C424.943 613.683 425.005 613.792 425.082 613.9C425.098 612.755 425.113 611.982 425.113 611.766Z" fill="#252533"/>
<path d="M339.165 751.449C344.46 757.233 356.925 758.873 370.349 758.053C372.285 757.945 406.782 756.738 409.244 754.79C411.412 753.088 409.476 747.196 408.222 736.231C407.773 732.411 407.433 727.957 407.355 722.853C407.262 716.404 407.433 709.939 407.634 703.072C407.897 692.942 408.207 681.93 407.758 668.738C407.665 666.093 407.789 663.495 408.052 660.959C410.266 640.59 422.839 624.521 424.867 613.572C421.569 608.576 415.221 603.163 403.716 598.013C403.716 598.013 403.716 598.013 403.701 598.013C402.664 597.549 401.456 597.085 400.109 596.637C397.028 595.569 393.358 594.518 390.013 593.482C389.317 593.265 388.62 593.049 387.954 592.832C384.641 594.224 379.485 593.822 373.694 598.137C368.058 602.313 361.833 607.942 356.878 615.118C354.494 618.567 352.388 622.387 350.793 626.563C347.526 635.038 344.631 647.132 342.277 660.572C340.822 668.8 339.568 677.538 338.561 686.276C338.19 689.447 337.849 692.617 337.539 695.757C337.369 697.443 337.214 699.097 337.09 700.752C336.935 702.438 336.796 704.108 336.672 705.779C336.084 713.45 335.743 720.347 335.666 726.333C335.48 739.834 336.626 748.712 339.181 751.48L339.165 751.449Z" fill="#252533"/>
<path d="M337.4 698.315C337.4 698.315 368.135 661.909 377.751 641.695C379.082 638.927 379.02 635.23 377.921 632.385L370.535 624.188L383.294 624.466C384.718 624.497 386.112 624.126 387.335 623.476C398.561 617.46 401.208 603.448 400.125 596.643C397.043 595.576 393.374 594.524 390.029 593.488C389.936 594.03 389.735 594.509 389.24 594.803C344.739 620.785 337.431 698.331 337.431 698.331L337.4 698.315Z" fill="#131516"/>
<path d="M397.368 602.816C396.486 608.878 393.203 616.132 385.368 620.74C384.269 621.39 382.953 621.699 381.621 621.668L379.438 621.622L369.792 621.405L372.192 624.978L375.335 629.649C375.521 630.097 375.66 630.592 375.769 631.087C376.326 633.438 376.187 636.16 375.18 638.279C366.54 656.466 339.351 693.863 337.648 696.182C337.601 696.26 337.57 696.306 337.57 696.306C337.57 696.306 337.555 696.121 337.539 695.749C337.214 690.151 335.186 644.712 355.361 614.678C358.179 610.487 361.431 606.589 365.162 603.156C366.602 601.826 367.098 600.001 367.036 597.944C366.881 592.144 362.375 584.566 362.886 581.457C362.948 581.071 362.995 580.669 363.025 580.282C363.242 578.225 363.335 576.524 366.633 577.05C368.631 577.359 380.863 582.849 389.208 587.814C391.175 588.989 392.924 590.118 394.287 591.154C394.968 591.68 395.526 592.16 395.975 592.608C396.13 592.747 396.253 592.933 396.393 593.149C397.151 594.387 397.662 596.722 397.631 599.599C397.631 600.619 397.539 601.687 397.384 602.816H397.368Z" fill="#3B3B51"/>
<path opacity="0.28" d="M397.372 602.816C393.052 601.3 387.943 600.202 383.251 599.413C379.628 598.81 376.268 598.392 373.713 598.129C370.802 597.82 368.944 597.696 368.944 597.696L367.055 597.944C366.9 592.144 362.395 584.566 362.906 581.457C362.968 581.055 363.014 580.669 363.045 580.282C363.262 578.225 363.355 576.524 366.653 577.05C368.65 577.359 380.882 582.849 389.228 587.814C391.194 588.989 392.944 590.118 394.307 591.154C394.988 591.665 395.545 592.16 395.994 592.608C396.134 592.747 396.273 592.933 396.412 593.149C397.171 594.387 397.682 596.722 397.651 599.599C397.651 600.619 397.558 601.687 397.403 602.816H397.372Z" fill="#252533"/>
<path d="M397.616 599.591C395.712 597.983 393.327 596.266 390.711 594.549C388.883 593.358 386.933 592.152 384.951 591.008C377.642 586.77 369.761 583.027 364.992 581.573L363.057 580.29C363.273 578.233 363.366 576.532 366.664 577.057C368.662 577.367 380.894 582.857 389.24 587.822C391.206 588.997 392.956 590.126 394.318 591.162C395 591.688 395.557 592.167 396.006 592.616C396.145 592.755 396.285 592.941 396.424 593.157C397.183 594.395 397.694 596.73 397.663 599.607H397.632L397.616 599.591Z" fill="#171818"/>
<path d="M329.181 614.124H329.336C332.401 614.604 335.514 613.568 337.449 611.449L339.88 608.773C342.667 605.727 342.218 601.334 338.858 598.767L337.155 597.468C334.786 595.658 331.457 595.163 328.499 596.169L326.378 596.88C322.198 598.303 320.014 602.293 321.408 605.974L322.631 609.206C323.591 611.758 326.099 613.661 329.165 614.124H329.181Z" fill="#F93E3E"/>
<path d="M325.54 727.234C323.233 727.11 320.941 726.971 318.634 726.847C317.055 726.755 315.832 726.151 315.971 724.589C316.095 723.074 315.739 720.506 318.34 720.429C320.616 720.367 322.985 720.692 325.246 720.831C326.825 720.924 328.048 721.527 327.909 723.089C327.785 724.605 328.141 727.172 325.54 727.249C323.481 727.311 323.248 730.033 325.323 729.987C330.774 729.832 332.508 724.172 330.51 720.445C328.761 717.197 321.932 717.893 318.557 717.707C312.967 717.382 311.543 723.847 313.37 727.249C315.12 730.497 321.948 729.801 325.323 729.987C327.398 730.111 327.615 727.373 325.54 727.249V727.234Z" fill="#C9BFBC"/>
<path d="M316.171 722.037C316.28 721.078 317.224 720.382 318.339 720.428C320.414 720.49 320.631 717.768 318.556 717.691C315.645 717.598 313.229 719.377 312.951 721.851C312.749 723.614 315.97 723.784 316.156 722.037H316.171Z" fill="#EAE4E4"/>
<path d="M329.504 723.349C327.011 723.21 324.518 723.071 322.01 722.916C320.632 722.839 320.477 724.664 321.855 724.741C324.348 724.881 326.841 725.02 329.349 725.174C330.727 725.252 330.882 723.427 329.488 723.365L329.504 723.349Z" fill="#C9BFBC"/>
<path d="M368.848 598.261C361.54 610.262 341.582 615.969 341.582 615.969L332.044 597.75L313.045 612.164C296.958 587.295 327.708 575.263 328.343 575.016C328.142 575.371 321.639 587.141 334.18 590.713C345.638 593.977 353.876 589.646 359.341 584.914C362.717 581.975 365.039 578.898 366.417 577.366C367.161 576.547 368.105 578.294 368.105 578.294C372.843 586.259 372.131 592.894 368.848 598.261Z" fill="white"/>
<path d="M368.85 598.258C367.348 594.314 365.397 590.726 362.053 587.957C360.303 586.519 359.607 585.622 359.359 584.911C362.734 581.988 365.057 578.91 366.435 577.363C367.178 576.544 368.123 578.291 368.123 578.291C372.861 586.256 372.133 592.891 368.866 598.258H368.85Z" fill="#BAD8E0"/>
<path d="M337.203 594.206C345.363 595.35 354.282 593.309 360.878 589.334C361.28 589.087 361.667 588.824 362.07 588.546C366.699 585.081 370.028 578.431 369.595 568.796L369.301 565.13C367.102 561.202 330.963 559.779 324.135 558.82L323.748 575.291C322.757 576.993 322.199 578.678 322.029 580.302C321.301 587.045 327.17 592.799 337.203 594.206Z" fill="#F58D6C"/>
<path d="M337.2 594.212C345.36 595.357 354.278 593.315 360.874 589.34C361.277 589.093 361.664 588.83 362.066 588.552C356.786 583.726 346.242 579.334 322.289 580.308H322.026C321.298 587.067 327.166 592.82 337.215 594.212H337.2Z" fill="#FFB287"/>
<path d="M167.999 404.408C165.508 452.467 182.262 499.548 214.526 535.284C246.805 571.021 291.969 592.495 340.068 594.969C440.403 600.241 526.727 524.858 532.006 424.92C537.299 324.982 458.567 240.446 358.246 235.159C257.911 229.872 173.262 304.47 167.999 404.423" fill="white"/>
<path d="M386.99 239.201C386.99 239.201 376.448 283.898 391.868 380.178C392.432 383.644 396.361 386.191 402.618 386.576C434.645 388.635 530.058 387.05 530.058 387.05C530.324 387.006 519.797 318.717 473.403 280.877C422.739 239.394 386.99 239.172 386.99 239.172V239.201Z" fill="#0069B4"/>
<path d="M337.928 442.398C322.33 441.02 311.284 448.825 308.481 455.771C305.679 462.717 258.588 554.998 257.728 571.186C274.987 580.827 293.61 587.817 312.959 591.905C330.114 595 347.61 595.874 364.988 594.452C379.177 593.475 393.604 591.016 407.008 586.248C403.761 584.396 364.35 475.854 358.493 459.518C357.085 454.986 354.401 450.973 350.739 447.922C347.091 444.886 342.643 442.975 337.928 442.398Z" fill="#0059A7"/>
<path d="M530.578 439.652C530.578 439.652 511.599 445.014 473.701 445.591C448.895 445.976 426.343 443.281 421.613 447.191C420.813 447.842 420.219 448.716 419.938 449.708C419.656 450.701 419.686 451.767 420.027 452.73C420.027 452.73 448.243 539.279 450.704 548.536C451.683 553.601 451.623 558.799 450.541 563.849C449.651 566.974 482.597 548.388 508.856 503.957C520.496 484.216 527.42 462.386 530.563 439.652H530.578Z" fill="#0052A2"/>
<path d="M330.56 236.475C327.683 234.846 271.651 238.045 224.382 282.549C224.382 282.549 187.137 316.257 174.8 365.693C174.8 365.693 272.497 386.353 284.284 380.103C286.701 378.637 288.51 376.341 289.34 373.631C299.749 337.272 322.82 262.289 331.657 238.401C332.235 236.846 330.738 236.594 330.56 236.505" fill="#0069B4"/>
<path d="M252.803 437.058C253.189 438.184 253.233 439.413 252.952 440.568C252.67 441.738 252.062 442.789 251.202 443.619C250.179 444.552 212.977 524.111 216.002 537.07C198.195 519.254 179.527 488.523 173.359 460.428C169.905 446.048 168.021 431.312 167.755 416.531C168.881 418.679 213.126 429.92 248.148 433.252C249.171 433.474 250.12 433.933 250.935 434.585C251.751 435.251 252.388 436.095 252.818 437.043" fill="#0069B4"/>
<g opacity="0.16">
<path d="M459.832 270.496C480.011 302.767 496.321 360.556 488.893 401.254C470.181 503.947 407.329 550.554 307.631 547.281C266.322 545.918 220.996 532.382 192.72 507.131C222.019 553.975 269.347 590.023 336.885 594.777C436.953 602.626 527.473 525.347 531.551 425.305C536.488 360.704 498.367 294.636 463.509 273.547" fill="#1A1819"/>
</g>
<path style="mix-blend-mode:overlay" d="M169.701 387.443C184.345 289.495 271.173 221.149 376.463 236.278C478.678 248.671 544.843 341.872 530.206 439.819C515.562 537.767 422.993 605.444 323.444 590.984C223.895 576.518 155.064 485.391 169.701 387.443Z" fill="url(#paint2_radial_1309_26003)"/>
<defs>
<filter id="filter0_f_1309_26003" x="0" y="0" width="733.5" height="974.346" filterUnits="userSpaceOnUse" color-interpolation-filters="sRGB">
<feFlood flood-opacity="0" result="BackgroundImageFix"/>
<feBlend mode="normal" in="SourceGraphic" in2="BackgroundImageFix" result="shape"/>
<feGaussianBlur stdDeviation="4" result="effect1_foregroundBlur_1309_26003"/>
</filter>
<filter id="filter1_f_1309_26003" x="201" y="931" width="296" height="27" filterUnits="userSpaceOnUse" color-interpolation-filters="sRGB">
<feFlood flood-opacity="0" result="BackgroundImageFix"/>
<feBlend mode="normal" in="SourceGraphic" in2="BackgroundImageFix" result="shape"/>
<feGaussianBlur stdDeviation="0.5" result="effect1_foregroundBlur_1309_26003"/>
</filter>
<filter id="filter2_f_1309_26003" x="182.4" y="921.4" width="333.2" height="47.2" filterUnits="userSpaceOnUse" color-interpolation-filters="sRGB">
<feFlood flood-opacity="0" result="BackgroundImageFix"/>
<feBlend mode="normal" in="SourceGraphic" in2="BackgroundImageFix" result="shape"/>
<feGaussianBlur stdDeviation="1.3" result="effect1_foregroundBlur_1309_26003"/>
</filter>
<radialGradient id="paint0_radial_1309_26003" cx="0" cy="0" r="1" gradientUnits="userSpaceOnUse" gradientTransform="translate(354.268 897.889) rotate(-174.203) scale(206.825 110.918)">
<stop stop-color="#00FFFF"/>
<stop offset="0.663762" stop-color="#0CF2FF" stop-opacity="0"/>
<stop offset="1" stop-color="#2ED0FF" stop-opacity="0"/>
</radialGradient>
<linearGradient id="paint1_linear_1309_26003" x1="352.117" y1="-147" x2="352.117" y2="994.235" gradientUnits="userSpaceOnUse">
<stop offset="0.256722" stop-color="white" stop-opacity="0"/>
<stop offset="0.8" stop-color="#9FF9FF" stop-opacity="0.3"/>
</linearGradient>
<radialGradient id="paint2_radial_1309_26003" cx="0" cy="0" r="1" gradientUnits="userSpaceOnUse" gradientTransform="translate(288.531 312.403) rotate(66.8985) scale(261.533 343.129)">
<stop stop-color="#00FFFF"/>
<stop offset="0.09" stop-color="#0CF2FF" stop-opacity="0.95"/>
<stop offset="0.25" stop-color="#2ED0FF" stop-opacity="0.82"/>
<stop offset="0.47" stop-color="#649AFF" stop-opacity="0.6"/>
<stop offset="0.74" stop-color="#AF4FFF" stop-opacity="0.31"/>
<stop offset="1" stop-color="#FF00FF" stop-opacity="0"/>
</radialGradient>
</defs>
</svg>
