<svg width="482" height="325" viewBox="0 0 482 325" fill="none" xmlns="http://www.w3.org/2000/svg">
<g clip-path="url(#clip0_1413_24446)">
<path d="M148.393 286.694L167.517 256.664L235.044 442.512H216.784L148.393 286.694Z" fill="url(#paint0_linear_1413_24446)"/>
<path d="M87.8821 256.664H167.995L148.393 287.464H38.9082L87.8821 256.664Z" fill="url(#paint1_linear_1413_24446)"/>
<path d="M38.9082 287.463H148.871L216.762 442.234H155.803L38.9082 287.463Z" fill="url(#paint2_linear_1413_24446)"/>
<path fill-rule="evenodd" clip-rule="evenodd" d="M55.8469 209.377C52.0027 209.377 49.7555 213.71 51.9703 216.852L67.7922 239.298C68.6807 240.558 70.1266 241.308 71.6688 241.308H98.955L115.242 248.252C117.062 249.027 118.975 247.366 118.463 245.456L117.351 241.308H124.464C127.869 241.308 130.164 237.827 128.824 234.698L119.209 212.252C118.462 210.508 116.747 209.377 114.85 209.377H55.8469Z" fill="url(#paint3_linear_1413_24446)"/>
<path fill-rule="evenodd" clip-rule="evenodd" d="M53.0344 211.639C49.1902 211.639 46.943 215.972 49.1578 219.114L64.9797 241.559C65.8682 242.82 67.3141 243.57 68.8563 243.57H95.9002C96.0601 243.57 96.2182 243.602 96.3653 243.665L112.43 250.513C114.249 251.289 116.162 249.628 115.65 247.718L114.939 245.062C114.737 244.309 115.304 243.57 116.084 243.57H121.652C125.056 243.57 127.352 240.089 126.011 236.959L116.397 214.514C115.65 212.77 113.935 211.639 112.037 211.639H53.0344Z" fill="url(#paint4_linear_1413_24446)" fill-opacity="0.95"/>
<path d="M108.681 226.046C110.734 228.325 110.814 230.917 108.86 231.835C106.905 232.754 103.656 231.65 101.603 229.371C99.5494 227.092 99.4692 224.5 101.424 223.581C103.378 222.663 106.627 223.766 108.681 226.046Z" fill="white"/>
<path d="M94.0675 226.046C96.1209 228.325 96.2011 230.917 94.2465 231.835C92.292 232.754 89.0429 231.65 86.9895 229.371C84.9361 227.092 84.8559 224.5 86.8105 223.581C88.765 222.663 92.0141 223.766 94.0675 226.046Z" fill="white"/>
<path d="M78.4855 226.046C80.5389 228.325 80.619 230.917 78.6645 231.835C76.71 232.754 73.4609 231.65 71.4075 229.371C69.3541 227.092 69.2739 224.5 71.2284 223.581C73.183 222.663 76.4321 223.766 78.4855 226.046Z" fill="white"/>
<path d="M362.209 285.839L343.947 256.664L275.591 475.635L292.748 486.711L362.209 285.839Z" fill="url(#paint5_linear_1413_24446)"/>
<path d="M419.994 256.664H343.492L362.211 286.587H466.76L419.994 256.664Z" fill="url(#paint6_linear_1413_24446)" fill-opacity="0.8"/>
<path d="M466.76 286.586H361.754L293.861 480.077H335L466.76 286.586Z" fill="url(#paint7_linear_1413_24446)"/>
<path d="M371.908 214.075C373.226 210.185 376.897 207.585 381.004 207.634L435.302 208.272C442.706 208.359 447.16 216.516 443.229 222.792L431.616 241.335C429.882 244.105 426.844 245.786 423.577 245.786H374.395C367.901 245.786 363.327 239.408 365.41 233.257L371.908 214.075Z" fill="#0051AF"/>
<path d="M374.627 216.761C375.93 212.867 379.591 210.254 383.696 210.286L436.513 210.696C443.92 210.754 448.406 218.9 444.495 225.19L433.642 242.644C431.91 245.428 428.865 247.121 425.586 247.121H377.644C371.165 247.121 366.593 240.769 368.649 234.625L374.627 216.761Z" fill="url(#paint8_linear_1413_24446)"/>
<path opacity="0.8" d="M430.503 216.66H437.631L422.911 242.149L415.783 242.149L430.503 216.66Z" fill="white"/>
<path opacity="0.8" d="M412.695 227.584H419.427L411.593 242.149L404.861 242.149L412.695 227.584Z" fill="white"/>
<path opacity="0.8" d="M393.231 217.829C390.77 217.662 388.157 218.204 385.731 219.383C383.305 220.561 381.179 222.323 379.627 224.44C378.076 226.557 377.171 228.931 377.029 231.254C376.888 233.576 377.517 235.742 378.835 237.468C380.153 239.194 382.099 240.402 384.421 240.935C386.743 241.468 389.333 241.302 391.855 240.457C394.378 239.613 396.717 238.129 398.57 236.199C400.422 234.269 401.701 231.981 402.243 229.633L389.771 229.52L393.231 217.829Z" fill="white"/>
<path d="M396.39 216.165C399.511 216.374 402.176 217.713 403.839 219.905C405.501 222.097 406.035 224.978 405.33 227.955L392.943 227.788L396.39 216.165Z" fill="white"/>
<path d="M142.859 267.701L171.5 208.199H332.663L365.71 267.701H142.859Z" fill="url(#paint9_linear_1413_24446)" stroke="url(#paint10_linear_1413_24446)" stroke-width="0.797097"/>
<path d="M190.082 214.328H316.313L338.378 259.45H171.096L190.082 214.328Z" fill="url(#paint11_linear_1413_24446)"/>
<path d="M203.631 468.632L143.449 268.565H365.186L308.987 468.632H203.631Z" fill="url(#paint12_linear_1413_24446)" stroke="#BBFBFF" stroke-width="1.82065"/>
<path d="M177.766 243.041H330.168L338.891 259.449H171.096L177.766 243.041Z" fill="url(#paint13_linear_1413_24446)"/>
<path d="M324.522 178.949L347.613 224.584L338.89 259.964L315.799 214.329L324.522 178.949Z" fill="url(#paint14_linear_1413_24446)"/>
<path d="M186.492 176.387L161.861 228.174L171.098 259.452L190.084 214.33L186.492 176.387Z" fill="url(#paint15_linear_1413_24446)"/>
<g clip-path="url(#clip1_1413_24446)">
<path d="M131.498 150.256L132.603 151.332C142.826 161.215 196.663 211.585 203.67 218.138C204.158 218.597 204.42 218.841 204.42 218.841L215.039 182.487C215.039 182.487 180.788 150.916 155.444 127.645C154.478 126.789 153.024 126.583 151.802 127.152C147.039 129.357 135.7 135.858 131.467 145.659C131.231 146.209 131.015 146.764 130.825 147.333C130.481 148.367 130.727 149.476 131.498 150.256Z" fill="#252533"/>
<path d="M131.498 150.259L132.603 151.335L203.67 221.135V209.277L139.857 146.456L131.467 145.662C131.231 146.212 131.015 146.767 130.825 147.336C130.481 148.37 130.727 149.479 131.498 150.259Z" fill="#131516"/>
<path d="M144.305 138.751C138.386 144.415 131.846 147.916 129.704 146.572C127.556 145.228 130.618 139.545 136.537 133.882C142.455 128.218 148.995 124.717 151.138 126.061C153.285 127.405 150.223 133.088 144.305 138.751Z" fill="white"/>
<path d="M144.247 138.824C139.058 143.789 133.334 146.855 131.454 145.679C129.574 144.502 132.256 139.522 137.445 134.557C142.628 129.592 148.357 126.526 150.237 127.703C152.117 128.879 149.436 133.859 144.247 138.824Z" fill="#88999D"/>
<path d="M105.552 107.075C107.33 110.089 116.716 122.158 119.634 126.195C121.73 129.094 123.867 130.902 125.984 131.944C126.529 132.212 127.048 132.518 127.546 132.853L134.173 139.478L140.457 145.539L152.427 132.385L153.747 130.935L153.244 130.457L151.929 129.218L147.135 124.415C149.062 120.919 148.492 117.188 149.118 114.318C150.526 107.884 156.383 100.56 151.24 100.594C145.599 100.627 141.52 110.366 141.52 110.366C141.52 110.366 138.032 103.837 135.242 93.7774C132.653 84.4258 127.063 87.4202 128.224 93.0599C129.503 99.2497 132.288 105.315 132.288 105.315L131.173 105.731C131.173 105.731 127.854 101.78 124.237 91.8641C121.412 84.1245 114.866 87.712 117.738 94.3275C119.876 99.2545 124.849 107.52 124.849 107.52L124.109 107.869C124.109 107.869 119.742 102.325 116.326 94.4997C113.649 88.3626 107.402 91.3474 109.626 96.7288C111.851 102.11 118.016 112.423 118.016 112.423L117.106 112.777C117.106 112.777 113.844 109.386 110.916 104.459C107.037 97.9342 102.259 101.512 105.552 107.075Z" fill="#FFB287"/>
<path d="M134.173 139.477L140.456 145.538L152.427 132.383L153.243 130.456L153.557 129.714L152.314 128.652C152.314 128.652 152.18 128.858 151.928 129.217C150.305 131.494 143.677 139.85 134.204 139.439L134.173 139.477Z" fill="#ED8366"/>
<path opacity="0.64" d="M141.525 110.365C141.525 110.365 141.479 110.418 141.397 110.518C141.31 110.624 141.176 110.772 141.006 110.968C140.847 111.159 140.657 111.394 140.441 111.662C140.231 111.929 139.999 112.24 139.763 112.58C139.64 112.747 139.517 112.924 139.403 113.116C139.28 113.302 139.157 113.494 139.028 113.69C138.802 114.101 138.53 114.512 138.314 114.972C138.201 115.197 138.083 115.421 137.965 115.656C137.862 115.895 137.759 116.134 137.652 116.373L137.487 116.737L137.354 117.11L137.081 117.861C136.907 118.363 136.794 118.885 136.629 119.382C136.532 119.894 136.419 120.401 136.311 120.894C136.249 121.391 136.172 121.869 136.1 122.333C136.054 122.563 136.059 122.788 136.038 123.008C136.018 123.228 136.002 123.438 135.982 123.644C135.951 124.051 135.895 124.429 135.905 124.763C135.905 125.098 135.884 125.395 135.874 125.634C135.848 126.122 135.817 126.409 135.817 126.409C135.817 126.409 135.715 126.146 135.571 125.672C135.499 125.438 135.406 125.146 135.319 124.811C135.211 124.476 135.155 124.094 135.098 123.673C135.047 123.252 134.949 122.793 134.949 122.305C134.949 121.817 134.934 121.295 134.949 120.76C135.011 120.224 135.078 119.674 135.165 119.109C135.304 118.559 135.432 117.99 135.612 117.44C135.833 116.899 135.992 116.34 136.28 115.833C136.413 115.579 136.542 115.321 136.675 115.072C136.819 114.828 136.973 114.594 137.128 114.364C137.41 113.891 137.78 113.494 138.088 113.097C138.432 112.719 138.751 112.365 139.09 112.073C139.26 111.925 139.409 111.776 139.568 111.652C139.732 111.528 139.881 111.413 140.03 111.303C140.318 111.083 140.59 110.915 140.811 110.781C141.037 110.643 141.212 110.557 141.335 110.494C141.464 110.427 141.536 110.389 141.536 110.389L141.525 110.365Z" fill="#ED8366"/>
<path d="M154.306 128.936L151.239 126.113C151.249 126.142 151.008 126.147 151.018 126.175C151.619 128.318 148.989 133.073 143.779 137.833C137.511 143.558 131.665 147.777 129.522 146.433L132.913 149.256C135.061 150.6 141.734 146.802 147.653 141.138C153.571 135.474 155.914 130.385 154.311 128.936H154.306Z" fill="white"/>
<path d="M312.881 263.372C309.787 265.076 300.695 268.047 286.322 266.528L286.937 207.111L275.948 180.344L278.204 172.987C278.204 172.987 272.222 169.016 277.375 169.957C282.844 170.957 287.467 173.928 295.397 180.573C301.259 185.485 309.24 194.376 310.403 214.216C311.026 224.766 314.462 253.822 314.513 260.75C314.513 261.809 313.906 262.809 312.872 263.38L312.881 263.372Z" fill="#252533"/>
<path d="M288.757 269.308L294.064 269.345L291.107 201.727L288.621 267.789C288.586 268.345 288.638 268.856 288.766 269.308H288.757Z" fill="#272735"/>
<path d="M293.836 186.191L289.752 221.808L278.321 204.114L270.101 191.385L265.071 183.603C265.071 183.603 265.153 183.517 265.313 183.368C266.556 182.187 272.428 176.963 279.374 176.801C284.07 176.691 289.259 178.886 293.836 186.191Z" fill="#252533"/>
<path d="M258.526 185.467H240.133C216.917 185.467 204.16 204.902 204.16 226.518H295.973C295.973 204.902 281.742 185.467 258.526 185.467Z" fill="#252533"/>
<path d="M276.724 281.12H222.092V204.313C222.092 193.311 231.668 184.395 243.485 184.395H255.332C267.148 184.395 276.724 193.311 276.724 204.313V281.12Z" fill="white"/>
<path d="M230.907 200.564C230.907 200.564 230.521 271 233.219 280.567C235.885 290.024 224.613 282.997 224.613 282.997L225.985 189.49L230.907 200.564Z" fill="#CEBABA"/>
<path d="M268.096 200.566C268.096 200.566 268.481 271.002 265.784 280.569C263.118 290.026 274.389 282.999 274.389 282.999L273.018 191.727L268.096 200.566Z" fill="#CEBABA"/>
<path d="M259.469 267.924L252.065 209.264C252.379 209.03 252.666 208.748 252.908 208.418L256.545 203.443C258.117 201.295 257.336 198.358 254.87 197.138L254.768 197.091C251.413 195.431 247.39 195.431 244.035 197.091L243.933 197.138C241.472 198.358 240.691 201.295 242.258 203.443L245.895 208.418C246.173 208.796 246.501 209.107 246.866 209.36L239.478 267.924C239.412 268.326 239.55 268.732 239.853 269.029L248.449 277.404C249.003 277.945 249.933 277.945 250.488 277.404L259.083 269.029C259.386 268.737 259.525 268.326 259.458 267.924H259.469Z" fill="#CEBABA"/>
<path d="M249.482 179.623C234.275 179.623 217.902 191.165 237.116 208.749L249.482 196.107L261.848 208.749C281.063 191.161 264.69 179.623 249.482 179.623Z" fill="#CEBABA"/>
<path d="M256.62 199.324L252.977 204.299C251.297 206.599 247.655 206.599 245.975 204.299L242.337 199.324C240.765 197.181 241.546 194.239 244.007 193.019L244.11 192.971C247.465 191.312 251.487 191.312 254.842 192.971L254.945 193.019C257.406 194.239 258.187 197.181 256.62 199.324Z" fill="#F93E3E"/>
<path d="M256.62 199.324C256.62 199.324 252.998 194.942 249.401 194.942C245.805 194.942 242.337 199.324 242.337 199.324C240.765 197.181 241.546 194.239 244.007 193.019L244.11 192.971C247.465 191.312 251.487 191.312 254.842 192.971L254.945 193.019C257.406 194.239 258.187 197.181 256.62 199.324Z" fill="#BA3131"/>
<path d="M300.745 292.696L281.782 291.261C274.991 291.261 269.488 284.234 269.488 275.562L269.858 211.564H295.977L300.745 292.696Z" fill="#252533"/>
<path d="M229.335 211.079V275.483C229.335 284.155 223.062 291.182 215.319 291.182L199.028 292.617L204.166 211.079L206.863 197.623L229.335 211.079Z" fill="#252533"/>
<path d="M213.876 195.157C213.136 196.716 213.748 198.635 215.032 199.725L222.939 206.436L215.571 212.272C214.272 213.301 213.578 214.97 213.727 216.678C214.292 223.15 218.952 240.753 229.335 259.293L229.371 254.816L228.523 194.645C228.523 194.645 226.776 179.74 247.476 179.74C247.476 179.74 222.348 177.257 213.871 195.162L213.876 195.157Z" fill="#131516"/>
<path d="M282.784 212.275C284.038 213.303 284.706 214.968 284.562 216.68C284.022 223.152 278.536 242.42 269.499 259.296L269.463 251.757L270.28 194.643C270.28 194.643 270.434 193.285 270.1 191.385C269.678 189.018 268.502 185.818 265.312 183.368C266.555 182.187 272.427 176.963 279.373 176.801C277.359 183.502 277.251 185.435 279.558 187.736C281.433 189.611 283.164 192.404 284.423 195.16C285.137 196.719 284.546 198.637 283.308 199.728L278.32 204.114L275.674 206.439L282.784 212.275Z" fill="#131516"/>
<path d="M204.962 186.189L209.046 221.806L220.477 204.112L228.697 191.384L233.727 183.601C233.727 183.601 233.645 183.515 233.486 183.366C232.242 182.185 226.37 176.961 219.424 176.799C214.728 176.689 209.539 178.884 204.962 186.189Z" fill="#252533"/>
<path d="M216.013 212.275C214.76 213.303 214.092 214.968 214.236 216.68C214.775 223.152 220.262 242.42 229.299 259.296L229.335 251.757L228.518 194.643C228.518 194.643 228.364 193.285 228.698 191.385C229.119 189.018 230.296 185.818 233.486 183.368C232.243 182.187 226.371 176.963 219.425 176.801C221.439 183.502 221.547 185.435 219.24 187.736C217.365 189.611 215.633 192.404 214.375 195.16C213.66 196.719 214.251 198.637 215.489 199.728L220.478 204.114L223.124 206.439L216.013 212.275Z" fill="#131516"/>
<path d="M281.579 208.377L274.726 202.641L282.083 196.045C283.28 194.973 283.927 193.05 283.157 191.553C271.849 169.564 251.89 174.955 251.89 174.955C269.537 175.782 269.522 191.046 269.522 191.046L269.455 253.862C277.896 236.168 282.766 219.077 283.29 212.71C283.429 211.027 282.782 209.386 281.574 208.377H281.579Z" fill="#323244"/>
<path d="M217.204 208.377L224.058 202.641L216.701 196.045C215.504 194.973 214.857 193.05 215.627 191.553C226.935 169.564 246.894 174.955 246.894 174.955C229.247 175.782 229.262 191.046 229.262 191.046L229.329 253.862C220.888 236.168 216.018 219.077 215.494 212.71C215.355 211.027 216.002 209.386 217.209 208.377H217.204Z" fill="#323244"/>
<path d="M249.48 174.391C233.682 174.391 216.666 186.383 236.631 204.655L249.48 191.52L262.329 204.655C282.293 186.383 265.283 174.391 249.48 174.391Z" fill="white"/>
<path d="M235.563 181.469C235.563 187.032 241.394 191.538 248.961 191.538C256.529 191.538 262.663 187.032 262.663 181.469V169.711H235.558V181.469H235.563Z" fill="#FFB287"/>
<path d="M235.563 178.426C235.563 183.043 241.394 186.783 248.961 186.783C256.529 186.783 262.663 183.043 262.663 178.426V160.785H235.558V178.426H235.563Z" fill="#F58D6C"/>
<path d="M259.092 266.346L250.497 274.726C249.942 275.267 249.012 275.267 248.457 274.726L239.862 266.346C239.559 266.054 239.42 265.647 239.487 265.241L246.377 208.528L246.782 205.189L246.931 203.965H252.028L252.177 205.189L252.68 209.351C252.68 209.351 252.686 209.356 252.686 209.361L259.467 265.241C259.534 265.647 259.395 266.054 259.092 266.346Z" fill="#F93E3E"/>
<path d="M223.082 97.5859C223.226 97.8729 223.359 98.1839 223.488 98.5187C223.323 98.2126 223.19 97.9016 223.082 97.5859Z" fill="#993E39"/>
<path opacity="0.48" d="M252.687 209.359C252.687 209.359 252.687 209.354 252.682 209.349C252.235 207.943 251.305 206.819 249.532 206.819C248.058 206.819 247.03 207.321 246.378 208.526L246.784 205.188C246.784 205.188 248.248 206.226 249.445 206.226C250.642 206.226 252.178 205.188 252.178 205.188L252.687 209.359Z" fill="#BA3131"/>
<g clip-path="url(#clip2_1413_24446)">
<path d="M345.907 96.0745C345.907 108.69 343.435 121.183 338.631 132.838C333.827 144.494 326.786 155.084 317.91 164.005C309.034 172.925 298.496 180.001 286.899 184.828C275.302 189.656 262.873 192.14 250.321 192.139C237.769 192.14 225.339 189.656 213.743 184.828C202.146 180.001 191.609 172.925 182.733 164.005C173.857 155.084 166.817 144.494 162.013 132.838C157.21 121.183 154.738 108.69 154.738 96.0745C154.738 83.4582 157.21 70.9656 162.013 59.3095C166.816 47.6534 173.857 37.0623 182.732 28.141C191.608 19.2196 202.145 12.1428 213.742 7.31438C225.339 2.48595 237.768 0.000443726 250.321 0C262.874 -7.80276e-09 275.303 2.48491 286.901 7.31315C298.498 12.1414 309.035 19.2183 317.911 28.1397C326.787 37.0611 333.828 47.6524 338.632 59.3087C343.435 70.9649 345.907 83.4579 345.907 96.0745Z" fill="white"/>
<path d="M209.551 99.0757V99.0348C209.682 98.7225 209.744 98.3856 209.735 98.0467C209.739 97.6919 209.673 97.3399 209.541 97.0111C209.409 96.6824 209.214 96.3835 208.967 96.1317C208.72 95.8799 208.426 95.6803 208.103 95.5443C207.779 95.4084 207.432 95.3389 207.081 95.3399H157.392C157.044 95.3385 156.698 95.4067 156.376 95.541C156.054 95.6754 155.761 95.8732 155.514 96.1226C155.267 96.372 155.072 96.668 154.939 96.9942C154.806 97.3204 154.737 97.6702 154.738 98.0232V98.1111C155.378 121.598 164.45 144.044 180.255 161.25C180.274 161.267 180.295 161.281 180.318 161.291C180.562 161.548 180.855 161.753 181.179 161.893C181.503 162.032 181.851 162.104 182.203 162.103C182.731 162.103 183.246 161.945 183.685 161.65C184.124 161.354 184.467 160.934 184.67 160.441L209.551 99.0757ZM293.855 178.799C293.832 178.772 293.82 178.737 293.822 178.701L263.846 104.754C263.821 104.714 263.806 104.669 263.803 104.622C262.719 101.892 260.853 99.5537 258.444 97.9083C256.035 96.2629 253.195 95.3857 250.289 95.3903C247.563 95.3876 244.891 96.1615 242.579 97.6233C240.267 99.0851 238.408 101.176 237.214 103.657L206.767 178.721C206.636 179.051 206.57 179.404 206.573 179.76C206.577 180.232 206.703 180.694 206.937 181.101C207.172 181.508 207.507 181.846 207.91 182.081C207.93 182.122 207.967 182.122 208.027 182.166C221.174 188.739 235.643 192.15 250.306 192.135C264.967 192.158 279.436 188.749 292.581 182.176C292.608 182.165 292.631 182.146 292.648 182.122C293.075 181.897 293.431 181.556 293.678 181.138C293.925 180.72 294.052 180.24 294.046 179.753C294.046 179.418 293.984 179.087 293.861 178.776L293.855 178.799ZM345.907 98.1314C345.897 98.1066 345.889 98.0805 345.887 98.0537C345.889 97.6992 345.823 97.3473 345.69 97.019C345.558 96.6907 345.363 96.392 345.117 96.1404C344.87 95.8887 344.577 95.6893 344.253 95.553C343.93 95.4167 343.583 95.3465 343.233 95.3465H293.544C293.194 95.3465 292.848 95.4166 292.525 95.553C292.202 95.6894 291.909 95.8891 291.663 96.1408C291.417 96.3925 291.222 96.6915 291.091 97.0198C290.959 97.3481 290.893 97.6995 290.897 98.0537C290.891 98.41 290.961 98.7631 291.104 99.0889L315.969 160.441C316.162 160.935 316.498 161.357 316.933 161.653C317.368 161.95 317.881 162.107 318.405 162.103C318.751 162.106 319.094 162.039 319.413 161.906C319.733 161.773 320.023 161.577 320.267 161.328C320.297 161.297 320.332 161.271 320.371 161.25C336.163 144.043 345.239 121.61 345.907 98.1314Z" fill="#0C70C3"/>
<path d="M263.959 8.54134H263.999C264.079 24.7884 267.154 40.8777 273.064 55.9831L277.657 67.3429C277.825 67.7441 278.085 68.0993 278.415 68.3792C278.745 68.6592 279.135 68.8559 279.555 68.9534H279.582C279.662 68.963 279.741 68.979 279.819 69.0009H279.849H280.096H338.312C339.018 69.0009 339.695 68.7186 340.196 68.2153C340.697 67.712 340.981 67.0288 340.986 66.3143C340.985 66.0314 340.935 65.7505 340.839 65.4849V65.4613C335.323 49.0808 325.573 34.495 312.604 23.2205C299.635 11.9461 283.919 4.39437 267.091 1.35064C267.05 1.3465 267.008 1.3465 266.967 1.35064C266.857 1.34049 266.737 1.32379 266.633 1.32379C265.929 1.32374 265.253 1.60462 264.753 2.10573C264.252 2.60684 263.967 3.2878 263.959 4.00047V8.54134Z" fill="#0C70C3"/>
<path d="M220.517 69.0009H162.319L162.315 69.0112C161.611 69.0059 160.938 68.7193 160.441 68.2144C159.944 67.7095 159.664 67.027 159.661 66.3143C159.661 66.033 159.704 65.753 159.788 65.4849C159.794 65.4627 159.794 65.4397 159.788 65.4175C165.311 49.0495 175.061 34.4761 188.025 23.2098C200.989 11.9436 216.695 4.39477 233.513 1.34733C233.556 1.34256 233.6 1.34256 233.643 1.34733C233.76 1.33718 233.867 1.32049 233.977 1.32049C234.327 1.31646 234.674 1.38275 234.998 1.51545C235.322 1.64816 235.618 1.84439 235.866 2.09334C236.115 2.34229 236.312 2.63899 236.447 2.96574C236.582 3.29248 236.651 3.64309 236.651 3.99717V8.53803C236.553 24.7761 233.474 40.8545 227.57 55.9529L222.971 67.3325C222.784 67.7927 222.475 68.1919 222.079 68.4862C221.683 68.7805 221.214 68.9587 220.725 69.0009H220.517Z" fill="#0C70C3"/>
</g>
<g opacity="0.2">
<path fill-rule="evenodd" clip-rule="evenodd" d="M234.928 175.571C287.718 175.571 330.513 132.559 330.513 79.5016C330.513 58.2409 323.641 38.5932 312.009 22.6797C332.742 40.3022 345.907 66.6398 345.907 96.0678C345.907 149.126 303.112 192.137 250.323 192.137C218.686 192.137 190.64 176.69 173.242 152.89C189.89 167.04 211.418 175.571 234.928 175.571Z" fill="black"/>
</g>
<path style="mix-blend-mode:overlay" d="M156.395 81.9194C164.048 29.3482 209.276 -7.3576 264.092 0.730682C317.307 7.35202 351.729 57.3515 344.079 109.923C336.426 162.494 288.209 198.843 236.382 191.112C184.556 183.377 148.745 134.491 156.395 81.9194Z" fill="url(#paint16_radial_1413_24446)"/>
</g>
<g style="mix-blend-mode:screen">
<path d="M97.1699 27.3105H409.108L338.709 259.14H171.21L97.1699 27.3105Z" fill="url(#paint17_linear_1413_24446)"/>
</g>
<g style="mix-blend-mode:darken">
<ellipse cx="401.217" cy="271.276" rx="23.6684" ry="3.6413" fill="black" fill-opacity="0.1"/>
</g>
<g style="mix-blend-mode:darken">
<ellipse cx="104.452" cy="271.276" rx="23.6684" ry="3.6413" fill="black" fill-opacity="0.1"/>
</g>
</g>
<defs>
<linearGradient id="paint0_linear_1413_24446" x1="164.733" y1="256.664" x2="200.163" y2="439.403" gradientUnits="userSpaceOnUse">
<stop stop-color="#E89900"/>
<stop offset="0.635" stop-color="#DE9B18" stop-opacity="0.53"/>
<stop offset="1" stop-color="#F2FEFF"/>
</linearGradient>
<linearGradient id="paint1_linear_1413_24446" x1="38.9082" y1="287.464" x2="151.97" y2="237.653" gradientUnits="userSpaceOnUse">
<stop stop-color="#FFA439"/>
<stop offset="1" stop-color="#FFE0A5"/>
</linearGradient>
<linearGradient id="paint2_linear_1413_24446" x1="91.9774" y1="287.463" x2="114.459" y2="448.073" gradientUnits="userSpaceOnUse">
<stop stop-color="#FFC14A"/>
<stop offset="1" stop-color="#F2FEFF"/>
</linearGradient>
<linearGradient id="paint3_linear_1413_24446" x1="119.478" y1="249.9" x2="100.02" y2="192.929" gradientUnits="userSpaceOnUse">
<stop stop-color="#BB4300"/>
<stop offset="1" stop-color="#F87B00" stop-opacity="0.79"/>
</linearGradient>
<linearGradient id="paint4_linear_1413_24446" x1="126.4" y1="217.036" x2="89.2569" y2="277.331" gradientUnits="userSpaceOnUse">
<stop stop-color="#FFB55D"/>
<stop offset="1" stop-color="#FFDB1F"/>
</linearGradient>
<linearGradient id="paint5_linear_1413_24446" x1="346.605" y1="256.664" x2="208.626" y2="342.532" gradientUnits="userSpaceOnUse">
<stop stop-color="#26C8DE"/>
<stop offset="0.3714" stop-color="#38BFD5"/>
<stop offset="1" stop-color="#F4FDFF"/>
</linearGradient>
<linearGradient id="paint6_linear_1413_24446" x1="466.76" y1="286.587" x2="358.198" y2="239.574" gradientUnits="userSpaceOnUse">
<stop stop-color="#5EBEFF"/>
<stop offset="1" stop-color="#61FBFF"/>
</linearGradient>
<linearGradient id="paint7_linear_1413_24446" x1="332.999" y1="477.986" x2="353.526" y2="310.464" gradientUnits="userSpaceOnUse">
<stop stop-color="#F2FEFF"/>
<stop offset="1" stop-color="#02D9E7"/>
</linearGradient>
<linearGradient id="paint8_linear_1413_24446" x1="392.118" y1="243.057" x2="438.089" y2="187.905" gradientUnits="userSpaceOnUse">
<stop stop-color="#00B3FF"/>
<stop offset="1" stop-color="#36FFFF"/>
</linearGradient>
<linearGradient id="paint9_linear_1413_24446" x1="493.161" y1="148.384" x2="119.345" y2="202.004" gradientUnits="userSpaceOnUse">
<stop stop-color="white"/>
<stop offset="1" stop-color="#0073DD"/>
</linearGradient>
<linearGradient id="paint10_linear_1413_24446" x1="361.066" y1="212.288" x2="245.88" y2="267.503" gradientUnits="userSpaceOnUse">
<stop stop-color="#7CFFE7"/>
<stop offset="1" stop-color="#9CFFE7"/>
</linearGradient>
<linearGradient id="paint11_linear_1413_24446" x1="335.116" y1="214.328" x2="174.509" y2="230.462" gradientUnits="userSpaceOnUse">
<stop stop-color="#0F87E1"/>
<stop offset="1" stop-color="#005083"/>
</linearGradient>
<linearGradient id="paint12_linear_1413_24446" x1="122.659" y1="267.637" x2="286.005" y2="320.452" gradientUnits="userSpaceOnUse">
<stop stop-color="#59D7FF"/>
<stop offset="1" stop-color="#0164D9"/>
<stop offset="1.0001" stop-color="#007DF1"/>
</linearGradient>
<linearGradient id="paint13_linear_1413_24446" x1="251.658" y1="243.041" x2="251.658" y2="259.449" gradientUnits="userSpaceOnUse">
<stop stop-color="#004570" stop-opacity="0"/>
<stop offset="1" stop-color="#00609F" stop-opacity="0.41"/>
</linearGradient>
<linearGradient id="paint14_linear_1413_24446" x1="337.864" y1="207.15" x2="328.127" y2="237.92" gradientUnits="userSpaceOnUse">
<stop stop-color="white" stop-opacity="0"/>
<stop offset="1" stop-color="white" stop-opacity="0.5"/>
</linearGradient>
<linearGradient id="paint15_linear_1413_24446" x1="167.506" y1="206.639" x2="181.856" y2="237.925" gradientUnits="userSpaceOnUse">
<stop stop-color="white" stop-opacity="0"/>
<stop offset="1" stop-color="white" stop-opacity="0.5"/>
</linearGradient>
<radialGradient id="paint16_radial_1413_24446" cx="0" cy="0" r="1" gradientUnits="userSpaceOnUse" gradientTransform="translate(193.054 18.5937) rotate(57.5638) scale(149.486 193.556)">
<stop stop-color="white"/>
<stop offset="0.655" stop-color="#007AEB" stop-opacity="0.6"/>
<stop offset="1" stop-color="#0055A3" stop-opacity="0.6"/>
</radialGradient>
<linearGradient id="paint17_linear_1413_24446" x1="272.503" y1="118.343" x2="276.504" y2="279.773" gradientUnits="userSpaceOnUse">
<stop stop-color="#BDE7FF" stop-opacity="0"/>
<stop offset="0.807731" stop-color="#27A4FF" stop-opacity="0.3"/>
<stop offset="1" stop-color="#2287FF" stop-opacity="0.77"/>
</linearGradient>
<clipPath id="clip0_1413_24446">
<rect width="481.184" height="325" fill="white" transform="translate(0.408203)"/>
</clipPath>
<clipPath id="clip1_1413_24446">
<rect width="241.174" height="259.451" fill="white" transform="translate(104.451)"/>
</clipPath>
<clipPath id="clip2_1413_24446">
<rect width="191.169" height="192.139" fill="white" transform="translate(154.738)"/>
</clipPath>
</defs>
</svg>
