<svg width="264" height="178" viewBox="0 0 264 178" fill="none" xmlns="http://www.w3.org/2000/svg">
<g clip-path="url(#clip0_1413_24232)">
<path d="M81.1914 157.02L91.6837 140.572L128.733 242.36H118.714L81.1914 157.02Z" fill="url(#paint0_linear_1413_24232)"/>
<path d="M47.9924 140.572H91.9463L81.1917 157.441H21.123L47.9924 140.572Z" fill="url(#paint1_linear_1413_24232)"/>
<path d="M21.123 157.441H81.454L118.702 242.208H85.2569L21.123 157.441Z" fill="url(#paint2_linear_1413_24232)"/>
<path fill-rule="evenodd" clip-rule="evenodd" d="M34.5539 114.674C30.7079 114.674 28.4611 119.011 30.6796 122.153L36.3306 130.155C37.2193 131.414 38.6641 132.162 40.2049 132.162H57.2296C57.2933 132.959 57.7488 133.729 58.6676 134.12L60.9806 135.104C62.8001 135.879 64.7123 134.217 64.1995 132.307L64.1606 132.162H64.8125C68.2184 132.162 70.5141 128.679 69.1711 125.549L65.7371 117.546C64.9893 115.804 63.2751 114.674 61.3786 114.674H34.5539Z" fill="url(#paint3_linear_1413_24232)"/>
<path fill-rule="evenodd" clip-rule="evenodd" d="M33.0109 115.912C29.165 115.912 26.9182 120.249 29.1366 123.391L34.7876 131.393C35.6764 132.652 37.1211 133.4 38.6619 133.4H54.5919C55.2101 133.4 55.6951 133.907 56.0201 134.432C56.2571 134.816 56.6214 135.144 57.1247 135.358L59.4376 136.342C61.2571 137.117 63.1694 135.455 62.6565 133.545V133.545C62.6369 133.472 62.692 133.4 62.7676 133.4H63.2696C66.6754 133.4 68.9712 129.917 67.6281 126.787L64.1942 118.785C63.4463 117.042 61.7321 115.912 59.8356 115.912H33.0109Z" fill="url(#paint4_linear_1413_24232)" fill-opacity="0.95"/>
<path d="M59.4037 123.802C60.5303 125.051 60.5742 126.47 59.5019 126.973C58.4296 127.476 56.647 126.872 55.5204 125.624C54.3938 124.375 54.3498 122.956 55.4221 122.453C56.4945 121.95 58.2771 122.554 59.4037 123.802Z" fill="white"/>
<path d="M51.3861 123.802C52.5127 125.051 52.5567 126.47 51.4843 126.973C50.412 127.476 48.6294 126.872 47.5028 125.624C46.3762 124.375 46.3322 122.956 47.4045 122.453C48.4769 121.95 50.2595 122.554 51.3861 123.802Z" fill="white"/>
<path d="M42.8373 123.802C43.9639 125.051 44.0078 126.47 42.9355 126.973C41.8631 127.476 40.0806 126.872 38.954 125.624C37.8274 124.375 37.7834 122.956 38.8557 122.453C39.9281 121.95 41.7107 122.554 42.8373 123.802Z" fill="white"/>
<path d="M198.501 156.551L188.482 140.572L150.978 260.501L160.392 266.567L198.501 156.551Z" fill="url(#paint5_linear_1413_24232)"/>
<path d="M230.204 140.572H188.232L198.502 156.961H255.862L230.204 140.572Z" fill="url(#paint6_linear_1413_24232)" fill-opacity="0.8"/>
<path d="M255.862 156.961H198.251L161.002 262.935H183.573L255.862 156.961Z" fill="url(#paint7_linear_1413_24232)"/>
<path d="M202.823 120.193C204.142 116.306 207.812 113.708 211.917 113.757L230.961 113.98C238.368 114.067 242.821 122.231 238.885 128.506L237.84 130.171C236.105 132.937 233.069 134.616 229.805 134.616H211.165C204.669 134.616 200.095 128.234 202.182 122.082L202.823 120.193Z" fill="#0051AF"/>
<path d="M204.325 121.666C205.63 117.775 209.289 115.164 213.393 115.196L231.618 115.337C239.028 115.395 243.514 123.547 239.596 129.838L238.949 130.876C237.217 133.656 234.173 135.346 230.898 135.346H212.924C206.443 135.346 201.87 128.991 203.93 122.845L204.325 121.666Z" fill="url(#paint8_linear_1413_24232)"/>
<path opacity="0.8" d="M235.971 118.664H239.881L231.805 132.624L227.895 132.624L235.971 118.664Z" fill="white"/>
<path opacity="0.8" d="M226.2 124.646H229.893L225.596 132.624L221.902 132.624L226.2 124.646Z" fill="white"/>
<path opacity="0.8" d="M215.521 119.304C214.171 119.213 212.737 119.51 211.407 120.155C210.076 120.801 208.909 121.766 208.058 122.925C207.207 124.085 206.71 125.385 206.633 126.657C206.555 127.929 206.9 129.115 207.623 130.061C208.346 131.006 209.414 131.668 210.688 131.96C211.962 132.252 213.383 132.16 214.767 131.698C216.151 131.235 217.434 130.423 218.45 129.366C219.467 128.309 220.169 127.056 220.466 125.769L213.623 125.708L215.521 119.304Z" fill="white"/>
<path d="M217.255 118.393C218.967 118.508 220.429 119.241 221.342 120.441C222.254 121.642 222.546 123.22 222.16 124.85L215.363 124.759L217.255 118.393Z" fill="white"/>
<path d="M78.4413 146.437L93.9815 114.209H182.184L200.115 146.437H78.4413Z" fill="url(#paint9_linear_1413_24232)" stroke="url(#paint10_linear_1413_24232)" stroke-width="0.797097"/>
<path d="M104.064 117.387H173.321L185.426 142.1H93.6475L104.064 117.387Z" fill="url(#paint11_linear_1413_24232)"/>
<path d="M111.802 256.254L79.0317 147.502H199.591L168.989 256.254H111.802Z" fill="url(#paint12_linear_1413_24232)" stroke="#BBFBFF" stroke-width="1.82065"/>
<path d="M97.3074 133.111H180.922L185.708 142.098H93.6475L97.3074 133.111Z" fill="url(#paint13_linear_1413_24232)"/>
<path d="M177.824 98.0098L190.493 123.004L185.707 142.381L173.038 117.387L177.824 98.0098Z" fill="url(#paint14_linear_1413_24232)"/>
<path d="M102.095 96.6055L88.5811 124.969L93.6486 142.1L104.065 117.387L102.095 96.6055Z" fill="url(#paint15_linear_1413_24232)"/>
<g clip-path="url(#clip1_1413_24232)">
<path d="M71.9224 82.294L72.5284 82.8835C78.1376 88.2961 107.675 115.883 111.519 119.472C111.787 119.724 111.931 119.857 111.931 119.857L117.757 99.9466C117.757 99.9466 98.965 82.6556 85.0604 69.91C84.5304 69.441 83.7328 69.3284 83.0619 69.6401C80.449 70.8479 74.2281 74.4083 71.9055 79.7763C71.7759 80.0776 71.6575 80.3815 71.5532 80.6933C71.3643 81.2592 71.4996 81.867 71.9224 82.294Z" fill="#252533"/>
<path d="M71.9224 82.295L72.5284 82.8845L111.519 121.113V114.619L76.5084 80.2122L71.9055 79.7773C71.7759 80.0786 71.6575 80.3825 71.5532 80.6943C71.3643 81.2602 71.4996 81.868 71.9224 82.295Z" fill="#131516"/>
<path d="M78.9487 75.9945C75.7016 79.0964 72.1134 81.0142 70.938 80.278C69.7598 79.5418 71.4397 76.4294 74.6868 73.3275C77.934 70.2256 81.5222 68.3079 82.6976 69.044C83.8758 69.7802 82.1958 72.8926 78.9487 75.9945Z" fill="white"/>
<path d="M78.9164 76.0335C76.0696 78.7529 72.9295 80.4323 71.8979 79.7878C70.8662 79.1433 72.3376 76.416 75.1845 73.6966C78.0286 70.9772 81.1714 69.2979 82.203 69.9424C83.2347 70.5869 81.7633 73.3141 78.9164 76.0335Z" fill="#88999D"/>
<path d="M57.687 58.645C58.6623 60.2955 63.8121 66.9054 65.4131 69.1165C66.5631 70.7042 67.7357 71.6945 68.897 72.2656C69.1958 72.4123 69.4804 72.58 69.7539 72.7634L73.39 76.3918L76.8372 79.7112L83.4048 72.5066L84.1292 71.7128L83.853 71.4508L83.1314 70.7723L80.5015 68.1419C81.5586 66.2268 81.2457 64.1833 81.5896 62.6114C82.3619 59.0877 85.5752 55.0767 82.7537 55.0951C79.6588 55.1134 77.4207 60.4474 77.4207 60.4474C77.4207 60.4474 75.5068 56.8713 73.9763 51.3618C72.5556 46.24 69.4889 47.88 70.1259 50.9688C70.8278 54.3589 72.3555 57.6809 72.3555 57.6809L71.7439 57.9088C71.7439 57.9088 69.923 55.7448 67.9386 50.3138C66.3883 46.0749 62.7973 48.0398 64.373 51.6631C65.5455 54.3615 68.274 58.8886 68.274 58.8886L67.8682 59.0799C67.8682 59.0799 65.4723 56.0435 63.5978 51.7574C62.1293 48.3961 58.7018 50.0309 59.9223 52.9782C61.1427 55.9256 64.5252 61.574 64.5252 61.574L64.0263 61.7678C64.0263 61.7678 62.2364 59.9104 60.6297 57.2119C58.5016 53.6384 55.8802 55.5981 57.687 58.645Z" fill="#FFB287"/>
<path d="M73.3896 76.3916L76.8369 79.711L83.4045 72.5064L83.8526 71.4506L84.0246 71.0445L83.3425 70.4629C83.3425 70.4629 83.2692 70.5755 83.1311 70.772C82.2404 72.0191 78.6042 76.596 73.4066 76.3707L73.3896 76.3916Z" fill="#ED8366"/>
<path opacity="0.64" d="M77.4242 60.4473C77.4242 60.4473 77.3988 60.4761 77.3537 60.5311C77.3058 60.5887 77.2325 60.67 77.1395 60.7774C77.0521 60.8822 76.9478 61.0105 76.8294 61.1572C76.7139 61.304 76.587 61.4742 76.4574 61.6603C76.3897 61.752 76.3221 61.8489 76.2601 61.9537C76.1924 62.0559 76.1248 62.1606 76.0543 62.2681C75.9303 62.4934 75.7809 62.7187 75.6625 62.9702C75.6005 63.0933 75.5357 63.2164 75.4708 63.3448C75.4145 63.4758 75.3581 63.6068 75.2989 63.7378L75.2087 63.9369L75.1354 64.1413L74.986 64.5526C74.8902 64.8277 74.8282 65.1132 74.738 65.3857C74.6844 65.666 74.6224 65.9437 74.5632 66.2136C74.5294 66.486 74.4871 66.748 74.4476 67.0021C74.4223 67.1279 74.4251 67.251 74.4138 67.3715C74.4025 67.492 74.3941 67.6073 74.3828 67.72C74.3659 67.9427 74.3349 68.1496 74.3405 68.333C74.3405 68.5164 74.3293 68.6788 74.3236 68.8098C74.3095 69.0771 74.2926 69.2342 74.2926 69.2342C74.2926 69.2342 74.2362 69.0902 74.1573 68.8308C74.1179 68.7024 74.0671 68.5426 74.0192 68.3592C73.96 68.1758 73.929 67.9662 73.898 67.7357C73.8698 67.5051 73.8163 67.2536 73.8163 66.9864C73.8163 66.7192 73.8078 66.4336 73.8163 66.1402C73.8501 65.8468 73.8867 65.5455 73.9346 65.2364C74.0107 64.9351 74.0812 64.6233 74.1799 64.322C74.3011 64.026 74.3885 63.7195 74.5463 63.4418C74.6196 63.3029 74.6901 63.1614 74.7633 63.0252C74.8423 62.8916 74.9268 62.7632 75.0114 62.6375C75.1664 62.3781 75.3694 62.1606 75.5385 61.9432C75.7273 61.7362 75.9021 61.5424 76.0881 61.3826C76.1811 61.3013 76.2629 61.2201 76.3503 61.152C76.4405 61.0839 76.5222 61.021 76.6039 60.9608C76.7618 60.8402 76.9112 60.7485 77.0324 60.6752C77.1564 60.5992 77.2522 60.5521 77.3199 60.518C77.3904 60.4813 77.4298 60.4604 77.4298 60.4604L77.4242 60.4473Z" fill="#ED8366"/>
<path d="M84.4363 70.618L82.7535 69.0723C82.7591 69.088 82.6267 69.0906 82.6323 69.1063C82.9621 70.28 81.5189 72.8841 78.6607 75.4909C75.2219 78.6269 72.0143 80.9376 70.8389 80.2014L72.6992 81.7471C73.8774 82.4833 77.5389 80.4031 80.786 77.3012C84.0332 74.1993 85.3185 71.4118 84.4391 70.618H84.4363Z" fill="white"/>
<path d="M171.437 144.246C169.74 145.179 164.752 146.806 156.866 145.974L157.203 113.432L151.174 98.7717L152.412 94.7425C152.412 94.7425 149.13 92.5676 151.957 93.0829C154.958 93.6307 157.494 95.2578 161.845 98.8975C165.061 101.588 169.44 106.457 170.078 117.323C170.42 123.101 172.305 139.016 172.333 142.809C172.333 143.39 172 143.937 171.433 144.25L171.437 144.246Z" fill="#252533"/>
<path d="M158.203 147.496L161.114 147.517L159.492 110.482L158.128 146.665C158.109 146.969 158.137 147.249 158.207 147.496H158.203Z" fill="#272735"/>
<path d="M160.988 101.975L158.747 121.482L152.475 111.792L147.966 104.82L145.206 100.558C145.206 100.558 145.251 100.51 145.339 100.429C146.021 99.7822 149.242 96.9213 153.053 96.8322C155.63 96.772 158.476 97.9745 160.988 101.975Z" fill="#252533"/>
<path d="M141.616 101.578H131.525C118.787 101.578 111.788 112.223 111.788 124.062H162.161C162.161 112.223 154.353 101.578 141.616 101.578Z" fill="#252533"/>
<path d="M151.6 153.968H121.626V111.901C121.626 105.876 126.88 100.992 133.363 100.992H139.863C146.346 100.992 151.6 105.876 151.6 111.901V153.968Z" fill="white"/>
<path d="M126.463 109.848C126.463 109.848 126.251 148.425 127.731 153.665C129.194 158.845 123.01 154.996 123.01 154.996L123.762 103.783L126.463 109.848Z" fill="#CEBABA"/>
<path d="M146.865 109.849C146.865 109.849 147.077 148.427 145.597 153.666C144.134 158.846 150.318 154.997 150.318 154.997L149.566 105.008L146.865 109.849Z" fill="#CEBABA"/>
<path d="M142.133 146.74L138.071 114.613C138.243 114.485 138.401 114.33 138.533 114.149L140.529 111.425C141.392 110.248 140.963 108.64 139.61 107.972L139.554 107.945C137.713 107.036 135.506 107.036 133.665 107.945L133.609 107.972C132.259 108.64 131.83 110.248 132.69 111.425L134.686 114.149C134.838 114.356 135.018 114.527 135.219 114.665L131.165 146.74C131.129 146.96 131.205 147.183 131.371 147.345L136.087 151.933C136.391 152.229 136.901 152.229 137.206 151.933L141.921 147.345C142.088 147.186 142.164 146.96 142.127 146.74H142.133Z" fill="#CEBABA"/>
<path d="M136.654 98.3789C128.311 98.3789 119.328 104.701 129.87 114.331L136.654 107.407L143.439 114.331C153.981 104.698 144.997 98.3789 136.654 98.3789Z" fill="#CEBABA"/>
<path d="M140.57 109.169L138.572 111.893C137.65 113.154 135.652 113.154 134.73 111.893L132.734 109.169C131.872 107.995 132.3 106.384 133.65 105.716L133.707 105.69C135.547 104.781 137.754 104.781 139.595 105.69L139.651 105.716C141.001 106.384 141.43 107.995 140.57 109.169Z" fill="#F93E3E"/>
<path d="M140.57 109.169C140.57 109.169 138.583 106.769 136.61 106.769C134.637 106.769 132.734 109.169 132.734 109.169C131.872 107.995 132.3 106.384 133.65 105.716L133.707 105.69C135.547 104.781 137.754 104.781 139.595 105.69L139.651 105.716C141.001 106.384 141.43 107.995 140.57 109.169Z" fill="#BA3131"/>
<path d="M164.779 160.308L154.375 159.522C150.649 159.522 147.63 155.674 147.63 150.924L147.833 115.873H162.163L164.779 160.308Z" fill="#252533"/>
<path d="M125.6 115.606V150.88C125.6 155.629 122.159 159.478 117.911 159.478L108.973 160.264L111.791 115.606L113.271 108.236L125.6 115.606Z" fill="#252533"/>
<path d="M117.119 106.887C116.713 107.741 117.048 108.791 117.753 109.389L122.091 113.064L118.049 116.261C117.336 116.824 116.955 117.738 117.037 118.673C117.347 122.218 119.903 131.859 125.6 142.014L125.62 139.562L125.155 106.606C125.155 106.606 124.196 98.443 135.553 98.443C135.553 98.443 121.767 97.0833 117.116 106.889L117.119 106.887Z" fill="#131516"/>
<path d="M154.924 116.261C155.612 116.824 155.978 117.736 155.9 118.674C155.604 122.218 152.593 132.771 147.635 142.014L147.615 137.885L148.064 106.604C148.064 106.604 148.148 105.86 147.965 104.82C147.734 103.523 147.088 101.77 145.338 100.429C146.02 99.782 149.242 96.9211 153.053 96.832C151.948 100.502 151.889 101.561 153.154 102.821C154.183 103.848 155.133 105.378 155.823 106.887C156.215 107.741 155.891 108.792 155.212 109.389L152.475 111.791L151.023 113.065L154.924 116.261Z" fill="#131516"/>
<path d="M112.228 101.975L114.468 121.482L120.74 111.792L125.25 104.82L128.009 100.558C128.009 100.558 127.964 100.51 127.877 100.429C127.195 99.7822 123.973 96.9213 120.162 96.8322C117.586 96.772 114.739 97.9745 112.228 101.975Z" fill="#252533"/>
<path d="M118.291 116.261C117.603 116.824 117.237 117.736 117.316 118.674C117.612 122.218 120.622 132.771 125.58 142.014L125.6 137.885L125.152 106.604C125.152 106.604 125.067 105.86 125.25 104.82C125.481 103.523 126.127 101.77 127.877 100.429C127.195 99.782 123.973 96.9211 120.163 96.832C121.267 100.502 121.327 101.561 120.061 102.821C119.032 103.848 118.082 105.378 117.392 106.887C117 107.741 117.324 108.792 118.003 109.389L120.74 111.791L122.192 113.065L118.291 116.261Z" fill="#131516"/>
<path d="M154.264 114.126L150.504 110.985L154.54 107.372C155.197 106.786 155.552 105.732 155.129 104.912C148.925 92.869 137.975 95.8215 137.975 95.8215C147.657 96.2748 147.648 104.635 147.648 104.635L147.612 139.039C152.243 129.348 154.915 119.987 155.202 116.5C155.279 115.578 154.923 114.679 154.261 114.126H154.264Z" fill="#323244"/>
<path d="M118.944 114.126L122.704 110.985L118.668 107.372C118.011 106.786 117.656 105.732 118.079 104.912C124.283 92.869 135.233 95.8215 135.233 95.8215C125.551 96.2748 125.56 104.635 125.56 104.635L125.596 139.039C120.965 129.348 118.293 119.987 118.006 116.5C117.929 115.578 118.285 114.679 118.947 114.126H118.944Z" fill="#323244"/>
<path d="M136.652 95.5117C127.985 95.5117 118.649 102.08 129.603 112.088L136.652 104.893L143.702 112.088C154.655 102.08 145.323 95.5117 136.652 95.5117Z" fill="white"/>
<path d="M129.016 99.3888C129.016 102.436 132.216 104.904 136.368 104.904C140.52 104.904 143.885 102.436 143.885 99.3888V92.9492H129.014V99.3888H129.016Z" fill="#FFB287"/>
<path d="M129.016 97.7226C129.016 100.251 132.216 102.299 136.368 102.299C140.52 102.299 143.885 100.251 143.885 97.7226V88.0605H129.014V97.7226H129.016Z" fill="#F58D6C"/>
<path d="M141.925 145.876L137.21 150.466C136.905 150.762 136.395 150.762 136.091 150.466L131.375 145.876C131.209 145.717 131.133 145.494 131.169 145.271L134.949 114.21L135.172 112.382L135.253 111.711H138.05L138.131 112.382L138.408 114.661C138.408 114.661 138.41 114.664 138.41 114.666L142.131 145.271C142.168 145.494 142.092 145.717 141.925 145.876Z" fill="#F93E3E"/>
<path d="M122.169 53.4473C122.248 53.6045 122.321 53.7748 122.392 53.9581C122.301 53.7905 122.228 53.6202 122.169 53.4473Z" fill="#993E39"/>
<path opacity="0.48" d="M138.412 114.663C138.412 114.663 138.412 114.661 138.409 114.658C138.164 113.888 137.653 113.272 136.681 113.272C135.872 113.272 135.308 113.547 134.95 114.208L135.173 112.379C135.173 112.379 135.976 112.947 136.633 112.947C137.29 112.947 138.133 112.379 138.133 112.379L138.412 114.663Z" fill="#BA3131"/>
<g clip-path="url(#clip2_1413_24232)">
<path d="M189.557 52.6192C189.557 59.5289 188.2 66.3708 185.565 72.7544C182.929 79.1381 179.066 84.9384 174.196 89.8241C169.327 94.7098 163.545 98.5852 157.183 101.229C150.82 103.873 144.001 105.234 137.114 105.233C130.227 105.234 123.408 103.873 117.045 101.229C110.683 98.5852 104.902 94.7098 100.032 89.8241C95.1624 84.9384 91.2996 79.1381 88.6642 72.7544C86.0289 66.3708 84.6726 59.5288 84.6729 52.6192C84.6726 45.7094 86.0287 38.8673 88.664 32.4834C91.2993 26.0994 95.162 20.2987 100.032 15.4126C104.901 10.5264 110.683 6.65053 117.045 4.00603C123.408 1.36153 130.227 0.000243025 137.114 0C144.001 -4.27351e-09 150.821 1.36097 157.183 4.00535C163.546 6.64974 169.327 10.5257 174.197 15.4119C179.067 20.2981 182.93 26.0988 185.565 32.4829C188.201 38.867 189.557 45.7093 189.557 52.6192Z" fill="white"/>
<path d="M114.746 54.2629V54.2405C114.817 54.0695 114.852 53.8849 114.847 53.6993C114.849 53.505 114.812 53.3122 114.74 53.1322C114.668 52.9521 114.561 52.7884 114.425 52.6505C114.29 52.5126 114.129 52.4033 113.951 52.3288C113.773 52.2543 113.583 52.2163 113.391 52.2168H86.129C85.9378 52.2161 85.7483 52.2534 85.5714 52.327C85.3945 52.4006 85.2337 52.5089 85.0984 52.6455C84.9631 52.7821 84.8558 52.9442 84.7828 53.1229C84.7097 53.3015 84.6724 53.4931 84.6729 53.6864V53.7346C85.024 66.5983 90.001 78.8919 98.6724 88.3154C98.6827 88.3247 98.6945 88.3324 98.7073 88.3378C98.841 88.4787 99.0016 88.5908 99.1794 88.6672C99.3572 88.7437 99.5483 88.7829 99.7415 88.7826C100.031 88.7826 100.314 88.6961 100.554 88.5342C100.795 88.3723 100.983 88.1421 101.095 87.8725L114.746 54.2629ZM160.999 97.9268C160.986 97.9119 160.979 97.8926 160.98 97.8729L144.535 57.3727C144.521 57.3511 144.512 57.3261 144.511 57.3003C143.916 55.8053 142.892 54.5247 141.571 53.6235C140.249 52.7224 138.691 52.2419 137.097 52.2444C135.601 52.243 134.135 52.6668 132.866 53.4674C131.598 54.2681 130.578 55.4132 129.923 56.772L113.218 97.8842C113.146 98.065 113.11 98.2583 113.112 98.4532C113.114 98.7113 113.183 98.9644 113.312 99.1873C113.44 99.4103 113.624 99.5954 113.846 99.7244C113.857 99.7467 113.877 99.7467 113.91 99.7708C121.123 103.371 129.061 105.239 137.106 105.231C145.15 105.243 153.088 103.376 160.3 99.7765C160.315 99.7703 160.327 99.76 160.337 99.7468C160.571 99.6234 160.766 99.4367 160.902 99.2077C161.037 98.9787 161.107 98.7161 161.103 98.4494C161.104 98.266 161.069 98.0843 161.002 97.9139L160.999 97.9268ZM189.557 53.7457C189.551 53.7321 189.547 53.7179 189.546 53.7032C189.547 53.509 189.511 53.3163 189.438 53.1365C189.366 52.9566 189.259 52.7931 189.123 52.6553C188.988 52.5174 188.827 52.4082 188.65 52.3335C188.472 52.2589 188.282 52.2204 188.09 52.2204H160.828C160.636 52.2204 160.446 52.2589 160.269 52.3335C160.092 52.4082 159.931 52.5176 159.796 52.6555C159.661 52.7934 159.554 52.9571 159.482 53.1369C159.41 53.3167 159.374 53.5092 159.376 53.7032C159.372 53.8983 159.411 54.0917 159.49 54.2701L173.131 87.8725C173.238 88.1425 173.422 88.3739 173.661 88.5362C173.899 88.6986 174.181 88.7845 174.468 88.7826C174.658 88.7842 174.846 88.7473 175.021 88.6745C175.197 88.6016 175.356 88.4941 175.49 88.3582C175.506 88.3411 175.525 88.3265 175.547 88.3154C184.211 78.8909 189.19 66.6049 189.557 53.7457Z" fill="#0C70C3"/>
<path d="M144.597 4.67755H144.619C144.663 13.5759 146.349 22.3879 149.592 30.661L152.112 36.8827C152.204 37.1025 152.347 37.297 152.528 37.4503C152.709 37.6037 152.923 37.7114 153.153 37.7648H153.168C153.212 37.77 153.256 37.7788 153.298 37.7908H153.315H153.451H185.39C185.777 37.7908 186.149 37.6362 186.424 37.3605C186.699 37.0849 186.855 36.7107 186.857 36.3194C186.857 36.1644 186.829 36.0106 186.777 35.8651V35.8522C183.75 26.8807 178.401 18.8922 171.286 12.7172C164.17 6.54231 155.548 2.4063 146.315 0.739266C146.293 0.736999 146.27 0.736999 146.247 0.739266C146.187 0.733706 146.121 0.724561 146.064 0.724561C145.678 0.724536 145.307 0.878369 145.032 1.15282C144.758 1.42728 144.601 1.80023 144.597 2.19056V4.67755Z" fill="#0C70C3"/>
<path d="M120.763 37.7908H88.832L88.83 37.7965C88.4438 37.7935 88.0744 37.6366 87.8018 37.3601C87.5292 37.0835 87.3755 36.7097 87.374 36.3194C87.3741 36.1653 87.3976 36.012 87.4436 35.8651C87.447 35.853 87.447 35.8403 87.4436 35.8282C90.474 26.8635 95.823 18.8818 102.936 12.7114C110.048 6.54093 118.665 2.40652 127.892 0.737456C127.916 0.734838 127.94 0.734838 127.964 0.737456C128.028 0.731896 128.087 0.722751 128.147 0.722751C128.339 0.720545 128.53 0.75685 128.707 0.829534C128.885 0.902217 129.047 1.00969 129.184 1.14604C129.32 1.28238 129.428 1.44489 129.502 1.62384C129.576 1.8028 129.614 1.99482 129.614 2.18875V4.67574C129.56 13.5692 127.871 22.3752 124.632 30.6445L122.109 36.877C122.006 37.1291 121.837 37.3477 121.62 37.5089C121.402 37.6701 121.145 37.7677 120.876 37.7908H120.763Z" fill="#0C70C3"/>
</g>
<g opacity="0.2">
<path fill-rule="evenodd" clip-rule="evenodd" d="M128.669 96.1593C157.632 96.1593 181.111 72.6021 181.111 43.5428C181.111 31.8985 177.341 21.1376 170.959 12.4219C182.334 22.0736 189.557 36.4985 189.557 52.616C189.557 81.6753 166.078 105.233 137.115 105.233C119.758 105.233 104.37 96.772 94.8252 83.7369C103.959 91.4869 115.77 96.1593 128.669 96.1593Z" fill="black"/>
</g>
<path style="mix-blend-mode:overlay" d="M85.5816 44.8668C89.7807 16.074 114.595 -4.02955 144.669 0.400339C173.865 4.02679 192.751 31.4112 188.554 60.204C184.355 88.9969 157.901 108.905 129.466 104.67C101.032 100.434 81.3845 73.6597 85.5816 44.8668Z" fill="url(#paint16_radial_1413_24232)"/>
</g>
<g style="mix-blend-mode:screen">
<path d="M53.0879 14.957H224.232L185.608 141.928H93.7096L53.0879 14.957Z" fill="url(#paint17_linear_1413_24232)"/>
</g>
<g style="mix-blend-mode:darken">
<ellipse cx="219.903" cy="148.576" rx="12.9856" ry="1.99432" fill="black" fill-opacity="0.1"/>
</g>
<g style="mix-blend-mode:darken">
<ellipse cx="57.0833" cy="148.576" rx="12.9856" ry="1.99432" fill="black" fill-opacity="0.1"/>
</g>
</g>
<defs>
<linearGradient id="paint0_linear_1413_24232" x1="90.1566" y1="140.572" x2="109.53" y2="240.67" gradientUnits="userSpaceOnUse">
<stop stop-color="#E89900"/>
<stop offset="0.635" stop-color="#DE9B18" stop-opacity="0.53"/>
<stop offset="1" stop-color="#F2FEFF"/>
</linearGradient>
<linearGradient id="paint1_linear_1413_24232" x1="21.123" y1="157.441" x2="83.1189" y2="130.08" gradientUnits="userSpaceOnUse">
<stop stop-color="#FFA439"/>
<stop offset="1" stop-color="#FFE0A5"/>
</linearGradient>
<linearGradient id="paint2_linear_1413_24232" x1="50.2393" y1="157.441" x2="62.5316" y2="245.412" gradientUnits="userSpaceOnUse">
<stop stop-color="#FFC14A"/>
<stop offset="1" stop-color="#F2FEFF"/>
</linearGradient>
<linearGradient id="paint3_linear_1413_24232" x1="64.6064" y1="136.066" x2="54.0359" y2="106.227" gradientUnits="userSpaceOnUse">
<stop stop-color="#BB4300"/>
<stop offset="1" stop-color="#F87B00" stop-opacity="0.79"/>
</linearGradient>
<linearGradient id="paint4_linear_1413_24232" x1="68.0175" y1="118.761" x2="48.0958" y2="149.94" gradientUnits="userSpaceOnUse">
<stop stop-color="#FFB55D"/>
<stop offset="1" stop-color="#FFDB1F"/>
</linearGradient>
<linearGradient id="paint5_linear_1413_24232" x1="189.94" y1="140.572" x2="114.312" y2="187.72" gradientUnits="userSpaceOnUse">
<stop stop-color="#26C8DE"/>
<stop offset="0.3714" stop-color="#38BFD5"/>
<stop offset="1" stop-color="#F4FDFF"/>
</linearGradient>
<linearGradient id="paint6_linear_1413_24232" x1="255.862" y1="156.961" x2="196.333" y2="131.137" gradientUnits="userSpaceOnUse">
<stop stop-color="#5EBEFF"/>
<stop offset="1" stop-color="#61FBFF"/>
</linearGradient>
<linearGradient id="paint7_linear_1413_24232" x1="182.475" y1="261.789" x2="193.698" y2="170.034" gradientUnits="userSpaceOnUse">
<stop stop-color="#F2FEFF"/>
<stop offset="1" stop-color="#02D9E7"/>
</linearGradient>
<linearGradient id="paint8_linear_1413_24232" x1="214.91" y1="133.121" x2="240.08" y2="102.871" gradientUnits="userSpaceOnUse">
<stop stop-color="#00B3FF"/>
<stop offset="1" stop-color="#36FFFF"/>
</linearGradient>
<linearGradient id="paint9_linear_1413_24232" x1="270.347" y1="81.2686" x2="65.268" y2="110.736" gradientUnits="userSpaceOnUse">
<stop stop-color="white"/>
<stop offset="1" stop-color="#0073DD"/>
</linearGradient>
<linearGradient id="paint10_linear_1413_24232" x1="197.873" y1="116.268" x2="134.718" y2="146.594" gradientUnits="userSpaceOnUse">
<stop stop-color="#7CFFE7"/>
<stop offset="1" stop-color="#9CFFE7"/>
</linearGradient>
<linearGradient id="paint11_linear_1413_24232" x1="183.637" y1="117.387" x2="95.5234" y2="126.254" gradientUnits="userSpaceOnUse">
<stop stop-color="#0F87E1"/>
<stop offset="1" stop-color="#005083"/>
</linearGradient>
<linearGradient id="paint12_linear_1413_24232" x1="67.0719" y1="146.582" x2="156.662" y2="175.6" gradientUnits="userSpaceOnUse">
<stop stop-color="#59D7FF"/>
<stop offset="1" stop-color="#0164D9"/>
<stop offset="1.0001" stop-color="#007DF1"/>
</linearGradient>
<linearGradient id="paint13_linear_1413_24232" x1="137.848" y1="133.111" x2="137.848" y2="142.098" gradientUnits="userSpaceOnUse">
<stop stop-color="#004570" stop-opacity="0"/>
<stop offset="1" stop-color="#00609F" stop-opacity="0.41"/>
</linearGradient>
<linearGradient id="paint14_linear_1413_24232" x1="185.144" y1="113.455" x2="179.819" y2="130.313" gradientUnits="userSpaceOnUse">
<stop stop-color="white" stop-opacity="0"/>
<stop offset="1" stop-color="white" stop-opacity="0.5"/>
</linearGradient>
<linearGradient id="paint15_linear_1413_24232" x1="91.6779" y1="113.174" x2="99.5283" y2="130.32" gradientUnits="userSpaceOnUse">
<stop stop-color="white" stop-opacity="0"/>
<stop offset="1" stop-color="white" stop-opacity="0.5"/>
</linearGradient>
<radialGradient id="paint16_radial_1413_24232" cx="0" cy="0" r="1" gradientUnits="userSpaceOnUse" gradientTransform="translate(105.694 10.1838) rotate(57.5186) scale(81.9136 106.14)">
<stop stop-color="white"/>
<stop offset="0.655" stop-color="#007AEB" stop-opacity="0.6"/>
<stop offset="1" stop-color="#0055A3" stop-opacity="0.6"/>
</radialGradient>
<linearGradient id="paint17_linear_1413_24232" x1="149.284" y1="64.8148" x2="151.471" y2="153.229" gradientUnits="userSpaceOnUse">
<stop stop-color="#BDE7FF" stop-opacity="0"/>
<stop offset="0.807731" stop-color="#27A4FF" stop-opacity="0.3"/>
<stop offset="1" stop-color="#2287FF" stop-opacity="0.77"/>
</linearGradient>
<clipPath id="clip0_1413_24232">
<rect width="264" height="178" fill="white"/>
</clipPath>
<clipPath id="clip1_1413_24232">
<rect width="132.319" height="142.099" fill="white" transform="translate(57.083)"/>
</clipPath>
<clipPath id="clip2_1413_24232">
<rect width="104.884" height="105.233" fill="white" transform="translate(84.6729)"/>
</clipPath>
</defs>
</svg>
