<svg width="406" height="273" viewBox="0 0 406 273" fill="none" xmlns="http://www.w3.org/2000/svg">
<g clip-path="url(#clip0_1413_23800)">
<path d="M125.055 240.823L141.151 215.598L197.987 371.71H182.618L125.055 240.823Z" fill="url(#paint0_linear_1413_23800)"/>
<path d="M74.1244 215.598H141.554L125.055 241.47H32.9043L74.1244 215.598Z" fill="url(#paint1_linear_1413_23800)"/>
<path d="M32.9043 241.469H125.457L182.599 371.477H131.292L32.9043 241.469Z" fill="url(#paint2_linear_1413_23800)"/>
<path fill-rule="evenodd" clip-rule="evenodd" d="M48.6203 175.877C44.7741 175.877 42.5274 180.214 44.7463 183.356L56.9912 200.692C57.88 201.951 59.3246 202.699 60.8652 202.699H83.9559C84.1727 202.93 84.4495 203.127 84.7898 203.271L96.4436 208.23C98.2632 209.004 100.175 207.342 99.6623 205.432L98.9281 202.699H103.771C107.177 202.699 109.473 199.215 108.129 196.085L100.688 178.749C99.9405 177.007 98.2264 175.877 96.3301 175.877H48.6203Z" fill="url(#paint3_linear_1413_23800)"/>
<path fill-rule="evenodd" clip-rule="evenodd" d="M46.2531 177.777C42.4069 177.777 40.1602 182.115 42.3791 185.256L54.624 202.593C55.5128 203.851 56.9574 204.599 58.498 204.599H81.0758C81.4031 204.599 81.7078 204.747 81.9786 204.931C82.1124 205.022 82.2603 205.103 82.4226 205.172L94.0764 210.13C95.896 210.904 97.8081 209.243 97.2951 207.333L96.962 206.093C96.7597 205.339 97.3272 204.599 98.1072 204.599H101.404C104.81 204.599 107.106 201.116 105.762 197.986L98.3213 180.65C97.5733 178.907 95.8593 177.777 93.9629 177.777H46.2531Z" fill="url(#paint4_linear_1413_23800)" fill-opacity="0.95"/>
<path d="M91.6307 189.878C93.359 191.793 93.4265 193.97 91.7814 194.742C90.1363 195.513 87.4016 194.586 85.6733 192.672C83.945 190.757 83.8775 188.58 85.5226 187.808C87.1677 187.037 89.9024 187.964 91.6307 189.878Z" fill="white"/>
<path d="M79.3309 189.878C81.0592 191.793 81.1266 193.97 79.4816 194.742C77.8365 195.513 75.1018 194.586 73.3735 192.672C71.6452 190.757 71.5777 188.58 73.2228 187.808C74.8679 187.037 77.6026 187.964 79.3309 189.878Z" fill="white"/>
<path d="M66.2156 189.878C67.9439 191.793 68.0114 193.97 66.3663 194.742C64.7213 195.513 61.9866 194.586 60.2583 192.672C58.53 190.757 58.4625 188.58 60.1076 187.808C61.7527 187.037 64.4873 187.964 66.2156 189.878Z" fill="white"/>
<path d="M305.018 240.104L289.647 215.598L232.113 399.533L246.554 408.837L305.018 240.104Z" fill="url(#paint5_linear_1413_23800)"/>
<path d="M353.654 215.598H289.265L305.019 240.733H393.016L353.654 215.598Z" fill="url(#paint6_linear_1413_23800)" fill-opacity="0.8"/>
<path d="M393.016 240.732H304.635L247.491 403.265H282.117L393.016 240.732Z" fill="url(#paint7_linear_1413_23800)"/>
<path d="M312.83 180.861C314.149 176.974 317.819 174.376 321.923 174.424L363.845 174.916C371.253 175.003 375.707 183.168 371.769 189.443L363.879 202.016C362.144 204.781 359.109 206.46 355.844 206.46H317.378C310.881 206.46 306.307 200.077 308.395 193.925L312.83 180.861Z" fill="#0051AF"/>
<path d="M315.122 183.117C316.427 179.226 320.086 176.615 324.189 176.647L364.862 176.962C372.274 177.02 376.759 185.173 372.84 191.464L365.583 203.111C363.851 205.89 360.808 207.58 357.532 207.58H320.105C313.623 207.58 309.05 201.224 311.111 195.079L315.122 183.117Z" fill="url(#paint8_linear_1413_23800)"/>
<path opacity="0.8" d="M362.5 181.994H368.499L356.11 203.405L350.11 203.405L362.5 181.994Z" fill="white"/>
<path opacity="0.8" d="M347.511 191.17H353.177L346.584 203.405L340.918 203.405L347.511 191.17Z" fill="white"/>
<path opacity="0.8" d="M331.129 182.976C329.058 182.837 326.858 183.291 324.817 184.282C322.775 185.272 320.985 186.752 319.679 188.53C318.373 190.308 317.612 192.302 317.493 194.253C317.374 196.204 317.904 198.023 319.013 199.473C320.122 200.923 321.76 201.938 323.714 202.386C325.668 202.834 327.848 202.694 329.972 201.984C332.095 201.275 334.064 200.029 335.623 198.408C337.181 196.786 338.258 194.865 338.714 192.892L328.217 192.797L331.129 182.976Z" fill="white"/>
<path d="M333.788 181.58C336.415 181.756 338.658 182.88 340.058 184.721C341.457 186.563 341.906 188.983 341.313 191.483L330.887 191.343L333.788 181.58Z" fill="white"/>
<path d="M120.497 224.805L144.542 174.951H280.112L307.857 224.805H120.497Z" fill="url(#paint9_linear_1413_23800)" stroke="url(#paint10_linear_1413_23800)" stroke-width="0.797097"/>
<path d="M160.143 180.035H266.389L284.96 217.938H144.163L160.143 180.035Z" fill="url(#paint11_linear_1413_23800)"/>
<path d="M171.653 393.506L121.087 225.74H307.333L260.113 393.506H171.653Z" fill="url(#paint12_linear_1413_23800)" stroke="#BBFBFF" stroke-width="1.82065"/>
<path d="M149.778 204.154H278.05L285.392 217.937H144.163L149.778 204.154Z" fill="url(#paint13_linear_1413_23800)"/>
<path d="M273.298 150.316L292.733 188.65L285.391 218.369L265.956 180.035L273.298 150.316Z" fill="url(#paint14_linear_1413_23800)"/>
<path d="M157.122 148.164L136.391 191.666L144.165 217.939L160.145 180.037L157.122 148.164Z" fill="url(#paint15_linear_1413_23800)"/>
<g clip-path="url(#clip1_1413_23800)">
<path d="M110.835 126.213L111.765 127.117C120.37 135.419 165.682 177.729 171.581 183.234C171.991 183.62 172.212 183.825 172.212 183.825L181.15 153.287C181.15 153.287 152.321 126.768 130.99 107.22C130.177 106.501 128.953 106.328 127.924 106.806C123.916 108.658 114.372 114.119 110.809 122.352C110.61 122.814 110.429 123.28 110.269 123.758C109.979 124.626 110.186 125.558 110.835 126.213Z" fill="#252533"/>
<path d="M110.835 126.217L111.765 127.121L171.581 185.753V175.792L117.87 123.022L110.809 122.355C110.61 122.818 110.429 123.284 110.269 123.762C109.979 124.63 110.186 125.562 110.835 126.217Z" fill="#131516"/>
<path d="M121.614 116.552C116.632 121.309 111.128 124.25 109.325 123.121C107.517 121.992 110.094 117.219 115.076 112.461C120.057 107.704 125.562 104.763 127.365 105.892C129.172 107.021 126.595 111.794 121.614 116.552Z" fill="white"/>
<path d="M121.566 116.612C117.198 120.783 112.381 123.358 110.798 122.37C109.216 121.381 111.473 117.198 115.84 113.028C120.203 108.857 125.025 106.281 126.608 107.27C128.19 108.258 125.933 112.441 121.566 116.612Z" fill="#88999D"/>
<path d="M88.9969 89.9425C90.4931 92.4739 98.3933 102.611 100.849 106.003C102.614 108.438 104.412 109.957 106.194 110.832C106.652 111.058 107.089 111.315 107.509 111.596L113.087 117.161L118.375 122.252L128.45 111.202L129.562 109.985L129.138 109.583L128.031 108.542L123.996 104.508C125.618 101.571 125.138 98.4367 125.666 96.0258C126.85 90.6215 131.78 84.4698 127.451 84.498C122.704 84.5261 119.27 92.7069 119.27 92.7069C119.27 92.7069 116.334 87.2222 113.986 78.7722C111.807 70.9168 107.102 73.4321 108.079 78.1695C109.156 83.3689 111.5 88.4638 111.5 88.4638L110.561 88.8134C110.561 88.8134 107.768 85.4944 104.724 77.1649C102.346 70.6637 96.8366 73.6772 99.2538 79.2343C101.053 83.3729 105.238 90.3161 105.238 90.3161L104.616 90.6095C104.616 90.6095 100.94 85.9525 98.0646 79.3789C95.8118 74.2237 90.5536 76.731 92.426 81.2513C94.2983 85.7717 99.4873 94.4347 99.4873 94.4347L98.7219 94.732C98.7219 94.732 95.9761 91.8832 93.5113 87.7446C90.2466 82.2639 86.2252 85.2694 88.9969 89.9425Z" fill="#FFB287"/>
<path d="M113.086 117.159L118.374 122.25L128.45 111.201L129.137 109.581L129.401 108.958L128.354 108.066C128.354 108.066 128.242 108.239 128.03 108.541C126.664 110.453 121.086 117.473 113.112 117.127L113.086 117.159Z" fill="#ED8366"/>
<path opacity="0.64" d="M119.275 92.707C119.275 92.707 119.236 92.7512 119.167 92.8356C119.093 92.924 118.981 93.0486 118.838 93.2133C118.704 93.374 118.544 93.5709 118.363 93.7959C118.185 94.0209 117.991 94.2821 117.792 94.5674C117.688 94.708 117.584 94.8567 117.489 95.0174C117.385 95.1741 117.282 95.3349 117.174 95.4996C116.983 95.8452 116.754 96.1907 116.572 96.5764C116.477 96.7653 116.378 96.9541 116.278 97.151C116.192 97.3519 116.105 97.5528 116.015 97.7537L115.876 98.0591L115.764 98.3725L115.535 99.0034C115.388 99.4253 115.293 99.8632 115.154 100.281C115.072 100.711 114.977 101.137 114.886 101.551C114.834 101.969 114.769 102.371 114.709 102.76C114.67 102.953 114.674 103.142 114.657 103.327C114.64 103.512 114.627 103.688 114.609 103.861C114.583 104.203 114.536 104.52 114.544 104.801C114.544 105.083 114.527 105.332 114.518 105.533C114.497 105.943 114.471 106.184 114.471 106.184C114.471 106.184 114.384 105.963 114.263 105.565C114.203 105.368 114.125 105.123 114.051 104.842C113.961 104.56 113.913 104.239 113.866 103.885C113.822 103.532 113.74 103.146 113.74 102.736C113.74 102.326 113.727 101.888 113.74 101.438C113.792 100.988 113.848 100.526 113.922 100.052C114.039 99.59 114.147 99.1119 114.298 98.6498C114.484 98.1957 114.618 97.7256 114.86 97.2997C114.973 97.0867 115.081 96.8698 115.193 96.6608C115.314 96.4559 115.444 96.259 115.574 96.0662C115.811 95.6684 116.123 95.3349 116.382 95.0014C116.672 94.6839 116.94 94.3866 117.225 94.1415C117.368 94.0169 117.493 93.8924 117.628 93.7879C117.766 93.6834 117.891 93.587 118.017 93.4946C118.259 93.3097 118.488 93.1691 118.674 93.0566C118.864 92.9401 119.011 92.8678 119.115 92.8155C119.223 92.7593 119.284 92.7271 119.284 92.7271L119.275 92.707Z" fill="#ED8366"/>
<path d="M130.032 108.304L127.451 105.934C127.46 105.958 127.256 105.962 127.265 105.986C127.771 107.786 125.557 111.78 121.172 115.778C115.897 120.588 110.976 124.132 109.173 123.002L112.027 125.373C113.834 126.502 119.451 123.312 124.433 118.554C129.414 113.797 131.386 109.522 130.037 108.304H130.032Z" fill="white"/>
<path d="M263.501 221.231C260.897 222.662 253.245 225.158 241.147 223.882L241.665 173.971L232.415 151.487L234.314 145.307C234.314 145.307 229.279 141.971 233.616 142.762C238.22 143.602 242.111 146.097 248.785 151.68C253.719 155.806 260.437 163.274 261.415 179.939C261.94 188.801 264.832 213.209 264.875 219.028C264.875 219.918 264.364 220.758 263.494 221.237L263.501 221.231Z" fill="#252533"/>
<path d="M243.197 226.218L247.663 226.249L245.175 169.449L243.082 224.942C243.053 225.409 243.096 225.838 243.204 226.218H243.197Z" fill="#272735"/>
<path d="M247.471 156.399L244.033 186.317L234.412 171.454L227.493 160.762L223.26 154.225C223.26 154.225 223.329 154.152 223.463 154.028C224.509 153.035 229.452 148.648 235.298 148.511C239.25 148.419 243.618 150.263 247.471 156.399Z" fill="#252533"/>
<path d="M217.751 155.791H202.271C182.73 155.791 171.993 172.117 171.993 190.274H249.27C249.27 172.117 237.292 155.791 217.751 155.791Z" fill="#252533"/>
<path d="M233.069 236.14H187.086V171.622C187.086 162.38 195.146 154.891 205.092 154.891H215.063C225.009 154.891 233.069 162.38 233.069 171.622V236.14Z" fill="white"/>
<path d="M194.505 168.472C194.505 168.472 194.181 227.638 196.451 235.674C198.695 243.618 189.208 237.715 189.208 237.715L190.363 159.17L194.505 168.472Z" fill="#CEBABA"/>
<path d="M225.806 168.476C225.806 168.476 226.13 227.643 223.86 235.679C221.616 243.622 231.103 237.72 231.103 237.72L229.948 161.051L225.806 168.476Z" fill="#CEBABA"/>
<path d="M218.545 225.055L212.314 175.781C212.578 175.585 212.82 175.348 213.023 175.07L216.085 170.891C217.408 169.087 216.751 166.62 214.675 165.596L214.589 165.555C211.765 164.161 208.379 164.161 205.555 165.555L205.469 165.596C203.398 166.62 202.74 169.087 204.059 170.891L207.121 175.07C207.354 175.388 207.631 175.649 207.938 175.862L201.72 225.055C201.664 225.393 201.78 225.734 202.036 225.983L209.27 233.019C209.737 233.473 210.52 233.473 210.987 233.019L218.221 225.983C218.476 225.738 218.593 225.393 218.536 225.055H218.545Z" fill="#CEBABA"/>
<path d="M210.14 150.883C197.341 150.883 183.56 160.578 199.732 175.349L210.14 164.729L220.548 175.349C236.721 160.574 222.94 150.883 210.14 150.883Z" fill="#CEBABA"/>
<path d="M216.147 167.433L213.082 171.611C211.668 173.544 208.602 173.544 207.188 171.611L204.126 167.433C202.803 165.632 203.46 163.161 205.532 162.137L205.618 162.096C208.442 160.702 211.828 160.702 214.651 162.096L214.738 162.137C216.809 163.161 217.466 165.632 216.147 167.433Z" fill="#F93E3E"/>
<path d="M216.147 167.433C216.147 167.433 213.099 163.752 210.072 163.752C207.045 163.752 204.126 167.433 204.126 167.433C202.803 165.632 203.46 163.161 205.532 162.137L205.618 162.096C208.442 160.702 211.828 160.702 214.651 162.096L214.738 162.137C216.809 163.161 217.466 165.632 216.147 167.433Z" fill="#BA3131"/>
<path d="M253.287 245.864L237.326 244.658C231.61 244.658 226.979 238.756 226.979 231.471L227.29 177.713H249.274L253.287 245.864Z" fill="#252533"/>
<path d="M193.182 177.305V231.404C193.182 238.689 187.902 244.592 181.386 244.592L167.674 245.797L171.998 177.305L174.268 166.002L193.182 177.305Z" fill="#252533"/>
<path d="M180.171 163.929C179.548 165.239 180.063 166.851 181.144 167.767L187.799 173.404L181.598 178.306C180.504 179.17 179.92 180.572 180.046 182.007C180.521 187.443 184.443 202.23 193.182 217.804L193.213 214.043L192.499 163.5C192.499 163.5 191.029 150.979 208.451 150.979C208.451 150.979 187.302 148.894 180.167 163.933L180.171 163.929Z" fill="#131516"/>
<path d="M238.169 178.308C239.224 179.172 239.786 180.57 239.665 182.009C239.211 187.445 234.593 203.63 226.987 217.806L226.957 211.473L227.644 163.497C227.644 163.497 227.774 162.356 227.493 160.761C227.138 158.772 226.148 156.084 223.463 154.027C224.509 153.034 229.452 148.646 235.298 148.51C233.603 154.139 233.512 155.762 235.454 157.695C237.032 159.27 238.489 161.617 239.549 163.931C240.15 165.241 239.652 166.852 238.61 167.768L234.412 171.453L232.185 173.406L238.169 178.308Z" fill="#131516"/>
<path d="M172.668 156.395L176.106 186.313L185.727 171.45L192.645 160.758L196.879 154.221C196.879 154.221 196.81 154.149 196.676 154.024C195.629 153.032 190.687 148.644 184.84 148.507C180.888 148.415 176.521 150.259 172.668 156.395Z" fill="#252533"/>
<path d="M181.97 178.308C180.915 179.172 180.353 180.57 180.474 182.009C180.928 187.445 185.546 203.63 193.152 217.806L193.182 211.473L192.495 163.497C192.495 163.497 192.365 162.356 192.646 160.761C193.001 158.772 193.991 156.084 196.676 154.027C195.63 153.034 190.687 148.646 184.841 148.51C186.536 154.139 186.627 155.762 184.685 157.695C183.107 159.27 181.65 161.617 180.59 163.931C179.989 165.241 180.487 166.852 181.529 167.768L185.728 171.453L187.954 173.406L181.97 178.308Z" fill="#131516"/>
<path d="M237.155 175.033L231.387 170.216L237.579 164.675C238.586 163.775 239.131 162.159 238.483 160.902C228.965 142.431 212.166 146.959 212.166 146.959C227.019 147.654 227.006 160.476 227.006 160.476L226.95 213.241C234.055 198.378 238.154 184.022 238.595 178.674C238.712 177.259 238.167 175.881 237.151 175.033H237.155Z" fill="#323244"/>
<path d="M182.972 175.033L188.74 170.216L182.548 164.675C181.541 163.775 180.996 162.159 181.645 160.902C191.162 142.431 207.961 146.959 207.961 146.959C193.108 147.654 193.121 160.476 193.121 160.476L193.177 213.241C186.072 198.378 181.973 184.022 181.532 178.674C181.415 177.259 181.96 175.881 182.976 175.033H182.972Z" fill="#323244"/>
<path d="M210.137 146.486C196.841 146.486 182.519 156.56 199.323 171.909L210.137 160.875L220.952 171.909C237.756 156.56 223.438 146.486 210.137 146.486Z" fill="white"/>
<path d="M198.424 152.433C198.424 157.106 203.332 160.891 209.702 160.891C216.071 160.891 221.234 157.106 221.234 152.433V142.557H198.42V152.433H198.424Z" fill="#FFB287"/>
<path d="M198.424 149.875C198.424 153.753 203.332 156.895 209.702 156.895C216.071 156.895 221.234 153.753 221.234 149.875V135.057H198.42V149.875H198.424Z" fill="#F58D6C"/>
<path d="M218.228 223.73L210.993 230.77C210.526 231.224 209.744 231.224 209.277 230.77L202.042 223.73C201.787 223.485 201.671 223.143 201.727 222.802L207.525 175.163L207.867 172.359L207.992 171.33H212.282L212.407 172.359L212.831 175.854C212.831 175.854 212.835 175.858 212.835 175.862L218.543 222.802C218.6 223.143 218.483 223.485 218.228 223.73Z" fill="#F93E3E"/>
<path d="M187.919 81.9707C188.04 82.2118 188.152 82.473 188.261 82.7542C188.122 82.4971 188.01 82.2359 187.919 81.9707Z" fill="#993E39"/>
<path opacity="0.48" d="M212.836 175.859C212.836 175.859 212.836 175.855 212.832 175.851C212.456 174.67 211.673 173.726 210.181 173.726C208.94 173.726 208.076 174.148 207.526 175.16L207.868 172.355C207.868 172.355 209.1 173.227 210.108 173.227C211.115 173.227 212.408 172.355 212.408 172.355L212.836 175.859Z" fill="#BA3131"/>
<g clip-path="url(#clip2_1413_23800)">
<path d="M291.297 80.7025C291.297 91.2999 289.216 101.793 285.173 111.584C281.13 121.375 275.204 130.271 267.733 137.764C260.262 145.257 251.393 151.201 241.632 155.256C231.871 159.311 221.41 161.398 210.845 161.397C200.28 161.398 189.819 159.311 180.058 155.256C170.297 151.201 161.429 145.257 153.958 137.764C146.487 130.271 140.562 121.375 136.519 111.584C132.476 101.793 130.395 91.2998 130.396 80.7025C130.395 70.1049 132.476 59.6111 136.518 49.82C140.561 40.0289 146.487 31.1323 153.957 23.6384C161.428 16.1445 170.297 10.2 180.058 6.14408C189.818 2.0882 200.28 0.00037273 210.845 0C221.41 -6.55432e-09 231.872 2.08732 241.633 6.14304C251.394 10.1988 260.263 16.1434 267.734 23.6374C275.205 31.1313 281.131 40.028 285.174 49.8193C289.217 59.6106 291.298 70.1047 291.297 80.7025Z" fill="white"/>
<path d="M176.53 83.224V83.1897C176.64 82.9274 176.693 82.6444 176.685 82.3597C176.688 82.0617 176.632 81.766 176.521 81.4898C176.41 81.2137 176.246 80.9626 176.039 80.7511C175.831 80.5396 175.583 80.3719 175.311 80.2577C175.038 80.1435 174.746 80.0852 174.451 80.086H132.629C132.336 80.0848 132.045 80.1421 131.774 80.2549C131.503 80.3678 131.256 80.534 131.048 80.7435C130.841 80.953 130.676 81.2016 130.564 81.4756C130.452 81.7496 130.395 82.0435 130.396 82.3399V82.4138C130.934 102.143 138.569 120.998 151.872 135.451C151.888 135.465 151.906 135.477 151.926 135.485C152.131 135.701 152.377 135.873 152.65 135.99C152.923 136.107 153.216 136.168 153.512 136.167C153.956 136.167 154.39 136.035 154.759 135.786C155.129 135.538 155.417 135.185 155.588 134.771L176.53 83.224ZM247.486 150.192C247.467 150.169 247.457 150.139 247.458 150.109L222.229 87.9936C222.207 87.9605 222.195 87.9221 222.192 87.8825C221.28 85.5897 219.709 83.6256 217.682 82.2435C215.655 80.8613 213.264 80.1245 210.818 80.1283C208.524 80.1261 206.275 80.7761 204.329 82.004C202.383 83.232 200.818 84.9883 199.813 87.0723L174.187 150.126C174.076 150.404 174.021 150.7 174.024 150.999C174.027 151.395 174.133 151.783 174.33 152.125C174.527 152.467 174.81 152.751 175.149 152.949C175.166 152.983 175.197 152.983 175.247 153.02C186.313 158.541 198.491 161.407 210.832 161.394C223.173 161.413 235.35 158.55 246.414 153.029C246.437 153.019 246.457 153.003 246.471 152.983C246.83 152.794 247.13 152.508 247.337 152.156C247.545 151.805 247.652 151.402 247.647 150.993C247.647 150.712 247.595 150.433 247.492 150.172L247.486 150.192ZM291.297 82.4308C291.289 82.41 291.283 82.3881 291.28 82.3656C291.282 82.0678 291.226 81.7722 291.115 81.4964C291.004 81.2206 290.84 80.9698 290.632 80.7584C290.424 80.547 290.178 80.3795 289.905 80.265C289.633 80.1505 289.341 80.0915 289.047 80.0915H247.225C246.93 80.0915 246.639 80.1504 246.367 80.265C246.095 80.3795 245.848 80.5473 245.641 80.7587C245.434 80.9702 245.27 81.2214 245.16 81.4971C245.049 81.7729 244.994 82.0681 244.997 82.3656C244.992 82.6649 245.051 82.9615 245.171 83.2351L266.099 134.771C266.262 135.185 266.545 135.54 266.911 135.789C267.277 136.038 267.709 136.17 268.15 136.167C268.441 136.17 268.729 136.113 268.998 136.001C269.267 135.89 269.512 135.725 269.717 135.516C269.742 135.49 269.772 135.468 269.804 135.451C283.096 120.996 290.735 102.153 291.297 82.4308Z" fill="#0C70C3"/>
<path d="M222.324 7.17503H222.358C222.425 20.8226 225.013 34.3376 229.987 47.0261L233.853 56.5683C233.994 56.9054 234.213 57.2037 234.491 57.4389C234.769 57.6741 235.097 57.8393 235.451 57.9212H235.473C235.541 57.9292 235.607 57.9427 235.673 57.9611H235.698H235.906H284.905C285.499 57.9611 286.069 57.7239 286.49 57.3011C286.912 56.8784 287.151 56.3045 287.156 55.7043C287.155 55.4667 287.113 55.2307 287.032 55.0076V54.9878C282.389 41.2282 274.183 28.9761 263.267 19.5056C252.351 10.035 239.124 3.69159 224.96 1.13485C224.925 1.13137 224.891 1.13137 224.856 1.13485C224.763 1.12632 224.662 1.1123 224.575 1.1123C223.982 1.11226 223.413 1.34819 222.992 1.76912C222.571 2.19006 222.331 2.76206 222.324 3.36071V7.17503Z" fill="#0C70C3"/>
<path d="M185.76 57.9611H136.776L136.773 57.9698C136.18 57.9653 135.614 57.7246 135.195 57.3004C134.777 56.8763 134.541 56.303 134.539 55.7043C134.539 55.468 134.575 55.2328 134.646 55.0076C134.651 54.989 134.651 54.9696 134.646 54.951C139.295 41.2019 147.501 28.9602 158.412 19.4965C169.323 10.0329 182.543 3.69192 196.698 1.13207C196.734 1.12806 196.771 1.12806 196.808 1.13207C196.906 1.12355 196.996 1.10952 197.089 1.10952C197.383 1.10614 197.675 1.16182 197.948 1.27329C198.221 1.38477 198.47 1.5496 198.679 1.75872C198.888 1.96783 199.054 2.21707 199.168 2.49153C199.281 2.766 199.34 3.06051 199.34 3.35793V7.17226C199.257 20.8123 196.665 34.3181 191.696 47.0008L187.825 56.5596C187.668 56.9462 187.408 57.2815 187.075 57.5287C186.741 57.776 186.347 57.9256 185.935 57.9611H185.76Z" fill="#0C70C3"/>
</g>
<g opacity="0.2">
<path fill-rule="evenodd" clip-rule="evenodd" d="M197.89 147.48C242.321 147.48 278.34 111.35 278.34 66.7812C278.34 48.9222 272.557 32.4182 262.766 19.0508C280.217 33.8537 291.297 55.9773 291.297 80.6968C291.297 125.265 255.278 161.395 210.846 161.395C184.219 161.395 160.613 148.419 145.97 128.427C159.982 140.313 178.101 147.48 197.89 147.48Z" fill="black"/>
</g>
<path style="mix-blend-mode:overlay" d="M131.791 68.8123C138.232 24.6525 176.299 -6.18039 222.436 0.613773C267.226 6.1757 296.198 48.1753 289.759 92.3352C283.318 136.495 242.735 167.028 199.114 160.534C155.493 154.037 125.352 112.972 131.791 68.8123Z" fill="url(#paint16_radial_1413_23800)"/>
</g>
<g style="mix-blend-mode:screen">
<path d="M81.9414 22.9414H344.492L285.239 217.678H144.259L81.9414 22.9414Z" fill="url(#paint17_linear_1413_23800)"/>
</g>
<g style="mix-blend-mode:darken">
<ellipse cx="337.851" cy="227.871" rx="19.9211" ry="3.05869" fill="black" fill-opacity="0.1"/>
</g>
<g style="mix-blend-mode:darken">
<ellipse cx="88.0705" cy="227.871" rx="19.9211" ry="3.05869" fill="black" fill-opacity="0.1"/>
</g>
</g>
<defs>
<linearGradient id="paint0_linear_1413_23800" x1="138.808" y1="215.598" x2="168.514" y2="369.121" gradientUnits="userSpaceOnUse">
<stop stop-color="#E89900"/>
<stop offset="0.635" stop-color="#DE9B18" stop-opacity="0.53"/>
<stop offset="1" stop-color="#F2FEFF"/>
</linearGradient>
<linearGradient id="paint1_linear_1413_23800" x1="32.9043" y1="241.47" x2="128.004" y2="199.489" gradientUnits="userSpaceOnUse">
<stop stop-color="#FFA439"/>
<stop offset="1" stop-color="#FFE0A5"/>
</linearGradient>
<linearGradient id="paint2_linear_1413_23800" x1="77.5712" y1="241.469" x2="96.4196" y2="376.392" gradientUnits="userSpaceOnUse">
<stop stop-color="#FFC14A"/>
<stop offset="1" stop-color="#F2FEFF"/>
</linearGradient>
<linearGradient id="paint3_linear_1413_23800" x1="100.463" y1="209.635" x2="84.1692" y2="162.24" gradientUnits="userSpaceOnUse">
<stop stop-color="#BB4300"/>
<stop offset="1" stop-color="#F87B00" stop-opacity="0.79"/>
</linearGradient>
<linearGradient id="paint4_linear_1413_23800" x1="106.152" y1="182.273" x2="75.1191" y2="232.32" gradientUnits="userSpaceOnUse">
<stop stop-color="#FFB55D"/>
<stop offset="1" stop-color="#FFDB1F"/>
</linearGradient>
<linearGradient id="paint5_linear_1413_23800" x1="291.884" y1="215.598" x2="175.88" y2="287.934" gradientUnits="userSpaceOnUse">
<stop stop-color="#26C8DE"/>
<stop offset="0.3714" stop-color="#38BFD5"/>
<stop offset="1" stop-color="#F4FDFF"/>
</linearGradient>
<linearGradient id="paint6_linear_1413_23800" x1="393.016" y1="240.733" x2="301.699" y2="201.11" gradientUnits="userSpaceOnUse">
<stop stop-color="#5EBEFF"/>
<stop offset="1" stop-color="#61FBFF"/>
</linearGradient>
<linearGradient id="paint7_linear_1413_23800" x1="280.432" y1="401.508" x2="297.642" y2="260.782" gradientUnits="userSpaceOnUse">
<stop stop-color="#F2FEFF"/>
<stop offset="1" stop-color="#02D9E7"/>
</linearGradient>
<linearGradient id="paint8_linear_1413_23800" x1="330.192" y1="204.167" x2="368.794" y2="157.763" gradientUnits="userSpaceOnUse">
<stop stop-color="#00B3FF"/>
<stop offset="1" stop-color="#36FFFF"/>
</linearGradient>
<linearGradient id="paint9_linear_1413_23800" x1="415.237" y1="124.643" x2="100.63" y2="169.86" gradientUnits="userSpaceOnUse">
<stop stop-color="white"/>
<stop offset="1" stop-color="#0073DD"/>
</linearGradient>
<linearGradient id="paint10_linear_1413_23800" x1="304.056" y1="178.322" x2="207.178" y2="224.853" gradientUnits="userSpaceOnUse">
<stop stop-color="#7CFFE7"/>
<stop offset="1" stop-color="#9CFFE7"/>
</linearGradient>
<linearGradient id="paint11_linear_1413_23800" x1="282.215" y1="180.035" x2="147.042" y2="193.641" gradientUnits="userSpaceOnUse">
<stop stop-color="#0F87E1"/>
<stop offset="1" stop-color="#005083"/>
</linearGradient>
<linearGradient id="paint12_linear_1413_23800" x1="103.394" y1="224.815" x2="240.827" y2="269.34" gradientUnits="userSpaceOnUse">
<stop stop-color="#59D7FF"/>
<stop offset="1" stop-color="#0164D9"/>
<stop offset="1.0001" stop-color="#007DF1"/>
</linearGradient>
<linearGradient id="paint13_linear_1413_23800" x1="211.97" y1="204.154" x2="211.97" y2="217.937" gradientUnits="userSpaceOnUse">
<stop stop-color="#004570" stop-opacity="0"/>
<stop offset="1" stop-color="#00609F" stop-opacity="0.41"/>
</linearGradient>
<linearGradient id="paint14_linear_1413_23800" x1="284.528" y1="174.005" x2="276.362" y2="199.861" gradientUnits="userSpaceOnUse">
<stop stop-color="white" stop-opacity="0"/>
<stop offset="1" stop-color="white" stop-opacity="0.5"/>
</linearGradient>
<linearGradient id="paint15_linear_1413_23800" x1="141.141" y1="173.576" x2="153.18" y2="199.874" gradientUnits="userSpaceOnUse">
<stop stop-color="white" stop-opacity="0"/>
<stop offset="1" stop-color="white" stop-opacity="0.5"/>
</linearGradient>
<radialGradient id="paint16_radial_1413_23800" cx="0" cy="0" r="1" gradientUnits="userSpaceOnUse" gradientTransform="translate(162.645 15.6187) rotate(57.5121) scale(125.641 162.817)">
<stop stop-color="white"/>
<stop offset="0.655" stop-color="#007AEB" stop-opacity="0.6"/>
<stop offset="1" stop-color="#0055A3" stop-opacity="0.6"/>
</radialGradient>
<linearGradient id="paint17_linear_1413_23800" x1="229.514" y1="99.4087" x2="232.869" y2="235.01" gradientUnits="userSpaceOnUse">
<stop stop-color="#BDE7FF" stop-opacity="0"/>
<stop offset="0.807731" stop-color="#27A4FF" stop-opacity="0.3"/>
<stop offset="1" stop-color="#2287FF" stop-opacity="0.77"/>
</linearGradient>
<clipPath id="clip0_1413_23800">
<rect width="405" height="273" fill="white" transform="translate(0.5)"/>
</clipPath>
<clipPath id="clip1_1413_23800">
<rect width="202.99" height="217.939" fill="white" transform="translate(88.0703)"/>
</clipPath>
<clipPath id="clip2_1413_23800">
<rect width="160.902" height="161.397" fill="white" transform="translate(130.396)"/>
</clipPath>
</defs>
</svg>
