<svg width="704" height="846" viewBox="0 0 704 846" fill="none" xmlns="http://www.w3.org/2000/svg">
<path d="M1 805.586V40.4142L40.4142 1H663.586L703 40.4142V429.876V805.586L663.586 845H514.548H352H40.4142L1 805.586Z" fill="url(#paint0_radial_1247_39096)" stroke="url(#paint1_linear_1247_39096)" stroke-width="2"/>
<g style="mix-blend-mode:overlay">
<rect opacity="0.3" x="587" y="169" width="14" height="14" transform="rotate(-180 587 169)" fill="#15FFFF"/>
<rect opacity="0.3" x="587" y="188.949" width="14" height="14" transform="rotate(-180 587 188.949)" fill="#C8FCFF"/>
<rect opacity="0.3" x="607" y="188.949" width="14" height="14" transform="rotate(-180 607 188.949)" fill="#69F6FF"/>
<rect opacity="0.3" x="553" y="228.844" width="14" height="14" transform="rotate(-90 553 228.844)" fill="#15FFFF"/>
<rect opacity="0.3" x="573" y="228.844" width="14" height="14" transform="rotate(-90 573 228.844)" fill="#C8FCFF"/>
<rect opacity="0.3" x="573" y="208.895" width="14" height="14" transform="rotate(-90 573 208.895)" fill="#69F6FF"/>
<rect x="547" y="228.844" width="14" height="14" transform="rotate(-180 547 228.844)" fill="#15FFFF"/>
<rect opacity="0.3" x="567" y="208.895" width="14" height="14" transform="rotate(-180 567 208.895)" fill="#C8FCFF"/>
<rect opacity="0.3" x="528" y="228.844" width="14" height="14" transform="rotate(-180 528 228.844)" fill="#69F6FF"/>
<rect x="547" y="208.895" width="14" height="14" transform="rotate(-180 547 208.895)" fill="#15FFFF"/>
<rect opacity="0.3" x="509" y="208.895" width="14" height="14" transform="rotate(-180 509 208.895)" fill="#C8FCFF"/>
<rect opacity="0.3" x="528" y="208.895" width="14" height="14" transform="rotate(-180 528 208.895)" fill="#69F6FF"/>
<rect opacity="0.3" x="627" y="188.949" width="14" height="14" transform="rotate(-180 627 188.949)" fill="#15FFFF"/>
<rect opacity="0.3" x="607" y="248.793" width="14" height="14" transform="rotate(-180 607 248.793)" fill="#C8FCFF"/>
<rect opacity="0.3" x="627" y="267.746" width="14" height="14" transform="rotate(-180 627 267.746)" fill="#69F6FF"/>
<rect opacity="0.3" x="533" y="174.984" width="14" height="14" fill="#15FFFF"/>
<rect x="553" y="234.828" width="14" height="14" fill="#69F6FF"/>
</g>
<defs>
<radialGradient id="paint0_radial_1247_39096" cx="0" cy="0" r="1" gradientUnits="userSpaceOnUse" gradientTransform="translate(345.6 423) rotate(90) scale(423 345.6)">
<stop stop-color="#0D52B9"/>
<stop offset="0.435" stop-color="#033683"/>
<stop offset="1" stop-color="#062553"/>
</radialGradient>
<linearGradient id="paint1_linear_1247_39096" x1="755.653" y1="1054.5" x2="-342.765" y2="695.28" gradientUnits="userSpaceOnUse">
<stop stop-color="#00F9FF"/>
<stop offset="0.135" stop-color="#ABFFFA"/>
<stop offset="0.33" stop-color="#61FBFF"/>
<stop offset="0.51" stop-color="#73FCFF"/>
<stop offset="1" stop-color="#66FFC8"/>
</linearGradient>
</defs>
</svg>
