<svg width="960" height="822" viewBox="0 0 960 822" fill="none" xmlns="http://www.w3.org/2000/svg">
<path d="M551.116 90.396L550.821 90.6975H550.4H40.9128L1 130.416V654.585L39.9134 693.382H343.5H343.921L344.215 693.683L366.021 716H919.586L959 676.586V84.4127L919.79 45H595.421L551.116 90.396Z" fill="url(#paint0_radial_1270_20812)" stroke="url(#paint1_linear_1270_20812)" stroke-width="2"/>
<path d="M943 90.5L913.5 61H605.5L560 107H49L15 140.5L16.5 647.5L46.5 677H349L372 700H913L943 670V90.5Z" stroke="#00FFFF" stroke-width="2"/>
<g style="mix-blend-mode:overlay">
<rect opacity="0.3" x="847" y="118" width="14" height="14" transform="rotate(-180 847 118)" fill="#15FFFF"/>
<rect opacity="0.3" x="847" y="137.949" width="14" height="14" transform="rotate(-180 847 137.949)" fill="#C8FCFF"/>
<rect opacity="0.3" x="867" y="137.949" width="14" height="14" transform="rotate(-180 867 137.949)" fill="#69F6FF"/>
<rect opacity="0.3" x="813" y="177.844" width="14" height="14" transform="rotate(-90 813 177.844)" fill="#15FFFF"/>
<rect opacity="0.3" x="833" y="177.844" width="14" height="14" transform="rotate(-90 833 177.844)" fill="#C8FCFF"/>
<rect opacity="0.3" x="833" y="157.895" width="14" height="14" transform="rotate(-90 833 157.895)" fill="#69F6FF"/>
<rect x="807" y="177.844" width="14" height="14" transform="rotate(-180 807 177.844)" fill="#15FFFF"/>
<rect opacity="0.3" x="827" y="157.895" width="14" height="14" transform="rotate(-180 827 157.895)" fill="#C8FCFF"/>
<rect opacity="0.3" x="788" y="177.844" width="14" height="14" transform="rotate(-180 788 177.844)" fill="#69F6FF"/>
<rect x="807" y="157.895" width="14" height="14" transform="rotate(-180 807 157.895)" fill="#15FFFF"/>
<rect opacity="0.3" x="769" y="157.895" width="14" height="14" transform="rotate(-180 769 157.895)" fill="#C8FCFF"/>
<rect opacity="0.3" x="788" y="157.895" width="14" height="14" transform="rotate(-180 788 157.895)" fill="#69F6FF"/>
<rect opacity="0.3" x="887" y="137.949" width="14" height="14" transform="rotate(-180 887 137.949)" fill="#15FFFF"/>
<rect opacity="0.3" x="867" y="197.793" width="14" height="14" transform="rotate(-180 867 197.793)" fill="#C8FCFF"/>
<rect opacity="0.3" x="887" y="216.746" width="14" height="14" transform="rotate(-180 887 216.746)" fill="#69F6FF"/>
<rect opacity="0.3" x="793" y="123.984" width="14" height="14" fill="#15FFFF"/>
<rect x="813" y="183.828" width="14" height="14" fill="#69F6FF"/>
</g>
<path d="M65 751.586V40.4142L104.414 1H477.586L517 40.4142V402.437V751.586L477.586 791H291H104.414L65 751.586Z" fill="url(#paint2_radial_1270_20812)" stroke="url(#paint3_linear_1270_20812)" stroke-width="2"/>
<defs>
<radialGradient id="paint0_radial_1270_20812" cx="0" cy="0" r="1" gradientUnits="userSpaceOnUse" gradientTransform="translate(633.6 418.5) rotate(34.5043) scale(277.156 228.025)">
<stop stop-color="#003A91"/>
<stop offset="1" stop-color="#062553"/>
</radialGradient>
<linearGradient id="paint1_linear_1270_20812" x1="-158.384" y1="395.982" x2="474.709" y2="891.978" gradientUnits="userSpaceOnUse">
<stop stop-color="#00F9FF"/>
<stop offset="0.135" stop-color="#ABFFFA"/>
<stop offset="0.33" stop-color="#61FBFF"/>
<stop offset="0.51" stop-color="#73FCFF"/>
<stop offset="1" stop-color="#66FFC8"/>
</linearGradient>
<radialGradient id="paint2_radial_1270_20812" cx="0" cy="0" r="1" gradientUnits="userSpaceOnUse" gradientTransform="translate(64 263.67) rotate(45.8695) scale(879.023 465.946)">
<stop stop-color="#045284"/>
<stop offset="0.772851" stop-color="#042B66"/>
</radialGradient>
<linearGradient id="paint3_linear_1270_20812" x1="574.747" y1="994.988" x2="-204.324" y2="812.478" gradientUnits="userSpaceOnUse">
<stop stop-color="#00F9FF"/>
<stop offset="0.135" stop-color="white"/>
<stop offset="0.33" stop-color="#61FBFF"/>
<stop offset="0.51" stop-color="#73FCFF"/>
<stop offset="1" stop-color="white"/>
</linearGradient>
</defs>
</svg>
