<svg width="960" height="822" viewBox="0 0 960 822" fill="none" xmlns="http://www.w3.org/2000/svg">
<path d="M343.5 693.382H343.921L344.215 693.683L366.021 716H919.586L959 676.586V84.4127L919.79 45H595.421L551.116 90.396L550.821 90.6975H550.4H40.9128L1 130.416V654.585L39.9134 693.382H343.5Z" fill="url(#paint0_radial_1270_20812)" stroke="url(#paint1_linear_1270_20812)" stroke-width="2"/>
<path d="M943 90.5L913.5 61H605.5L560 107H49L15 140.5L16.5 647.5L46.5 677H349L372 700H913L943 670V90.5Z" stroke="#00FFFF" stroke-width="2"/>
<g style="mix-blend-mode:overlay">
<rect opacity="0.3" x="847" y="118" width="14" height="14" transform="rotate(-180 847 118)" fill="#15FFFF"/>
<rect opacity="0.3" x="847" y="137.949" width="14" height="14" transform="rotate(-180 847 137.949)" fill="#C8FCFF"/>
<rect opacity="0.3" x="867" y="137.949" width="14" height="14" transform="rotate(-180 867 137.949)" fill="#69F6FF"/>
<rect opacity="0.3" x="813" y="177.844" width="14" height="14" transform="rotate(-90 813 177.844)" fill="#15FFFF"/>
<rect opacity="0.3" x="833" y="177.844" width="14" height="14" transform="rotate(-90 833 177.844)" fill="#C8FCFF"/>
<rect opacity="0.3" x="833" y="157.895" width="14" height="14" transform="rotate(-90 833 157.895)" fill="#69F6FF"/>
<rect x="807" y="177.844" width="14" height="14" transform="rotate(-180 807 177.844)" fill="#15FFFF"/>
<rect opacity="0.3" x="827" y="157.895" width="14" height="14" transform="rotate(-180 827 157.895)" fill="#C8FCFF"/>
<rect opacity="0.3" x="788" y="177.844" width="14" height="14" transform="rotate(-180 788 177.844)" fill="#69F6FF"/>
<rect x="807" y="157.895" width="14" height="14" transform="rotate(-180 807 157.895)" fill="#15FFFF"/>
<rect opacity="0.3" x="769" y="157.895" width="14" height="14" transform="rotate(-180 769 157.895)" fill="#C8FCFF"/>
<rect opacity="0.3" x="788" y="157.895" width="14" height="14" transform="rotate(-180 788 157.895)" fill="#69F6FF"/>
<rect opacity="0.3" x="887" y="137.949" width="14" height="14" transform="rotate(-180 887 137.949)" fill="#15FFFF"/>
<rect opacity="0.3" x="867" y="197.793" width="14" height="14" transform="rotate(-180 867 197.793)" fill="#C8FCFF"/>
<rect opacity="0.3" x="887" y="216.746" width="14" height="14" transform="rotate(-180 887 216.746)" fill="#69F6FF"/>
<rect opacity="0.3" x="793" y="123.984" width="14" height="14" fill="#15FFFF"/>
<rect x="813" y="183.828" width="14" height="14" fill="#69F6FF"/>
</g>
<path d="M104.414 791L65 751.586V40.4142L104.414 1H477.586L517 40.4142V402.437V751.586L477.586 791H291H104.414Z" fill="url(#paint2_radial_1270_20812)" stroke="url(#paint3_linear_1270_20812)" stroke-width="2"/>
<g filter="url(#filter0_d_1270_20812)">
<mask id="path-21-outside-1_1270_20812" maskUnits="userSpaceOnUse" x="607" y="334" width="210" height="60" fill="black">
<rect fill="white" x="607" y="334" width="210" height="60"/>
<path d="M629.06 346.461L658.334 344.795L658.789 349.136L629.514 350.953L629.06 346.461ZM634.562 340.404H640.215C640.45 342.322 640.988 344.088 641.83 345.703C642.671 347.319 643.697 348.715 644.909 349.893C646.12 351.037 647.415 351.928 648.795 352.568C650.208 353.207 651.605 353.527 652.984 353.527C653.691 353.527 654.162 353.291 654.397 352.82C654.633 352.315 654.818 351.407 654.953 350.095C655.525 350.532 656.231 350.953 657.073 351.356C657.914 351.727 658.688 352.013 659.394 352.215C659.159 354.032 658.772 355.428 658.233 356.404C657.729 357.346 657.022 357.985 656.114 358.322C655.239 358.658 654.128 358.826 652.782 358.826C651.033 358.826 649.317 358.54 647.634 357.968C645.952 357.396 644.387 356.589 642.94 355.546C641.493 354.469 640.181 353.19 639.003 351.71C637.825 350.196 636.85 348.496 636.076 346.612C635.335 344.728 634.831 342.658 634.562 340.404ZM643.445 343.18L646.17 340.252C647.113 340.421 648.122 340.673 649.199 341.009C650.309 341.312 651.369 341.649 652.379 342.019C653.388 342.355 654.229 342.709 654.902 343.079L652.025 346.309C651.42 345.973 650.612 345.619 649.603 345.249C648.627 344.845 647.6 344.458 646.524 344.088C645.447 343.718 644.421 343.415 643.445 343.18ZM626.385 340L631.836 342.12C630.557 343.735 629.043 345.317 627.293 346.864C625.544 348.412 623.727 349.859 621.842 351.205C619.958 352.517 618.107 353.645 616.29 354.587C615.987 354.183 615.567 353.712 615.028 353.174C614.524 352.635 614.002 352.097 613.464 351.558C612.925 350.986 612.437 350.549 612 350.246C613.851 349.438 615.668 348.513 617.451 347.47C619.234 346.393 620.9 345.232 622.448 343.987C623.996 342.709 625.308 341.38 626.385 340ZM621.741 348.126L625.527 344.29L627.546 344.845V357.464H621.741V348.126ZM625.577 367.912V370.032H647.483V367.912H625.577ZM625.577 373.464V375.685H647.483V373.464H625.577ZM625.577 362.309V364.479H647.483V362.309H625.577ZM619.722 358.726H653.64V379.268H619.722V358.726ZM639.104 381.943L644.151 379.066C645.968 379.706 647.802 380.395 649.653 381.136C651.537 381.842 653.321 382.566 655.003 383.306C656.719 384.013 658.166 384.652 659.344 385.224L652.278 387.95C651.335 387.411 650.158 386.789 648.744 386.082C647.331 385.375 645.8 384.652 644.151 383.912C642.536 383.205 640.854 382.549 639.104 381.943ZM627.95 378.864L633.451 381.388C632.105 382.263 630.524 383.121 628.707 383.962C626.89 384.803 625.022 385.56 623.104 386.233C621.186 386.94 619.369 387.529 617.653 388C617.283 387.596 616.829 387.108 616.29 386.536C615.785 385.998 615.247 385.443 614.675 384.871C614.103 384.332 613.598 383.895 613.161 383.558C614.944 383.222 616.744 382.818 618.562 382.347C620.412 381.876 622.145 381.338 623.76 380.732C625.409 380.126 626.805 379.504 627.95 378.864Z"/>
<path d="M694.625 358.372H700.379V360.896C700.379 362.713 700.261 364.749 700.025 367.003C699.823 369.224 699.386 371.563 698.713 374.019C698.04 376.442 697.014 378.848 695.634 381.237C694.254 383.626 692.404 385.88 690.082 388C689.746 387.563 689.308 387.075 688.77 386.536C688.265 386.032 687.71 385.527 687.104 385.022C686.532 384.551 685.994 384.164 685.489 383.861C687.609 382.044 689.274 380.126 690.486 378.107C691.731 376.055 692.639 374.002 693.211 371.95C693.783 369.863 694.154 367.861 694.322 365.943C694.524 364.025 694.625 362.292 694.625 360.744V358.372ZM699.975 364.479C700.513 367.104 701.253 369.611 702.196 372C703.138 374.355 704.332 376.458 705.779 378.309C707.226 380.126 708.976 381.556 711.028 382.599C710.557 383.003 710.069 383.491 709.565 384.063C709.06 384.669 708.572 385.291 708.101 385.931C707.63 386.57 707.243 387.176 706.94 387.748C704.719 386.334 702.835 384.517 701.287 382.297C699.773 380.076 698.528 377.535 697.552 374.675C696.576 371.781 695.769 368.669 695.129 365.338L699.975 364.479ZM663.685 344.492H687.356V349.438H663.685V344.492ZM662.978 366.498H687.962V371.445H662.978V366.498ZM664.946 351.962H686.246V356.858H664.946V351.962ZM665.249 359.23H685.943V364.126H665.249V359.23ZM672.77 340.757H678.423V355.192H672.77V340.757ZM666.208 372.404L671.155 373.565C670.65 375.415 670.027 377.333 669.287 379.319C668.547 381.27 667.823 382.936 667.117 384.315C666.578 383.979 665.821 383.609 664.845 383.205C663.903 382.801 663.113 382.498 662.473 382.297C663.213 380.984 663.92 379.436 664.593 377.653C665.266 375.836 665.804 374.086 666.208 372.404ZM679.886 374.069L684.379 372.303C684.816 373.144 685.237 374.036 685.64 374.978C686.078 375.886 686.482 376.795 686.852 377.703C687.222 378.612 687.491 379.42 687.659 380.126L682.915 382.145C682.747 381.438 682.494 380.631 682.158 379.722C681.821 378.78 681.451 377.821 681.047 376.845C680.677 375.836 680.29 374.911 679.886 374.069ZM691.899 349.539H706.132V355.041H691.899V349.539ZM690.94 340.505L696.845 341.312C696.442 344.374 695.903 347.369 695.23 350.297C694.591 353.19 693.817 355.899 692.909 358.423C692 360.913 690.957 363.117 689.779 365.035C689.443 364.698 688.972 364.294 688.366 363.823C687.76 363.352 687.138 362.898 686.498 362.461C685.859 361.989 685.304 361.619 684.833 361.35C685.977 359.735 686.936 357.817 687.71 355.596C688.517 353.375 689.174 350.986 689.678 348.429C690.217 345.838 690.637 343.197 690.94 340.505ZM704.568 349.539H705.426L706.385 349.338L710.524 350.448C710.221 352.13 709.851 353.846 709.413 355.596C709.009 357.346 708.572 359.028 708.101 360.644C707.664 362.259 707.226 363.672 706.789 364.883L701.893 363.42C702.229 362.309 702.566 361.014 702.902 359.533C703.239 358.053 703.542 356.538 703.811 354.991C704.114 353.409 704.366 351.895 704.568 350.448V349.539ZM672.82 368.517H678.524V387.798H672.82V368.517Z"/>
<path d="M714.814 371.293H759.836V376.29H714.814V371.293ZM714.965 348.681H759.685V353.426H714.965V348.681ZM717.035 357.868H757.716V362.461H717.035V357.868ZM719.508 364.732H755.394V369.073H719.508V364.732ZM734.145 360.088H740.151V387.849H734.145V360.088ZM729.855 340.353H735.508V351.054H729.855V340.353ZM739.192 340.353H744.946V350.7H739.192V340.353ZM750.852 340.808L757.161 342.322C756.353 343.701 755.546 345.047 754.738 346.36C753.931 347.638 753.19 348.732 752.517 349.64L747.621 348.126C748.025 347.453 748.429 346.696 748.833 345.855C749.237 344.98 749.607 344.105 749.943 343.23C750.313 342.322 750.616 341.514 750.852 340.808ZM744.644 353.022L751.054 354.637C750.313 355.512 749.59 356.303 748.883 357.009C748.21 357.682 747.571 358.288 746.965 358.826L741.817 357.312C742.322 356.673 742.827 355.95 743.331 355.142C743.87 354.334 744.307 353.628 744.644 353.022ZM718.65 342.423L723.849 340.656C724.589 341.699 725.329 342.911 726.069 344.29C726.81 345.636 727.348 346.797 727.685 347.773L722.183 349.792C721.914 348.782 721.426 347.588 720.719 346.208C720.046 344.829 719.356 343.567 718.65 342.423ZM724.505 354.183L730.208 352.921C730.646 353.56 731.083 354.284 731.521 355.091C731.992 355.899 732.345 356.623 732.58 357.262L726.625 358.675C726.456 358.069 726.154 357.346 725.716 356.505C725.312 355.63 724.909 354.856 724.505 354.183ZM728.644 377.956L732.934 379.924C731.823 380.866 730.427 381.775 728.744 382.65C727.096 383.525 725.363 384.299 723.546 384.972C721.729 385.678 719.945 386.233 718.196 386.637C717.825 385.998 717.287 385.241 716.58 384.366C715.874 383.491 715.218 382.801 714.612 382.297C716.294 382.027 718.027 381.674 719.811 381.237C721.594 380.799 723.26 380.294 724.808 379.722C726.355 379.15 727.634 378.562 728.644 377.956ZM742.322 380.479L746.36 377.603C747.739 378.141 749.253 378.747 750.902 379.42C752.585 380.093 754.2 380.782 755.748 381.489C757.329 382.162 758.658 382.784 759.735 383.356L755.445 386.637C754.469 386.099 753.224 385.46 751.71 384.719C750.196 383.979 748.597 383.239 746.915 382.498C745.266 381.758 743.735 381.085 742.322 380.479Z"/>
<path d="M765.186 342.726H781.691V347.823H765.186V342.726ZM785.375 368.719H805.868V373.716H785.375V368.719ZM764.479 358.17H783.256V363.42H764.479V358.17ZM772.707 360.341H778.41V381.287C778.41 382.667 778.259 383.777 777.956 384.618C777.687 385.46 777.115 386.116 776.24 386.587C775.365 387.024 774.339 387.31 773.161 387.445C771.983 387.579 770.62 387.647 769.073 387.647C768.972 386.805 768.753 385.83 768.416 384.719C768.08 383.642 767.71 382.7 767.306 381.893C768.282 381.926 769.207 381.943 770.082 381.943C770.957 381.943 771.563 381.943 771.899 381.943C772.202 381.91 772.404 381.859 772.505 381.792C772.639 381.691 772.707 381.489 772.707 381.186V360.341ZM803.95 368.719H810.057C810.057 368.719 810.04 369.005 810.006 369.577C809.973 370.116 809.922 370.587 809.855 370.991C809.619 373.918 809.333 376.341 808.997 378.259C808.694 380.143 808.358 381.657 807.987 382.801C807.617 383.912 807.18 384.736 806.675 385.274C806.137 385.846 805.565 386.25 804.959 386.486C804.387 386.755 803.731 386.957 802.991 387.091C802.385 387.159 801.577 387.192 800.568 387.192C799.558 387.226 798.465 387.226 797.287 387.192C797.253 386.318 797.085 385.359 796.782 384.315C796.513 383.272 796.143 382.364 795.672 381.59C796.58 381.691 797.422 381.758 798.196 381.792C799.003 381.825 799.609 381.842 800.013 381.842C800.416 381.842 800.736 381.809 800.972 381.741C801.207 381.64 801.443 381.489 801.678 381.287C801.981 380.984 802.267 380.412 802.536 379.571C802.805 378.696 803.058 377.434 803.293 375.785C803.529 374.137 803.748 372.034 803.95 369.476V368.719ZM793.249 364.177H799.256C799.02 366.768 798.667 369.241 798.196 371.596C797.758 373.918 797.018 376.088 795.975 378.107C794.932 380.126 793.468 381.96 791.584 383.609C789.733 385.258 787.31 386.671 784.315 387.849C783.979 387.142 783.474 386.318 782.801 385.375C782.128 384.467 781.472 383.727 780.833 383.155C783.457 382.212 785.544 381.085 787.091 379.773C788.673 378.427 789.868 376.946 790.675 375.331C791.516 373.716 792.105 371.966 792.442 370.082C792.812 368.198 793.081 366.229 793.249 364.177ZM766.347 353.224L770.132 349.338C771.512 349.842 772.976 350.448 774.524 351.155C776.105 351.861 777.603 352.585 779.016 353.325C780.463 354.065 781.674 354.789 782.65 355.495L778.562 359.836C777.687 359.129 776.559 358.389 775.18 357.615C773.8 356.808 772.32 356.017 770.738 355.243C769.19 354.469 767.727 353.796 766.347 353.224ZM781.792 358.17H782.549L783.356 357.918L787.041 359.079C786.637 361.367 786.116 363.722 785.476 366.145C784.871 368.568 784.231 370.637 783.558 372.353L779.47 370.435C779.941 368.955 780.379 367.155 780.782 365.035C781.22 362.915 781.556 360.913 781.792 359.028V358.17ZM801.981 348.025L808.29 348.984C807.18 352.08 805.615 354.738 803.596 356.959C801.611 359.146 799.256 360.963 796.53 362.41C793.804 363.857 790.776 365.052 787.445 365.994C787.243 365.556 786.906 365.018 786.435 364.379C785.998 363.739 785.527 363.117 785.022 362.511C784.551 361.872 784.114 361.367 783.71 360.997C786.805 360.358 789.581 359.483 792.038 358.372C794.528 357.262 796.614 355.865 798.297 354.183C800.013 352.467 801.241 350.414 801.981 348.025ZM791.937 340.353L797.539 341.968C796.732 343.752 795.756 345.502 794.612 347.218C793.468 348.934 792.257 350.549 790.978 352.063C789.733 353.544 788.454 354.822 787.142 355.899C786.772 355.563 786.284 355.192 785.678 354.789C785.073 354.351 784.467 353.931 783.861 353.527C783.256 353.123 782.717 352.787 782.246 352.517C784.231 351.104 786.082 349.321 787.798 347.167C789.514 344.98 790.894 342.709 791.937 340.353ZM792.593 349.338C793.771 351.222 795.302 352.938 797.186 354.486C799.104 356.034 801.308 357.363 803.798 358.473C806.322 359.55 809.047 360.374 811.975 360.946C811.571 361.317 811.117 361.821 810.612 362.461C810.141 363.066 809.687 363.689 809.249 364.328C808.812 364.967 808.442 365.539 808.139 366.044C805.043 365.27 802.2 364.177 799.609 362.763C797.052 361.35 794.747 359.651 792.694 357.666C790.675 355.68 788.976 353.426 787.596 350.902L792.593 349.338ZM772.151 359.987L776.038 361.451C775.399 363.672 774.591 365.943 773.615 368.265C772.673 370.587 771.596 372.74 770.385 374.726C769.174 376.711 767.844 378.376 766.397 379.722C766.128 378.848 765.708 377.855 765.136 376.744C764.597 375.634 764.093 374.675 763.621 373.868C764.833 372.791 765.977 371.495 767.054 369.981C768.164 368.467 769.157 366.852 770.032 365.136C770.906 363.386 771.613 361.67 772.151 359.987ZM791.785 345.552H810.662V350.549H789.363L791.785 345.552ZM780.278 342.726H781.539L782.498 342.524L786.334 344.896C785.594 346.107 784.686 347.352 783.609 348.631C782.532 349.91 781.371 351.121 780.126 352.265C778.915 353.375 777.703 354.351 776.492 355.192C775.954 354.688 775.298 354.166 774.524 353.628C773.783 353.089 773.11 352.635 772.505 352.265C773.582 351.525 774.608 350.667 775.584 349.691C776.593 348.681 777.502 347.655 778.309 346.612C779.15 345.569 779.807 344.627 780.278 343.785V342.726Z"/>
</mask>
<path d="M629.06 346.461L658.334 344.795L658.789 349.136L629.514 350.953L629.06 346.461ZM634.562 340.404H640.215C640.45 342.322 640.988 344.088 641.83 345.703C642.671 347.319 643.697 348.715 644.909 349.893C646.12 351.037 647.415 351.928 648.795 352.568C650.208 353.207 651.605 353.527 652.984 353.527C653.691 353.527 654.162 353.291 654.397 352.82C654.633 352.315 654.818 351.407 654.953 350.095C655.525 350.532 656.231 350.953 657.073 351.356C657.914 351.727 658.688 352.013 659.394 352.215C659.159 354.032 658.772 355.428 658.233 356.404C657.729 357.346 657.022 357.985 656.114 358.322C655.239 358.658 654.128 358.826 652.782 358.826C651.033 358.826 649.317 358.54 647.634 357.968C645.952 357.396 644.387 356.589 642.94 355.546C641.493 354.469 640.181 353.19 639.003 351.71C637.825 350.196 636.85 348.496 636.076 346.612C635.335 344.728 634.831 342.658 634.562 340.404ZM643.445 343.18L646.17 340.252C647.113 340.421 648.122 340.673 649.199 341.009C650.309 341.312 651.369 341.649 652.379 342.019C653.388 342.355 654.229 342.709 654.902 343.079L652.025 346.309C651.42 345.973 650.612 345.619 649.603 345.249C648.627 344.845 647.6 344.458 646.524 344.088C645.447 343.718 644.421 343.415 643.445 343.18ZM626.385 340L631.836 342.12C630.557 343.735 629.043 345.317 627.293 346.864C625.544 348.412 623.727 349.859 621.842 351.205C619.958 352.517 618.107 353.645 616.29 354.587C615.987 354.183 615.567 353.712 615.028 353.174C614.524 352.635 614.002 352.097 613.464 351.558C612.925 350.986 612.437 350.549 612 350.246C613.851 349.438 615.668 348.513 617.451 347.47C619.234 346.393 620.9 345.232 622.448 343.987C623.996 342.709 625.308 341.38 626.385 340ZM621.741 348.126L625.527 344.29L627.546 344.845V357.464H621.741V348.126ZM625.577 367.912V370.032H647.483V367.912H625.577ZM625.577 373.464V375.685H647.483V373.464H625.577ZM625.577 362.309V364.479H647.483V362.309H625.577ZM619.722 358.726H653.64V379.268H619.722V358.726ZM639.104 381.943L644.151 379.066C645.968 379.706 647.802 380.395 649.653 381.136C651.537 381.842 653.321 382.566 655.003 383.306C656.719 384.013 658.166 384.652 659.344 385.224L652.278 387.95C651.335 387.411 650.158 386.789 648.744 386.082C647.331 385.375 645.8 384.652 644.151 383.912C642.536 383.205 640.854 382.549 639.104 381.943ZM627.95 378.864L633.451 381.388C632.105 382.263 630.524 383.121 628.707 383.962C626.89 384.803 625.022 385.56 623.104 386.233C621.186 386.94 619.369 387.529 617.653 388C617.283 387.596 616.829 387.108 616.29 386.536C615.785 385.998 615.247 385.443 614.675 384.871C614.103 384.332 613.598 383.895 613.161 383.558C614.944 383.222 616.744 382.818 618.562 382.347C620.412 381.876 622.145 381.338 623.76 380.732C625.409 380.126 626.805 379.504 627.95 378.864Z" fill="#003396"/>
<path d="M694.625 358.372H700.379V360.896C700.379 362.713 700.261 364.749 700.025 367.003C699.823 369.224 699.386 371.563 698.713 374.019C698.04 376.442 697.014 378.848 695.634 381.237C694.254 383.626 692.404 385.88 690.082 388C689.746 387.563 689.308 387.075 688.77 386.536C688.265 386.032 687.71 385.527 687.104 385.022C686.532 384.551 685.994 384.164 685.489 383.861C687.609 382.044 689.274 380.126 690.486 378.107C691.731 376.055 692.639 374.002 693.211 371.95C693.783 369.863 694.154 367.861 694.322 365.943C694.524 364.025 694.625 362.292 694.625 360.744V358.372ZM699.975 364.479C700.513 367.104 701.253 369.611 702.196 372C703.138 374.355 704.332 376.458 705.779 378.309C707.226 380.126 708.976 381.556 711.028 382.599C710.557 383.003 710.069 383.491 709.565 384.063C709.06 384.669 708.572 385.291 708.101 385.931C707.63 386.57 707.243 387.176 706.94 387.748C704.719 386.334 702.835 384.517 701.287 382.297C699.773 380.076 698.528 377.535 697.552 374.675C696.576 371.781 695.769 368.669 695.129 365.338L699.975 364.479ZM663.685 344.492H687.356V349.438H663.685V344.492ZM662.978 366.498H687.962V371.445H662.978V366.498ZM664.946 351.962H686.246V356.858H664.946V351.962ZM665.249 359.23H685.943V364.126H665.249V359.23ZM672.77 340.757H678.423V355.192H672.77V340.757ZM666.208 372.404L671.155 373.565C670.65 375.415 670.027 377.333 669.287 379.319C668.547 381.27 667.823 382.936 667.117 384.315C666.578 383.979 665.821 383.609 664.845 383.205C663.903 382.801 663.113 382.498 662.473 382.297C663.213 380.984 663.92 379.436 664.593 377.653C665.266 375.836 665.804 374.086 666.208 372.404ZM679.886 374.069L684.379 372.303C684.816 373.144 685.237 374.036 685.64 374.978C686.078 375.886 686.482 376.795 686.852 377.703C687.222 378.612 687.491 379.42 687.659 380.126L682.915 382.145C682.747 381.438 682.494 380.631 682.158 379.722C681.821 378.78 681.451 377.821 681.047 376.845C680.677 375.836 680.29 374.911 679.886 374.069ZM691.899 349.539H706.132V355.041H691.899V349.539ZM690.94 340.505L696.845 341.312C696.442 344.374 695.903 347.369 695.23 350.297C694.591 353.19 693.817 355.899 692.909 358.423C692 360.913 690.957 363.117 689.779 365.035C689.443 364.698 688.972 364.294 688.366 363.823C687.76 363.352 687.138 362.898 686.498 362.461C685.859 361.989 685.304 361.619 684.833 361.35C685.977 359.735 686.936 357.817 687.71 355.596C688.517 353.375 689.174 350.986 689.678 348.429C690.217 345.838 690.637 343.197 690.94 340.505ZM704.568 349.539H705.426L706.385 349.338L710.524 350.448C710.221 352.13 709.851 353.846 709.413 355.596C709.009 357.346 708.572 359.028 708.101 360.644C707.664 362.259 707.226 363.672 706.789 364.883L701.893 363.42C702.229 362.309 702.566 361.014 702.902 359.533C703.239 358.053 703.542 356.538 703.811 354.991C704.114 353.409 704.366 351.895 704.568 350.448V349.539ZM672.82 368.517H678.524V387.798H672.82V368.517Z" fill="#003396"/>
<path d="M714.814 371.293H759.836V376.29H714.814V371.293ZM714.965 348.681H759.685V353.426H714.965V348.681ZM717.035 357.868H757.716V362.461H717.035V357.868ZM719.508 364.732H755.394V369.073H719.508V364.732ZM734.145 360.088H740.151V387.849H734.145V360.088ZM729.855 340.353H735.508V351.054H729.855V340.353ZM739.192 340.353H744.946V350.7H739.192V340.353ZM750.852 340.808L757.161 342.322C756.353 343.701 755.546 345.047 754.738 346.36C753.931 347.638 753.19 348.732 752.517 349.64L747.621 348.126C748.025 347.453 748.429 346.696 748.833 345.855C749.237 344.98 749.607 344.105 749.943 343.23C750.313 342.322 750.616 341.514 750.852 340.808ZM744.644 353.022L751.054 354.637C750.313 355.512 749.59 356.303 748.883 357.009C748.21 357.682 747.571 358.288 746.965 358.826L741.817 357.312C742.322 356.673 742.827 355.95 743.331 355.142C743.87 354.334 744.307 353.628 744.644 353.022ZM718.65 342.423L723.849 340.656C724.589 341.699 725.329 342.911 726.069 344.29C726.81 345.636 727.348 346.797 727.685 347.773L722.183 349.792C721.914 348.782 721.426 347.588 720.719 346.208C720.046 344.829 719.356 343.567 718.65 342.423ZM724.505 354.183L730.208 352.921C730.646 353.56 731.083 354.284 731.521 355.091C731.992 355.899 732.345 356.623 732.58 357.262L726.625 358.675C726.456 358.069 726.154 357.346 725.716 356.505C725.312 355.63 724.909 354.856 724.505 354.183ZM728.644 377.956L732.934 379.924C731.823 380.866 730.427 381.775 728.744 382.65C727.096 383.525 725.363 384.299 723.546 384.972C721.729 385.678 719.945 386.233 718.196 386.637C717.825 385.998 717.287 385.241 716.58 384.366C715.874 383.491 715.218 382.801 714.612 382.297C716.294 382.027 718.027 381.674 719.811 381.237C721.594 380.799 723.26 380.294 724.808 379.722C726.355 379.15 727.634 378.562 728.644 377.956ZM742.322 380.479L746.36 377.603C747.739 378.141 749.253 378.747 750.902 379.42C752.585 380.093 754.2 380.782 755.748 381.489C757.329 382.162 758.658 382.784 759.735 383.356L755.445 386.637C754.469 386.099 753.224 385.46 751.71 384.719C750.196 383.979 748.597 383.239 746.915 382.498C745.266 381.758 743.735 381.085 742.322 380.479Z" fill="#003396"/>
<path d="M765.186 342.726H781.691V347.823H765.186V342.726ZM785.375 368.719H805.868V373.716H785.375V368.719ZM764.479 358.17H783.256V363.42H764.479V358.17ZM772.707 360.341H778.41V381.287C778.41 382.667 778.259 383.777 777.956 384.618C777.687 385.46 777.115 386.116 776.24 386.587C775.365 387.024 774.339 387.31 773.161 387.445C771.983 387.579 770.62 387.647 769.073 387.647C768.972 386.805 768.753 385.83 768.416 384.719C768.08 383.642 767.71 382.7 767.306 381.893C768.282 381.926 769.207 381.943 770.082 381.943C770.957 381.943 771.563 381.943 771.899 381.943C772.202 381.91 772.404 381.859 772.505 381.792C772.639 381.691 772.707 381.489 772.707 381.186V360.341ZM803.95 368.719H810.057C810.057 368.719 810.04 369.005 810.006 369.577C809.973 370.116 809.922 370.587 809.855 370.991C809.619 373.918 809.333 376.341 808.997 378.259C808.694 380.143 808.358 381.657 807.987 382.801C807.617 383.912 807.18 384.736 806.675 385.274C806.137 385.846 805.565 386.25 804.959 386.486C804.387 386.755 803.731 386.957 802.991 387.091C802.385 387.159 801.577 387.192 800.568 387.192C799.558 387.226 798.465 387.226 797.287 387.192C797.253 386.318 797.085 385.359 796.782 384.315C796.513 383.272 796.143 382.364 795.672 381.59C796.58 381.691 797.422 381.758 798.196 381.792C799.003 381.825 799.609 381.842 800.013 381.842C800.416 381.842 800.736 381.809 800.972 381.741C801.207 381.64 801.443 381.489 801.678 381.287C801.981 380.984 802.267 380.412 802.536 379.571C802.805 378.696 803.058 377.434 803.293 375.785C803.529 374.137 803.748 372.034 803.95 369.476V368.719ZM793.249 364.177H799.256C799.02 366.768 798.667 369.241 798.196 371.596C797.758 373.918 797.018 376.088 795.975 378.107C794.932 380.126 793.468 381.96 791.584 383.609C789.733 385.258 787.31 386.671 784.315 387.849C783.979 387.142 783.474 386.318 782.801 385.375C782.128 384.467 781.472 383.727 780.833 383.155C783.457 382.212 785.544 381.085 787.091 379.773C788.673 378.427 789.868 376.946 790.675 375.331C791.516 373.716 792.105 371.966 792.442 370.082C792.812 368.198 793.081 366.229 793.249 364.177ZM766.347 353.224L770.132 349.338C771.512 349.842 772.976 350.448 774.524 351.155C776.105 351.861 777.603 352.585 779.016 353.325C780.463 354.065 781.674 354.789 782.65 355.495L778.562 359.836C777.687 359.129 776.559 358.389 775.18 357.615C773.8 356.808 772.32 356.017 770.738 355.243C769.19 354.469 767.727 353.796 766.347 353.224ZM781.792 358.17H782.549L783.356 357.918L787.041 359.079C786.637 361.367 786.116 363.722 785.476 366.145C784.871 368.568 784.231 370.637 783.558 372.353L779.47 370.435C779.941 368.955 780.379 367.155 780.782 365.035C781.22 362.915 781.556 360.913 781.792 359.028V358.17ZM801.981 348.025L808.29 348.984C807.18 352.08 805.615 354.738 803.596 356.959C801.611 359.146 799.256 360.963 796.53 362.41C793.804 363.857 790.776 365.052 787.445 365.994C787.243 365.556 786.906 365.018 786.435 364.379C785.998 363.739 785.527 363.117 785.022 362.511C784.551 361.872 784.114 361.367 783.71 360.997C786.805 360.358 789.581 359.483 792.038 358.372C794.528 357.262 796.614 355.865 798.297 354.183C800.013 352.467 801.241 350.414 801.981 348.025ZM791.937 340.353L797.539 341.968C796.732 343.752 795.756 345.502 794.612 347.218C793.468 348.934 792.257 350.549 790.978 352.063C789.733 353.544 788.454 354.822 787.142 355.899C786.772 355.563 786.284 355.192 785.678 354.789C785.073 354.351 784.467 353.931 783.861 353.527C783.256 353.123 782.717 352.787 782.246 352.517C784.231 351.104 786.082 349.321 787.798 347.167C789.514 344.98 790.894 342.709 791.937 340.353ZM792.593 349.338C793.771 351.222 795.302 352.938 797.186 354.486C799.104 356.034 801.308 357.363 803.798 358.473C806.322 359.55 809.047 360.374 811.975 360.946C811.571 361.317 811.117 361.821 810.612 362.461C810.141 363.066 809.687 363.689 809.249 364.328C808.812 364.967 808.442 365.539 808.139 366.044C805.043 365.27 802.2 364.177 799.609 362.763C797.052 361.35 794.747 359.651 792.694 357.666C790.675 355.68 788.976 353.426 787.596 350.902L792.593 349.338ZM772.151 359.987L776.038 361.451C775.399 363.672 774.591 365.943 773.615 368.265C772.673 370.587 771.596 372.74 770.385 374.726C769.174 376.711 767.844 378.376 766.397 379.722C766.128 378.848 765.708 377.855 765.136 376.744C764.597 375.634 764.093 374.675 763.621 373.868C764.833 372.791 765.977 371.495 767.054 369.981C768.164 368.467 769.157 366.852 770.032 365.136C770.906 363.386 771.613 361.67 772.151 359.987ZM791.785 345.552H810.662V350.549H789.363L791.785 345.552ZM780.278 342.726H781.539L782.498 342.524L786.334 344.896C785.594 346.107 784.686 347.352 783.609 348.631C782.532 349.91 781.371 351.121 780.126 352.265C778.915 353.375 777.703 354.351 776.492 355.192C775.954 354.688 775.298 354.166 774.524 353.628C773.783 353.089 773.11 352.635 772.505 352.265C773.582 351.525 774.608 350.667 775.584 349.691C776.593 348.681 777.502 347.655 778.309 346.612C779.15 345.569 779.807 344.627 780.278 343.785V342.726Z" fill="#003396"/>
<path d="M629.06 346.461L658.334 344.795L658.789 349.136L629.514 350.953L629.06 346.461ZM634.562 340.404H640.215C640.45 342.322 640.988 344.088 641.83 345.703C642.671 347.319 643.697 348.715 644.909 349.893C646.12 351.037 647.415 351.928 648.795 352.568C650.208 353.207 651.605 353.527 652.984 353.527C653.691 353.527 654.162 353.291 654.397 352.82C654.633 352.315 654.818 351.407 654.953 350.095C655.525 350.532 656.231 350.953 657.073 351.356C657.914 351.727 658.688 352.013 659.394 352.215C659.159 354.032 658.772 355.428 658.233 356.404C657.729 357.346 657.022 357.985 656.114 358.322C655.239 358.658 654.128 358.826 652.782 358.826C651.033 358.826 649.317 358.54 647.634 357.968C645.952 357.396 644.387 356.589 642.94 355.546C641.493 354.469 640.181 353.19 639.003 351.71C637.825 350.196 636.85 348.496 636.076 346.612C635.335 344.728 634.831 342.658 634.562 340.404ZM643.445 343.18L646.17 340.252C647.113 340.421 648.122 340.673 649.199 341.009C650.309 341.312 651.369 341.649 652.379 342.019C653.388 342.355 654.229 342.709 654.902 343.079L652.025 346.309C651.42 345.973 650.612 345.619 649.603 345.249C648.627 344.845 647.6 344.458 646.524 344.088C645.447 343.718 644.421 343.415 643.445 343.18ZM626.385 340L631.836 342.12C630.557 343.735 629.043 345.317 627.293 346.864C625.544 348.412 623.727 349.859 621.842 351.205C619.958 352.517 618.107 353.645 616.29 354.587C615.987 354.183 615.567 353.712 615.028 353.174C614.524 352.635 614.002 352.097 613.464 351.558C612.925 350.986 612.437 350.549 612 350.246C613.851 349.438 615.668 348.513 617.451 347.47C619.234 346.393 620.9 345.232 622.448 343.987C623.996 342.709 625.308 341.38 626.385 340ZM621.741 348.126L625.527 344.29L627.546 344.845V357.464H621.741V348.126ZM625.577 367.912V370.032H647.483V367.912H625.577ZM625.577 373.464V375.685H647.483V373.464H625.577ZM625.577 362.309V364.479H647.483V362.309H625.577ZM619.722 358.726H653.64V379.268H619.722V358.726ZM639.104 381.943L644.151 379.066C645.968 379.706 647.802 380.395 649.653 381.136C651.537 381.842 653.321 382.566 655.003 383.306C656.719 384.013 658.166 384.652 659.344 385.224L652.278 387.95C651.335 387.411 650.158 386.789 648.744 386.082C647.331 385.375 645.8 384.652 644.151 383.912C642.536 383.205 640.854 382.549 639.104 381.943ZM627.95 378.864L633.451 381.388C632.105 382.263 630.524 383.121 628.707 383.962C626.89 384.803 625.022 385.56 623.104 386.233C621.186 386.94 619.369 387.529 617.653 388C617.283 387.596 616.829 387.108 616.29 386.536C615.785 385.998 615.247 385.443 614.675 384.871C614.103 384.332 613.598 383.895 613.161 383.558C614.944 383.222 616.744 382.818 618.562 382.347C620.412 381.876 622.145 381.338 623.76 380.732C625.409 380.126 626.805 379.504 627.95 378.864Z" stroke="white" stroke-width="10" stroke-linejoin="round" mask="url(#path-21-outside-1_1270_20812)"/>
<path d="M694.625 358.372H700.379V360.896C700.379 362.713 700.261 364.749 700.025 367.003C699.823 369.224 699.386 371.563 698.713 374.019C698.04 376.442 697.014 378.848 695.634 381.237C694.254 383.626 692.404 385.88 690.082 388C689.746 387.563 689.308 387.075 688.77 386.536C688.265 386.032 687.71 385.527 687.104 385.022C686.532 384.551 685.994 384.164 685.489 383.861C687.609 382.044 689.274 380.126 690.486 378.107C691.731 376.055 692.639 374.002 693.211 371.95C693.783 369.863 694.154 367.861 694.322 365.943C694.524 364.025 694.625 362.292 694.625 360.744V358.372ZM699.975 364.479C700.513 367.104 701.253 369.611 702.196 372C703.138 374.355 704.332 376.458 705.779 378.309C707.226 380.126 708.976 381.556 711.028 382.599C710.557 383.003 710.069 383.491 709.565 384.063C709.06 384.669 708.572 385.291 708.101 385.931C707.63 386.57 707.243 387.176 706.94 387.748C704.719 386.334 702.835 384.517 701.287 382.297C699.773 380.076 698.528 377.535 697.552 374.675C696.576 371.781 695.769 368.669 695.129 365.338L699.975 364.479ZM663.685 344.492H687.356V349.438H663.685V344.492ZM662.978 366.498H687.962V371.445H662.978V366.498ZM664.946 351.962H686.246V356.858H664.946V351.962ZM665.249 359.23H685.943V364.126H665.249V359.23ZM672.77 340.757H678.423V355.192H672.77V340.757ZM666.208 372.404L671.155 373.565C670.65 375.415 670.027 377.333 669.287 379.319C668.547 381.27 667.823 382.936 667.117 384.315C666.578 383.979 665.821 383.609 664.845 383.205C663.903 382.801 663.113 382.498 662.473 382.297C663.213 380.984 663.92 379.436 664.593 377.653C665.266 375.836 665.804 374.086 666.208 372.404ZM679.886 374.069L684.379 372.303C684.816 373.144 685.237 374.036 685.64 374.978C686.078 375.886 686.482 376.795 686.852 377.703C687.222 378.612 687.491 379.42 687.659 380.126L682.915 382.145C682.747 381.438 682.494 380.631 682.158 379.722C681.821 378.78 681.451 377.821 681.047 376.845C680.677 375.836 680.29 374.911 679.886 374.069ZM691.899 349.539H706.132V355.041H691.899V349.539ZM690.94 340.505L696.845 341.312C696.442 344.374 695.903 347.369 695.23 350.297C694.591 353.19 693.817 355.899 692.909 358.423C692 360.913 690.957 363.117 689.779 365.035C689.443 364.698 688.972 364.294 688.366 363.823C687.76 363.352 687.138 362.898 686.498 362.461C685.859 361.989 685.304 361.619 684.833 361.35C685.977 359.735 686.936 357.817 687.71 355.596C688.517 353.375 689.174 350.986 689.678 348.429C690.217 345.838 690.637 343.197 690.94 340.505ZM704.568 349.539H705.426L706.385 349.338L710.524 350.448C710.221 352.13 709.851 353.846 709.413 355.596C709.009 357.346 708.572 359.028 708.101 360.644C707.664 362.259 707.226 363.672 706.789 364.883L701.893 363.42C702.229 362.309 702.566 361.014 702.902 359.533C703.239 358.053 703.542 356.538 703.811 354.991C704.114 353.409 704.366 351.895 704.568 350.448V349.539ZM672.82 368.517H678.524V387.798H672.82V368.517Z" stroke="white" stroke-width="10" stroke-linejoin="round" mask="url(#path-21-outside-1_1270_20812)"/>
<path d="M714.814 371.293H759.836V376.29H714.814V371.293ZM714.965 348.681H759.685V353.426H714.965V348.681ZM717.035 357.868H757.716V362.461H717.035V357.868ZM719.508 364.732H755.394V369.073H719.508V364.732ZM734.145 360.088H740.151V387.849H734.145V360.088ZM729.855 340.353H735.508V351.054H729.855V340.353ZM739.192 340.353H744.946V350.7H739.192V340.353ZM750.852 340.808L757.161 342.322C756.353 343.701 755.546 345.047 754.738 346.36C753.931 347.638 753.19 348.732 752.517 349.64L747.621 348.126C748.025 347.453 748.429 346.696 748.833 345.855C749.237 344.98 749.607 344.105 749.943 343.23C750.313 342.322 750.616 341.514 750.852 340.808ZM744.644 353.022L751.054 354.637C750.313 355.512 749.59 356.303 748.883 357.009C748.21 357.682 747.571 358.288 746.965 358.826L741.817 357.312C742.322 356.673 742.827 355.95 743.331 355.142C743.87 354.334 744.307 353.628 744.644 353.022ZM718.65 342.423L723.849 340.656C724.589 341.699 725.329 342.911 726.069 344.29C726.81 345.636 727.348 346.797 727.685 347.773L722.183 349.792C721.914 348.782 721.426 347.588 720.719 346.208C720.046 344.829 719.356 343.567 718.65 342.423ZM724.505 354.183L730.208 352.921C730.646 353.56 731.083 354.284 731.521 355.091C731.992 355.899 732.345 356.623 732.58 357.262L726.625 358.675C726.456 358.069 726.154 357.346 725.716 356.505C725.312 355.63 724.909 354.856 724.505 354.183ZM728.644 377.956L732.934 379.924C731.823 380.866 730.427 381.775 728.744 382.65C727.096 383.525 725.363 384.299 723.546 384.972C721.729 385.678 719.945 386.233 718.196 386.637C717.825 385.998 717.287 385.241 716.58 384.366C715.874 383.491 715.218 382.801 714.612 382.297C716.294 382.027 718.027 381.674 719.811 381.237C721.594 380.799 723.26 380.294 724.808 379.722C726.355 379.15 727.634 378.562 728.644 377.956ZM742.322 380.479L746.36 377.603C747.739 378.141 749.253 378.747 750.902 379.42C752.585 380.093 754.2 380.782 755.748 381.489C757.329 382.162 758.658 382.784 759.735 383.356L755.445 386.637C754.469 386.099 753.224 385.46 751.71 384.719C750.196 383.979 748.597 383.239 746.915 382.498C745.266 381.758 743.735 381.085 742.322 380.479Z" stroke="white" stroke-width="10" stroke-linejoin="round" mask="url(#path-21-outside-1_1270_20812)"/>
<path d="M765.186 342.726H781.691V347.823H765.186V342.726ZM785.375 368.719H805.868V373.716H785.375V368.719ZM764.479 358.17H783.256V363.42H764.479V358.17ZM772.707 360.341H778.41V381.287C778.41 382.667 778.259 383.777 777.956 384.618C777.687 385.46 777.115 386.116 776.24 386.587C775.365 387.024 774.339 387.31 773.161 387.445C771.983 387.579 770.62 387.647 769.073 387.647C768.972 386.805 768.753 385.83 768.416 384.719C768.08 383.642 767.71 382.7 767.306 381.893C768.282 381.926 769.207 381.943 770.082 381.943C770.957 381.943 771.563 381.943 771.899 381.943C772.202 381.91 772.404 381.859 772.505 381.792C772.639 381.691 772.707 381.489 772.707 381.186V360.341ZM803.95 368.719H810.057C810.057 368.719 810.04 369.005 810.006 369.577C809.973 370.116 809.922 370.587 809.855 370.991C809.619 373.918 809.333 376.341 808.997 378.259C808.694 380.143 808.358 381.657 807.987 382.801C807.617 383.912 807.18 384.736 806.675 385.274C806.137 385.846 805.565 386.25 804.959 386.486C804.387 386.755 803.731 386.957 802.991 387.091C802.385 387.159 801.577 387.192 800.568 387.192C799.558 387.226 798.465 387.226 797.287 387.192C797.253 386.318 797.085 385.359 796.782 384.315C796.513 383.272 796.143 382.364 795.672 381.59C796.58 381.691 797.422 381.758 798.196 381.792C799.003 381.825 799.609 381.842 800.013 381.842C800.416 381.842 800.736 381.809 800.972 381.741C801.207 381.64 801.443 381.489 801.678 381.287C801.981 380.984 802.267 380.412 802.536 379.571C802.805 378.696 803.058 377.434 803.293 375.785C803.529 374.137 803.748 372.034 803.95 369.476V368.719ZM793.249 364.177H799.256C799.02 366.768 798.667 369.241 798.196 371.596C797.758 373.918 797.018 376.088 795.975 378.107C794.932 380.126 793.468 381.96 791.584 383.609C789.733 385.258 787.31 386.671 784.315 387.849C783.979 387.142 783.474 386.318 782.801 385.375C782.128 384.467 781.472 383.727 780.833 383.155C783.457 382.212 785.544 381.085 787.091 379.773C788.673 378.427 789.868 376.946 790.675 375.331C791.516 373.716 792.105 371.966 792.442 370.082C792.812 368.198 793.081 366.229 793.249 364.177ZM766.347 353.224L770.132 349.338C771.512 349.842 772.976 350.448 774.524 351.155C776.105 351.861 777.603 352.585 779.016 353.325C780.463 354.065 781.674 354.789 782.65 355.495L778.562 359.836C777.687 359.129 776.559 358.389 775.18 357.615C773.8 356.808 772.32 356.017 770.738 355.243C769.19 354.469 767.727 353.796 766.347 353.224ZM781.792 358.17H782.549L783.356 357.918L787.041 359.079C786.637 361.367 786.116 363.722 785.476 366.145C784.871 368.568 784.231 370.637 783.558 372.353L779.47 370.435C779.941 368.955 780.379 367.155 780.782 365.035C781.22 362.915 781.556 360.913 781.792 359.028V358.17ZM801.981 348.025L808.29 348.984C807.18 352.08 805.615 354.738 803.596 356.959C801.611 359.146 799.256 360.963 796.53 362.41C793.804 363.857 790.776 365.052 787.445 365.994C787.243 365.556 786.906 365.018 786.435 364.379C785.998 363.739 785.527 363.117 785.022 362.511C784.551 361.872 784.114 361.367 783.71 360.997C786.805 360.358 789.581 359.483 792.038 358.372C794.528 357.262 796.614 355.865 798.297 354.183C800.013 352.467 801.241 350.414 801.981 348.025ZM791.937 340.353L797.539 341.968C796.732 343.752 795.756 345.502 794.612 347.218C793.468 348.934 792.257 350.549 790.978 352.063C789.733 353.544 788.454 354.822 787.142 355.899C786.772 355.563 786.284 355.192 785.678 354.789C785.073 354.351 784.467 353.931 783.861 353.527C783.256 353.123 782.717 352.787 782.246 352.517C784.231 351.104 786.082 349.321 787.798 347.167C789.514 344.98 790.894 342.709 791.937 340.353ZM792.593 349.338C793.771 351.222 795.302 352.938 797.186 354.486C799.104 356.034 801.308 357.363 803.798 358.473C806.322 359.55 809.047 360.374 811.975 360.946C811.571 361.317 811.117 361.821 810.612 362.461C810.141 363.066 809.687 363.689 809.249 364.328C808.812 364.967 808.442 365.539 808.139 366.044C805.043 365.27 802.2 364.177 799.609 362.763C797.052 361.35 794.747 359.651 792.694 357.666C790.675 355.68 788.976 353.426 787.596 350.902L792.593 349.338ZM772.151 359.987L776.038 361.451C775.399 363.672 774.591 365.943 773.615 368.265C772.673 370.587 771.596 372.74 770.385 374.726C769.174 376.711 767.844 378.376 766.397 379.722C766.128 378.848 765.708 377.855 765.136 376.744C764.597 375.634 764.093 374.675 763.621 373.868C764.833 372.791 765.977 371.495 767.054 369.981C768.164 368.467 769.157 366.852 770.032 365.136C770.906 363.386 771.613 361.67 772.151 359.987ZM791.785 345.552H810.662V350.549H789.363L791.785 345.552ZM780.278 342.726H781.539L782.498 342.524L786.334 344.896C785.594 346.107 784.686 347.352 783.609 348.631C782.532 349.91 781.371 351.121 780.126 352.265C778.915 353.375 777.703 354.351 776.492 355.192C775.954 354.688 775.298 354.166 774.524 353.628C773.783 353.089 773.11 352.635 772.505 352.265C773.582 351.525 774.608 350.667 775.584 349.691C776.593 348.681 777.502 347.655 778.309 346.612C779.15 345.569 779.807 344.627 780.278 343.785V342.726Z" stroke="white" stroke-width="10" stroke-linejoin="round" mask="url(#path-21-outside-1_1270_20812)"/>
</g>
<path d="M621.772 421.952L638.124 420.972L638.32 422.96L621.996 423.968L621.772 421.952ZM625.272 418.368H627.736C627.904 419.469 628.249 420.487 628.772 421.42C629.295 422.335 629.939 423.137 630.704 423.828C631.469 424.5 632.272 425.023 633.112 425.396C633.952 425.751 634.773 425.919 635.576 425.9C635.968 425.9 636.229 425.76 636.36 425.48C636.491 425.181 636.593 424.649 636.668 423.884C636.911 424.089 637.219 424.276 637.592 424.444C637.984 424.612 638.339 424.743 638.656 424.836C638.525 425.751 638.339 426.46 638.096 426.964C637.853 427.449 637.517 427.785 637.088 427.972C636.677 428.14 636.136 428.224 635.464 428.224C634.568 428.224 633.663 428.075 632.748 427.776C631.833 427.459 630.956 427.02 630.116 426.46C629.295 425.9 628.539 425.219 627.848 424.416C627.176 423.595 626.616 422.68 626.168 421.672C625.72 420.645 625.421 419.544 625.272 418.368ZM630.004 419.656L631.236 418.312C631.777 418.424 632.347 418.564 632.944 418.732C633.56 418.9 634.148 419.096 634.708 419.32C635.287 419.525 635.763 419.731 636.136 419.936L634.82 421.42C634.465 421.215 634.008 421 633.448 420.776C632.907 420.552 632.337 420.347 631.74 420.16C631.143 419.955 630.564 419.787 630.004 419.656ZM620.904 418.2L623.284 419.096C622.575 419.992 621.735 420.86 620.764 421.7C619.793 422.521 618.785 423.287 617.74 423.996C616.713 424.687 615.696 425.293 614.688 425.816C614.557 425.648 614.371 425.443 614.128 425.2C613.904 424.957 613.661 424.724 613.4 424.5C613.157 424.257 612.943 424.061 612.756 423.912C613.783 423.464 614.8 422.951 615.808 422.372C616.816 421.775 617.759 421.121 618.636 420.412C619.532 419.684 620.288 418.947 620.904 418.2ZM618.188 422.344L619.924 420.58L620.736 420.832V427.636H618.188V422.344ZM619.532 433.264V434.86H632.804V433.264H619.532ZM619.532 436.456V438.08H632.804V436.456H619.532ZM619.532 430.072V431.64H632.804V430.072H619.532ZM616.956 428.392H635.464V439.76H616.956V428.392ZM628.016 441.216L630.2 439.9C631.208 440.236 632.235 440.6 633.28 440.992C634.325 441.365 635.315 441.739 636.248 442.112C637.181 442.485 637.984 442.84 638.656 443.176L635.632 444.436C635.072 444.119 634.381 443.773 633.56 443.4C632.757 443.045 631.88 442.672 630.928 442.28C629.976 441.907 629.005 441.552 628.016 441.216ZM621.576 439.816L624.012 440.936C623.247 441.384 622.369 441.832 621.38 442.28C620.391 442.728 619.364 443.129 618.3 443.484C617.255 443.857 616.256 444.184 615.304 444.464C615.173 444.277 614.987 444.053 614.744 443.792C614.52 443.549 614.277 443.307 614.016 443.064C613.773 442.821 613.549 442.625 613.344 442.476C614.315 442.289 615.304 442.065 616.312 441.804C617.339 441.524 618.309 441.216 619.224 440.88C620.139 440.544 620.923 440.189 621.576 439.816ZM658.704 427.832H661.196V429.204C661.196 430.231 661.14 431.379 661.028 432.648C660.916 433.917 660.673 435.233 660.3 436.596C659.927 437.94 659.348 439.284 658.564 440.628C657.799 441.953 656.763 443.213 655.456 444.408C655.307 444.221 655.111 444.016 654.868 443.792C654.644 443.568 654.401 443.344 654.14 443.12C653.897 442.915 653.664 442.747 653.44 442.616C654.653 441.552 655.615 440.432 656.324 439.256C657.033 438.061 657.556 436.867 657.892 435.672C658.228 434.477 658.443 433.32 658.536 432.2C658.648 431.08 658.704 430.053 658.704 429.12V427.832ZM661 431.248C661.317 432.835 661.747 434.347 662.288 435.784C662.829 437.203 663.511 438.463 664.332 439.564C665.172 440.647 666.161 441.487 667.3 442.084C667.113 442.252 666.899 442.467 666.656 442.728C666.432 442.989 666.217 443.26 666.012 443.54C665.807 443.82 665.639 444.081 665.508 444.324C664.276 443.559 663.231 442.541 662.372 441.272C661.513 440.003 660.804 438.547 660.244 436.904C659.684 435.261 659.236 433.497 658.9 431.612L661 431.248ZM641.344 420.86H654.364V423.044H641.344V420.86ZM640.98 432.928H654.644V435.14H640.98V432.928ZM641.988 425.032H653.776V427.216H641.988V425.032ZM642.24 428.952H653.496V431.136H642.24V428.952ZM646.608 418.48H649.1V426.432H646.608V418.48ZM643.08 435.896L645.292 436.456C644.956 437.483 644.564 438.547 644.116 439.648C643.668 440.731 643.229 441.655 642.8 442.42C642.557 442.271 642.221 442.103 641.792 441.916C641.381 441.729 641.027 441.589 640.728 441.496C641.176 440.731 641.605 439.853 642.016 438.864C642.445 437.856 642.8 436.867 643.08 435.896ZM650.388 436.652L652.376 435.896C652.619 436.344 652.871 436.839 653.132 437.38C653.393 437.903 653.636 438.416 653.86 438.92C654.084 439.424 654.261 439.863 654.392 440.236L652.264 441.188C652.152 440.796 651.993 440.348 651.788 439.844C651.583 439.321 651.359 438.78 651.116 438.22C650.873 437.66 650.631 437.137 650.388 436.652ZM656.744 423.436H664.976V425.844H656.744V423.436ZM656.576 418.396L659.18 418.76C658.956 420.403 658.657 422.008 658.284 423.576C657.929 425.144 657.509 426.609 657.024 427.972C656.539 429.316 655.988 430.501 655.372 431.528C655.223 431.397 655.008 431.229 654.728 431.024C654.467 430.819 654.196 430.623 653.916 430.436C653.636 430.231 653.393 430.072 653.188 429.96C653.804 429.045 654.327 427.972 654.756 426.74C655.204 425.508 655.577 424.183 655.876 422.764C656.175 421.327 656.408 419.871 656.576 418.396ZM664.276 423.436H664.668L665.088 423.324L666.88 423.856C666.712 424.733 666.507 425.639 666.264 426.572C666.04 427.487 665.797 428.373 665.536 429.232C665.293 430.072 665.051 430.819 664.808 431.472L662.652 430.828C662.857 430.231 663.063 429.54 663.268 428.756C663.473 427.953 663.66 427.132 663.828 426.292C664.015 425.433 664.164 424.631 664.276 423.884V423.436ZM646.636 433.824H649.128V444.324H646.636V433.824ZM677.716 431.92H687.236V440.404H677.716V438.192H684.744V434.104H677.716V431.92ZM676.568 431.92H679.004V442.028H676.568V431.92ZM671.696 423.576H679.144V425.424H671.696V423.576ZM684.66 423.576H692.192V425.424H684.66V423.576ZM691.072 419.516H693.732V441.02C693.732 441.823 693.629 442.439 693.424 442.868C693.237 443.297 692.883 443.633 692.36 443.876C691.837 444.1 691.147 444.231 690.288 444.268C689.429 444.324 688.375 444.352 687.124 444.352C687.087 444.091 687.012 443.792 686.9 443.456C686.807 443.139 686.695 442.812 686.564 442.476C686.452 442.159 686.331 441.879 686.2 441.636C686.779 441.673 687.348 441.692 687.908 441.692C688.487 441.692 688.991 441.692 689.42 441.692C689.868 441.692 690.185 441.692 690.372 441.692C690.633 441.673 690.811 441.617 690.904 441.524C691.016 441.412 691.072 441.235 691.072 440.992V419.516ZM671.92 419.516H680.824V429.652H671.92V427.58H678.332V421.588H671.92V419.516ZM692.472 419.516V421.56H685.612V427.608H692.472V429.652H683.092V419.516H692.472ZM670.436 419.516H673.04V444.38H670.436V419.516ZM701.096 424.864V426.656H705.94V424.864H701.096ZM701.096 421.336V423.1H705.94V421.336H701.096ZM698.744 419.516H708.404V428.504H698.744V419.516ZM697.26 430.38H709.888V432.368H697.26V430.38ZM709.72 419.656H722.572V421.588H709.72V419.656ZM702.664 430.996H704.932V441.916L702.664 440.6V430.996ZM703.84 435.056H709.384V437.044H703.84V435.056ZM715.208 420.132L717.644 420.636C717.345 421.364 717.047 422.111 716.748 422.876C716.449 423.641 716.16 424.295 715.88 424.836L713.948 424.332C714.191 423.735 714.424 423.044 714.648 422.26C714.891 421.457 715.077 420.748 715.208 420.132ZM713.108 428.84V430.576H719.1V428.84H713.108ZM713.108 432.368V434.132H719.1V432.368H713.108ZM713.108 425.312V427.048H719.1V425.312H713.108ZM710.728 423.436H721.564V436.008H710.728V423.436ZM713.024 436.372L715.236 437.044C714.62 437.828 713.855 438.593 712.94 439.34C712.025 440.087 711.129 440.703 710.252 441.188C710.14 441.039 709.972 440.861 709.748 440.656C709.543 440.451 709.328 440.255 709.104 440.068C708.899 439.863 708.703 439.704 708.516 439.592C709.375 439.2 710.215 438.724 711.036 438.164C711.857 437.585 712.52 436.988 713.024 436.372ZM698.884 433.712H701.068C701.031 435.112 700.928 436.475 700.76 437.8C700.592 439.125 700.321 440.367 699.948 441.524C699.575 442.663 699.052 443.643 698.38 444.464C698.212 444.203 697.969 443.895 697.652 443.54C697.335 443.185 697.036 442.905 696.756 442.7C697.316 442.047 697.745 441.235 698.044 440.264C698.343 439.293 698.548 438.248 698.66 437.128C698.772 435.989 698.847 434.851 698.884 433.712ZM700.62 436.288C701.068 437.483 701.656 438.435 702.384 439.144C703.112 439.853 703.971 440.395 704.96 440.768C705.949 441.123 707.069 441.356 708.32 441.468C709.571 441.58 710.952 441.636 712.464 441.636C712.763 441.636 713.257 441.636 713.948 441.636C714.657 441.636 715.451 441.636 716.328 441.636C717.224 441.617 718.129 441.608 719.044 441.608C719.959 441.608 720.78 441.608 721.508 441.608C722.255 441.589 722.824 441.571 723.216 441.552C723.029 441.813 722.843 442.159 722.656 442.588C722.488 443.036 722.376 443.428 722.32 443.764H720.276H712.464C710.709 443.764 709.123 443.68 707.704 443.512C706.285 443.363 705.025 443.045 703.924 442.56C702.823 442.093 701.861 441.403 701.04 440.488C700.237 439.555 699.565 438.332 699.024 436.82L700.62 436.288ZM716.944 437.268L718.764 436.26C719.305 436.596 719.847 436.979 720.388 437.408C720.929 437.837 721.433 438.267 721.9 438.696C722.367 439.107 722.749 439.489 723.048 439.844L721.144 441.02C720.845 440.647 720.463 440.236 719.996 439.788C719.529 439.34 719.025 438.892 718.484 438.444C717.961 437.996 717.448 437.604 716.944 437.268ZM742.004 430.072L744.692 430.856C743.647 433.376 742.265 435.523 740.548 437.296C738.849 439.051 736.852 440.497 734.556 441.636C732.26 442.756 729.703 443.671 726.884 444.38C726.791 444.175 726.651 443.923 726.464 443.624C726.277 443.325 726.072 443.027 725.848 442.728C725.643 442.429 725.456 442.187 725.288 442C728.051 441.44 730.533 440.665 732.736 439.676C734.939 438.668 736.824 437.38 738.392 435.812C739.96 434.244 741.164 432.331 742.004 430.072ZM732.652 425.284L735.228 426.292C734.575 427.095 733.828 427.897 732.988 428.7C732.167 429.503 731.308 430.259 730.412 430.968C729.516 431.659 728.657 432.275 727.836 432.816C727.687 432.629 727.481 432.415 727.22 432.172C726.959 431.929 726.697 431.687 726.436 431.444C726.175 431.183 725.941 430.987 725.736 430.856C726.576 430.408 727.416 429.885 728.256 429.288C729.115 428.672 729.927 428.028 730.692 427.356C731.457 426.665 732.111 425.975 732.652 425.284ZM734.108 430.212C735.396 433.348 737.44 435.896 740.24 437.856C743.04 439.797 746.568 441.113 750.824 441.804C750.656 441.972 750.46 442.196 750.236 442.476C750.031 442.775 749.835 443.073 749.648 443.372C749.461 443.671 749.312 443.941 749.2 444.184C746.232 443.624 743.628 442.775 741.388 441.636C739.167 440.479 737.253 439.013 735.648 437.24C734.061 435.467 732.755 433.376 731.728 430.968L734.108 430.212ZM725.764 422.092H750.18V424.668H725.764V422.092ZM741.024 426.712L743.124 425.2C743.945 425.76 744.813 426.395 745.728 427.104C746.661 427.813 747.539 428.523 748.36 429.232C749.181 429.941 749.844 430.595 750.348 431.192L748.108 432.928C747.641 432.331 747.016 431.668 746.232 430.94C745.448 430.193 744.599 429.456 743.684 428.728C742.769 427.981 741.883 427.309 741.024 426.712ZM735.48 418.928L738 418.06C738.392 418.639 738.784 419.283 739.176 419.992C739.568 420.701 739.857 421.308 740.044 421.812L737.412 422.82C737.244 422.297 736.973 421.672 736.6 420.944C736.245 420.216 735.872 419.544 735.48 418.928ZM766.28 427.468H775.548V429.876H766.28V427.468ZM766.252 440.6H775.856V442.98H766.252V440.6ZM764.992 432.676H777.284V444.38H774.596V435.028H767.568V444.408H764.992V432.676ZM771.852 419.264C772.412 420.328 773.112 421.411 773.952 422.512C774.792 423.595 775.707 424.593 776.696 425.508C777.685 426.423 778.665 427.179 779.636 427.776C779.412 427.944 779.179 428.159 778.936 428.42C778.693 428.663 778.451 428.924 778.208 429.204C777.984 429.465 777.797 429.708 777.648 429.932C776.696 429.204 775.725 428.317 774.736 427.272C773.765 426.208 772.851 425.06 771.992 423.828C771.133 422.577 770.396 421.336 769.78 420.104L771.852 419.264ZM770.172 418.368L772.608 419.096C771.731 421.317 770.564 423.399 769.108 425.34C767.652 427.263 765.963 428.905 764.04 430.268C763.909 430.081 763.732 429.867 763.508 429.624C763.303 429.381 763.079 429.148 762.836 428.924C762.593 428.681 762.379 428.495 762.192 428.364C763.405 427.561 764.525 426.628 765.552 425.564C766.579 424.481 767.484 423.333 768.268 422.12C769.052 420.888 769.687 419.637 770.172 418.368ZM759.98 429.624L761.996 429.008C762.257 429.643 762.5 430.324 762.724 431.052C762.967 431.761 763.181 432.452 763.368 433.124C763.573 433.796 763.732 434.375 763.844 434.86L761.688 435.616C761.613 435.093 761.483 434.487 761.296 433.796C761.128 433.105 760.932 432.396 760.708 431.668C760.484 430.94 760.241 430.259 759.98 429.624ZM757.404 436.876L759.448 436.512C759.635 437.501 759.803 438.575 759.952 439.732C760.101 440.871 760.195 441.869 760.232 442.728L758.104 443.148C758.104 442.588 758.067 441.944 757.992 441.216C757.917 440.488 757.824 439.751 757.712 439.004C757.619 438.239 757.516 437.529 757.404 436.876ZM754.156 436.596L756.452 436.96C756.303 438.229 756.107 439.508 755.864 440.796C755.64 442.065 755.379 443.148 755.08 444.044C754.893 443.932 754.66 443.829 754.38 443.736C754.119 443.643 753.848 443.549 753.568 443.456C753.307 443.363 753.073 443.288 752.868 443.232C753.204 442.373 753.475 441.347 753.68 440.152C753.885 438.939 754.044 437.753 754.156 436.596ZM753.652 429.12C753.615 428.952 753.549 428.728 753.456 428.448C753.363 428.149 753.26 427.851 753.148 427.552C753.036 427.235 752.933 426.973 752.84 426.768C753.101 426.712 753.353 426.553 753.596 426.292C753.857 426.012 754.137 425.657 754.436 425.228C754.641 424.948 754.959 424.453 755.388 423.744C755.836 423.016 756.303 422.167 756.788 421.196C757.292 420.207 757.74 419.208 758.132 418.2L760.54 419.208C759.812 420.757 758.972 422.297 758.02 423.828C757.087 425.34 756.144 426.656 755.192 427.776V427.832C755.192 427.832 755.117 427.879 754.968 427.972C754.819 428.065 754.632 428.177 754.408 428.308C754.203 428.439 754.025 428.579 753.876 428.728C753.727 428.859 753.652 428.989 753.652 429.12ZM753.652 429.12L753.596 427.244L754.744 426.516L759.672 426.124C759.616 426.46 759.56 426.833 759.504 427.244C759.467 427.655 759.448 427.981 759.448 428.224C758.328 428.355 757.413 428.467 756.704 428.56C756.013 428.635 755.463 428.709 755.052 428.784C754.66 428.84 754.361 428.896 754.156 428.952C753.951 429.008 753.783 429.064 753.652 429.12ZM753.848 435.532C753.811 435.345 753.736 435.103 753.624 434.804C753.531 434.505 753.428 434.197 753.316 433.88C753.204 433.563 753.101 433.292 753.008 433.068C753.344 433.012 753.68 432.825 754.016 432.508C754.352 432.172 754.735 431.743 755.164 431.22C755.407 430.977 755.743 430.567 756.172 429.988C756.62 429.409 757.115 428.728 757.656 427.944C758.197 427.141 758.748 426.273 759.308 425.34C759.868 424.407 760.372 423.473 760.82 422.54L763.088 423.94C762.379 425.172 761.604 426.404 760.764 427.636C759.943 428.868 759.075 430.044 758.16 431.164C757.264 432.265 756.359 433.264 755.444 434.16V434.244C755.444 434.244 755.36 434.291 755.192 434.384C755.043 434.459 754.856 434.561 754.632 434.692C754.427 434.823 754.24 434.963 754.072 435.112C753.923 435.261 753.848 435.401 753.848 435.532ZM753.848 435.532L753.764 433.628L754.94 432.844L762.332 431.892C762.276 432.209 762.229 432.573 762.192 432.984C762.173 433.395 762.173 433.731 762.192 433.992C760.512 434.235 759.159 434.44 758.132 434.608C757.105 434.776 756.303 434.916 755.724 435.028C755.164 435.121 754.744 435.205 754.464 435.28C754.203 435.355 753.997 435.439 753.848 435.532ZM760.4 436.316L762.304 435.728C762.621 436.549 762.929 437.455 763.228 438.444C763.527 439.415 763.741 440.255 763.872 440.964L761.884 441.664C761.753 440.955 761.539 440.096 761.24 439.088C760.96 438.08 760.68 437.156 760.4 436.316ZM796.044 429.848H798.76V440.18C798.76 440.684 798.835 441.011 798.984 441.16C799.133 441.291 799.469 441.356 799.992 441.356C800.104 441.356 800.3 441.356 800.58 441.356C800.86 441.356 801.168 441.356 801.504 441.356C801.84 441.356 802.157 441.356 802.456 441.356C802.755 441.356 802.988 441.356 803.156 441.356C803.492 441.356 803.744 441.235 803.912 440.992C804.099 440.749 804.229 440.283 804.304 439.592C804.397 438.883 804.453 437.828 804.472 436.428C804.696 436.577 804.948 436.736 805.228 436.904C805.527 437.053 805.825 437.184 806.124 437.296C806.441 437.408 806.721 437.501 806.964 437.576C806.871 439.2 806.703 440.469 806.46 441.384C806.236 442.299 805.881 442.943 805.396 443.316C804.911 443.689 804.229 443.876 803.352 443.876C803.221 443.876 802.979 443.876 802.624 443.876C802.269 443.876 801.887 443.876 801.476 443.876C801.065 443.876 800.683 443.876 800.328 443.876C799.992 443.876 799.749 443.876 799.6 443.876C798.667 443.876 797.939 443.764 797.416 443.54C796.912 443.316 796.557 442.933 796.352 442.392C796.147 441.851 796.044 441.113 796.044 440.18V429.848ZM781.568 428.196H806.488V430.772H781.568V428.196ZM784.088 420.44H804.024V423.016H784.088V420.44ZM788.428 430.212H791.256C791.144 431.761 790.948 433.236 790.668 434.636C790.407 436.036 789.987 437.343 789.408 438.556C788.829 439.751 788.008 440.833 786.944 441.804C785.88 442.775 784.489 443.596 782.772 444.268C782.623 443.951 782.389 443.587 782.072 443.176C781.755 442.765 781.437 442.429 781.12 442.168C782.669 441.589 783.901 440.889 784.816 440.068C785.749 439.247 786.459 438.323 786.944 437.296C787.429 436.269 787.775 435.159 787.98 433.964C788.185 432.769 788.335 431.519 788.428 430.212ZM824.212 432.116H826.872V440.376C826.872 440.824 826.937 441.113 827.068 441.244C827.217 441.356 827.544 441.412 828.048 441.412C828.16 441.412 828.347 441.412 828.608 441.412C828.888 441.412 829.196 441.412 829.532 441.412C829.868 441.412 830.176 441.412 830.456 441.412C830.755 441.412 830.969 441.412 831.1 441.412C831.417 441.412 831.66 441.319 831.828 441.132C831.996 440.927 832.108 440.544 832.164 439.984C832.239 439.405 832.295 438.528 832.332 437.352C832.519 437.501 832.752 437.651 833.032 437.8C833.331 437.931 833.629 438.052 833.928 438.164C834.245 438.276 834.516 438.36 834.74 438.416C834.665 439.872 834.507 441.001 834.264 441.804C834.04 442.588 833.695 443.139 833.228 443.456C832.78 443.773 832.145 443.932 831.324 443.932C831.193 443.932 830.951 443.932 830.596 443.932C830.26 443.932 829.896 443.932 829.504 443.932C829.112 443.932 828.748 443.932 828.412 443.932C828.076 443.932 827.833 443.932 827.684 443.932C826.751 443.932 826.032 443.82 825.528 443.596C825.043 443.391 824.697 443.027 824.492 442.504C824.305 441.981 824.212 441.272 824.212 440.376V432.116ZM809.624 430.212H834.432V432.76H809.624V430.212ZM814.244 422.484H832.332V425.032H814.244V422.484ZM816.736 432.172H819.48C819.349 433.553 819.135 434.86 818.836 436.092C818.537 437.324 818.08 438.472 817.464 439.536C816.867 440.581 816.036 441.515 814.972 442.336C813.927 443.176 812.564 443.895 810.884 444.492C810.791 444.249 810.651 443.988 810.464 443.708C810.277 443.447 810.072 443.176 809.848 442.896C809.643 442.616 809.437 442.392 809.232 442.224C810.744 441.739 811.967 441.16 812.9 440.488C813.833 439.797 814.552 439.023 815.056 438.164C815.579 437.305 815.961 436.381 816.204 435.392C816.447 434.384 816.624 433.311 816.736 432.172ZM814.552 418.9L817.24 419.432C816.941 420.515 816.577 421.644 816.148 422.82C815.737 423.996 815.261 425.135 814.72 426.236C814.197 427.337 813.609 428.299 812.956 429.12C812.751 428.989 812.508 428.849 812.228 428.7C811.948 428.532 811.668 428.383 811.388 428.252C811.108 428.103 810.856 427.991 810.632 427.916C811.267 427.113 811.836 426.199 812.34 425.172C812.844 424.145 813.283 423.091 813.656 422.008C814.029 420.907 814.328 419.871 814.552 418.9ZM820.684 418.368H823.372V430.996H820.684V418.368ZM841.824 423.66H861.256V426.236H841.824V423.66ZM840.62 431.864H860.22V434.412H840.62V431.864ZM837.484 440.908H862.628V443.484H837.484V440.908ZM848.684 418.368H851.428V442.196H848.684V418.368ZM842.3 418.76L845.044 419.376C844.633 420.813 844.139 422.232 843.56 423.632C843 425.013 842.384 426.301 841.712 427.496C841.04 428.672 840.34 429.708 839.612 430.604C839.425 430.455 839.183 430.287 838.884 430.1C838.604 429.895 838.315 429.699 838.016 429.512C837.717 429.307 837.447 429.148 837.204 429.036C837.969 428.215 838.669 427.263 839.304 426.18C839.939 425.079 840.508 423.893 841.012 422.624C841.535 421.355 841.964 420.067 842.3 418.76ZM875.676 437.072L874.948 435.252C876.105 434.823 876.992 434.263 877.608 433.572C878.224 432.881 878.532 432.06 878.532 431.108L878.14 428.56L879.68 430.856C879.456 431.08 879.204 431.248 878.924 431.36C878.663 431.453 878.392 431.5 878.112 431.5C877.477 431.5 876.927 431.313 876.46 430.94C875.993 430.548 875.76 429.988 875.76 429.26C875.76 428.551 875.993 428 876.46 427.608C876.945 427.216 877.505 427.02 878.14 427.02C879.017 427.02 879.68 427.337 880.128 427.972C880.595 428.607 880.828 429.456 880.828 430.52C880.828 432.069 880.361 433.423 879.428 434.58C878.513 435.719 877.263 436.549 875.676 437.072ZM617.74 468.208H636.752V470.504H617.74V468.208ZM614.044 458.044H632.44V460.452H614.044V458.044ZM622.08 463.14H634.876V465.464H622.08V463.14ZM635.688 468.208H638.348C638.348 468.208 638.339 468.283 638.32 468.432C638.32 468.563 638.311 468.712 638.292 468.88C638.273 469.048 638.255 469.188 638.236 469.3C638.087 471.223 637.919 472.8 637.732 474.032C637.564 475.264 637.359 476.225 637.116 476.916C636.892 477.607 636.631 478.111 636.332 478.428C636.052 478.745 635.744 478.96 635.408 479.072C635.091 479.203 634.717 479.287 634.288 479.324C633.915 479.361 633.401 479.38 632.748 479.38C632.113 479.38 631.441 479.371 630.732 479.352C630.713 478.979 630.629 478.559 630.48 478.092C630.349 477.644 630.181 477.252 629.976 476.916C630.648 476.972 631.273 477.009 631.852 477.028C632.431 477.047 632.851 477.056 633.112 477.056C633.355 477.056 633.551 477.037 633.7 477C633.868 476.963 634.027 476.879 634.176 476.748C634.381 476.543 634.568 476.151 634.736 475.572C634.904 474.975 635.072 474.116 635.24 472.996C635.408 471.857 635.557 470.392 635.688 468.6V468.208ZM629.584 471.792L631.432 471.148C631.843 471.708 632.235 472.343 632.608 473.052C632.981 473.743 633.252 474.34 633.42 474.844L631.46 475.628C631.311 475.105 631.059 474.489 630.704 473.78C630.349 473.052 629.976 472.389 629.584 471.792ZM617.348 454.348L619.7 453.396C620.241 453.937 620.773 454.563 621.296 455.272C621.837 455.981 622.248 456.597 622.528 457.12L620.008 458.212C619.784 457.671 619.411 457.036 618.888 456.308C618.384 455.58 617.871 454.927 617.348 454.348ZM621.212 472.52L623.368 472.24C623.648 473.136 623.853 474.116 623.984 475.18C624.133 476.225 624.208 477.14 624.208 477.924L621.912 478.232C621.931 477.728 621.912 477.149 621.856 476.496C621.8 475.824 621.716 475.152 621.604 474.48C621.511 473.789 621.38 473.136 621.212 472.52ZM625.384 472.268L627.428 471.792C627.801 472.576 628.128 473.425 628.408 474.34C628.707 475.236 628.912 476.02 629.024 476.692L626.868 477.252C626.775 476.58 626.579 475.777 626.28 474.844C626 473.911 625.701 473.052 625.384 472.268ZM617.572 471.764L619.784 472.492C619.579 473.276 619.336 474.079 619.056 474.9C618.776 475.721 618.431 476.496 618.02 477.224C617.609 477.971 617.124 478.633 616.564 479.212L614.52 477.784C615.024 477.299 615.472 476.729 615.864 476.076C616.256 475.404 616.592 474.695 616.872 473.948C617.171 473.201 617.404 472.473 617.572 471.764ZM625.916 453.34L628.604 454.012C627.988 455.972 627.232 457.904 626.336 459.808C625.459 461.693 624.432 463.495 623.256 465.212C622.099 466.911 620.755 468.488 619.224 469.944C617.712 471.381 616.004 472.641 614.1 473.724C613.988 473.5 613.848 473.248 613.68 472.968C613.512 472.688 613.335 472.417 613.148 472.156C612.98 471.876 612.812 471.643 612.644 471.456C614.399 470.504 615.985 469.365 617.404 468.04C618.823 466.696 620.073 465.231 621.156 463.644C622.239 462.057 623.172 460.396 623.956 458.66C624.759 456.905 625.412 455.132 625.916 453.34ZM631.908 458.044H634.372C634.167 459.052 633.943 460.107 633.7 461.208C633.457 462.291 633.233 463.233 633.028 464.036L630.676 463.672C630.9 462.907 631.124 462.011 631.348 460.984C631.572 459.957 631.759 458.977 631.908 458.044ZM633.868 463.14H636.332C636.145 464.148 635.931 465.203 635.688 466.304C635.464 467.387 635.249 468.311 635.044 469.076L632.692 468.768C632.897 468.003 633.112 467.107 633.336 466.08C633.56 465.035 633.737 464.055 633.868 463.14ZM652.908 453.368L655.344 453.984C654.821 455.477 654.131 456.905 653.272 458.268C652.432 459.612 651.527 460.751 650.556 461.684C650.425 461.516 650.239 461.329 649.996 461.124C649.753 460.919 649.511 460.713 649.268 460.508C649.025 460.303 648.801 460.135 648.596 460.004C649.529 459.201 650.369 458.221 651.116 457.064C651.881 455.888 652.479 454.656 652.908 453.368ZM652.852 461.18L655.288 461.852C654.821 462.953 654.224 464.027 653.496 465.072C652.787 466.117 652.059 466.995 651.312 467.704C651.163 467.573 650.967 467.405 650.724 467.2C650.5 466.995 650.257 466.799 649.996 466.612C649.753 466.425 649.539 466.276 649.352 466.164C650.08 465.529 650.752 464.773 651.368 463.896C651.984 463.019 652.479 462.113 652.852 461.18ZM652.936 455.86H664.668V458.1H652.04L652.936 455.86ZM660.748 462.132L662.848 461.124C663.315 461.684 663.772 462.291 664.22 462.944C664.668 463.597 665.079 464.241 665.452 464.876C665.825 465.492 666.124 466.052 666.348 466.556L664.08 467.76C663.893 467.237 663.613 466.659 663.24 466.024C662.885 465.371 662.484 464.708 662.036 464.036C661.607 463.345 661.177 462.711 660.748 462.132ZM663.94 455.86H664.332L664.752 455.748L666.6 456.196C666.264 457.036 665.891 457.904 665.48 458.8C665.088 459.677 664.724 460.424 664.388 461.04L662.12 460.564C662.419 460.004 662.736 459.313 663.072 458.492C663.427 457.671 663.716 456.896 663.94 456.168V455.86ZM647.476 453.256L649.856 454.068C649.259 455.225 648.559 456.373 647.756 457.512C646.953 458.651 646.104 459.724 645.208 460.732C644.331 461.721 643.435 462.589 642.52 463.336C642.408 463.149 642.249 462.925 642.044 462.664C641.857 462.403 641.652 462.141 641.428 461.88C641.204 461.6 641.008 461.376 640.84 461.208C642.128 460.256 643.36 459.071 644.536 457.652C645.731 456.233 646.711 454.768 647.476 453.256ZM644.928 458.856L647.42 456.364L647.476 456.392V469.552H644.928V458.856ZM647.224 470.924H649.884V475.432C649.884 475.861 650.005 476.132 650.248 476.244C650.509 476.356 651.088 476.412 651.984 476.412C652.133 476.412 652.395 476.412 652.768 476.412C653.141 476.412 653.561 476.412 654.028 476.412C654.513 476.412 654.999 476.412 655.484 476.412C655.969 476.412 656.417 476.412 656.828 476.412C657.239 476.412 657.547 476.412 657.752 476.412C658.256 476.412 658.629 476.347 658.872 476.216C659.115 476.067 659.283 475.768 659.376 475.32C659.488 474.853 659.572 474.163 659.628 473.248C659.815 473.379 660.048 473.519 660.328 473.668C660.627 473.799 660.925 473.911 661.224 474.004C661.541 474.097 661.812 474.163 662.036 474.2C661.943 475.451 661.756 476.412 661.476 477.084C661.215 477.756 660.804 478.213 660.244 478.456C659.703 478.717 658.937 478.848 657.948 478.848C657.78 478.848 657.491 478.848 657.08 478.848C656.669 478.848 656.193 478.848 655.652 478.848C655.129 478.848 654.597 478.848 654.056 478.848C653.515 478.848 653.039 478.848 652.628 478.848C652.217 478.848 651.937 478.848 651.788 478.848C650.575 478.848 649.632 478.745 648.96 478.54C648.307 478.353 647.849 478.008 647.588 477.504C647.345 477.019 647.224 476.347 647.224 475.488V470.924ZM651.564 469.804L653.608 468.684C654.112 469.132 654.616 469.636 655.12 470.196C655.643 470.756 656.119 471.316 656.548 471.876C656.977 472.436 657.313 472.949 657.556 473.416L655.372 474.704C655.148 474.256 654.831 473.743 654.42 473.164C654.009 472.585 653.552 472.007 653.048 471.428C652.563 470.831 652.068 470.289 651.564 469.804ZM661.252 471.316L663.576 470.42C664.024 471.073 664.453 471.792 664.864 472.576C665.275 473.341 665.639 474.097 665.956 474.844C666.273 475.572 666.507 476.225 666.656 476.804L664.136 477.812C664.005 477.233 663.791 476.571 663.492 475.824C663.193 475.077 662.848 474.312 662.456 473.528C662.064 472.725 661.663 471.988 661.252 471.316ZM643.948 470.952L646.3 471.932C646.076 472.567 645.815 473.267 645.516 474.032C645.236 474.779 644.937 475.516 644.62 476.244C644.321 476.972 644.004 477.635 643.668 478.232L641.176 477.056C641.531 476.496 641.876 475.871 642.212 475.18C642.567 474.471 642.893 473.752 643.192 473.024C643.491 472.277 643.743 471.587 643.948 470.952ZM656.996 459.024H659.516V469.44H656.996V459.024ZM681.86 459.836V461.712H690.456V459.836H681.86ZM681.86 456.196V458.072H690.456V456.196H681.86ZM679.452 454.264H692.976V463.672H679.452V454.264ZM678.136 465.38H694.488V467.564H678.136V465.38ZM684.884 466.5H687.376V477.924L684.884 476.888V466.5ZM681.664 471.568C682.149 473.043 682.784 474.144 683.568 474.872C684.352 475.581 685.267 476.057 686.312 476.3C687.376 476.524 688.524 476.636 689.756 476.636C689.961 476.636 690.307 476.636 690.792 476.636C691.277 476.636 691.819 476.636 692.416 476.636C693.013 476.636 693.573 476.636 694.096 476.636C694.637 476.617 695.039 476.608 695.3 476.608C695.207 476.795 695.104 477.028 694.992 477.308C694.88 477.588 694.787 477.868 694.712 478.148C694.637 478.447 694.581 478.717 694.544 478.96H693.396H689.644C688.487 478.96 687.413 478.867 686.424 478.68C685.453 478.512 684.567 478.195 683.764 477.728C682.961 477.261 682.243 476.58 681.608 475.684C680.992 474.769 680.469 473.593 680.04 472.156L681.664 471.568ZM686.676 470.476H693.032V472.604H686.676V470.476ZM679.872 468.656L682.28 468.964C682 471.241 681.487 473.257 680.74 475.012C680.012 476.748 679.023 478.185 677.772 479.324C677.641 479.175 677.455 478.997 677.212 478.792C676.969 478.605 676.717 478.409 676.456 478.204C676.213 478.017 675.999 477.868 675.812 477.756C677.025 476.785 677.949 475.525 678.584 473.976C679.237 472.427 679.667 470.653 679.872 468.656ZM668.728 467.956C669.848 467.676 671.183 467.312 672.732 466.864C674.281 466.416 675.849 465.959 677.436 465.492L677.8 467.9C676.363 468.348 674.897 468.805 673.404 469.272C671.929 469.739 670.576 470.149 669.344 470.504L668.728 467.956ZM669.036 458.856H677.716V461.32H669.036V458.856ZM672.312 453.396H674.748V476.16C674.748 476.813 674.673 477.327 674.524 477.7C674.375 478.073 674.113 478.372 673.74 478.596C673.367 478.801 672.881 478.932 672.284 478.988C671.687 479.063 670.94 479.091 670.044 479.072C670.025 478.755 669.941 478.353 669.792 477.868C669.661 477.401 669.512 476.991 669.344 476.636C669.904 476.655 670.417 476.664 670.884 476.664C671.351 476.664 671.668 476.664 671.836 476.664C672.023 476.664 672.144 476.627 672.2 476.552C672.275 476.477 672.312 476.347 672.312 476.16V453.396ZM703.196 453.424L705.716 454.18C705.119 455.767 704.409 457.344 703.588 458.912C702.767 460.48 701.871 461.955 700.9 463.336C699.948 464.717 698.968 465.94 697.96 467.004C697.885 466.799 697.755 466.528 697.568 466.192C697.4 465.837 697.223 465.492 697.036 465.156C696.849 464.801 696.672 464.521 696.504 464.316C697.381 463.42 698.231 462.393 699.052 461.236C699.892 460.079 700.667 458.837 701.376 457.512C702.085 456.168 702.692 454.805 703.196 453.424ZM700.284 460.9L702.888 458.324L702.916 458.352V479.324H700.284V460.9ZM705.436 459.136H722.712V461.656H705.436V459.136ZM704.764 468.012H722.992V470.588H704.764V468.012ZM708.824 453.62H711.428V469.356H708.824V453.62ZM716.272 453.592H718.848V469.384H716.272V453.592ZM709.468 471.96L711.988 472.744C711.521 473.565 710.98 474.377 710.364 475.18C709.767 475.964 709.132 476.711 708.46 477.42C707.788 478.129 707.135 478.745 706.5 479.268C706.332 479.119 706.117 478.932 705.856 478.708C705.613 478.503 705.361 478.297 705.1 478.092C704.839 477.887 704.605 477.719 704.4 477.588C705.371 476.897 706.313 476.057 707.228 475.068C708.143 474.06 708.889 473.024 709.468 471.96ZM715.74 473.192L717.84 471.988C718.475 472.604 719.1 473.267 719.716 473.976C720.351 474.685 720.929 475.385 721.452 476.076C721.993 476.748 722.423 477.364 722.74 477.924L720.528 479.352C720.211 478.773 719.791 478.12 719.268 477.392C718.764 476.683 718.204 475.964 717.588 475.236C716.972 474.489 716.356 473.808 715.74 473.192ZM728.452 454.348H747.632V463.14H744.944V456.252H731.028V463.14H728.452V454.348ZM732.12 457.68H743.824V459.332H732.12V457.68ZM732.12 460.788H743.768V462.524H732.12V460.788ZM725.512 464.064H750.404V466.192H725.512V464.064ZM737.944 467.648H747.632V469.72H737.944V467.648ZM729.404 467.704H736.068V469.608H729.404V467.704ZM729.404 471.176H736.068V473.08H729.404V471.176ZM741.22 469.552C742.041 471.419 743.283 473.033 744.944 474.396C746.624 475.759 748.621 476.72 750.936 477.28C750.768 477.429 750.581 477.625 750.376 477.868C750.171 478.129 749.975 478.381 749.788 478.624C749.62 478.885 749.48 479.119 749.368 479.324C746.923 478.615 744.832 477.476 743.096 475.908C741.379 474.321 740.044 472.408 739.092 470.168L741.22 469.552ZM747.044 467.648H747.52L747.968 467.564L749.592 468.208C748.995 470.131 748.145 471.82 747.044 473.276C745.961 474.713 744.692 475.927 743.236 476.916C741.799 477.905 740.249 478.699 738.588 479.296C738.439 478.979 738.224 478.615 737.944 478.204C737.664 477.793 737.403 477.467 737.16 477.224C738.653 476.776 740.063 476.123 741.388 475.264C742.713 474.405 743.861 473.369 744.832 472.156C745.821 470.943 746.559 469.571 747.044 468.04V467.648ZM725.176 475.46C726.109 475.385 727.164 475.301 728.34 475.208C729.535 475.096 730.795 474.975 732.12 474.844C733.445 474.713 734.78 474.583 736.124 474.452L736.152 476.524C734.248 476.748 732.353 476.963 730.468 477.168C728.583 477.373 726.912 477.56 725.456 477.728L725.176 475.46ZM734.696 464.736H737.244V479.352H734.696V464.736ZM727.808 464.792H730.244V476.104H727.808V464.792ZM753.26 471.092H778.768V473.22H753.26V471.092ZM754.044 455.384H777.704V457.428H754.044V455.384ZM769.668 469.356H772.244V476.692C772.244 477.327 772.16 477.821 771.992 478.176C771.824 478.549 771.488 478.82 770.984 478.988C770.499 479.156 769.873 479.259 769.108 479.296C768.343 479.333 767.409 479.352 766.308 479.352C766.252 479.016 766.14 478.624 765.972 478.176C765.823 477.747 765.664 477.373 765.496 477.056C766.019 477.075 766.523 477.084 767.008 477.084C767.493 477.103 767.923 477.103 768.296 477.084C768.688 477.084 768.949 477.084 769.08 477.084C769.323 477.065 769.481 477.028 769.556 476.972C769.631 476.897 769.668 476.776 769.668 476.608V469.356ZM764.656 453.396H767.26V468.432H764.656V453.396ZM757.712 474.312L759.56 472.772C760.083 473.089 760.633 473.463 761.212 473.892C761.791 474.303 762.341 474.723 762.864 475.152C763.387 475.563 763.807 475.945 764.124 476.3L762.164 478.036C761.865 477.663 761.464 477.252 760.96 476.804C760.475 476.356 759.943 475.917 759.364 475.488C758.804 475.059 758.253 474.667 757.712 474.312ZM758.72 463.476V464.932H773.364V463.476H758.72ZM758.72 460.452V461.852H773.364V460.452H758.72ZM756.256 458.772H775.968V466.612H756.256V458.772ZM770.06 467.144L771.628 465.884C772.356 466.127 773.093 466.444 773.84 466.836C774.605 467.209 775.333 467.601 776.024 468.012C776.715 468.404 777.284 468.777 777.732 469.132L776.136 470.56C775.688 470.168 775.128 469.767 774.456 469.356C773.784 468.927 773.065 468.516 772.3 468.124C771.535 467.732 770.788 467.405 770.06 467.144ZM754.408 467.984C755.677 467.984 757.124 467.984 758.748 467.984C760.372 467.965 762.099 467.956 763.928 467.956C765.776 467.937 767.671 467.919 769.612 467.9C771.553 467.881 773.485 467.853 775.408 467.816L775.296 469.524C772.813 469.58 770.312 469.645 767.792 469.72C765.272 469.776 762.873 469.823 760.596 469.86C758.319 469.897 756.284 469.925 754.492 469.944L754.408 467.984ZM781.68 470.588H806.404V472.8H781.68V470.588ZM781.792 458.184H806.32V460.312H781.792V458.184ZM782.912 463.14H805.284V465.212H782.912V463.14ZM784.312 466.892H803.94V468.88H784.312V466.892ZM792.656 464.092H795.26V479.352H792.656V464.092ZM790.164 453.34H792.656V459.22H790.164V453.34ZM795.428 453.34H797.948V459.08H795.428V453.34ZM801.896 453.648L804.64 454.348C804.211 455.095 803.772 455.841 803.324 456.588C802.876 457.335 802.456 457.979 802.064 458.52L799.908 457.848C800.151 457.456 800.393 457.017 800.636 456.532C800.897 456.028 801.131 455.524 801.336 455.02C801.56 454.516 801.747 454.059 801.896 453.648ZM798.368 460.144L801.14 460.872C800.748 461.376 800.365 461.861 799.992 462.328C799.619 462.776 799.273 463.168 798.956 463.504L796.716 462.832C796.996 462.44 797.295 461.992 797.612 461.488C797.929 460.984 798.181 460.536 798.368 460.144ZM783.948 454.348L786.216 453.564C786.683 454.18 787.131 454.871 787.56 455.636C787.989 456.401 788.307 457.073 788.512 457.652L786.132 458.52C785.945 457.96 785.647 457.288 785.236 456.504C784.825 455.72 784.396 455.001 783.948 454.348ZM787.336 460.704L789.828 460.116C790.127 460.527 790.407 460.984 790.668 461.488C790.948 461.992 791.153 462.431 791.284 462.804L788.708 463.448C788.615 463.075 788.437 462.627 788.176 462.104C787.915 461.581 787.635 461.115 787.336 460.704ZM789.66 473.976L791.592 474.9C790.939 475.404 790.136 475.899 789.184 476.384C788.232 476.851 787.224 477.271 786.16 477.644C785.115 478.036 784.107 478.335 783.136 478.54C782.968 478.241 782.725 477.905 782.408 477.532C782.109 477.159 781.829 476.851 781.568 476.608C782.52 476.459 783.509 476.253 784.536 475.992C785.563 475.731 786.524 475.423 787.42 475.068C788.316 474.713 789.063 474.349 789.66 473.976ZM796.828 475.18L798.508 473.836C799.348 474.116 800.253 474.452 801.224 474.844C802.213 475.217 803.156 475.591 804.052 475.964C804.967 476.337 805.732 476.673 806.348 476.972L804.584 478.512C803.987 478.213 803.24 477.859 802.344 477.448C801.467 477.056 800.533 476.664 799.544 476.272C798.573 475.861 797.668 475.497 796.828 475.18ZM811.808 457.876H820.376V476.44H811.808V474.06H817.94V460.228H811.808V457.876ZM810.268 457.876H812.704V478.596H810.268V457.876ZM811.696 465.548H819.172V467.844H811.696V465.548ZM814.412 453.312L817.296 453.788C816.997 454.684 816.68 455.589 816.344 456.504C816.008 457.419 815.7 458.193 815.42 458.828L813.32 458.324C813.451 457.857 813.591 457.335 813.74 456.756C813.889 456.159 814.02 455.561 814.132 454.964C814.263 454.348 814.356 453.797 814.412 453.312ZM824.24 457.736H832.64V460.172H824.24V457.736ZM831.716 457.736H834.18C834.18 457.736 834.18 457.82 834.18 457.988C834.18 458.137 834.18 458.315 834.18 458.52C834.18 458.725 834.18 458.884 834.18 458.996C834.087 462.188 833.984 464.895 833.872 467.116C833.76 469.319 833.629 471.129 833.48 472.548C833.349 473.967 833.181 475.068 832.976 475.852C832.789 476.636 832.556 477.205 832.276 477.56C831.921 478.027 831.557 478.344 831.184 478.512C830.811 478.699 830.353 478.829 829.812 478.904C829.327 478.96 828.692 478.979 827.908 478.96C827.143 478.96 826.359 478.941 825.556 478.904C825.537 478.531 825.444 478.092 825.276 477.588C825.127 477.103 824.921 476.683 824.66 476.328C825.575 476.403 826.415 476.449 827.18 476.468C827.945 476.487 828.505 476.496 828.86 476.496C829.14 476.496 829.364 476.468 829.532 476.412C829.719 476.356 829.896 476.235 830.064 476.048C830.288 475.787 830.484 475.283 830.652 474.536C830.82 473.771 830.969 472.697 831.1 471.316C831.231 469.916 831.343 468.143 831.436 465.996C831.548 463.849 831.641 461.273 831.716 458.268V457.736ZM824.604 453.312L827.152 453.9C826.797 455.281 826.368 456.644 825.864 457.988C825.379 459.332 824.847 460.601 824.268 461.796C823.689 462.972 823.073 464.008 822.42 464.904C822.271 464.755 822.056 464.587 821.776 464.4C821.515 464.195 821.244 463.999 820.964 463.812C820.703 463.625 820.46 463.476 820.236 463.364C820.871 462.561 821.459 461.619 822 460.536C822.56 459.453 823.055 458.296 823.484 457.064C823.932 455.813 824.305 454.563 824.604 453.312ZM823.26 465.38L825.332 464.204C825.836 464.839 826.359 465.548 826.9 466.332C827.46 467.097 827.973 467.844 828.44 468.572C828.925 469.3 829.317 469.944 829.616 470.504L827.376 471.904C827.115 471.325 826.751 470.663 826.284 469.916C825.817 469.169 825.323 468.395 824.8 467.592C824.277 466.789 823.764 466.052 823.26 465.38ZM844.148 465.94C845.679 468.945 848.049 471.335 851.26 473.108C854.471 474.881 858.409 476.048 863.076 476.608C862.871 476.813 862.665 477.065 862.46 477.364C862.255 477.681 862.049 477.999 861.844 478.316C861.657 478.652 861.508 478.941 861.396 479.184C858.185 478.717 855.32 477.961 852.8 476.916C850.299 475.871 848.124 474.517 846.276 472.856C844.428 471.176 842.897 469.169 841.684 466.836L844.148 465.94ZM839.388 463.868H857.504V466.472H839.388V463.868ZM838.044 457.372H861.844V460.004H838.044V457.372ZM848.544 453.368H851.288V465.044H848.544V453.368ZM856.86 463.868H857.42L857.924 463.784L859.772 464.848C858.895 467.051 857.728 468.973 856.272 470.616C854.835 472.24 853.173 473.631 851.288 474.788C849.421 475.927 847.387 476.86 845.184 477.588C842.981 478.335 840.676 478.923 838.268 479.352C838.212 479.109 838.091 478.829 837.904 478.512C837.736 478.195 837.559 477.877 837.372 477.56C837.185 477.243 837.008 476.991 836.84 476.804C839.173 476.468 841.395 475.992 843.504 475.376C845.613 474.741 847.545 473.939 849.3 472.968C851.055 471.979 852.576 470.775 853.864 469.356C855.152 467.937 856.151 466.276 856.86 464.372V463.868ZM874.444 460.984H889.872V463.112H874.444V460.984ZM873.856 464.904H890.712V467.116H873.856V464.904ZM877.608 468.656H887.156V470.644H877.608V468.656ZM875.228 457.652L877.244 457.092C877.505 457.615 877.757 458.193 878 458.828C878.261 459.463 878.457 459.995 878.588 460.424L876.46 461.152C876.348 460.685 876.171 460.125 875.928 459.472C875.704 458.8 875.471 458.193 875.228 457.652ZM880.184 457.092L882.284 456.728C882.452 457.307 882.611 457.932 882.76 458.604C882.909 459.276 883.021 459.845 883.096 460.312L880.856 460.816C880.819 460.331 880.735 459.743 880.604 459.052C880.473 458.343 880.333 457.689 880.184 457.092ZM888.108 453.536L889.62 455.496C888.631 455.701 887.52 455.888 886.288 456.056C885.075 456.224 883.796 456.364 882.452 456.476C881.127 456.588 879.792 456.681 878.448 456.756C877.123 456.812 875.835 456.859 874.584 456.896C874.547 456.597 874.463 456.261 874.332 455.888C874.22 455.496 874.099 455.16 873.968 454.88C875.2 454.843 876.46 454.787 877.748 454.712C879.055 454.637 880.333 454.544 881.584 454.432C882.853 454.301 884.048 454.171 885.168 454.04C886.307 453.891 887.287 453.723 888.108 453.536ZM879.708 470.112C880.38 471.325 881.267 472.417 882.368 473.388C883.488 474.34 884.804 475.143 886.316 475.796C887.828 476.431 889.489 476.897 891.3 477.196C891.02 477.457 890.721 477.803 890.404 478.232C890.105 478.68 889.872 479.072 889.704 479.408C886.867 478.811 884.421 477.784 882.368 476.328C880.315 474.853 878.709 472.996 877.552 470.756L879.708 470.112ZM886.792 456.336L889.284 457.092C888.78 457.951 888.239 458.828 887.66 459.724C887.081 460.601 886.559 461.357 886.092 461.992L884.188 461.292C884.487 460.844 884.795 460.331 885.112 459.752C885.448 459.173 885.765 458.585 886.064 457.988C886.363 457.391 886.605 456.84 886.792 456.336ZM886.568 468.656H887.072L887.52 468.6L888.976 469.188C888.397 471.185 887.557 472.856 886.456 474.2C885.355 475.544 884.048 476.636 882.536 477.476C881.043 478.316 879.4 478.96 877.608 479.408C877.533 479.221 877.403 478.997 877.216 478.736C877.048 478.493 876.871 478.251 876.684 478.008C876.497 477.765 876.329 477.579 876.18 477.448C877.879 477.075 879.428 476.543 880.828 475.852C882.228 475.161 883.413 474.265 884.384 473.164C885.373 472.044 886.101 470.663 886.568 469.02V468.656ZM878.028 462.328H880.576C880.483 463.485 880.352 464.689 880.184 465.94C880.035 467.172 879.801 468.413 879.484 469.664C879.185 470.915 878.765 472.128 878.224 473.304C877.701 474.48 877.029 475.581 876.208 476.608C875.387 477.635 874.379 478.54 873.184 479.324C872.997 479.007 872.736 478.661 872.4 478.288C872.083 477.933 871.756 477.644 871.42 477.42C872.54 476.748 873.473 475.955 874.22 475.04C874.985 474.107 875.601 473.108 876.068 472.044C876.535 470.98 876.899 469.888 877.16 468.768C877.421 467.648 877.608 466.537 877.72 465.436C877.851 464.335 877.953 463.299 878.028 462.328ZM864.812 468.656C865.932 468.376 867.257 468.012 868.788 467.564C870.337 467.116 871.915 466.649 873.52 466.164L873.856 468.572C872.363 469.039 870.86 469.505 869.348 469.972C867.855 470.439 866.492 470.859 865.26 471.232L864.812 468.656ZM865.12 458.856H873.632V461.32H865.12V458.856ZM868.368 453.396H870.832V476.44C870.832 477.093 870.757 477.607 870.608 477.98C870.459 478.353 870.188 478.652 869.796 478.876C869.423 479.081 868.937 479.212 868.34 479.268C867.761 479.343 867.015 479.38 866.1 479.38C866.081 479.044 865.997 478.633 865.848 478.148C865.717 477.681 865.568 477.271 865.4 476.916C865.96 476.935 866.473 476.944 866.94 476.944C867.407 476.944 867.724 476.935 867.892 476.916C868.06 476.916 868.181 476.888 868.256 476.832C868.331 476.757 868.368 476.627 868.368 476.44V453.396ZM904.852 470.056L904.208 459.752L904.124 456.056H907.876L907.792 459.752L907.148 470.056H904.852ZM906 477.196C905.403 477.196 904.899 477 904.488 476.608C904.096 476.216 903.9 475.703 903.9 475.068C903.9 474.433 904.105 473.92 904.516 473.528C904.927 473.136 905.421 472.94 906 472.94C906.579 472.94 907.073 473.136 907.484 473.528C907.895 473.92 908.1 474.433 908.1 475.068C908.1 475.703 907.895 476.216 907.484 476.608C907.073 477 906.579 477.196 906 477.196Z" fill="white"/>
<defs>
<filter id="filter0_d_1270_20812" x="598" y="326" width="227.975" height="76.0005" filterUnits="userSpaceOnUse" color-interpolation-filters="sRGB">
<feFlood flood-opacity="0" result="BackgroundImageFix"/>
<feColorMatrix in="SourceAlpha" type="matrix" values="0 0 0 0 0 0 0 0 0 0 0 0 0 0 0 0 0 0 127 0" result="hardAlpha"/>
<feOffset/>
<feGaussianBlur stdDeviation="4.5"/>
<feComposite in2="hardAlpha" operator="out"/>
<feColorMatrix type="matrix" values="0 0 0 0 0 0 0 0 0 1 0 0 0 0 1 0 0 0 1 0"/>
<feBlend mode="normal" in2="BackgroundImageFix" result="effect1_dropShadow_1270_20812"/>
<feBlend mode="normal" in="SourceGraphic" in2="effect1_dropShadow_1270_20812" result="shape"/>
</filter>
<radialGradient id="paint0_radial_1270_20812" cx="0" cy="0" r="1" gradientUnits="userSpaceOnUse" gradientTransform="translate(633.6 418.5) rotate(34.5043) scale(277.156 228.025)">
<stop stop-color="#003A91"/>
<stop offset="1" stop-color="#062553"/>
</radialGradient>
<linearGradient id="paint1_linear_1270_20812" x1="-158.384" y1="395.982" x2="474.709" y2="891.978" gradientUnits="userSpaceOnUse">
<stop stop-color="#00F9FF"/>
<stop offset="0.135" stop-color="#ABFFFA"/>
<stop offset="0.33" stop-color="#61FBFF"/>
<stop offset="0.51" stop-color="#73FCFF"/>
<stop offset="1" stop-color="#66FFC8"/>
</linearGradient>
<radialGradient id="paint2_radial_1270_20812" cx="0" cy="0" r="1" gradientUnits="userSpaceOnUse" gradientTransform="translate(64 263.67) rotate(45.8695) scale(879.023 465.946)">
<stop stop-color="#045284"/>
<stop offset="0.772851" stop-color="#042B66"/>
</radialGradient>
<linearGradient id="paint3_linear_1270_20812" x1="574.747" y1="994.988" x2="-204.324" y2="812.478" gradientUnits="userSpaceOnUse">
<stop stop-color="#00F9FF"/>
<stop offset="0.135" stop-color="white"/>
<stop offset="0.33" stop-color="#61FBFF"/>
<stop offset="0.51" stop-color="#73FCFF"/>
<stop offset="1" stop-color="white"/>
</linearGradient>
</defs>
</svg>
