<svg width="1200" height="816" viewBox="0 0 1200 816" fill="none" xmlns="http://www.w3.org/2000/svg">
<path d="M434 721.382H434.409L434.701 721.669L457.409 744H1136.08L1199 680.588V136.414L1135.59 73H733.915L688.709 118.403L688.415 118.698H688H64.4155L1.00171 182.411L2.90918 657.583L66.9132 721.382H434Z" fill="url(#paint0_radial_1270_20956)" stroke="url(#paint1_linear_1270_20956)" stroke-width="2"/>
<path d="M1184 143.5L1128.5 87.5H740.5L694.5 134H67.5L16.5 188L18.2803 649.5L73.5 705.5H441L464.143 729H1126.5L1184 674.5V143.5Z" stroke="#00FFFF" stroke-width="2"/>
<g style="mix-blend-mode:overlay">
<rect opacity="0.3" x="1059" y="195" width="14" height="14" transform="rotate(-180 1059 195)" fill="#15FFFF"/>
<rect opacity="0.3" x="1059" y="214.949" width="14" height="14" transform="rotate(-180 1059 214.949)" fill="#C8FCFF"/>
<rect opacity="0.3" x="1079" y="214.949" width="14" height="14" transform="rotate(-180 1079 214.949)" fill="#69F6FF"/>
<rect opacity="0.3" x="1025" y="254.844" width="14" height="14" transform="rotate(-90 1025 254.844)" fill="#15FFFF"/>
<rect opacity="0.3" x="1045" y="254.844" width="14" height="14" transform="rotate(-90 1045 254.844)" fill="#C8FCFF"/>
<rect opacity="0.3" x="1045" y="234.895" width="14" height="14" transform="rotate(-90 1045 234.895)" fill="#69F6FF"/>
<rect x="1019" y="254.844" width="14" height="14" transform="rotate(-180 1019 254.844)" fill="#15FFFF"/>
<rect opacity="0.3" x="1039" y="234.895" width="14" height="14" transform="rotate(-180 1039 234.895)" fill="#C8FCFF"/>
<rect opacity="0.3" x="1000" y="254.844" width="14" height="14" transform="rotate(-180 1000 254.844)" fill="#69F6FF"/>
<rect x="1019" y="234.895" width="14" height="14" transform="rotate(-180 1019 234.895)" fill="#15FFFF"/>
<rect opacity="0.3" x="981" y="234.895" width="14" height="14" transform="rotate(-180 981 234.895)" fill="#C8FCFF"/>
<rect opacity="0.3" x="1000" y="234.895" width="14" height="14" transform="rotate(-180 1000 234.895)" fill="#69F6FF"/>
<rect opacity="0.3" x="1099" y="214.949" width="14" height="14" transform="rotate(-180 1099 214.949)" fill="#15FFFF"/>
<rect opacity="0.3" x="1079" y="274.793" width="14" height="14" transform="rotate(-180 1079 274.793)" fill="#C8FCFF"/>
<rect opacity="0.3" x="1099" y="293.746" width="14" height="14" transform="rotate(-180 1099 293.746)" fill="#69F6FF"/>
<rect opacity="0.3" x="1005" y="200.984" width="14" height="14" fill="#15FFFF"/>
<rect x="1025" y="260.828" width="14" height="14" fill="#69F6FF"/>
</g>
<path d="M107 721.028V65.4656C107 65.111 107.14 64.7707 107.39 64.5189L170.022 1.3974C170.275 1.14306 170.618 1 170.976 1H581.524C581.882 1 582.225 1.14307 582.478 1.39743L644.61 64.0189C644.86 64.2706 645 64.6109 645 64.9656V399.388V721.024C645 721.382 644.857 721.725 644.603 721.978L581.481 784.61C581.229 784.86 580.889 785 580.534 785H376H171.08C170.724 785 170.383 784.859 170.131 784.607L107.395 721.979C107.142 721.727 107 721.385 107 721.028Z" fill="url(#paint2_radial_1270_20956)" stroke="url(#paint3_linear_1270_20956)" stroke-width="2"/>
<g filter="url(#filter0_d_1270_20956)">
<mask id="path-21-outside-1_1270_20956" maskUnits="userSpaceOnUse" x="729" y="331" width="210" height="60" fill="black">
<rect fill="white" x="729" y="331" width="210" height="60"/>
<path d="M751.06 343.461L780.334 341.795L780.789 346.136L751.514 347.953L751.06 343.461ZM756.562 337.404H762.215C762.45 339.322 762.988 341.088 763.83 342.703C764.671 344.319 765.697 345.715 766.909 346.893C768.12 348.037 769.415 348.928 770.795 349.568C772.208 350.207 773.605 350.527 774.984 350.527C775.691 350.527 776.162 350.291 776.397 349.82C776.633 349.315 776.818 348.407 776.953 347.095C777.525 347.532 778.231 347.953 779.073 348.356C779.914 348.727 780.688 349.013 781.394 349.215C781.159 351.032 780.772 352.428 780.233 353.404C779.729 354.346 779.022 354.985 778.114 355.322C777.239 355.658 776.128 355.826 774.782 355.826C773.033 355.826 771.317 355.54 769.634 354.968C767.952 354.396 766.387 353.589 764.94 352.546C763.493 351.469 762.181 350.19 761.003 348.71C759.825 347.196 758.85 345.496 758.076 343.612C757.335 341.728 756.831 339.658 756.562 337.404ZM765.445 340.18L768.17 337.252C769.113 337.421 770.122 337.673 771.199 338.009C772.309 338.312 773.369 338.649 774.379 339.019C775.388 339.355 776.229 339.709 776.902 340.079L774.025 343.309C773.42 342.973 772.612 342.619 771.603 342.249C770.627 341.845 769.6 341.458 768.524 341.088C767.447 340.718 766.421 340.415 765.445 340.18ZM748.385 337L753.836 339.12C752.557 340.735 751.043 342.317 749.293 343.864C747.544 345.412 745.727 346.859 743.842 348.205C741.958 349.517 740.107 350.645 738.29 351.587C737.987 351.183 737.567 350.712 737.028 350.174C736.524 349.635 736.002 349.097 735.464 348.558C734.925 347.986 734.437 347.549 734 347.246C735.851 346.438 737.668 345.513 739.451 344.47C741.234 343.393 742.9 342.232 744.448 340.987C745.996 339.709 747.308 338.38 748.385 337ZM743.741 345.126L747.527 341.29L749.546 341.845V354.464H743.741V345.126ZM747.577 364.912V367.032H769.483V364.912H747.577ZM747.577 370.464V372.685H769.483V370.464H747.577ZM747.577 359.309V361.479H769.483V359.309H747.577ZM741.722 355.726H775.64V376.268H741.722V355.726ZM761.104 378.943L766.151 376.066C767.968 376.706 769.802 377.395 771.653 378.136C773.537 378.842 775.321 379.566 777.003 380.306C778.719 381.013 780.166 381.652 781.344 382.224L774.278 384.95C773.335 384.411 772.158 383.789 770.744 383.082C769.331 382.375 767.8 381.652 766.151 380.912C764.536 380.205 762.854 379.549 761.104 378.943ZM749.95 375.864L755.451 378.388C754.105 379.263 752.524 380.121 750.707 380.962C748.89 381.803 747.022 382.56 745.104 383.233C743.186 383.94 741.369 384.529 739.653 385C739.283 384.596 738.829 384.108 738.29 383.536C737.785 382.998 737.247 382.443 736.675 381.871C736.103 381.332 735.598 380.895 735.161 380.558C736.944 380.222 738.744 379.818 740.562 379.347C742.412 378.876 744.145 378.338 745.76 377.732C747.409 377.126 748.805 376.504 749.95 375.864Z"/>
<path d="M816.625 355.372H822.379V357.896C822.379 359.713 822.261 361.749 822.025 364.003C821.823 366.224 821.386 368.563 820.713 371.019C820.04 373.442 819.014 375.848 817.634 378.237C816.254 380.626 814.404 382.88 812.082 385C811.746 384.563 811.308 384.075 810.77 383.536C810.265 383.032 809.71 382.527 809.104 382.022C808.532 381.551 807.994 381.164 807.489 380.861C809.609 379.044 811.274 377.126 812.486 375.107C813.731 373.055 814.639 371.002 815.211 368.95C815.783 366.863 816.154 364.861 816.322 362.943C816.524 361.025 816.625 359.292 816.625 357.744V355.372ZM821.975 361.479C822.513 364.104 823.253 366.611 824.196 369C825.138 371.355 826.332 373.458 827.779 375.309C829.226 377.126 830.976 378.556 833.028 379.599C832.557 380.003 832.069 380.491 831.565 381.063C831.06 381.669 830.572 382.291 830.101 382.931C829.63 383.57 829.243 384.176 828.94 384.748C826.719 383.334 824.835 381.517 823.287 379.297C821.773 377.076 820.528 374.535 819.552 371.675C818.576 368.781 817.769 365.669 817.129 362.338L821.975 361.479ZM785.685 341.492H809.356V346.438H785.685V341.492ZM784.978 363.498H809.962V368.445H784.978V363.498ZM786.946 348.962H808.246V353.858H786.946V348.962ZM787.249 356.23H807.943V361.126H787.249V356.23ZM794.77 337.757H800.423V352.192H794.77V337.757ZM788.208 369.404L793.155 370.565C792.65 372.415 792.027 374.333 791.287 376.319C790.547 378.27 789.823 379.936 789.117 381.315C788.578 380.979 787.821 380.609 786.845 380.205C785.903 379.801 785.113 379.498 784.473 379.297C785.213 377.984 785.92 376.436 786.593 374.653C787.266 372.836 787.804 371.086 788.208 369.404ZM801.886 371.069L806.379 369.303C806.816 370.144 807.237 371.036 807.64 371.978C808.078 372.886 808.482 373.795 808.852 374.703C809.222 375.612 809.491 376.42 809.659 377.126L804.915 379.145C804.747 378.438 804.494 377.631 804.158 376.722C803.821 375.78 803.451 374.821 803.047 373.845C802.677 372.836 802.29 371.911 801.886 371.069ZM813.899 346.539H828.132V352.041H813.899V346.539ZM812.94 337.505L818.845 338.312C818.442 341.374 817.903 344.369 817.23 347.297C816.591 350.19 815.817 352.899 814.909 355.423C814 357.913 812.957 360.117 811.779 362.035C811.443 361.698 810.972 361.294 810.366 360.823C809.76 360.352 809.138 359.898 808.498 359.461C807.859 358.989 807.304 358.619 806.833 358.35C807.977 356.735 808.936 354.817 809.71 352.596C810.517 350.375 811.174 347.986 811.678 345.429C812.217 342.838 812.637 340.197 812.94 337.505ZM826.568 346.539H827.426L828.385 346.338L832.524 347.448C832.221 349.13 831.851 350.846 831.413 352.596C831.009 354.346 830.572 356.028 830.101 357.644C829.664 359.259 829.226 360.672 828.789 361.883L823.893 360.42C824.229 359.309 824.566 358.014 824.902 356.533C825.239 355.053 825.542 353.538 825.811 351.991C826.114 350.409 826.366 348.895 826.568 347.448V346.539ZM794.82 365.517H800.524V384.798H794.82V365.517Z"/>
<path d="M836.814 368.293H881.836V373.29H836.814V368.293ZM836.965 345.681H881.685V350.426H836.965V345.681ZM839.035 354.868H879.716V359.461H839.035V354.868ZM841.508 361.732H877.394V366.073H841.508V361.732ZM856.145 357.088H862.151V384.849H856.145V357.088ZM851.855 337.353H857.508V348.054H851.855V337.353ZM861.192 337.353H866.946V347.7H861.192V337.353ZM872.852 337.808L879.161 339.322C878.353 340.701 877.546 342.047 876.738 343.36C875.931 344.638 875.19 345.732 874.517 346.64L869.621 345.126C870.025 344.453 870.429 343.696 870.833 342.855C871.237 341.98 871.607 341.105 871.943 340.23C872.313 339.322 872.616 338.514 872.852 337.808ZM866.644 350.022L873.054 351.637C872.313 352.512 871.59 353.303 870.883 354.009C870.21 354.682 869.571 355.288 868.965 355.826L863.817 354.312C864.322 353.673 864.827 352.95 865.331 352.142C865.87 351.334 866.307 350.628 866.644 350.022ZM840.65 339.423L845.849 337.656C846.589 338.699 847.329 339.911 848.069 341.29C848.81 342.636 849.348 343.797 849.685 344.773L844.183 346.792C843.914 345.782 843.426 344.588 842.719 343.208C842.046 341.829 841.356 340.567 840.65 339.423ZM846.505 351.183L852.208 349.921C852.646 350.56 853.083 351.284 853.521 352.091C853.992 352.899 854.345 353.623 854.58 354.262L848.625 355.675C848.456 355.069 848.154 354.346 847.716 353.505C847.312 352.63 846.909 351.856 846.505 351.183ZM850.644 374.956L854.934 376.924C853.823 377.866 852.427 378.775 850.744 379.65C849.096 380.525 847.363 381.299 845.546 381.972C843.729 382.678 841.945 383.233 840.196 383.637C839.825 382.998 839.287 382.241 838.58 381.366C837.874 380.491 837.218 379.801 836.612 379.297C838.294 379.027 840.027 378.674 841.811 378.237C843.594 377.799 845.26 377.294 846.808 376.722C848.355 376.15 849.634 375.562 850.644 374.956ZM864.322 377.479L868.36 374.603C869.739 375.141 871.253 375.747 872.902 376.42C874.585 377.093 876.2 377.782 877.748 378.489C879.329 379.162 880.658 379.784 881.735 380.356L877.445 383.637C876.469 383.099 875.224 382.46 873.71 381.719C872.196 380.979 870.597 380.239 868.915 379.498C867.266 378.758 865.735 378.085 864.322 377.479Z"/>
<path d="M887.186 339.726H903.691V344.823H887.186V339.726ZM907.375 365.719H927.868V370.716H907.375V365.719ZM886.479 355.17H905.256V360.42H886.479V355.17ZM894.707 357.341H900.41V378.287C900.41 379.667 900.259 380.777 899.956 381.618C899.687 382.46 899.115 383.116 898.24 383.587C897.365 384.024 896.339 384.31 895.161 384.445C893.983 384.579 892.62 384.647 891.073 384.647C890.972 383.805 890.753 382.83 890.416 381.719C890.08 380.642 889.71 379.7 889.306 378.893C890.282 378.926 891.207 378.943 892.082 378.943C892.957 378.943 893.563 378.943 893.899 378.943C894.202 378.91 894.404 378.859 894.505 378.792C894.639 378.691 894.707 378.489 894.707 378.186V357.341ZM925.95 365.719H932.057C932.057 365.719 932.04 366.005 932.006 366.577C931.973 367.116 931.922 367.587 931.855 367.991C931.619 370.918 931.333 373.341 930.997 375.259C930.694 377.143 930.358 378.657 929.987 379.801C929.617 380.912 929.18 381.736 928.675 382.274C928.137 382.846 927.565 383.25 926.959 383.486C926.387 383.755 925.731 383.957 924.991 384.091C924.385 384.159 923.577 384.192 922.568 384.192C921.558 384.226 920.465 384.226 919.287 384.192C919.253 383.318 919.085 382.359 918.782 381.315C918.513 380.272 918.143 379.364 917.672 378.59C918.58 378.691 919.422 378.758 920.196 378.792C921.003 378.825 921.609 378.842 922.013 378.842C922.416 378.842 922.736 378.809 922.972 378.741C923.207 378.64 923.443 378.489 923.678 378.287C923.981 377.984 924.267 377.412 924.536 376.571C924.805 375.696 925.058 374.434 925.293 372.785C925.529 371.137 925.748 369.034 925.95 366.476V365.719ZM915.249 361.177H921.256C921.02 363.768 920.667 366.241 920.196 368.596C919.758 370.918 919.018 373.088 917.975 375.107C916.932 377.126 915.468 378.96 913.584 380.609C911.733 382.258 909.31 383.671 906.315 384.849C905.979 384.142 905.474 383.318 904.801 382.375C904.128 381.467 903.472 380.727 902.833 380.155C905.457 379.212 907.544 378.085 909.091 376.773C910.673 375.427 911.868 373.946 912.675 372.331C913.516 370.716 914.105 368.966 914.442 367.082C914.812 365.198 915.081 363.229 915.249 361.177ZM888.347 350.224L892.132 346.338C893.512 346.842 894.976 347.448 896.524 348.155C898.105 348.861 899.603 349.585 901.016 350.325C902.463 351.065 903.674 351.789 904.65 352.495L900.562 356.836C899.687 356.129 898.559 355.389 897.18 354.615C895.8 353.808 894.32 353.017 892.738 352.243C891.19 351.469 889.727 350.796 888.347 350.224ZM903.792 355.17H904.549L905.356 354.918L909.041 356.079C908.637 358.367 908.116 360.722 907.476 363.145C906.871 365.568 906.231 367.637 905.558 369.353L901.47 367.435C901.941 365.955 902.379 364.155 902.782 362.035C903.22 359.915 903.556 357.913 903.792 356.028V355.17ZM923.981 345.025L930.29 345.984C929.18 349.08 927.615 351.738 925.596 353.959C923.611 356.146 921.256 357.963 918.53 359.41C915.804 360.857 912.776 362.052 909.445 362.994C909.243 362.556 908.906 362.018 908.435 361.379C907.998 360.739 907.527 360.117 907.022 359.511C906.551 358.872 906.114 358.367 905.71 357.997C908.805 357.358 911.581 356.483 914.038 355.372C916.528 354.262 918.614 352.865 920.297 351.183C922.013 349.467 923.241 347.414 923.981 345.025ZM913.937 337.353L919.539 338.968C918.732 340.752 917.756 342.502 916.612 344.218C915.468 345.934 914.257 347.549 912.978 349.063C911.733 350.544 910.454 351.822 909.142 352.899C908.772 352.563 908.284 352.192 907.678 351.789C907.073 351.351 906.467 350.931 905.861 350.527C905.256 350.123 904.717 349.787 904.246 349.517C906.231 348.104 908.082 346.321 909.798 344.167C911.514 341.98 912.894 339.709 913.937 337.353ZM914.593 346.338C915.771 348.222 917.302 349.938 919.186 351.486C921.104 353.034 923.308 354.363 925.798 355.473C928.322 356.55 931.047 357.374 933.975 357.946C933.571 358.317 933.117 358.821 932.612 359.461C932.141 360.066 931.687 360.689 931.249 361.328C930.812 361.967 930.442 362.539 930.139 363.044C927.043 362.27 924.2 361.177 921.609 359.763C919.052 358.35 916.747 356.651 914.694 354.666C912.675 352.68 910.976 350.426 909.596 347.902L914.593 346.338ZM894.151 356.987L898.038 358.451C897.399 360.672 896.591 362.943 895.615 365.265C894.673 367.587 893.596 369.74 892.385 371.726C891.174 373.711 889.844 375.376 888.397 376.722C888.128 375.848 887.708 374.855 887.136 373.744C886.597 372.634 886.093 371.675 885.621 370.868C886.833 369.791 887.977 368.495 889.054 366.981C890.164 365.467 891.157 363.852 892.032 362.136C892.906 360.386 893.613 358.67 894.151 356.987ZM913.785 342.552H932.662V347.549H911.363L913.785 342.552ZM902.278 339.726H903.539L904.498 339.524L908.334 341.896C907.594 343.107 906.686 344.352 905.609 345.631C904.532 346.91 903.371 348.121 902.126 349.265C900.915 350.375 899.703 351.351 898.492 352.192C897.954 351.688 897.298 351.166 896.524 350.628C895.783 350.089 895.11 349.635 894.505 349.265C895.582 348.525 896.608 347.667 897.584 346.691C898.593 345.681 899.502 344.655 900.309 343.612C901.15 342.569 901.807 341.627 902.278 340.785V339.726Z"/>
</mask>
<path d="M751.06 343.461L780.334 341.795L780.789 346.136L751.514 347.953L751.06 343.461ZM756.562 337.404H762.215C762.45 339.322 762.988 341.088 763.83 342.703C764.671 344.319 765.697 345.715 766.909 346.893C768.12 348.037 769.415 348.928 770.795 349.568C772.208 350.207 773.605 350.527 774.984 350.527C775.691 350.527 776.162 350.291 776.397 349.82C776.633 349.315 776.818 348.407 776.953 347.095C777.525 347.532 778.231 347.953 779.073 348.356C779.914 348.727 780.688 349.013 781.394 349.215C781.159 351.032 780.772 352.428 780.233 353.404C779.729 354.346 779.022 354.985 778.114 355.322C777.239 355.658 776.128 355.826 774.782 355.826C773.033 355.826 771.317 355.54 769.634 354.968C767.952 354.396 766.387 353.589 764.94 352.546C763.493 351.469 762.181 350.19 761.003 348.71C759.825 347.196 758.85 345.496 758.076 343.612C757.335 341.728 756.831 339.658 756.562 337.404ZM765.445 340.18L768.17 337.252C769.113 337.421 770.122 337.673 771.199 338.009C772.309 338.312 773.369 338.649 774.379 339.019C775.388 339.355 776.229 339.709 776.902 340.079L774.025 343.309C773.42 342.973 772.612 342.619 771.603 342.249C770.627 341.845 769.6 341.458 768.524 341.088C767.447 340.718 766.421 340.415 765.445 340.18ZM748.385 337L753.836 339.12C752.557 340.735 751.043 342.317 749.293 343.864C747.544 345.412 745.727 346.859 743.842 348.205C741.958 349.517 740.107 350.645 738.29 351.587C737.987 351.183 737.567 350.712 737.028 350.174C736.524 349.635 736.002 349.097 735.464 348.558C734.925 347.986 734.437 347.549 734 347.246C735.851 346.438 737.668 345.513 739.451 344.47C741.234 343.393 742.9 342.232 744.448 340.987C745.996 339.709 747.308 338.38 748.385 337ZM743.741 345.126L747.527 341.29L749.546 341.845V354.464H743.741V345.126ZM747.577 364.912V367.032H769.483V364.912H747.577ZM747.577 370.464V372.685H769.483V370.464H747.577ZM747.577 359.309V361.479H769.483V359.309H747.577ZM741.722 355.726H775.64V376.268H741.722V355.726ZM761.104 378.943L766.151 376.066C767.968 376.706 769.802 377.395 771.653 378.136C773.537 378.842 775.321 379.566 777.003 380.306C778.719 381.013 780.166 381.652 781.344 382.224L774.278 384.95C773.335 384.411 772.158 383.789 770.744 383.082C769.331 382.375 767.8 381.652 766.151 380.912C764.536 380.205 762.854 379.549 761.104 378.943ZM749.95 375.864L755.451 378.388C754.105 379.263 752.524 380.121 750.707 380.962C748.89 381.803 747.022 382.56 745.104 383.233C743.186 383.94 741.369 384.529 739.653 385C739.283 384.596 738.829 384.108 738.29 383.536C737.785 382.998 737.247 382.443 736.675 381.871C736.103 381.332 735.598 380.895 735.161 380.558C736.944 380.222 738.744 379.818 740.562 379.347C742.412 378.876 744.145 378.338 745.76 377.732C747.409 377.126 748.805 376.504 749.95 375.864Z" fill="#003396"/>
<path d="M816.625 355.372H822.379V357.896C822.379 359.713 822.261 361.749 822.025 364.003C821.823 366.224 821.386 368.563 820.713 371.019C820.04 373.442 819.014 375.848 817.634 378.237C816.254 380.626 814.404 382.88 812.082 385C811.746 384.563 811.308 384.075 810.77 383.536C810.265 383.032 809.71 382.527 809.104 382.022C808.532 381.551 807.994 381.164 807.489 380.861C809.609 379.044 811.274 377.126 812.486 375.107C813.731 373.055 814.639 371.002 815.211 368.95C815.783 366.863 816.154 364.861 816.322 362.943C816.524 361.025 816.625 359.292 816.625 357.744V355.372ZM821.975 361.479C822.513 364.104 823.253 366.611 824.196 369C825.138 371.355 826.332 373.458 827.779 375.309C829.226 377.126 830.976 378.556 833.028 379.599C832.557 380.003 832.069 380.491 831.565 381.063C831.06 381.669 830.572 382.291 830.101 382.931C829.63 383.57 829.243 384.176 828.94 384.748C826.719 383.334 824.835 381.517 823.287 379.297C821.773 377.076 820.528 374.535 819.552 371.675C818.576 368.781 817.769 365.669 817.129 362.338L821.975 361.479ZM785.685 341.492H809.356V346.438H785.685V341.492ZM784.978 363.498H809.962V368.445H784.978V363.498ZM786.946 348.962H808.246V353.858H786.946V348.962ZM787.249 356.23H807.943V361.126H787.249V356.23ZM794.77 337.757H800.423V352.192H794.77V337.757ZM788.208 369.404L793.155 370.565C792.65 372.415 792.027 374.333 791.287 376.319C790.547 378.27 789.823 379.936 789.117 381.315C788.578 380.979 787.821 380.609 786.845 380.205C785.903 379.801 785.113 379.498 784.473 379.297C785.213 377.984 785.92 376.436 786.593 374.653C787.266 372.836 787.804 371.086 788.208 369.404ZM801.886 371.069L806.379 369.303C806.816 370.144 807.237 371.036 807.64 371.978C808.078 372.886 808.482 373.795 808.852 374.703C809.222 375.612 809.491 376.42 809.659 377.126L804.915 379.145C804.747 378.438 804.494 377.631 804.158 376.722C803.821 375.78 803.451 374.821 803.047 373.845C802.677 372.836 802.29 371.911 801.886 371.069ZM813.899 346.539H828.132V352.041H813.899V346.539ZM812.94 337.505L818.845 338.312C818.442 341.374 817.903 344.369 817.23 347.297C816.591 350.19 815.817 352.899 814.909 355.423C814 357.913 812.957 360.117 811.779 362.035C811.443 361.698 810.972 361.294 810.366 360.823C809.76 360.352 809.138 359.898 808.498 359.461C807.859 358.989 807.304 358.619 806.833 358.35C807.977 356.735 808.936 354.817 809.71 352.596C810.517 350.375 811.174 347.986 811.678 345.429C812.217 342.838 812.637 340.197 812.94 337.505ZM826.568 346.539H827.426L828.385 346.338L832.524 347.448C832.221 349.13 831.851 350.846 831.413 352.596C831.009 354.346 830.572 356.028 830.101 357.644C829.664 359.259 829.226 360.672 828.789 361.883L823.893 360.42C824.229 359.309 824.566 358.014 824.902 356.533C825.239 355.053 825.542 353.538 825.811 351.991C826.114 350.409 826.366 348.895 826.568 347.448V346.539ZM794.82 365.517H800.524V384.798H794.82V365.517Z" fill="#003396"/>
<path d="M836.814 368.293H881.836V373.29H836.814V368.293ZM836.965 345.681H881.685V350.426H836.965V345.681ZM839.035 354.868H879.716V359.461H839.035V354.868ZM841.508 361.732H877.394V366.073H841.508V361.732ZM856.145 357.088H862.151V384.849H856.145V357.088ZM851.855 337.353H857.508V348.054H851.855V337.353ZM861.192 337.353H866.946V347.7H861.192V337.353ZM872.852 337.808L879.161 339.322C878.353 340.701 877.546 342.047 876.738 343.36C875.931 344.638 875.19 345.732 874.517 346.64L869.621 345.126C870.025 344.453 870.429 343.696 870.833 342.855C871.237 341.98 871.607 341.105 871.943 340.23C872.313 339.322 872.616 338.514 872.852 337.808ZM866.644 350.022L873.054 351.637C872.313 352.512 871.59 353.303 870.883 354.009C870.21 354.682 869.571 355.288 868.965 355.826L863.817 354.312C864.322 353.673 864.827 352.95 865.331 352.142C865.87 351.334 866.307 350.628 866.644 350.022ZM840.65 339.423L845.849 337.656C846.589 338.699 847.329 339.911 848.069 341.29C848.81 342.636 849.348 343.797 849.685 344.773L844.183 346.792C843.914 345.782 843.426 344.588 842.719 343.208C842.046 341.829 841.356 340.567 840.65 339.423ZM846.505 351.183L852.208 349.921C852.646 350.56 853.083 351.284 853.521 352.091C853.992 352.899 854.345 353.623 854.58 354.262L848.625 355.675C848.456 355.069 848.154 354.346 847.716 353.505C847.312 352.63 846.909 351.856 846.505 351.183ZM850.644 374.956L854.934 376.924C853.823 377.866 852.427 378.775 850.744 379.65C849.096 380.525 847.363 381.299 845.546 381.972C843.729 382.678 841.945 383.233 840.196 383.637C839.825 382.998 839.287 382.241 838.58 381.366C837.874 380.491 837.218 379.801 836.612 379.297C838.294 379.027 840.027 378.674 841.811 378.237C843.594 377.799 845.26 377.294 846.808 376.722C848.355 376.15 849.634 375.562 850.644 374.956ZM864.322 377.479L868.36 374.603C869.739 375.141 871.253 375.747 872.902 376.42C874.585 377.093 876.2 377.782 877.748 378.489C879.329 379.162 880.658 379.784 881.735 380.356L877.445 383.637C876.469 383.099 875.224 382.46 873.71 381.719C872.196 380.979 870.597 380.239 868.915 379.498C867.266 378.758 865.735 378.085 864.322 377.479Z" fill="#003396"/>
<path d="M887.186 339.726H903.691V344.823H887.186V339.726ZM907.375 365.719H927.868V370.716H907.375V365.719ZM886.479 355.17H905.256V360.42H886.479V355.17ZM894.707 357.341H900.41V378.287C900.41 379.667 900.259 380.777 899.956 381.618C899.687 382.46 899.115 383.116 898.24 383.587C897.365 384.024 896.339 384.31 895.161 384.445C893.983 384.579 892.62 384.647 891.073 384.647C890.972 383.805 890.753 382.83 890.416 381.719C890.08 380.642 889.71 379.7 889.306 378.893C890.282 378.926 891.207 378.943 892.082 378.943C892.957 378.943 893.563 378.943 893.899 378.943C894.202 378.91 894.404 378.859 894.505 378.792C894.639 378.691 894.707 378.489 894.707 378.186V357.341ZM925.95 365.719H932.057C932.057 365.719 932.04 366.005 932.006 366.577C931.973 367.116 931.922 367.587 931.855 367.991C931.619 370.918 931.333 373.341 930.997 375.259C930.694 377.143 930.358 378.657 929.987 379.801C929.617 380.912 929.18 381.736 928.675 382.274C928.137 382.846 927.565 383.25 926.959 383.486C926.387 383.755 925.731 383.957 924.991 384.091C924.385 384.159 923.577 384.192 922.568 384.192C921.558 384.226 920.465 384.226 919.287 384.192C919.253 383.318 919.085 382.359 918.782 381.315C918.513 380.272 918.143 379.364 917.672 378.59C918.58 378.691 919.422 378.758 920.196 378.792C921.003 378.825 921.609 378.842 922.013 378.842C922.416 378.842 922.736 378.809 922.972 378.741C923.207 378.64 923.443 378.489 923.678 378.287C923.981 377.984 924.267 377.412 924.536 376.571C924.805 375.696 925.058 374.434 925.293 372.785C925.529 371.137 925.748 369.034 925.95 366.476V365.719ZM915.249 361.177H921.256C921.02 363.768 920.667 366.241 920.196 368.596C919.758 370.918 919.018 373.088 917.975 375.107C916.932 377.126 915.468 378.96 913.584 380.609C911.733 382.258 909.31 383.671 906.315 384.849C905.979 384.142 905.474 383.318 904.801 382.375C904.128 381.467 903.472 380.727 902.833 380.155C905.457 379.212 907.544 378.085 909.091 376.773C910.673 375.427 911.868 373.946 912.675 372.331C913.516 370.716 914.105 368.966 914.442 367.082C914.812 365.198 915.081 363.229 915.249 361.177ZM888.347 350.224L892.132 346.338C893.512 346.842 894.976 347.448 896.524 348.155C898.105 348.861 899.603 349.585 901.016 350.325C902.463 351.065 903.674 351.789 904.65 352.495L900.562 356.836C899.687 356.129 898.559 355.389 897.18 354.615C895.8 353.808 894.32 353.017 892.738 352.243C891.19 351.469 889.727 350.796 888.347 350.224ZM903.792 355.17H904.549L905.356 354.918L909.041 356.079C908.637 358.367 908.116 360.722 907.476 363.145C906.871 365.568 906.231 367.637 905.558 369.353L901.47 367.435C901.941 365.955 902.379 364.155 902.782 362.035C903.22 359.915 903.556 357.913 903.792 356.028V355.17ZM923.981 345.025L930.29 345.984C929.18 349.08 927.615 351.738 925.596 353.959C923.611 356.146 921.256 357.963 918.53 359.41C915.804 360.857 912.776 362.052 909.445 362.994C909.243 362.556 908.906 362.018 908.435 361.379C907.998 360.739 907.527 360.117 907.022 359.511C906.551 358.872 906.114 358.367 905.71 357.997C908.805 357.358 911.581 356.483 914.038 355.372C916.528 354.262 918.614 352.865 920.297 351.183C922.013 349.467 923.241 347.414 923.981 345.025ZM913.937 337.353L919.539 338.968C918.732 340.752 917.756 342.502 916.612 344.218C915.468 345.934 914.257 347.549 912.978 349.063C911.733 350.544 910.454 351.822 909.142 352.899C908.772 352.563 908.284 352.192 907.678 351.789C907.073 351.351 906.467 350.931 905.861 350.527C905.256 350.123 904.717 349.787 904.246 349.517C906.231 348.104 908.082 346.321 909.798 344.167C911.514 341.98 912.894 339.709 913.937 337.353ZM914.593 346.338C915.771 348.222 917.302 349.938 919.186 351.486C921.104 353.034 923.308 354.363 925.798 355.473C928.322 356.55 931.047 357.374 933.975 357.946C933.571 358.317 933.117 358.821 932.612 359.461C932.141 360.066 931.687 360.689 931.249 361.328C930.812 361.967 930.442 362.539 930.139 363.044C927.043 362.27 924.2 361.177 921.609 359.763C919.052 358.35 916.747 356.651 914.694 354.666C912.675 352.68 910.976 350.426 909.596 347.902L914.593 346.338ZM894.151 356.987L898.038 358.451C897.399 360.672 896.591 362.943 895.615 365.265C894.673 367.587 893.596 369.74 892.385 371.726C891.174 373.711 889.844 375.376 888.397 376.722C888.128 375.848 887.708 374.855 887.136 373.744C886.597 372.634 886.093 371.675 885.621 370.868C886.833 369.791 887.977 368.495 889.054 366.981C890.164 365.467 891.157 363.852 892.032 362.136C892.906 360.386 893.613 358.67 894.151 356.987ZM913.785 342.552H932.662V347.549H911.363L913.785 342.552ZM902.278 339.726H903.539L904.498 339.524L908.334 341.896C907.594 343.107 906.686 344.352 905.609 345.631C904.532 346.91 903.371 348.121 902.126 349.265C900.915 350.375 899.703 351.351 898.492 352.192C897.954 351.688 897.298 351.166 896.524 350.628C895.783 350.089 895.11 349.635 894.505 349.265C895.582 348.525 896.608 347.667 897.584 346.691C898.593 345.681 899.502 344.655 900.309 343.612C901.15 342.569 901.807 341.627 902.278 340.785V339.726Z" fill="#003396"/>
<path d="M751.06 343.461L780.334 341.795L780.789 346.136L751.514 347.953L751.06 343.461ZM756.562 337.404H762.215C762.45 339.322 762.988 341.088 763.83 342.703C764.671 344.319 765.697 345.715 766.909 346.893C768.12 348.037 769.415 348.928 770.795 349.568C772.208 350.207 773.605 350.527 774.984 350.527C775.691 350.527 776.162 350.291 776.397 349.82C776.633 349.315 776.818 348.407 776.953 347.095C777.525 347.532 778.231 347.953 779.073 348.356C779.914 348.727 780.688 349.013 781.394 349.215C781.159 351.032 780.772 352.428 780.233 353.404C779.729 354.346 779.022 354.985 778.114 355.322C777.239 355.658 776.128 355.826 774.782 355.826C773.033 355.826 771.317 355.54 769.634 354.968C767.952 354.396 766.387 353.589 764.94 352.546C763.493 351.469 762.181 350.19 761.003 348.71C759.825 347.196 758.85 345.496 758.076 343.612C757.335 341.728 756.831 339.658 756.562 337.404ZM765.445 340.18L768.17 337.252C769.113 337.421 770.122 337.673 771.199 338.009C772.309 338.312 773.369 338.649 774.379 339.019C775.388 339.355 776.229 339.709 776.902 340.079L774.025 343.309C773.42 342.973 772.612 342.619 771.603 342.249C770.627 341.845 769.6 341.458 768.524 341.088C767.447 340.718 766.421 340.415 765.445 340.18ZM748.385 337L753.836 339.12C752.557 340.735 751.043 342.317 749.293 343.864C747.544 345.412 745.727 346.859 743.842 348.205C741.958 349.517 740.107 350.645 738.29 351.587C737.987 351.183 737.567 350.712 737.028 350.174C736.524 349.635 736.002 349.097 735.464 348.558C734.925 347.986 734.437 347.549 734 347.246C735.851 346.438 737.668 345.513 739.451 344.47C741.234 343.393 742.9 342.232 744.448 340.987C745.996 339.709 747.308 338.38 748.385 337ZM743.741 345.126L747.527 341.29L749.546 341.845V354.464H743.741V345.126ZM747.577 364.912V367.032H769.483V364.912H747.577ZM747.577 370.464V372.685H769.483V370.464H747.577ZM747.577 359.309V361.479H769.483V359.309H747.577ZM741.722 355.726H775.64V376.268H741.722V355.726ZM761.104 378.943L766.151 376.066C767.968 376.706 769.802 377.395 771.653 378.136C773.537 378.842 775.321 379.566 777.003 380.306C778.719 381.013 780.166 381.652 781.344 382.224L774.278 384.95C773.335 384.411 772.158 383.789 770.744 383.082C769.331 382.375 767.8 381.652 766.151 380.912C764.536 380.205 762.854 379.549 761.104 378.943ZM749.95 375.864L755.451 378.388C754.105 379.263 752.524 380.121 750.707 380.962C748.89 381.803 747.022 382.56 745.104 383.233C743.186 383.94 741.369 384.529 739.653 385C739.283 384.596 738.829 384.108 738.29 383.536C737.785 382.998 737.247 382.443 736.675 381.871C736.103 381.332 735.598 380.895 735.161 380.558C736.944 380.222 738.744 379.818 740.562 379.347C742.412 378.876 744.145 378.338 745.76 377.732C747.409 377.126 748.805 376.504 749.95 375.864Z" stroke="white" stroke-width="10" stroke-linejoin="round" mask="url(#path-21-outside-1_1270_20956)"/>
<path d="M816.625 355.372H822.379V357.896C822.379 359.713 822.261 361.749 822.025 364.003C821.823 366.224 821.386 368.563 820.713 371.019C820.04 373.442 819.014 375.848 817.634 378.237C816.254 380.626 814.404 382.88 812.082 385C811.746 384.563 811.308 384.075 810.77 383.536C810.265 383.032 809.71 382.527 809.104 382.022C808.532 381.551 807.994 381.164 807.489 380.861C809.609 379.044 811.274 377.126 812.486 375.107C813.731 373.055 814.639 371.002 815.211 368.95C815.783 366.863 816.154 364.861 816.322 362.943C816.524 361.025 816.625 359.292 816.625 357.744V355.372ZM821.975 361.479C822.513 364.104 823.253 366.611 824.196 369C825.138 371.355 826.332 373.458 827.779 375.309C829.226 377.126 830.976 378.556 833.028 379.599C832.557 380.003 832.069 380.491 831.565 381.063C831.06 381.669 830.572 382.291 830.101 382.931C829.63 383.57 829.243 384.176 828.94 384.748C826.719 383.334 824.835 381.517 823.287 379.297C821.773 377.076 820.528 374.535 819.552 371.675C818.576 368.781 817.769 365.669 817.129 362.338L821.975 361.479ZM785.685 341.492H809.356V346.438H785.685V341.492ZM784.978 363.498H809.962V368.445H784.978V363.498ZM786.946 348.962H808.246V353.858H786.946V348.962ZM787.249 356.23H807.943V361.126H787.249V356.23ZM794.77 337.757H800.423V352.192H794.77V337.757ZM788.208 369.404L793.155 370.565C792.65 372.415 792.027 374.333 791.287 376.319C790.547 378.27 789.823 379.936 789.117 381.315C788.578 380.979 787.821 380.609 786.845 380.205C785.903 379.801 785.113 379.498 784.473 379.297C785.213 377.984 785.92 376.436 786.593 374.653C787.266 372.836 787.804 371.086 788.208 369.404ZM801.886 371.069L806.379 369.303C806.816 370.144 807.237 371.036 807.64 371.978C808.078 372.886 808.482 373.795 808.852 374.703C809.222 375.612 809.491 376.42 809.659 377.126L804.915 379.145C804.747 378.438 804.494 377.631 804.158 376.722C803.821 375.78 803.451 374.821 803.047 373.845C802.677 372.836 802.29 371.911 801.886 371.069ZM813.899 346.539H828.132V352.041H813.899V346.539ZM812.94 337.505L818.845 338.312C818.442 341.374 817.903 344.369 817.23 347.297C816.591 350.19 815.817 352.899 814.909 355.423C814 357.913 812.957 360.117 811.779 362.035C811.443 361.698 810.972 361.294 810.366 360.823C809.76 360.352 809.138 359.898 808.498 359.461C807.859 358.989 807.304 358.619 806.833 358.35C807.977 356.735 808.936 354.817 809.71 352.596C810.517 350.375 811.174 347.986 811.678 345.429C812.217 342.838 812.637 340.197 812.94 337.505ZM826.568 346.539H827.426L828.385 346.338L832.524 347.448C832.221 349.13 831.851 350.846 831.413 352.596C831.009 354.346 830.572 356.028 830.101 357.644C829.664 359.259 829.226 360.672 828.789 361.883L823.893 360.42C824.229 359.309 824.566 358.014 824.902 356.533C825.239 355.053 825.542 353.538 825.811 351.991C826.114 350.409 826.366 348.895 826.568 347.448V346.539ZM794.82 365.517H800.524V384.798H794.82V365.517Z" stroke="white" stroke-width="10" stroke-linejoin="round" mask="url(#path-21-outside-1_1270_20956)"/>
<path d="M836.814 368.293H881.836V373.29H836.814V368.293ZM836.965 345.681H881.685V350.426H836.965V345.681ZM839.035 354.868H879.716V359.461H839.035V354.868ZM841.508 361.732H877.394V366.073H841.508V361.732ZM856.145 357.088H862.151V384.849H856.145V357.088ZM851.855 337.353H857.508V348.054H851.855V337.353ZM861.192 337.353H866.946V347.7H861.192V337.353ZM872.852 337.808L879.161 339.322C878.353 340.701 877.546 342.047 876.738 343.36C875.931 344.638 875.19 345.732 874.517 346.64L869.621 345.126C870.025 344.453 870.429 343.696 870.833 342.855C871.237 341.98 871.607 341.105 871.943 340.23C872.313 339.322 872.616 338.514 872.852 337.808ZM866.644 350.022L873.054 351.637C872.313 352.512 871.59 353.303 870.883 354.009C870.21 354.682 869.571 355.288 868.965 355.826L863.817 354.312C864.322 353.673 864.827 352.95 865.331 352.142C865.87 351.334 866.307 350.628 866.644 350.022ZM840.65 339.423L845.849 337.656C846.589 338.699 847.329 339.911 848.069 341.29C848.81 342.636 849.348 343.797 849.685 344.773L844.183 346.792C843.914 345.782 843.426 344.588 842.719 343.208C842.046 341.829 841.356 340.567 840.65 339.423ZM846.505 351.183L852.208 349.921C852.646 350.56 853.083 351.284 853.521 352.091C853.992 352.899 854.345 353.623 854.58 354.262L848.625 355.675C848.456 355.069 848.154 354.346 847.716 353.505C847.312 352.63 846.909 351.856 846.505 351.183ZM850.644 374.956L854.934 376.924C853.823 377.866 852.427 378.775 850.744 379.65C849.096 380.525 847.363 381.299 845.546 381.972C843.729 382.678 841.945 383.233 840.196 383.637C839.825 382.998 839.287 382.241 838.58 381.366C837.874 380.491 837.218 379.801 836.612 379.297C838.294 379.027 840.027 378.674 841.811 378.237C843.594 377.799 845.26 377.294 846.808 376.722C848.355 376.15 849.634 375.562 850.644 374.956ZM864.322 377.479L868.36 374.603C869.739 375.141 871.253 375.747 872.902 376.42C874.585 377.093 876.2 377.782 877.748 378.489C879.329 379.162 880.658 379.784 881.735 380.356L877.445 383.637C876.469 383.099 875.224 382.46 873.71 381.719C872.196 380.979 870.597 380.239 868.915 379.498C867.266 378.758 865.735 378.085 864.322 377.479Z" stroke="white" stroke-width="10" stroke-linejoin="round" mask="url(#path-21-outside-1_1270_20956)"/>
<path d="M887.186 339.726H903.691V344.823H887.186V339.726ZM907.375 365.719H927.868V370.716H907.375V365.719ZM886.479 355.17H905.256V360.42H886.479V355.17ZM894.707 357.341H900.41V378.287C900.41 379.667 900.259 380.777 899.956 381.618C899.687 382.46 899.115 383.116 898.24 383.587C897.365 384.024 896.339 384.31 895.161 384.445C893.983 384.579 892.62 384.647 891.073 384.647C890.972 383.805 890.753 382.83 890.416 381.719C890.08 380.642 889.71 379.7 889.306 378.893C890.282 378.926 891.207 378.943 892.082 378.943C892.957 378.943 893.563 378.943 893.899 378.943C894.202 378.91 894.404 378.859 894.505 378.792C894.639 378.691 894.707 378.489 894.707 378.186V357.341ZM925.95 365.719H932.057C932.057 365.719 932.04 366.005 932.006 366.577C931.973 367.116 931.922 367.587 931.855 367.991C931.619 370.918 931.333 373.341 930.997 375.259C930.694 377.143 930.358 378.657 929.987 379.801C929.617 380.912 929.18 381.736 928.675 382.274C928.137 382.846 927.565 383.25 926.959 383.486C926.387 383.755 925.731 383.957 924.991 384.091C924.385 384.159 923.577 384.192 922.568 384.192C921.558 384.226 920.465 384.226 919.287 384.192C919.253 383.318 919.085 382.359 918.782 381.315C918.513 380.272 918.143 379.364 917.672 378.59C918.58 378.691 919.422 378.758 920.196 378.792C921.003 378.825 921.609 378.842 922.013 378.842C922.416 378.842 922.736 378.809 922.972 378.741C923.207 378.64 923.443 378.489 923.678 378.287C923.981 377.984 924.267 377.412 924.536 376.571C924.805 375.696 925.058 374.434 925.293 372.785C925.529 371.137 925.748 369.034 925.95 366.476V365.719ZM915.249 361.177H921.256C921.02 363.768 920.667 366.241 920.196 368.596C919.758 370.918 919.018 373.088 917.975 375.107C916.932 377.126 915.468 378.96 913.584 380.609C911.733 382.258 909.31 383.671 906.315 384.849C905.979 384.142 905.474 383.318 904.801 382.375C904.128 381.467 903.472 380.727 902.833 380.155C905.457 379.212 907.544 378.085 909.091 376.773C910.673 375.427 911.868 373.946 912.675 372.331C913.516 370.716 914.105 368.966 914.442 367.082C914.812 365.198 915.081 363.229 915.249 361.177ZM888.347 350.224L892.132 346.338C893.512 346.842 894.976 347.448 896.524 348.155C898.105 348.861 899.603 349.585 901.016 350.325C902.463 351.065 903.674 351.789 904.65 352.495L900.562 356.836C899.687 356.129 898.559 355.389 897.18 354.615C895.8 353.808 894.32 353.017 892.738 352.243C891.19 351.469 889.727 350.796 888.347 350.224ZM903.792 355.17H904.549L905.356 354.918L909.041 356.079C908.637 358.367 908.116 360.722 907.476 363.145C906.871 365.568 906.231 367.637 905.558 369.353L901.47 367.435C901.941 365.955 902.379 364.155 902.782 362.035C903.22 359.915 903.556 357.913 903.792 356.028V355.17ZM923.981 345.025L930.29 345.984C929.18 349.08 927.615 351.738 925.596 353.959C923.611 356.146 921.256 357.963 918.53 359.41C915.804 360.857 912.776 362.052 909.445 362.994C909.243 362.556 908.906 362.018 908.435 361.379C907.998 360.739 907.527 360.117 907.022 359.511C906.551 358.872 906.114 358.367 905.71 357.997C908.805 357.358 911.581 356.483 914.038 355.372C916.528 354.262 918.614 352.865 920.297 351.183C922.013 349.467 923.241 347.414 923.981 345.025ZM913.937 337.353L919.539 338.968C918.732 340.752 917.756 342.502 916.612 344.218C915.468 345.934 914.257 347.549 912.978 349.063C911.733 350.544 910.454 351.822 909.142 352.899C908.772 352.563 908.284 352.192 907.678 351.789C907.073 351.351 906.467 350.931 905.861 350.527C905.256 350.123 904.717 349.787 904.246 349.517C906.231 348.104 908.082 346.321 909.798 344.167C911.514 341.98 912.894 339.709 913.937 337.353ZM914.593 346.338C915.771 348.222 917.302 349.938 919.186 351.486C921.104 353.034 923.308 354.363 925.798 355.473C928.322 356.55 931.047 357.374 933.975 357.946C933.571 358.317 933.117 358.821 932.612 359.461C932.141 360.066 931.687 360.689 931.249 361.328C930.812 361.967 930.442 362.539 930.139 363.044C927.043 362.27 924.2 361.177 921.609 359.763C919.052 358.35 916.747 356.651 914.694 354.666C912.675 352.68 910.976 350.426 909.596 347.902L914.593 346.338ZM894.151 356.987L898.038 358.451C897.399 360.672 896.591 362.943 895.615 365.265C894.673 367.587 893.596 369.74 892.385 371.726C891.174 373.711 889.844 375.376 888.397 376.722C888.128 375.848 887.708 374.855 887.136 373.744C886.597 372.634 886.093 371.675 885.621 370.868C886.833 369.791 887.977 368.495 889.054 366.981C890.164 365.467 891.157 363.852 892.032 362.136C892.906 360.386 893.613 358.67 894.151 356.987ZM913.785 342.552H932.662V347.549H911.363L913.785 342.552ZM902.278 339.726H903.539L904.498 339.524L908.334 341.896C907.594 343.107 906.686 344.352 905.609 345.631C904.532 346.91 903.371 348.121 902.126 349.265C900.915 350.375 899.703 351.351 898.492 352.192C897.954 351.688 897.298 351.166 896.524 350.628C895.783 350.089 895.11 349.635 894.505 349.265C895.582 348.525 896.608 347.667 897.584 346.691C898.593 345.681 899.502 344.655 900.309 343.612C901.15 342.569 901.807 341.627 902.278 340.785V339.726Z" stroke="white" stroke-width="10" stroke-linejoin="round" mask="url(#path-21-outside-1_1270_20956)"/>
</g>
<path d="M743.772 418.952L760.096 418L760.32 419.96L743.968 420.968L743.772 418.952ZM747.244 415.368H749.736C750.324 419.82 754.384 422.956 757.548 422.928C758.332 422.9 758.528 422.424 758.64 420.884C759.172 421.304 759.984 421.668 760.628 421.864C760.292 424.636 759.452 425.252 757.464 425.252C752.928 425.224 747.972 421.304 747.244 415.368ZM751.976 416.656L753.208 415.34C754.832 415.62 756.96 416.348 758.108 416.936L756.792 418.42C755.728 417.832 753.628 417.076 751.976 416.656ZM742.904 415.2L745.284 416.124C743.1 418.784 739.656 421.276 736.66 422.816C736.24 422.34 735.316 421.36 734.756 420.94C737.808 419.624 741 417.496 742.904 415.2ZM740.16 419.344L741.924 417.608L742.708 417.832V424.664H740.16V419.344ZM741.532 430.264V431.86H754.776V430.264H741.532ZM741.532 433.456V435.108H754.776V433.456H741.532ZM741.532 427.072V428.668H754.776V427.072H741.532ZM738.956 425.42H757.464V436.76H738.956V425.42ZM749.988 438.216L752.172 436.928C755.196 437.908 758.612 439.224 760.628 440.176L757.604 441.436C755.924 440.512 752.956 439.252 749.988 438.216ZM743.576 436.844L745.984 437.936C743.716 439.336 740.132 440.68 737.304 441.464C736.856 440.932 735.932 439.952 735.344 439.504C738.256 438.916 741.616 437.936 743.576 436.844ZM780.676 424.832H783.196V426.204C783.196 430.376 782.72 436.648 777.456 441.436C777.008 440.848 776.084 440.036 775.44 439.644C780.284 435.36 780.676 429.844 780.676 426.148V424.832ZM783 428.248C783.896 433.036 785.856 437.292 789.3 439.112C788.712 439.616 787.872 440.624 787.508 441.324C783.812 439.056 781.908 434.296 780.872 428.64L783 428.248ZM763.316 417.86H776.336V420.044H763.316V417.86ZM762.98 429.956H776.644V432.14H762.98V429.956ZM763.988 422.032H775.748V424.216H763.988V422.032ZM764.24 425.98H775.496V428.164H764.24V425.98ZM768.608 415.508H771.1V423.46H768.608V415.508ZM765.08 432.924L767.264 433.456C766.62 435.528 765.64 437.908 764.8 439.448C764.296 439.14 763.288 438.692 762.728 438.496C763.624 437.012 764.52 434.856 765.08 432.924ZM772.36 433.68L774.348 432.896C775.104 434.268 775.972 436.144 776.364 437.264L774.264 438.188C773.928 437.04 773.088 435.108 772.36 433.68ZM778.744 420.436H786.948V422.872H778.744V420.436ZM778.576 415.396L781.152 415.76C780.48 420.716 779.22 425.476 777.344 428.556C776.868 428.108 775.776 427.324 775.16 426.96C777.008 424.244 778.044 419.876 778.576 415.396ZM786.276 420.436H786.668L787.088 420.352L788.88 420.856C788.348 423.488 787.536 426.54 786.808 428.472L784.652 427.828C785.24 426.064 785.912 423.152 786.276 420.884V420.436ZM768.636 430.824H771.128V441.352H768.636V430.824ZM799.688 428.92H809.236V437.404H799.688V435.22H806.744V431.132H799.688V428.92ZM798.54 428.92H801.004V439.056H798.54V428.92ZM793.696 420.576H801.144V422.452H793.696V420.576ZM806.632 420.576H814.192V422.452H806.632V420.576ZM813.044 416.516H815.732V438.02C815.732 439.644 815.368 440.428 814.36 440.876C813.296 441.324 811.616 441.352 809.096 441.352C809.012 440.624 808.564 439.364 808.172 438.664C809.936 438.748 811.812 438.72 812.344 438.692C812.876 438.692 813.044 438.524 813.044 437.992V416.516ZM793.892 416.516H802.824V426.652H793.892V424.58H800.332V418.588H793.892V416.516ZM814.472 416.516V418.588H807.584V424.636H814.472V426.68H805.064V416.516H814.472ZM792.408 416.516H795.04V441.38H792.408V416.516ZM823.096 421.892V423.656H827.912V421.892H823.096ZM823.096 418.364V420.128H827.912V418.364H823.096ZM820.744 416.516H830.376V425.532H820.744V416.516ZM819.232 427.408H831.86V429.396H819.232V427.408ZM831.72 416.656H844.544V418.588H831.72V416.656ZM824.664 428.024H826.904V438.944L824.664 437.628V428.024ZM825.84 432.084H831.356V434.044H825.84V432.084ZM837.208 417.132L839.644 417.636C839.056 419.148 838.412 420.772 837.88 421.836L835.948 421.36C836.424 420.156 836.928 418.392 837.208 417.132ZM835.08 425.84V427.604H841.072V425.84H835.08ZM835.08 429.368V431.16H841.072V429.368H835.08ZM835.08 422.312V424.076H841.072V422.312H835.08ZM832.7 420.464H843.536V433.036H832.7V420.464ZM834.996 433.4L837.208 434.072C836.004 435.64 833.988 437.236 832.252 438.188C831.86 437.796 831.02 436.984 830.516 436.62C832.224 435.836 833.988 434.632 834.996 433.4ZM820.884 430.74H823.068C822.9 434.884 822.396 439.028 820.352 441.492C820.016 440.932 819.288 440.12 818.756 439.728C820.408 437.712 820.772 434.156 820.884 430.74ZM822.592 433.316C824.412 438.076 828.416 438.636 834.436 438.636C836.004 438.636 843.256 438.636 845.188 438.58C844.824 439.084 844.432 440.12 844.292 440.792H834.436C827.408 440.792 823.18 439.868 820.996 433.848L822.592 433.316ZM838.944 434.268L840.764 433.288C842.332 434.268 844.124 435.808 845.02 436.872L843.116 438.048C842.22 436.928 840.4 435.304 838.944 434.268ZM864.004 427.1L866.664 427.856C863.556 435.472 857.34 439.308 848.884 441.408C848.576 440.792 847.764 439.588 847.26 439.028C855.576 437.348 861.428 433.876 864.004 427.1ZM854.624 422.284L857.228 423.292C855.268 425.728 852.3 428.248 849.808 429.816C849.332 429.284 848.324 428.304 847.708 427.856C850.228 426.54 853 424.384 854.624 422.284ZM856.108 427.24C858.656 433.512 864.256 437.46 872.824 438.804C872.236 439.364 871.536 440.484 871.172 441.212C862.324 439.532 856.78 435.22 853.728 427.968L856.108 427.24ZM847.764 419.12H872.18V421.696H847.764V419.12ZM863.024 423.712L865.096 422.2C867.588 423.908 870.808 426.428 872.348 428.192L870.108 429.928C868.708 428.164 865.572 425.504 863.024 423.712ZM857.48 415.956L860 415.088C860.756 416.236 861.68 417.804 862.044 418.812L859.412 419.82C859.048 418.784 858.236 417.16 857.48 415.956ZM888.252 424.496H897.52V426.904H888.252V424.496ZM888.224 437.628H897.828V439.98H888.224V437.628ZM886.964 429.704H899.284V441.38H896.596V432.056H889.54V441.436H886.964V429.704ZM893.824 416.292C895.504 419.512 898.724 423.012 901.608 424.804C900.992 425.28 900.096 426.26 899.648 426.96C896.736 424.804 893.6 420.856 891.78 417.104L893.824 416.292ZM892.144 415.368L894.608 416.096C892.844 420.548 889.848 424.552 886.04 427.268C885.648 426.736 884.752 425.812 884.192 425.364C887.804 422.984 890.716 419.176 892.144 415.368ZM881.98 426.624L883.968 426.008C884.724 427.912 885.508 430.404 885.816 431.888L883.688 432.616C883.408 431.076 882.708 428.556 881.98 426.624ZM879.376 433.904L881.42 433.512C881.784 435.5 882.12 438.02 882.232 439.728L880.104 440.176C880.048 438.468 879.712 435.864 879.376 433.904ZM876.156 433.596L878.424 433.96C878.172 436.508 877.64 439.28 877.052 441.044C876.548 440.764 875.456 440.428 874.868 440.232C875.54 438.524 875.932 435.948 876.156 433.596ZM875.652 426.148C875.512 425.616 875.12 424.44 874.84 423.796C875.344 423.656 875.848 423.096 876.408 422.228C877.052 421.416 878.984 418.252 880.104 415.2L882.512 416.236C881.084 419.344 879.096 422.564 877.192 424.804V424.86C877.192 424.86 875.652 425.644 875.652 426.148ZM875.652 426.148L875.568 424.272L876.744 423.544L881.672 423.152C881.532 423.796 881.448 424.72 881.42 425.252C876.996 425.7 876.156 425.896 875.652 426.148ZM875.848 432.532C875.708 432 875.288 430.768 874.98 430.096C875.652 429.928 876.268 429.256 877.164 428.248C878.088 427.24 881 423.32 882.82 419.54L885.06 420.94C882.96 424.692 880.16 428.472 877.444 431.188V431.244C877.444 431.244 875.848 432.028 875.848 432.532ZM875.848 432.532L875.736 430.628L876.912 429.844L884.304 428.92C884.22 429.564 884.164 430.516 884.192 430.992C877.444 431.972 876.464 432.224 875.848 432.532ZM882.4 433.344L884.304 432.728C884.92 434.408 885.592 436.564 885.872 437.992L883.856 438.692C883.604 437.264 882.96 435.024 882.4 433.344ZM918.044 426.848H920.76V437.18C920.76 438.216 920.956 438.384 921.964 438.384C922.412 438.384 924.512 438.384 925.128 438.384C926.192 438.384 926.36 437.656 926.472 433.456C927.06 433.932 928.208 434.408 928.936 434.576C928.656 439.504 927.984 440.876 925.352 440.876C924.736 440.876 922.16 440.876 921.572 440.876C918.772 440.876 918.044 440.008 918.044 437.208V426.848ZM903.568 425.224H928.46V427.8H903.568V425.224ZM906.06 417.468H925.996V420.016H906.06V417.468ZM910.4 427.212H913.228C912.78 433.428 911.604 438.552 904.772 441.296C904.464 440.652 903.708 439.672 903.12 439.168C909.28 436.872 910.036 432.448 910.4 427.212ZM946.212 429.116H948.872V437.404C948.872 438.272 949.04 438.412 950.02 438.412C950.468 438.412 952.512 438.412 953.1 438.412C954.052 438.412 954.192 437.88 954.304 434.38C954.864 434.828 956.012 435.248 956.74 435.444C956.46 439.784 955.732 440.932 953.324 440.932C952.736 440.932 950.244 440.932 949.684 440.932C946.884 440.932 946.212 440.092 946.212 437.404V429.116ZM931.624 427.212H956.404V429.788H931.624V427.212ZM936.244 419.484H954.304V422.032H936.244V419.484ZM938.708 429.2H941.48C940.948 434.744 939.548 439.112 932.884 441.52C932.576 440.82 931.82 439.756 931.204 439.224C937.28 437.32 938.26 433.68 938.708 429.2ZM936.524 415.928L939.212 416.46C938.344 419.708 936.888 423.656 934.956 426.148C934.34 425.728 933.276 425.168 932.632 424.916C934.508 422.592 935.88 418.812 936.524 415.928ZM942.656 415.368H945.344V428.024H942.656V415.368ZM963.824 420.66H983.256V423.236H963.824V420.66ZM962.62 428.892H982.22V431.44H962.62V428.892ZM959.484 437.936H984.628V440.512H959.484V437.936ZM970.656 415.368H973.428V439.196H970.656V415.368ZM964.3 415.788L967.016 416.404C965.812 420.744 963.796 424.944 961.584 427.632C961.052 427.184 959.876 426.4 959.204 426.036C961.444 423.6 963.264 419.736 964.3 415.788ZM997.676 434.072L996.92 432.252C999.244 431.412 1000.5 430.012 1000.5 428.108L1000.11 425.588L1001.65 427.884C1001.23 428.332 1000.67 428.5 1000.08 428.5C998.824 428.5 997.732 427.716 997.732 426.288C997.732 424.86 998.852 424.048 1000.14 424.048C1001.88 424.048 1002.8 425.42 1002.8 427.548C1002.8 430.628 1000.84 433.064 997.676 434.072ZM1019.71 430.236H1038.75V432.532H1019.71V430.236ZM1016.02 420.072H1034.44V422.48H1016.02V420.072ZM1024.08 425.168H1036.85V427.464H1024.08V425.168ZM1037.69 430.236H1040.32C1040.32 430.236 1040.29 430.964 1040.24 431.3C1039.73 437.124 1039.23 439.504 1038.33 440.428C1037.74 441.044 1037.16 441.268 1036.26 441.352C1035.53 441.408 1034.16 441.408 1032.7 441.352C1032.68 440.624 1032.37 439.588 1031.95 438.916C1033.29 439.056 1034.55 439.084 1035.11 439.056C1035.59 439.056 1035.87 439.028 1036.15 438.776C1036.76 438.16 1037.27 436.004 1037.69 430.628V430.236ZM1031.58 433.82L1033.4 433.148C1034.24 434.296 1035.08 435.864 1035.39 436.872L1033.46 437.628C1033.15 436.62 1032.34 434.996 1031.58 433.82ZM1019.35 416.348L1021.7 415.424C1022.74 416.516 1023.94 418.084 1024.5 419.148L1022.01 420.212C1021.53 419.148 1020.38 417.524 1019.35 416.348ZM1023.21 434.52L1025.37 434.268C1025.9 436.06 1026.18 438.384 1026.18 439.924L1023.88 440.232C1023.97 438.72 1023.69 436.368 1023.21 434.52ZM1027.38 434.296L1029.43 433.82C1030.13 435.36 1030.8 437.376 1031.02 438.72L1028.84 439.28C1028.67 437.936 1028.03 435.864 1027.38 434.296ZM1019.54 433.764L1021.78 434.492C1021.17 436.872 1020.24 439.504 1018.56 441.24L1016.52 439.784C1018 438.328 1019.04 435.948 1019.54 433.764ZM1027.89 415.34L1030.6 416.012C1028.08 423.936 1023.72 431.384 1016.07 435.724C1015.76 435.08 1015.09 434.044 1014.64 433.456C1021.67 429.676 1025.87 422.536 1027.89 415.34ZM1033.88 420.072H1036.34C1035.95 422.088 1035.45 424.468 1035 426.036L1032.68 425.672C1033.1 424.188 1033.57 421.892 1033.88 420.072ZM1035.87 425.168H1038.33C1037.94 427.156 1037.46 429.536 1037.02 431.076L1034.66 430.796C1035.11 429.256 1035.59 426.988 1035.87 425.168ZM1054.91 415.396L1057.34 415.984C1056.28 418.98 1054.49 421.836 1052.56 423.684C1052.14 423.236 1051.16 422.396 1050.6 422.032C1052.44 420.436 1054.01 417.944 1054.91 415.396ZM1054.85 423.208L1057.26 423.88C1056.34 426.064 1054.8 428.304 1053.28 429.732C1052.86 429.284 1051.88 428.528 1051.32 428.164C1052.78 426.932 1054.1 425.056 1054.85 423.208ZM1054.94 417.86H1066.64V420.128H1054.01L1054.94 417.86ZM1062.72 424.16L1064.85 423.152C1066.25 424.832 1067.68 427.072 1068.32 428.584L1066.08 429.76C1065.46 428.248 1064.04 425.868 1062.72 424.16ZM1065.94 417.86H1066.33L1066.75 417.776L1068.6 418.196C1067.9 419.904 1067.03 421.836 1066.36 423.068L1064.09 422.592C1064.71 421.472 1065.46 419.652 1065.94 418.196V417.86ZM1049.48 415.284L1051.83 416.068C1050.04 419.596 1047.21 423.096 1044.49 425.336C1044.18 424.832 1043.34 423.74 1042.84 423.236C1045.42 421.332 1047.94 418.308 1049.48 415.284ZM1046.9 420.884L1049.39 418.392L1049.45 418.42V431.58H1046.9V420.884ZM1049.22 432.924H1051.88V437.46C1051.88 438.3 1052.19 438.412 1053.96 438.412C1054.77 438.412 1058.66 438.412 1059.75 438.412C1061.21 438.412 1061.46 438.048 1061.6 435.248C1062.19 435.696 1063.31 436.088 1064.04 436.228C1063.7 439.952 1062.89 440.848 1059.92 440.848C1059.16 440.848 1054.52 440.848 1053.76 440.848C1050.15 440.848 1049.22 440.12 1049.22 437.516V432.924ZM1053.56 431.832L1055.58 430.684C1057.09 432.056 1058.8 434.044 1059.56 435.416L1057.34 436.732C1056.67 435.36 1055.02 433.288 1053.56 431.832ZM1063.22 433.344L1065.58 432.42C1066.86 434.436 1068.18 437.068 1068.63 438.832L1066.11 439.84C1065.72 438.104 1064.48 435.388 1063.22 433.344ZM1045.92 432.952L1048.3 433.932C1047.6 435.864 1046.62 438.496 1045.64 440.232L1043.15 439.056C1044.24 437.404 1045.3 434.884 1045.92 432.952ZM1058.97 421.024H1061.52V431.468H1058.97V421.024ZM1083.86 421.864V423.712H1092.43V421.864H1083.86ZM1083.86 418.224V420.072H1092.43V418.224H1083.86ZM1081.42 416.264H1094.98V425.672H1081.42V416.264ZM1080.11 427.38H1096.46V429.564H1080.11V427.38ZM1086.88 428.528H1089.38V439.952L1086.88 438.888V428.528ZM1083.64 433.596C1085.06 438.02 1088.03 438.664 1091.73 438.664C1092.54 438.664 1096.21 438.664 1097.3 438.608C1096.96 439.168 1096.63 440.288 1096.54 440.96H1091.64C1087 440.96 1083.78 439.952 1082.04 434.156L1083.64 433.596ZM1088.65 432.476H1095.03V434.604H1088.65V432.476ZM1081.87 430.684L1084.28 430.964C1083.69 435.556 1082.26 439.084 1079.74 441.352C1079.35 440.932 1078.34 440.12 1077.78 439.756C1080.22 437.824 1081.45 434.688 1081.87 430.684ZM1070.73 429.956C1072.94 429.424 1076.24 428.444 1079.44 427.492L1079.8 429.9C1076.89 430.824 1073.78 431.804 1071.34 432.532L1070.73 429.956ZM1071.01 420.884H1079.72V423.32H1071.01V420.884ZM1074.28 415.396H1076.75V438.188C1076.75 439.504 1076.5 440.204 1075.71 440.596C1074.98 441.016 1073.81 441.1 1072.04 441.1C1071.96 440.456 1071.65 439.364 1071.32 438.664C1072.46 438.692 1073.5 438.692 1073.84 438.664C1074.17 438.664 1074.28 438.552 1074.28 438.16V415.396ZM741.196 450.424L743.688 451.208C741.868 455.968 738.984 460.84 735.932 464.032C735.68 463.388 734.952 461.96 734.504 461.316C737.136 458.684 739.684 454.568 741.196 450.424ZM738.284 457.928L740.86 455.352L740.888 455.38V476.324H738.284V457.928ZM743.436 456.136H760.684V458.684H743.436V456.136ZM742.736 465.012H760.964V467.616H742.736V465.012ZM746.824 450.648H749.4V466.384H746.824V450.648ZM754.272 450.592H756.848V466.412H754.272V450.592ZM747.468 468.988L749.96 469.772C748.588 472.208 746.404 474.7 744.472 476.268C743.996 475.82 742.988 474.98 742.372 474.616C744.332 473.216 746.292 471.088 747.468 468.988ZM753.74 470.192L755.84 469.016C757.716 470.836 759.732 473.272 760.74 474.952L758.5 476.352C757.576 474.644 755.56 472.068 753.74 470.192ZM766.452 451.348H785.604V460.14H782.916V453.28H769.028V460.14H766.452V451.348ZM770.12 454.708H781.824V456.36H770.12V454.708ZM770.12 457.788H781.768V459.524H770.12V457.788ZM763.512 461.064H788.404V463.22H763.512V461.064ZM775.916 464.648H785.632V466.748H775.916V464.648ZM767.404 464.732H774.068V466.636H767.404V464.732ZM767.404 468.204H774.068V470.108H767.404V468.204ZM779.22 466.552C780.844 470.304 784.288 473.16 788.936 474.28C788.376 474.756 787.704 475.736 787.34 476.352C782.468 474.924 778.968 471.676 777.092 467.168L779.22 466.552ZM785.016 464.648H785.492L785.94 464.564L787.564 465.208C785.8 471.004 781.544 474.56 776.588 476.296C776.28 475.68 775.636 474.728 775.16 474.224C779.612 472.908 783.616 469.632 785.016 465.068V464.648ZM763.176 472.46C765.92 472.264 770.064 471.872 774.096 471.48L774.152 473.552C770.316 474 766.34 474.42 763.428 474.728L763.176 472.46ZM772.696 461.764H775.216V476.352H772.696V461.764ZM765.78 461.792H768.216V473.104H765.78V461.792ZM791.232 468.12H816.768V470.248H791.232V468.12ZM792.044 452.384H815.676V454.428H792.044V452.384ZM807.668 466.384H810.216V473.692C810.216 474.98 809.964 475.652 808.984 476.016C807.976 476.352 806.492 476.352 804.28 476.352C804.168 475.68 803.832 474.728 803.496 474.056C805.036 474.112 806.632 474.112 807.08 474.112C807.528 474.084 807.668 473.972 807.668 473.608V466.384ZM802.628 450.396H805.232V465.46H802.628V450.396ZM795.712 471.34L797.532 469.8C799.128 470.752 801.144 472.236 802.096 473.328L800.164 475.036C799.24 473.944 797.336 472.376 795.712 471.34ZM796.72 460.476V461.932H811.364V460.476H796.72ZM796.72 457.452V458.88H811.364V457.452H796.72ZM794.228 455.772H813.968V463.612H794.228V455.772ZM808.06 464.144L809.6 462.884C811.756 463.668 814.332 465.096 815.704 466.132L814.136 467.56C812.792 466.44 810.188 464.956 808.06 464.144ZM792.38 464.984C797.504 465.012 805.708 464.956 813.408 464.816L813.296 466.524C805.792 466.748 797.812 466.888 792.492 466.972L792.38 464.984ZM819.68 467.588H844.404V469.8H819.68V467.588ZM819.764 455.184H844.292V457.312H819.764V455.184ZM820.912 460.14H843.256V462.212H820.912V460.14ZM822.312 463.92H841.912V465.88H822.312V463.92ZM830.628 461.12H833.26V476.38H830.628V461.12ZM828.164 450.34H830.628V456.248H828.164V450.34ZM833.4 450.34H835.92V456.108H833.4V450.34ZM839.896 450.648L842.64 451.348C841.772 452.888 840.792 454.456 840.036 455.548L837.88 454.848C838.608 453.7 839.448 451.908 839.896 450.648ZM836.34 457.172L839.112 457.9C838.356 458.908 837.572 459.86 836.928 460.532L834.716 459.86C835.248 459.076 835.976 457.928 836.34 457.172ZM821.948 451.376L824.216 450.592C825.14 451.824 826.12 453.532 826.484 454.652L824.104 455.548C823.74 454.428 822.816 452.664 821.948 451.376ZM825.336 457.704L827.828 457.144C828.388 457.956 829.004 459.076 829.284 459.832L826.708 460.476C826.484 459.748 825.896 458.572 825.336 457.704ZM827.632 471.004L829.564 471.9C827.604 473.468 824.048 474.924 821.136 475.568C820.8 474.98 820.072 474.112 819.54 473.636C822.424 473.188 825.868 472.152 827.632 471.004ZM834.8 472.18L836.508 470.836C839 471.732 842.472 473.104 844.348 474L842.556 475.54C840.82 474.644 837.348 473.16 834.8 472.18ZM849.808 454.904H858.348V473.44H849.808V471.088H855.94V457.228H849.808V454.904ZM848.24 454.904H850.676V475.596H848.24V454.904ZM849.668 462.548H857.144V464.872H849.668V462.548ZM852.412 450.34L855.268 450.788C854.68 452.608 853.98 454.568 853.42 455.856L851.292 455.352C851.74 453.952 852.216 451.824 852.412 450.34ZM862.212 454.764H870.64V457.2H862.212V454.764ZM869.716 454.764H872.18C872.18 454.764 872.18 455.688 872.152 456.024C871.76 468.764 871.396 473.16 870.248 474.588C869.576 475.512 868.876 475.792 867.812 475.932C866.804 476.044 865.124 475.988 863.528 475.932C863.472 475.176 863.136 474.056 862.66 473.356C864.48 473.496 866.16 473.524 866.832 473.524C867.392 473.524 867.728 473.44 868.036 473.048C868.96 472.068 869.38 467.336 869.716 455.296V454.764ZM862.576 450.312L865.124 450.9C864.06 455.072 862.324 459.244 860.42 461.904C859.944 461.484 858.852 460.728 858.236 460.392C860.14 457.956 861.68 454.12 862.576 450.312ZM861.26 462.38L863.332 461.204C864.816 463.164 866.72 465.88 867.616 467.532L865.348 468.904C864.536 467.196 862.716 464.424 861.26 462.38ZM882.148 462.94C885.2 468.96 891.724 472.516 901.048 473.608C900.46 474.252 899.732 475.456 899.368 476.184C889.736 474.812 883.324 470.864 879.656 463.836L882.148 462.94ZM877.36 460.896H895.476V463.472H877.36V460.896ZM876.044 454.4H899.844V457.032H876.044V454.4ZM886.544 450.368H889.288V462.072H886.544V450.368ZM894.86 460.896H895.42L895.924 460.784L897.772 461.876C894.244 470.696 885.844 474.7 876.268 476.352C876.016 475.68 875.344 474.42 874.812 473.832C884.164 472.46 892.032 469.016 894.86 461.372V460.896ZM912.444 457.984H927.872V460.112H912.444V457.984ZM911.828 461.932H928.712V464.116H911.828V461.932ZM915.58 465.684H925.128V467.644H915.58V465.684ZM913.2 454.652L915.244 454.092C915.72 455.156 916.336 456.584 916.588 457.452L914.432 458.152C914.208 457.228 913.676 455.744 913.2 454.652ZM918.156 454.12L920.256 453.756C920.592 454.904 920.928 456.416 921.068 457.312L918.856 457.816C918.744 456.864 918.464 455.296 918.156 454.12ZM926.108 450.536L927.62 452.496C923.616 453.364 917.54 453.784 912.556 453.896C912.5 453.308 912.22 452.44 911.968 451.908C916.868 451.74 922.72 451.264 926.108 450.536ZM917.708 467.112C919.64 470.808 923.84 473.3 929.272 474.224C928.712 474.756 928.012 475.764 927.676 476.436C922.02 475.204 917.848 472.264 915.524 467.756L917.708 467.112ZM924.792 453.364L927.256 454.12C926.248 455.828 925.044 457.732 924.064 458.992L922.16 458.292C923.084 456.948 924.204 454.848 924.792 453.364ZM924.568 465.684H925.072L925.52 465.6L926.976 466.216C925.212 472.18 920.956 475.064 915.608 476.436C915.328 475.876 914.628 474.896 914.152 474.448C919.276 473.356 923.14 470.948 924.568 466.048V465.684ZM916.028 459.356H918.576C918.1 465.096 917.176 472.404 911.184 476.324C910.82 475.736 910.064 474.868 909.42 474.448C914.992 471.004 915.636 464.2 916.028 459.356ZM902.812 465.656C905.024 465.096 908.3 464.116 911.492 463.164L911.828 465.6C908.86 466.552 905.696 467.504 903.232 468.26L902.812 465.656ZM903.092 455.884H911.632V458.32H903.092V455.884ZM906.368 450.396H908.804V473.44C908.804 474.784 908.552 475.484 907.768 475.876C907.04 476.296 905.892 476.38 904.1 476.38C904.016 475.736 903.708 474.644 903.372 473.916C904.52 473.972 905.556 473.972 905.892 473.944C906.228 473.944 906.368 473.832 906.368 473.44V450.396ZM942.852 467.056L942.208 456.752L942.096 453.056H945.876L945.764 456.752L945.12 467.056H942.852ZM944 474.196C942.796 474.196 941.9 473.356 941.9 472.096C941.9 470.808 942.824 469.94 944 469.94C945.148 469.94 946.072 470.808 946.072 472.096C946.072 473.356 945.148 474.196 944 474.196Z" fill="white"/>
<defs>
<filter id="filter0_d_1270_20956" x="720" y="323" width="227.975" height="76.0005" filterUnits="userSpaceOnUse" color-interpolation-filters="sRGB">
<feFlood flood-opacity="0" result="BackgroundImageFix"/>
<feColorMatrix in="SourceAlpha" type="matrix" values="0 0 0 0 0 0 0 0 0 0 0 0 0 0 0 0 0 0 127 0" result="hardAlpha"/>
<feOffset/>
<feGaussianBlur stdDeviation="4.5"/>
<feComposite in2="hardAlpha" operator="out"/>
<feColorMatrix type="matrix" values="0 0 0 0 0 0 0 0 0 1 0 0 0 0 1 0 0 0 1 0"/>
<feBlend mode="normal" in2="BackgroundImageFix" result="effect1_dropShadow_1270_20956"/>
<feBlend mode="normal" in="SourceGraphic" in2="effect1_dropShadow_1270_20956" result="shape"/>
</filter>
<radialGradient id="paint0_radial_1270_20956" cx="0" cy="0" r="1" gradientUnits="userSpaceOnUse" gradientTransform="translate(792 446.5) rotate(28.8069) scale(325.821 242.459)">
<stop stop-color="#003A91"/>
<stop offset="1" stop-color="#062553"/>
</radialGradient>
<linearGradient id="paint1_linear_1270_20956" x1="-197.98" y1="423.982" x2="453.917" y2="1062.39" gradientUnits="userSpaceOnUse">
<stop stop-color="#00F9FF"/>
<stop offset="0.135" stop-color="#ABFFFA"/>
<stop offset="0.33" stop-color="#61FBFF"/>
<stop offset="0.51" stop-color="#73FCFF"/>
<stop offset="1" stop-color="#66FFC8"/>
</linearGradient>
<radialGradient id="paint2_radial_1270_20956" cx="0" cy="0" r="1" gradientUnits="userSpaceOnUse" gradientTransform="translate(106 261.672) rotate(40.6984) scale(960.229 503.496)">
<stop stop-color="#045284"/>
<stop offset="0.772851" stop-color="#042B66"/>
</radialGradient>
<linearGradient id="paint3_linear_1270_20956" x1="713.497" y1="987.45" x2="-192.58" y2="733.052" gradientUnits="userSpaceOnUse">
<stop stop-color="#00F9FF"/>
<stop offset="0.135" stop-color="white"/>
<stop offset="0.33" stop-color="#61FBFF"/>
<stop offset="0.51" stop-color="#73FCFF"/>
<stop offset="1" stop-color="white"/>
</linearGradient>
</defs>
</svg>
