<svg width="1200" height="816" viewBox="0 0 1200 816" fill="none" xmlns="http://www.w3.org/2000/svg">
<path d="M688.709 118.403L688.415 118.698H688H64.4155L1.00171 182.411L2.90918 657.583L66.9132 721.382H434H434.409L434.701 721.669L457.409 744H1136.08L1199 680.588V136.414L1135.59 73H733.915L688.709 118.403Z" fill="url(#paint0_radial_1270_20956)" stroke="url(#paint1_linear_1270_20956)" stroke-width="2"/>
<path d="M1184 143.5L1128.5 87.5H740.5L694.5 134H67.5L16.5 188L18.2803 649.5L73.5 705.5H441L464.143 729H1126.5L1184 674.5V143.5Z" stroke="#00FFFF" stroke-width="2"/>
<g style="mix-blend-mode:overlay">
<rect opacity="0.3" x="1059" y="195" width="14" height="14" transform="rotate(-180 1059 195)" fill="#15FFFF"/>
<rect opacity="0.3" x="1059" y="214.949" width="14" height="14" transform="rotate(-180 1059 214.949)" fill="#C8FCFF"/>
<rect opacity="0.3" x="1079" y="214.949" width="14" height="14" transform="rotate(-180 1079 214.949)" fill="#69F6FF"/>
<rect opacity="0.3" x="1025" y="254.844" width="14" height="14" transform="rotate(-90 1025 254.844)" fill="#15FFFF"/>
<rect opacity="0.3" x="1045" y="254.844" width="14" height="14" transform="rotate(-90 1045 254.844)" fill="#C8FCFF"/>
<rect opacity="0.3" x="1045" y="234.895" width="14" height="14" transform="rotate(-90 1045 234.895)" fill="#69F6FF"/>
<rect x="1019" y="254.844" width="14" height="14" transform="rotate(-180 1019 254.844)" fill="#15FFFF"/>
<rect opacity="0.3" x="1039" y="234.895" width="14" height="14" transform="rotate(-180 1039 234.895)" fill="#C8FCFF"/>
<rect opacity="0.3" x="1000" y="254.844" width="14" height="14" transform="rotate(-180 1000 254.844)" fill="#69F6FF"/>
<rect x="1019" y="234.895" width="14" height="14" transform="rotate(-180 1019 234.895)" fill="#15FFFF"/>
<rect opacity="0.3" x="981" y="234.895" width="14" height="14" transform="rotate(-180 981 234.895)" fill="#C8FCFF"/>
<rect opacity="0.3" x="1000" y="234.895" width="14" height="14" transform="rotate(-180 1000 234.895)" fill="#69F6FF"/>
<rect opacity="0.3" x="1099" y="214.949" width="14" height="14" transform="rotate(-180 1099 214.949)" fill="#15FFFF"/>
<rect opacity="0.3" x="1079" y="274.793" width="14" height="14" transform="rotate(-180 1079 274.793)" fill="#C8FCFF"/>
<rect opacity="0.3" x="1099" y="293.746" width="14" height="14" transform="rotate(-180 1099 293.746)" fill="#69F6FF"/>
<rect opacity="0.3" x="1005" y="200.984" width="14" height="14" fill="#15FFFF"/>
<rect x="1025" y="260.828" width="14" height="14" fill="#69F6FF"/>
</g>
<path d="M107 65.4656C107 65.111 107.14 64.7707 107.39 64.5189L170.022 1.3974C170.275 1.14306 170.618 1 170.976 1H581.524C581.882 1 582.225 1.14307 582.478 1.39742L644.61 64.0189L645.32 63.3145L644.61 64.0189C644.86 64.2706 645 64.6109 645 64.9656V399.388V721.024C645 721.382 644.857 721.725 644.603 721.978L581.481 784.61C581.229 784.86 580.889 785 580.534 785H376H171.08C170.724 785 170.383 784.859 170.131 784.607L107.395 721.979C107.142 721.727 107 721.385 107 721.028V65.4656Z" fill="url(#paint2_radial_1270_20956)" stroke="url(#paint3_linear_1270_20956)" stroke-width="2"/>
<defs>
<radialGradient id="paint0_radial_1270_20956" cx="0" cy="0" r="1" gradientUnits="userSpaceOnUse" gradientTransform="translate(792 446.5) rotate(28.8069) scale(325.821 242.459)">
<stop stop-color="#003A91"/>
<stop offset="1" stop-color="#062553"/>
</radialGradient>
<linearGradient id="paint1_linear_1270_20956" x1="-197.98" y1="423.982" x2="453.917" y2="1062.39" gradientUnits="userSpaceOnUse">
<stop stop-color="#00F9FF"/>
<stop offset="0.135" stop-color="#ABFFFA"/>
<stop offset="0.33" stop-color="#61FBFF"/>
<stop offset="0.51" stop-color="#73FCFF"/>
<stop offset="1" stop-color="#66FFC8"/>
</linearGradient>
<radialGradient id="paint2_radial_1270_20956" cx="0" cy="0" r="1" gradientUnits="userSpaceOnUse" gradientTransform="translate(106 261.672) rotate(40.6984) scale(960.229 503.496)">
<stop stop-color="#045284"/>
<stop offset="0.772851" stop-color="#042B66"/>
</radialGradient>
<linearGradient id="paint3_linear_1270_20956" x1="713.497" y1="987.45" x2="-192.58" y2="733.052" gradientUnits="userSpaceOnUse">
<stop stop-color="#00F9FF"/>
<stop offset="0.135" stop-color="white"/>
<stop offset="0.33" stop-color="#61FBFF"/>
<stop offset="0.51" stop-color="#73FCFF"/>
<stop offset="1" stop-color="white"/>
</linearGradient>
</defs>
</svg>
