<svg width="1024" height="836" viewBox="0 0 1024 836" fill="none" xmlns="http://www.w3.org/2000/svg">
<g filter="url(#filter0_d_1270_20812)">
<path d="M992 98L952.205 58H627L582.4 103.698H72.5L32 144V669L71.5 708.382H375.5L397.6 731H952L992 691L992 98Z" fill="url(#paint0_radial_1270_20812)"/>
<path d="M375.5 707.382H375.921L376.215 707.683L398.021 730H951.586L991 690.586V98.4127L951.79 59H627.421L583.116 104.396L582.821 104.698H582.4H72.9128L33 144.416V668.585L71.9134 707.382H375.5Z" stroke="url(#paint1_linear_1270_20812)" stroke-width="2"/>
</g>
<g filter="url(#filter1_d_1270_20812)">
<path d="M975 104.5L945.5 75H637.5L592 121H81L47 154.5L48.5 661.5L78.5 691H381L404 714H945L975 684V104.5Z" stroke="#00FFFF" stroke-width="2" shape-rendering="crispEdges"/>
</g>
<g style="mix-blend-mode:overlay">
<rect opacity="0.3" x="879" y="132" width="14" height="14" transform="rotate(-180 879 132)" fill="#15FFFF"/>
<rect opacity="0.3" x="879" y="151.949" width="14" height="14" transform="rotate(-180 879 151.949)" fill="#C8FCFF"/>
<rect opacity="0.3" x="899" y="151.949" width="14" height="14" transform="rotate(-180 899 151.949)" fill="#69F6FF"/>
<rect opacity="0.3" x="845" y="191.844" width="14" height="14" transform="rotate(-90 845 191.844)" fill="#15FFFF"/>
<rect opacity="0.3" x="865" y="191.844" width="14" height="14" transform="rotate(-90 865 191.844)" fill="#C8FCFF"/>
<rect opacity="0.3" x="865" y="171.895" width="14" height="14" transform="rotate(-90 865 171.895)" fill="#69F6FF"/>
<rect x="839" y="191.844" width="14" height="14" transform="rotate(-180 839 191.844)" fill="#15FFFF"/>
<rect opacity="0.3" x="859" y="171.895" width="14" height="14" transform="rotate(-180 859 171.895)" fill="#C8FCFF"/>
<rect opacity="0.3" x="820" y="191.844" width="14" height="14" transform="rotate(-180 820 191.844)" fill="#69F6FF"/>
<rect x="839" y="171.895" width="14" height="14" transform="rotate(-180 839 171.895)" fill="#15FFFF"/>
<rect opacity="0.3" x="801" y="171.895" width="14" height="14" transform="rotate(-180 801 171.895)" fill="#C8FCFF"/>
<rect opacity="0.3" x="820" y="171.895" width="14" height="14" transform="rotate(-180 820 171.895)" fill="#69F6FF"/>
<rect opacity="0.3" x="919" y="151.949" width="14" height="14" transform="rotate(-180 919 151.949)" fill="#15FFFF"/>
<rect opacity="0.3" x="899" y="211.793" width="14" height="14" transform="rotate(-180 899 211.793)" fill="#C8FCFF"/>
<rect opacity="0.3" x="919" y="230.746" width="14" height="14" transform="rotate(-180 919 230.746)" fill="#69F6FF"/>
<rect opacity="0.3" x="825" y="137.984" width="14" height="14" fill="#15FFFF"/>
<rect x="845" y="197.828" width="14" height="14" fill="#69F6FF"/>
</g>
<g filter="url(#filter2_d_1270_20812)">
<path d="M96 54L136 14H510L550 54V416.437V766L510 806H323H136L96 766V54Z" fill="url(#paint2_radial_1270_20812)"/>
<path d="M136.414 805L97 765.586V54.4142L136.414 15H509.586L549 54.4142V416.437V765.586L509.586 805H323H136.414Z" stroke="url(#paint3_linear_1270_20812)" stroke-width="2"/>
</g>
<g filter="url(#filter3_d_1270_20812)">
<mask id="path-23-outside-1_1270_20812" maskUnits="userSpaceOnUse" x="639" y="348" width="210" height="60" fill="black">
<rect fill="white" x="639" y="348" width="210" height="60"/>
<path d="M661.06 360.461L690.334 358.795L690.789 363.136L661.514 364.953L661.06 360.461ZM666.562 354.404H672.215C672.45 356.322 672.988 358.088 673.83 359.703C674.671 361.319 675.697 362.715 676.909 363.893C678.12 365.037 679.415 365.928 680.795 366.568C682.208 367.207 683.605 367.527 684.984 367.527C685.691 367.527 686.162 367.291 686.397 366.82C686.633 366.315 686.818 365.407 686.953 364.095C687.525 364.532 688.231 364.953 689.073 365.356C689.914 365.727 690.688 366.013 691.394 366.215C691.159 368.032 690.772 369.428 690.233 370.404C689.729 371.346 689.022 371.985 688.114 372.322C687.239 372.658 686.128 372.826 684.782 372.826C683.033 372.826 681.317 372.54 679.634 371.968C677.952 371.396 676.387 370.589 674.94 369.546C673.493 368.469 672.181 367.19 671.003 365.71C669.825 364.196 668.85 362.496 668.076 360.612C667.335 358.728 666.831 356.658 666.562 354.404ZM675.445 357.18L678.17 354.252C679.113 354.421 680.122 354.673 681.199 355.009C682.309 355.312 683.369 355.649 684.379 356.019C685.388 356.355 686.229 356.709 686.902 357.079L684.025 360.309C683.42 359.973 682.612 359.619 681.603 359.249C680.627 358.845 679.6 358.458 678.524 358.088C677.447 357.718 676.421 357.415 675.445 357.18ZM658.385 354L663.836 356.12C662.557 357.735 661.043 359.317 659.293 360.864C657.544 362.412 655.727 363.859 653.842 365.205C651.958 366.517 650.107 367.645 648.29 368.587C647.987 368.183 647.567 367.712 647.028 367.174C646.524 366.635 646.002 366.097 645.464 365.558C644.925 364.986 644.437 364.549 644 364.246C645.851 363.438 647.668 362.513 649.451 361.47C651.234 360.393 652.9 359.232 654.448 357.987C655.996 356.709 657.308 355.38 658.385 354ZM653.741 362.126L657.527 358.29L659.546 358.845V371.464H653.741V362.126ZM657.577 381.912V384.032H679.483V381.912H657.577ZM657.577 387.464V389.685H679.483V387.464H657.577ZM657.577 376.309V378.479H679.483V376.309H657.577ZM651.722 372.726H685.64V393.268H651.722V372.726ZM671.104 395.943L676.151 393.066C677.968 393.706 679.802 394.395 681.653 395.136C683.537 395.842 685.321 396.566 687.003 397.306C688.719 398.013 690.166 398.652 691.344 399.224L684.278 401.95C683.335 401.411 682.158 400.789 680.744 400.082C679.331 399.375 677.8 398.652 676.151 397.912C674.536 397.205 672.854 396.549 671.104 395.943ZM659.95 392.864L665.451 395.388C664.105 396.263 662.524 397.121 660.707 397.962C658.89 398.803 657.022 399.56 655.104 400.233C653.186 400.94 651.369 401.529 649.653 402C649.283 401.596 648.829 401.108 648.29 400.536C647.785 399.998 647.247 399.443 646.675 398.871C646.103 398.332 645.598 397.895 645.161 397.558C646.944 397.222 648.744 396.818 650.562 396.347C652.412 395.876 654.145 395.338 655.76 394.732C657.409 394.126 658.805 393.504 659.95 392.864Z"/>
<path d="M726.625 372.372H732.379V374.896C732.379 376.713 732.261 378.749 732.025 381.003C731.823 383.224 731.386 385.563 730.713 388.019C730.04 390.442 729.014 392.848 727.634 395.237C726.254 397.626 724.404 399.88 722.082 402C721.746 401.563 721.308 401.075 720.77 400.536C720.265 400.032 719.71 399.527 719.104 399.022C718.532 398.551 717.994 398.164 717.489 397.861C719.609 396.044 721.274 394.126 722.486 392.107C723.731 390.055 724.639 388.002 725.211 385.95C725.783 383.863 726.154 381.861 726.322 379.943C726.524 378.025 726.625 376.292 726.625 374.744V372.372ZM731.975 378.479C732.513 381.104 733.253 383.611 734.196 386C735.138 388.355 736.332 390.458 737.779 392.309C739.226 394.126 740.976 395.556 743.028 396.599C742.557 397.003 742.069 397.491 741.565 398.063C741.06 398.669 740.572 399.291 740.101 399.931C739.63 400.57 739.243 401.176 738.94 401.748C736.719 400.334 734.835 398.517 733.287 396.297C731.773 394.076 730.528 391.535 729.552 388.675C728.576 385.781 727.769 382.669 727.129 379.338L731.975 378.479ZM695.685 358.492H719.356V363.438H695.685V358.492ZM694.978 380.498H719.962V385.445H694.978V380.498ZM696.946 365.962H718.246V370.858H696.946V365.962ZM697.249 373.23H717.943V378.126H697.249V373.23ZM704.77 354.757H710.423V369.192H704.77V354.757ZM698.208 386.404L703.155 387.565C702.65 389.415 702.027 391.333 701.287 393.319C700.547 395.27 699.823 396.936 699.117 398.315C698.578 397.979 697.821 397.609 696.845 397.205C695.903 396.801 695.113 396.498 694.473 396.297C695.213 394.984 695.92 393.436 696.593 391.653C697.266 389.836 697.804 388.086 698.208 386.404ZM711.886 388.069L716.379 386.303C716.816 387.144 717.237 388.036 717.64 388.978C718.078 389.886 718.482 390.795 718.852 391.703C719.222 392.612 719.491 393.42 719.659 394.126L714.915 396.145C714.747 395.438 714.494 394.631 714.158 393.722C713.821 392.78 713.451 391.821 713.047 390.845C712.677 389.836 712.29 388.911 711.886 388.069ZM723.899 363.539H738.132V369.041H723.899V363.539ZM722.94 354.505L728.845 355.312C728.442 358.374 727.903 361.369 727.23 364.297C726.591 367.19 725.817 369.899 724.909 372.423C724 374.913 722.957 377.117 721.779 379.035C721.443 378.698 720.972 378.294 720.366 377.823C719.76 377.352 719.138 376.898 718.498 376.461C717.859 375.989 717.304 375.619 716.833 375.35C717.977 373.735 718.936 371.817 719.71 369.596C720.517 367.375 721.174 364.986 721.678 362.429C722.217 359.838 722.637 357.197 722.94 354.505ZM736.568 363.539H737.426L738.385 363.338L742.524 364.448C742.221 366.13 741.851 367.846 741.413 369.596C741.009 371.346 740.572 373.028 740.101 374.644C739.664 376.259 739.226 377.672 738.789 378.883L733.893 377.42C734.229 376.309 734.566 375.014 734.902 373.533C735.239 372.053 735.542 370.538 735.811 368.991C736.114 367.409 736.366 365.895 736.568 364.448V363.539ZM704.82 382.517H710.524V401.798H704.82V382.517Z"/>
<path d="M746.814 385.293H791.836V390.29H746.814V385.293ZM746.965 362.681H791.685V367.426H746.965V362.681ZM749.035 371.868H789.716V376.461H749.035V371.868ZM751.508 378.732H787.394V383.073H751.508V378.732ZM766.145 374.088H772.151V401.849H766.145V374.088ZM761.855 354.353H767.508V365.054H761.855V354.353ZM771.192 354.353H776.946V364.7H771.192V354.353ZM782.852 354.808L789.161 356.322C788.353 357.701 787.546 359.047 786.738 360.36C785.931 361.638 785.19 362.732 784.517 363.64L779.621 362.126C780.025 361.453 780.429 360.696 780.833 359.855C781.237 358.98 781.607 358.105 781.943 357.23C782.313 356.322 782.616 355.514 782.852 354.808ZM776.644 367.022L783.054 368.637C782.313 369.512 781.59 370.303 780.883 371.009C780.21 371.682 779.571 372.288 778.965 372.826L773.817 371.312C774.322 370.673 774.827 369.95 775.331 369.142C775.87 368.334 776.307 367.628 776.644 367.022ZM750.65 356.423L755.849 354.656C756.589 355.699 757.329 356.911 758.069 358.29C758.81 359.636 759.348 360.797 759.685 361.773L754.183 363.792C753.914 362.782 753.426 361.588 752.719 360.208C752.046 358.829 751.356 357.567 750.65 356.423ZM756.505 368.183L762.208 366.921C762.646 367.56 763.083 368.284 763.521 369.091C763.992 369.899 764.345 370.623 764.58 371.262L758.625 372.675C758.456 372.069 758.154 371.346 757.716 370.505C757.312 369.63 756.909 368.856 756.505 368.183ZM760.644 391.956L764.934 393.924C763.823 394.866 762.427 395.775 760.744 396.65C759.096 397.525 757.363 398.299 755.546 398.972C753.729 399.678 751.945 400.233 750.196 400.637C749.825 399.998 749.287 399.241 748.58 398.366C747.874 397.491 747.218 396.801 746.612 396.297C748.294 396.027 750.027 395.674 751.811 395.237C753.594 394.799 755.26 394.294 756.808 393.722C758.355 393.15 759.634 392.562 760.644 391.956ZM774.322 394.479L778.36 391.603C779.739 392.141 781.253 392.747 782.902 393.42C784.585 394.093 786.2 394.782 787.748 395.489C789.329 396.162 790.658 396.784 791.735 397.356L787.445 400.637C786.469 400.099 785.224 399.46 783.71 398.719C782.196 397.979 780.597 397.239 778.915 396.498C777.266 395.758 775.735 395.085 774.322 394.479Z"/>
<path d="M797.186 356.726H813.691V361.823H797.186V356.726ZM817.375 382.719H837.868V387.716H817.375V382.719ZM796.479 372.17H815.256V377.42H796.479V372.17ZM804.707 374.341H810.41V395.287C810.41 396.667 810.259 397.777 809.956 398.618C809.687 399.46 809.115 400.116 808.24 400.587C807.365 401.024 806.339 401.31 805.161 401.445C803.983 401.579 802.62 401.647 801.073 401.647C800.972 400.805 800.753 399.83 800.416 398.719C800.08 397.642 799.71 396.7 799.306 395.893C800.282 395.926 801.207 395.943 802.082 395.943C802.957 395.943 803.563 395.943 803.899 395.943C804.202 395.91 804.404 395.859 804.505 395.792C804.639 395.691 804.707 395.489 804.707 395.186V374.341ZM835.95 382.719H842.057C842.057 382.719 842.04 383.005 842.006 383.577C841.973 384.116 841.922 384.587 841.855 384.991C841.619 387.918 841.333 390.341 840.997 392.259C840.694 394.143 840.358 395.657 839.987 396.801C839.617 397.912 839.18 398.736 838.675 399.274C838.137 399.846 837.565 400.25 836.959 400.486C836.387 400.755 835.731 400.957 834.991 401.091C834.385 401.159 833.577 401.192 832.568 401.192C831.558 401.226 830.465 401.226 829.287 401.192C829.253 400.318 829.085 399.359 828.782 398.315C828.513 397.272 828.143 396.364 827.672 395.59C828.58 395.691 829.422 395.758 830.196 395.792C831.003 395.825 831.609 395.842 832.013 395.842C832.416 395.842 832.736 395.809 832.972 395.741C833.207 395.64 833.443 395.489 833.678 395.287C833.981 394.984 834.267 394.412 834.536 393.571C834.805 392.696 835.058 391.434 835.293 389.785C835.529 388.137 835.748 386.034 835.95 383.476V382.719ZM825.249 378.177H831.256C831.02 380.768 830.667 383.241 830.196 385.596C829.758 387.918 829.018 390.088 827.975 392.107C826.932 394.126 825.468 395.96 823.584 397.609C821.733 399.258 819.31 400.671 816.315 401.849C815.979 401.142 815.474 400.318 814.801 399.375C814.128 398.467 813.472 397.727 812.833 397.155C815.457 396.212 817.544 395.085 819.091 393.773C820.673 392.427 821.868 390.946 822.675 389.331C823.516 387.716 824.105 385.966 824.442 384.082C824.812 382.198 825.081 380.229 825.249 378.177ZM798.347 367.224L802.132 363.338C803.512 363.842 804.976 364.448 806.524 365.155C808.105 365.861 809.603 366.585 811.016 367.325C812.463 368.065 813.674 368.789 814.65 369.495L810.562 373.836C809.687 373.129 808.559 372.389 807.18 371.615C805.8 370.808 804.32 370.017 802.738 369.243C801.19 368.469 799.727 367.796 798.347 367.224ZM813.792 372.17H814.549L815.356 371.918L819.041 373.079C818.637 375.367 818.116 377.722 817.476 380.145C816.871 382.568 816.231 384.637 815.558 386.353L811.47 384.435C811.941 382.955 812.379 381.155 812.782 379.035C813.22 376.915 813.556 374.913 813.792 373.028V372.17ZM833.981 362.025L840.29 362.984C839.18 366.08 837.615 368.738 835.596 370.959C833.611 373.146 831.256 374.963 828.53 376.41C825.804 377.857 822.776 379.052 819.445 379.994C819.243 379.556 818.906 379.018 818.435 378.379C817.998 377.739 817.527 377.117 817.022 376.511C816.551 375.872 816.114 375.367 815.71 374.997C818.805 374.358 821.581 373.483 824.038 372.372C826.528 371.262 828.614 369.865 830.297 368.183C832.013 366.467 833.241 364.414 833.981 362.025ZM823.937 354.353L829.539 355.968C828.732 357.752 827.756 359.502 826.612 361.218C825.468 362.934 824.257 364.549 822.978 366.063C821.733 367.544 820.454 368.822 819.142 369.899C818.772 369.563 818.284 369.192 817.678 368.789C817.073 368.351 816.467 367.931 815.861 367.527C815.256 367.123 814.717 366.787 814.246 366.517C816.231 365.104 818.082 363.321 819.798 361.167C821.514 358.98 822.894 356.709 823.937 354.353ZM824.593 363.338C825.771 365.222 827.302 366.938 829.186 368.486C831.104 370.034 833.308 371.363 835.798 372.473C838.322 373.55 841.047 374.374 843.975 374.946C843.571 375.317 843.117 375.821 842.612 376.461C842.141 377.066 841.687 377.689 841.249 378.328C840.812 378.967 840.442 379.539 840.139 380.044C837.043 379.27 834.2 378.177 831.609 376.763C829.052 375.35 826.747 373.651 824.694 371.666C822.675 369.68 820.976 367.426 819.596 364.902L824.593 363.338ZM804.151 373.987L808.038 375.451C807.399 377.672 806.591 379.943 805.615 382.265C804.673 384.587 803.596 386.74 802.385 388.726C801.174 390.711 799.844 392.376 798.397 393.722C798.128 392.848 797.708 391.855 797.136 390.744C796.597 389.634 796.093 388.675 795.621 387.868C796.833 386.791 797.977 385.495 799.054 383.981C800.164 382.467 801.157 380.852 802.032 379.136C802.906 377.386 803.613 375.67 804.151 373.987ZM823.785 359.552H842.662V364.549H821.363L823.785 359.552ZM812.278 356.726H813.539L814.498 356.524L818.334 358.896C817.594 360.107 816.686 361.352 815.609 362.631C814.532 363.91 813.371 365.121 812.126 366.265C810.915 367.375 809.703 368.351 808.492 369.192C807.954 368.688 807.298 368.166 806.524 367.628C805.783 367.089 805.11 366.635 804.505 366.265C805.582 365.525 806.608 364.667 807.584 363.691C808.593 362.681 809.502 361.655 810.309 360.612C811.15 359.569 811.807 358.627 812.278 357.785V356.726Z"/>
</mask>
<path d="M661.06 360.461L690.334 358.795L690.789 363.136L661.514 364.953L661.06 360.461ZM666.562 354.404H672.215C672.45 356.322 672.988 358.088 673.83 359.703C674.671 361.319 675.697 362.715 676.909 363.893C678.12 365.037 679.415 365.928 680.795 366.568C682.208 367.207 683.605 367.527 684.984 367.527C685.691 367.527 686.162 367.291 686.397 366.82C686.633 366.315 686.818 365.407 686.953 364.095C687.525 364.532 688.231 364.953 689.073 365.356C689.914 365.727 690.688 366.013 691.394 366.215C691.159 368.032 690.772 369.428 690.233 370.404C689.729 371.346 689.022 371.985 688.114 372.322C687.239 372.658 686.128 372.826 684.782 372.826C683.033 372.826 681.317 372.54 679.634 371.968C677.952 371.396 676.387 370.589 674.94 369.546C673.493 368.469 672.181 367.19 671.003 365.71C669.825 364.196 668.85 362.496 668.076 360.612C667.335 358.728 666.831 356.658 666.562 354.404ZM675.445 357.18L678.17 354.252C679.113 354.421 680.122 354.673 681.199 355.009C682.309 355.312 683.369 355.649 684.379 356.019C685.388 356.355 686.229 356.709 686.902 357.079L684.025 360.309C683.42 359.973 682.612 359.619 681.603 359.249C680.627 358.845 679.6 358.458 678.524 358.088C677.447 357.718 676.421 357.415 675.445 357.18ZM658.385 354L663.836 356.12C662.557 357.735 661.043 359.317 659.293 360.864C657.544 362.412 655.727 363.859 653.842 365.205C651.958 366.517 650.107 367.645 648.29 368.587C647.987 368.183 647.567 367.712 647.028 367.174C646.524 366.635 646.002 366.097 645.464 365.558C644.925 364.986 644.437 364.549 644 364.246C645.851 363.438 647.668 362.513 649.451 361.47C651.234 360.393 652.9 359.232 654.448 357.987C655.996 356.709 657.308 355.38 658.385 354ZM653.741 362.126L657.527 358.29L659.546 358.845V371.464H653.741V362.126ZM657.577 381.912V384.032H679.483V381.912H657.577ZM657.577 387.464V389.685H679.483V387.464H657.577ZM657.577 376.309V378.479H679.483V376.309H657.577ZM651.722 372.726H685.64V393.268H651.722V372.726ZM671.104 395.943L676.151 393.066C677.968 393.706 679.802 394.395 681.653 395.136C683.537 395.842 685.321 396.566 687.003 397.306C688.719 398.013 690.166 398.652 691.344 399.224L684.278 401.95C683.335 401.411 682.158 400.789 680.744 400.082C679.331 399.375 677.8 398.652 676.151 397.912C674.536 397.205 672.854 396.549 671.104 395.943ZM659.95 392.864L665.451 395.388C664.105 396.263 662.524 397.121 660.707 397.962C658.89 398.803 657.022 399.56 655.104 400.233C653.186 400.94 651.369 401.529 649.653 402C649.283 401.596 648.829 401.108 648.29 400.536C647.785 399.998 647.247 399.443 646.675 398.871C646.103 398.332 645.598 397.895 645.161 397.558C646.944 397.222 648.744 396.818 650.562 396.347C652.412 395.876 654.145 395.338 655.76 394.732C657.409 394.126 658.805 393.504 659.95 392.864Z" fill="#003396"/>
<path d="M726.625 372.372H732.379V374.896C732.379 376.713 732.261 378.749 732.025 381.003C731.823 383.224 731.386 385.563 730.713 388.019C730.04 390.442 729.014 392.848 727.634 395.237C726.254 397.626 724.404 399.88 722.082 402C721.746 401.563 721.308 401.075 720.77 400.536C720.265 400.032 719.71 399.527 719.104 399.022C718.532 398.551 717.994 398.164 717.489 397.861C719.609 396.044 721.274 394.126 722.486 392.107C723.731 390.055 724.639 388.002 725.211 385.95C725.783 383.863 726.154 381.861 726.322 379.943C726.524 378.025 726.625 376.292 726.625 374.744V372.372ZM731.975 378.479C732.513 381.104 733.253 383.611 734.196 386C735.138 388.355 736.332 390.458 737.779 392.309C739.226 394.126 740.976 395.556 743.028 396.599C742.557 397.003 742.069 397.491 741.565 398.063C741.06 398.669 740.572 399.291 740.101 399.931C739.63 400.57 739.243 401.176 738.94 401.748C736.719 400.334 734.835 398.517 733.287 396.297C731.773 394.076 730.528 391.535 729.552 388.675C728.576 385.781 727.769 382.669 727.129 379.338L731.975 378.479ZM695.685 358.492H719.356V363.438H695.685V358.492ZM694.978 380.498H719.962V385.445H694.978V380.498ZM696.946 365.962H718.246V370.858H696.946V365.962ZM697.249 373.23H717.943V378.126H697.249V373.23ZM704.77 354.757H710.423V369.192H704.77V354.757ZM698.208 386.404L703.155 387.565C702.65 389.415 702.027 391.333 701.287 393.319C700.547 395.27 699.823 396.936 699.117 398.315C698.578 397.979 697.821 397.609 696.845 397.205C695.903 396.801 695.113 396.498 694.473 396.297C695.213 394.984 695.92 393.436 696.593 391.653C697.266 389.836 697.804 388.086 698.208 386.404ZM711.886 388.069L716.379 386.303C716.816 387.144 717.237 388.036 717.64 388.978C718.078 389.886 718.482 390.795 718.852 391.703C719.222 392.612 719.491 393.42 719.659 394.126L714.915 396.145C714.747 395.438 714.494 394.631 714.158 393.722C713.821 392.78 713.451 391.821 713.047 390.845C712.677 389.836 712.29 388.911 711.886 388.069ZM723.899 363.539H738.132V369.041H723.899V363.539ZM722.94 354.505L728.845 355.312C728.442 358.374 727.903 361.369 727.23 364.297C726.591 367.19 725.817 369.899 724.909 372.423C724 374.913 722.957 377.117 721.779 379.035C721.443 378.698 720.972 378.294 720.366 377.823C719.76 377.352 719.138 376.898 718.498 376.461C717.859 375.989 717.304 375.619 716.833 375.35C717.977 373.735 718.936 371.817 719.71 369.596C720.517 367.375 721.174 364.986 721.678 362.429C722.217 359.838 722.637 357.197 722.94 354.505ZM736.568 363.539H737.426L738.385 363.338L742.524 364.448C742.221 366.13 741.851 367.846 741.413 369.596C741.009 371.346 740.572 373.028 740.101 374.644C739.664 376.259 739.226 377.672 738.789 378.883L733.893 377.42C734.229 376.309 734.566 375.014 734.902 373.533C735.239 372.053 735.542 370.538 735.811 368.991C736.114 367.409 736.366 365.895 736.568 364.448V363.539ZM704.82 382.517H710.524V401.798H704.82V382.517Z" fill="#003396"/>
<path d="M746.814 385.293H791.836V390.29H746.814V385.293ZM746.965 362.681H791.685V367.426H746.965V362.681ZM749.035 371.868H789.716V376.461H749.035V371.868ZM751.508 378.732H787.394V383.073H751.508V378.732ZM766.145 374.088H772.151V401.849H766.145V374.088ZM761.855 354.353H767.508V365.054H761.855V354.353ZM771.192 354.353H776.946V364.7H771.192V354.353ZM782.852 354.808L789.161 356.322C788.353 357.701 787.546 359.047 786.738 360.36C785.931 361.638 785.19 362.732 784.517 363.64L779.621 362.126C780.025 361.453 780.429 360.696 780.833 359.855C781.237 358.98 781.607 358.105 781.943 357.23C782.313 356.322 782.616 355.514 782.852 354.808ZM776.644 367.022L783.054 368.637C782.313 369.512 781.59 370.303 780.883 371.009C780.21 371.682 779.571 372.288 778.965 372.826L773.817 371.312C774.322 370.673 774.827 369.95 775.331 369.142C775.87 368.334 776.307 367.628 776.644 367.022ZM750.65 356.423L755.849 354.656C756.589 355.699 757.329 356.911 758.069 358.29C758.81 359.636 759.348 360.797 759.685 361.773L754.183 363.792C753.914 362.782 753.426 361.588 752.719 360.208C752.046 358.829 751.356 357.567 750.65 356.423ZM756.505 368.183L762.208 366.921C762.646 367.56 763.083 368.284 763.521 369.091C763.992 369.899 764.345 370.623 764.58 371.262L758.625 372.675C758.456 372.069 758.154 371.346 757.716 370.505C757.312 369.63 756.909 368.856 756.505 368.183ZM760.644 391.956L764.934 393.924C763.823 394.866 762.427 395.775 760.744 396.65C759.096 397.525 757.363 398.299 755.546 398.972C753.729 399.678 751.945 400.233 750.196 400.637C749.825 399.998 749.287 399.241 748.58 398.366C747.874 397.491 747.218 396.801 746.612 396.297C748.294 396.027 750.027 395.674 751.811 395.237C753.594 394.799 755.26 394.294 756.808 393.722C758.355 393.15 759.634 392.562 760.644 391.956ZM774.322 394.479L778.36 391.603C779.739 392.141 781.253 392.747 782.902 393.42C784.585 394.093 786.2 394.782 787.748 395.489C789.329 396.162 790.658 396.784 791.735 397.356L787.445 400.637C786.469 400.099 785.224 399.46 783.71 398.719C782.196 397.979 780.597 397.239 778.915 396.498C777.266 395.758 775.735 395.085 774.322 394.479Z" fill="#003396"/>
<path d="M797.186 356.726H813.691V361.823H797.186V356.726ZM817.375 382.719H837.868V387.716H817.375V382.719ZM796.479 372.17H815.256V377.42H796.479V372.17ZM804.707 374.341H810.41V395.287C810.41 396.667 810.259 397.777 809.956 398.618C809.687 399.46 809.115 400.116 808.24 400.587C807.365 401.024 806.339 401.31 805.161 401.445C803.983 401.579 802.62 401.647 801.073 401.647C800.972 400.805 800.753 399.83 800.416 398.719C800.08 397.642 799.71 396.7 799.306 395.893C800.282 395.926 801.207 395.943 802.082 395.943C802.957 395.943 803.563 395.943 803.899 395.943C804.202 395.91 804.404 395.859 804.505 395.792C804.639 395.691 804.707 395.489 804.707 395.186V374.341ZM835.95 382.719H842.057C842.057 382.719 842.04 383.005 842.006 383.577C841.973 384.116 841.922 384.587 841.855 384.991C841.619 387.918 841.333 390.341 840.997 392.259C840.694 394.143 840.358 395.657 839.987 396.801C839.617 397.912 839.18 398.736 838.675 399.274C838.137 399.846 837.565 400.25 836.959 400.486C836.387 400.755 835.731 400.957 834.991 401.091C834.385 401.159 833.577 401.192 832.568 401.192C831.558 401.226 830.465 401.226 829.287 401.192C829.253 400.318 829.085 399.359 828.782 398.315C828.513 397.272 828.143 396.364 827.672 395.59C828.58 395.691 829.422 395.758 830.196 395.792C831.003 395.825 831.609 395.842 832.013 395.842C832.416 395.842 832.736 395.809 832.972 395.741C833.207 395.64 833.443 395.489 833.678 395.287C833.981 394.984 834.267 394.412 834.536 393.571C834.805 392.696 835.058 391.434 835.293 389.785C835.529 388.137 835.748 386.034 835.95 383.476V382.719ZM825.249 378.177H831.256C831.02 380.768 830.667 383.241 830.196 385.596C829.758 387.918 829.018 390.088 827.975 392.107C826.932 394.126 825.468 395.96 823.584 397.609C821.733 399.258 819.31 400.671 816.315 401.849C815.979 401.142 815.474 400.318 814.801 399.375C814.128 398.467 813.472 397.727 812.833 397.155C815.457 396.212 817.544 395.085 819.091 393.773C820.673 392.427 821.868 390.946 822.675 389.331C823.516 387.716 824.105 385.966 824.442 384.082C824.812 382.198 825.081 380.229 825.249 378.177ZM798.347 367.224L802.132 363.338C803.512 363.842 804.976 364.448 806.524 365.155C808.105 365.861 809.603 366.585 811.016 367.325C812.463 368.065 813.674 368.789 814.65 369.495L810.562 373.836C809.687 373.129 808.559 372.389 807.18 371.615C805.8 370.808 804.32 370.017 802.738 369.243C801.19 368.469 799.727 367.796 798.347 367.224ZM813.792 372.17H814.549L815.356 371.918L819.041 373.079C818.637 375.367 818.116 377.722 817.476 380.145C816.871 382.568 816.231 384.637 815.558 386.353L811.47 384.435C811.941 382.955 812.379 381.155 812.782 379.035C813.22 376.915 813.556 374.913 813.792 373.028V372.17ZM833.981 362.025L840.29 362.984C839.18 366.08 837.615 368.738 835.596 370.959C833.611 373.146 831.256 374.963 828.53 376.41C825.804 377.857 822.776 379.052 819.445 379.994C819.243 379.556 818.906 379.018 818.435 378.379C817.998 377.739 817.527 377.117 817.022 376.511C816.551 375.872 816.114 375.367 815.71 374.997C818.805 374.358 821.581 373.483 824.038 372.372C826.528 371.262 828.614 369.865 830.297 368.183C832.013 366.467 833.241 364.414 833.981 362.025ZM823.937 354.353L829.539 355.968C828.732 357.752 827.756 359.502 826.612 361.218C825.468 362.934 824.257 364.549 822.978 366.063C821.733 367.544 820.454 368.822 819.142 369.899C818.772 369.563 818.284 369.192 817.678 368.789C817.073 368.351 816.467 367.931 815.861 367.527C815.256 367.123 814.717 366.787 814.246 366.517C816.231 365.104 818.082 363.321 819.798 361.167C821.514 358.98 822.894 356.709 823.937 354.353ZM824.593 363.338C825.771 365.222 827.302 366.938 829.186 368.486C831.104 370.034 833.308 371.363 835.798 372.473C838.322 373.55 841.047 374.374 843.975 374.946C843.571 375.317 843.117 375.821 842.612 376.461C842.141 377.066 841.687 377.689 841.249 378.328C840.812 378.967 840.442 379.539 840.139 380.044C837.043 379.27 834.2 378.177 831.609 376.763C829.052 375.35 826.747 373.651 824.694 371.666C822.675 369.68 820.976 367.426 819.596 364.902L824.593 363.338ZM804.151 373.987L808.038 375.451C807.399 377.672 806.591 379.943 805.615 382.265C804.673 384.587 803.596 386.74 802.385 388.726C801.174 390.711 799.844 392.376 798.397 393.722C798.128 392.848 797.708 391.855 797.136 390.744C796.597 389.634 796.093 388.675 795.621 387.868C796.833 386.791 797.977 385.495 799.054 383.981C800.164 382.467 801.157 380.852 802.032 379.136C802.906 377.386 803.613 375.67 804.151 373.987ZM823.785 359.552H842.662V364.549H821.363L823.785 359.552ZM812.278 356.726H813.539L814.498 356.524L818.334 358.896C817.594 360.107 816.686 361.352 815.609 362.631C814.532 363.91 813.371 365.121 812.126 366.265C810.915 367.375 809.703 368.351 808.492 369.192C807.954 368.688 807.298 368.166 806.524 367.628C805.783 367.089 805.11 366.635 804.505 366.265C805.582 365.525 806.608 364.667 807.584 363.691C808.593 362.681 809.502 361.655 810.309 360.612C811.15 359.569 811.807 358.627 812.278 357.785V356.726Z" fill="#003396"/>
<path d="M661.06 360.461L690.334 358.795L690.789 363.136L661.514 364.953L661.06 360.461ZM666.562 354.404H672.215C672.45 356.322 672.988 358.088 673.83 359.703C674.671 361.319 675.697 362.715 676.909 363.893C678.12 365.037 679.415 365.928 680.795 366.568C682.208 367.207 683.605 367.527 684.984 367.527C685.691 367.527 686.162 367.291 686.397 366.82C686.633 366.315 686.818 365.407 686.953 364.095C687.525 364.532 688.231 364.953 689.073 365.356C689.914 365.727 690.688 366.013 691.394 366.215C691.159 368.032 690.772 369.428 690.233 370.404C689.729 371.346 689.022 371.985 688.114 372.322C687.239 372.658 686.128 372.826 684.782 372.826C683.033 372.826 681.317 372.54 679.634 371.968C677.952 371.396 676.387 370.589 674.94 369.546C673.493 368.469 672.181 367.19 671.003 365.71C669.825 364.196 668.85 362.496 668.076 360.612C667.335 358.728 666.831 356.658 666.562 354.404ZM675.445 357.18L678.17 354.252C679.113 354.421 680.122 354.673 681.199 355.009C682.309 355.312 683.369 355.649 684.379 356.019C685.388 356.355 686.229 356.709 686.902 357.079L684.025 360.309C683.42 359.973 682.612 359.619 681.603 359.249C680.627 358.845 679.6 358.458 678.524 358.088C677.447 357.718 676.421 357.415 675.445 357.18ZM658.385 354L663.836 356.12C662.557 357.735 661.043 359.317 659.293 360.864C657.544 362.412 655.727 363.859 653.842 365.205C651.958 366.517 650.107 367.645 648.29 368.587C647.987 368.183 647.567 367.712 647.028 367.174C646.524 366.635 646.002 366.097 645.464 365.558C644.925 364.986 644.437 364.549 644 364.246C645.851 363.438 647.668 362.513 649.451 361.47C651.234 360.393 652.9 359.232 654.448 357.987C655.996 356.709 657.308 355.38 658.385 354ZM653.741 362.126L657.527 358.29L659.546 358.845V371.464H653.741V362.126ZM657.577 381.912V384.032H679.483V381.912H657.577ZM657.577 387.464V389.685H679.483V387.464H657.577ZM657.577 376.309V378.479H679.483V376.309H657.577ZM651.722 372.726H685.64V393.268H651.722V372.726ZM671.104 395.943L676.151 393.066C677.968 393.706 679.802 394.395 681.653 395.136C683.537 395.842 685.321 396.566 687.003 397.306C688.719 398.013 690.166 398.652 691.344 399.224L684.278 401.95C683.335 401.411 682.158 400.789 680.744 400.082C679.331 399.375 677.8 398.652 676.151 397.912C674.536 397.205 672.854 396.549 671.104 395.943ZM659.95 392.864L665.451 395.388C664.105 396.263 662.524 397.121 660.707 397.962C658.89 398.803 657.022 399.56 655.104 400.233C653.186 400.94 651.369 401.529 649.653 402C649.283 401.596 648.829 401.108 648.29 400.536C647.785 399.998 647.247 399.443 646.675 398.871C646.103 398.332 645.598 397.895 645.161 397.558C646.944 397.222 648.744 396.818 650.562 396.347C652.412 395.876 654.145 395.338 655.76 394.732C657.409 394.126 658.805 393.504 659.95 392.864Z" stroke="white" stroke-width="10" stroke-linejoin="round" mask="url(#path-23-outside-1_1270_20812)"/>
<path d="M726.625 372.372H732.379V374.896C732.379 376.713 732.261 378.749 732.025 381.003C731.823 383.224 731.386 385.563 730.713 388.019C730.04 390.442 729.014 392.848 727.634 395.237C726.254 397.626 724.404 399.88 722.082 402C721.746 401.563 721.308 401.075 720.77 400.536C720.265 400.032 719.71 399.527 719.104 399.022C718.532 398.551 717.994 398.164 717.489 397.861C719.609 396.044 721.274 394.126 722.486 392.107C723.731 390.055 724.639 388.002 725.211 385.95C725.783 383.863 726.154 381.861 726.322 379.943C726.524 378.025 726.625 376.292 726.625 374.744V372.372ZM731.975 378.479C732.513 381.104 733.253 383.611 734.196 386C735.138 388.355 736.332 390.458 737.779 392.309C739.226 394.126 740.976 395.556 743.028 396.599C742.557 397.003 742.069 397.491 741.565 398.063C741.06 398.669 740.572 399.291 740.101 399.931C739.63 400.57 739.243 401.176 738.94 401.748C736.719 400.334 734.835 398.517 733.287 396.297C731.773 394.076 730.528 391.535 729.552 388.675C728.576 385.781 727.769 382.669 727.129 379.338L731.975 378.479ZM695.685 358.492H719.356V363.438H695.685V358.492ZM694.978 380.498H719.962V385.445H694.978V380.498ZM696.946 365.962H718.246V370.858H696.946V365.962ZM697.249 373.23H717.943V378.126H697.249V373.23ZM704.77 354.757H710.423V369.192H704.77V354.757ZM698.208 386.404L703.155 387.565C702.65 389.415 702.027 391.333 701.287 393.319C700.547 395.27 699.823 396.936 699.117 398.315C698.578 397.979 697.821 397.609 696.845 397.205C695.903 396.801 695.113 396.498 694.473 396.297C695.213 394.984 695.92 393.436 696.593 391.653C697.266 389.836 697.804 388.086 698.208 386.404ZM711.886 388.069L716.379 386.303C716.816 387.144 717.237 388.036 717.64 388.978C718.078 389.886 718.482 390.795 718.852 391.703C719.222 392.612 719.491 393.42 719.659 394.126L714.915 396.145C714.747 395.438 714.494 394.631 714.158 393.722C713.821 392.78 713.451 391.821 713.047 390.845C712.677 389.836 712.29 388.911 711.886 388.069ZM723.899 363.539H738.132V369.041H723.899V363.539ZM722.94 354.505L728.845 355.312C728.442 358.374 727.903 361.369 727.23 364.297C726.591 367.19 725.817 369.899 724.909 372.423C724 374.913 722.957 377.117 721.779 379.035C721.443 378.698 720.972 378.294 720.366 377.823C719.76 377.352 719.138 376.898 718.498 376.461C717.859 375.989 717.304 375.619 716.833 375.35C717.977 373.735 718.936 371.817 719.71 369.596C720.517 367.375 721.174 364.986 721.678 362.429C722.217 359.838 722.637 357.197 722.94 354.505ZM736.568 363.539H737.426L738.385 363.338L742.524 364.448C742.221 366.13 741.851 367.846 741.413 369.596C741.009 371.346 740.572 373.028 740.101 374.644C739.664 376.259 739.226 377.672 738.789 378.883L733.893 377.42C734.229 376.309 734.566 375.014 734.902 373.533C735.239 372.053 735.542 370.538 735.811 368.991C736.114 367.409 736.366 365.895 736.568 364.448V363.539ZM704.82 382.517H710.524V401.798H704.82V382.517Z" stroke="white" stroke-width="10" stroke-linejoin="round" mask="url(#path-23-outside-1_1270_20812)"/>
<path d="M746.814 385.293H791.836V390.29H746.814V385.293ZM746.965 362.681H791.685V367.426H746.965V362.681ZM749.035 371.868H789.716V376.461H749.035V371.868ZM751.508 378.732H787.394V383.073H751.508V378.732ZM766.145 374.088H772.151V401.849H766.145V374.088ZM761.855 354.353H767.508V365.054H761.855V354.353ZM771.192 354.353H776.946V364.7H771.192V354.353ZM782.852 354.808L789.161 356.322C788.353 357.701 787.546 359.047 786.738 360.36C785.931 361.638 785.19 362.732 784.517 363.64L779.621 362.126C780.025 361.453 780.429 360.696 780.833 359.855C781.237 358.98 781.607 358.105 781.943 357.23C782.313 356.322 782.616 355.514 782.852 354.808ZM776.644 367.022L783.054 368.637C782.313 369.512 781.59 370.303 780.883 371.009C780.21 371.682 779.571 372.288 778.965 372.826L773.817 371.312C774.322 370.673 774.827 369.95 775.331 369.142C775.87 368.334 776.307 367.628 776.644 367.022ZM750.65 356.423L755.849 354.656C756.589 355.699 757.329 356.911 758.069 358.29C758.81 359.636 759.348 360.797 759.685 361.773L754.183 363.792C753.914 362.782 753.426 361.588 752.719 360.208C752.046 358.829 751.356 357.567 750.65 356.423ZM756.505 368.183L762.208 366.921C762.646 367.56 763.083 368.284 763.521 369.091C763.992 369.899 764.345 370.623 764.58 371.262L758.625 372.675C758.456 372.069 758.154 371.346 757.716 370.505C757.312 369.63 756.909 368.856 756.505 368.183ZM760.644 391.956L764.934 393.924C763.823 394.866 762.427 395.775 760.744 396.65C759.096 397.525 757.363 398.299 755.546 398.972C753.729 399.678 751.945 400.233 750.196 400.637C749.825 399.998 749.287 399.241 748.58 398.366C747.874 397.491 747.218 396.801 746.612 396.297C748.294 396.027 750.027 395.674 751.811 395.237C753.594 394.799 755.26 394.294 756.808 393.722C758.355 393.15 759.634 392.562 760.644 391.956ZM774.322 394.479L778.36 391.603C779.739 392.141 781.253 392.747 782.902 393.42C784.585 394.093 786.2 394.782 787.748 395.489C789.329 396.162 790.658 396.784 791.735 397.356L787.445 400.637C786.469 400.099 785.224 399.46 783.71 398.719C782.196 397.979 780.597 397.239 778.915 396.498C777.266 395.758 775.735 395.085 774.322 394.479Z" stroke="white" stroke-width="10" stroke-linejoin="round" mask="url(#path-23-outside-1_1270_20812)"/>
<path d="M797.186 356.726H813.691V361.823H797.186V356.726ZM817.375 382.719H837.868V387.716H817.375V382.719ZM796.479 372.17H815.256V377.42H796.479V372.17ZM804.707 374.341H810.41V395.287C810.41 396.667 810.259 397.777 809.956 398.618C809.687 399.46 809.115 400.116 808.24 400.587C807.365 401.024 806.339 401.31 805.161 401.445C803.983 401.579 802.62 401.647 801.073 401.647C800.972 400.805 800.753 399.83 800.416 398.719C800.08 397.642 799.71 396.7 799.306 395.893C800.282 395.926 801.207 395.943 802.082 395.943C802.957 395.943 803.563 395.943 803.899 395.943C804.202 395.91 804.404 395.859 804.505 395.792C804.639 395.691 804.707 395.489 804.707 395.186V374.341ZM835.95 382.719H842.057C842.057 382.719 842.04 383.005 842.006 383.577C841.973 384.116 841.922 384.587 841.855 384.991C841.619 387.918 841.333 390.341 840.997 392.259C840.694 394.143 840.358 395.657 839.987 396.801C839.617 397.912 839.18 398.736 838.675 399.274C838.137 399.846 837.565 400.25 836.959 400.486C836.387 400.755 835.731 400.957 834.991 401.091C834.385 401.159 833.577 401.192 832.568 401.192C831.558 401.226 830.465 401.226 829.287 401.192C829.253 400.318 829.085 399.359 828.782 398.315C828.513 397.272 828.143 396.364 827.672 395.59C828.58 395.691 829.422 395.758 830.196 395.792C831.003 395.825 831.609 395.842 832.013 395.842C832.416 395.842 832.736 395.809 832.972 395.741C833.207 395.64 833.443 395.489 833.678 395.287C833.981 394.984 834.267 394.412 834.536 393.571C834.805 392.696 835.058 391.434 835.293 389.785C835.529 388.137 835.748 386.034 835.95 383.476V382.719ZM825.249 378.177H831.256C831.02 380.768 830.667 383.241 830.196 385.596C829.758 387.918 829.018 390.088 827.975 392.107C826.932 394.126 825.468 395.96 823.584 397.609C821.733 399.258 819.31 400.671 816.315 401.849C815.979 401.142 815.474 400.318 814.801 399.375C814.128 398.467 813.472 397.727 812.833 397.155C815.457 396.212 817.544 395.085 819.091 393.773C820.673 392.427 821.868 390.946 822.675 389.331C823.516 387.716 824.105 385.966 824.442 384.082C824.812 382.198 825.081 380.229 825.249 378.177ZM798.347 367.224L802.132 363.338C803.512 363.842 804.976 364.448 806.524 365.155C808.105 365.861 809.603 366.585 811.016 367.325C812.463 368.065 813.674 368.789 814.65 369.495L810.562 373.836C809.687 373.129 808.559 372.389 807.18 371.615C805.8 370.808 804.32 370.017 802.738 369.243C801.19 368.469 799.727 367.796 798.347 367.224ZM813.792 372.17H814.549L815.356 371.918L819.041 373.079C818.637 375.367 818.116 377.722 817.476 380.145C816.871 382.568 816.231 384.637 815.558 386.353L811.47 384.435C811.941 382.955 812.379 381.155 812.782 379.035C813.22 376.915 813.556 374.913 813.792 373.028V372.17ZM833.981 362.025L840.29 362.984C839.18 366.08 837.615 368.738 835.596 370.959C833.611 373.146 831.256 374.963 828.53 376.41C825.804 377.857 822.776 379.052 819.445 379.994C819.243 379.556 818.906 379.018 818.435 378.379C817.998 377.739 817.527 377.117 817.022 376.511C816.551 375.872 816.114 375.367 815.71 374.997C818.805 374.358 821.581 373.483 824.038 372.372C826.528 371.262 828.614 369.865 830.297 368.183C832.013 366.467 833.241 364.414 833.981 362.025ZM823.937 354.353L829.539 355.968C828.732 357.752 827.756 359.502 826.612 361.218C825.468 362.934 824.257 364.549 822.978 366.063C821.733 367.544 820.454 368.822 819.142 369.899C818.772 369.563 818.284 369.192 817.678 368.789C817.073 368.351 816.467 367.931 815.861 367.527C815.256 367.123 814.717 366.787 814.246 366.517C816.231 365.104 818.082 363.321 819.798 361.167C821.514 358.98 822.894 356.709 823.937 354.353ZM824.593 363.338C825.771 365.222 827.302 366.938 829.186 368.486C831.104 370.034 833.308 371.363 835.798 372.473C838.322 373.55 841.047 374.374 843.975 374.946C843.571 375.317 843.117 375.821 842.612 376.461C842.141 377.066 841.687 377.689 841.249 378.328C840.812 378.967 840.442 379.539 840.139 380.044C837.043 379.27 834.2 378.177 831.609 376.763C829.052 375.35 826.747 373.651 824.694 371.666C822.675 369.68 820.976 367.426 819.596 364.902L824.593 363.338ZM804.151 373.987L808.038 375.451C807.399 377.672 806.591 379.943 805.615 382.265C804.673 384.587 803.596 386.74 802.385 388.726C801.174 390.711 799.844 392.376 798.397 393.722C798.128 392.848 797.708 391.855 797.136 390.744C796.597 389.634 796.093 388.675 795.621 387.868C796.833 386.791 797.977 385.495 799.054 383.981C800.164 382.467 801.157 380.852 802.032 379.136C802.906 377.386 803.613 375.67 804.151 373.987ZM823.785 359.552H842.662V364.549H821.363L823.785 359.552ZM812.278 356.726H813.539L814.498 356.524L818.334 358.896C817.594 360.107 816.686 361.352 815.609 362.631C814.532 363.91 813.371 365.121 812.126 366.265C810.915 367.375 809.703 368.351 808.492 369.192C807.954 368.688 807.298 368.166 806.524 367.628C805.783 367.089 805.11 366.635 804.505 366.265C805.582 365.525 806.608 364.667 807.584 363.691C808.593 362.681 809.502 361.655 810.309 360.612C811.15 359.569 811.807 358.627 812.278 357.785V356.726Z" stroke="white" stroke-width="10" stroke-linejoin="round" mask="url(#path-23-outside-1_1270_20812)"/>
</g>
<path d="M653.772 435.952L670.124 434.972L670.32 436.96L653.996 437.968L653.772 435.952ZM657.272 432.368H659.736C659.904 433.469 660.249 434.487 660.772 435.42C661.295 436.335 661.939 437.137 662.704 437.828C663.469 438.5 664.272 439.023 665.112 439.396C665.952 439.751 666.773 439.919 667.576 439.9C667.968 439.9 668.229 439.76 668.36 439.48C668.491 439.181 668.593 438.649 668.668 437.884C668.911 438.089 669.219 438.276 669.592 438.444C669.984 438.612 670.339 438.743 670.656 438.836C670.525 439.751 670.339 440.46 670.096 440.964C669.853 441.449 669.517 441.785 669.088 441.972C668.677 442.14 668.136 442.224 667.464 442.224C666.568 442.224 665.663 442.075 664.748 441.776C663.833 441.459 662.956 441.02 662.116 440.46C661.295 439.9 660.539 439.219 659.848 438.416C659.176 437.595 658.616 436.68 658.168 435.672C657.72 434.645 657.421 433.544 657.272 432.368ZM662.004 433.656L663.236 432.312C663.777 432.424 664.347 432.564 664.944 432.732C665.56 432.9 666.148 433.096 666.708 433.32C667.287 433.525 667.763 433.731 668.136 433.936L666.82 435.42C666.465 435.215 666.008 435 665.448 434.776C664.907 434.552 664.337 434.347 663.74 434.16C663.143 433.955 662.564 433.787 662.004 433.656ZM652.904 432.2L655.284 433.096C654.575 433.992 653.735 434.86 652.764 435.7C651.793 436.521 650.785 437.287 649.74 437.996C648.713 438.687 647.696 439.293 646.688 439.816C646.557 439.648 646.371 439.443 646.128 439.2C645.904 438.957 645.661 438.724 645.4 438.5C645.157 438.257 644.943 438.061 644.756 437.912C645.783 437.464 646.8 436.951 647.808 436.372C648.816 435.775 649.759 435.121 650.636 434.412C651.532 433.684 652.288 432.947 652.904 432.2ZM650.188 436.344L651.924 434.58L652.736 434.832V441.636H650.188V436.344ZM651.532 447.264V448.86H664.804V447.264H651.532ZM651.532 450.456V452.08H664.804V450.456H651.532ZM651.532 444.072V445.64H664.804V444.072H651.532ZM648.956 442.392H667.464V453.76H648.956V442.392ZM660.016 455.216L662.2 453.9C663.208 454.236 664.235 454.6 665.28 454.992C666.325 455.365 667.315 455.739 668.248 456.112C669.181 456.485 669.984 456.84 670.656 457.176L667.632 458.436C667.072 458.119 666.381 457.773 665.56 457.4C664.757 457.045 663.88 456.672 662.928 456.28C661.976 455.907 661.005 455.552 660.016 455.216ZM653.576 453.816L656.012 454.936C655.247 455.384 654.369 455.832 653.38 456.28C652.391 456.728 651.364 457.129 650.3 457.484C649.255 457.857 648.256 458.184 647.304 458.464C647.173 458.277 646.987 458.053 646.744 457.792C646.52 457.549 646.277 457.307 646.016 457.064C645.773 456.821 645.549 456.625 645.344 456.476C646.315 456.289 647.304 456.065 648.312 455.804C649.339 455.524 650.309 455.216 651.224 454.88C652.139 454.544 652.923 454.189 653.576 453.816ZM690.704 441.832H693.196V443.204C693.196 444.231 693.14 445.379 693.028 446.648C692.916 447.917 692.673 449.233 692.3 450.596C691.927 451.94 691.348 453.284 690.564 454.628C689.799 455.953 688.763 457.213 687.456 458.408C687.307 458.221 687.111 458.016 686.868 457.792C686.644 457.568 686.401 457.344 686.14 457.12C685.897 456.915 685.664 456.747 685.44 456.616C686.653 455.552 687.615 454.432 688.324 453.256C689.033 452.061 689.556 450.867 689.892 449.672C690.228 448.477 690.443 447.32 690.536 446.2C690.648 445.08 690.704 444.053 690.704 443.12V441.832ZM693 445.248C693.317 446.835 693.747 448.347 694.288 449.784C694.829 451.203 695.511 452.463 696.332 453.564C697.172 454.647 698.161 455.487 699.3 456.084C699.113 456.252 698.899 456.467 698.656 456.728C698.432 456.989 698.217 457.26 698.012 457.54C697.807 457.82 697.639 458.081 697.508 458.324C696.276 457.559 695.231 456.541 694.372 455.272C693.513 454.003 692.804 452.547 692.244 450.904C691.684 449.261 691.236 447.497 690.9 445.612L693 445.248ZM673.344 434.86H686.364V437.044H673.344V434.86ZM672.98 446.928H686.644V449.14H672.98V446.928ZM673.988 439.032H685.776V441.216H673.988V439.032ZM674.24 442.952H685.496V445.136H674.24V442.952ZM678.608 432.48H681.1V440.432H678.608V432.48ZM675.08 449.896L677.292 450.456C676.956 451.483 676.564 452.547 676.116 453.648C675.668 454.731 675.229 455.655 674.8 456.42C674.557 456.271 674.221 456.103 673.792 455.916C673.381 455.729 673.027 455.589 672.728 455.496C673.176 454.731 673.605 453.853 674.016 452.864C674.445 451.856 674.8 450.867 675.08 449.896ZM682.388 450.652L684.376 449.896C684.619 450.344 684.871 450.839 685.132 451.38C685.393 451.903 685.636 452.416 685.86 452.92C686.084 453.424 686.261 453.863 686.392 454.236L684.264 455.188C684.152 454.796 683.993 454.348 683.788 453.844C683.583 453.321 683.359 452.78 683.116 452.22C682.873 451.66 682.631 451.137 682.388 450.652ZM688.744 437.436H696.976V439.844H688.744V437.436ZM688.576 432.396L691.18 432.76C690.956 434.403 690.657 436.008 690.284 437.576C689.929 439.144 689.509 440.609 689.024 441.972C688.539 443.316 687.988 444.501 687.372 445.528C687.223 445.397 687.008 445.229 686.728 445.024C686.467 444.819 686.196 444.623 685.916 444.436C685.636 444.231 685.393 444.072 685.188 443.96C685.804 443.045 686.327 441.972 686.756 440.74C687.204 439.508 687.577 438.183 687.876 436.764C688.175 435.327 688.408 433.871 688.576 432.396ZM696.276 437.436H696.668L697.088 437.324L698.88 437.856C698.712 438.733 698.507 439.639 698.264 440.572C698.04 441.487 697.797 442.373 697.536 443.232C697.293 444.072 697.051 444.819 696.808 445.472L694.652 444.828C694.857 444.231 695.063 443.54 695.268 442.756C695.473 441.953 695.66 441.132 695.828 440.292C696.015 439.433 696.164 438.631 696.276 437.884V437.436ZM678.636 447.824H681.128V458.324H678.636V447.824ZM709.716 445.92H719.236V454.404H709.716V452.192H716.744V448.104H709.716V445.92ZM708.568 445.92H711.004V456.028H708.568V445.92ZM703.696 437.576H711.144V439.424H703.696V437.576ZM716.66 437.576H724.192V439.424H716.66V437.576ZM723.072 433.516H725.732V455.02C725.732 455.823 725.629 456.439 725.424 456.868C725.237 457.297 724.883 457.633 724.36 457.876C723.837 458.1 723.147 458.231 722.288 458.268C721.429 458.324 720.375 458.352 719.124 458.352C719.087 458.091 719.012 457.792 718.9 457.456C718.807 457.139 718.695 456.812 718.564 456.476C718.452 456.159 718.331 455.879 718.2 455.636C718.779 455.673 719.348 455.692 719.908 455.692C720.487 455.692 720.991 455.692 721.42 455.692C721.868 455.692 722.185 455.692 722.372 455.692C722.633 455.673 722.811 455.617 722.904 455.524C723.016 455.412 723.072 455.235 723.072 454.992V433.516ZM703.92 433.516H712.824V443.652H703.92V441.58H710.332V435.588H703.92V433.516ZM724.472 433.516V435.56H717.612V441.608H724.472V443.652H715.092V433.516H724.472ZM702.436 433.516H705.04V458.38H702.436V433.516ZM733.096 438.864V440.656H737.94V438.864H733.096ZM733.096 435.336V437.1H737.94V435.336H733.096ZM730.744 433.516H740.404V442.504H730.744V433.516ZM729.26 444.38H741.888V446.368H729.26V444.38ZM741.72 433.656H754.572V435.588H741.72V433.656ZM734.664 444.996H736.932V455.916L734.664 454.6V444.996ZM735.84 449.056H741.384V451.044H735.84V449.056ZM747.208 434.132L749.644 434.636C749.345 435.364 749.047 436.111 748.748 436.876C748.449 437.641 748.16 438.295 747.88 438.836L745.948 438.332C746.191 437.735 746.424 437.044 746.648 436.26C746.891 435.457 747.077 434.748 747.208 434.132ZM745.108 442.84V444.576H751.1V442.84H745.108ZM745.108 446.368V448.132H751.1V446.368H745.108ZM745.108 439.312V441.048H751.1V439.312H745.108ZM742.728 437.436H753.564V450.008H742.728V437.436ZM745.024 450.372L747.236 451.044C746.62 451.828 745.855 452.593 744.94 453.34C744.025 454.087 743.129 454.703 742.252 455.188C742.14 455.039 741.972 454.861 741.748 454.656C741.543 454.451 741.328 454.255 741.104 454.068C740.899 453.863 740.703 453.704 740.516 453.592C741.375 453.2 742.215 452.724 743.036 452.164C743.857 451.585 744.52 450.988 745.024 450.372ZM730.884 447.712H733.068C733.031 449.112 732.928 450.475 732.76 451.8C732.592 453.125 732.321 454.367 731.948 455.524C731.575 456.663 731.052 457.643 730.38 458.464C730.212 458.203 729.969 457.895 729.652 457.54C729.335 457.185 729.036 456.905 728.756 456.7C729.316 456.047 729.745 455.235 730.044 454.264C730.343 453.293 730.548 452.248 730.66 451.128C730.772 449.989 730.847 448.851 730.884 447.712ZM732.62 450.288C733.068 451.483 733.656 452.435 734.384 453.144C735.112 453.853 735.971 454.395 736.96 454.768C737.949 455.123 739.069 455.356 740.32 455.468C741.571 455.58 742.952 455.636 744.464 455.636C744.763 455.636 745.257 455.636 745.948 455.636C746.657 455.636 747.451 455.636 748.328 455.636C749.224 455.617 750.129 455.608 751.044 455.608C751.959 455.608 752.78 455.608 753.508 455.608C754.255 455.589 754.824 455.571 755.216 455.552C755.029 455.813 754.843 456.159 754.656 456.588C754.488 457.036 754.376 457.428 754.32 457.764H752.276H744.464C742.709 457.764 741.123 457.68 739.704 457.512C738.285 457.363 737.025 457.045 735.924 456.56C734.823 456.093 733.861 455.403 733.04 454.488C732.237 453.555 731.565 452.332 731.024 450.82L732.62 450.288ZM748.944 451.268L750.764 450.26C751.305 450.596 751.847 450.979 752.388 451.408C752.929 451.837 753.433 452.267 753.9 452.696C754.367 453.107 754.749 453.489 755.048 453.844L753.144 455.02C752.845 454.647 752.463 454.236 751.996 453.788C751.529 453.34 751.025 452.892 750.484 452.444C749.961 451.996 749.448 451.604 748.944 451.268ZM774.004 444.072L776.692 444.856C775.647 447.376 774.265 449.523 772.548 451.296C770.849 453.051 768.852 454.497 766.556 455.636C764.26 456.756 761.703 457.671 758.884 458.38C758.791 458.175 758.651 457.923 758.464 457.624C758.277 457.325 758.072 457.027 757.848 456.728C757.643 456.429 757.456 456.187 757.288 456C760.051 455.44 762.533 454.665 764.736 453.676C766.939 452.668 768.824 451.38 770.392 449.812C771.96 448.244 773.164 446.331 774.004 444.072ZM764.652 439.284L767.228 440.292C766.575 441.095 765.828 441.897 764.988 442.7C764.167 443.503 763.308 444.259 762.412 444.968C761.516 445.659 760.657 446.275 759.836 446.816C759.687 446.629 759.481 446.415 759.22 446.172C758.959 445.929 758.697 445.687 758.436 445.444C758.175 445.183 757.941 444.987 757.736 444.856C758.576 444.408 759.416 443.885 760.256 443.288C761.115 442.672 761.927 442.028 762.692 441.356C763.457 440.665 764.111 439.975 764.652 439.284ZM766.108 444.212C767.396 447.348 769.44 449.896 772.24 451.856C775.04 453.797 778.568 455.113 782.824 455.804C782.656 455.972 782.46 456.196 782.236 456.476C782.031 456.775 781.835 457.073 781.648 457.372C781.461 457.671 781.312 457.941 781.2 458.184C778.232 457.624 775.628 456.775 773.388 455.636C771.167 454.479 769.253 453.013 767.648 451.24C766.061 449.467 764.755 447.376 763.728 444.968L766.108 444.212ZM757.764 436.092H782.18V438.668H757.764V436.092ZM773.024 440.712L775.124 439.2C775.945 439.76 776.813 440.395 777.728 441.104C778.661 441.813 779.539 442.523 780.36 443.232C781.181 443.941 781.844 444.595 782.348 445.192L780.108 446.928C779.641 446.331 779.016 445.668 778.232 444.94C777.448 444.193 776.599 443.456 775.684 442.728C774.769 441.981 773.883 441.309 773.024 440.712ZM767.48 432.928L770 432.06C770.392 432.639 770.784 433.283 771.176 433.992C771.568 434.701 771.857 435.308 772.044 435.812L769.412 436.82C769.244 436.297 768.973 435.672 768.6 434.944C768.245 434.216 767.872 433.544 767.48 432.928ZM798.28 441.468H807.548V443.876H798.28V441.468ZM798.252 454.6H807.856V456.98H798.252V454.6ZM796.992 446.676H809.284V458.38H806.596V449.028H799.568V458.408H796.992V446.676ZM803.852 433.264C804.412 434.328 805.112 435.411 805.952 436.512C806.792 437.595 807.707 438.593 808.696 439.508C809.685 440.423 810.665 441.179 811.636 441.776C811.412 441.944 811.179 442.159 810.936 442.42C810.693 442.663 810.451 442.924 810.208 443.204C809.984 443.465 809.797 443.708 809.648 443.932C808.696 443.204 807.725 442.317 806.736 441.272C805.765 440.208 804.851 439.06 803.992 437.828C803.133 436.577 802.396 435.336 801.78 434.104L803.852 433.264ZM802.172 432.368L804.608 433.096C803.731 435.317 802.564 437.399 801.108 439.34C799.652 441.263 797.963 442.905 796.04 444.268C795.909 444.081 795.732 443.867 795.508 443.624C795.303 443.381 795.079 443.148 794.836 442.924C794.593 442.681 794.379 442.495 794.192 442.364C795.405 441.561 796.525 440.628 797.552 439.564C798.579 438.481 799.484 437.333 800.268 436.12C801.052 434.888 801.687 433.637 802.172 432.368ZM791.98 443.624L793.996 443.008C794.257 443.643 794.5 444.324 794.724 445.052C794.967 445.761 795.181 446.452 795.368 447.124C795.573 447.796 795.732 448.375 795.844 448.86L793.688 449.616C793.613 449.093 793.483 448.487 793.296 447.796C793.128 447.105 792.932 446.396 792.708 445.668C792.484 444.94 792.241 444.259 791.98 443.624ZM789.404 450.876L791.448 450.512C791.635 451.501 791.803 452.575 791.952 453.732C792.101 454.871 792.195 455.869 792.232 456.728L790.104 457.148C790.104 456.588 790.067 455.944 789.992 455.216C789.917 454.488 789.824 453.751 789.712 453.004C789.619 452.239 789.516 451.529 789.404 450.876ZM786.156 450.596L788.452 450.96C788.303 452.229 788.107 453.508 787.864 454.796C787.64 456.065 787.379 457.148 787.08 458.044C786.893 457.932 786.66 457.829 786.38 457.736C786.119 457.643 785.848 457.549 785.568 457.456C785.307 457.363 785.073 457.288 784.868 457.232C785.204 456.373 785.475 455.347 785.68 454.152C785.885 452.939 786.044 451.753 786.156 450.596ZM785.652 443.12C785.615 442.952 785.549 442.728 785.456 442.448C785.363 442.149 785.26 441.851 785.148 441.552C785.036 441.235 784.933 440.973 784.84 440.768C785.101 440.712 785.353 440.553 785.596 440.292C785.857 440.012 786.137 439.657 786.436 439.228C786.641 438.948 786.959 438.453 787.388 437.744C787.836 437.016 788.303 436.167 788.788 435.196C789.292 434.207 789.74 433.208 790.132 432.2L792.54 433.208C791.812 434.757 790.972 436.297 790.02 437.828C789.087 439.34 788.144 440.656 787.192 441.776V441.832C787.192 441.832 787.117 441.879 786.968 441.972C786.819 442.065 786.632 442.177 786.408 442.308C786.203 442.439 786.025 442.579 785.876 442.728C785.727 442.859 785.652 442.989 785.652 443.12ZM785.652 443.12L785.596 441.244L786.744 440.516L791.672 440.124C791.616 440.46 791.56 440.833 791.504 441.244C791.467 441.655 791.448 441.981 791.448 442.224C790.328 442.355 789.413 442.467 788.704 442.56C788.013 442.635 787.463 442.709 787.052 442.784C786.66 442.84 786.361 442.896 786.156 442.952C785.951 443.008 785.783 443.064 785.652 443.12ZM785.848 449.532C785.811 449.345 785.736 449.103 785.624 448.804C785.531 448.505 785.428 448.197 785.316 447.88C785.204 447.563 785.101 447.292 785.008 447.068C785.344 447.012 785.68 446.825 786.016 446.508C786.352 446.172 786.735 445.743 787.164 445.22C787.407 444.977 787.743 444.567 788.172 443.988C788.62 443.409 789.115 442.728 789.656 441.944C790.197 441.141 790.748 440.273 791.308 439.34C791.868 438.407 792.372 437.473 792.82 436.54L795.088 437.94C794.379 439.172 793.604 440.404 792.764 441.636C791.943 442.868 791.075 444.044 790.16 445.164C789.264 446.265 788.359 447.264 787.444 448.16V448.244C787.444 448.244 787.36 448.291 787.192 448.384C787.043 448.459 786.856 448.561 786.632 448.692C786.427 448.823 786.24 448.963 786.072 449.112C785.923 449.261 785.848 449.401 785.848 449.532ZM785.848 449.532L785.764 447.628L786.94 446.844L794.332 445.892C794.276 446.209 794.229 446.573 794.192 446.984C794.173 447.395 794.173 447.731 794.192 447.992C792.512 448.235 791.159 448.44 790.132 448.608C789.105 448.776 788.303 448.916 787.724 449.028C787.164 449.121 786.744 449.205 786.464 449.28C786.203 449.355 785.997 449.439 785.848 449.532ZM792.4 450.316L794.304 449.728C794.621 450.549 794.929 451.455 795.228 452.444C795.527 453.415 795.741 454.255 795.872 454.964L793.884 455.664C793.753 454.955 793.539 454.096 793.24 453.088C792.96 452.08 792.68 451.156 792.4 450.316ZM828.044 443.848H830.76V454.18C830.76 454.684 830.835 455.011 830.984 455.16C831.133 455.291 831.469 455.356 831.992 455.356C832.104 455.356 832.3 455.356 832.58 455.356C832.86 455.356 833.168 455.356 833.504 455.356C833.84 455.356 834.157 455.356 834.456 455.356C834.755 455.356 834.988 455.356 835.156 455.356C835.492 455.356 835.744 455.235 835.912 454.992C836.099 454.749 836.229 454.283 836.304 453.592C836.397 452.883 836.453 451.828 836.472 450.428C836.696 450.577 836.948 450.736 837.228 450.904C837.527 451.053 837.825 451.184 838.124 451.296C838.441 451.408 838.721 451.501 838.964 451.576C838.871 453.2 838.703 454.469 838.46 455.384C838.236 456.299 837.881 456.943 837.396 457.316C836.911 457.689 836.229 457.876 835.352 457.876C835.221 457.876 834.979 457.876 834.624 457.876C834.269 457.876 833.887 457.876 833.476 457.876C833.065 457.876 832.683 457.876 832.328 457.876C831.992 457.876 831.749 457.876 831.6 457.876C830.667 457.876 829.939 457.764 829.416 457.54C828.912 457.316 828.557 456.933 828.352 456.392C828.147 455.851 828.044 455.113 828.044 454.18V443.848ZM813.568 442.196H838.488V444.772H813.568V442.196ZM816.088 434.44H836.024V437.016H816.088V434.44ZM820.428 444.212H823.256C823.144 445.761 822.948 447.236 822.668 448.636C822.407 450.036 821.987 451.343 821.408 452.556C820.829 453.751 820.008 454.833 818.944 455.804C817.88 456.775 816.489 457.596 814.772 458.268C814.623 457.951 814.389 457.587 814.072 457.176C813.755 456.765 813.437 456.429 813.12 456.168C814.669 455.589 815.901 454.889 816.816 454.068C817.749 453.247 818.459 452.323 818.944 451.296C819.429 450.269 819.775 449.159 819.98 447.964C820.185 446.769 820.335 445.519 820.428 444.212ZM856.212 446.116H858.872V454.376C858.872 454.824 858.937 455.113 859.068 455.244C859.217 455.356 859.544 455.412 860.048 455.412C860.16 455.412 860.347 455.412 860.608 455.412C860.888 455.412 861.196 455.412 861.532 455.412C861.868 455.412 862.176 455.412 862.456 455.412C862.755 455.412 862.969 455.412 863.1 455.412C863.417 455.412 863.66 455.319 863.828 455.132C863.996 454.927 864.108 454.544 864.164 453.984C864.239 453.405 864.295 452.528 864.332 451.352C864.519 451.501 864.752 451.651 865.032 451.8C865.331 451.931 865.629 452.052 865.928 452.164C866.245 452.276 866.516 452.36 866.74 452.416C866.665 453.872 866.507 455.001 866.264 455.804C866.04 456.588 865.695 457.139 865.228 457.456C864.78 457.773 864.145 457.932 863.324 457.932C863.193 457.932 862.951 457.932 862.596 457.932C862.26 457.932 861.896 457.932 861.504 457.932C861.112 457.932 860.748 457.932 860.412 457.932C860.076 457.932 859.833 457.932 859.684 457.932C858.751 457.932 858.032 457.82 857.528 457.596C857.043 457.391 856.697 457.027 856.492 456.504C856.305 455.981 856.212 455.272 856.212 454.376V446.116ZM841.624 444.212H866.432V446.76H841.624V444.212ZM846.244 436.484H864.332V439.032H846.244V436.484ZM848.736 446.172H851.48C851.349 447.553 851.135 448.86 850.836 450.092C850.537 451.324 850.08 452.472 849.464 453.536C848.867 454.581 848.036 455.515 846.972 456.336C845.927 457.176 844.564 457.895 842.884 458.492C842.791 458.249 842.651 457.988 842.464 457.708C842.277 457.447 842.072 457.176 841.848 456.896C841.643 456.616 841.437 456.392 841.232 456.224C842.744 455.739 843.967 455.16 844.9 454.488C845.833 453.797 846.552 453.023 847.056 452.164C847.579 451.305 847.961 450.381 848.204 449.392C848.447 448.384 848.624 447.311 848.736 446.172ZM846.552 432.9L849.24 433.432C848.941 434.515 848.577 435.644 848.148 436.82C847.737 437.996 847.261 439.135 846.72 440.236C846.197 441.337 845.609 442.299 844.956 443.12C844.751 442.989 844.508 442.849 844.228 442.7C843.948 442.532 843.668 442.383 843.388 442.252C843.108 442.103 842.856 441.991 842.632 441.916C843.267 441.113 843.836 440.199 844.34 439.172C844.844 438.145 845.283 437.091 845.656 436.008C846.029 434.907 846.328 433.871 846.552 432.9ZM852.684 432.368H855.372V444.996H852.684V432.368ZM873.824 437.66H893.256V440.236H873.824V437.66ZM872.62 445.864H892.22V448.412H872.62V445.864ZM869.484 454.908H894.628V457.484H869.484V454.908ZM880.684 432.368H883.428V456.196H880.684V432.368ZM874.3 432.76L877.044 433.376C876.633 434.813 876.139 436.232 875.56 437.632C875 439.013 874.384 440.301 873.712 441.496C873.04 442.672 872.34 443.708 871.612 444.604C871.425 444.455 871.183 444.287 870.884 444.1C870.604 443.895 870.315 443.699 870.016 443.512C869.717 443.307 869.447 443.148 869.204 443.036C869.969 442.215 870.669 441.263 871.304 440.18C871.939 439.079 872.508 437.893 873.012 436.624C873.535 435.355 873.964 434.067 874.3 432.76ZM907.676 451.072L906.948 449.252C908.105 448.823 908.992 448.263 909.608 447.572C910.224 446.881 910.532 446.06 910.532 445.108L910.14 442.56L911.68 444.856C911.456 445.08 911.204 445.248 910.924 445.36C910.663 445.453 910.392 445.5 910.112 445.5C909.477 445.5 908.927 445.313 908.46 444.94C907.993 444.548 907.76 443.988 907.76 443.26C907.76 442.551 907.993 442 908.46 441.608C908.945 441.216 909.505 441.02 910.14 441.02C911.017 441.02 911.68 441.337 912.128 441.972C912.595 442.607 912.828 443.456 912.828 444.52C912.828 446.069 912.361 447.423 911.428 448.58C910.513 449.719 909.263 450.549 907.676 451.072ZM649.74 482.208H668.752V484.504H649.74V482.208ZM646.044 472.044H664.44V474.452H646.044V472.044ZM654.08 477.14H666.876V479.464H654.08V477.14ZM667.688 482.208H670.348C670.348 482.208 670.339 482.283 670.32 482.432C670.32 482.563 670.311 482.712 670.292 482.88C670.273 483.048 670.255 483.188 670.236 483.3C670.087 485.223 669.919 486.8 669.732 488.032C669.564 489.264 669.359 490.225 669.116 490.916C668.892 491.607 668.631 492.111 668.332 492.428C668.052 492.745 667.744 492.96 667.408 493.072C667.091 493.203 666.717 493.287 666.288 493.324C665.915 493.361 665.401 493.38 664.748 493.38C664.113 493.38 663.441 493.371 662.732 493.352C662.713 492.979 662.629 492.559 662.48 492.092C662.349 491.644 662.181 491.252 661.976 490.916C662.648 490.972 663.273 491.009 663.852 491.028C664.431 491.047 664.851 491.056 665.112 491.056C665.355 491.056 665.551 491.037 665.7 491C665.868 490.963 666.027 490.879 666.176 490.748C666.381 490.543 666.568 490.151 666.736 489.572C666.904 488.975 667.072 488.116 667.24 486.996C667.408 485.857 667.557 484.392 667.688 482.6V482.208ZM661.584 485.792L663.432 485.148C663.843 485.708 664.235 486.343 664.608 487.052C664.981 487.743 665.252 488.34 665.42 488.844L663.46 489.628C663.311 489.105 663.059 488.489 662.704 487.78C662.349 487.052 661.976 486.389 661.584 485.792ZM649.348 468.348L651.7 467.396C652.241 467.937 652.773 468.563 653.296 469.272C653.837 469.981 654.248 470.597 654.528 471.12L652.008 472.212C651.784 471.671 651.411 471.036 650.888 470.308C650.384 469.58 649.871 468.927 649.348 468.348ZM653.212 486.52L655.368 486.24C655.648 487.136 655.853 488.116 655.984 489.18C656.133 490.225 656.208 491.14 656.208 491.924L653.912 492.232C653.931 491.728 653.912 491.149 653.856 490.496C653.8 489.824 653.716 489.152 653.604 488.48C653.511 487.789 653.38 487.136 653.212 486.52ZM657.384 486.268L659.428 485.792C659.801 486.576 660.128 487.425 660.408 488.34C660.707 489.236 660.912 490.02 661.024 490.692L658.868 491.252C658.775 490.58 658.579 489.777 658.28 488.844C658 487.911 657.701 487.052 657.384 486.268ZM649.572 485.764L651.784 486.492C651.579 487.276 651.336 488.079 651.056 488.9C650.776 489.721 650.431 490.496 650.02 491.224C649.609 491.971 649.124 492.633 648.564 493.212L646.52 491.784C647.024 491.299 647.472 490.729 647.864 490.076C648.256 489.404 648.592 488.695 648.872 487.948C649.171 487.201 649.404 486.473 649.572 485.764ZM657.916 467.34L660.604 468.012C659.988 469.972 659.232 471.904 658.336 473.808C657.459 475.693 656.432 477.495 655.256 479.212C654.099 480.911 652.755 482.488 651.224 483.944C649.712 485.381 648.004 486.641 646.1 487.724C645.988 487.5 645.848 487.248 645.68 486.968C645.512 486.688 645.335 486.417 645.148 486.156C644.98 485.876 644.812 485.643 644.644 485.456C646.399 484.504 647.985 483.365 649.404 482.04C650.823 480.696 652.073 479.231 653.156 477.644C654.239 476.057 655.172 474.396 655.956 472.66C656.759 470.905 657.412 469.132 657.916 467.34ZM663.908 472.044H666.372C666.167 473.052 665.943 474.107 665.7 475.208C665.457 476.291 665.233 477.233 665.028 478.036L662.676 477.672C662.9 476.907 663.124 476.011 663.348 474.984C663.572 473.957 663.759 472.977 663.908 472.044ZM665.868 477.14H668.332C668.145 478.148 667.931 479.203 667.688 480.304C667.464 481.387 667.249 482.311 667.044 483.076L664.692 482.768C664.897 482.003 665.112 481.107 665.336 480.08C665.56 479.035 665.737 478.055 665.868 477.14ZM684.908 467.368L687.344 467.984C686.821 469.477 686.131 470.905 685.272 472.268C684.432 473.612 683.527 474.751 682.556 475.684C682.425 475.516 682.239 475.329 681.996 475.124C681.753 474.919 681.511 474.713 681.268 474.508C681.025 474.303 680.801 474.135 680.596 474.004C681.529 473.201 682.369 472.221 683.116 471.064C683.881 469.888 684.479 468.656 684.908 467.368ZM684.852 475.18L687.288 475.852C686.821 476.953 686.224 478.027 685.496 479.072C684.787 480.117 684.059 480.995 683.312 481.704C683.163 481.573 682.967 481.405 682.724 481.2C682.5 480.995 682.257 480.799 681.996 480.612C681.753 480.425 681.539 480.276 681.352 480.164C682.08 479.529 682.752 478.773 683.368 477.896C683.984 477.019 684.479 476.113 684.852 475.18ZM684.936 469.86H696.668V472.1H684.04L684.936 469.86ZM692.748 476.132L694.848 475.124C695.315 475.684 695.772 476.291 696.22 476.944C696.668 477.597 697.079 478.241 697.452 478.876C697.825 479.492 698.124 480.052 698.348 480.556L696.08 481.76C695.893 481.237 695.613 480.659 695.24 480.024C694.885 479.371 694.484 478.708 694.036 478.036C693.607 477.345 693.177 476.711 692.748 476.132ZM695.94 469.86H696.332L696.752 469.748L698.6 470.196C698.264 471.036 697.891 471.904 697.48 472.8C697.088 473.677 696.724 474.424 696.388 475.04L694.12 474.564C694.419 474.004 694.736 473.313 695.072 472.492C695.427 471.671 695.716 470.896 695.94 470.168V469.86ZM679.476 467.256L681.856 468.068C681.259 469.225 680.559 470.373 679.756 471.512C678.953 472.651 678.104 473.724 677.208 474.732C676.331 475.721 675.435 476.589 674.52 477.336C674.408 477.149 674.249 476.925 674.044 476.664C673.857 476.403 673.652 476.141 673.428 475.88C673.204 475.6 673.008 475.376 672.84 475.208C674.128 474.256 675.36 473.071 676.536 471.652C677.731 470.233 678.711 468.768 679.476 467.256ZM676.928 472.856L679.42 470.364L679.476 470.392V483.552H676.928V472.856ZM679.224 484.924H681.884V489.432C681.884 489.861 682.005 490.132 682.248 490.244C682.509 490.356 683.088 490.412 683.984 490.412C684.133 490.412 684.395 490.412 684.768 490.412C685.141 490.412 685.561 490.412 686.028 490.412C686.513 490.412 686.999 490.412 687.484 490.412C687.969 490.412 688.417 490.412 688.828 490.412C689.239 490.412 689.547 490.412 689.752 490.412C690.256 490.412 690.629 490.347 690.872 490.216C691.115 490.067 691.283 489.768 691.376 489.32C691.488 488.853 691.572 488.163 691.628 487.248C691.815 487.379 692.048 487.519 692.328 487.668C692.627 487.799 692.925 487.911 693.224 488.004C693.541 488.097 693.812 488.163 694.036 488.2C693.943 489.451 693.756 490.412 693.476 491.084C693.215 491.756 692.804 492.213 692.244 492.456C691.703 492.717 690.937 492.848 689.948 492.848C689.78 492.848 689.491 492.848 689.08 492.848C688.669 492.848 688.193 492.848 687.652 492.848C687.129 492.848 686.597 492.848 686.056 492.848C685.515 492.848 685.039 492.848 684.628 492.848C684.217 492.848 683.937 492.848 683.788 492.848C682.575 492.848 681.632 492.745 680.96 492.54C680.307 492.353 679.849 492.008 679.588 491.504C679.345 491.019 679.224 490.347 679.224 489.488V484.924ZM683.564 483.804L685.608 482.684C686.112 483.132 686.616 483.636 687.12 484.196C687.643 484.756 688.119 485.316 688.548 485.876C688.977 486.436 689.313 486.949 689.556 487.416L687.372 488.704C687.148 488.256 686.831 487.743 686.42 487.164C686.009 486.585 685.552 486.007 685.048 485.428C684.563 484.831 684.068 484.289 683.564 483.804ZM693.252 485.316L695.576 484.42C696.024 485.073 696.453 485.792 696.864 486.576C697.275 487.341 697.639 488.097 697.956 488.844C698.273 489.572 698.507 490.225 698.656 490.804L696.136 491.812C696.005 491.233 695.791 490.571 695.492 489.824C695.193 489.077 694.848 488.312 694.456 487.528C694.064 486.725 693.663 485.988 693.252 485.316ZM675.948 484.952L678.3 485.932C678.076 486.567 677.815 487.267 677.516 488.032C677.236 488.779 676.937 489.516 676.62 490.244C676.321 490.972 676.004 491.635 675.668 492.232L673.176 491.056C673.531 490.496 673.876 489.871 674.212 489.18C674.567 488.471 674.893 487.752 675.192 487.024C675.491 486.277 675.743 485.587 675.948 484.952ZM688.996 473.024H691.516V483.44H688.996V473.024ZM713.86 473.836V475.712H722.456V473.836H713.86ZM713.86 470.196V472.072H722.456V470.196H713.86ZM711.452 468.264H724.976V477.672H711.452V468.264ZM710.136 479.38H726.488V481.564H710.136V479.38ZM716.884 480.5H719.376V491.924L716.884 490.888V480.5ZM713.664 485.568C714.149 487.043 714.784 488.144 715.568 488.872C716.352 489.581 717.267 490.057 718.312 490.3C719.376 490.524 720.524 490.636 721.756 490.636C721.961 490.636 722.307 490.636 722.792 490.636C723.277 490.636 723.819 490.636 724.416 490.636C725.013 490.636 725.573 490.636 726.096 490.636C726.637 490.617 727.039 490.608 727.3 490.608C727.207 490.795 727.104 491.028 726.992 491.308C726.88 491.588 726.787 491.868 726.712 492.148C726.637 492.447 726.581 492.717 726.544 492.96H725.396H721.644C720.487 492.96 719.413 492.867 718.424 492.68C717.453 492.512 716.567 492.195 715.764 491.728C714.961 491.261 714.243 490.58 713.608 489.684C712.992 488.769 712.469 487.593 712.04 486.156L713.664 485.568ZM718.676 484.476H725.032V486.604H718.676V484.476ZM711.872 482.656L714.28 482.964C714 485.241 713.487 487.257 712.74 489.012C712.012 490.748 711.023 492.185 709.772 493.324C709.641 493.175 709.455 492.997 709.212 492.792C708.969 492.605 708.717 492.409 708.456 492.204C708.213 492.017 707.999 491.868 707.812 491.756C709.025 490.785 709.949 489.525 710.584 487.976C711.237 486.427 711.667 484.653 711.872 482.656ZM700.728 481.956C701.848 481.676 703.183 481.312 704.732 480.864C706.281 480.416 707.849 479.959 709.436 479.492L709.8 481.9C708.363 482.348 706.897 482.805 705.404 483.272C703.929 483.739 702.576 484.149 701.344 484.504L700.728 481.956ZM701.036 472.856H709.716V475.32H701.036V472.856ZM704.312 467.396H706.748V490.16C706.748 490.813 706.673 491.327 706.524 491.7C706.375 492.073 706.113 492.372 705.74 492.596C705.367 492.801 704.881 492.932 704.284 492.988C703.687 493.063 702.94 493.091 702.044 493.072C702.025 492.755 701.941 492.353 701.792 491.868C701.661 491.401 701.512 490.991 701.344 490.636C701.904 490.655 702.417 490.664 702.884 490.664C703.351 490.664 703.668 490.664 703.836 490.664C704.023 490.664 704.144 490.627 704.2 490.552C704.275 490.477 704.312 490.347 704.312 490.16V467.396ZM735.196 467.424L737.716 468.18C737.119 469.767 736.409 471.344 735.588 472.912C734.767 474.48 733.871 475.955 732.9 477.336C731.948 478.717 730.968 479.94 729.96 481.004C729.885 480.799 729.755 480.528 729.568 480.192C729.4 479.837 729.223 479.492 729.036 479.156C728.849 478.801 728.672 478.521 728.504 478.316C729.381 477.42 730.231 476.393 731.052 475.236C731.892 474.079 732.667 472.837 733.376 471.512C734.085 470.168 734.692 468.805 735.196 467.424ZM732.284 474.9L734.888 472.324L734.916 472.352V493.324H732.284V474.9ZM737.436 473.136H754.712V475.656H737.436V473.136ZM736.764 482.012H754.992V484.588H736.764V482.012ZM740.824 467.62H743.428V483.356H740.824V467.62ZM748.272 467.592H750.848V483.384H748.272V467.592ZM741.468 485.96L743.988 486.744C743.521 487.565 742.98 488.377 742.364 489.18C741.767 489.964 741.132 490.711 740.46 491.42C739.788 492.129 739.135 492.745 738.5 493.268C738.332 493.119 738.117 492.932 737.856 492.708C737.613 492.503 737.361 492.297 737.1 492.092C736.839 491.887 736.605 491.719 736.4 491.588C737.371 490.897 738.313 490.057 739.228 489.068C740.143 488.06 740.889 487.024 741.468 485.96ZM747.74 487.192L749.84 485.988C750.475 486.604 751.1 487.267 751.716 487.976C752.351 488.685 752.929 489.385 753.452 490.076C753.993 490.748 754.423 491.364 754.74 491.924L752.528 493.352C752.211 492.773 751.791 492.12 751.268 491.392C750.764 490.683 750.204 489.964 749.588 489.236C748.972 488.489 748.356 487.808 747.74 487.192ZM760.452 468.348H779.632V477.14H776.944V470.252H763.028V477.14H760.452V468.348ZM764.12 471.68H775.824V473.332H764.12V471.68ZM764.12 474.788H775.768V476.524H764.12V474.788ZM757.512 478.064H782.404V480.192H757.512V478.064ZM769.944 481.648H779.632V483.72H769.944V481.648ZM761.404 481.704H768.068V483.608H761.404V481.704ZM761.404 485.176H768.068V487.08H761.404V485.176ZM773.22 483.552C774.041 485.419 775.283 487.033 776.944 488.396C778.624 489.759 780.621 490.72 782.936 491.28C782.768 491.429 782.581 491.625 782.376 491.868C782.171 492.129 781.975 492.381 781.788 492.624C781.62 492.885 781.48 493.119 781.368 493.324C778.923 492.615 776.832 491.476 775.096 489.908C773.379 488.321 772.044 486.408 771.092 484.168L773.22 483.552ZM779.044 481.648H779.52L779.968 481.564L781.592 482.208C780.995 484.131 780.145 485.82 779.044 487.276C777.961 488.713 776.692 489.927 775.236 490.916C773.799 491.905 772.249 492.699 770.588 493.296C770.439 492.979 770.224 492.615 769.944 492.204C769.664 491.793 769.403 491.467 769.16 491.224C770.653 490.776 772.063 490.123 773.388 489.264C774.713 488.405 775.861 487.369 776.832 486.156C777.821 484.943 778.559 483.571 779.044 482.04V481.648ZM757.176 489.46C758.109 489.385 759.164 489.301 760.34 489.208C761.535 489.096 762.795 488.975 764.12 488.844C765.445 488.713 766.78 488.583 768.124 488.452L768.152 490.524C766.248 490.748 764.353 490.963 762.468 491.168C760.583 491.373 758.912 491.56 757.456 491.728L757.176 489.46ZM766.696 478.736H769.244V493.352H766.696V478.736ZM759.808 478.792H762.244V490.104H759.808V478.792ZM785.26 485.092H810.768V487.22H785.26V485.092ZM786.044 469.384H809.704V471.428H786.044V469.384ZM801.668 483.356H804.244V490.692C804.244 491.327 804.16 491.821 803.992 492.176C803.824 492.549 803.488 492.82 802.984 492.988C802.499 493.156 801.873 493.259 801.108 493.296C800.343 493.333 799.409 493.352 798.308 493.352C798.252 493.016 798.14 492.624 797.972 492.176C797.823 491.747 797.664 491.373 797.496 491.056C798.019 491.075 798.523 491.084 799.008 491.084C799.493 491.103 799.923 491.103 800.296 491.084C800.688 491.084 800.949 491.084 801.08 491.084C801.323 491.065 801.481 491.028 801.556 490.972C801.631 490.897 801.668 490.776 801.668 490.608V483.356ZM796.656 467.396H799.26V482.432H796.656V467.396ZM789.712 488.312L791.56 486.772C792.083 487.089 792.633 487.463 793.212 487.892C793.791 488.303 794.341 488.723 794.864 489.152C795.387 489.563 795.807 489.945 796.124 490.3L794.164 492.036C793.865 491.663 793.464 491.252 792.96 490.804C792.475 490.356 791.943 489.917 791.364 489.488C790.804 489.059 790.253 488.667 789.712 488.312ZM790.72 477.476V478.932H805.364V477.476H790.72ZM790.72 474.452V475.852H805.364V474.452H790.72ZM788.256 472.772H807.968V480.612H788.256V472.772ZM802.06 481.144L803.628 479.884C804.356 480.127 805.093 480.444 805.84 480.836C806.605 481.209 807.333 481.601 808.024 482.012C808.715 482.404 809.284 482.777 809.732 483.132L808.136 484.56C807.688 484.168 807.128 483.767 806.456 483.356C805.784 482.927 805.065 482.516 804.3 482.124C803.535 481.732 802.788 481.405 802.06 481.144ZM786.408 481.984C787.677 481.984 789.124 481.984 790.748 481.984C792.372 481.965 794.099 481.956 795.928 481.956C797.776 481.937 799.671 481.919 801.612 481.9C803.553 481.881 805.485 481.853 807.408 481.816L807.296 483.524C804.813 483.58 802.312 483.645 799.792 483.72C797.272 483.776 794.873 483.823 792.596 483.86C790.319 483.897 788.284 483.925 786.492 483.944L786.408 481.984ZM813.68 484.588H838.404V486.8H813.68V484.588ZM813.792 472.184H838.32V474.312H813.792V472.184ZM814.912 477.14H837.284V479.212H814.912V477.14ZM816.312 480.892H835.94V482.88H816.312V480.892ZM824.656 478.092H827.26V493.352H824.656V478.092ZM822.164 467.34H824.656V473.22H822.164V467.34ZM827.428 467.34H829.948V473.08H827.428V467.34ZM833.896 467.648L836.64 468.348C836.211 469.095 835.772 469.841 835.324 470.588C834.876 471.335 834.456 471.979 834.064 472.52L831.908 471.848C832.151 471.456 832.393 471.017 832.636 470.532C832.897 470.028 833.131 469.524 833.336 469.02C833.56 468.516 833.747 468.059 833.896 467.648ZM830.368 474.144L833.14 474.872C832.748 475.376 832.365 475.861 831.992 476.328C831.619 476.776 831.273 477.168 830.956 477.504L828.716 476.832C828.996 476.44 829.295 475.992 829.612 475.488C829.929 474.984 830.181 474.536 830.368 474.144ZM815.948 468.348L818.216 467.564C818.683 468.18 819.131 468.871 819.56 469.636C819.989 470.401 820.307 471.073 820.512 471.652L818.132 472.52C817.945 471.96 817.647 471.288 817.236 470.504C816.825 469.72 816.396 469.001 815.948 468.348ZM819.336 474.704L821.828 474.116C822.127 474.527 822.407 474.984 822.668 475.488C822.948 475.992 823.153 476.431 823.284 476.804L820.708 477.448C820.615 477.075 820.437 476.627 820.176 476.104C819.915 475.581 819.635 475.115 819.336 474.704ZM821.66 487.976L823.592 488.9C822.939 489.404 822.136 489.899 821.184 490.384C820.232 490.851 819.224 491.271 818.16 491.644C817.115 492.036 816.107 492.335 815.136 492.54C814.968 492.241 814.725 491.905 814.408 491.532C814.109 491.159 813.829 490.851 813.568 490.608C814.52 490.459 815.509 490.253 816.536 489.992C817.563 489.731 818.524 489.423 819.42 489.068C820.316 488.713 821.063 488.349 821.66 487.976ZM828.828 489.18L830.508 487.836C831.348 488.116 832.253 488.452 833.224 488.844C834.213 489.217 835.156 489.591 836.052 489.964C836.967 490.337 837.732 490.673 838.348 490.972L836.584 492.512C835.987 492.213 835.24 491.859 834.344 491.448C833.467 491.056 832.533 490.664 831.544 490.272C830.573 489.861 829.668 489.497 828.828 489.18ZM843.808 471.876H852.376V490.44H843.808V488.06H849.94V474.228H843.808V471.876ZM842.268 471.876H844.704V492.596H842.268V471.876ZM843.696 479.548H851.172V481.844H843.696V479.548ZM846.412 467.312L849.296 467.788C848.997 468.684 848.68 469.589 848.344 470.504C848.008 471.419 847.7 472.193 847.42 472.828L845.32 472.324C845.451 471.857 845.591 471.335 845.74 470.756C845.889 470.159 846.02 469.561 846.132 468.964C846.263 468.348 846.356 467.797 846.412 467.312ZM856.24 471.736H864.64V474.172H856.24V471.736ZM863.716 471.736H866.18C866.18 471.736 866.18 471.82 866.18 471.988C866.18 472.137 866.18 472.315 866.18 472.52C866.18 472.725 866.18 472.884 866.18 472.996C866.087 476.188 865.984 478.895 865.872 481.116C865.76 483.319 865.629 485.129 865.48 486.548C865.349 487.967 865.181 489.068 864.976 489.852C864.789 490.636 864.556 491.205 864.276 491.56C863.921 492.027 863.557 492.344 863.184 492.512C862.811 492.699 862.353 492.829 861.812 492.904C861.327 492.96 860.692 492.979 859.908 492.96C859.143 492.96 858.359 492.941 857.556 492.904C857.537 492.531 857.444 492.092 857.276 491.588C857.127 491.103 856.921 490.683 856.66 490.328C857.575 490.403 858.415 490.449 859.18 490.468C859.945 490.487 860.505 490.496 860.86 490.496C861.14 490.496 861.364 490.468 861.532 490.412C861.719 490.356 861.896 490.235 862.064 490.048C862.288 489.787 862.484 489.283 862.652 488.536C862.82 487.771 862.969 486.697 863.1 485.316C863.231 483.916 863.343 482.143 863.436 479.996C863.548 477.849 863.641 475.273 863.716 472.268V471.736ZM856.604 467.312L859.152 467.9C858.797 469.281 858.368 470.644 857.864 471.988C857.379 473.332 856.847 474.601 856.268 475.796C855.689 476.972 855.073 478.008 854.42 478.904C854.271 478.755 854.056 478.587 853.776 478.4C853.515 478.195 853.244 477.999 852.964 477.812C852.703 477.625 852.46 477.476 852.236 477.364C852.871 476.561 853.459 475.619 854 474.536C854.56 473.453 855.055 472.296 855.484 471.064C855.932 469.813 856.305 468.563 856.604 467.312ZM855.26 479.38L857.332 478.204C857.836 478.839 858.359 479.548 858.9 480.332C859.46 481.097 859.973 481.844 860.44 482.572C860.925 483.3 861.317 483.944 861.616 484.504L859.376 485.904C859.115 485.325 858.751 484.663 858.284 483.916C857.817 483.169 857.323 482.395 856.8 481.592C856.277 480.789 855.764 480.052 855.26 479.38ZM876.148 479.94C877.679 482.945 880.049 485.335 883.26 487.108C886.471 488.881 890.409 490.048 895.076 490.608C894.871 490.813 894.665 491.065 894.46 491.364C894.255 491.681 894.049 491.999 893.844 492.316C893.657 492.652 893.508 492.941 893.396 493.184C890.185 492.717 887.32 491.961 884.8 490.916C882.299 489.871 880.124 488.517 878.276 486.856C876.428 485.176 874.897 483.169 873.684 480.836L876.148 479.94ZM871.388 477.868H889.504V480.472H871.388V477.868ZM870.044 471.372H893.844V474.004H870.044V471.372ZM880.544 467.368H883.288V479.044H880.544V467.368ZM888.86 477.868H889.42L889.924 477.784L891.772 478.848C890.895 481.051 889.728 482.973 888.272 484.616C886.835 486.24 885.173 487.631 883.288 488.788C881.421 489.927 879.387 490.86 877.184 491.588C874.981 492.335 872.676 492.923 870.268 493.352C870.212 493.109 870.091 492.829 869.904 492.512C869.736 492.195 869.559 491.877 869.372 491.56C869.185 491.243 869.008 490.991 868.84 490.804C871.173 490.468 873.395 489.992 875.504 489.376C877.613 488.741 879.545 487.939 881.3 486.968C883.055 485.979 884.576 484.775 885.864 483.356C887.152 481.937 888.151 480.276 888.86 478.372V477.868ZM906.444 474.984H921.872V477.112H906.444V474.984ZM905.856 478.904H922.712V481.116H905.856V478.904ZM909.608 482.656H919.156V484.644H909.608V482.656ZM907.228 471.652L909.244 471.092C909.505 471.615 909.757 472.193 910 472.828C910.261 473.463 910.457 473.995 910.588 474.424L908.46 475.152C908.348 474.685 908.171 474.125 907.928 473.472C907.704 472.8 907.471 472.193 907.228 471.652ZM912.184 471.092L914.284 470.728C914.452 471.307 914.611 471.932 914.76 472.604C914.909 473.276 915.021 473.845 915.096 474.312L912.856 474.816C912.819 474.331 912.735 473.743 912.604 473.052C912.473 472.343 912.333 471.689 912.184 471.092ZM920.108 467.536L921.62 469.496C920.631 469.701 919.52 469.888 918.288 470.056C917.075 470.224 915.796 470.364 914.452 470.476C913.127 470.588 911.792 470.681 910.448 470.756C909.123 470.812 907.835 470.859 906.584 470.896C906.547 470.597 906.463 470.261 906.332 469.888C906.22 469.496 906.099 469.16 905.968 468.88C907.2 468.843 908.46 468.787 909.748 468.712C911.055 468.637 912.333 468.544 913.584 468.432C914.853 468.301 916.048 468.171 917.168 468.04C918.307 467.891 919.287 467.723 920.108 467.536ZM911.708 484.112C912.38 485.325 913.267 486.417 914.368 487.388C915.488 488.34 916.804 489.143 918.316 489.796C919.828 490.431 921.489 490.897 923.3 491.196C923.02 491.457 922.721 491.803 922.404 492.232C922.105 492.68 921.872 493.072 921.704 493.408C918.867 492.811 916.421 491.784 914.368 490.328C912.315 488.853 910.709 486.996 909.552 484.756L911.708 484.112ZM918.792 470.336L921.284 471.092C920.78 471.951 920.239 472.828 919.66 473.724C919.081 474.601 918.559 475.357 918.092 475.992L916.188 475.292C916.487 474.844 916.795 474.331 917.112 473.752C917.448 473.173 917.765 472.585 918.064 471.988C918.363 471.391 918.605 470.84 918.792 470.336ZM918.568 482.656H919.072L919.52 482.6L920.976 483.188C920.397 485.185 919.557 486.856 918.456 488.2C917.355 489.544 916.048 490.636 914.536 491.476C913.043 492.316 911.4 492.96 909.608 493.408C909.533 493.221 909.403 492.997 909.216 492.736C909.048 492.493 908.871 492.251 908.684 492.008C908.497 491.765 908.329 491.579 908.18 491.448C909.879 491.075 911.428 490.543 912.828 489.852C914.228 489.161 915.413 488.265 916.384 487.164C917.373 486.044 918.101 484.663 918.568 483.02V482.656ZM910.028 476.328H912.576C912.483 477.485 912.352 478.689 912.184 479.94C912.035 481.172 911.801 482.413 911.484 483.664C911.185 484.915 910.765 486.128 910.224 487.304C909.701 488.48 909.029 489.581 908.208 490.608C907.387 491.635 906.379 492.54 905.184 493.324C904.997 493.007 904.736 492.661 904.4 492.288C904.083 491.933 903.756 491.644 903.42 491.42C904.54 490.748 905.473 489.955 906.22 489.04C906.985 488.107 907.601 487.108 908.068 486.044C908.535 484.98 908.899 483.888 909.16 482.768C909.421 481.648 909.608 480.537 909.72 479.436C909.851 478.335 909.953 477.299 910.028 476.328ZM896.812 482.656C897.932 482.376 899.257 482.012 900.788 481.564C902.337 481.116 903.915 480.649 905.52 480.164L905.856 482.572C904.363 483.039 902.86 483.505 901.348 483.972C899.855 484.439 898.492 484.859 897.26 485.232L896.812 482.656ZM897.12 472.856H905.632V475.32H897.12V472.856ZM900.368 467.396H902.832V490.44C902.832 491.093 902.757 491.607 902.608 491.98C902.459 492.353 902.188 492.652 901.796 492.876C901.423 493.081 900.937 493.212 900.34 493.268C899.761 493.343 899.015 493.38 898.1 493.38C898.081 493.044 897.997 492.633 897.848 492.148C897.717 491.681 897.568 491.271 897.4 490.916C897.96 490.935 898.473 490.944 898.94 490.944C899.407 490.944 899.724 490.935 899.892 490.916C900.06 490.916 900.181 490.888 900.256 490.832C900.331 490.757 900.368 490.627 900.368 490.44V467.396ZM936.852 484.056L936.208 473.752L936.124 470.056H939.876L939.792 473.752L939.148 484.056H936.852ZM938 491.196C937.403 491.196 936.899 491 936.488 490.608C936.096 490.216 935.9 489.703 935.9 489.068C935.9 488.433 936.105 487.92 936.516 487.528C936.927 487.136 937.421 486.94 938 486.94C938.579 486.94 939.073 487.136 939.484 487.528C939.895 487.92 940.1 488.433 940.1 489.068C940.1 489.703 939.895 490.216 939.484 490.608C939.073 491 938.579 491.196 938 491.196Z" fill="white"/>
<defs>
<filter id="filter0_d_1270_20812" x="-0.00625014" y="25.9937" width="1024.01" height="737.013" filterUnits="userSpaceOnUse" color-interpolation-filters="sRGB">
<feFlood flood-opacity="0" result="BackgroundImageFix"/>
<feColorMatrix in="SourceAlpha" type="matrix" values="0 0 0 0 0 0 0 0 0 0 0 0 0 0 0 0 0 0 127 0" result="hardAlpha"/>
<feMorphology radius="2.00625" operator="dilate" in="SourceAlpha" result="effect1_dropShadow_1270_20812"/>
<feOffset/>
<feGaussianBlur stdDeviation="15"/>
<feComposite in2="hardAlpha" operator="out"/>
<feColorMatrix type="matrix" values="0 0 0 0 0.725488 0 0 0 0 1 0 0 0 0 1 0 0 0 0.5 0"/>
<feBlend mode="normal" in2="BackgroundImageFix" result="effect1_dropShadow_1270_20812"/>
<feBlend mode="normal" in="SourceGraphic" in2="effect1_dropShadow_1270_20812" result="shape"/>
</filter>
<filter id="filter1_d_1270_20812" x="15.998" y="44" width="990.002" height="701" filterUnits="userSpaceOnUse" color-interpolation-filters="sRGB">
<feFlood flood-opacity="0" result="BackgroundImageFix"/>
<feColorMatrix in="SourceAlpha" type="matrix" values="0 0 0 0 0 0 0 0 0 0 0 0 0 0 0 0 0 0 127 0" result="hardAlpha"/>
<feOffset/>
<feGaussianBlur stdDeviation="15"/>
<feComposite in2="hardAlpha" operator="out"/>
<feColorMatrix type="matrix" values="0 0 0 0 0 0 0 0 0 1 0 0 0 0 1 0 0 0 1 0"/>
<feBlend mode="normal" in2="BackgroundImageFix" result="effect1_dropShadow_1270_20812"/>
<feBlend mode="normal" in="SourceGraphic" in2="effect1_dropShadow_1270_20812" result="shape"/>
</filter>
<filter id="filter2_d_1270_20812" x="79.0457" y="0.436548" width="487.909" height="825.909" filterUnits="userSpaceOnUse" color-interpolation-filters="sRGB">
<feFlood flood-opacity="0" result="BackgroundImageFix"/>
<feColorMatrix in="SourceAlpha" type="matrix" values="0 0 0 0 0 0 0 0 0 0 0 0 0 0 0 0 0 0 127 0" result="hardAlpha"/>
<feOffset dy="3.39086"/>
<feGaussianBlur stdDeviation="8.47716"/>
<feComposite in2="hardAlpha" operator="out"/>
<feColorMatrix type="matrix" values="0 0 0 0 0 0 0 0 0 0.94 0 0 0 0 1 0 0 0 1 0"/>
<feBlend mode="normal" in2="BackgroundImageFix" result="effect1_dropShadow_1270_20812"/>
<feBlend mode="normal" in="SourceGraphic" in2="effect1_dropShadow_1270_20812" result="shape"/>
</filter>
<filter id="filter3_d_1270_20812" x="630" y="340" width="227.975" height="76.0005" filterUnits="userSpaceOnUse" color-interpolation-filters="sRGB">
<feFlood flood-opacity="0" result="BackgroundImageFix"/>
<feColorMatrix in="SourceAlpha" type="matrix" values="0 0 0 0 0 0 0 0 0 0 0 0 0 0 0 0 0 0 127 0" result="hardAlpha"/>
<feOffset/>
<feGaussianBlur stdDeviation="4.5"/>
<feComposite in2="hardAlpha" operator="out"/>
<feColorMatrix type="matrix" values="0 0 0 0 0 0 0 0 0 1 0 0 0 0 1 0 0 0 1 0"/>
<feBlend mode="normal" in2="BackgroundImageFix" result="effect1_dropShadow_1270_20812"/>
<feBlend mode="normal" in="SourceGraphic" in2="effect1_dropShadow_1270_20812" result="shape"/>
</filter>
<radialGradient id="paint0_radial_1270_20812" cx="0" cy="0" r="1" gradientUnits="userSpaceOnUse" gradientTransform="translate(665.6 432.5) rotate(34.5043) scale(277.156 228.025)">
<stop stop-color="#003A91"/>
<stop offset="1" stop-color="#062553"/>
</radialGradient>
<linearGradient id="paint1_linear_1270_20812" x1="-126.384" y1="409.982" x2="506.709" y2="905.978" gradientUnits="userSpaceOnUse">
<stop stop-color="#00F9FF"/>
<stop offset="0.135" stop-color="#ABFFFA"/>
<stop offset="0.33" stop-color="#61FBFF"/>
<stop offset="0.51" stop-color="#73FCFF"/>
<stop offset="1" stop-color="#66FFC8"/>
</linearGradient>
<radialGradient id="paint2_radial_1270_20812" cx="0" cy="0" r="1" gradientUnits="userSpaceOnUse" gradientTransform="translate(96 277.67) rotate(45.8695) scale(879.023 465.946)">
<stop stop-color="#045284"/>
<stop offset="0.772851" stop-color="#042B66"/>
</radialGradient>
<linearGradient id="paint3_linear_1270_20812" x1="606.747" y1="1008.99" x2="-172.324" y2="826.478" gradientUnits="userSpaceOnUse">
<stop stop-color="#00F9FF"/>
<stop offset="0.135" stop-color="white"/>
<stop offset="0.33" stop-color="#61FBFF"/>
<stop offset="0.51" stop-color="#73FCFF"/>
<stop offset="1" stop-color="white"/>
</linearGradient>
</defs>
</svg>
