<svg width="1264" height="830" viewBox="0 0 1264 830" fill="none" xmlns="http://www.w3.org/2000/svg">
<g filter="url(#filter0_d_1270_20956)">
<path d="M1232 150L1168 86H765.5L720 131.698H96L32 196L33.9109 672L98.5 736.382H466L489 759H1168.5L1232 695V150Z" fill="url(#paint0_radial_1270_20956)"/>
<path d="M466 735.382H466.409L466.701 735.669L489.409 758H1168.08L1231 694.588V150.414L1167.59 87H765.915L720.709 132.403L720.415 132.698H720H96.4155L33.0017 196.411L34.9092 671.583L98.9132 735.382H466Z" stroke="url(#paint1_linear_1270_20956)" stroke-width="2"/>
</g>
<g filter="url(#filter1_d_1270_20956)">
<path d="M1216 157.5L1160.5 101.5H772.5L726.5 148H99.5L48.5 202L50.2803 663.5L105.5 719.5H473L496.143 743H1158.5L1216 688.5V157.5Z" stroke="#00FFFF" stroke-width="2" shape-rendering="crispEdges"/>
</g>
<g style="mix-blend-mode:overlay">
<rect opacity="0.3" x="1091" y="209" width="14" height="14" transform="rotate(-180 1091 209)" fill="#15FFFF"/>
<rect opacity="0.3" x="1091" y="228.949" width="14" height="14" transform="rotate(-180 1091 228.949)" fill="#C8FCFF"/>
<rect opacity="0.3" x="1111" y="228.949" width="14" height="14" transform="rotate(-180 1111 228.949)" fill="#69F6FF"/>
<rect opacity="0.3" x="1057" y="268.844" width="14" height="14" transform="rotate(-90 1057 268.844)" fill="#15FFFF"/>
<rect opacity="0.3" x="1077" y="268.844" width="14" height="14" transform="rotate(-90 1077 268.844)" fill="#C8FCFF"/>
<rect opacity="0.3" x="1077" y="248.895" width="14" height="14" transform="rotate(-90 1077 248.895)" fill="#69F6FF"/>
<rect x="1051" y="268.844" width="14" height="14" transform="rotate(-180 1051 268.844)" fill="#15FFFF"/>
<rect opacity="0.3" x="1071" y="248.895" width="14" height="14" transform="rotate(-180 1071 248.895)" fill="#C8FCFF"/>
<rect opacity="0.3" x="1032" y="268.844" width="14" height="14" transform="rotate(-180 1032 268.844)" fill="#69F6FF"/>
<rect x="1051" y="248.895" width="14" height="14" transform="rotate(-180 1051 248.895)" fill="#15FFFF"/>
<rect opacity="0.3" x="1013" y="248.895" width="14" height="14" transform="rotate(-180 1013 248.895)" fill="#C8FCFF"/>
<rect opacity="0.3" x="1032" y="248.895" width="14" height="14" transform="rotate(-180 1032 248.895)" fill="#69F6FF"/>
<rect opacity="0.3" x="1131" y="228.949" width="14" height="14" transform="rotate(-180 1131 228.949)" fill="#15FFFF"/>
<rect opacity="0.3" x="1111" y="288.793" width="14" height="14" transform="rotate(-180 1111 288.793)" fill="#C8FCFF"/>
<rect opacity="0.3" x="1131" y="307.746" width="14" height="14" transform="rotate(-180 1131 307.746)" fill="#69F6FF"/>
<rect opacity="0.3" x="1037" y="214.984" width="14" height="14" fill="#15FFFF"/>
<rect x="1057" y="274.828" width="14" height="14" fill="#69F6FF"/>
</g>
<g filter="url(#filter2_d_1270_20956)">
<path d="M138 79.4656C138 78.8471 138.244 78.2536 138.68 77.8145L201.312 14.693C201.752 14.2495 202.351 14 202.976 14H613.524C614.149 14 614.748 14.2495 615.188 14.6931L677.32 77.3145C677.756 77.7536 678 78.3471 678 78.9656V413.388V735.024C678 735.649 677.751 736.248 677.307 736.688L614.185 799.32C613.746 799.756 613.153 800 612.534 800H408H203.08C202.459 800 201.864 799.754 201.424 799.315L138.688 736.687C138.248 736.247 138 735.65 138 735.028V79.4656Z" fill="url(#paint2_radial_1270_20956)"/>
<path d="M139 735.028V79.4656C139 79.111 139.14 78.7707 139.39 78.5189L202.022 15.3974C202.275 15.1431 202.618 15 202.976 15H613.524C613.882 15 614.225 15.1431 614.478 15.3974L676.61 78.0189C676.86 78.2706 677 78.6109 677 78.9656V413.388V735.024C677 735.382 676.857 735.725 676.603 735.978L613.481 798.61C613.229 798.86 612.889 799 612.534 799H408H203.08C202.724 799 202.383 798.859 202.131 798.607L139.395 735.979C139.142 735.727 139 735.385 139 735.028Z" stroke="url(#paint3_linear_1270_20956)" stroke-width="2"/>
</g>
<g filter="url(#filter3_d_1270_20956)">
<mask id="path-23-outside-1_1270_20956" maskUnits="userSpaceOnUse" x="761" y="345" width="210" height="60" fill="black">
<rect fill="white" x="761" y="345" width="210" height="60"/>
<path d="M783.06 357.461L812.334 355.795L812.789 360.136L783.514 361.953L783.06 357.461ZM788.562 351.404H794.215C794.45 353.322 794.988 355.088 795.83 356.703C796.671 358.319 797.697 359.715 798.909 360.893C800.12 362.037 801.415 362.928 802.795 363.568C804.208 364.207 805.605 364.527 806.984 364.527C807.691 364.527 808.162 364.291 808.397 363.82C808.633 363.315 808.818 362.407 808.953 361.095C809.525 361.532 810.231 361.953 811.073 362.356C811.914 362.727 812.688 363.013 813.394 363.215C813.159 365.032 812.772 366.428 812.233 367.404C811.729 368.346 811.022 368.985 810.114 369.322C809.239 369.658 808.128 369.826 806.782 369.826C805.033 369.826 803.317 369.54 801.634 368.968C799.952 368.396 798.387 367.589 796.94 366.546C795.493 365.469 794.181 364.19 793.003 362.71C791.825 361.196 790.85 359.496 790.076 357.612C789.335 355.728 788.831 353.658 788.562 351.404ZM797.445 354.18L800.17 351.252C801.113 351.421 802.122 351.673 803.199 352.009C804.309 352.312 805.369 352.649 806.379 353.019C807.388 353.355 808.229 353.709 808.902 354.079L806.025 357.309C805.42 356.973 804.612 356.619 803.603 356.249C802.627 355.845 801.6 355.458 800.524 355.088C799.447 354.718 798.421 354.415 797.445 354.18ZM780.385 351L785.836 353.12C784.557 354.735 783.043 356.317 781.293 357.864C779.544 359.412 777.727 360.859 775.842 362.205C773.958 363.517 772.107 364.645 770.29 365.587C769.987 365.183 769.567 364.712 769.028 364.174C768.524 363.635 768.002 363.097 767.464 362.558C766.925 361.986 766.437 361.549 766 361.246C767.851 360.438 769.668 359.513 771.451 358.47C773.234 357.393 774.9 356.232 776.448 354.987C777.996 353.709 779.308 352.38 780.385 351ZM775.741 359.126L779.527 355.29L781.546 355.845V368.464H775.741V359.126ZM779.577 378.912V381.032H801.483V378.912H779.577ZM779.577 384.464V386.685H801.483V384.464H779.577ZM779.577 373.309V375.479H801.483V373.309H779.577ZM773.722 369.726H807.64V390.268H773.722V369.726ZM793.104 392.943L798.151 390.066C799.968 390.706 801.802 391.395 803.653 392.136C805.537 392.842 807.321 393.566 809.003 394.306C810.719 395.013 812.166 395.652 813.344 396.224L806.278 398.95C805.335 398.411 804.158 397.789 802.744 397.082C801.331 396.375 799.8 395.652 798.151 394.912C796.536 394.205 794.854 393.549 793.104 392.943ZM781.95 389.864L787.451 392.388C786.105 393.263 784.524 394.121 782.707 394.962C780.89 395.803 779.022 396.56 777.104 397.233C775.186 397.94 773.369 398.529 771.653 399C771.283 398.596 770.829 398.108 770.29 397.536C769.785 396.998 769.247 396.443 768.675 395.871C768.103 395.332 767.598 394.895 767.161 394.558C768.944 394.222 770.744 393.818 772.562 393.347C774.412 392.876 776.145 392.338 777.76 391.732C779.409 391.126 780.805 390.504 781.95 389.864Z"/>
<path d="M848.625 369.372H854.379V371.896C854.379 373.713 854.261 375.749 854.025 378.003C853.823 380.224 853.386 382.563 852.713 385.019C852.04 387.442 851.014 389.848 849.634 392.237C848.254 394.626 846.404 396.88 844.082 399C843.746 398.563 843.308 398.075 842.77 397.536C842.265 397.032 841.71 396.527 841.104 396.022C840.532 395.551 839.994 395.164 839.489 394.861C841.609 393.044 843.274 391.126 844.486 389.107C845.731 387.055 846.639 385.002 847.211 382.95C847.783 380.863 848.154 378.861 848.322 376.943C848.524 375.025 848.625 373.292 848.625 371.744V369.372ZM853.975 375.479C854.513 378.104 855.253 380.611 856.196 383C857.138 385.355 858.332 387.458 859.779 389.309C861.226 391.126 862.976 392.556 865.028 393.599C864.557 394.003 864.069 394.491 863.565 395.063C863.06 395.669 862.572 396.291 862.101 396.931C861.63 397.57 861.243 398.176 860.94 398.748C858.719 397.334 856.835 395.517 855.287 393.297C853.773 391.076 852.528 388.535 851.552 385.675C850.576 382.781 849.769 379.669 849.129 376.338L853.975 375.479ZM817.685 355.492H841.356V360.438H817.685V355.492ZM816.978 377.498H841.962V382.445H816.978V377.498ZM818.946 362.962H840.246V367.858H818.946V362.962ZM819.249 370.23H839.943V375.126H819.249V370.23ZM826.77 351.757H832.423V366.192H826.77V351.757ZM820.208 383.404L825.155 384.565C824.65 386.415 824.027 388.333 823.287 390.319C822.547 392.27 821.823 393.936 821.117 395.315C820.578 394.979 819.821 394.609 818.845 394.205C817.903 393.801 817.113 393.498 816.473 393.297C817.213 391.984 817.92 390.436 818.593 388.653C819.266 386.836 819.804 385.086 820.208 383.404ZM833.886 385.069L838.379 383.303C838.816 384.144 839.237 385.036 839.64 385.978C840.078 386.886 840.482 387.795 840.852 388.703C841.222 389.612 841.491 390.42 841.659 391.126L836.915 393.145C836.747 392.438 836.494 391.631 836.158 390.722C835.821 389.78 835.451 388.821 835.047 387.845C834.677 386.836 834.29 385.911 833.886 385.069ZM845.899 360.539H860.132V366.041H845.899V360.539ZM844.94 351.505L850.845 352.312C850.442 355.374 849.903 358.369 849.23 361.297C848.591 364.19 847.817 366.899 846.909 369.423C846 371.913 844.957 374.117 843.779 376.035C843.443 375.698 842.972 375.294 842.366 374.823C841.76 374.352 841.138 373.898 840.498 373.461C839.859 372.989 839.304 372.619 838.833 372.35C839.977 370.735 840.936 368.817 841.71 366.596C842.517 364.375 843.174 361.986 843.678 359.429C844.217 356.838 844.637 354.197 844.94 351.505ZM858.568 360.539H859.426L860.385 360.338L864.524 361.448C864.221 363.13 863.851 364.846 863.413 366.596C863.009 368.346 862.572 370.028 862.101 371.644C861.664 373.259 861.226 374.672 860.789 375.883L855.893 374.42C856.229 373.309 856.566 372.014 856.902 370.533C857.239 369.053 857.542 367.538 857.811 365.991C858.114 364.409 858.366 362.895 858.568 361.448V360.539ZM826.82 379.517H832.524V398.798H826.82V379.517Z"/>
<path d="M868.814 382.293H913.836V387.29H868.814V382.293ZM868.965 359.681H913.685V364.426H868.965V359.681ZM871.035 368.868H911.716V373.461H871.035V368.868ZM873.508 375.732H909.394V380.073H873.508V375.732ZM888.145 371.088H894.151V398.849H888.145V371.088ZM883.855 351.353H889.508V362.054H883.855V351.353ZM893.192 351.353H898.946V361.7H893.192V351.353ZM904.852 351.808L911.161 353.322C910.353 354.701 909.546 356.047 908.738 357.36C907.931 358.638 907.19 359.732 906.517 360.64L901.621 359.126C902.025 358.453 902.429 357.696 902.833 356.855C903.237 355.98 903.607 355.105 903.943 354.23C904.313 353.322 904.616 352.514 904.852 351.808ZM898.644 364.022L905.054 365.637C904.313 366.512 903.59 367.303 902.883 368.009C902.21 368.682 901.571 369.288 900.965 369.826L895.817 368.312C896.322 367.673 896.827 366.95 897.331 366.142C897.87 365.334 898.307 364.628 898.644 364.022ZM872.65 353.423L877.849 351.656C878.589 352.699 879.329 353.911 880.069 355.29C880.81 356.636 881.348 357.797 881.685 358.773L876.183 360.792C875.914 359.782 875.426 358.588 874.719 357.208C874.046 355.829 873.356 354.567 872.65 353.423ZM878.505 365.183L884.208 363.921C884.646 364.56 885.083 365.284 885.521 366.091C885.992 366.899 886.345 367.623 886.58 368.262L880.625 369.675C880.456 369.069 880.154 368.346 879.716 367.505C879.312 366.63 878.909 365.856 878.505 365.183ZM882.644 388.956L886.934 390.924C885.823 391.866 884.427 392.775 882.744 393.65C881.096 394.525 879.363 395.299 877.546 395.972C875.729 396.678 873.945 397.233 872.196 397.637C871.825 396.998 871.287 396.241 870.58 395.366C869.874 394.491 869.218 393.801 868.612 393.297C870.294 393.027 872.027 392.674 873.811 392.237C875.594 391.799 877.26 391.294 878.808 390.722C880.355 390.15 881.634 389.562 882.644 388.956ZM896.322 391.479L900.36 388.603C901.739 389.141 903.253 389.747 904.902 390.42C906.585 391.093 908.2 391.782 909.748 392.489C911.329 393.162 912.658 393.784 913.735 394.356L909.445 397.637C908.469 397.099 907.224 396.46 905.71 395.719C904.196 394.979 902.597 394.239 900.915 393.498C899.266 392.758 897.735 392.085 896.322 391.479Z"/>
<path d="M919.186 353.726H935.691V358.823H919.186V353.726ZM939.375 379.719H959.868V384.716H939.375V379.719ZM918.479 369.17H937.256V374.42H918.479V369.17ZM926.707 371.341H932.41V392.287C932.41 393.667 932.259 394.777 931.956 395.618C931.687 396.46 931.115 397.116 930.24 397.587C929.365 398.024 928.339 398.31 927.161 398.445C925.983 398.579 924.62 398.647 923.073 398.647C922.972 397.805 922.753 396.83 922.416 395.719C922.08 394.642 921.71 393.7 921.306 392.893C922.282 392.926 923.207 392.943 924.082 392.943C924.957 392.943 925.563 392.943 925.899 392.943C926.202 392.91 926.404 392.859 926.505 392.792C926.639 392.691 926.707 392.489 926.707 392.186V371.341ZM957.95 379.719H964.057C964.057 379.719 964.04 380.005 964.006 380.577C963.973 381.116 963.922 381.587 963.855 381.991C963.619 384.918 963.333 387.341 962.997 389.259C962.694 391.143 962.358 392.657 961.987 393.801C961.617 394.912 961.18 395.736 960.675 396.274C960.137 396.846 959.565 397.25 958.959 397.486C958.387 397.755 957.731 397.957 956.991 398.091C956.385 398.159 955.577 398.192 954.568 398.192C953.558 398.226 952.465 398.226 951.287 398.192C951.253 397.318 951.085 396.359 950.782 395.315C950.513 394.272 950.143 393.364 949.672 392.59C950.58 392.691 951.422 392.758 952.196 392.792C953.003 392.825 953.609 392.842 954.013 392.842C954.416 392.842 954.736 392.809 954.972 392.741C955.207 392.64 955.443 392.489 955.678 392.287C955.981 391.984 956.267 391.412 956.536 390.571C956.805 389.696 957.058 388.434 957.293 386.785C957.529 385.137 957.748 383.034 957.95 380.476V379.719ZM947.249 375.177H953.256C953.02 377.768 952.667 380.241 952.196 382.596C951.758 384.918 951.018 387.088 949.975 389.107C948.932 391.126 947.468 392.96 945.584 394.609C943.733 396.258 941.31 397.671 938.315 398.849C937.979 398.142 937.474 397.318 936.801 396.375C936.128 395.467 935.472 394.727 934.833 394.155C937.457 393.212 939.544 392.085 941.091 390.773C942.673 389.427 943.868 387.946 944.675 386.331C945.516 384.716 946.105 382.966 946.442 381.082C946.812 379.198 947.081 377.229 947.249 375.177ZM920.347 364.224L924.132 360.338C925.512 360.842 926.976 361.448 928.524 362.155C930.105 362.861 931.603 363.585 933.016 364.325C934.463 365.065 935.674 365.789 936.65 366.495L932.562 370.836C931.687 370.129 930.559 369.389 929.18 368.615C927.8 367.808 926.32 367.017 924.738 366.243C923.19 365.469 921.727 364.796 920.347 364.224ZM935.792 369.17H936.549L937.356 368.918L941.041 370.079C940.637 372.367 940.116 374.722 939.476 377.145C938.871 379.568 938.231 381.637 937.558 383.353L933.47 381.435C933.941 379.955 934.379 378.155 934.782 376.035C935.22 373.915 935.556 371.913 935.792 370.028V369.17ZM955.981 359.025L962.29 359.984C961.18 363.08 959.615 365.738 957.596 367.959C955.611 370.146 953.256 371.963 950.53 373.41C947.804 374.857 944.776 376.052 941.445 376.994C941.243 376.556 940.906 376.018 940.435 375.379C939.998 374.739 939.527 374.117 939.022 373.511C938.551 372.872 938.114 372.367 937.71 371.997C940.805 371.358 943.581 370.483 946.038 369.372C948.528 368.262 950.614 366.865 952.297 365.183C954.013 363.467 955.241 361.414 955.981 359.025ZM945.937 351.353L951.539 352.968C950.732 354.752 949.756 356.502 948.612 358.218C947.468 359.934 946.257 361.549 944.978 363.063C943.733 364.544 942.454 365.822 941.142 366.899C940.772 366.563 940.284 366.192 939.678 365.789C939.073 365.351 938.467 364.931 937.861 364.527C937.256 364.123 936.717 363.787 936.246 363.517C938.231 362.104 940.082 360.321 941.798 358.167C943.514 355.98 944.894 353.709 945.937 351.353ZM946.593 360.338C947.771 362.222 949.302 363.938 951.186 365.486C953.104 367.034 955.308 368.363 957.798 369.473C960.322 370.55 963.047 371.374 965.975 371.946C965.571 372.317 965.117 372.821 964.612 373.461C964.141 374.066 963.687 374.689 963.249 375.328C962.812 375.967 962.442 376.539 962.139 377.044C959.043 376.27 956.2 375.177 953.609 373.763C951.052 372.35 948.747 370.651 946.694 368.666C944.675 366.68 942.976 364.426 941.596 361.902L946.593 360.338ZM926.151 370.987L930.038 372.451C929.399 374.672 928.591 376.943 927.615 379.265C926.673 381.587 925.596 383.74 924.385 385.726C923.174 387.711 921.844 389.376 920.397 390.722C920.128 389.848 919.708 388.855 919.136 387.744C918.597 386.634 918.093 385.675 917.621 384.868C918.833 383.791 919.977 382.495 921.054 380.981C922.164 379.467 923.157 377.852 924.032 376.136C924.906 374.386 925.613 372.67 926.151 370.987ZM945.785 356.552H964.662V361.549H943.363L945.785 356.552ZM934.278 353.726H935.539L936.498 353.524L940.334 355.896C939.594 357.107 938.686 358.352 937.609 359.631C936.532 360.91 935.371 362.121 934.126 363.265C932.915 364.375 931.703 365.351 930.492 366.192C929.954 365.688 929.298 365.166 928.524 364.628C927.783 364.089 927.11 363.635 926.505 363.265C927.582 362.525 928.608 361.667 929.584 360.691C930.593 359.681 931.502 358.655 932.309 357.612C933.15 356.569 933.807 355.627 934.278 354.785V353.726Z"/>
</mask>
<path d="M783.06 357.461L812.334 355.795L812.789 360.136L783.514 361.953L783.06 357.461ZM788.562 351.404H794.215C794.45 353.322 794.988 355.088 795.83 356.703C796.671 358.319 797.697 359.715 798.909 360.893C800.12 362.037 801.415 362.928 802.795 363.568C804.208 364.207 805.605 364.527 806.984 364.527C807.691 364.527 808.162 364.291 808.397 363.82C808.633 363.315 808.818 362.407 808.953 361.095C809.525 361.532 810.231 361.953 811.073 362.356C811.914 362.727 812.688 363.013 813.394 363.215C813.159 365.032 812.772 366.428 812.233 367.404C811.729 368.346 811.022 368.985 810.114 369.322C809.239 369.658 808.128 369.826 806.782 369.826C805.033 369.826 803.317 369.54 801.634 368.968C799.952 368.396 798.387 367.589 796.94 366.546C795.493 365.469 794.181 364.19 793.003 362.71C791.825 361.196 790.85 359.496 790.076 357.612C789.335 355.728 788.831 353.658 788.562 351.404ZM797.445 354.18L800.17 351.252C801.113 351.421 802.122 351.673 803.199 352.009C804.309 352.312 805.369 352.649 806.379 353.019C807.388 353.355 808.229 353.709 808.902 354.079L806.025 357.309C805.42 356.973 804.612 356.619 803.603 356.249C802.627 355.845 801.6 355.458 800.524 355.088C799.447 354.718 798.421 354.415 797.445 354.18ZM780.385 351L785.836 353.12C784.557 354.735 783.043 356.317 781.293 357.864C779.544 359.412 777.727 360.859 775.842 362.205C773.958 363.517 772.107 364.645 770.29 365.587C769.987 365.183 769.567 364.712 769.028 364.174C768.524 363.635 768.002 363.097 767.464 362.558C766.925 361.986 766.437 361.549 766 361.246C767.851 360.438 769.668 359.513 771.451 358.47C773.234 357.393 774.9 356.232 776.448 354.987C777.996 353.709 779.308 352.38 780.385 351ZM775.741 359.126L779.527 355.29L781.546 355.845V368.464H775.741V359.126ZM779.577 378.912V381.032H801.483V378.912H779.577ZM779.577 384.464V386.685H801.483V384.464H779.577ZM779.577 373.309V375.479H801.483V373.309H779.577ZM773.722 369.726H807.64V390.268H773.722V369.726ZM793.104 392.943L798.151 390.066C799.968 390.706 801.802 391.395 803.653 392.136C805.537 392.842 807.321 393.566 809.003 394.306C810.719 395.013 812.166 395.652 813.344 396.224L806.278 398.95C805.335 398.411 804.158 397.789 802.744 397.082C801.331 396.375 799.8 395.652 798.151 394.912C796.536 394.205 794.854 393.549 793.104 392.943ZM781.95 389.864L787.451 392.388C786.105 393.263 784.524 394.121 782.707 394.962C780.89 395.803 779.022 396.56 777.104 397.233C775.186 397.94 773.369 398.529 771.653 399C771.283 398.596 770.829 398.108 770.29 397.536C769.785 396.998 769.247 396.443 768.675 395.871C768.103 395.332 767.598 394.895 767.161 394.558C768.944 394.222 770.744 393.818 772.562 393.347C774.412 392.876 776.145 392.338 777.76 391.732C779.409 391.126 780.805 390.504 781.95 389.864Z" fill="#003396"/>
<path d="M848.625 369.372H854.379V371.896C854.379 373.713 854.261 375.749 854.025 378.003C853.823 380.224 853.386 382.563 852.713 385.019C852.04 387.442 851.014 389.848 849.634 392.237C848.254 394.626 846.404 396.88 844.082 399C843.746 398.563 843.308 398.075 842.77 397.536C842.265 397.032 841.71 396.527 841.104 396.022C840.532 395.551 839.994 395.164 839.489 394.861C841.609 393.044 843.274 391.126 844.486 389.107C845.731 387.055 846.639 385.002 847.211 382.95C847.783 380.863 848.154 378.861 848.322 376.943C848.524 375.025 848.625 373.292 848.625 371.744V369.372ZM853.975 375.479C854.513 378.104 855.253 380.611 856.196 383C857.138 385.355 858.332 387.458 859.779 389.309C861.226 391.126 862.976 392.556 865.028 393.599C864.557 394.003 864.069 394.491 863.565 395.063C863.06 395.669 862.572 396.291 862.101 396.931C861.63 397.57 861.243 398.176 860.94 398.748C858.719 397.334 856.835 395.517 855.287 393.297C853.773 391.076 852.528 388.535 851.552 385.675C850.576 382.781 849.769 379.669 849.129 376.338L853.975 375.479ZM817.685 355.492H841.356V360.438H817.685V355.492ZM816.978 377.498H841.962V382.445H816.978V377.498ZM818.946 362.962H840.246V367.858H818.946V362.962ZM819.249 370.23H839.943V375.126H819.249V370.23ZM826.77 351.757H832.423V366.192H826.77V351.757ZM820.208 383.404L825.155 384.565C824.65 386.415 824.027 388.333 823.287 390.319C822.547 392.27 821.823 393.936 821.117 395.315C820.578 394.979 819.821 394.609 818.845 394.205C817.903 393.801 817.113 393.498 816.473 393.297C817.213 391.984 817.92 390.436 818.593 388.653C819.266 386.836 819.804 385.086 820.208 383.404ZM833.886 385.069L838.379 383.303C838.816 384.144 839.237 385.036 839.64 385.978C840.078 386.886 840.482 387.795 840.852 388.703C841.222 389.612 841.491 390.42 841.659 391.126L836.915 393.145C836.747 392.438 836.494 391.631 836.158 390.722C835.821 389.78 835.451 388.821 835.047 387.845C834.677 386.836 834.29 385.911 833.886 385.069ZM845.899 360.539H860.132V366.041H845.899V360.539ZM844.94 351.505L850.845 352.312C850.442 355.374 849.903 358.369 849.23 361.297C848.591 364.19 847.817 366.899 846.909 369.423C846 371.913 844.957 374.117 843.779 376.035C843.443 375.698 842.972 375.294 842.366 374.823C841.76 374.352 841.138 373.898 840.498 373.461C839.859 372.989 839.304 372.619 838.833 372.35C839.977 370.735 840.936 368.817 841.71 366.596C842.517 364.375 843.174 361.986 843.678 359.429C844.217 356.838 844.637 354.197 844.94 351.505ZM858.568 360.539H859.426L860.385 360.338L864.524 361.448C864.221 363.13 863.851 364.846 863.413 366.596C863.009 368.346 862.572 370.028 862.101 371.644C861.664 373.259 861.226 374.672 860.789 375.883L855.893 374.42C856.229 373.309 856.566 372.014 856.902 370.533C857.239 369.053 857.542 367.538 857.811 365.991C858.114 364.409 858.366 362.895 858.568 361.448V360.539ZM826.82 379.517H832.524V398.798H826.82V379.517Z" fill="#003396"/>
<path d="M868.814 382.293H913.836V387.29H868.814V382.293ZM868.965 359.681H913.685V364.426H868.965V359.681ZM871.035 368.868H911.716V373.461H871.035V368.868ZM873.508 375.732H909.394V380.073H873.508V375.732ZM888.145 371.088H894.151V398.849H888.145V371.088ZM883.855 351.353H889.508V362.054H883.855V351.353ZM893.192 351.353H898.946V361.7H893.192V351.353ZM904.852 351.808L911.161 353.322C910.353 354.701 909.546 356.047 908.738 357.36C907.931 358.638 907.19 359.732 906.517 360.64L901.621 359.126C902.025 358.453 902.429 357.696 902.833 356.855C903.237 355.98 903.607 355.105 903.943 354.23C904.313 353.322 904.616 352.514 904.852 351.808ZM898.644 364.022L905.054 365.637C904.313 366.512 903.59 367.303 902.883 368.009C902.21 368.682 901.571 369.288 900.965 369.826L895.817 368.312C896.322 367.673 896.827 366.95 897.331 366.142C897.87 365.334 898.307 364.628 898.644 364.022ZM872.65 353.423L877.849 351.656C878.589 352.699 879.329 353.911 880.069 355.29C880.81 356.636 881.348 357.797 881.685 358.773L876.183 360.792C875.914 359.782 875.426 358.588 874.719 357.208C874.046 355.829 873.356 354.567 872.65 353.423ZM878.505 365.183L884.208 363.921C884.646 364.56 885.083 365.284 885.521 366.091C885.992 366.899 886.345 367.623 886.58 368.262L880.625 369.675C880.456 369.069 880.154 368.346 879.716 367.505C879.312 366.63 878.909 365.856 878.505 365.183ZM882.644 388.956L886.934 390.924C885.823 391.866 884.427 392.775 882.744 393.65C881.096 394.525 879.363 395.299 877.546 395.972C875.729 396.678 873.945 397.233 872.196 397.637C871.825 396.998 871.287 396.241 870.58 395.366C869.874 394.491 869.218 393.801 868.612 393.297C870.294 393.027 872.027 392.674 873.811 392.237C875.594 391.799 877.26 391.294 878.808 390.722C880.355 390.15 881.634 389.562 882.644 388.956ZM896.322 391.479L900.36 388.603C901.739 389.141 903.253 389.747 904.902 390.42C906.585 391.093 908.2 391.782 909.748 392.489C911.329 393.162 912.658 393.784 913.735 394.356L909.445 397.637C908.469 397.099 907.224 396.46 905.71 395.719C904.196 394.979 902.597 394.239 900.915 393.498C899.266 392.758 897.735 392.085 896.322 391.479Z" fill="#003396"/>
<path d="M919.186 353.726H935.691V358.823H919.186V353.726ZM939.375 379.719H959.868V384.716H939.375V379.719ZM918.479 369.17H937.256V374.42H918.479V369.17ZM926.707 371.341H932.41V392.287C932.41 393.667 932.259 394.777 931.956 395.618C931.687 396.46 931.115 397.116 930.24 397.587C929.365 398.024 928.339 398.31 927.161 398.445C925.983 398.579 924.62 398.647 923.073 398.647C922.972 397.805 922.753 396.83 922.416 395.719C922.08 394.642 921.71 393.7 921.306 392.893C922.282 392.926 923.207 392.943 924.082 392.943C924.957 392.943 925.563 392.943 925.899 392.943C926.202 392.91 926.404 392.859 926.505 392.792C926.639 392.691 926.707 392.489 926.707 392.186V371.341ZM957.95 379.719H964.057C964.057 379.719 964.04 380.005 964.006 380.577C963.973 381.116 963.922 381.587 963.855 381.991C963.619 384.918 963.333 387.341 962.997 389.259C962.694 391.143 962.358 392.657 961.987 393.801C961.617 394.912 961.18 395.736 960.675 396.274C960.137 396.846 959.565 397.25 958.959 397.486C958.387 397.755 957.731 397.957 956.991 398.091C956.385 398.159 955.577 398.192 954.568 398.192C953.558 398.226 952.465 398.226 951.287 398.192C951.253 397.318 951.085 396.359 950.782 395.315C950.513 394.272 950.143 393.364 949.672 392.59C950.58 392.691 951.422 392.758 952.196 392.792C953.003 392.825 953.609 392.842 954.013 392.842C954.416 392.842 954.736 392.809 954.972 392.741C955.207 392.64 955.443 392.489 955.678 392.287C955.981 391.984 956.267 391.412 956.536 390.571C956.805 389.696 957.058 388.434 957.293 386.785C957.529 385.137 957.748 383.034 957.95 380.476V379.719ZM947.249 375.177H953.256C953.02 377.768 952.667 380.241 952.196 382.596C951.758 384.918 951.018 387.088 949.975 389.107C948.932 391.126 947.468 392.96 945.584 394.609C943.733 396.258 941.31 397.671 938.315 398.849C937.979 398.142 937.474 397.318 936.801 396.375C936.128 395.467 935.472 394.727 934.833 394.155C937.457 393.212 939.544 392.085 941.091 390.773C942.673 389.427 943.868 387.946 944.675 386.331C945.516 384.716 946.105 382.966 946.442 381.082C946.812 379.198 947.081 377.229 947.249 375.177ZM920.347 364.224L924.132 360.338C925.512 360.842 926.976 361.448 928.524 362.155C930.105 362.861 931.603 363.585 933.016 364.325C934.463 365.065 935.674 365.789 936.65 366.495L932.562 370.836C931.687 370.129 930.559 369.389 929.18 368.615C927.8 367.808 926.32 367.017 924.738 366.243C923.19 365.469 921.727 364.796 920.347 364.224ZM935.792 369.17H936.549L937.356 368.918L941.041 370.079C940.637 372.367 940.116 374.722 939.476 377.145C938.871 379.568 938.231 381.637 937.558 383.353L933.47 381.435C933.941 379.955 934.379 378.155 934.782 376.035C935.22 373.915 935.556 371.913 935.792 370.028V369.17ZM955.981 359.025L962.29 359.984C961.18 363.08 959.615 365.738 957.596 367.959C955.611 370.146 953.256 371.963 950.53 373.41C947.804 374.857 944.776 376.052 941.445 376.994C941.243 376.556 940.906 376.018 940.435 375.379C939.998 374.739 939.527 374.117 939.022 373.511C938.551 372.872 938.114 372.367 937.71 371.997C940.805 371.358 943.581 370.483 946.038 369.372C948.528 368.262 950.614 366.865 952.297 365.183C954.013 363.467 955.241 361.414 955.981 359.025ZM945.937 351.353L951.539 352.968C950.732 354.752 949.756 356.502 948.612 358.218C947.468 359.934 946.257 361.549 944.978 363.063C943.733 364.544 942.454 365.822 941.142 366.899C940.772 366.563 940.284 366.192 939.678 365.789C939.073 365.351 938.467 364.931 937.861 364.527C937.256 364.123 936.717 363.787 936.246 363.517C938.231 362.104 940.082 360.321 941.798 358.167C943.514 355.98 944.894 353.709 945.937 351.353ZM946.593 360.338C947.771 362.222 949.302 363.938 951.186 365.486C953.104 367.034 955.308 368.363 957.798 369.473C960.322 370.55 963.047 371.374 965.975 371.946C965.571 372.317 965.117 372.821 964.612 373.461C964.141 374.066 963.687 374.689 963.249 375.328C962.812 375.967 962.442 376.539 962.139 377.044C959.043 376.27 956.2 375.177 953.609 373.763C951.052 372.35 948.747 370.651 946.694 368.666C944.675 366.68 942.976 364.426 941.596 361.902L946.593 360.338ZM926.151 370.987L930.038 372.451C929.399 374.672 928.591 376.943 927.615 379.265C926.673 381.587 925.596 383.74 924.385 385.726C923.174 387.711 921.844 389.376 920.397 390.722C920.128 389.848 919.708 388.855 919.136 387.744C918.597 386.634 918.093 385.675 917.621 384.868C918.833 383.791 919.977 382.495 921.054 380.981C922.164 379.467 923.157 377.852 924.032 376.136C924.906 374.386 925.613 372.67 926.151 370.987ZM945.785 356.552H964.662V361.549H943.363L945.785 356.552ZM934.278 353.726H935.539L936.498 353.524L940.334 355.896C939.594 357.107 938.686 358.352 937.609 359.631C936.532 360.91 935.371 362.121 934.126 363.265C932.915 364.375 931.703 365.351 930.492 366.192C929.954 365.688 929.298 365.166 928.524 364.628C927.783 364.089 927.11 363.635 926.505 363.265C927.582 362.525 928.608 361.667 929.584 360.691C930.593 359.681 931.502 358.655 932.309 357.612C933.15 356.569 933.807 355.627 934.278 354.785V353.726Z" fill="#003396"/>
<path d="M783.06 357.461L812.334 355.795L812.789 360.136L783.514 361.953L783.06 357.461ZM788.562 351.404H794.215C794.45 353.322 794.988 355.088 795.83 356.703C796.671 358.319 797.697 359.715 798.909 360.893C800.12 362.037 801.415 362.928 802.795 363.568C804.208 364.207 805.605 364.527 806.984 364.527C807.691 364.527 808.162 364.291 808.397 363.82C808.633 363.315 808.818 362.407 808.953 361.095C809.525 361.532 810.231 361.953 811.073 362.356C811.914 362.727 812.688 363.013 813.394 363.215C813.159 365.032 812.772 366.428 812.233 367.404C811.729 368.346 811.022 368.985 810.114 369.322C809.239 369.658 808.128 369.826 806.782 369.826C805.033 369.826 803.317 369.54 801.634 368.968C799.952 368.396 798.387 367.589 796.94 366.546C795.493 365.469 794.181 364.19 793.003 362.71C791.825 361.196 790.85 359.496 790.076 357.612C789.335 355.728 788.831 353.658 788.562 351.404ZM797.445 354.18L800.17 351.252C801.113 351.421 802.122 351.673 803.199 352.009C804.309 352.312 805.369 352.649 806.379 353.019C807.388 353.355 808.229 353.709 808.902 354.079L806.025 357.309C805.42 356.973 804.612 356.619 803.603 356.249C802.627 355.845 801.6 355.458 800.524 355.088C799.447 354.718 798.421 354.415 797.445 354.18ZM780.385 351L785.836 353.12C784.557 354.735 783.043 356.317 781.293 357.864C779.544 359.412 777.727 360.859 775.842 362.205C773.958 363.517 772.107 364.645 770.29 365.587C769.987 365.183 769.567 364.712 769.028 364.174C768.524 363.635 768.002 363.097 767.464 362.558C766.925 361.986 766.437 361.549 766 361.246C767.851 360.438 769.668 359.513 771.451 358.47C773.234 357.393 774.9 356.232 776.448 354.987C777.996 353.709 779.308 352.38 780.385 351ZM775.741 359.126L779.527 355.29L781.546 355.845V368.464H775.741V359.126ZM779.577 378.912V381.032H801.483V378.912H779.577ZM779.577 384.464V386.685H801.483V384.464H779.577ZM779.577 373.309V375.479H801.483V373.309H779.577ZM773.722 369.726H807.64V390.268H773.722V369.726ZM793.104 392.943L798.151 390.066C799.968 390.706 801.802 391.395 803.653 392.136C805.537 392.842 807.321 393.566 809.003 394.306C810.719 395.013 812.166 395.652 813.344 396.224L806.278 398.95C805.335 398.411 804.158 397.789 802.744 397.082C801.331 396.375 799.8 395.652 798.151 394.912C796.536 394.205 794.854 393.549 793.104 392.943ZM781.95 389.864L787.451 392.388C786.105 393.263 784.524 394.121 782.707 394.962C780.89 395.803 779.022 396.56 777.104 397.233C775.186 397.94 773.369 398.529 771.653 399C771.283 398.596 770.829 398.108 770.29 397.536C769.785 396.998 769.247 396.443 768.675 395.871C768.103 395.332 767.598 394.895 767.161 394.558C768.944 394.222 770.744 393.818 772.562 393.347C774.412 392.876 776.145 392.338 777.76 391.732C779.409 391.126 780.805 390.504 781.95 389.864Z" stroke="white" stroke-width="10" stroke-linejoin="round" mask="url(#path-23-outside-1_1270_20956)"/>
<path d="M848.625 369.372H854.379V371.896C854.379 373.713 854.261 375.749 854.025 378.003C853.823 380.224 853.386 382.563 852.713 385.019C852.04 387.442 851.014 389.848 849.634 392.237C848.254 394.626 846.404 396.88 844.082 399C843.746 398.563 843.308 398.075 842.77 397.536C842.265 397.032 841.71 396.527 841.104 396.022C840.532 395.551 839.994 395.164 839.489 394.861C841.609 393.044 843.274 391.126 844.486 389.107C845.731 387.055 846.639 385.002 847.211 382.95C847.783 380.863 848.154 378.861 848.322 376.943C848.524 375.025 848.625 373.292 848.625 371.744V369.372ZM853.975 375.479C854.513 378.104 855.253 380.611 856.196 383C857.138 385.355 858.332 387.458 859.779 389.309C861.226 391.126 862.976 392.556 865.028 393.599C864.557 394.003 864.069 394.491 863.565 395.063C863.06 395.669 862.572 396.291 862.101 396.931C861.63 397.57 861.243 398.176 860.94 398.748C858.719 397.334 856.835 395.517 855.287 393.297C853.773 391.076 852.528 388.535 851.552 385.675C850.576 382.781 849.769 379.669 849.129 376.338L853.975 375.479ZM817.685 355.492H841.356V360.438H817.685V355.492ZM816.978 377.498H841.962V382.445H816.978V377.498ZM818.946 362.962H840.246V367.858H818.946V362.962ZM819.249 370.23H839.943V375.126H819.249V370.23ZM826.77 351.757H832.423V366.192H826.77V351.757ZM820.208 383.404L825.155 384.565C824.65 386.415 824.027 388.333 823.287 390.319C822.547 392.27 821.823 393.936 821.117 395.315C820.578 394.979 819.821 394.609 818.845 394.205C817.903 393.801 817.113 393.498 816.473 393.297C817.213 391.984 817.92 390.436 818.593 388.653C819.266 386.836 819.804 385.086 820.208 383.404ZM833.886 385.069L838.379 383.303C838.816 384.144 839.237 385.036 839.64 385.978C840.078 386.886 840.482 387.795 840.852 388.703C841.222 389.612 841.491 390.42 841.659 391.126L836.915 393.145C836.747 392.438 836.494 391.631 836.158 390.722C835.821 389.78 835.451 388.821 835.047 387.845C834.677 386.836 834.29 385.911 833.886 385.069ZM845.899 360.539H860.132V366.041H845.899V360.539ZM844.94 351.505L850.845 352.312C850.442 355.374 849.903 358.369 849.23 361.297C848.591 364.19 847.817 366.899 846.909 369.423C846 371.913 844.957 374.117 843.779 376.035C843.443 375.698 842.972 375.294 842.366 374.823C841.76 374.352 841.138 373.898 840.498 373.461C839.859 372.989 839.304 372.619 838.833 372.35C839.977 370.735 840.936 368.817 841.71 366.596C842.517 364.375 843.174 361.986 843.678 359.429C844.217 356.838 844.637 354.197 844.94 351.505ZM858.568 360.539H859.426L860.385 360.338L864.524 361.448C864.221 363.13 863.851 364.846 863.413 366.596C863.009 368.346 862.572 370.028 862.101 371.644C861.664 373.259 861.226 374.672 860.789 375.883L855.893 374.42C856.229 373.309 856.566 372.014 856.902 370.533C857.239 369.053 857.542 367.538 857.811 365.991C858.114 364.409 858.366 362.895 858.568 361.448V360.539ZM826.82 379.517H832.524V398.798H826.82V379.517Z" stroke="white" stroke-width="10" stroke-linejoin="round" mask="url(#path-23-outside-1_1270_20956)"/>
<path d="M868.814 382.293H913.836V387.29H868.814V382.293ZM868.965 359.681H913.685V364.426H868.965V359.681ZM871.035 368.868H911.716V373.461H871.035V368.868ZM873.508 375.732H909.394V380.073H873.508V375.732ZM888.145 371.088H894.151V398.849H888.145V371.088ZM883.855 351.353H889.508V362.054H883.855V351.353ZM893.192 351.353H898.946V361.7H893.192V351.353ZM904.852 351.808L911.161 353.322C910.353 354.701 909.546 356.047 908.738 357.36C907.931 358.638 907.19 359.732 906.517 360.64L901.621 359.126C902.025 358.453 902.429 357.696 902.833 356.855C903.237 355.98 903.607 355.105 903.943 354.23C904.313 353.322 904.616 352.514 904.852 351.808ZM898.644 364.022L905.054 365.637C904.313 366.512 903.59 367.303 902.883 368.009C902.21 368.682 901.571 369.288 900.965 369.826L895.817 368.312C896.322 367.673 896.827 366.95 897.331 366.142C897.87 365.334 898.307 364.628 898.644 364.022ZM872.65 353.423L877.849 351.656C878.589 352.699 879.329 353.911 880.069 355.29C880.81 356.636 881.348 357.797 881.685 358.773L876.183 360.792C875.914 359.782 875.426 358.588 874.719 357.208C874.046 355.829 873.356 354.567 872.65 353.423ZM878.505 365.183L884.208 363.921C884.646 364.56 885.083 365.284 885.521 366.091C885.992 366.899 886.345 367.623 886.58 368.262L880.625 369.675C880.456 369.069 880.154 368.346 879.716 367.505C879.312 366.63 878.909 365.856 878.505 365.183ZM882.644 388.956L886.934 390.924C885.823 391.866 884.427 392.775 882.744 393.65C881.096 394.525 879.363 395.299 877.546 395.972C875.729 396.678 873.945 397.233 872.196 397.637C871.825 396.998 871.287 396.241 870.58 395.366C869.874 394.491 869.218 393.801 868.612 393.297C870.294 393.027 872.027 392.674 873.811 392.237C875.594 391.799 877.26 391.294 878.808 390.722C880.355 390.15 881.634 389.562 882.644 388.956ZM896.322 391.479L900.36 388.603C901.739 389.141 903.253 389.747 904.902 390.42C906.585 391.093 908.2 391.782 909.748 392.489C911.329 393.162 912.658 393.784 913.735 394.356L909.445 397.637C908.469 397.099 907.224 396.46 905.71 395.719C904.196 394.979 902.597 394.239 900.915 393.498C899.266 392.758 897.735 392.085 896.322 391.479Z" stroke="white" stroke-width="10" stroke-linejoin="round" mask="url(#path-23-outside-1_1270_20956)"/>
<path d="M919.186 353.726H935.691V358.823H919.186V353.726ZM939.375 379.719H959.868V384.716H939.375V379.719ZM918.479 369.17H937.256V374.42H918.479V369.17ZM926.707 371.341H932.41V392.287C932.41 393.667 932.259 394.777 931.956 395.618C931.687 396.46 931.115 397.116 930.24 397.587C929.365 398.024 928.339 398.31 927.161 398.445C925.983 398.579 924.62 398.647 923.073 398.647C922.972 397.805 922.753 396.83 922.416 395.719C922.08 394.642 921.71 393.7 921.306 392.893C922.282 392.926 923.207 392.943 924.082 392.943C924.957 392.943 925.563 392.943 925.899 392.943C926.202 392.91 926.404 392.859 926.505 392.792C926.639 392.691 926.707 392.489 926.707 392.186V371.341ZM957.95 379.719H964.057C964.057 379.719 964.04 380.005 964.006 380.577C963.973 381.116 963.922 381.587 963.855 381.991C963.619 384.918 963.333 387.341 962.997 389.259C962.694 391.143 962.358 392.657 961.987 393.801C961.617 394.912 961.18 395.736 960.675 396.274C960.137 396.846 959.565 397.25 958.959 397.486C958.387 397.755 957.731 397.957 956.991 398.091C956.385 398.159 955.577 398.192 954.568 398.192C953.558 398.226 952.465 398.226 951.287 398.192C951.253 397.318 951.085 396.359 950.782 395.315C950.513 394.272 950.143 393.364 949.672 392.59C950.58 392.691 951.422 392.758 952.196 392.792C953.003 392.825 953.609 392.842 954.013 392.842C954.416 392.842 954.736 392.809 954.972 392.741C955.207 392.64 955.443 392.489 955.678 392.287C955.981 391.984 956.267 391.412 956.536 390.571C956.805 389.696 957.058 388.434 957.293 386.785C957.529 385.137 957.748 383.034 957.95 380.476V379.719ZM947.249 375.177H953.256C953.02 377.768 952.667 380.241 952.196 382.596C951.758 384.918 951.018 387.088 949.975 389.107C948.932 391.126 947.468 392.96 945.584 394.609C943.733 396.258 941.31 397.671 938.315 398.849C937.979 398.142 937.474 397.318 936.801 396.375C936.128 395.467 935.472 394.727 934.833 394.155C937.457 393.212 939.544 392.085 941.091 390.773C942.673 389.427 943.868 387.946 944.675 386.331C945.516 384.716 946.105 382.966 946.442 381.082C946.812 379.198 947.081 377.229 947.249 375.177ZM920.347 364.224L924.132 360.338C925.512 360.842 926.976 361.448 928.524 362.155C930.105 362.861 931.603 363.585 933.016 364.325C934.463 365.065 935.674 365.789 936.65 366.495L932.562 370.836C931.687 370.129 930.559 369.389 929.18 368.615C927.8 367.808 926.32 367.017 924.738 366.243C923.19 365.469 921.727 364.796 920.347 364.224ZM935.792 369.17H936.549L937.356 368.918L941.041 370.079C940.637 372.367 940.116 374.722 939.476 377.145C938.871 379.568 938.231 381.637 937.558 383.353L933.47 381.435C933.941 379.955 934.379 378.155 934.782 376.035C935.22 373.915 935.556 371.913 935.792 370.028V369.17ZM955.981 359.025L962.29 359.984C961.18 363.08 959.615 365.738 957.596 367.959C955.611 370.146 953.256 371.963 950.53 373.41C947.804 374.857 944.776 376.052 941.445 376.994C941.243 376.556 940.906 376.018 940.435 375.379C939.998 374.739 939.527 374.117 939.022 373.511C938.551 372.872 938.114 372.367 937.71 371.997C940.805 371.358 943.581 370.483 946.038 369.372C948.528 368.262 950.614 366.865 952.297 365.183C954.013 363.467 955.241 361.414 955.981 359.025ZM945.937 351.353L951.539 352.968C950.732 354.752 949.756 356.502 948.612 358.218C947.468 359.934 946.257 361.549 944.978 363.063C943.733 364.544 942.454 365.822 941.142 366.899C940.772 366.563 940.284 366.192 939.678 365.789C939.073 365.351 938.467 364.931 937.861 364.527C937.256 364.123 936.717 363.787 936.246 363.517C938.231 362.104 940.082 360.321 941.798 358.167C943.514 355.98 944.894 353.709 945.937 351.353ZM946.593 360.338C947.771 362.222 949.302 363.938 951.186 365.486C953.104 367.034 955.308 368.363 957.798 369.473C960.322 370.55 963.047 371.374 965.975 371.946C965.571 372.317 965.117 372.821 964.612 373.461C964.141 374.066 963.687 374.689 963.249 375.328C962.812 375.967 962.442 376.539 962.139 377.044C959.043 376.27 956.2 375.177 953.609 373.763C951.052 372.35 948.747 370.651 946.694 368.666C944.675 366.68 942.976 364.426 941.596 361.902L946.593 360.338ZM926.151 370.987L930.038 372.451C929.399 374.672 928.591 376.943 927.615 379.265C926.673 381.587 925.596 383.74 924.385 385.726C923.174 387.711 921.844 389.376 920.397 390.722C920.128 389.848 919.708 388.855 919.136 387.744C918.597 386.634 918.093 385.675 917.621 384.868C918.833 383.791 919.977 382.495 921.054 380.981C922.164 379.467 923.157 377.852 924.032 376.136C924.906 374.386 925.613 372.67 926.151 370.987ZM945.785 356.552H964.662V361.549H943.363L945.785 356.552ZM934.278 353.726H935.539L936.498 353.524L940.334 355.896C939.594 357.107 938.686 358.352 937.609 359.631C936.532 360.91 935.371 362.121 934.126 363.265C932.915 364.375 931.703 365.351 930.492 366.192C929.954 365.688 929.298 365.166 928.524 364.628C927.783 364.089 927.11 363.635 926.505 363.265C927.582 362.525 928.608 361.667 929.584 360.691C930.593 359.681 931.502 358.655 932.309 357.612C933.15 356.569 933.807 355.627 934.278 354.785V353.726Z" stroke="white" stroke-width="10" stroke-linejoin="round" mask="url(#path-23-outside-1_1270_20956)"/>
</g>
<path d="M775.772 432.952L792.096 432L792.32 433.96L775.968 434.968L775.772 432.952ZM779.244 429.368H781.736C782.324 433.82 786.384 436.956 789.548 436.928C790.332 436.9 790.528 436.424 790.64 434.884C791.172 435.304 791.984 435.668 792.628 435.864C792.292 438.636 791.452 439.252 789.464 439.252C784.928 439.224 779.972 435.304 779.244 429.368ZM783.976 430.656L785.208 429.34C786.832 429.62 788.96 430.348 790.108 430.936L788.792 432.42C787.728 431.832 785.628 431.076 783.976 430.656ZM774.904 429.2L777.284 430.124C775.1 432.784 771.656 435.276 768.66 436.816C768.24 436.34 767.316 435.36 766.756 434.94C769.808 433.624 773 431.496 774.904 429.2ZM772.16 433.344L773.924 431.608L774.708 431.832V438.664H772.16V433.344ZM773.532 444.264V445.86H786.776V444.264H773.532ZM773.532 447.456V449.108H786.776V447.456H773.532ZM773.532 441.072V442.668H786.776V441.072H773.532ZM770.956 439.42H789.464V450.76H770.956V439.42ZM781.988 452.216L784.172 450.928C787.196 451.908 790.612 453.224 792.628 454.176L789.604 455.436C787.924 454.512 784.956 453.252 781.988 452.216ZM775.576 450.844L777.984 451.936C775.716 453.336 772.132 454.68 769.304 455.464C768.856 454.932 767.932 453.952 767.344 453.504C770.256 452.916 773.616 451.936 775.576 450.844ZM812.676 438.832H815.196V440.204C815.196 444.376 814.72 450.648 809.456 455.436C809.008 454.848 808.084 454.036 807.44 453.644C812.284 449.36 812.676 443.844 812.676 440.148V438.832ZM815 442.248C815.896 447.036 817.856 451.292 821.3 453.112C820.712 453.616 819.872 454.624 819.508 455.324C815.812 453.056 813.908 448.296 812.872 442.64L815 442.248ZM795.316 431.86H808.336V434.044H795.316V431.86ZM794.98 443.956H808.644V446.14H794.98V443.956ZM795.988 436.032H807.748V438.216H795.988V436.032ZM796.24 439.98H807.496V442.164H796.24V439.98ZM800.608 429.508H803.1V437.46H800.608V429.508ZM797.08 446.924L799.264 447.456C798.62 449.528 797.64 451.908 796.8 453.448C796.296 453.14 795.288 452.692 794.728 452.496C795.624 451.012 796.52 448.856 797.08 446.924ZM804.36 447.68L806.348 446.896C807.104 448.268 807.972 450.144 808.364 451.264L806.264 452.188C805.928 451.04 805.088 449.108 804.36 447.68ZM810.744 434.436H818.948V436.872H810.744V434.436ZM810.576 429.396L813.152 429.76C812.48 434.716 811.22 439.476 809.344 442.556C808.868 442.108 807.776 441.324 807.16 440.96C809.008 438.244 810.044 433.876 810.576 429.396ZM818.276 434.436H818.668L819.088 434.352L820.88 434.856C820.348 437.488 819.536 440.54 818.808 442.472L816.652 441.828C817.24 440.064 817.912 437.152 818.276 434.884V434.436ZM800.636 444.824H803.128V455.352H800.636V444.824ZM831.688 442.92H841.236V451.404H831.688V449.22H838.744V445.132H831.688V442.92ZM830.54 442.92H833.004V453.056H830.54V442.92ZM825.696 434.576H833.144V436.452H825.696V434.576ZM838.632 434.576H846.192V436.452H838.632V434.576ZM845.044 430.516H847.732V452.02C847.732 453.644 847.368 454.428 846.36 454.876C845.296 455.324 843.616 455.352 841.096 455.352C841.012 454.624 840.564 453.364 840.172 452.664C841.936 452.748 843.812 452.72 844.344 452.692C844.876 452.692 845.044 452.524 845.044 451.992V430.516ZM825.892 430.516H834.824V440.652H825.892V438.58H832.332V432.588H825.892V430.516ZM846.472 430.516V432.588H839.584V438.636H846.472V440.68H837.064V430.516H846.472ZM824.408 430.516H827.04V455.38H824.408V430.516ZM855.096 435.892V437.656H859.912V435.892H855.096ZM855.096 432.364V434.128H859.912V432.364H855.096ZM852.744 430.516H862.376V439.532H852.744V430.516ZM851.232 441.408H863.86V443.396H851.232V441.408ZM863.72 430.656H876.544V432.588H863.72V430.656ZM856.664 442.024H858.904V452.944L856.664 451.628V442.024ZM857.84 446.084H863.356V448.044H857.84V446.084ZM869.208 431.132L871.644 431.636C871.056 433.148 870.412 434.772 869.88 435.836L867.948 435.36C868.424 434.156 868.928 432.392 869.208 431.132ZM867.08 439.84V441.604H873.072V439.84H867.08ZM867.08 443.368V445.16H873.072V443.368H867.08ZM867.08 436.312V438.076H873.072V436.312H867.08ZM864.7 434.464H875.536V447.036H864.7V434.464ZM866.996 447.4L869.208 448.072C868.004 449.64 865.988 451.236 864.252 452.188C863.86 451.796 863.02 450.984 862.516 450.62C864.224 449.836 865.988 448.632 866.996 447.4ZM852.884 444.74H855.068C854.9 448.884 854.396 453.028 852.352 455.492C852.016 454.932 851.288 454.12 850.756 453.728C852.408 451.712 852.772 448.156 852.884 444.74ZM854.592 447.316C856.412 452.076 860.416 452.636 866.436 452.636C868.004 452.636 875.256 452.636 877.188 452.58C876.824 453.084 876.432 454.12 876.292 454.792H866.436C859.408 454.792 855.18 453.868 852.996 447.848L854.592 447.316ZM870.944 448.268L872.764 447.288C874.332 448.268 876.124 449.808 877.02 450.872L875.116 452.048C874.22 450.928 872.4 449.304 870.944 448.268ZM896.004 441.1L898.664 441.856C895.556 449.472 889.34 453.308 880.884 455.408C880.576 454.792 879.764 453.588 879.26 453.028C887.576 451.348 893.428 447.876 896.004 441.1ZM886.624 436.284L889.228 437.292C887.268 439.728 884.3 442.248 881.808 443.816C881.332 443.284 880.324 442.304 879.708 441.856C882.228 440.54 885 438.384 886.624 436.284ZM888.108 441.24C890.656 447.512 896.256 451.46 904.824 452.804C904.236 453.364 903.536 454.484 903.172 455.212C894.324 453.532 888.78 449.22 885.728 441.968L888.108 441.24ZM879.764 433.12H904.18V435.696H879.764V433.12ZM895.024 437.712L897.096 436.2C899.588 437.908 902.808 440.428 904.348 442.192L902.108 443.928C900.708 442.164 897.572 439.504 895.024 437.712ZM889.48 429.956L892 429.088C892.756 430.236 893.68 431.804 894.044 432.812L891.412 433.82C891.048 432.784 890.236 431.16 889.48 429.956ZM920.252 438.496H929.52V440.904H920.252V438.496ZM920.224 451.628H929.828V453.98H920.224V451.628ZM918.964 443.704H931.284V455.38H928.596V446.056H921.54V455.436H918.964V443.704ZM925.824 430.292C927.504 433.512 930.724 437.012 933.608 438.804C932.992 439.28 932.096 440.26 931.648 440.96C928.736 438.804 925.6 434.856 923.78 431.104L925.824 430.292ZM924.144 429.368L926.608 430.096C924.844 434.548 921.848 438.552 918.04 441.268C917.648 440.736 916.752 439.812 916.192 439.364C919.804 436.984 922.716 433.176 924.144 429.368ZM913.98 440.624L915.968 440.008C916.724 441.912 917.508 444.404 917.816 445.888L915.688 446.616C915.408 445.076 914.708 442.556 913.98 440.624ZM911.376 447.904L913.42 447.512C913.784 449.5 914.12 452.02 914.232 453.728L912.104 454.176C912.048 452.468 911.712 449.864 911.376 447.904ZM908.156 447.596L910.424 447.96C910.172 450.508 909.64 453.28 909.052 455.044C908.548 454.764 907.456 454.428 906.868 454.232C907.54 452.524 907.932 449.948 908.156 447.596ZM907.652 440.148C907.512 439.616 907.12 438.44 906.84 437.796C907.344 437.656 907.848 437.096 908.408 436.228C909.052 435.416 910.984 432.252 912.104 429.2L914.512 430.236C913.084 433.344 911.096 436.564 909.192 438.804V438.86C909.192 438.86 907.652 439.644 907.652 440.148ZM907.652 440.148L907.568 438.272L908.744 437.544L913.672 437.152C913.532 437.796 913.448 438.72 913.42 439.252C908.996 439.7 908.156 439.896 907.652 440.148ZM907.848 446.532C907.708 446 907.288 444.768 906.98 444.096C907.652 443.928 908.268 443.256 909.164 442.248C910.088 441.24 913 437.32 914.82 433.54L917.06 434.94C914.96 438.692 912.16 442.472 909.444 445.188V445.244C909.444 445.244 907.848 446.028 907.848 446.532ZM907.848 446.532L907.736 444.628L908.912 443.844L916.304 442.92C916.22 443.564 916.164 444.516 916.192 444.992C909.444 445.972 908.464 446.224 907.848 446.532ZM914.4 447.344L916.304 446.728C916.92 448.408 917.592 450.564 917.872 451.992L915.856 452.692C915.604 451.264 914.96 449.024 914.4 447.344ZM950.044 440.848H952.76V451.18C952.76 452.216 952.956 452.384 953.964 452.384C954.412 452.384 956.512 452.384 957.128 452.384C958.192 452.384 958.36 451.656 958.472 447.456C959.06 447.932 960.208 448.408 960.936 448.576C960.656 453.504 959.984 454.876 957.352 454.876C956.736 454.876 954.16 454.876 953.572 454.876C950.772 454.876 950.044 454.008 950.044 451.208V440.848ZM935.568 439.224H960.46V441.8H935.568V439.224ZM938.06 431.468H957.996V434.016H938.06V431.468ZM942.4 441.212H945.228C944.78 447.428 943.604 452.552 936.772 455.296C936.464 454.652 935.708 453.672 935.12 453.168C941.28 450.872 942.036 446.448 942.4 441.212ZM978.212 443.116H980.872V451.404C980.872 452.272 981.04 452.412 982.02 452.412C982.468 452.412 984.512 452.412 985.1 452.412C986.052 452.412 986.192 451.88 986.304 448.38C986.864 448.828 988.012 449.248 988.74 449.444C988.46 453.784 987.732 454.932 985.324 454.932C984.736 454.932 982.244 454.932 981.684 454.932C978.884 454.932 978.212 454.092 978.212 451.404V443.116ZM963.624 441.212H988.404V443.788H963.624V441.212ZM968.244 433.484H986.304V436.032H968.244V433.484ZM970.708 443.2H973.48C972.948 448.744 971.548 453.112 964.884 455.52C964.576 454.82 963.82 453.756 963.204 453.224C969.28 451.32 970.26 447.68 970.708 443.2ZM968.524 429.928L971.212 430.46C970.344 433.708 968.888 437.656 966.956 440.148C966.34 439.728 965.276 439.168 964.632 438.916C966.508 436.592 967.88 432.812 968.524 429.928ZM974.656 429.368H977.344V442.024H974.656V429.368ZM995.824 434.66H1015.26V437.236H995.824V434.66ZM994.62 442.892H1014.22V445.44H994.62V442.892ZM991.484 451.936H1016.63V454.512H991.484V451.936ZM1002.66 429.368H1005.43V453.196H1002.66V429.368ZM996.3 429.788L999.016 430.404C997.812 434.744 995.796 438.944 993.584 441.632C993.052 441.184 991.876 440.4 991.204 440.036C993.444 437.6 995.264 433.736 996.3 429.788ZM1029.68 448.072L1028.92 446.252C1031.24 445.412 1032.5 444.012 1032.5 442.108L1032.11 439.588L1033.65 441.884C1033.23 442.332 1032.67 442.5 1032.08 442.5C1030.82 442.5 1029.73 441.716 1029.73 440.288C1029.73 438.86 1030.85 438.048 1032.14 438.048C1033.88 438.048 1034.8 439.42 1034.8 441.548C1034.8 444.628 1032.84 447.064 1029.68 448.072ZM1051.71 444.236H1070.75V446.532H1051.71V444.236ZM1048.02 434.072H1066.44V436.48H1048.02V434.072ZM1056.08 439.168H1068.85V441.464H1056.08V439.168ZM1069.69 444.236H1072.32C1072.32 444.236 1072.29 444.964 1072.24 445.3C1071.73 451.124 1071.23 453.504 1070.33 454.428C1069.74 455.044 1069.16 455.268 1068.26 455.352C1067.53 455.408 1066.16 455.408 1064.7 455.352C1064.68 454.624 1064.37 453.588 1063.95 452.916C1065.29 453.056 1066.55 453.084 1067.11 453.056C1067.59 453.056 1067.87 453.028 1068.15 452.776C1068.76 452.16 1069.27 450.004 1069.69 444.628V444.236ZM1063.58 447.82L1065.4 447.148C1066.24 448.296 1067.08 449.864 1067.39 450.872L1065.46 451.628C1065.15 450.62 1064.34 448.996 1063.58 447.82ZM1051.35 430.348L1053.7 429.424C1054.74 430.516 1055.94 432.084 1056.5 433.148L1054.01 434.212C1053.53 433.148 1052.38 431.524 1051.35 430.348ZM1055.21 448.52L1057.37 448.268C1057.9 450.06 1058.18 452.384 1058.18 453.924L1055.88 454.232C1055.97 452.72 1055.69 450.368 1055.21 448.52ZM1059.38 448.296L1061.43 447.82C1062.13 449.36 1062.8 451.376 1063.02 452.72L1060.84 453.28C1060.67 451.936 1060.03 449.864 1059.38 448.296ZM1051.54 447.764L1053.78 448.492C1053.17 450.872 1052.24 453.504 1050.56 455.24L1048.52 453.784C1050 452.328 1051.04 449.948 1051.54 447.764ZM1059.89 429.34L1062.6 430.012C1060.08 437.936 1055.72 445.384 1048.07 449.724C1047.76 449.08 1047.09 448.044 1046.64 447.456C1053.67 443.676 1057.87 436.536 1059.89 429.34ZM1065.88 434.072H1068.34C1067.95 436.088 1067.45 438.468 1067 440.036L1064.68 439.672C1065.1 438.188 1065.57 435.892 1065.88 434.072ZM1067.87 439.168H1070.33C1069.94 441.156 1069.46 443.536 1069.02 445.076L1066.66 444.796C1067.11 443.256 1067.59 440.988 1067.87 439.168ZM1086.91 429.396L1089.34 429.984C1088.28 432.98 1086.49 435.836 1084.56 437.684C1084.14 437.236 1083.16 436.396 1082.6 436.032C1084.44 434.436 1086.01 431.944 1086.91 429.396ZM1086.85 437.208L1089.26 437.88C1088.34 440.064 1086.8 442.304 1085.28 443.732C1084.86 443.284 1083.88 442.528 1083.32 442.164C1084.78 440.932 1086.1 439.056 1086.85 437.208ZM1086.94 431.86H1098.64V434.128H1086.01L1086.94 431.86ZM1094.72 438.16L1096.85 437.152C1098.25 438.832 1099.68 441.072 1100.32 442.584L1098.08 443.76C1097.46 442.248 1096.04 439.868 1094.72 438.16ZM1097.94 431.86H1098.33L1098.75 431.776L1100.6 432.196C1099.9 433.904 1099.03 435.836 1098.36 437.068L1096.09 436.592C1096.71 435.472 1097.46 433.652 1097.94 432.196V431.86ZM1081.48 429.284L1083.83 430.068C1082.04 433.596 1079.21 437.096 1076.49 439.336C1076.18 438.832 1075.34 437.74 1074.84 437.236C1077.42 435.332 1079.94 432.308 1081.48 429.284ZM1078.9 434.884L1081.39 432.392L1081.45 432.42V445.58H1078.9V434.884ZM1081.22 446.924H1083.88V451.46C1083.88 452.3 1084.19 452.412 1085.96 452.412C1086.77 452.412 1090.66 452.412 1091.75 452.412C1093.21 452.412 1093.46 452.048 1093.6 449.248C1094.19 449.696 1095.31 450.088 1096.04 450.228C1095.7 453.952 1094.89 454.848 1091.92 454.848C1091.16 454.848 1086.52 454.848 1085.76 454.848C1082.15 454.848 1081.22 454.12 1081.22 451.516V446.924ZM1085.56 445.832L1087.58 444.684C1089.09 446.056 1090.8 448.044 1091.56 449.416L1089.34 450.732C1088.67 449.36 1087.02 447.288 1085.56 445.832ZM1095.22 447.344L1097.58 446.42C1098.86 448.436 1100.18 451.068 1100.63 452.832L1098.11 453.84C1097.72 452.104 1096.48 449.388 1095.22 447.344ZM1077.92 446.952L1080.3 447.932C1079.6 449.864 1078.62 452.496 1077.64 454.232L1075.15 453.056C1076.24 451.404 1077.3 448.884 1077.92 446.952ZM1090.97 435.024H1093.52V445.468H1090.97V435.024ZM1115.86 435.864V437.712H1124.43V435.864H1115.86ZM1115.86 432.224V434.072H1124.43V432.224H1115.86ZM1113.42 430.264H1126.98V439.672H1113.42V430.264ZM1112.11 441.38H1128.46V443.564H1112.11V441.38ZM1118.88 442.528H1121.38V453.952L1118.88 452.888V442.528ZM1115.64 447.596C1117.06 452.02 1120.03 452.664 1123.73 452.664C1124.54 452.664 1128.21 452.664 1129.3 452.608C1128.96 453.168 1128.63 454.288 1128.54 454.96H1123.64C1119 454.96 1115.78 453.952 1114.04 448.156L1115.64 447.596ZM1120.65 446.476H1127.03V448.604H1120.65V446.476ZM1113.87 444.684L1116.28 444.964C1115.69 449.556 1114.26 453.084 1111.74 455.352C1111.35 454.932 1110.34 454.12 1109.78 453.756C1112.22 451.824 1113.45 448.688 1113.87 444.684ZM1102.73 443.956C1104.94 443.424 1108.24 442.444 1111.44 441.492L1111.8 443.9C1108.89 444.824 1105.78 445.804 1103.34 446.532L1102.73 443.956ZM1103.01 434.884H1111.72V437.32H1103.01V434.884ZM1106.28 429.396H1108.75V452.188C1108.75 453.504 1108.5 454.204 1107.71 454.596C1106.98 455.016 1105.81 455.1 1104.04 455.1C1103.96 454.456 1103.65 453.364 1103.32 452.664C1104.46 452.692 1105.5 452.692 1105.84 452.664C1106.17 452.664 1106.28 452.552 1106.28 452.16V429.396ZM773.196 464.424L775.688 465.208C773.868 469.968 770.984 474.84 767.932 478.032C767.68 477.388 766.952 475.96 766.504 475.316C769.136 472.684 771.684 468.568 773.196 464.424ZM770.284 471.928L772.86 469.352L772.888 469.38V490.324H770.284V471.928ZM775.436 470.136H792.684V472.684H775.436V470.136ZM774.736 479.012H792.964V481.616H774.736V479.012ZM778.824 464.648H781.4V480.384H778.824V464.648ZM786.272 464.592H788.848V480.412H786.272V464.592ZM779.468 482.988L781.96 483.772C780.588 486.208 778.404 488.7 776.472 490.268C775.996 489.82 774.988 488.98 774.372 488.616C776.332 487.216 778.292 485.088 779.468 482.988ZM785.74 484.192L787.84 483.016C789.716 484.836 791.732 487.272 792.74 488.952L790.5 490.352C789.576 488.644 787.56 486.068 785.74 484.192ZM798.452 465.348H817.604V474.14H814.916V467.28H801.028V474.14H798.452V465.348ZM802.12 468.708H813.824V470.36H802.12V468.708ZM802.12 471.788H813.768V473.524H802.12V471.788ZM795.512 475.064H820.404V477.22H795.512V475.064ZM807.916 478.648H817.632V480.748H807.916V478.648ZM799.404 478.732H806.068V480.636H799.404V478.732ZM799.404 482.204H806.068V484.108H799.404V482.204ZM811.22 480.552C812.844 484.304 816.288 487.16 820.936 488.28C820.376 488.756 819.704 489.736 819.34 490.352C814.468 488.924 810.968 485.676 809.092 481.168L811.22 480.552ZM817.016 478.648H817.492L817.94 478.564L819.564 479.208C817.8 485.004 813.544 488.56 808.588 490.296C808.28 489.68 807.636 488.728 807.16 488.224C811.612 486.908 815.616 483.632 817.016 479.068V478.648ZM795.176 486.46C797.92 486.264 802.064 485.872 806.096 485.48L806.152 487.552C802.316 488 798.34 488.42 795.428 488.728L795.176 486.46ZM804.696 475.764H807.216V490.352H804.696V475.764ZM797.78 475.792H800.216V487.104H797.78V475.792ZM823.232 482.12H848.768V484.248H823.232V482.12ZM824.044 466.384H847.676V468.428H824.044V466.384ZM839.668 480.384H842.216V487.692C842.216 488.98 841.964 489.652 840.984 490.016C839.976 490.352 838.492 490.352 836.28 490.352C836.168 489.68 835.832 488.728 835.496 488.056C837.036 488.112 838.632 488.112 839.08 488.112C839.528 488.084 839.668 487.972 839.668 487.608V480.384ZM834.628 464.396H837.232V479.46H834.628V464.396ZM827.712 485.34L829.532 483.8C831.128 484.752 833.144 486.236 834.096 487.328L832.164 489.036C831.24 487.944 829.336 486.376 827.712 485.34ZM828.72 474.476V475.932H843.364V474.476H828.72ZM828.72 471.452V472.88H843.364V471.452H828.72ZM826.228 469.772H845.968V477.612H826.228V469.772ZM840.06 478.144L841.6 476.884C843.756 477.668 846.332 479.096 847.704 480.132L846.136 481.56C844.792 480.44 842.188 478.956 840.06 478.144ZM824.38 478.984C829.504 479.012 837.708 478.956 845.408 478.816L845.296 480.524C837.792 480.748 829.812 480.888 824.492 480.972L824.38 478.984ZM851.68 481.588H876.404V483.8H851.68V481.588ZM851.764 469.184H876.292V471.312H851.764V469.184ZM852.912 474.14H875.256V476.212H852.912V474.14ZM854.312 477.92H873.912V479.88H854.312V477.92ZM862.628 475.12H865.26V490.38H862.628V475.12ZM860.164 464.34H862.628V470.248H860.164V464.34ZM865.4 464.34H867.92V470.108H865.4V464.34ZM871.896 464.648L874.64 465.348C873.772 466.888 872.792 468.456 872.036 469.548L869.88 468.848C870.608 467.7 871.448 465.908 871.896 464.648ZM868.34 471.172L871.112 471.9C870.356 472.908 869.572 473.86 868.928 474.532L866.716 473.86C867.248 473.076 867.976 471.928 868.34 471.172ZM853.948 465.376L856.216 464.592C857.14 465.824 858.12 467.532 858.484 468.652L856.104 469.548C855.74 468.428 854.816 466.664 853.948 465.376ZM857.336 471.704L859.828 471.144C860.388 471.956 861.004 473.076 861.284 473.832L858.708 474.476C858.484 473.748 857.896 472.572 857.336 471.704ZM859.632 485.004L861.564 485.9C859.604 487.468 856.048 488.924 853.136 489.568C852.8 488.98 852.072 488.112 851.54 487.636C854.424 487.188 857.868 486.152 859.632 485.004ZM866.8 486.18L868.508 484.836C871 485.732 874.472 487.104 876.348 488L874.556 489.54C872.82 488.644 869.348 487.16 866.8 486.18ZM881.808 468.904H890.348V487.44H881.808V485.088H887.94V471.228H881.808V468.904ZM880.24 468.904H882.676V489.596H880.24V468.904ZM881.668 476.548H889.144V478.872H881.668V476.548ZM884.412 464.34L887.268 464.788C886.68 466.608 885.98 468.568 885.42 469.856L883.292 469.352C883.74 467.952 884.216 465.824 884.412 464.34ZM894.212 468.764H902.64V471.2H894.212V468.764ZM901.716 468.764H904.18C904.18 468.764 904.18 469.688 904.152 470.024C903.76 482.764 903.396 487.16 902.248 488.588C901.576 489.512 900.876 489.792 899.812 489.932C898.804 490.044 897.124 489.988 895.528 489.932C895.472 489.176 895.136 488.056 894.66 487.356C896.48 487.496 898.16 487.524 898.832 487.524C899.392 487.524 899.728 487.44 900.036 487.048C900.96 486.068 901.38 481.336 901.716 469.296V468.764ZM894.576 464.312L897.124 464.9C896.06 469.072 894.324 473.244 892.42 475.904C891.944 475.484 890.852 474.728 890.236 474.392C892.14 471.956 893.68 468.12 894.576 464.312ZM893.26 476.38L895.332 475.204C896.816 477.164 898.72 479.88 899.616 481.532L897.348 482.904C896.536 481.196 894.716 478.424 893.26 476.38ZM914.148 476.94C917.2 482.96 923.724 486.516 933.048 487.608C932.46 488.252 931.732 489.456 931.368 490.184C921.736 488.812 915.324 484.864 911.656 477.836L914.148 476.94ZM909.36 474.896H927.476V477.472H909.36V474.896ZM908.044 468.4H931.844V471.032H908.044V468.4ZM918.544 464.368H921.288V476.072H918.544V464.368ZM926.86 474.896H927.42L927.924 474.784L929.772 475.876C926.244 484.696 917.844 488.7 908.268 490.352C908.016 489.68 907.344 488.42 906.812 487.832C916.164 486.46 924.032 483.016 926.86 475.372V474.896ZM944.444 471.984H959.872V474.112H944.444V471.984ZM943.828 475.932H960.712V478.116H943.828V475.932ZM947.58 479.684H957.128V481.644H947.58V479.684ZM945.2 468.652L947.244 468.092C947.72 469.156 948.336 470.584 948.588 471.452L946.432 472.152C946.208 471.228 945.676 469.744 945.2 468.652ZM950.156 468.12L952.256 467.756C952.592 468.904 952.928 470.416 953.068 471.312L950.856 471.816C950.744 470.864 950.464 469.296 950.156 468.12ZM958.108 464.536L959.62 466.496C955.616 467.364 949.54 467.784 944.556 467.896C944.5 467.308 944.22 466.44 943.968 465.908C948.868 465.74 954.72 465.264 958.108 464.536ZM949.708 481.112C951.64 484.808 955.84 487.3 961.272 488.224C960.712 488.756 960.012 489.764 959.676 490.436C954.02 489.204 949.848 486.264 947.524 481.756L949.708 481.112ZM956.792 467.364L959.256 468.12C958.248 469.828 957.044 471.732 956.064 472.992L954.16 472.292C955.084 470.948 956.204 468.848 956.792 467.364ZM956.568 479.684H957.072L957.52 479.6L958.976 480.216C957.212 486.18 952.956 489.064 947.608 490.436C947.328 489.876 946.628 488.896 946.152 488.448C951.276 487.356 955.14 484.948 956.568 480.048V479.684ZM948.028 473.356H950.576C950.1 479.096 949.176 486.404 943.184 490.324C942.82 489.736 942.064 488.868 941.42 488.448C946.992 485.004 947.636 478.2 948.028 473.356ZM934.812 479.656C937.024 479.096 940.3 478.116 943.492 477.164L943.828 479.6C940.86 480.552 937.696 481.504 935.232 482.26L934.812 479.656ZM935.092 469.884H943.632V472.32H935.092V469.884ZM938.368 464.396H940.804V487.44C940.804 488.784 940.552 489.484 939.768 489.876C939.04 490.296 937.892 490.38 936.1 490.38C936.016 489.736 935.708 488.644 935.372 487.916C936.52 487.972 937.556 487.972 937.892 487.944C938.228 487.944 938.368 487.832 938.368 487.44V464.396ZM974.852 481.056L974.208 470.752L974.096 467.056H977.876L977.764 470.752L977.12 481.056H974.852ZM976 488.196C974.796 488.196 973.9 487.356 973.9 486.096C973.9 484.808 974.824 483.94 976 483.94C977.148 483.94 978.072 484.808 978.072 486.096C978.072 487.356 977.148 488.196 976 488.196Z" fill="white"/>
<defs>
<filter id="filter0_d_1270_20956" x="-0.00625014" y="53.9937" width="1264.01" height="737.013" filterUnits="userSpaceOnUse" color-interpolation-filters="sRGB">
<feFlood flood-opacity="0" result="BackgroundImageFix"/>
<feColorMatrix in="SourceAlpha" type="matrix" values="0 0 0 0 0 0 0 0 0 0 0 0 0 0 0 0 0 0 127 0" result="hardAlpha"/>
<feMorphology radius="2.00625" operator="dilate" in="SourceAlpha" result="effect1_dropShadow_1270_20956"/>
<feOffset/>
<feGaussianBlur stdDeviation="15"/>
<feComposite in2="hardAlpha" operator="out"/>
<feColorMatrix type="matrix" values="0 0 0 0 0.725488 0 0 0 0 1 0 0 0 0 1 0 0 0 0.5 0"/>
<feBlend mode="normal" in2="BackgroundImageFix" result="effect1_dropShadow_1270_20956"/>
<feBlend mode="normal" in="SourceGraphic" in2="effect1_dropShadow_1270_20956" result="shape"/>
</filter>
<filter id="filter1_d_1270_20956" x="17.498" y="70.5" width="1229.5" height="703.5" filterUnits="userSpaceOnUse" color-interpolation-filters="sRGB">
<feFlood flood-opacity="0" result="BackgroundImageFix"/>
<feColorMatrix in="SourceAlpha" type="matrix" values="0 0 0 0 0 0 0 0 0 0 0 0 0 0 0 0 0 0 127 0" result="hardAlpha"/>
<feOffset/>
<feGaussianBlur stdDeviation="15"/>
<feComposite in2="hardAlpha" operator="out"/>
<feColorMatrix type="matrix" values="0 0 0 0 0 0 0 0 0 1 0 0 0 0 1 0 0 0 1 0"/>
<feBlend mode="normal" in2="BackgroundImageFix" result="effect1_dropShadow_1270_20956"/>
<feBlend mode="normal" in="SourceGraphic" in2="effect1_dropShadow_1270_20956" result="shape"/>
</filter>
<filter id="filter2_d_1270_20956" x="121.046" y="0.436548" width="573.909" height="819.909" filterUnits="userSpaceOnUse" color-interpolation-filters="sRGB">
<feFlood flood-opacity="0" result="BackgroundImageFix"/>
<feColorMatrix in="SourceAlpha" type="matrix" values="0 0 0 0 0 0 0 0 0 0 0 0 0 0 0 0 0 0 127 0" result="hardAlpha"/>
<feOffset dy="3.39086"/>
<feGaussianBlur stdDeviation="8.47716"/>
<feComposite in2="hardAlpha" operator="out"/>
<feColorMatrix type="matrix" values="0 0 0 0 0 0 0 0 0 0.94 0 0 0 0 1 0 0 0 1 0"/>
<feBlend mode="normal" in2="BackgroundImageFix" result="effect1_dropShadow_1270_20956"/>
<feBlend mode="normal" in="SourceGraphic" in2="effect1_dropShadow_1270_20956" result="shape"/>
</filter>
<filter id="filter3_d_1270_20956" x="752" y="337" width="227.975" height="76.0005" filterUnits="userSpaceOnUse" color-interpolation-filters="sRGB">
<feFlood flood-opacity="0" result="BackgroundImageFix"/>
<feColorMatrix in="SourceAlpha" type="matrix" values="0 0 0 0 0 0 0 0 0 0 0 0 0 0 0 0 0 0 127 0" result="hardAlpha"/>
<feOffset/>
<feGaussianBlur stdDeviation="4.5"/>
<feComposite in2="hardAlpha" operator="out"/>
<feColorMatrix type="matrix" values="0 0 0 0 0 0 0 0 0 1 0 0 0 0 1 0 0 0 1 0"/>
<feBlend mode="normal" in2="BackgroundImageFix" result="effect1_dropShadow_1270_20956"/>
<feBlend mode="normal" in="SourceGraphic" in2="effect1_dropShadow_1270_20956" result="shape"/>
</filter>
<radialGradient id="paint0_radial_1270_20956" cx="0" cy="0" r="1" gradientUnits="userSpaceOnUse" gradientTransform="translate(824 460.5) rotate(28.8069) scale(325.821 242.459)">
<stop stop-color="#003A91"/>
<stop offset="1" stop-color="#062553"/>
</radialGradient>
<linearGradient id="paint1_linear_1270_20956" x1="-165.98" y1="437.982" x2="485.917" y2="1076.39" gradientUnits="userSpaceOnUse">
<stop stop-color="#00F9FF"/>
<stop offset="0.135" stop-color="#ABFFFA"/>
<stop offset="0.33" stop-color="#61FBFF"/>
<stop offset="0.51" stop-color="#73FCFF"/>
<stop offset="1" stop-color="#66FFC8"/>
</linearGradient>
<radialGradient id="paint2_radial_1270_20956" cx="0" cy="0" r="1" gradientUnits="userSpaceOnUse" gradientTransform="translate(138 275.672) rotate(40.6984) scale(960.229 503.496)">
<stop stop-color="#045284"/>
<stop offset="0.772851" stop-color="#042B66"/>
</radialGradient>
<linearGradient id="paint3_linear_1270_20956" x1="745.497" y1="1001.45" x2="-160.58" y2="747.052" gradientUnits="userSpaceOnUse">
<stop stop-color="#00F9FF"/>
<stop offset="0.135" stop-color="white"/>
<stop offset="0.33" stop-color="#61FBFF"/>
<stop offset="0.51" stop-color="#73FCFF"/>
<stop offset="1" stop-color="white"/>
</linearGradient>
</defs>
</svg>
