<svg width="360" height="595" viewBox="0 0 360 595" fill="none" xmlns="http://www.w3.org/2000/svg">
<path d="M0 47L18.75 25H341.25L360 47V147L352.031 154.5V421.5L360 430V537L341.25 557H18.75L0 537V428.5L7.96875 420.963V155L0 147.271V47Z" fill="#062553"/>
<path d="M0 151L5.99999 157.102L6 420.398L2.71352e-05 426.5L0 151Z" fill="#0CF2FF"/>
<path d="M360 425.5L354 419.398L354 156.102L360 150L360 425.5Z" fill="#0CF2FF"/>
<path d="M25 562.075V16.4132L40.4142 0.999023H319.586L335 16.4132V293.397V561.585L319.586 576.999H40.405L25 562.075Z" fill="#062553" stroke="url(#paint0_linear_1296_23602)" stroke-width="2"/>
<defs>
<linearGradient id="paint0_linear_1296_23602" x1="374.998" y1="725.399" x2="-163.522" y2="606.481" gradientUnits="userSpaceOnUse">
<stop stop-color="#00F9FF"/>
<stop offset="0.135" stop-color="#ABFFFA"/>
<stop offset="0.33" stop-color="#61FBFF"/>
<stop offset="0.51" stop-color="#73FCFF"/>
<stop offset="1" stop-color="#66FFC8"/>
</linearGradient>
</defs>
</svg>
