<svg width="280" height="72" viewBox="0 0 280 72" fill="none" xmlns="http://www.w3.org/2000/svg">
<g filter="url(#filter0_d_1267_50628)">
<mask id="path-1-outside-1_1267_50628" maskUnits="userSpaceOnUse" x="5.07031" y="4.98926" width="270" height="62" fill="black">
<rect fill="white" x="5.07031" y="4.98926" width="270" height="62"/>
<path d="M29.1503 27.3663H55.8623V32.3483H29.1503V27.3663ZM29.1503 35.1043H55.8623V40.0863H29.1503V35.1043ZM32.2773 54.1313H52.7353V59.1663H32.2773V54.1313ZM25.4403 19.4163H59.7313V24.5573H25.4403V19.4163ZM28.3553 43.0543H56.5513V60.6503H50.9333V48.0893H33.7083V60.8093H28.3553V43.0543ZM37.4183 13.0563L42.7713 10.9893C44.2553 13.2153 45.8453 16.1303 46.6403 18.0913L41.0753 20.5293C40.3863 18.5153 38.7433 15.3883 37.4183 13.0563ZM21.2533 11.3603L26.9243 13.1093C23.7973 22.0133 18.7093 31.4473 13.3033 37.4893C12.7733 36.0583 11.1303 32.7723 10.0703 31.2883C14.5223 26.4123 18.7623 18.8863 21.2533 11.3603ZM17.2253 26.0413L23.0023 20.2643V61.0743H17.2253V26.0413Z"/>
<path d="M72.9813 14.6993H105.523V20.7413H72.9813V14.6993ZM72.9813 26.8893H105.629V32.8253H72.9813V26.8893ZM72.8753 39.3973H105.841V45.3863H72.8753V39.3973ZM69.3243 14.6993H75.6313V33.7793C75.6313 42.2063 74.5713 54.1313 68.0523 61.2333C67.0453 60.0143 64.4483 57.8943 63.0703 57.0993C68.8473 50.6863 69.3243 41.1993 69.3243 33.7263V14.6993ZM103.297 14.6993H109.604V53.4423C109.604 56.8343 108.862 58.5303 106.742 59.5373C104.516 60.5443 101.336 60.6503 96.5133 60.5973C96.2483 58.9013 95.2943 56.1453 94.4463 54.5023C97.4673 54.7143 100.965 54.6613 101.919 54.6613C102.926 54.6083 103.297 54.2903 103.297 53.3893V14.6993ZM85.6483 17.0843H92.1143V60.2793H85.6483V17.0843Z"/>
<path d="M117.236 29.8573H165.519V36.1643H117.236V29.8573ZM140.874 17.4023H160.484V23.4973H140.874V17.4023ZM136.475 11.1483H143.259V32.8783H136.475V11.1483ZM136.793 33.9383H143.524V60.8623H136.793V33.9383ZM142.464 45.3333L145.75 40.3513C150.997 42.3653 159.318 45.5983 163.505 47.6123L159.954 53.2833C156.032 51.1633 147.923 47.6123 142.464 45.3333Z"/>
<path d="M172.515 14.0633H192.284V18.3563H172.515V14.0633ZM194.987 17.9853H211.152V23.5503H194.987V17.9853ZM170.713 20.9003H193.821V25.2993H170.713V20.9003ZM179.564 11.2543H185.235V23.1793H179.564V11.2543ZM179.564 31.7653H185.235V44.6443H179.564V31.7653ZM171.826 34.6803H192.443V39.1853H171.826V34.6803ZM170.236 43.0543C176.172 42.6833 185.182 41.9413 193.715 41.1463L193.768 45.9163C185.5 46.7643 176.914 47.6123 170.66 48.1953L170.236 43.0543ZM199.757 11.1483H205.428C205.269 28.6913 204.792 41.1993 195.994 48.5663C195.199 47.2413 193.503 45.2803 192.178 44.4323C199.704 37.9663 199.598 27.1013 199.757 11.1483ZM193.927 31.2883L196.471 26.5713C200.287 29.0623 206.011 32.8253 208.714 35.1043L206.011 40.5103C203.361 38.0723 197.796 34.0973 193.927 31.2883ZM208.131 17.9853H213.855V40.0863C213.855 41.3053 213.855 41.9943 213.961 42.2063C214.067 42.4183 214.226 42.4713 214.438 42.4713C214.597 42.4713 214.862 42.4713 215.021 42.4713C215.286 42.4713 215.498 42.4183 215.604 42.2063C215.816 41.9943 215.869 41.5173 215.922 40.5633C216.028 39.5563 216.081 37.3833 216.081 34.6273C217.088 35.5283 218.731 36.3233 220.056 36.7473C220.003 39.4503 219.738 42.7363 219.473 44.0083C219.208 45.2803 218.678 46.1283 217.936 46.6583C217.194 47.2413 216.134 47.5063 215.074 47.5063C214.332 47.5063 213.378 47.5063 212.689 47.5063C211.523 47.5063 210.198 47.0823 209.297 46.1813C208.449 45.2803 208.131 44.1673 208.131 40.2453V17.9853ZM185.182 51.0043L191.118 50.4213C191.807 53.4423 192.337 57.3113 192.39 59.6963L186.03 60.4913C186.03 58.0533 185.712 54.0783 185.182 51.0043ZM195.782 50.9513L201.771 49.9973C203.043 52.9123 204.262 56.7813 204.686 59.2193L198.326 60.3853C198.008 57.9473 196.948 53.9723 195.782 50.9513ZM206.382 50.8453L212.53 48.9903C214.809 52.0113 217.724 56.1453 219.049 58.9013L212.53 61.0213C211.364 58.3183 208.714 53.9723 206.382 50.8453ZM175.907 49.2023L182.108 50.7923C180.73 54.4493 178.292 58.4243 175.801 60.9153L169.706 58.4773C172.091 56.4103 174.529 52.7533 175.907 49.2023ZM176.172 23.9743H180.995C180.571 29.1153 178.928 32.1893 172.144 33.7793C171.72 32.6663 170.501 30.9173 169.547 30.0693C174.794 29.0623 175.907 27.3663 176.172 23.9743ZM183.38 23.7093H187.938V26.8363C187.938 27.8433 187.991 28.2143 188.68 28.2143C189.157 28.2143 190.323 28.2143 190.8 28.2143C191.489 28.2143 192.814 28.1083 193.397 27.9493C193.503 29.0623 193.556 30.4403 193.768 31.5533C193.132 31.8183 191.966 31.8713 190.959 31.8713C190.217 31.8713 188.574 31.8713 187.779 31.8713C184.122 31.8713 183.38 30.2813 183.38 26.8363V23.7093Z"/>
<path d="M228.165 21.1653H241.468V25.6703H228.165V21.1653ZM252.651 21.1653H266.007V25.6703H252.651V21.1653ZM263.516 13.2683H269.929V53.1773C269.929 56.8873 269.187 58.6893 266.855 59.6963C264.523 60.7563 261.025 60.9153 255.884 60.9153C255.566 59.1133 254.506 56.0923 253.605 54.3433C256.944 54.6083 260.919 54.5553 262.032 54.5023C263.145 54.5023 263.516 54.1843 263.516 53.1243V13.2683ZM228.695 13.2683H245.39V33.8323H228.695V28.7443H239.401V18.4093H228.695V13.2683ZM266.961 13.2683V18.4093H255.089V28.8503H266.961V33.9383H249.047V13.2683H266.961ZM225.038 13.2683H231.345V60.9153H225.038V13.2683Z"/>
</mask>
<path d="M29.1503 27.3663H55.8623V32.3483H29.1503V27.3663ZM29.1503 35.1043H55.8623V40.0863H29.1503V35.1043ZM32.2773 54.1313H52.7353V59.1663H32.2773V54.1313ZM25.4403 19.4163H59.7313V24.5573H25.4403V19.4163ZM28.3553 43.0543H56.5513V60.6503H50.9333V48.0893H33.7083V60.8093H28.3553V43.0543ZM37.4183 13.0563L42.7713 10.9893C44.2553 13.2153 45.8453 16.1303 46.6403 18.0913L41.0753 20.5293C40.3863 18.5153 38.7433 15.3883 37.4183 13.0563ZM21.2533 11.3603L26.9243 13.1093C23.7973 22.0133 18.7093 31.4473 13.3033 37.4893C12.7733 36.0583 11.1303 32.7723 10.0703 31.2883C14.5223 26.4123 18.7623 18.8863 21.2533 11.3603ZM17.2253 26.0413L23.0023 20.2643V61.0743H17.2253V26.0413Z" fill="#003396"/>
<path d="M72.9813 14.6993H105.523V20.7413H72.9813V14.6993ZM72.9813 26.8893H105.629V32.8253H72.9813V26.8893ZM72.8753 39.3973H105.841V45.3863H72.8753V39.3973ZM69.3243 14.6993H75.6313V33.7793C75.6313 42.2063 74.5713 54.1313 68.0523 61.2333C67.0453 60.0143 64.4483 57.8943 63.0703 57.0993C68.8473 50.6863 69.3243 41.1993 69.3243 33.7263V14.6993ZM103.297 14.6993H109.604V53.4423C109.604 56.8343 108.862 58.5303 106.742 59.5373C104.516 60.5443 101.336 60.6503 96.5133 60.5973C96.2483 58.9013 95.2943 56.1453 94.4463 54.5023C97.4673 54.7143 100.965 54.6613 101.919 54.6613C102.926 54.6083 103.297 54.2903 103.297 53.3893V14.6993ZM85.6483 17.0843H92.1143V60.2793H85.6483V17.0843Z" fill="#003396"/>
<path d="M117.236 29.8573H165.519V36.1643H117.236V29.8573ZM140.874 17.4023H160.484V23.4973H140.874V17.4023ZM136.475 11.1483H143.259V32.8783H136.475V11.1483ZM136.793 33.9383H143.524V60.8623H136.793V33.9383ZM142.464 45.3333L145.75 40.3513C150.997 42.3653 159.318 45.5983 163.505 47.6123L159.954 53.2833C156.032 51.1633 147.923 47.6123 142.464 45.3333Z" fill="#003396"/>
<path d="M172.515 14.0633H192.284V18.3563H172.515V14.0633ZM194.987 17.9853H211.152V23.5503H194.987V17.9853ZM170.713 20.9003H193.821V25.2993H170.713V20.9003ZM179.564 11.2543H185.235V23.1793H179.564V11.2543ZM179.564 31.7653H185.235V44.6443H179.564V31.7653ZM171.826 34.6803H192.443V39.1853H171.826V34.6803ZM170.236 43.0543C176.172 42.6833 185.182 41.9413 193.715 41.1463L193.768 45.9163C185.5 46.7643 176.914 47.6123 170.66 48.1953L170.236 43.0543ZM199.757 11.1483H205.428C205.269 28.6913 204.792 41.1993 195.994 48.5663C195.199 47.2413 193.503 45.2803 192.178 44.4323C199.704 37.9663 199.598 27.1013 199.757 11.1483ZM193.927 31.2883L196.471 26.5713C200.287 29.0623 206.011 32.8253 208.714 35.1043L206.011 40.5103C203.361 38.0723 197.796 34.0973 193.927 31.2883ZM208.131 17.9853H213.855V40.0863C213.855 41.3053 213.855 41.9943 213.961 42.2063C214.067 42.4183 214.226 42.4713 214.438 42.4713C214.597 42.4713 214.862 42.4713 215.021 42.4713C215.286 42.4713 215.498 42.4183 215.604 42.2063C215.816 41.9943 215.869 41.5173 215.922 40.5633C216.028 39.5563 216.081 37.3833 216.081 34.6273C217.088 35.5283 218.731 36.3233 220.056 36.7473C220.003 39.4503 219.738 42.7363 219.473 44.0083C219.208 45.2803 218.678 46.1283 217.936 46.6583C217.194 47.2413 216.134 47.5063 215.074 47.5063C214.332 47.5063 213.378 47.5063 212.689 47.5063C211.523 47.5063 210.198 47.0823 209.297 46.1813C208.449 45.2803 208.131 44.1673 208.131 40.2453V17.9853ZM185.182 51.0043L191.118 50.4213C191.807 53.4423 192.337 57.3113 192.39 59.6963L186.03 60.4913C186.03 58.0533 185.712 54.0783 185.182 51.0043ZM195.782 50.9513L201.771 49.9973C203.043 52.9123 204.262 56.7813 204.686 59.2193L198.326 60.3853C198.008 57.9473 196.948 53.9723 195.782 50.9513ZM206.382 50.8453L212.53 48.9903C214.809 52.0113 217.724 56.1453 219.049 58.9013L212.53 61.0213C211.364 58.3183 208.714 53.9723 206.382 50.8453ZM175.907 49.2023L182.108 50.7923C180.73 54.4493 178.292 58.4243 175.801 60.9153L169.706 58.4773C172.091 56.4103 174.529 52.7533 175.907 49.2023ZM176.172 23.9743H180.995C180.571 29.1153 178.928 32.1893 172.144 33.7793C171.72 32.6663 170.501 30.9173 169.547 30.0693C174.794 29.0623 175.907 27.3663 176.172 23.9743ZM183.38 23.7093H187.938V26.8363C187.938 27.8433 187.991 28.2143 188.68 28.2143C189.157 28.2143 190.323 28.2143 190.8 28.2143C191.489 28.2143 192.814 28.1083 193.397 27.9493C193.503 29.0623 193.556 30.4403 193.768 31.5533C193.132 31.8183 191.966 31.8713 190.959 31.8713C190.217 31.8713 188.574 31.8713 187.779 31.8713C184.122 31.8713 183.38 30.2813 183.38 26.8363V23.7093Z" fill="#003396"/>
<path d="M228.165 21.1653H241.468V25.6703H228.165V21.1653ZM252.651 21.1653H266.007V25.6703H252.651V21.1653ZM263.516 13.2683H269.929V53.1773C269.929 56.8873 269.187 58.6893 266.855 59.6963C264.523 60.7563 261.025 60.9153 255.884 60.9153C255.566 59.1133 254.506 56.0923 253.605 54.3433C256.944 54.6083 260.919 54.5553 262.032 54.5023C263.145 54.5023 263.516 54.1843 263.516 53.1243V13.2683ZM228.695 13.2683H245.39V33.8323H228.695V28.7443H239.401V18.4093H228.695V13.2683ZM266.961 13.2683V18.4093H255.089V28.8503H266.961V33.9383H249.047V13.2683H266.961ZM225.038 13.2683H231.345V60.9153H225.038V13.2683Z" fill="#003396"/>
<path d="M29.1503 27.3663H55.8623V32.3483H29.1503V27.3663ZM29.1503 35.1043H55.8623V40.0863H29.1503V35.1043ZM32.2773 54.1313H52.7353V59.1663H32.2773V54.1313ZM25.4403 19.4163H59.7313V24.5573H25.4403V19.4163ZM28.3553 43.0543H56.5513V60.6503H50.9333V48.0893H33.7083V60.8093H28.3553V43.0543ZM37.4183 13.0563L42.7713 10.9893C44.2553 13.2153 45.8453 16.1303 46.6403 18.0913L41.0753 20.5293C40.3863 18.5153 38.7433 15.3883 37.4183 13.0563ZM21.2533 11.3603L26.9243 13.1093C23.7973 22.0133 18.7093 31.4473 13.3033 37.4893C12.7733 36.0583 11.1303 32.7723 10.0703 31.2883C14.5223 26.4123 18.7623 18.8863 21.2533 11.3603ZM17.2253 26.0413L23.0023 20.2643V61.0743H17.2253V26.0413Z" stroke="white" stroke-width="10" stroke-linejoin="round" mask="url(#path-1-outside-1_1267_50628)"/>
<path d="M72.9813 14.6993H105.523V20.7413H72.9813V14.6993ZM72.9813 26.8893H105.629V32.8253H72.9813V26.8893ZM72.8753 39.3973H105.841V45.3863H72.8753V39.3973ZM69.3243 14.6993H75.6313V33.7793C75.6313 42.2063 74.5713 54.1313 68.0523 61.2333C67.0453 60.0143 64.4483 57.8943 63.0703 57.0993C68.8473 50.6863 69.3243 41.1993 69.3243 33.7263V14.6993ZM103.297 14.6993H109.604V53.4423C109.604 56.8343 108.862 58.5303 106.742 59.5373C104.516 60.5443 101.336 60.6503 96.5133 60.5973C96.2483 58.9013 95.2943 56.1453 94.4463 54.5023C97.4673 54.7143 100.965 54.6613 101.919 54.6613C102.926 54.6083 103.297 54.2903 103.297 53.3893V14.6993ZM85.6483 17.0843H92.1143V60.2793H85.6483V17.0843Z" stroke="white" stroke-width="10" stroke-linejoin="round" mask="url(#path-1-outside-1_1267_50628)"/>
<path d="M117.236 29.8573H165.519V36.1643H117.236V29.8573ZM140.874 17.4023H160.484V23.4973H140.874V17.4023ZM136.475 11.1483H143.259V32.8783H136.475V11.1483ZM136.793 33.9383H143.524V60.8623H136.793V33.9383ZM142.464 45.3333L145.75 40.3513C150.997 42.3653 159.318 45.5983 163.505 47.6123L159.954 53.2833C156.032 51.1633 147.923 47.6123 142.464 45.3333Z" stroke="white" stroke-width="10" stroke-linejoin="round" mask="url(#path-1-outside-1_1267_50628)"/>
<path d="M172.515 14.0633H192.284V18.3563H172.515V14.0633ZM194.987 17.9853H211.152V23.5503H194.987V17.9853ZM170.713 20.9003H193.821V25.2993H170.713V20.9003ZM179.564 11.2543H185.235V23.1793H179.564V11.2543ZM179.564 31.7653H185.235V44.6443H179.564V31.7653ZM171.826 34.6803H192.443V39.1853H171.826V34.6803ZM170.236 43.0543C176.172 42.6833 185.182 41.9413 193.715 41.1463L193.768 45.9163C185.5 46.7643 176.914 47.6123 170.66 48.1953L170.236 43.0543ZM199.757 11.1483H205.428C205.269 28.6913 204.792 41.1993 195.994 48.5663C195.199 47.2413 193.503 45.2803 192.178 44.4323C199.704 37.9663 199.598 27.1013 199.757 11.1483ZM193.927 31.2883L196.471 26.5713C200.287 29.0623 206.011 32.8253 208.714 35.1043L206.011 40.5103C203.361 38.0723 197.796 34.0973 193.927 31.2883ZM208.131 17.9853H213.855V40.0863C213.855 41.3053 213.855 41.9943 213.961 42.2063C214.067 42.4183 214.226 42.4713 214.438 42.4713C214.597 42.4713 214.862 42.4713 215.021 42.4713C215.286 42.4713 215.498 42.4183 215.604 42.2063C215.816 41.9943 215.869 41.5173 215.922 40.5633C216.028 39.5563 216.081 37.3833 216.081 34.6273C217.088 35.5283 218.731 36.3233 220.056 36.7473C220.003 39.4503 219.738 42.7363 219.473 44.0083C219.208 45.2803 218.678 46.1283 217.936 46.6583C217.194 47.2413 216.134 47.5063 215.074 47.5063C214.332 47.5063 213.378 47.5063 212.689 47.5063C211.523 47.5063 210.198 47.0823 209.297 46.1813C208.449 45.2803 208.131 44.1673 208.131 40.2453V17.9853ZM185.182 51.0043L191.118 50.4213C191.807 53.4423 192.337 57.3113 192.39 59.6963L186.03 60.4913C186.03 58.0533 185.712 54.0783 185.182 51.0043ZM195.782 50.9513L201.771 49.9973C203.043 52.9123 204.262 56.7813 204.686 59.2193L198.326 60.3853C198.008 57.9473 196.948 53.9723 195.782 50.9513ZM206.382 50.8453L212.53 48.9903C214.809 52.0113 217.724 56.1453 219.049 58.9013L212.53 61.0213C211.364 58.3183 208.714 53.9723 206.382 50.8453ZM175.907 49.2023L182.108 50.7923C180.73 54.4493 178.292 58.4243 175.801 60.9153L169.706 58.4773C172.091 56.4103 174.529 52.7533 175.907 49.2023ZM176.172 23.9743H180.995C180.571 29.1153 178.928 32.1893 172.144 33.7793C171.72 32.6663 170.501 30.9173 169.547 30.0693C174.794 29.0623 175.907 27.3663 176.172 23.9743ZM183.38 23.7093H187.938V26.8363C187.938 27.8433 187.991 28.2143 188.68 28.2143C189.157 28.2143 190.323 28.2143 190.8 28.2143C191.489 28.2143 192.814 28.1083 193.397 27.9493C193.503 29.0623 193.556 30.4403 193.768 31.5533C193.132 31.8183 191.966 31.8713 190.959 31.8713C190.217 31.8713 188.574 31.8713 187.779 31.8713C184.122 31.8713 183.38 30.2813 183.38 26.8363V23.7093Z" stroke="white" stroke-width="10" stroke-linejoin="round" mask="url(#path-1-outside-1_1267_50628)"/>
<path d="M228.165 21.1653H241.468V25.6703H228.165V21.1653ZM252.651 21.1653H266.007V25.6703H252.651V21.1653ZM263.516 13.2683H269.929V53.1773C269.929 56.8873 269.187 58.6893 266.855 59.6963C264.523 60.7563 261.025 60.9153 255.884 60.9153C255.566 59.1133 254.506 56.0923 253.605 54.3433C256.944 54.6083 260.919 54.5553 262.032 54.5023C263.145 54.5023 263.516 54.1843 263.516 53.1243V13.2683ZM228.695 13.2683H245.39V33.8323H228.695V28.7443H239.401V18.4093H228.695V13.2683ZM266.961 13.2683V18.4093H255.089V28.8503H266.961V33.9383H249.047V13.2683H266.961ZM225.038 13.2683H231.345V60.9153H225.038V13.2683Z" stroke="white" stroke-width="10" stroke-linejoin="round" mask="url(#path-1-outside-1_1267_50628)"/>
</g>
<defs>
<filter id="filter0_d_1267_50628" x="0.0603123" y="0.978281" width="279.879" height="70.2651" filterUnits="userSpaceOnUse" color-interpolation-filters="sRGB">
<feFlood flood-opacity="0" result="BackgroundImageFix"/>
<feColorMatrix in="SourceAlpha" type="matrix" values="0 0 0 0 0 0 0 0 0 0 0 0 0 0 0 0 0 0 127 0" result="hardAlpha"/>
<feMorphology radius="4" operator="erode" in="SourceAlpha" result="effect1_dropShadow_1267_50628"/>
<feOffset/>
<feGaussianBlur stdDeviation="4.505"/>
<feComposite in2="hardAlpha" operator="out"/>
<feColorMatrix type="matrix" values="0 0 0 0 0 0 0 0 0 1 0 0 0 0 1 0 0 0 1 0"/>
<feBlend mode="normal" in2="BackgroundImageFix" result="effect1_dropShadow_1267_50628"/>
<feBlend mode="normal" in="SourceGraphic" in2="effect1_dropShadow_1267_50628" result="shape"/>
</filter>
</defs>
</svg>
