<svg width="228" height="76" viewBox="0 0 228 76" fill="none" xmlns="http://www.w3.org/2000/svg">
<g filter="url(#filter0_d_1268_15365)">
<mask id="path-1-outside-1_1268_15365" maskUnits="userSpaceOnUse" x="9.0127" y="7.99902" width="210" height="60" fill="black">
<rect fill="white" x="9.0127" y="7.99902" width="210" height="60"/>
<path d="M31.0726 20.4596L60.3471 18.794L60.8013 23.1347L31.5269 24.9517L31.0726 20.4596ZM36.5742 14.4028H42.2272C42.4628 16.3208 43.0011 18.0874 43.8424 19.7025C44.6836 21.3176 45.7099 22.7141 46.9212 23.8918C48.1326 25.0358 49.4281 25.9275 50.8077 26.5668C52.2209 27.2062 53.6173 27.5258 54.9969 27.5258C55.7035 27.5258 56.1746 27.2903 56.4102 26.8192C56.6457 26.3145 56.8308 25.406 56.9654 24.0937C57.5374 24.5311 58.244 24.9517 59.0853 25.3555C59.9265 25.7256 60.7004 26.0116 61.407 26.2135C61.1715 28.0306 60.7845 29.427 60.2461 30.4028C59.7414 31.345 59.0348 31.9843 58.1263 32.3208C57.2514 32.6573 56.141 32.8255 54.795 32.8255C53.0453 32.8255 51.3292 32.5395 49.6468 31.9675C47.9643 31.3954 46.3997 30.5879 44.9528 29.5448C43.5059 28.468 42.1936 27.1894 41.0159 25.7088C39.8381 24.1946 38.8623 22.4953 38.0884 20.611C37.3481 18.7267 36.8434 16.6573 36.5742 14.4028ZM45.4575 17.1788L48.183 14.2514C49.1252 14.4196 50.1347 14.672 51.2114 15.0085C52.3218 15.3113 53.3818 15.6478 54.3912 16.018C55.4007 16.3544 56.2419 16.7078 56.9149 17.0779L54.0379 20.3082C53.4323 19.9717 52.6247 19.6184 51.6152 19.2482C50.6394 18.8444 49.6131 18.4575 48.5364 18.0874C47.4596 17.7172 46.4333 17.4144 45.4575 17.1788ZM28.3976 13.999L33.8487 16.1189C32.57 17.734 31.0558 19.3155 29.3061 20.8634C27.5563 22.4112 25.7393 23.8581 23.855 25.2041C21.9706 26.5164 20.12 27.6436 18.3029 28.5858C18.0001 28.182 17.5795 27.7109 17.0411 27.1725C16.5364 26.6341 16.0148 26.0958 15.4764 25.5574C14.938 24.9854 14.4501 24.5479 14.0127 24.2451C15.8634 23.4375 17.6804 22.5122 19.4638 21.4691C21.2472 20.3923 22.9128 19.2314 24.4606 17.9864C26.0085 16.7078 27.3208 15.3786 28.3976 13.999ZM23.754 22.1252L27.5395 18.2892L29.5584 18.8444V31.4627H23.754V22.1252ZM27.59 41.9107V44.0306H49.4953V41.9107H27.59ZM27.59 47.4627V49.6836H49.4953V47.4627H27.59ZM27.59 36.3082V38.4785H49.4953V36.3082H27.59ZM21.7351 32.7246H55.6531V53.2672H21.7351V32.7246ZM41.1168 55.9422L46.1641 53.0653C47.9812 53.7046 49.815 54.3944 51.6657 55.1347C53.55 55.8413 55.3334 56.5647 57.0159 57.305C58.7319 58.0116 60.1788 58.651 61.3565 59.223L54.2903 61.9486C53.3481 61.4102 52.1704 60.7877 50.7572 60.081C49.3439 59.3744 47.8129 58.651 46.1641 57.9107C44.549 57.2041 42.8665 56.5479 41.1168 55.9422ZM29.9622 52.8634L35.4638 55.387C34.1178 56.2619 32.5364 57.1199 30.7193 57.9612C28.9023 58.8024 27.0348 59.5595 25.1168 60.2325C23.1988 60.9391 21.3818 61.5279 19.6657 61.999C19.2956 61.5952 18.8413 61.1073 18.3029 60.5353C17.7982 59.9969 17.2598 59.4417 16.6878 58.8697C16.1157 58.3313 15.611 57.8939 15.1736 57.5574C16.957 57.2209 18.7572 56.8171 20.5742 56.346C22.4249 55.8749 24.1578 55.3366 25.7729 54.7309C27.4217 54.1252 28.8182 53.5027 29.9622 52.8634Z"/>
<path d="M96.6373 32.3713H102.391V34.8949C102.391 36.712 102.273 38.7477 102.038 41.0022C101.836 43.223 101.399 45.5616 100.726 48.018C100.053 50.4407 99.0264 52.8466 97.6468 55.2356C96.2672 57.6247 94.4165 59.8792 92.0947 61.999C91.7582 61.5616 91.3208 61.0737 90.7824 60.5353C90.2777 60.0306 89.7225 59.5258 89.1168 59.0211C88.5448 58.55 88.0064 58.1631 87.5017 57.8602C89.6215 56.0432 91.2871 54.1252 92.4985 52.1063C93.7435 50.0537 94.652 48.0011 95.2241 45.9486C95.7961 43.8623 96.1662 41.8602 96.3345 39.9422C96.5364 38.0243 96.6373 36.2913 96.6373 34.7435V32.3713ZM101.987 38.4785C102.526 41.1031 103.266 43.61 104.208 45.999C105.15 48.3544 106.345 50.4575 107.792 52.3082C109.239 54.1252 110.989 55.5553 113.041 56.5984C112.57 57.0022 112.082 57.4901 111.577 58.0621C111.073 58.6678 110.585 59.2903 110.114 59.9296C109.643 60.569 109.256 61.1746 108.953 61.7467C106.732 60.3334 104.848 58.5164 103.3 56.2956C101.786 54.0747 100.541 51.5342 99.5648 48.6741C98.5889 45.7803 97.7814 42.6678 97.142 39.3366L101.987 38.4785ZM65.6972 18.4911H89.3692V23.4375H65.6972V18.4911ZM64.9906 40.4974H89.9748V45.4438H64.9906V40.4974ZM66.9591 25.9612H88.2588V30.8571H66.9591V25.9612ZM67.2619 33.2293H87.9559V38.1252H67.2619V33.2293ZM74.7824 14.7561H80.4354V29.1915H74.7824V14.7561ZM68.2209 46.4028L73.1673 47.5637C72.6625 49.4144 72.04 51.3324 71.2998 53.3176C70.5595 55.2693 69.836 56.9349 69.1294 58.3145C68.591 57.978 67.8339 57.6079 66.8581 57.2041C65.916 56.8003 65.1252 56.4974 64.4859 56.2956C65.2262 54.9832 65.9328 53.4354 66.6058 51.652C67.2787 49.835 67.8171 48.0853 68.2209 46.4028ZM81.8991 48.0684L86.3913 46.3019C86.8287 47.1431 87.2493 48.0348 87.6531 48.9769C88.0905 49.8855 88.4943 50.794 88.8644 51.7025C89.2346 52.611 89.5038 53.4186 89.672 54.1252L84.9275 56.1441C84.7593 55.4375 84.5069 54.6299 84.1704 53.7214C83.8339 52.7793 83.4638 51.8203 83.06 50.8444C82.6899 49.835 82.3029 48.9096 81.8991 48.0684ZM93.9118 23.5385H108.145V29.04H93.9118V23.5385ZM92.9528 14.5038L98.8581 15.3113C98.4543 18.3734 97.916 21.3681 97.243 24.2956C96.6037 27.1894 95.8297 29.8981 94.9212 32.4217C94.0127 34.9117 92.9696 37.1157 91.7919 39.0337C91.4554 38.6972 90.9843 38.2935 90.3786 37.8224C89.7729 37.3513 89.1504 36.897 88.5111 36.4596C87.8718 35.9885 87.3166 35.6184 86.8455 35.3492C87.9896 33.734 88.9486 31.8161 89.7225 29.5952C90.53 27.3744 91.1862 24.9854 91.6909 22.428C92.2293 19.8371 92.6499 17.1957 92.9528 14.5038ZM106.581 23.5385H107.439L108.398 23.3366L112.536 24.447C112.234 26.1294 111.863 27.8455 111.426 29.5952C111.022 31.345 110.585 33.0274 110.114 34.6426C109.676 36.2577 109.239 37.6709 108.801 38.8823L103.905 37.4186C104.242 36.3082 104.578 35.0127 104.915 33.5321C105.251 32.0516 105.554 30.5374 105.823 28.9896C106.126 27.4081 106.379 25.8939 106.581 24.447V23.5385ZM74.8329 42.5164H80.5364V61.7971H74.8329V42.5164Z"/>
<path d="M116.827 45.2924H161.849V50.2892H116.827V45.2924ZM116.978 22.6804H161.697V27.4249H116.978V22.6804ZM119.047 31.8665H159.729V36.4596H119.047V31.8665ZM121.521 38.7309H157.407V43.0716H121.521V38.7309ZM136.158 34.0874H142.164V61.8476H136.158V34.0874ZM131.868 14.3523H137.521V25.0526H131.868V14.3523ZM141.205 14.3523H146.959V24.6993H141.205V14.3523ZM152.864 14.8066L159.174 16.3208C158.366 17.7004 157.558 19.0463 156.751 20.3586C155.943 21.6373 155.203 22.7309 154.53 23.6394L149.634 22.1252C150.038 21.4522 150.442 20.6951 150.846 19.8539C151.249 18.979 151.619 18.1042 151.956 17.2293C152.326 16.3208 152.629 15.5132 152.864 14.8066ZM146.656 27.0211L153.066 28.6362C152.326 29.5111 151.603 30.3019 150.896 31.0085C150.223 31.6815 149.584 32.2871 148.978 32.8255L143.83 31.3113C144.334 30.672 144.839 29.9486 145.344 29.141C145.882 28.3334 146.32 27.6268 146.656 27.0211ZM120.663 16.4217L125.861 14.6552C126.602 15.6983 127.342 16.9096 128.082 18.2892C128.822 19.6352 129.361 20.7961 129.697 21.7719L124.196 23.7908C123.926 22.7814 123.439 21.5868 122.732 20.2072C122.059 18.8276 121.369 17.5658 120.663 16.4217ZM126.517 28.182L132.221 26.9202C132.658 27.5595 133.096 28.2829 133.533 29.0905C134.004 29.8981 134.358 30.6215 134.593 31.2609L128.637 32.6741C128.469 32.0684 128.166 31.345 127.729 30.5038C127.325 29.6289 126.921 28.855 126.517 28.182ZM130.656 51.9549L134.946 53.9233C133.836 54.8655 132.44 55.774 130.757 56.6489C129.108 57.5237 127.375 58.2977 125.558 58.9706C123.741 59.6773 121.958 60.2325 120.208 60.6362C119.838 59.9969 119.3 59.2398 118.593 58.365C117.887 57.4901 117.23 56.8003 116.625 56.2956C118.307 56.0264 120.04 55.6731 121.823 55.2356C123.607 54.7982 125.272 54.2935 126.82 53.7214C128.368 53.1494 129.647 52.5605 130.656 51.9549ZM144.334 54.4785L148.372 51.6015C149.752 52.1399 151.266 52.7456 152.915 53.4186C154.597 54.0916 156.212 54.7814 157.76 55.488C159.342 56.161 160.671 56.7835 161.748 57.3555L157.458 60.6362C156.482 60.0979 155.237 59.4585 153.722 58.7183C152.208 57.978 150.61 57.2377 148.928 56.4974C147.279 55.7572 145.748 55.0842 144.334 54.4785Z"/>
<path d="M167.199 16.7246H183.704V21.8224H167.199V16.7246ZM187.388 42.7183H207.88V47.7151H187.388V42.7183ZM166.492 32.1694H185.268V37.4186H166.492V32.1694ZM174.719 34.3397H180.423V55.2861C180.423 56.6657 180.271 57.7761 179.969 58.6173C179.699 59.4585 179.127 60.1147 178.252 60.5858C177.378 61.0232 176.351 61.3092 175.174 61.4438C173.996 61.5784 172.633 61.6457 171.085 61.6457C170.984 60.8045 170.766 59.8287 170.429 58.7183C170.093 57.6415 169.722 56.6993 169.319 55.8918C170.295 55.9254 171.22 55.9422 172.095 55.9422C172.97 55.9422 173.575 55.9422 173.912 55.9422C174.215 55.9086 174.416 55.8581 174.517 55.7908C174.652 55.6899 174.719 55.488 174.719 55.1851V34.3397ZM205.962 42.7183H212.069C212.069 42.7183 212.053 43.0043 212.019 43.5763C211.985 44.1147 211.935 44.5858 211.868 44.9896C211.632 47.917 211.346 50.3397 211.01 52.2577C210.707 54.142 210.37 55.6562 210 56.8003C209.63 57.9107 209.193 58.7351 208.688 59.2735C208.149 59.8455 207.577 60.2493 206.972 60.4848C206.4 60.754 205.744 60.9559 205.003 61.0905C204.398 61.1578 203.59 61.1915 202.581 61.1915C201.571 61.2251 200.477 61.2251 199.3 61.1915C199.266 60.3166 199.098 59.3576 198.795 58.3145C198.526 57.2714 198.156 56.3629 197.685 55.5889C198.593 55.6899 199.434 55.7572 200.208 55.7908C201.016 55.8245 201.622 55.8413 202.025 55.8413C202.429 55.8413 202.749 55.8076 202.984 55.7403C203.22 55.6394 203.455 55.488 203.691 55.2861C203.994 54.9832 204.28 54.4112 204.549 53.57C204.818 52.6951 205.071 51.4333 205.306 49.7845C205.542 48.1357 205.76 46.0327 205.962 43.4754V42.7183ZM195.262 38.1757H201.268C201.033 40.7666 200.679 43.2398 200.208 45.5952C199.771 47.917 199.031 50.0874 197.987 52.1063C196.944 54.1252 195.481 55.9591 193.596 57.6079C191.746 59.2566 189.323 60.6699 186.328 61.8476C185.992 61.141 185.487 60.3166 184.814 59.3744C184.141 58.4659 183.485 57.7256 182.846 57.1536C185.47 56.2114 187.556 55.0842 189.104 53.7719C190.686 52.4259 191.88 50.9454 192.688 49.3303C193.529 47.7151 194.118 45.9654 194.454 44.081C194.824 42.1967 195.094 40.2283 195.262 38.1757ZM168.36 27.223L172.145 23.3366C173.525 23.8413 174.989 24.447 176.536 25.1536C178.118 25.8602 179.615 26.5837 181.028 27.3239C182.475 28.0642 183.687 28.7877 184.663 29.4943L180.574 33.835C179.699 33.1284 178.572 32.3881 177.193 31.6142C175.813 30.8066 174.332 30.0158 172.751 29.2419C171.203 28.468 169.739 27.795 168.36 27.223ZM183.805 32.1694H184.562L185.369 31.917L189.054 33.0779C188.65 35.366 188.128 37.7214 187.489 40.1441C186.883 42.5668 186.244 44.6362 185.571 46.3523L181.483 44.4344C181.954 42.9538 182.391 41.1536 182.795 39.0337C183.232 36.9139 183.569 34.9117 183.805 33.0274V32.1694ZM203.994 22.0243L210.303 22.9833C209.193 26.0789 207.628 28.7372 205.609 30.958C203.624 33.1452 201.268 34.9622 198.543 36.4091C195.817 37.856 192.789 39.0505 189.458 39.9927C189.256 39.5553 188.919 39.0169 188.448 38.3776C188.011 37.7382 187.54 37.1157 187.035 36.5101C186.564 35.8707 186.126 35.366 185.722 34.9959C188.818 34.3565 191.594 33.4817 194.051 32.3713C196.541 31.2609 198.627 29.8644 200.309 28.182C202.025 26.4659 203.253 24.4133 203.994 22.0243ZM193.95 14.3523L199.552 15.9675C198.745 17.7509 197.769 19.5006 196.625 21.2167C195.481 22.9328 194.269 24.5479 192.991 26.0621C191.746 27.5427 190.467 28.8213 189.155 29.8981C188.785 29.5616 188.297 29.1915 187.691 28.7877C187.085 28.3502 186.48 27.9296 185.874 27.5258C185.268 27.1221 184.73 26.7856 184.259 26.5164C186.244 25.1031 188.095 23.3197 189.811 21.1662C191.527 18.979 192.906 16.7078 193.95 14.3523ZM194.606 23.3366C195.783 25.2209 197.314 26.937 199.199 28.4848C201.117 30.0327 203.321 31.3618 205.811 32.4722C208.334 33.549 211.06 34.3734 213.987 34.9454C213.584 35.3155 213.129 35.8203 212.625 36.4596C212.154 37.0653 211.699 37.6878 211.262 38.3271C210.824 38.9664 210.454 39.5385 210.152 40.0432C207.056 39.2693 204.212 38.1757 201.622 36.7624C199.064 35.3492 196.759 33.6499 194.707 31.6646C192.688 29.6794 190.989 27.4249 189.609 24.9012L194.606 23.3366ZM174.164 33.9864L178.051 35.4501C177.411 37.6709 176.604 39.9422 175.628 42.264C174.686 44.5858 173.609 46.7393 172.398 48.7246C171.186 50.7099 169.857 52.3755 168.41 53.7214C168.141 52.8466 167.72 51.8539 167.148 50.7435C166.61 49.6331 166.105 48.6741 165.634 47.8665C166.846 46.7898 167.99 45.4943 169.066 43.9801C170.177 42.4659 171.169 40.8508 172.044 39.1347C172.919 37.3849 173.626 35.6688 174.164 33.9864ZM193.798 19.5511H212.675V24.5479H191.375L193.798 19.5511ZM182.29 16.7246H183.552L184.511 16.5227L188.347 18.8949C187.607 20.1063 186.698 21.3513 185.622 22.6299C184.545 23.9086 183.384 25.1199 182.139 26.264C180.928 27.3744 179.716 28.3502 178.505 29.1915C177.966 28.6867 177.31 28.1652 176.536 27.6268C175.796 27.0884 175.123 26.6341 174.517 26.264C175.594 25.5237 176.62 24.6657 177.596 23.6899C178.606 22.6804 179.514 21.6541 180.322 20.611C181.163 19.5679 181.819 18.6257 182.29 17.7845V16.7246Z"/>
</mask>
<path d="M31.0726 20.4596L60.3471 18.794L60.8013 23.1347L31.5269 24.9517L31.0726 20.4596ZM36.5742 14.4028H42.2272C42.4628 16.3208 43.0011 18.0874 43.8424 19.7025C44.6836 21.3176 45.7099 22.7141 46.9212 23.8918C48.1326 25.0358 49.4281 25.9275 50.8077 26.5668C52.2209 27.2062 53.6173 27.5258 54.9969 27.5258C55.7035 27.5258 56.1746 27.2903 56.4102 26.8192C56.6457 26.3145 56.8308 25.406 56.9654 24.0937C57.5374 24.5311 58.244 24.9517 59.0853 25.3555C59.9265 25.7256 60.7004 26.0116 61.407 26.2135C61.1715 28.0306 60.7845 29.427 60.2461 30.4028C59.7414 31.345 59.0348 31.9843 58.1263 32.3208C57.2514 32.6573 56.141 32.8255 54.795 32.8255C53.0453 32.8255 51.3292 32.5395 49.6468 31.9675C47.9643 31.3954 46.3997 30.5879 44.9528 29.5448C43.5059 28.468 42.1936 27.1894 41.0159 25.7088C39.8381 24.1946 38.8623 22.4953 38.0884 20.611C37.3481 18.7267 36.8434 16.6573 36.5742 14.4028ZM45.4575 17.1788L48.183 14.2514C49.1252 14.4196 50.1347 14.672 51.2114 15.0085C52.3218 15.3113 53.3818 15.6478 54.3912 16.018C55.4007 16.3544 56.2419 16.7078 56.9149 17.0779L54.0379 20.3082C53.4323 19.9717 52.6247 19.6184 51.6152 19.2482C50.6394 18.8444 49.6131 18.4575 48.5364 18.0874C47.4596 17.7172 46.4333 17.4144 45.4575 17.1788ZM28.3976 13.999L33.8487 16.1189C32.57 17.734 31.0558 19.3155 29.3061 20.8634C27.5563 22.4112 25.7393 23.8581 23.855 25.2041C21.9706 26.5164 20.12 27.6436 18.3029 28.5858C18.0001 28.182 17.5795 27.7109 17.0411 27.1725C16.5364 26.6341 16.0148 26.0958 15.4764 25.5574C14.938 24.9854 14.4501 24.5479 14.0127 24.2451C15.8634 23.4375 17.6804 22.5122 19.4638 21.4691C21.2472 20.3923 22.9128 19.2314 24.4606 17.9864C26.0085 16.7078 27.3208 15.3786 28.3976 13.999ZM23.754 22.1252L27.5395 18.2892L29.5584 18.8444V31.4627H23.754V22.1252ZM27.59 41.9107V44.0306H49.4953V41.9107H27.59ZM27.59 47.4627V49.6836H49.4953V47.4627H27.59ZM27.59 36.3082V38.4785H49.4953V36.3082H27.59ZM21.7351 32.7246H55.6531V53.2672H21.7351V32.7246ZM41.1168 55.9422L46.1641 53.0653C47.9812 53.7046 49.815 54.3944 51.6657 55.1347C53.55 55.8413 55.3334 56.5647 57.0159 57.305C58.7319 58.0116 60.1788 58.651 61.3565 59.223L54.2903 61.9486C53.3481 61.4102 52.1704 60.7877 50.7572 60.081C49.3439 59.3744 47.8129 58.651 46.1641 57.9107C44.549 57.2041 42.8665 56.5479 41.1168 55.9422ZM29.9622 52.8634L35.4638 55.387C34.1178 56.2619 32.5364 57.1199 30.7193 57.9612C28.9023 58.8024 27.0348 59.5595 25.1168 60.2325C23.1988 60.9391 21.3818 61.5279 19.6657 61.999C19.2956 61.5952 18.8413 61.1073 18.3029 60.5353C17.7982 59.9969 17.2598 59.4417 16.6878 58.8697C16.1157 58.3313 15.611 57.8939 15.1736 57.5574C16.957 57.2209 18.7572 56.8171 20.5742 56.346C22.4249 55.8749 24.1578 55.3366 25.7729 54.7309C27.4217 54.1252 28.8182 53.5027 29.9622 52.8634Z" fill="#003396"/>
<path d="M96.6373 32.3713H102.391V34.8949C102.391 36.712 102.273 38.7477 102.038 41.0022C101.836 43.223 101.399 45.5616 100.726 48.018C100.053 50.4407 99.0264 52.8466 97.6468 55.2356C96.2672 57.6247 94.4165 59.8792 92.0947 61.999C91.7582 61.5616 91.3208 61.0737 90.7824 60.5353C90.2777 60.0306 89.7225 59.5258 89.1168 59.0211C88.5448 58.55 88.0064 58.1631 87.5017 57.8602C89.6215 56.0432 91.2871 54.1252 92.4985 52.1063C93.7435 50.0537 94.652 48.0011 95.2241 45.9486C95.7961 43.8623 96.1662 41.8602 96.3345 39.9422C96.5364 38.0243 96.6373 36.2913 96.6373 34.7435V32.3713ZM101.987 38.4785C102.526 41.1031 103.266 43.61 104.208 45.999C105.15 48.3544 106.345 50.4575 107.792 52.3082C109.239 54.1252 110.989 55.5553 113.041 56.5984C112.57 57.0022 112.082 57.4901 111.577 58.0621C111.073 58.6678 110.585 59.2903 110.114 59.9296C109.643 60.569 109.256 61.1746 108.953 61.7467C106.732 60.3334 104.848 58.5164 103.3 56.2956C101.786 54.0747 100.541 51.5342 99.5648 48.6741C98.5889 45.7803 97.7814 42.6678 97.142 39.3366L101.987 38.4785ZM65.6972 18.4911H89.3692V23.4375H65.6972V18.4911ZM64.9906 40.4974H89.9748V45.4438H64.9906V40.4974ZM66.9591 25.9612H88.2588V30.8571H66.9591V25.9612ZM67.2619 33.2293H87.9559V38.1252H67.2619V33.2293ZM74.7824 14.7561H80.4354V29.1915H74.7824V14.7561ZM68.2209 46.4028L73.1673 47.5637C72.6625 49.4144 72.04 51.3324 71.2998 53.3176C70.5595 55.2693 69.836 56.9349 69.1294 58.3145C68.591 57.978 67.8339 57.6079 66.8581 57.2041C65.916 56.8003 65.1252 56.4974 64.4859 56.2956C65.2262 54.9832 65.9328 53.4354 66.6058 51.652C67.2787 49.835 67.8171 48.0853 68.2209 46.4028ZM81.8991 48.0684L86.3913 46.3019C86.8287 47.1431 87.2493 48.0348 87.6531 48.9769C88.0905 49.8855 88.4943 50.794 88.8644 51.7025C89.2346 52.611 89.5038 53.4186 89.672 54.1252L84.9275 56.1441C84.7593 55.4375 84.5069 54.6299 84.1704 53.7214C83.8339 52.7793 83.4638 51.8203 83.06 50.8444C82.6899 49.835 82.3029 48.9096 81.8991 48.0684ZM93.9118 23.5385H108.145V29.04H93.9118V23.5385ZM92.9528 14.5038L98.8581 15.3113C98.4543 18.3734 97.916 21.3681 97.243 24.2956C96.6037 27.1894 95.8297 29.8981 94.9212 32.4217C94.0127 34.9117 92.9696 37.1157 91.7919 39.0337C91.4554 38.6972 90.9843 38.2935 90.3786 37.8224C89.7729 37.3513 89.1504 36.897 88.5111 36.4596C87.8718 35.9885 87.3166 35.6184 86.8455 35.3492C87.9896 33.734 88.9486 31.8161 89.7225 29.5952C90.53 27.3744 91.1862 24.9854 91.6909 22.428C92.2293 19.8371 92.6499 17.1957 92.9528 14.5038ZM106.581 23.5385H107.439L108.398 23.3366L112.536 24.447C112.234 26.1294 111.863 27.8455 111.426 29.5952C111.022 31.345 110.585 33.0274 110.114 34.6426C109.676 36.2577 109.239 37.6709 108.801 38.8823L103.905 37.4186C104.242 36.3082 104.578 35.0127 104.915 33.5321C105.251 32.0516 105.554 30.5374 105.823 28.9896C106.126 27.4081 106.379 25.8939 106.581 24.447V23.5385ZM74.8329 42.5164H80.5364V61.7971H74.8329V42.5164Z" fill="#003396"/>
<path d="M116.827 45.2924H161.849V50.2892H116.827V45.2924ZM116.978 22.6804H161.697V27.4249H116.978V22.6804ZM119.047 31.8665H159.729V36.4596H119.047V31.8665ZM121.521 38.7309H157.407V43.0716H121.521V38.7309ZM136.158 34.0874H142.164V61.8476H136.158V34.0874ZM131.868 14.3523H137.521V25.0526H131.868V14.3523ZM141.205 14.3523H146.959V24.6993H141.205V14.3523ZM152.864 14.8066L159.174 16.3208C158.366 17.7004 157.558 19.0463 156.751 20.3586C155.943 21.6373 155.203 22.7309 154.53 23.6394L149.634 22.1252C150.038 21.4522 150.442 20.6951 150.846 19.8539C151.249 18.979 151.619 18.1042 151.956 17.2293C152.326 16.3208 152.629 15.5132 152.864 14.8066ZM146.656 27.0211L153.066 28.6362C152.326 29.5111 151.603 30.3019 150.896 31.0085C150.223 31.6815 149.584 32.2871 148.978 32.8255L143.83 31.3113C144.334 30.672 144.839 29.9486 145.344 29.141C145.882 28.3334 146.32 27.6268 146.656 27.0211ZM120.663 16.4217L125.861 14.6552C126.602 15.6983 127.342 16.9096 128.082 18.2892C128.822 19.6352 129.361 20.7961 129.697 21.7719L124.196 23.7908C123.926 22.7814 123.439 21.5868 122.732 20.2072C122.059 18.8276 121.369 17.5658 120.663 16.4217ZM126.517 28.182L132.221 26.9202C132.658 27.5595 133.096 28.2829 133.533 29.0905C134.004 29.8981 134.358 30.6215 134.593 31.2609L128.637 32.6741C128.469 32.0684 128.166 31.345 127.729 30.5038C127.325 29.6289 126.921 28.855 126.517 28.182ZM130.656 51.9549L134.946 53.9233C133.836 54.8655 132.44 55.774 130.757 56.6489C129.108 57.5237 127.375 58.2977 125.558 58.9706C123.741 59.6773 121.958 60.2325 120.208 60.6362C119.838 59.9969 119.3 59.2398 118.593 58.365C117.887 57.4901 117.23 56.8003 116.625 56.2956C118.307 56.0264 120.04 55.6731 121.823 55.2356C123.607 54.7982 125.272 54.2935 126.82 53.7214C128.368 53.1494 129.647 52.5605 130.656 51.9549ZM144.334 54.4785L148.372 51.6015C149.752 52.1399 151.266 52.7456 152.915 53.4186C154.597 54.0916 156.212 54.7814 157.76 55.488C159.342 56.161 160.671 56.7835 161.748 57.3555L157.458 60.6362C156.482 60.0979 155.237 59.4585 153.722 58.7183C152.208 57.978 150.61 57.2377 148.928 56.4974C147.279 55.7572 145.748 55.0842 144.334 54.4785Z" fill="#003396"/>
<path d="M167.199 16.7246H183.704V21.8224H167.199V16.7246ZM187.388 42.7183H207.88V47.7151H187.388V42.7183ZM166.492 32.1694H185.268V37.4186H166.492V32.1694ZM174.719 34.3397H180.423V55.2861C180.423 56.6657 180.271 57.7761 179.969 58.6173C179.699 59.4585 179.127 60.1147 178.252 60.5858C177.378 61.0232 176.351 61.3092 175.174 61.4438C173.996 61.5784 172.633 61.6457 171.085 61.6457C170.984 60.8045 170.766 59.8287 170.429 58.7183C170.093 57.6415 169.722 56.6993 169.319 55.8918C170.295 55.9254 171.22 55.9422 172.095 55.9422C172.97 55.9422 173.575 55.9422 173.912 55.9422C174.215 55.9086 174.416 55.8581 174.517 55.7908C174.652 55.6899 174.719 55.488 174.719 55.1851V34.3397ZM205.962 42.7183H212.069C212.069 42.7183 212.053 43.0043 212.019 43.5763C211.985 44.1147 211.935 44.5858 211.868 44.9896C211.632 47.917 211.346 50.3397 211.01 52.2577C210.707 54.142 210.37 55.6562 210 56.8003C209.63 57.9107 209.193 58.7351 208.688 59.2735C208.149 59.8455 207.577 60.2493 206.972 60.4848C206.4 60.754 205.744 60.9559 205.003 61.0905C204.398 61.1578 203.59 61.1915 202.581 61.1915C201.571 61.2251 200.477 61.2251 199.3 61.1915C199.266 60.3166 199.098 59.3576 198.795 58.3145C198.526 57.2714 198.156 56.3629 197.685 55.5889C198.593 55.6899 199.434 55.7572 200.208 55.7908C201.016 55.8245 201.622 55.8413 202.025 55.8413C202.429 55.8413 202.749 55.8076 202.984 55.7403C203.22 55.6394 203.455 55.488 203.691 55.2861C203.994 54.9832 204.28 54.4112 204.549 53.57C204.818 52.6951 205.071 51.4333 205.306 49.7845C205.542 48.1357 205.76 46.0327 205.962 43.4754V42.7183ZM195.262 38.1757H201.268C201.033 40.7666 200.679 43.2398 200.208 45.5952C199.771 47.917 199.031 50.0874 197.987 52.1063C196.944 54.1252 195.481 55.9591 193.596 57.6079C191.746 59.2566 189.323 60.6699 186.328 61.8476C185.992 61.141 185.487 60.3166 184.814 59.3744C184.141 58.4659 183.485 57.7256 182.846 57.1536C185.47 56.2114 187.556 55.0842 189.104 53.7719C190.686 52.4259 191.88 50.9454 192.688 49.3303C193.529 47.7151 194.118 45.9654 194.454 44.081C194.824 42.1967 195.094 40.2283 195.262 38.1757ZM168.36 27.223L172.145 23.3366C173.525 23.8413 174.989 24.447 176.536 25.1536C178.118 25.8602 179.615 26.5837 181.028 27.3239C182.475 28.0642 183.687 28.7877 184.663 29.4943L180.574 33.835C179.699 33.1284 178.572 32.3881 177.193 31.6142C175.813 30.8066 174.332 30.0158 172.751 29.2419C171.203 28.468 169.739 27.795 168.36 27.223ZM183.805 32.1694H184.562L185.369 31.917L189.054 33.0779C188.65 35.366 188.128 37.7214 187.489 40.1441C186.883 42.5668 186.244 44.6362 185.571 46.3523L181.483 44.4344C181.954 42.9538 182.391 41.1536 182.795 39.0337C183.232 36.9139 183.569 34.9117 183.805 33.0274V32.1694ZM203.994 22.0243L210.303 22.9833C209.193 26.0789 207.628 28.7372 205.609 30.958C203.624 33.1452 201.268 34.9622 198.543 36.4091C195.817 37.856 192.789 39.0505 189.458 39.9927C189.256 39.5553 188.919 39.0169 188.448 38.3776C188.011 37.7382 187.54 37.1157 187.035 36.5101C186.564 35.8707 186.126 35.366 185.722 34.9959C188.818 34.3565 191.594 33.4817 194.051 32.3713C196.541 31.2609 198.627 29.8644 200.309 28.182C202.025 26.4659 203.253 24.4133 203.994 22.0243ZM193.95 14.3523L199.552 15.9675C198.745 17.7509 197.769 19.5006 196.625 21.2167C195.481 22.9328 194.269 24.5479 192.991 26.0621C191.746 27.5427 190.467 28.8213 189.155 29.8981C188.785 29.5616 188.297 29.1915 187.691 28.7877C187.085 28.3502 186.48 27.9296 185.874 27.5258C185.268 27.1221 184.73 26.7856 184.259 26.5164C186.244 25.1031 188.095 23.3197 189.811 21.1662C191.527 18.979 192.906 16.7078 193.95 14.3523ZM194.606 23.3366C195.783 25.2209 197.314 26.937 199.199 28.4848C201.117 30.0327 203.321 31.3618 205.811 32.4722C208.334 33.549 211.06 34.3734 213.987 34.9454C213.584 35.3155 213.129 35.8203 212.625 36.4596C212.154 37.0653 211.699 37.6878 211.262 38.3271C210.824 38.9664 210.454 39.5385 210.152 40.0432C207.056 39.2693 204.212 38.1757 201.622 36.7624C199.064 35.3492 196.759 33.6499 194.707 31.6646C192.688 29.6794 190.989 27.4249 189.609 24.9012L194.606 23.3366ZM174.164 33.9864L178.051 35.4501C177.411 37.6709 176.604 39.9422 175.628 42.264C174.686 44.5858 173.609 46.7393 172.398 48.7246C171.186 50.7099 169.857 52.3755 168.41 53.7214C168.141 52.8466 167.72 51.8539 167.148 50.7435C166.61 49.6331 166.105 48.6741 165.634 47.8665C166.846 46.7898 167.99 45.4943 169.066 43.9801C170.177 42.4659 171.169 40.8508 172.044 39.1347C172.919 37.3849 173.626 35.6688 174.164 33.9864ZM193.798 19.5511H212.675V24.5479H191.375L193.798 19.5511ZM182.29 16.7246H183.552L184.511 16.5227L188.347 18.8949C187.607 20.1063 186.698 21.3513 185.622 22.6299C184.545 23.9086 183.384 25.1199 182.139 26.264C180.928 27.3744 179.716 28.3502 178.505 29.1915C177.966 28.6867 177.31 28.1652 176.536 27.6268C175.796 27.0884 175.123 26.6341 174.517 26.264C175.594 25.5237 176.62 24.6657 177.596 23.6899C178.606 22.6804 179.514 21.6541 180.322 20.611C181.163 19.5679 181.819 18.6257 182.29 17.7845V16.7246Z" fill="#003396"/>
<path d="M31.0726 20.4596L60.3471 18.794L60.8013 23.1347L31.5269 24.9517L31.0726 20.4596ZM36.5742 14.4028H42.2272C42.4628 16.3208 43.0011 18.0874 43.8424 19.7025C44.6836 21.3176 45.7099 22.7141 46.9212 23.8918C48.1326 25.0358 49.4281 25.9275 50.8077 26.5668C52.2209 27.2062 53.6173 27.5258 54.9969 27.5258C55.7035 27.5258 56.1746 27.2903 56.4102 26.8192C56.6457 26.3145 56.8308 25.406 56.9654 24.0937C57.5374 24.5311 58.244 24.9517 59.0853 25.3555C59.9265 25.7256 60.7004 26.0116 61.407 26.2135C61.1715 28.0306 60.7845 29.427 60.2461 30.4028C59.7414 31.345 59.0348 31.9843 58.1263 32.3208C57.2514 32.6573 56.141 32.8255 54.795 32.8255C53.0453 32.8255 51.3292 32.5395 49.6468 31.9675C47.9643 31.3954 46.3997 30.5879 44.9528 29.5448C43.5059 28.468 42.1936 27.1894 41.0159 25.7088C39.8381 24.1946 38.8623 22.4953 38.0884 20.611C37.3481 18.7267 36.8434 16.6573 36.5742 14.4028ZM45.4575 17.1788L48.183 14.2514C49.1252 14.4196 50.1347 14.672 51.2114 15.0085C52.3218 15.3113 53.3818 15.6478 54.3912 16.018C55.4007 16.3544 56.2419 16.7078 56.9149 17.0779L54.0379 20.3082C53.4323 19.9717 52.6247 19.6184 51.6152 19.2482C50.6394 18.8444 49.6131 18.4575 48.5364 18.0874C47.4596 17.7172 46.4333 17.4144 45.4575 17.1788ZM28.3976 13.999L33.8487 16.1189C32.57 17.734 31.0558 19.3155 29.3061 20.8634C27.5563 22.4112 25.7393 23.8581 23.855 25.2041C21.9706 26.5164 20.12 27.6436 18.3029 28.5858C18.0001 28.182 17.5795 27.7109 17.0411 27.1725C16.5364 26.6341 16.0148 26.0958 15.4764 25.5574C14.938 24.9854 14.4501 24.5479 14.0127 24.2451C15.8634 23.4375 17.6804 22.5122 19.4638 21.4691C21.2472 20.3923 22.9128 19.2314 24.4606 17.9864C26.0085 16.7078 27.3208 15.3786 28.3976 13.999ZM23.754 22.1252L27.5395 18.2892L29.5584 18.8444V31.4627H23.754V22.1252ZM27.59 41.9107V44.0306H49.4953V41.9107H27.59ZM27.59 47.4627V49.6836H49.4953V47.4627H27.59ZM27.59 36.3082V38.4785H49.4953V36.3082H27.59ZM21.7351 32.7246H55.6531V53.2672H21.7351V32.7246ZM41.1168 55.9422L46.1641 53.0653C47.9812 53.7046 49.815 54.3944 51.6657 55.1347C53.55 55.8413 55.3334 56.5647 57.0159 57.305C58.7319 58.0116 60.1788 58.651 61.3565 59.223L54.2903 61.9486C53.3481 61.4102 52.1704 60.7877 50.7572 60.081C49.3439 59.3744 47.8129 58.651 46.1641 57.9107C44.549 57.2041 42.8665 56.5479 41.1168 55.9422ZM29.9622 52.8634L35.4638 55.387C34.1178 56.2619 32.5364 57.1199 30.7193 57.9612C28.9023 58.8024 27.0348 59.5595 25.1168 60.2325C23.1988 60.9391 21.3818 61.5279 19.6657 61.999C19.2956 61.5952 18.8413 61.1073 18.3029 60.5353C17.7982 59.9969 17.2598 59.4417 16.6878 58.8697C16.1157 58.3313 15.611 57.8939 15.1736 57.5574C16.957 57.2209 18.7572 56.8171 20.5742 56.346C22.4249 55.8749 24.1578 55.3366 25.7729 54.7309C27.4217 54.1252 28.8182 53.5027 29.9622 52.8634Z" stroke="white" stroke-width="10" stroke-linejoin="round" mask="url(#path-1-outside-1_1268_15365)"/>
<path d="M96.6373 32.3713H102.391V34.8949C102.391 36.712 102.273 38.7477 102.038 41.0022C101.836 43.223 101.399 45.5616 100.726 48.018C100.053 50.4407 99.0264 52.8466 97.6468 55.2356C96.2672 57.6247 94.4165 59.8792 92.0947 61.999C91.7582 61.5616 91.3208 61.0737 90.7824 60.5353C90.2777 60.0306 89.7225 59.5258 89.1168 59.0211C88.5448 58.55 88.0064 58.1631 87.5017 57.8602C89.6215 56.0432 91.2871 54.1252 92.4985 52.1063C93.7435 50.0537 94.652 48.0011 95.2241 45.9486C95.7961 43.8623 96.1662 41.8602 96.3345 39.9422C96.5364 38.0243 96.6373 36.2913 96.6373 34.7435V32.3713ZM101.987 38.4785C102.526 41.1031 103.266 43.61 104.208 45.999C105.15 48.3544 106.345 50.4575 107.792 52.3082C109.239 54.1252 110.989 55.5553 113.041 56.5984C112.57 57.0022 112.082 57.4901 111.577 58.0621C111.073 58.6678 110.585 59.2903 110.114 59.9296C109.643 60.569 109.256 61.1746 108.953 61.7467C106.732 60.3334 104.848 58.5164 103.3 56.2956C101.786 54.0747 100.541 51.5342 99.5648 48.6741C98.5889 45.7803 97.7814 42.6678 97.142 39.3366L101.987 38.4785ZM65.6972 18.4911H89.3692V23.4375H65.6972V18.4911ZM64.9906 40.4974H89.9748V45.4438H64.9906V40.4974ZM66.9591 25.9612H88.2588V30.8571H66.9591V25.9612ZM67.2619 33.2293H87.9559V38.1252H67.2619V33.2293ZM74.7824 14.7561H80.4354V29.1915H74.7824V14.7561ZM68.2209 46.4028L73.1673 47.5637C72.6625 49.4144 72.04 51.3324 71.2998 53.3176C70.5595 55.2693 69.836 56.9349 69.1294 58.3145C68.591 57.978 67.8339 57.6079 66.8581 57.2041C65.916 56.8003 65.1252 56.4974 64.4859 56.2956C65.2262 54.9832 65.9328 53.4354 66.6058 51.652C67.2787 49.835 67.8171 48.0853 68.2209 46.4028ZM81.8991 48.0684L86.3913 46.3019C86.8287 47.1431 87.2493 48.0348 87.6531 48.9769C88.0905 49.8855 88.4943 50.794 88.8644 51.7025C89.2346 52.611 89.5038 53.4186 89.672 54.1252L84.9275 56.1441C84.7593 55.4375 84.5069 54.6299 84.1704 53.7214C83.8339 52.7793 83.4638 51.8203 83.06 50.8444C82.6899 49.835 82.3029 48.9096 81.8991 48.0684ZM93.9118 23.5385H108.145V29.04H93.9118V23.5385ZM92.9528 14.5038L98.8581 15.3113C98.4543 18.3734 97.916 21.3681 97.243 24.2956C96.6037 27.1894 95.8297 29.8981 94.9212 32.4217C94.0127 34.9117 92.9696 37.1157 91.7919 39.0337C91.4554 38.6972 90.9843 38.2935 90.3786 37.8224C89.7729 37.3513 89.1504 36.897 88.5111 36.4596C87.8718 35.9885 87.3166 35.6184 86.8455 35.3492C87.9896 33.734 88.9486 31.8161 89.7225 29.5952C90.53 27.3744 91.1862 24.9854 91.6909 22.428C92.2293 19.8371 92.6499 17.1957 92.9528 14.5038ZM106.581 23.5385H107.439L108.398 23.3366L112.536 24.447C112.234 26.1294 111.863 27.8455 111.426 29.5952C111.022 31.345 110.585 33.0274 110.114 34.6426C109.676 36.2577 109.239 37.6709 108.801 38.8823L103.905 37.4186C104.242 36.3082 104.578 35.0127 104.915 33.5321C105.251 32.0516 105.554 30.5374 105.823 28.9896C106.126 27.4081 106.379 25.8939 106.581 24.447V23.5385ZM74.8329 42.5164H80.5364V61.7971H74.8329V42.5164Z" stroke="white" stroke-width="10" stroke-linejoin="round" mask="url(#path-1-outside-1_1268_15365)"/>
<path d="M116.827 45.2924H161.849V50.2892H116.827V45.2924ZM116.978 22.6804H161.697V27.4249H116.978V22.6804ZM119.047 31.8665H159.729V36.4596H119.047V31.8665ZM121.521 38.7309H157.407V43.0716H121.521V38.7309ZM136.158 34.0874H142.164V61.8476H136.158V34.0874ZM131.868 14.3523H137.521V25.0526H131.868V14.3523ZM141.205 14.3523H146.959V24.6993H141.205V14.3523ZM152.864 14.8066L159.174 16.3208C158.366 17.7004 157.558 19.0463 156.751 20.3586C155.943 21.6373 155.203 22.7309 154.53 23.6394L149.634 22.1252C150.038 21.4522 150.442 20.6951 150.846 19.8539C151.249 18.979 151.619 18.1042 151.956 17.2293C152.326 16.3208 152.629 15.5132 152.864 14.8066ZM146.656 27.0211L153.066 28.6362C152.326 29.5111 151.603 30.3019 150.896 31.0085C150.223 31.6815 149.584 32.2871 148.978 32.8255L143.83 31.3113C144.334 30.672 144.839 29.9486 145.344 29.141C145.882 28.3334 146.32 27.6268 146.656 27.0211ZM120.663 16.4217L125.861 14.6552C126.602 15.6983 127.342 16.9096 128.082 18.2892C128.822 19.6352 129.361 20.7961 129.697 21.7719L124.196 23.7908C123.926 22.7814 123.439 21.5868 122.732 20.2072C122.059 18.8276 121.369 17.5658 120.663 16.4217ZM126.517 28.182L132.221 26.9202C132.658 27.5595 133.096 28.2829 133.533 29.0905C134.004 29.8981 134.358 30.6215 134.593 31.2609L128.637 32.6741C128.469 32.0684 128.166 31.345 127.729 30.5038C127.325 29.6289 126.921 28.855 126.517 28.182ZM130.656 51.9549L134.946 53.9233C133.836 54.8655 132.44 55.774 130.757 56.6489C129.108 57.5237 127.375 58.2977 125.558 58.9706C123.741 59.6773 121.958 60.2325 120.208 60.6362C119.838 59.9969 119.3 59.2398 118.593 58.365C117.887 57.4901 117.23 56.8003 116.625 56.2956C118.307 56.0264 120.04 55.6731 121.823 55.2356C123.607 54.7982 125.272 54.2935 126.82 53.7214C128.368 53.1494 129.647 52.5605 130.656 51.9549ZM144.334 54.4785L148.372 51.6015C149.752 52.1399 151.266 52.7456 152.915 53.4186C154.597 54.0916 156.212 54.7814 157.76 55.488C159.342 56.161 160.671 56.7835 161.748 57.3555L157.458 60.6362C156.482 60.0979 155.237 59.4585 153.722 58.7183C152.208 57.978 150.61 57.2377 148.928 56.4974C147.279 55.7572 145.748 55.0842 144.334 54.4785Z" stroke="white" stroke-width="10" stroke-linejoin="round" mask="url(#path-1-outside-1_1268_15365)"/>
<path d="M167.199 16.7246H183.704V21.8224H167.199V16.7246ZM187.388 42.7183H207.88V47.7151H187.388V42.7183ZM166.492 32.1694H185.268V37.4186H166.492V32.1694ZM174.719 34.3397H180.423V55.2861C180.423 56.6657 180.271 57.7761 179.969 58.6173C179.699 59.4585 179.127 60.1147 178.252 60.5858C177.378 61.0232 176.351 61.3092 175.174 61.4438C173.996 61.5784 172.633 61.6457 171.085 61.6457C170.984 60.8045 170.766 59.8287 170.429 58.7183C170.093 57.6415 169.722 56.6993 169.319 55.8918C170.295 55.9254 171.22 55.9422 172.095 55.9422C172.97 55.9422 173.575 55.9422 173.912 55.9422C174.215 55.9086 174.416 55.8581 174.517 55.7908C174.652 55.6899 174.719 55.488 174.719 55.1851V34.3397ZM205.962 42.7183H212.069C212.069 42.7183 212.053 43.0043 212.019 43.5763C211.985 44.1147 211.935 44.5858 211.868 44.9896C211.632 47.917 211.346 50.3397 211.01 52.2577C210.707 54.142 210.37 55.6562 210 56.8003C209.63 57.9107 209.193 58.7351 208.688 59.2735C208.149 59.8455 207.577 60.2493 206.972 60.4848C206.4 60.754 205.744 60.9559 205.003 61.0905C204.398 61.1578 203.59 61.1915 202.581 61.1915C201.571 61.2251 200.477 61.2251 199.3 61.1915C199.266 60.3166 199.098 59.3576 198.795 58.3145C198.526 57.2714 198.156 56.3629 197.685 55.5889C198.593 55.6899 199.434 55.7572 200.208 55.7908C201.016 55.8245 201.622 55.8413 202.025 55.8413C202.429 55.8413 202.749 55.8076 202.984 55.7403C203.22 55.6394 203.455 55.488 203.691 55.2861C203.994 54.9832 204.28 54.4112 204.549 53.57C204.818 52.6951 205.071 51.4333 205.306 49.7845C205.542 48.1357 205.76 46.0327 205.962 43.4754V42.7183ZM195.262 38.1757H201.268C201.033 40.7666 200.679 43.2398 200.208 45.5952C199.771 47.917 199.031 50.0874 197.987 52.1063C196.944 54.1252 195.481 55.9591 193.596 57.6079C191.746 59.2566 189.323 60.6699 186.328 61.8476C185.992 61.141 185.487 60.3166 184.814 59.3744C184.141 58.4659 183.485 57.7256 182.846 57.1536C185.47 56.2114 187.556 55.0842 189.104 53.7719C190.686 52.4259 191.88 50.9454 192.688 49.3303C193.529 47.7151 194.118 45.9654 194.454 44.081C194.824 42.1967 195.094 40.2283 195.262 38.1757ZM168.36 27.223L172.145 23.3366C173.525 23.8413 174.989 24.447 176.536 25.1536C178.118 25.8602 179.615 26.5837 181.028 27.3239C182.475 28.0642 183.687 28.7877 184.663 29.4943L180.574 33.835C179.699 33.1284 178.572 32.3881 177.193 31.6142C175.813 30.8066 174.332 30.0158 172.751 29.2419C171.203 28.468 169.739 27.795 168.36 27.223ZM183.805 32.1694H184.562L185.369 31.917L189.054 33.0779C188.65 35.366 188.128 37.7214 187.489 40.1441C186.883 42.5668 186.244 44.6362 185.571 46.3523L181.483 44.4344C181.954 42.9538 182.391 41.1536 182.795 39.0337C183.232 36.9139 183.569 34.9117 183.805 33.0274V32.1694ZM203.994 22.0243L210.303 22.9833C209.193 26.0789 207.628 28.7372 205.609 30.958C203.624 33.1452 201.268 34.9622 198.543 36.4091C195.817 37.856 192.789 39.0505 189.458 39.9927C189.256 39.5553 188.919 39.0169 188.448 38.3776C188.011 37.7382 187.54 37.1157 187.035 36.5101C186.564 35.8707 186.126 35.366 185.722 34.9959C188.818 34.3565 191.594 33.4817 194.051 32.3713C196.541 31.2609 198.627 29.8644 200.309 28.182C202.025 26.4659 203.253 24.4133 203.994 22.0243ZM193.95 14.3523L199.552 15.9675C198.745 17.7509 197.769 19.5006 196.625 21.2167C195.481 22.9328 194.269 24.5479 192.991 26.0621C191.746 27.5427 190.467 28.8213 189.155 29.8981C188.785 29.5616 188.297 29.1915 187.691 28.7877C187.085 28.3502 186.48 27.9296 185.874 27.5258C185.268 27.1221 184.73 26.7856 184.259 26.5164C186.244 25.1031 188.095 23.3197 189.811 21.1662C191.527 18.979 192.906 16.7078 193.95 14.3523ZM194.606 23.3366C195.783 25.2209 197.314 26.937 199.199 28.4848C201.117 30.0327 203.321 31.3618 205.811 32.4722C208.334 33.549 211.06 34.3734 213.987 34.9454C213.584 35.3155 213.129 35.8203 212.625 36.4596C212.154 37.0653 211.699 37.6878 211.262 38.3271C210.824 38.9664 210.454 39.5385 210.152 40.0432C207.056 39.2693 204.212 38.1757 201.622 36.7624C199.064 35.3492 196.759 33.6499 194.707 31.6646C192.688 29.6794 190.989 27.4249 189.609 24.9012L194.606 23.3366ZM174.164 33.9864L178.051 35.4501C177.411 37.6709 176.604 39.9422 175.628 42.264C174.686 44.5858 173.609 46.7393 172.398 48.7246C171.186 50.7099 169.857 52.3755 168.41 53.7214C168.141 52.8466 167.72 51.8539 167.148 50.7435C166.61 49.6331 166.105 48.6741 165.634 47.8665C166.846 46.7898 167.99 45.4943 169.066 43.9801C170.177 42.4659 171.169 40.8508 172.044 39.1347C172.919 37.3849 173.626 35.6688 174.164 33.9864ZM193.798 19.5511H212.675V24.5479H191.375L193.798 19.5511ZM182.29 16.7246H183.552L184.511 16.5227L188.347 18.8949C187.607 20.1063 186.698 21.3513 185.622 22.6299C184.545 23.9086 183.384 25.1199 182.139 26.264C180.928 27.3744 179.716 28.3502 178.505 29.1915C177.966 28.6867 177.31 28.1652 176.536 27.6268C175.796 27.0884 175.123 26.6341 174.517 26.264C175.594 25.5237 176.62 24.6657 177.596 23.6899C178.606 22.6804 179.514 21.6541 180.322 20.611C181.163 19.5679 181.819 18.6257 182.29 17.7845V16.7246Z" stroke="white" stroke-width="10" stroke-linejoin="round" mask="url(#path-1-outside-1_1268_15365)"/>
</g>
<defs>
<filter id="filter0_d_1268_15365" x="0.0126953" y="-0.000976562" width="227.975" height="76" filterUnits="userSpaceOnUse" color-interpolation-filters="sRGB">
<feFlood flood-opacity="0" result="BackgroundImageFix"/>
<feColorMatrix in="SourceAlpha" type="matrix" values="0 0 0 0 0 0 0 0 0 0 0 0 0 0 0 0 0 0 127 0" result="hardAlpha"/>
<feOffset/>
<feGaussianBlur stdDeviation="4.5"/>
<feComposite in2="hardAlpha" operator="out"/>
<feColorMatrix type="matrix" values="0 0 0 0 0 0 0 0 0 1 0 0 0 0 1 0 0 0 1 0"/>
<feBlend mode="normal" in2="BackgroundImageFix" result="effect1_dropShadow_1268_15365"/>
<feBlend mode="normal" in="SourceGraphic" in2="effect1_dropShadow_1268_15365" result="shape"/>
</filter>
</defs>
</svg>
