<svg width="282" height="79" viewBox="0 0 282 79" fill="none" xmlns="http://www.w3.org/2000/svg">
<g filter="url(#filter0_d_1231_10057)">
<rect x="8.5" y="8.58887" width="265" height="62" fill="#003397" shape-rendering="crispEdges"/>
<rect x="9.5" y="9.58887" width="263" height="60" stroke="#00FFFF" stroke-width="2" shape-rendering="crispEdges"/>
<path fill-rule="evenodd" clip-rule="evenodd" d="M16.808 16.5889H40.5V17.5637H17.7751V26.4479L20.0831 28.7747L17.2915 31.5889L14.5 28.7747L16.808 26.4479V16.5889Z" fill="#00FFFF"/>
<path d="M8.5 38.5889L40.5 70.5889H8.5L8.5 38.5889Z" fill="#00FFFF"/>
<path d="M79.8 39.9889H82.28V46.9089C82.28 47.6889 82.4 47.7889 83.04 47.7889C83.32 47.7889 84.5 47.7889 84.86 47.7889C85.54 47.7889 85.66 47.2889 85.74 44.3889C86.26 44.8089 87.32 45.2289 87.96 45.3889C87.72 49.0089 87.12 50.0489 85.08 50.0489C84.62 50.0489 83.1 50.0489 82.66 50.0489C80.38 50.0489 79.8 49.2689 79.8 46.9289V39.9889ZM69.64 38.4489H87.58V40.7889H69.64V38.4489ZM71.46 33.0089H85.74V35.3289H71.46V33.0089ZM74.22 40.2889H76.8C76.48 44.6889 75.72 48.3089 70.68 50.3289C70.42 49.7289 69.74 48.8489 69.2 48.3889C73.6 46.7489 73.98 43.8089 74.22 40.2889ZM100.68 41.6489H103.1V47.0689C103.1 47.7289 103.2 47.8089 103.82 47.8089C104.1 47.8089 105.22 47.8089 105.56 47.8089C106.16 47.8089 106.26 47.4489 106.34 45.0889C106.84 45.4689 107.88 45.8689 108.54 46.0289C108.3 49.2289 107.66 50.0889 105.78 50.0889C105.32 50.0889 103.9 50.0889 103.46 50.0889C101.2 50.0889 100.68 49.3289 100.68 47.0689V41.6489ZM90.48 39.8689H108.34V42.1889H90.48V39.8689ZM93.78 34.3089H106.76V36.6089H93.78V34.3089ZM95.3 41.6889H97.82C97.44 45.4689 96.5 48.6689 91.68 50.4889C91.4 49.8489 90.72 48.8689 90.16 48.3889C94.44 47.0089 95 44.5289 95.3 41.6889ZM93.76 31.8889L96.2 32.3689C95.56 34.7289 94.54 37.6089 93.2 39.3689C92.64 39.0089 91.66 38.5089 91.06 38.2889C92.38 36.6489 93.32 33.9489 93.76 31.8889ZM98.2 31.6089H100.64V40.5889H98.2V31.6089ZM114.34 35.2289H128.26V37.5689H114.34V35.2289ZM113.52 41.1289H127.5V43.4289H113.52V41.1289ZM111.2 47.4689H129.28V49.8089H111.2V47.4689ZM118.98 31.6089H121.48V48.6289H118.98V31.6089ZM114.36 31.8489L116.84 32.4089C115.96 35.5089 114.5 38.5889 112.94 40.5089C112.46 40.0889 111.4 39.3889 110.78 39.0489C112.36 37.3689 113.64 34.6089 114.36 31.8489ZM134.92 42.1689H148.48V44.2289H134.92V42.1689ZM132.22 34.8689H145.46V37.0289H132.22V34.8689ZM138.12 38.5489H147.2V40.6089H138.12V38.5489ZM147.56 42.1689H149.96C149.96 42.1689 149.92 42.7889 149.88 43.0889C149.56 47.1489 149.2 48.8889 148.56 49.5689C148.08 50.0889 147.6 50.2689 146.94 50.3489C146.38 50.4089 145.42 50.4089 144.38 50.3889C144.36 49.7289 144.08 48.7889 143.7 48.1889C144.58 48.2889 145.42 48.3089 145.82 48.2889C146.16 48.2889 146.36 48.2489 146.56 48.0689C146.96 47.6689 147.3 46.1489 147.56 42.5089V42.1689ZM143.3 44.9289L144.96 44.3489C145.5 45.1689 146.04 46.2889 146.24 47.0089L144.5 47.6489C144.32 46.9289 143.8 45.7689 143.3 44.9289ZM134.46 32.4489L136.62 31.6089C137.32 32.3689 138.18 33.4689 138.58 34.2289L136.28 35.1689C135.96 34.4289 135.16 33.2689 134.46 32.4489ZM137.26 45.4689L139.2 45.2289C139.58 46.5289 139.78 48.2089 139.78 49.3289L137.72 49.6089C137.78 48.5089 137.58 46.7889 137.26 45.4689ZM140.28 45.3089L142.12 44.8889C142.6 46.0089 143.04 47.4689 143.2 48.4289L141.26 48.9289C141.14 47.9489 140.72 46.4489 140.28 45.3089ZM134.6 44.8089L136.6 45.4689C136.2 47.1889 135.58 49.0689 134.4 50.3089L132.56 48.9889C133.56 47.9889 134.26 46.3689 134.6 44.8089ZM140.62 31.5889L143.08 32.1689C141.3 37.9089 138.24 43.2889 132.56 46.3489C132.28 45.7489 131.68 44.7889 131.28 44.2689C136.38 41.7089 139.28 36.6489 140.62 31.5889ZM145 34.8689H147.2C146.92 36.3689 146.54 38.1289 146.2 39.2889L144.12 38.9689C144.42 37.8689 144.78 36.2089 145 34.8689ZM146.3 38.5489H148.5C148.22 40.0089 147.86 41.7489 147.54 42.8889L145.44 42.6089C145.76 41.4889 146.1 39.8689 146.3 38.5489ZM160.84 31.6089L163.04 32.1489C162.3 34.2689 161.04 36.3089 159.68 37.6089C159.3 37.2089 158.44 36.4489 157.94 36.1089C159.2 35.0289 160.26 33.3289 160.84 31.6089ZM160.78 37.2689L162.96 37.8889C162.26 39.4289 161.12 41.0089 160.04 42.0089C159.66 41.6089 158.78 40.9289 158.28 40.5889C159.3 39.7689 160.26 38.5089 160.78 37.2689ZM161.18 33.2289H169.16V35.2489H160.38L161.18 33.2289ZM166.5 38.1489L168.42 37.2489C169.38 38.4089 170.38 39.9489 170.84 40.9889L168.82 42.0689C168.4 41.0089 167.4 39.3489 166.5 38.1489ZM168.54 33.2289H168.88L169.26 33.1689L170.94 33.5289C170.48 34.8089 169.86 36.2489 169.38 37.1689L167.34 36.7489C167.74 35.9289 168.26 34.5889 168.54 33.5089V33.2289ZM156.94 31.5089L159.06 32.2289C157.78 34.7689 155.7 37.3289 153.72 38.9289C153.46 38.4489 152.72 37.4489 152.28 36.9889C154.1 35.6889 155.88 33.6089 156.94 31.5089ZM155.16 35.7889L157.4 33.5289L157.46 33.5489V43.3489H155.16V35.7889ZM156.84 44.1889H159.26V47.1489C159.26 47.7689 159.46 47.8489 160.64 47.8489C161.18 47.8489 163.42 47.8489 164.12 47.8489C165.1 47.8489 165.26 47.5889 165.38 45.6689C165.88 46.0489 166.92 46.4089 167.56 46.5289C167.28 49.3489 166.58 50.0289 164.3 50.0289C163.7 50.0289 161 50.0289 160.42 50.0289C157.56 50.0289 156.84 49.3689 156.84 47.2089V44.1889ZM160.04 43.5489L161.86 42.5089C162.88 43.4689 164.06 44.8289 164.56 45.8089L162.56 46.9689C162.14 46.0089 161.02 44.5689 160.04 43.5489ZM166.72 44.5289L168.84 43.6889C169.74 45.1489 170.68 47.0289 171 48.3289L168.72 49.2489C168.46 47.9889 167.6 46.0089 166.72 44.5289ZM154.38 44.1289L156.52 45.0089C156.04 46.4289 155.36 48.3289 154.72 49.5689L152.46 48.5089C153.2 47.3289 153.94 45.5689 154.38 44.1289ZM163.7 35.7489H165.98V43.2689H163.7V35.7489ZM185.24 39.8489H187.78V50.3889H185.24V39.8489ZM177.7 39.8689H180.24V42.1689C180.24 44.8289 179.78 48.1689 175.82 50.4089C175.38 49.8489 174.42 49.0089 173.78 48.6289C177.32 46.7489 177.7 44.1889 177.7 42.1089V39.8689ZM182.48 31.3489L184.42 32.7089C182.3 35.9489 178.28 38.9689 174.38 40.5089C174.06 39.8089 173.44 38.8089 172.9 38.1889C176.76 37.0289 180.62 34.2689 182.48 31.3489ZM183.72 32.8289C185.4 35.1089 188.74 37.0889 192.36 37.9289C191.8 38.4689 191.02 39.5289 190.64 40.2089C186.88 39.0689 183.62 36.6889 181.56 33.6889L183.72 32.8289ZM203.88 47.4089H210.36V49.5089H203.88V47.4089ZM202.56 41.9089H211.8V50.3089H209.32V44.0089H204.92V50.4089H202.56V41.9089ZM202.02 32.5489H210.34V34.6289H202.02V32.5489ZM210.08 32.5489H212.36C212.36 32.5489 212.36 33.1489 212.34 33.4289C212.12 37.6689 211.9 39.4489 211.38 40.0889C210.96 40.6089 210.54 40.7689 209.94 40.8489C209.42 40.9489 208.56 40.9489 207.64 40.9289C207.6 40.2489 207.36 39.3089 207 38.7289C207.74 38.7889 208.44 38.8089 208.78 38.8089C209.06 38.8089 209.24 38.7489 209.42 38.5689C209.74 38.1889 209.92 36.7289 210.08 32.8889V32.5489ZM205.18 33.4489H207.56C207.28 36.8089 206.58 39.7089 203.24 41.4689C202.96 40.9089 202.32 40.0689 201.78 39.6489C204.56 38.3089 204.98 36.0089 205.18 33.4489ZM199.12 39.8289L200.86 39.2689C201.38 40.6289 201.94 42.4089 202.16 43.4889L200.26 44.1489C200.1 43.0289 199.6 41.2289 199.12 39.8289ZM197.16 45.0889L198.96 44.7489C199.22 46.1289 199.46 47.8889 199.52 49.0689L197.62 49.4689C197.58 48.2889 197.38 46.4689 197.16 45.0889ZM194.76 44.8089L196.72 45.1289C196.6 46.9289 196.26 48.8289 195.84 50.0689C195.4 49.8289 194.46 49.5289 193.96 49.3889C194.4 48.2289 194.64 46.4289 194.76 44.8089ZM194.58 39.5489C194.46 39.1089 194.1 38.0489 193.86 37.4889C194.24 37.3689 194.6 36.9889 195.02 36.3889C195.44 35.8089 196.78 33.5889 197.52 31.4489L199.68 32.3489C198.68 34.5289 197.24 36.8089 195.9 38.3889V38.4489C195.9 38.4489 194.58 39.1489 194.58 39.5489ZM194.58 39.5489L194.5 37.9089L195.48 37.2889L198.98 37.0289C198.84 37.6089 198.76 38.4489 198.74 38.9089C195.64 39.2089 194.98 39.3689 194.58 39.5489ZM194.72 44.1889C194.6 43.7289 194.24 42.6289 193.98 42.0289C194.5 41.8889 194.94 41.4489 195.6 40.7089C196.28 40.0089 198.42 37.2089 199.72 34.4889L201.74 35.7889C200.22 38.4289 198.12 41.1089 196.1 43.0089V43.0689C196.1 43.0689 194.72 43.7689 194.72 44.1889ZM194.72 44.1889L194.62 42.5089L195.62 41.8489L200.9 41.2089C200.8 41.7889 200.74 42.6289 200.76 43.0889C196 43.7489 195.22 43.9289 194.72 44.1889ZM199.38 44.6889L201.12 44.1289C201.56 45.2689 202.02 46.7489 202.2 47.7289L200.38 48.3689C200.2 47.3689 199.76 45.8489 199.38 44.6889Z" fill="white"/>
<path d="M273.5 40.5889L241.5 8.58886L273.5 8.58887L273.5 40.5889Z" fill="#00FFFF"/>
<path fill-rule="evenodd" clip-rule="evenodd" d="M265.192 62.5889L241.5 62.5889L241.5 61.614L264.225 61.614L264.225 52.7298L261.917 50.4031L264.708 47.5889L267.5 50.4031L265.192 52.7298L265.192 62.5889Z" fill="#00FFFF"/>
</g>
<defs>
<filter id="filter0_d_1231_10057" x="0.5" y="0.588867" width="281" height="78" filterUnits="userSpaceOnUse" color-interpolation-filters="sRGB">
<feFlood flood-opacity="0" result="BackgroundImageFix"/>
<feColorMatrix in="SourceAlpha" type="matrix" values="0 0 0 0 0 0 0 0 0 0 0 0 0 0 0 0 0 0 127 0" result="hardAlpha"/>
<feOffset/>
<feGaussianBlur stdDeviation="4"/>
<feComposite in2="hardAlpha" operator="out"/>
<feColorMatrix type="matrix" values="0 0 0 0 0 0 0 0 0 1 0 0 0 0 1 0 0 0 0.8 0"/>
<feBlend mode="normal" in2="BackgroundImageFix" result="effect1_dropShadow_1231_10057"/>
<feBlend mode="normal" in="SourceGraphic" in2="effect1_dropShadow_1231_10057" result="shape"/>
</filter>
</defs>
</svg>
